<svg xmlns="http://www.w3.org/2000/svg" width="32" height="32" fill="none"><path fill="#250D9A" d="M19.598 22.315h3.38L17.581 8.006h-3.736L8.45 22.315h3.38l.881-2.424h5.098l-.923-2.682H13.53l2.183-6.157zM30.742 11.72a.81.81 0 0 0-1.001-.578.833.833 0 0 0-.566 1.022 14.6 14.6 0 0 1 .51 3.835c0 7.906-6.293 14.338-14.03 14.338C7.92 30.338 1.627 23.906 1.627 16S7.92 1.662 15.656 1.662c3.277 0 6.448 1.19 8.95 3.307a2 2 0 0 0-.15.772c0 1.104.875 2 1.956 2s1.956-.896 1.956-2-.876-2-1.956-2q-.313.002-.597.095C22.997 1.382 19.388 0 15.655 0 7.024 0 0 7.178 0 16c0 8.823 7.023 16 15.656 16s15.656-7.177 15.656-16c0-1.446-.192-2.886-.57-4.279"/></svg>