<svg xmlns="http://www.w3.org/2000/svg" width="466" height="266" fill="none"><g clip-path="url(#a)"><path fill="#FAA51F" d="M228.879 15.809c14.528 6.182 27.258 11.68 40.073 16.985 2.524 1.042 2.799 2.731 2.799 4.975-.031 17.973-.092 35.97.036 53.924 0 4.103-1.372 4.03-4.475 2.536-11.583-5.566-23.252-10.974-34.927-16.375-2.037-.939-3.573-1.762-3.561-4.481.098-18.778.055-37.555.055-57.564"/><path fill="#FAA41C" d="M90.42 265.52c-14.023-6.572-26.935-12.742-39.97-18.656-2.823-1.28-2.817-3.231-2.774-5.633.305-16.924.658-33.842.756-50.773 0-3.92.835-4.81 4.61-3.133 11.174 4.962 22.447 9.724 33.756 14.388 2.439 1.012 3.695 2.14 3.658 4.999-.085 19.247-.037 38.494-.037 58.808m45.755-87.426c-13.967-6.559-27.075-12.802-40.237-18.838-2.567-1.177-2.439-3.048-2.439-5.194.274-16.711.695-33.416.659-50.127 0-5.219 1.457-5.487 5.718-3.603 10.578 4.755 21.277 9.243 32.001 13.669 2.774 1.14 4.426 2.28 4.39 5.792-.195 19.033-.092 38.067-.092 58.301m-93.802 2.146c-13.9-6.523-26.826-12.656-39.824-18.613C.366 160.622 0 159.195 0 157.14c.213-17.345.47-34.689.5-52.04 0-4.268 1.353-4.439 4.828-2.896a1125 1125 0 0 0 33.178 14.113c2.731 1.116 3.945 2.476 3.926 5.542-.115 19.022-.06 38.043-.06 58.381"/><path fill="#FAA51F" d="M278.616 60.966c0-8.041.14-16.089-.067-24.124-.091-3.372.683-5.335 4.158-6.645a649 649 0 0 0 30.507-12.389c4.073-1.762 4.481-.305 4.451 3.299a3080 3080 0 0 0 0 48.254c0 3.152-.78 4.932-3.902 6.213a827 827 0 0 0-30.77 13.357c-4.017 1.83-4.511.421-4.426-3.219.189-8.255.049-16.51.049-24.746"/><path fill="#FAA41C" d="M49.76 144.819c0-8.023.177-16.052-.079-24.069-.11-3.451.866-5.25 4.231-6.524 10.029-3.804 19.96-7.889 29.83-12.089 3.659-1.561 4.634-.817 4.592 3.139-.165 16.254-.128 32.514 0 48.773 0 2.902-.817 4.591-3.616 5.743-10.315 4.268-20.6 8.578-30.763 13.163-3.536 1.597-4.304.799-4.231-2.798.152-8.45.036-16.894.036-25.338m86.457 40.823v54.79c0 1.47.036 2.848-1.768 3.616-11.956 5.096-23.868 10.285-36.58 15.79v-56.156c0-1.634.445-2.713 2.134-3.384 11.864-4.749 23.716-9.59 36.214-14.656m7.395-43.353c0-8.017.147-16.04-.073-24.057-.085-3.158.738-4.975 3.841-6.164 10.017-3.829 20.021-7.724 29.873-12.01 4.494-1.957 4.835-.262 4.798 3.566-.164 16.041-.225 32.081-.079 48.121 0 3.274-1.091 4.761-4.072 5.975-9.755 3.975-19.43 8.084-28.947 12.553-4.944 2.322-5.53.524-5.396-3.927.238-8.011.055-16.034.055-24.057"/><path fill="#FAA51D" d="M141.277 46.999c0-8.243.085-16.461-.043-24.728-.055-3.378.061-5.28 4.347-3.262 9.883 4.664 19.967 9.035 30.044 13.303 2.756 1.17 3.701 2.75 3.603 5.743a2622 2622 0 0 0-1.115 46.255c-.049 3.365-1.22 4-4.152 3.049a1825 1825 0 0 0-28.977-8.92c-2.902-.866-3.847-2.438-3.774-5.487.195-8.626.067-17.29.067-25.953"/><path fill="#FAA41C" d="M222.655 20.655c0 16.278-.61 31.703.244 46.993.488 8.56-2.201 12.956-10.127 15.876-8.212 3.048-15.918 7.444-24.539 11.583V39.55c0-2.067.378-3.524 2.537-4.481 10.364-4.585 20.673-9.328 31.885-14.413"/><path fill="#FAA51F" d="M302.96 13.047c-10.889 4.267-20.302 7.822-29.593 11.663-1.963.81-3.25.054-4.719-.61-7.682-3.457-15.339-6.969-24.307-11.053 10.017-4.573 19.033-8.725 28.13-12.815 1.219-.549 2.438 0 3.658.53 8.364 3.865 16.771 7.688 26.831 12.285M63.203 182.362c9.974-4.536 18.613-8.413 27.191-12.413a4.32 4.32 0 0 1 4.115-.079c8.725 4.085 17.51 8.048 27.264 12.504-10.407 4.116-19.783 7.81-29.148 11.529a5.12 5.12 0 0 1-4.267-.049c-8.011-3.694-16.04-7.334-25.155-11.492M152.61 13.047c9.987-4.512 18.595-8.407 27.161-12.37a5.29 5.29 0 0 1 4.828.08c8.383 3.895 16.796 7.705 26.74 12.253-11.138 4.402-20.917 8.328-30.757 12.078-.769.292-1.994-.36-2.915-.768-7.895-3.518-15.765-7.085-25.057-11.273M73.806 97.186c-10.615 4.183-20.016 7.871-29.404 11.584a4.87 4.87 0 0 1-4.213-.287c-7.834-3.658-15.711-7.169-24.826-11.303 10.066-4.633 19.089-8.815 28.155-12.912a3.24 3.24 0 0 1 2.39.079c8.961 4.09 17.887 8.224 27.897 12.84m93.7-2.238-28.794 11.455a5.35 5.35 0 0 1-4.311.134c-8.175-3.718-16.333-7.474-25.295-11.583 9.377-4.329 17.778-8.17 26.137-12.096a6.43 6.43 0 0 1 5.95-.06c8.358 3.95 16.784 7.766 26.313 12.15"/><path fill="#231F20" d="M224.185 161.432H206.34l-3.475 10.974h-13.84l20.247-53.717h11.974l20.381 53.717h-13.973zm-14.998-9.016h12.12l-6.048-19.15zm45.292-19.912.354 3.694q4.232-4.437 11.175-4.432 7.206 0 10.187 5.39 4.147-5.384 11.791-5.39 12.639 0 12.95 14.504v26.155H288.37v-25.496q0-3.47-1.158-4.939c-.774-.987-2.079-1.475-3.914-1.475q-3.518 0-5.255 3.579l.091 1.249v27.082h-12.62v-25.417q0-3.44-1.109-4.963c-.744-1.024-2.061-1.53-3.963-1.53a5.9 5.9 0 0 0-5.164 2.914v28.996h-12.59v-39.921zm76.354 39.921a12.8 12.8 0 0 1-1.067-3.098q-3.384 3.83-9.145 3.835-6.054 0-10.035-3.322a10.68 10.68 0 0 1-3.981-8.597q0-6.267 4.829-9.699 4.828-3.433 13.906-3.506h3.829v-3.207q0-2.694-1.116-3.804a4.4 4.4 0 0 0-3.249-1.104q-4.707 0-4.713 4.573h-12.62q0-5.53 5.005-9.145t12.663-3.597q7.926 0 12.26 3.414 4.335 3.414 4.335 9.755V163.7q.091 5.165 1.78 8.078v.61zm-7.432-7.451a8.3 8.3 0 0 0 3.561-.701 5.7 5.7 0 0 0 2.182-1.664v-8.298h-3.048q-3.2 0-5.048 1.695a5.87 5.87 0 0 0-1.829 4.536q0 4.439 4.182 4.432m39.111-1.219h19.045v8.67h-34v-6.53l18.6-24.679h-18.155v-8.712h33.287v6.31zm22.862-12.559q0-9.072 5.164-14.235t14.278-5.195q9.212 0 14.37 5.17t5.164 14.309v2.548q0 9.145-5.115 14.242t-14.327 5.109q-9.255 0-14.395-5.146-5.139-5.145-5.139-14.296zm12.638 2.622q0 10.7 6.896 10.699 6.365 0 6.852-8.925l.049-4.396q0-5.487-1.829-8.096a5.91 5.91 0 0 0-5.158-2.64 5.74 5.74 0 0 0-5.005 2.64q-1.829 2.64-1.829 8.096zm43.426-21.314.354 3.951q4.268-4.683 11.169-4.689 12.419 0 12.772 14.425v26.215h-12.638v-25.435q0-3.402-1.219-4.926c-.817-1.024-2.244-1.53-4.268-1.53a6.04 6.04 0 0 0-5.341 2.914v28.996h-12.668v-39.921zm-186.215 96.272h-24.295l-5.524 15.016h-5.316l20.649-53.718h4.713l20.649 53.718h-5.292zm-22.832-3.951h21.338l-10.657-28.813zm65.319 14.205q-4.098 5.487-12.681 5.487-6.536 0-9.883-3.761t-3.377-11.072v-25.813h4.877v25.716q0 5.425 2.31 8.23t6.707 2.804q9.346 0 11.974-7.529v-29.221h4.98v39.921h-4.804zm34.659-31.318a21.4 21.4 0 0 0-3.115-.262 10.36 10.36 0 0 0-6.877 2.329 12.56 12.56 0 0 0-3.939 6.456v27.557H313.5v-39.921h4.877l.086 5.981q3.517-6.707 11.035-6.707a7.3 7.3 0 0 1 2.981.482zm3.64 14.089q0-8.632 4.719-13.65t12.876-5.018q8.181 0 12.882 4.945 4.701 4.944 4.743 13.613v4.268q0 8.78-4.743 13.687-4.743 4.908-12.803 4.877-8.06 0-12.803-4.798-4.743-4.797-4.877-13.205zm4.981 4.115q0 6.883 3.365 10.834t9.322 3.945q6.096 0 9.322-3.799t3.268-10.87v-4.237q0-6.895-3.378-10.858t-9.285-3.957q-5.743 0-9.145 3.865t-3.475 10.651zm58.198-18.204a21 21 0 0 0-3.109-.262 10.36 10.36 0 0 0-6.877 2.329 12.53 12.53 0 0 0-3.939 6.456v27.557h-4.938v-39.921h4.847l.091 5.981q3.513-6.707 11.035-6.707a7.3 7.3 0 0 1 2.982.482zm30.075 36.08c-.532-1.8-.831-3.66-.89-5.536a14.9 14.9 0 0 1-5.719 4.633 17.7 17.7 0 0 1-7.584 1.64q-6.237 0-9.7-2.914t-3.475-8.303a10.83 10.83 0 0 1 4.829-9.298q4.828-3.426 13.327-3.463h8.279v-5.572q0-4.268-2.56-6.145-2.562-1.878-7.499-1.86-4.585 0-7.517 2.213a6.85 6.85 0 0 0-2.939 5.719l-4.938-.037q0-4.914 4.45-8.322t11.169-3.414q7.25 0 10.974 3.049t3.737 8.821v19.589q0 5.87 1.287 8.779v.445zm-13.571-3.213a15.5 15.5 0 0 0 7.718-1.878 11.64 11.64 0 0 0 4.92-5.018v-9.705h-7.834q-6.761.073-10.188 2.493a7.57 7.57 0 0 0-3.426 6.511q0 7.603 8.81 7.597"/></g><defs><clipPath id="a"><path fill="#fff" d="M0 0h465.733v265.52H0z"/></clipPath></defs></svg>