<svg xmlns="http://www.w3.org/2000/svg" width="109" height="65" fill="none"><path fill="#252F3E" fill-rule="evenodd" d="M85.776 32.96c1.792.428 3.656.643 5.52.643 1.828 0 3.512-.25 5.125-.75 1.541-.465 2.868-1.109 3.979-2.003 1.111-.858 1.971-1.93 2.616-3.145.61-1.216.932-2.61.932-4.147 0-1.86-.537-3.54-1.648-5.005-1.112-1.466-2.975-2.61-5.556-3.432l-5.09-1.608c-1.9-.608-3.226-1.287-3.943-1.966-.717-.68-1.075-1.538-1.075-2.539 0-1.465.574-2.502 1.685-3.181 1.11-.68 2.724-1.001 4.767-1.001q3.818 0 6.882 1.394c.609.286 1.075.43 1.362.43.537 0 .824-.394.824-1.145v-1.68q0-.75-.323-1.18c-.215-.321-.573-.607-1.075-.893q-.537-.323-1.505-.644A28 28 0 0 0 97.21.536a39 39 0 0 0-2.33-.393A18 18 0 0 0 92.479 0c-1.578 0-3.083.179-4.517.608-1.433.429-2.652 1.036-3.727 1.859a9.2 9.2 0 0 0-2.581 2.93q-.968 1.718-.968 3.969c0 1.859.61 3.61 1.792 5.183 1.183 1.609 3.119 2.824 5.735 3.647l5.197 1.608c1.757.572 2.975 1.18 3.62 1.86.646.678.968 1.5.968 2.502 0 1.465-.645 2.61-1.864 3.396-1.218.786-2.975 1.18-5.233 1.18a21.6 21.6 0 0 1-4.265-.43 19.5 19.5 0 0 1-3.943-1.25c-.358-.144-.68-.287-.896-.358a2 2 0 0 0-.645-.108c-.537 0-.824.358-.824 1.109v1.823c0 .322.071.679.215 1 .143.322.537.68 1.11 1.002.933.536 2.33 1 4.123 1.43m-54.374-6.434c-.251-.787-.394-1.86-.394-3.182h-.072V11.762c0-3.932-1.004-6.864-2.975-8.794-2.007-1.93-5.126-2.896-9.39-2.896-1.972 0-3.836.215-5.593.68q-2.634.643-4.516 1.608c-.502.25-.824.5-1.003.75-.18.251-.251.68-.251 1.252v1.752c0 .75.25 1.108.752 1.108.144 0 .323-.036.574-.107s.681-.215 1.255-.465c1.254-.5 2.544-.894 3.87-1.216a16.4 16.4 0 0 1 3.871-.464c2.76 0 4.696.536 5.843 1.644 1.111 1.108 1.685 3.003 1.685 5.72v2.61c-1.434-.322-2.796-.608-4.122-.787s-2.581-.286-3.8-.286c-3.691 0-6.595.93-8.781 2.788-2.187 1.86-3.262 4.326-3.262 7.364 0 2.86.896 5.148 2.652 6.864s4.158 2.574 7.17 2.574q6.343 0 10.537-4.933c.394.822.753 1.5 1.111 2.109a11 11 0 0 0 1.29 1.68c.359.322.717.5 1.076.5.287 0 .61-.107.932-.322l2.258-1.5c.466-.358.68-.716.68-1.073 0-.25-.071-.537-.25-.823a19 19 0 0 1-1.147-2.573m-11.255 1.608c-1.29.429-2.51.643-3.692.643-1.649 0-2.903-.429-3.763-1.323-.896-.858-1.326-2.109-1.326-3.789 0-1.787.573-3.146 1.756-4.11 1.183-.966 2.939-1.43 5.34-1.43 1.111 0 2.223.07 3.37.214 1.147.143 2.258.357 3.297.607v1.502c0 1.215-.143 2.252-.358 3.11s-.645 1.608-1.219 2.288c-.968 1.072-2.114 1.859-3.405 2.288m25.09 4.504c-.645 0-1.075-.107-1.361-.358-.287-.214-.538-.715-.753-1.394L34.7 3.253c-.216-.715-.323-1.18-.323-1.43 0-.572.287-.894.86-.894h3.513c.68 0 1.147.108 1.398.358.286.214.501.715.716 1.394l6.022 23.665 5.592-23.665c.179-.715.394-1.18.68-1.394.288-.215.79-.358 1.435-.358h2.867c.68 0 1.147.108 1.434.358.286.214.537.715.68 1.394l5.664 23.951 6.2-23.95c.216-.716.467-1.18.718-1.395.286-.215.752-.358 1.397-.358h3.334c.573 0 .896.286.896.894 0 .152-.026.304-.055.478l-.017.094a5 5 0 0 1-.25.894l-8.639 27.633q-.323 1.073-.752 1.394c-.287.215-.753.357-1.362.357h-3.083c-.681 0-1.147-.107-1.434-.357s-.537-.715-.68-1.43L55.954 7.83l-5.52 23.021c-.18.715-.395 1.18-.681 1.43s-.789.358-1.434.358z" clip-rule="evenodd"/><path fill="#F90" fill-rule="evenodd" d="M97.931 51.151c-11.755 8.776-28.833 13.434-43.517 13.434-20.58 0-39.123-7.692-53.13-20.475-1.107-1.011-.106-2.384 1.216-1.59 15.149 8.884 33.835 14.265 53.164 14.265 13.041 0 27.368-2.745 40.552-8.378 1.965-.903 3.645 1.3 1.715 2.744" clip-rule="evenodd"/><path fill="#F90" fill-rule="evenodd" d="M102.826 45.518c-1.501-1.95-9.933-.939-13.756-.47-1.143.145-1.322-.866-.285-1.625 6.716-4.766 17.757-3.394 19.043-1.805 1.286 1.625-.357 12.783-6.646 18.128-.964.83-1.893.397-1.465-.686 1.43-3.575 4.609-11.628 3.109-13.542" clip-rule="evenodd"/></svg>