<svg xmlns="http://www.w3.org/2000/svg" width="272" height="90" fill="none"><g clip-path="url(#a)"><path fill="#fff" d="m253.697 28.397-15.002-3.483-2.679-1.072-68.849.536v33.22l86.53.267z"/><path fill="#F48120" d="M225.568 54.65a7.65 7.65 0 0 0-.803-6.965 8.3 8.3 0 0 0-5.626-2.946l-46.614-.536c-.268 0-.536-.268-.804-.268a.51.51 0 0 1-.201-.402q.001-.118.053-.225a.5.5 0 0 1 .148-.177c.268-.536.536-.803 1.072-.803l46.882-.536a16.86 16.86 0 0 0 13.662-10.18l2.679-6.966c0-.268.268-.535 0-.803a30.53 30.53 0 0 0-58.669-3.215 14.62 14.62 0 0 0-9.644-2.679 13.96 13.96 0 0 0-12.323 12.323 14.6 14.6 0 0 0 .268 4.822 19.56 19.56 0 0 0-19.021 19.557c-.044.99.046 1.98.268 2.947a.855.855 0 0 0 .804.803h85.994c.536 0 1.072-.268 1.072-.803z"/><path fill="#FAAD3F" d="M240.301 24.646h-1.339c-.268 0-.536.268-.804.536l-1.875 6.43a7.65 7.65 0 0 0 .804 6.965 8.3 8.3 0 0 0 5.625 2.946l9.913.536c.267 0 .535.268.803.268a.5.5 0 0 1 .148.627.5.5 0 0 1-.148.177c-.268.536-.536.803-1.071.803l-10.18.536a16.86 16.86 0 0 0-13.663 10.18l-.536 2.411c-.268.268 0 .804.536.804h35.362a.71.71 0 0 0 .804-.804c.638-2.27.997-4.608 1.071-6.965a25.61 25.61 0 0 0-25.45-25.45"/><path fill="#404041" d="M269.235 72.867a2.41 2.41 0 0 1-2.227-1.488 2.407 2.407 0 0 1 1.757-3.287 2.412 2.412 0 0 1 2.7 3.289 2.4 2.4 0 0 1-1.306 1.306 2.4 2.4 0 0 1-.924.18m0-4.286a1.877 1.877 0 0 0-1.839 2.241 1.874 1.874 0 0 0 3.714-.366 1.83 1.83 0 0 0-1.15-1.745 1.8 1.8 0 0 0-.725-.13m1.072 3.215h-.536l-.536-.804h-.536v.804h-.536v-2.411h1.34a.71.71 0 0 1 .804.803c0 .268-.268.536-.536.804zm-.804-1.34c.268 0 .268 0 .268-.267a.26.26 0 0 0-.268-.268h-.804v.803h.804zm-240.302-2.41h5.893v16.073h10.18v5.09H29.202zm22.235 10.447a10.997 10.997 0 0 1 11.52-10.983 10.77 10.77 0 0 1 11.251 10.983 10.997 10.997 0 0 1-11.52 10.984 10.93 10.93 0 0 1-11.25-10.984m16.878 0a5.507 5.507 0 0 0-5.358-5.893 5.632 5.632 0 0 0 0 11.251c3.214.536 5.358-2.143 5.358-5.358m13.126 1.34V68.045h5.894v11.788c0 2.947 1.608 4.554 4.019 4.554A3.75 3.75 0 0 0 95.37 80.1V68.045h5.894v11.788c0 6.965-4.019 9.912-9.912 9.912-6.162-.268-9.913-3.215-9.913-9.912m28.665-11.788h8.305c7.501 0 12.055 4.287 12.055 10.448S125.911 89.21 118.41 89.21h-8.037V68.045zm8.305 15.806a5.381 5.381 0 0 0 2.211-10.465 5.4 5.4 0 0 0-2.211-.25h-2.411V83.85zm20.36-15.806h16.877v5.09h-10.983v3.483h9.912v4.822h-9.912v7.769h-5.894zm25.182 0h5.894V84.12h10.18v5.09h-16.074zm31.344-.268h5.894l9.108 21.432h-6.429l-1.608-3.75h-8.305l-1.607 3.75h-6.162zm5.358 13.127-2.411-5.893-2.411 5.893zm17.145-12.859h9.912a9.16 9.16 0 0 1 6.966 2.411 7.03 7.03 0 0 1-2.411 11.252l5.09 7.501h-6.698l-4.286-6.43h-2.679v6.43h-5.894zm9.644 10.18c1.876 0 3.215-1.071 3.215-2.41 0-1.608-1.339-2.412-3.215-2.412h-3.75v5.09h3.75zm17.414-10.18h17.145v4.822H250.75v3.215h10.18v4.822h-10.18v3.215h11.52v5.09h-17.413zM16.342 81.172a5.29 5.29 0 0 1-4.822 3.215 5.633 5.633 0 0 1 0-11.252 5.62 5.62 0 0 1 5.09 3.483h6.161a11.08 11.08 0 0 0-11.251-8.84A11.16 11.16 0 0 0 0 78.76a10.93 10.93 0 0 0 11.252 10.984 11.57 11.57 0 0 0 11.251-8.573z"/></g><defs><clipPath id="a"><path fill="#fff" d="M0 0h271.646v89.745H0z"/></clipPath></defs></svg>