<svg xmlns="http://www.w3.org/2000/svg" width="370" height="73" fill="none"><path fill="#151F34" fill-rule="evenodd" d="M114.385 58.222c-3.376 2.061-9.097 3.147-14.304 3.147-14.244 0-20.082-8.296-20.082-21.567 0-12.189 7.039-21.284 21.284-21.284 4.75 0 9.84 1.203 12.988 3.26v11.214l-6.295-.516-.913-5.603c-.116-.574-.343-.86-.917-1.031-1.258-.401-3.203-.687-5.092-.687-7.266 0-11.9 4.917-11.9 14.647 0 10.126 4.406 15.045 11.5 15.045 1.89 0 4.234-.286 5.72-.743.687-.172.859-.344 1.031-1.203l.858-5.318h6.122zm24.317-12.586c0-6.75-2.061-9.155-5.777-9.155-3.779 0-6.296 2.349-6.296 9.21 0 6.925 2.233 9.67 6.066 9.67 3.718 0 6.007-2.576 6.007-9.725m-21.112.343c0-9.498 4.979-15.675 15.448-15.675 10.583 0 14.703 6.293 14.703 15.046 0 9.726-4.921 16.017-15.448 16.017-10.469 0-14.703-6.407-14.703-15.388m59.274 12.589c-2.632 1.601-6.694 2.801-10.87 2.801-10.356 0-14.989-6.462-14.989-15.162 0-10.697 6.523-15.903 15.676-15.903 4.461 0 8.41 1.258 10.183 2.404v8.982l-6.121-.288-.687-3.777c-.058-.4-.172-.74-.687-.915-.687-.23-1.774-.399-2.918-.399-3.431 0-6.349 2.345-6.349 9.04 0 7.437 3.317 9.554 7.379 9.554 2.862 0 5.435-.917 7.152-1.66zm24.889 2.114-7.266-14.587-3.089 3.375v5.149c0 .915.057 1.03.916 1.144l3.433.4v4.52h-16.764v-4.52l2.862-.4c.799-.113.913-.287.913-1.144v-30.21c0-.628-.172-1.03-.743-1.201l-3.146-1.085.63-4.637h11.899v24.431l10.471-11.042h7.894v4.521l-2.975.572c-.745.113-.915.285-1.43.858l-4.063 4.29 7.322 13.673c.401.803.803.916 1.718 1.03l2.518.402v4.461zm13.735 0V56.05l2.574-.343c.801-.114.914-.286.914-1.145V37.8c0-.631-.171-1.03-.745-1.202l-3.087-1.087.627-4.635h10.07l.687 4.577h.343c1.89-2.92 4.406-5.148 8.067-5.148 1.316 0 3.948.23 4.979.515v10.413l-6.867-.23-.571-3.033c-.113-.516-.287-.627-.745-.627-1.488 0-3.263 1.256-4.118 2v15.161c0 .917.058 1.089.915 1.147l5.664.457v4.575zm48.115-15.046c0-6.75-2.061-9.155-5.775-9.155-3.779 0-6.296 2.349-6.296 9.21 0 6.925 2.231 9.67 6.064 9.67 3.718 0 6.007-2.576 6.007-9.725m-21.11.343c0-9.498 4.977-15.675 15.446-15.675 10.585 0 14.703 6.293 14.703 15.046 0 9.726-4.919 16.017-15.446 16.017-10.469 0-14.703-6.407-14.703-15.388m49.833 2.403-3.892.285c-3.375.23-4.576 1.089-4.576 3.376 0 2.29 1.375 3.147 3.262 3.147 1.945 0 3.89-1.086 5.206-2.059zm1.544 12.303-.573-3.092-.286-.056c-2.172 2.115-5.032 3.832-9.612 3.832-7.208 0-8.352-4.92-8.352-8.468 0-5.722 3.547-8.352 10.699-8.809l6.58-.457v-3.148c0-2.688-.287-4.52-3.834-4.52-2.746 0-4.176.402-4.176 3.835l-8.067-.689c0-7.723 7.036-8.81 12.301-8.81 8.695 0 12.186 2.347 12.186 10.356V54.56c0 .915.056 1.03.915 1.145l2.748.457v4.52H293.87zm37.647-2.117c-2.63 1.601-6.693 2.801-10.869 2.801-10.357 0-14.99-6.462-14.99-15.162 0-10.697 6.522-15.903 15.677-15.903 4.462 0 8.41 1.258 10.182 2.404v8.982l-6.119-.288-.687-3.777c-.058-.4-.172-.74-.688-.915-.687-.23-1.775-.399-2.92-.399-3.431 0-6.348 2.345-6.348 9.04 0 7.437 3.319 9.554 7.381 9.554 2.86 0 5.434-.917 7.15-1.66l2.233 5.323" clip-rule="evenodd"/><mask id="a" width="370" height="73" x="0" y="0" maskUnits="userSpaceOnUse" style="mask-type:alpha"><path fill="#fff" d="M184.531 0H0v73h369.062V0z"/></mask><g fill-rule="evenodd" clip-rule="evenodd" mask="url(#a)"><path fill="#151F34" d="M356.648 60.682V42.031c0-1.718-.172-4.863-3.032-4.863-2.117 0-4.522 1.088-5.951 2.119v15.332c0 .915.058 1.03.914 1.144l2.748.4v4.52h-15.791v-4.52l2.576-.4c.799-.113.913-.287.913-1.144v-30.21c0-.628-.172-1.03-.743-1.201l-3.148-1.085.632-4.637h11.783v16.193l.287.056c2.575-2.115 5.55-3.431 9.153-3.431 6.066 0 8.296 3.317 8.296 9.266v15.05c0 .915.058 1.03.917 1.144l2.86.4v4.52h-12.416M43.843 21.836a33 33 0 0 1-7.53.858 33.2 33.2 0 0 1-7.54-.858 33.6 33.6 0 0 1 7.54-8.402 33.7 33.7 0 0 1 7.532 8.402zm22.78-18.457a37 37 0 0 0-9.535-1.232 37.36 37.36 0 0 0-20.783 6.28 37.3 37.3 0 0 0-20.784-6.28c-3.296 0-6.499.42-9.537 1.232a35 35 0 0 0-3.742 1.196.15.15 0 0 0-.082.2 38 38 0 0 0 1.763 3.356c.034.06.107.086.172.062a33.2 33.2 0 0 1 11.422-2 33.5 33.5 0 0 1 17.348 4.83 37.6 37.6 0 0 0-8.107 9.619 36.3 36.3 0 0 0-2.845 5.943 37.4 37.4 0 0 0-2.349 13.075c0 10.624 4.445 20.23 11.566 27.066.554.546 1.13 1.059 1.735 1.561.472.408.945.79 1.439 1.16.62.493 1.266.946 1.917 1.38a.145.145 0 0 0 .165 0 39 39 0 0 0 1.91-1.38c.502-.37.974-.752 1.446-1.16a36 36 0 0 0 1.746-1.56c7.11-6.837 11.557-16.454 11.557-27.064a37.3 37.3 0 0 0-3.315-15.408 42 42 0 0 0-.7-1.488 43 43 0 0 0-1.18-2.125 37.8 37.8 0 0 0-8.108-9.619 33.5 33.5 0 0 1 17.346-4.83 33.2 33.2 0 0 1 11.423 2 .15.15 0 0 0 .174-.064 40 40 0 0 0 1.76-3.352.15.15 0 0 0-.081-.202 36 36 0 0 0-3.74-1.196"/><path fill="#348540" d="M49 39.665c0 8.876-3.472 16.95-9.136 22.947a33.6 33.6 0 0 1-1.537-10.052 33.3 33.3 0 0 1 9.136-22.948A33.5 33.5 0 0 1 49 39.665"/><path fill="#7DBC42" d="M34.28 52.56c0 3.493-.537 6.87-1.537 10.052a33.3 33.3 0 0 1-9.136-22.947c0-3.5.547-6.877 1.55-10.053A33.27 33.27 0 0 1 34.28 52.56"/></g></svg>