<svg xmlns="http://www.w3.org/2000/svg" width="32" height="32" fill="none"><path fill="url(#a)" d="M25.226 21.54c.992-3.215.822-6.591-.49-9.73-1.314-3.14-3.714-5.91-6.919-7.986 2.927-1.356 6.244-2.067 9.62-2.061 1.28-.001 2.556.1 3.81.302l.529-1.71A27 27 0 0 0 27.436 0c-4.09-.006-8.098.933-11.546 2.707C12.44.933 8.434-.006 4.343 0 2.884 0 1.429.119 0 .354l.528 1.71a24 24 0 0 1 3.815-.301c3.376-.006 6.694.704 9.622 2.059-2.618 1.695-4.708 3.86-6.103 6.323s-2.054 5.155-1.926 7.86 1.038 5.349 2.66 7.72 3.91 4.401 6.68 5.932l.62.343.617-.343c4.341-2.401 7.443-6 8.72-10.117zm-10.43 7.6c-2.853-1.987-4.923-4.602-5.956-7.524a12.7 12.7 0 0 1 .142-8.924c1.104 1.478 2.473 2.816 4.064 3.97.551.4.993.89 1.294 1.438s.457 1.14.456 1.738zm1.094-12.876a18 18 0 0 1-3.877-3.086c-.707-.75-1.09-1.666-1.09-2.608s.383-1.859 1.09-2.608a18 18 0 0 1 3.883-3.11 18 18 0 0 1 3.92 3.153c.686.738 1.056 1.634 1.056 2.555s-.37 1.817-1.055 2.555a18.2 18.2 0 0 1-3.927 3.149m1.09 12.875v-9.3c0-.6.155-1.192.457-1.74a4.45 4.45 0 0 1 1.297-1.437c1.59-1.154 2.958-2.492 4.06-3.97.587 1.51.884 3.084.882 4.667-.003 2.236-.602 4.445-1.758 6.477-1.155 2.033-2.84 3.842-4.938 5.303"/><defs><linearGradient id="a" x1="0" x2="31.776" y1="9.067" y2="9.067" gradientUnits="userSpaceOnUse"><stop stop-color="#0037A5"/><stop offset=".504" stop-color="#6933FF"/><stop offset="1" stop-color="#00FCED"/></linearGradient></defs></svg>