<svg xmlns="http://www.w3.org/2000/svg" width="133" height="154" fill="none"><path fill="#7A3E65" d="m107.898 29.825 13.231-3.407.098.146.334 79.888-.432.434-2.726.117-10.35-1.611-.155-.408zm-76.52 82.611.048.004 34.925 10.148.089.068.152.121-.05 30.41-.102.129-35.063-17.033z"/><path fill="#CFB2C1" d="m107.898 104.984-41.4 9.915-20.787-5.018-14.334 2.555 35.063 10.22 54.115-14.651.574-1.119z"/><path fill="#512843" d="m101.502 40.897-.337-.385-34.348-9.98-.377.145-.345-.176-54.049 15.585-.295.36.434.239 12.36 1.812.437-.148 41.4-9.915 20.787 5.018z"/><path fill="#C17B9E" d="m24.982 123.508-13.23 3.194-.024-.077-.52-79.59.543-.588 13.231 1.902z"/><path fill="#7A3E65" d="m42.845 92.635 23.595 2.768.177-.264.096-36.907-.273-.302-23.595 2.768z"/><path fill="#C17B9E" d="M90.036 92.635 66.44 95.403V57.93l23.596 2.768zm11.467-51.738L66.44 30.677V.017l35.063 17.033z"/><path fill="#7A3E65" d="M66.44.018.725 31.743v89.85l11.026 5.11V46.449l54.689-15.77z"/><path fill="#C17B9E" d="M121.129 26.418v80.468l-54.689 15.77v30.66l65.715-31.724v-89.85z"/></svg>