<svg xmlns="http://www.w3.org/2000/svg" width="32" height="21" fill="none"><path fill="#7F9CF5" d="M11.342 15.54a4.064 4.064 0 0 1-5.42 1.968 4.11 4.11 0 0 1-1.968-5.461 4.064 4.064 0 0 1 5.42-1.968c.884.442 1.607 1.164 2.008 2.048h3.173c-.924-3.815-4.779-6.184-8.593-5.22C2.147 7.87-.222 11.685.742 15.5c.963 3.815 4.778 6.184 8.593 5.22 2.57-.642 4.617-2.65 5.22-5.22h-3.213zM24.07 6.706h-.522c-1.245.08-2.45.522-3.493 1.245V0h-2.892v20.399h2.892v-.763c3.212 2.249 7.67 1.486 9.918-1.727s1.486-7.67-1.727-9.918c-1.204-.843-2.69-1.325-4.176-1.285m4.056 7.63v.12l-.12.482c-.041.16-.121.361-.202.522v.08a4.15 4.15 0 0 1-2.85 2.249l-.402.08h-.522c-.2 0-.362 0-.562-.04h-.12a3.2 3.2 0 0 1-1.045-.321h-.08a4.6 4.6 0 0 1-.924-.603c-.28-.24-.522-.562-.723-.843-.08-.16-.2-.321-.28-.522-.482-1.084-.442-2.289.04-3.373a4.12 4.12 0 0 1 3.292-2.329h.402c2.208.04 3.975 1.767 4.015 3.975.12.16.12.322.08.522"/></svg>