<svg xmlns="http://www.w3.org/2000/svg" width="51" height="51" fill="none"><g clip-path="url(#a)"><path fill="#4A5568" d="m13.653 37.219-6.771-6.771c-.802-.826-1.302-1.987-1.302-3.125 0-.526.296-1.35.52-1.823l6.25-13.02z"/><path fill="#A0AEC0" d="m36.83 13.781-6.772-6.77c-.59-.594-1.823-1.303-2.864-1.303-.896 0-1.774.18-2.344.521l-12.5 6.25zM21.725 45.292h16.406V38.26l-12.24-3.906-11.197 3.906z"/><path fill="#A0AEC0" d="M12.35 33.573c0 2.088.263 2.602 1.302 3.646l1.042 1.041H38.13L26.673 25.24 12.35 12.48z"/><path fill="#4A5568" d="M33.183 12.48H12.35l25.781 25.78h7.032V22.115l-8.334-8.334c-1.169-1.174-2.21-1.302-3.646-1.302"/><path fill="#fff" d="M13.913 37.48c-1.042-1.048-1.303-2.076-1.303-3.907V12.74l-.26-.26v21.093c0 1.83 0 2.338 1.563 3.906l.78.781z" opacity=".2"/><path fill="#263238" d="M44.902 21.854V38h-7.03l.26.26h7.03V22.115z" opacity=".2"/><path fill="#fff" d="M36.83 13.781c-1.292-1.291-2.35-1.302-3.907-1.302H12.35l.26.26h20.313c.779 0 2.74-.13 3.906 1.042" opacity=".2"/><path fill="url(#b)" d="m44.903 21.854-8.073-8.073-6.771-6.77c-.591-.594-1.823-1.303-2.865-1.303-.896 0-1.773.18-2.344.521l-12.5 6.25L6.1 25.5c-.224.474-.52 1.297-.52 1.823 0 1.138.5 2.3 1.302 3.125l6.24 6.195c.148.182.325.37.53.576l.26.26.782.781 6.771 6.771.26.26h16.406v-7.03h7.032V22.114z" opacity=".2"/></g><defs><radialGradient id="b" cx="0" cy="0" r="1" gradientTransform="translate(25.371 25.5)scale(19.7917)" gradientUnits="userSpaceOnUse"><stop stop-color="#fff" stop-opacity=".1"/><stop offset="1" stop-color="#fff" stop-opacity="0"/></radialGradient><clipPath id="a"><path fill="#fff" d="M.371.5h50v50h-50z"/></clipPath></defs></svg>