<svg xmlns="http://www.w3.org/2000/svg" width="94" height="66" fill="none"><path fill="#000" d="M53.09 30.006h9.717v-8.771H53.09zm-11.568 0h9.717v-8.771h-9.717zm-11.336 0h9.717v-8.771h-9.717zm-11.337 0h9.486v-8.771h-9.486zm-11.568 0h9.717v-8.771H7.281zM18.85 19.388h9.486v-8.77H18.85zm11.337 0h9.717v-8.77h-9.717zm11.336 0h9.717v-8.77h-9.717zm0-10.617h9.717V0h-9.717zM93.81 26.082s-4.165-3.924-12.725-2.539c-.925-6.694-8.097-10.617-8.097-10.617s-6.71 8.078-1.851 17.08c-1.388.692-3.702 1.616-7.172 1.616H.34C-.816 36.007-.816 65.09 31.11 65.09c22.905 0 40.026-10.618 48.123-30.006 12.03.923 14.576-9.002 14.576-9.002"/></svg>