<svg xmlns="http://www.w3.org/2000/svg" width="31" height="18" fill="none"><path fill="#000" d="M30.41 17.347a1.937 1.937 0 0 1-2.401-.913l-4.371-6.044-.634-.845-5.072 6.898a1.86 1.86 0 0 1-2.283.896l6.535-8.766L16.104.65a2.02 2.02 0 0 1 2.409.845l4.53 6.119L27.6 1.52a1.82 1.82 0 0 1 2.266-.846l-2.36 3.13-3.195 4.16a.844.844 0 0 0 0 1.26l6.086 8.123zM.002 8.463l.532-2.63C1.997.635 7.957-1.528 12.058 1.692c2.401 1.886 3 4.557 2.883 7.567H1.414c-.219 5.376 3.66 8.623 8.622 6.966a5.17 5.17 0 0 0 3.272-3.644c.262-.844.695-.99 1.488-.745a6.87 6.87 0 0 1-3.28 5.014 7.95 7.95 0 0 1-9.258-1.184 8.33 8.33 0 0 1-2.08-4.887c0-.298-.099-.576-.168-.844Q0 9.18 0 8.464zM1.431 8.1h12.232c-.076-3.897-2.536-6.662-5.816-6.688-3.652-.05-6.265 2.655-6.425 6.67z"/></svg>