<svg xmlns="http://www.w3.org/2000/svg" width="266" height="43" fill="none"><path fill="#EA4335" d="M31.79 11.805h1.496L37.55 7.54l.21-1.811c-7.938-7.007-20.052-6.25-27.058 1.687a19.2 19.2 0 0 0-4.13 7.667 2.3 2.3 0 0 1 1.497-.089l8.529-1.407s.433-.719.66-.675a10.64 10.64 0 0 1 14.56-1.107z"/><path fill="#4285F4" d="M43.626 15.083a19.2 19.2 0 0 0-5.79-9.337l-5.985 5.985a10.64 10.64 0 0 1 3.905 8.441v1.063a5.328 5.328 0 0 1 0 10.656H25.101l-1.064 1.078v6.391l1.064 1.063h10.655c7.652.06 13.905-6.096 13.964-13.748a13.86 13.86 0 0 0-6.094-11.592"/><path fill="#34A853" d="M14.43 40.356h10.656v-8.53H14.43a5.3 5.3 0 0 1-2.2-.48l-1.496.466-4.294 4.265-.374 1.496a13.75 13.75 0 0 0 8.364 2.783"/><path fill="#FBBC05" d="M14.43 12.688C6.776 12.732.611 18.973.656 26.628a13.85 13.85 0 0 0 5.41 10.9l6.179-6.179a5.33 5.33 0 0 1-2.663-7.048 5.33 5.33 0 0 1 9.71 0l6.18-6.179a13.83 13.83 0 0 0-11.042-5.434"/><path fill="#5F6368" d="M78.088 34.4a13.63 13.63 0 0 1-9.875-4.055 13.16 13.16 0 0 1-4.144-9.758 13.18 13.18 0 0 1 4.144-9.757 13.63 13.63 0 0 1 9.875-4.13 13.23 13.23 0 0 1 9.472 3.818l-2.663 2.71a9.6 9.6 0 0 0-6.809-2.696 9.5 9.5 0 0 0-7.033 2.993 9.8 9.8 0 0 0-2.89 7.106 9.76 9.76 0 0 0 2.89 7.019 10.04 10.04 0 0 0 14.007.165 7.95 7.95 0 0 0 2.05-4.654h-8.98v-3.828h12.706q.186 1.159.15 2.335a11.98 11.98 0 0 1-3.278 8.83 12.75 12.75 0 0 1-9.622 3.902m29.541-2.544a9.16 9.16 0 0 1-12.677 0 8.53 8.53 0 0 1-2.588-6.359 8.54 8.54 0 0 1 2.588-6.359 9.177 9.177 0 0 1 12.677 0 8.54 8.54 0 0 1 2.589 6.359 8.54 8.54 0 0 1-2.604 6.359zm-9.879-2.498a4.847 4.847 0 0 0 7.078 0 5.34 5.34 0 0 0 1.496-3.861 5.35 5.35 0 0 0-1.496-3.876 4.926 4.926 0 0 0-7.11 0 5.34 5.34 0 0 0-1.496 3.876 5.33 5.33 0 0 0 1.51 3.861zm29.361 2.498a9.16 9.16 0 0 1-12.676 0 8.53 8.53 0 0 1-2.589-6.359 8.54 8.54 0 0 1 2.589-6.359 9.16 9.16 0 0 1 12.676 0 8.54 8.54 0 0 1 2.589 6.359 8.52 8.52 0 0 1-2.589 6.359m-9.875-2.498a4.846 4.846 0 0 0 7.077 0 5.33 5.33 0 0 0 1.496-3.861 5.34 5.34 0 0 0-1.496-3.876 4.92 4.92 0 0 0-7.106 0 5.34 5.34 0 0 0-1.497 3.876 5.33 5.33 0 0 0 1.511 3.861zm22.684 13.033a7.85 7.85 0 0 1-4.983-1.588 9.2 9.2 0 0 1-2.904-3.681l3.41-1.423a5.7 5.7 0 0 0 1.691 2.23 4.26 4.26 0 0 0 2.798.942 4.5 4.5 0 0 0 3.487-1.346 5.47 5.47 0 0 0 1.243-3.89v-1.287h-.136a5.71 5.71 0 0 1-4.683 2.02 8.13 8.13 0 0 1-5.984-2.604 8.62 8.62 0 0 1-2.56-6.27 8.7 8.7 0 0 1 2.56-6.314 8.1 8.1 0 0 1 5.984-2.619 6.45 6.45 0 0 1 2.754.613c.745.324 1.408.81 1.947 1.422h.135v-1.422h3.711V33.11a9.3 9.3 0 0 1-2.379 6.96 8.38 8.38 0 0 1-6.091 2.32m.271-11.492a4.35 4.35 0 0 0 3.381-1.497 5.53 5.53 0 0 0 1.361-3.831 5.65 5.65 0 0 0-1.361-3.906 4.34 4.34 0 0 0-3.381-1.496 4.63 4.63 0 0 0-3.502 1.496 5.46 5.46 0 0 0-1.496 3.876 5.36 5.36 0 0 0 1.496 3.832 4.64 4.64 0 0 0 3.502 1.525m14.8-23.194v26.156h-3.906V7.705zM165.705 34.4a8.5 8.5 0 0 1-6.299-2.559 8.66 8.66 0 0 1-2.53-6.344 8.78 8.78 0 0 1 2.438-6.406 8.04 8.04 0 0 1 5.985-2.5 7.6 7.6 0 0 1 2.992.583 7.1 7.1 0 0 1 2.289 1.496 10.4 10.4 0 0 1 1.496 1.811q.521.837.883 1.75l.404 1.019-11.969 4.924a4.49 4.49 0 0 0 4.308 2.695 5.11 5.11 0 0 0 4.386-2.468l2.992 2.02a9.8 9.8 0 0 1-2.874 2.725 8.15 8.15 0 0 1-4.501 1.254m-4.998-9.174 7.961-3.307a2.74 2.74 0 0 0-1.243-1.361 4.06 4.06 0 0 0-2.05-.524 4.62 4.62 0 0 0-3.216 1.422 4.74 4.74 0 0 0-1.452 3.77m33.116 9.174c-6.809.118-12.422-5.307-12.54-12.116a9 9 0 0 1 .003-.498c-.159-6.81 5.233-12.455 12.04-12.614q.248-.004.497-.003a11.17 11.17 0 0 1 8.874 3.95l-2.156 2.093a8.14 8.14 0 0 0-6.703-3.069 9.15 9.15 0 0 0-6.659 2.663 9.35 9.35 0 0 0-2.71 6.974 9.34 9.34 0 0 0 2.71 6.974 9.14 9.14 0 0 0 6.659 2.663 9.51 9.51 0 0 0 7.481-3.502l2.156 2.156a11.8 11.8 0 0 1-4.144 3.157 12.6 12.6 0 0 1-5.508 1.172m15.443-.538h-3.099V9.692h3.099zm5.059-14.547a8.666 8.666 0 0 1 12.211 0 8.76 8.76 0 0 1 2.395 6.285 8.76 8.76 0 0 1-2.395 6.285 8.666 8.666 0 0 1-12.211 0 8.76 8.76 0 0 1-2.394-6.285 8.75 8.75 0 0 1 2.394-6.285m2.304 10.626a5.224 5.224 0 0 0 7.587 0 6 6 0 0 0 1.602-4.338 5.97 5.97 0 0 0-1.602-4.338 5.225 5.225 0 0 0-7.587 0 6 6 0 0 0-1.603 4.338 6 6 0 0 0 1.617 4.324zm29.464 3.921H243.1v-2.289h-.088a5.77 5.77 0 0 1-2.185 2.065 6.1 6.1 0 0 1-3.069.821 5.82 5.82 0 0 1-4.698-1.885 7.5 7.5 0 0 1-1.602-5.056V17.341h3.098v9.607q0 4.625 4.085 4.624a3.8 3.8 0 0 0 3.143-1.496 5.64 5.64 0 0 0 1.213-3.576v-9.16h3.099v16.52zm10.52.538a7.27 7.27 0 0 1-5.537-2.53 8.98 8.98 0 0 1-2.321-6.27 8.98 8.98 0 0 1 2.321-6.27 7.28 7.28 0 0 1 5.537-2.53 7 7 0 0 1 3.381.807 5.7 5.7 0 0 1 2.244 2.02h.136l-.136-2.288V9.693h3.098v24.169h-2.992v-2.289h-.135a5.7 5.7 0 0 1-2.245 2.02 7 7 0 0 1-3.351.807m.509-2.827a4.93 4.93 0 0 0 3.726-1.617 6.07 6.07 0 0 0 1.496-4.356 6.07 6.07 0 0 0-1.496-4.356 5.055 5.055 0 0 0-7.481 0 6 6 0 0 0-1.496 4.339 6 6 0 0 0 1.496 4.338 4.93 4.93 0 0 0 3.755 1.652"/></svg>