<svg xmlns="http://www.w3.org/2000/svg" width="29" height="32" fill="none"><path fill="#4A5568" d="M28.371 5v3c0 2.813-6.312 5-14 5-7.75 0-14-2.187-14-5V5c0-2.75 6.25-5 14-5 7.688 0 14 2.25 14 5m-3.437 8.438c1.312-.438 2.5-1.063 3.437-1.75V18c0 2.813-6.312 5-14 5-7.75 0-14-2.187-14-5v-6.312c.875.687 2.125 1.312 3.375 1.75C6.56 14.438 10.31 15 14.371 15c4 0 7.75-.562 10.563-1.562M.37 21.688c.875.687 2.125 1.312 3.375 1.75C6.56 24.438 10.31 25 14.371 25c4 0 7.75-.562 10.563-1.562 1.312-.438 2.5-1.063 3.437-1.75V27c0 2.813-6.312 5-14 5-7.75 0-14-2.187-14-5z"/></svg>