<svg xmlns="http://www.w3.org/2000/svg" width="30" height="35" fill="none"><path fill="#E10098" d="M1.023 23.8h27.954v1.4H1.023z"/><path fill="#E10098" d="M27.4 26.6 13.637 2.132l1.236-.732 13.764 24.468z"/><path fill="#E10098" d="m2.6 26.6-1.236-.732L15.128 1.4l1.236.732z"/><path fill="#E10098" d="M15.318 32.9 1.705 24.721l.705-1.271 13.613 8.179z"/><path fill="#E10098" d="m15.283 32.2-.624-1.087 11.99-6.963.624 1.087z"/><path fill="#E10098" d="M26.25 9.45h1.364v16.1H26.25zm-23.864 0H3.75v16.1H2.386z"/><path fill="#E10098" d="M27.59 11.55 13.977 3.371l.705-1.271 13.613 8.179z"/><path fill="#E10098" d="m2.41 11.55-.705-1.271L15.318 2.1l.705 1.271z"/><path fill="#E10098" d="M5.409 11.812c-.797 1.423-2.574 1.909-3.96 1.09C.063 12.086-.41 10.263.387 8.839s2.573-1.909 3.96-1.09c1.385.826 1.858 2.64 1.062 4.064M.387 26.162c-.797-1.423-.324-3.238 1.062-4.065 1.386-.818 3.154-.332 3.96 1.09.797 1.424.323 3.24-1.063 4.066a2.86 2.86 0 0 1-3.96-1.09M15 35c-1.697 0-3.068-1.408-3.068-3.15S13.303 28.7 15 28.7s3.068 1.408 3.068 3.15c0 1.733-1.371 3.15-3.068 3.15m14.608-8.838c-.796 1.423-2.57 1.909-3.956 1.09-1.384-.817-1.857-2.64-1.061-4.064s2.57-1.909 3.956-1.09c1.393.826 1.865 2.64 1.061 4.064"/><path fill="#E10098" d="M29.608 26.162c-.796 1.423-2.57 1.909-3.956 1.09-1.384-.817-1.857-2.64-1.061-4.064s2.57-1.909 3.956-1.09c1.393.826 1.865 2.64 1.061 4.064m-5.017-14.35c-.797-1.423-.323-3.238 1.063-4.065 1.386-.818 3.154-.332 3.96 1.09.796 1.424.323 3.24-1.063 4.066-1.386.818-3.163.332-3.96-1.09M15 6.3c-1.697 0-3.068-1.408-3.068-3.15S13.303 0 15 0s3.068 1.408 3.068 3.15S16.697 6.3 15 6.3"/></svg>