<svg xmlns="http://www.w3.org/2000/svg" width="34" height="34" fill="none"><g clip-path="url(#a)"><path fill="#9B99A6" d="M6.49 1.211c.29-.233.666-.418 1.043-.355.374.093.768.242.994.58.394.568.33 1.374-.076 1.917l-.031-.031c-.091-.094-.18-.193-.29-.263-.122-.082-.316-.012-.349.135-.043.217.059.424.16.608-.358.075-.748.125-1.094-.028-.519-.218-.92-.738-.964-1.314.028-.476.283-.917.607-1.249M11.928 7.7c.296-.052.573-.19.877-.203.671-.024 1.357.019 1.996.248.187.07.371.174.481.35-.276.05-.533.166-.793.267a26 26 0 0 0-3.007 1.411c-.426.24-.854.486-1.222.814-.264.24-.575.426-.798.71-.077-.735.068-1.512.505-2.112.19-.318.5-.522.749-.785.344-.324.771-.546 1.212-.7m19.017 4.213a1.23 1.23 0 0 1 1.004-.317c.44.07.823.39.998.805.233.556.086 1.267-.396 1.637-.437.347-1.105.335-1.52-.045.21-.2.447-.475.377-.79-.21-.275-.626-.236-.895-.077-.064-.444.087-.925.432-1.213m-4.135 1.048c.824-.082 1.54.447 2.15.946.303.306.515.709.597 1.136.1.598.068 1.217-.136 1.789-.17.567-.453 1.183-1.005 1.445-.007-.329-.08-.65-.134-.973-.234-1.273-.597-2.524-1.127-3.7a3.3 3.3 0 0 0-.345-.643M5.995 22.706c.438-.166.915-.01 1.292.237.826.492 1.609 1.095 2.19 1.88.39.529.734 1.095 1.01 1.694.196.438.35.907.36 1.392.013.467-.269.878-.59 1.182-.367.305-.726.627-1.143.86-.536.287-1.166.43-1.767.314-.737-.125-1.428-.487-1.987-.99.201-.131.426-.314.426-.582.04-.501-.44-.937-.917-.9-.182.082-.297.261-.427.406-.3-.48-.536-1.045-.481-1.625.151-1.03.483-2.052 1.086-2.902.063-.077.07-.18.078-.276.306-.21.512-.56.87-.69M.208 30.292a1.84 1.84 0 0 1 1.63-1.07c.447.038.868.215 1.267.414.278.147.467.425.56.724.236.666.103 1.44-.324 1.996-.266.329-.59.638-1.009.74-.622.187-1.307-.043-1.758-.502-.538-.61-.734-1.553-.366-2.302"/><path fill="#F79727" d="M7.781 3.194c.033-.148.227-.217.349-.135.11.07.199.17.29.262.166.208.359.39.538.586.728.818 1.384 1.7 2.075 2.55q.477.593.942 1.194l-.046.05c-.442.153-.868.374-1.213.699-.148-.156-.249-.347-.361-.529a60 60 0 0 1-1.76-3.045c-.195-.356-.453-.672-.653-1.024-.102-.184-.204-.39-.16-.608m22.732 9.932c.269-.16.685-.198.894.077.07.315-.167.59-.377.79-.46.392-.942.766-1.474 1.05a2.2 2.2 0 0 0-.598-1.136c.486-.325 1.057-.478 1.555-.781M4.442 28.199c.13-.145.245-.324.427-.406.476-.037.958.399.917.9 0 .267-.225.45-.426.582-.28.176-.568.335-.842.52-.285.188-.548.41-.853.565-.093-.3-.282-.578-.56-.724.346-.568.914-.937 1.337-1.437"/><path fill="#787880" d="M16.662 7.83c.737-.12 1.486-.088 2.23-.076 2.185.152 4.364 1.011 5.944 2.585.223.157.358.4.555.585.558.612.984 1.332 1.419 2.037.142.198.25.418.345.643.53 1.176.893 2.427 1.127 3.7.054.323.127.644.134.973-.027.567.096 1.134.02 1.7-.038.307-.004.618-.059.922-.085.572-.33 1.098-.578 1.611-.12.256-.38.384-.598.535-.222.148-.517.283-.776.147-.408-.237-.605-.712-.698-1.162-.102-.417-.067-.848-.073-1.273-.064-1.186-.129-2.381-.386-3.544-.173-.762-.468-1.53-1.044-2.07a4.1 4.1 0 0 0-1.23-.735 6.7 6.7 0 0 0-2.07-.306c-.846-.02-1.68.162-2.493.379-.823.219-1.601.577-2.37.945-.61.264-1.186.597-1.773.91a7 7 0 0 0-.949.605c-.535.417-1.11.796-1.55 1.326s-.83 1.136-.963 1.828c-.168 1.02.023 2.067.378 3.025a9.3 9.3 0 0 0 1.764 2.864c.519.665 1.21 1.152 1.88 1.644.367.246.608.681.611 1.131-.034.376-.315.67-.604.876-.312.197-.676.324-1.046.313-.864-.008-1.736-.113-2.558-.4-.346-.118-.664-.301-.994-.457.321-.304.603-.715.59-1.182-.01-.485-.164-.954-.36-1.392a10 10 0 0 0-1.01-1.694c-.581-.785-1.364-1.388-2.19-1.88-.377-.246-.854-.403-1.292-.237-.358.13-.564.48-.87.69-.09-.265-.047-.552-.083-.826-.045-.32-.02-.645-.05-.966-.049-.443-.026-.89-.033-1.334-.013-.87.003-1.744.134-2.605.127-.799.449-1.549.812-2.262.395-.755.9-1.448 1.468-2.075a8 8 0 0 1 1.013-1.02c.333-.367.765-.625 1.076-1.012.223-.283.534-.47.798-.709.368-.328.796-.575 1.223-.814.969-.54 1.978-1 3.006-1.412.26-.1.517-.215.793-.265.47-.036.912-.223 1.38-.265"/></g><defs><clipPath id="a"><path fill="#fff" d="M0 .824h33.079v32.352H0z"/></clipPath></defs></svg>