<svg xmlns="http://www.w3.org/2000/svg" width="130" height="150" fill="none"><g clip-path="url(#a)"><mask id="b" width="134" height="141" x="0" y="0" maskUnits="userSpaceOnUse" style="mask-type:alpha"><path fill="#fff" fill-rule="evenodd" d="M.182 0h133.152v140.853H.182z" clip-rule="evenodd"/></mask><g mask="url(#b)"><path fill="#0F1689" fill-rule="evenodd" d="M.463 58.655h8.41V70.04h10.16V58.655h8.41v31.984h-8.41V78.442H8.872V90.64H.463zM37.09 90.639V58.655h19.893v6.95H45.5v5.204h10.16v7.079H45.5v5.885h11.483v6.866zm29.114 0V58.655h8.41v23.54h11.525v8.444zM99.16 58.655l13.062 11.855 13.02-11.855h3.8v31.984h-8.453V74.22l-8.367 7.634-8.409-7.591v16.376H95.36V58.655zm-3.518 52.119c2.415-1.691 7.983 2.095 12.437 8.455s6.106 12.887 3.691 14.578-7.983-2.094-12.436-8.454-6.107-12.888-3.692-14.579m-57.539 0c-2.415-1.691-7.983 2.095-12.436 8.455s-6.107 12.887-3.692 14.578 7.983-2.094 12.437-8.454 6.106-12.888 3.691-14.579m28.741 9.959c-2.948 0-5.338 6.295-5.338 14.059 0 7.765 2.39 14.059 5.338 14.059s5.338-6.294 5.338-14.059-2.39-14.059-5.338-14.059" clip-rule="evenodd"/><path stroke="#0F1689" stroke-width="8.501" d="M25.17 44.4c8.859-12.85 23.614-21.262 40.32-21.262 16.736 0 31.515 8.443 40.368 21.333m1.607 53.67c-8.599 14.285-24.18 23.831-41.975 23.831-17.308 0-32.522-9.031-41.253-22.67z"/><path fill="#0F1689" fill-rule="evenodd" d="M95.642 38.217c2.415 1.691 7.983-2.094 12.437-8.454s6.106-12.888 3.691-14.579c-2.415-1.69-7.983 2.095-12.436 8.455s-6.107 12.887-3.692 14.578m-57.539 0c-2.415 1.691-7.983-2.094-12.436-8.454s-6.107-12.888-3.692-14.579c2.415-1.69 7.983 2.095 12.437 8.455s6.106 12.887 3.691 14.578m28.741-9.958c-2.948 0-5.338-6.295-5.338-14.06 0-7.764 2.39-14.059 5.338-14.059s5.338 6.295 5.338 14.06c0 7.764-2.39 14.059-5.338 14.059" clip-rule="evenodd"/><path stroke="#0F1689" stroke-width="8.501" d="M25.17 104.591c8.859 12.85 23.614 21.263 40.32 21.263 16.736 0 31.515-8.444 40.368-21.333m1.607-53.67C98.866 36.566 83.285 27.02 65.49 27.02c-17.308 0-32.522 9.03-41.253 22.67z"/></g></g><defs><clipPath id="a"><path fill="#fff" d="M.175 0h129.21v149.188H.176z"/></clipPath></defs></svg>