<svg xmlns="http://www.w3.org/2000/svg" width="65" height="101" fill="none"><path fill="#6762A6" d="M7.317 100.482v-8.774c0-.618-.454-.885-.988-.885-1.071 0-2.41.267-3.624.802v8.857H.235V84.191h2.47v5.375c1.174-.433 2.574-.803 3.974-.803 2.244 0 3.088 1.38 3.088 3.274v8.445zm7.06-5.313c.082 2.945.66 3.522 2.47 3.522 1.42 0 3.027-.474 4.262-.948l.412 1.853c-1.318.598-2.924 1.174-4.838 1.174-4.118 0-4.756-2.264-4.756-5.87 0-1.976.144-3.769.618-5.416 1.235-.474 2.882-.72 4.96-.72 3.378 0 4.407 1.874 4.407 5.148v1.257zm3.129-4.346c-.74 0-1.914.02-2.882.205-.102.494-.226 1.174-.268 2.43h5.147c0-1.71-.309-2.635-1.997-2.635m9.037.802v8.857h-2.47v-9.969c2.079-1.132 4.282-1.482 5.723-1.585v2.06c-1.009.082-2.286.205-3.253.637m9.779 9.145c-3.686 0-5.353-1.812-5.353-5.952 0-4.387 2.202-6.055 5.353-6.055 3.685 0 5.352 1.812 5.352 5.952 0 4.387-2.203 6.055-5.352 6.055m0-9.947c-1.895 0-2.944 1.091-2.944 3.995 0 3.172.885 3.873 2.944 3.873 1.893 0 2.944-1.072 2.944-3.976 0-3.172-.886-3.892-2.944-3.892m17.271 9.659H50.69c-.679-1.812-1.626-3.666-3.088-5.272h-1.297v5.272h-2.47V84.191h2.47v9.35h1.153c1.256-1.298 2.223-2.903 2.903-4.49h2.779a19.3 19.3 0 0 1-3.52 4.984c1.626 2.06 2.903 4.243 3.973 6.447m4.63.288c-2.243 0-3.087-1.379-3.087-3.274V89.05h2.45v8.754c0 .618.452.886.988.886 1.07 0 2.532-.268 3.747-.803V89.05h2.47v9.928c-2.923 1.606-5.167 1.791-6.567 1.791m-1.091-20.731H7.865a7.63 7.63 0 0 1-7.63-7.633V7.633A7.63 7.63 0 0 1 7.865 0h49.268a7.63 7.63 0 0 1 7.63 7.633v64.772a7.63 7.63 0 0 1-7.63 7.633"/><path fill="#fff" d="M40.674 69.025V37.24s2.066-7.607-25.456 3.111c-.05.136-.05-29.392-.05-29.392l8.992-.055v18.919s25.179-9.921 25.179 7.524v31.678zm5.124-46.671h-9.539c3.434-4.2 6.542-11.395 6.542-11.395h9.862s-1.688 4.69-6.865 11.395M15.33 68.97v-18.1l9.047 9.05z"/></svg>