<svg xmlns="http://www.w3.org/2000/svg" width="326" height="94" fill="none"><path fill="#242424" d="M106.396 48.38V29.045h-8.174v21.366c0 1.773-.13 4.066-2.466 4.066-2.076 0-2.379-2.12-2.465-3.72h-8.693c0 4.671 1.903 8.477 6.444 10.12 1.34.52 2.855.78 4.325.78 3.417 0 6.877-1.514 9.039-4.196 1.99-2.509 1.99-6.012 1.99-9.083m29.912 12.672V37.048h-7.18v2.551h-.086c-1.427-2.378-4.368-3.373-7.007-3.373-7.222 0-12.067 5.795-12.067 12.802 0 7.136 4.672 12.846 12.067 12.846 2.595 0 5.709-.952 7.007-3.417h.086v2.595zm-7.18-12.024c0 3.46-2.508 6.142-6.011 6.142-3.374 0-5.969-2.725-5.969-6.056 0-3.416 2.422-6.184 5.925-6.184 3.504 0 6.055 2.595 6.055 6.098m49.267 12.024V47.947c0-3.677.13-6.531-2.595-9.3-1.687-1.73-3.936-2.421-6.314-2.421-3.244 0-5.882 1.557-7.613 4.282-1.47-2.725-3.806-4.282-6.92-4.282-2.724 0-5.233.908-6.617 3.373h-.086v-2.551h-6.704v24.004h7.179v-12.76c0-2.81.736-5.319 4.066-5.319 3.027 0 3.59 2.552 3.59 5.017v13.062h7.179V47.947c0-2.725.779-4.974 3.979-4.974 3.331 0 3.677 2.682 3.677 5.32v12.759zm23.042-7.353c0-8.477-12.067-6.358-12.067-10.12 0-1.082 1.081-1.6 2.033-1.6 1.254 0 2.206.475 2.249 1.816h7.05c-.476-5.104-4.412-7.57-9.213-7.57-4.627 0-9.299 2.899-9.299 7.916 0 3.373 2.855 5.233 5.71 6.271a89 89 0 0 0 3.114 1.081c1.297.52 3.243 1.038 3.243 2.768 0 1.255-1.427 1.86-2.508 1.86-1.427 0-2.509-.735-2.725-2.206h-7.136c.562 5.277 4.757 7.959 9.774 7.959 4.888 0 9.775-2.769 9.775-8.175m15.658-11.202v-5.45h-3.46v-8h-7.18v8h-3.546v5.45h3.546V61.05h7.18V42.497zm27.677 18.555V37.048h-7.179v2.551h-.087c-1.427-2.378-4.368-3.373-7.006-3.373-7.223 0-12.067 5.795-12.067 12.802 0 7.136 4.671 12.846 12.067 12.846 2.595 0 5.709-.952 7.006-3.417h.087v2.595zm-7.179-12.024c0 3.46-2.509 6.142-6.012 6.142-3.374 0-5.969-2.725-5.969-6.056 0-3.416 2.422-6.184 5.926-6.184s6.055 2.595 6.055 6.098m36.681 2.898h-7.31c-1.081 2.076-2.811 3.2-5.19 3.2-3.503 0-5.709-2.724-5.709-6.098 0-3.244 2.076-6.098 5.536-6.098 2.466 0 4.325 1.124 5.363 3.373h7.266c-1.254-6.098-6.574-10.077-12.715-10.077-7.137 0-12.673 5.666-12.673 12.759 0 7.18 5.666 12.845 12.846 12.845 6.055 0 11.202-4.022 12.586-9.904m26.023-14.878h-8.52l-6.661 8.693h-.086V29.046h-7.18v32.006h7.18V49.504h.086l6.79 11.548h8.132l-8.78-13.451z"/><path fill="#F0047F" d="M44.17 20.668c-14.49 0-26.205 11.715-26.205 26.205s11.714 26.204 26.204 26.204 26.205-11.714 26.205-26.204V20.668z"/><path fill="#fff" stroke="#F0047F" stroke-width=".541" d="M43.323 47.684v18.373c-9.944-.42-17.953-8.429-18.373-18.373zm1.657.036h18.374c-.421 9.944-8.43 17.952-18.373 18.373zm0-1.694V27.643h18.384v18.383z"/></svg>