<svg xmlns="http://www.w3.org/2000/svg" width="32" height="32" fill="none"><path fill="#F7DF1E" d="M32 0H0v32h32z"/><path fill="#000" fill-rule="evenodd" d="m21.496 25.002-2.448 1.417c.88 1.74 2.685 3.072 5.477 3.072 2.857 0 4.983-1.482 4.983-4.189 0-2.513-1.439-3.63-3.995-4.725l-.752-.323c-1.288-.558-1.847-.923-1.847-1.826 0-.73.558-1.288 1.44-1.288.858 0 1.417.365 1.932 1.288l2.342-1.503c-.988-1.74-2.363-2.406-4.275-2.406-2.685 0-4.403 1.719-4.403 3.974 0 2.449 1.439 3.609 3.609 4.532l.751.323c1.375.6 2.191.966 2.191 1.997 0 .86-.794 1.482-2.04 1.482-1.482 0-2.32-.773-2.965-1.826m-13.082 1.74c.709 1.503 2.105 2.749 4.51 2.749 2.665 0 4.49-1.418 4.49-4.533V14.691h-3.007v10.225c0 1.503-.623 1.89-1.611 1.89-1.03 0-1.46-.709-1.933-1.547z" clip-rule="evenodd"/></svg>