<svg xmlns="http://www.w3.org/2000/svg" width="416" height="194" fill="none"><path fill="#231F20" d="M41.095 17.92a11.45 11.45 0 0 0-8.227-3.453 11.28 11.28 0 0 0-8.17 3.454h-.054c-2.084 2.12-3.378 5.081-3.378 8.352 0 3.29 1.294 6.232 3.378 8.332l.054.059c2.064 2.118 4.943 3.416 8.17 3.416 3.233 0 6.136-1.298 8.227-3.416l.023-.059c2.094-2.1 3.37-5.041 3.37-8.332 0-3.271-1.276-6.231-3.37-8.352zm-8.227 161.612c3.233 0 6.136-1.34 8.227-3.438l.023-.061c2.094-2.094 3.37-5.054 3.37-8.308 0-3.289-1.276-6.237-3.37-8.368h-.023c-2.091-2.158-4.994-3.462-8.227-3.462-3.227 0-6.106 1.304-8.17 3.462h-.054c-2.084 2.131-3.378 5.079-3.378 8.368 0 3.254 1.294 6.214 3.378 8.308l.054.061c2.064 2.098 4.943 3.438 8.17 3.438m63.21-35.771a11.45 11.45 0 0 0 7.063-5.484l.215-.415c1.412-2.687 1.671-5.795.916-8.552-.762-2.945-2.626-5.558-5.41-7.182l-.163-.112a11.4 11.4 0 0 0-8.638-1.06c-2.885.733-5.479 2.688-7.058 5.503-1.6 2.796-1.933 6.011-1.169 8.97.792 2.912 2.641 5.542 5.408 7.185h.017c2.772 1.623 5.907 1.913 8.819 1.147m-51.31-58.86c-3.046-3.09-7.249-5.027-11.9-5.027-4.646 0-8.836 1.937-11.876 5.027-3.031 3.087-4.899 7.345-4.899 12.079 0 4.733 1.868 9.01 4.9 12.134 3.039 3.071 7.23 4.991 11.875 4.991 4.651 0 8.854-1.92 11.9-4.991a17.34 17.34 0 0 0 4.904-12.134c0-4.734-1.868-8.992-4.904-12.079m-6.692-20.12c6.75 1.131 12.815 4.422 17.45 9.173h.035a33 33 0 0 1 2.12 2.394l11.585-6.818a25.5 25.5 0 0 1-.379-14.492c1.652-6.286 5.658-11.915 11.662-15.441l.197-.128c5.94-3.42 12.69-4.13 18.785-2.451 6.171 1.683 11.739 5.778 15.204 11.88v.017c3.45 6.068 4.149 13.033 2.504 19.3-1.642 6.287-5.663 11.953-11.662 15.46l-1.582.95h-.161c-5.55 2.689-11.65 3.109-17.253 1.608-4.6-1.241-8.82-3.857-12.126-7.564L62.89 85.467a32.9 32.9 0 0 1 2.064 11.513c0 4.055-.735 7.969-2.064 11.567l11.566 6.78a24.63 24.63 0 0 1 12.126-7.566c6.174-1.717 13.015-.987 18.996 2.56l.384.181v.018c5.776 3.566 9.654 9.065 11.278 15.278a25.78 25.78 0 0 1-2.504 19.28l-.208.424-.025-.037c-3.464 5.863-8.925 9.834-14.954 11.513-6.183 1.659-13.027.95-18.999-2.545v-.049c-6.004-3.532-10.01-9.173-11.662-15.447a25.4 25.4 0 0 1 .379-14.47l-11.585-6.801a33 33 0 0 1-2.12 2.358l-.036.036c-4.634 4.734-10.698 8.024-17.45 9.119v13.62c4.813 1.023 9.12 3.472 12.495 6.907l.018.036c4.524 4.582 7.325 10.965 7.325 17.983a25.55 25.55 0 0 1-7.325 17.948l-.018.072c-4.557 4.603-10.805 7.455-17.703 7.455-6.86 0-13.127-2.852-17.672-7.455h-.018v-.072a25.54 25.54 0 0 1-7.337-17.948c0-7.018 2.808-13.401 7.337-17.983v-.036h.018c3.372-3.435 7.688-5.884 12.483-6.907v-13.62c-6.752-1.095-12.804-4.385-17.432-9.119l-.047-.036A32.85 32.85 0 0 1 .8 96.98c0-8.992 3.62-17.125 9.399-23.026h.047c4.628-4.751 10.68-8.042 17.432-9.173V51.218c-4.795-1.058-9.11-3.507-12.483-6.924h-.018v-.037A25.6 25.6 0 0 1 7.84 26.273 25.64 25.64 0 0 1 15.177 8.29l.018-.019C19.74 3.649 26.006.8 32.868.8c6.897 0 13.145 2.85 17.702 7.47v.019h.018a25.66 25.66 0 0 1 7.326 17.983c0 7.02-2.802 13.36-7.326 17.984l-.018.037c-3.376 3.417-7.682 5.866-12.494 6.925zm65.065-9.047-.097-.149c-1.597-2.738-4.147-4.566-6.966-5.354-2.912-.786-6.047-.456-8.836 1.172h.017c-2.784 1.607-4.645 4.237-5.425 7.182a12 12 0 0 0 1.17 8.971l.053.073c1.603 2.778 4.155 4.642 7.004 5.393a11.2 11.2 0 0 0 8.8-1.154l.15-.072c2.706-1.644 4.509-4.24 5.261-7.091.767-2.942.46-6.157-1.131-8.971m51.397 3.983h12.925v40.15l18.64-20.98h15.498l-22.503 24.307 22.596 30.81h-14.799l-19.432-27.521v27.521h-12.925zm62.077 46.966c0 6.837 4.832 16.776 16.474 16.776 7.204 0 11.945-3.82 14.404-8.825 1.287-2.43 1.88-5.028 2.079-7.73.089-2.615-.396-5.336-1.489-7.75-2.265-5.207-7.295-9.722-15.089-9.722-10.453 0-16.379 8.625-16.379 17.16zm45.778 27.321h-12.931v-7.93c-3.441 6.413-10.647 9.63-18.247 9.63-17.366 0-27.524-13.761-27.524-29.311 0-17.364 12.331-29.207 27.524-29.207 9.866 0 15.882 5.32 18.247 9.742v-8.04h12.931zm14.636-44.974h-6.698V78.887h6.698v-3.106c0-16.377 12.237-17.364 21.516-17.473v10.124c-3.263 0-8.584 0-8.584 7.748v2.707h8.584v10.141h-8.584v44.975h-12.932zm30.306-29.313h12.921v40.15l18.643-20.98h15.498l-22.503 24.307 22.592 30.81h-14.799l-19.431-27.521v27.521h-12.921zm62.075 46.966c0 6.837 4.831 16.776 16.475 16.776 7.193 0 11.934-3.82 14.397-8.825 1.291-2.43 1.886-5.028 2.081-7.73.09-2.615-.396-5.336-1.49-7.75-2.262-5.207-7.291-9.722-15.084-9.722-10.454 0-16.379 8.625-16.379 17.16zm45.775 27.321h-12.927v-7.93c-3.452 6.413-10.652 9.63-18.247 9.63-17.366 0-27.516-13.761-27.516-29.311 0-17.364 12.326-29.207 27.516-29.207 9.859 0 15.881 5.32 18.247 9.742v-8.04h12.927z"/></svg>