<svg xmlns="http://www.w3.org/2000/svg" width="72" height="69" fill="none"><path fill="#326DE6" d="M36.052 0a4.7 4.7 0 0 1 1.988.436l24.54 11.682c1.26.63 2.23 1.794 2.521 3.15l6.062 26.322c.34 1.405 0 2.86-.921 3.974L53.268 66.65c-.873 1.115-2.231 1.745-3.638 1.745H22.426c-1.406 0-2.764-.63-3.637-1.745L1.815 45.564a4.85 4.85 0 0 1-.922-3.974l6.062-26.321c.34-1.406 1.261-2.57 2.522-3.15L34.015.387A5.8 5.8 0 0 1 36.052 0"/><path fill="#fff" fill-rule="evenodd" d="M61.064 39.175h-.049c-.049 0-.098 0-.098-.048-.048 0-.097-.012-.146-.024s-.097-.024-.146-.024l-.127-.018a6 6 0 0 0-.8-.079c-.147 0-.293 0-.489-.048h-.048c-1.025-.096-1.855-.193-2.636-.434-.341-.145-.439-.338-.537-.531 0-.024-.012-.036-.024-.048s-.024-.024-.024-.049l-.635-.193c.293-2.22.195-4.536-.342-6.805a19.8 19.8 0 0 0-2.733-6.322l.489-.434v-.097c0-.241.048-.483.243-.724.561-.508 1.257-.929 2.087-1.43l.11-.066a2 2 0 0 1 .22-.12c.073-.037.146-.073.219-.121a7 7 0 0 0 .83-.483q.03-.03.082-.063c.047-.033.104-.073.162-.13q.028-.026.053-.04c.026-.015.044-.027.044-.056.684-.58.83-1.545.342-2.172-.244-.338-.683-.531-1.123-.531-.39 0-.732.145-1.073.386l-.098.096a.5.5 0 0 0-.122.097.5.5 0 0 1-.122.096l-.002.003c-.243.24-.438.433-.633.673q-.045.046-.093.103c-.07.08-.148.169-.248.235-.683.724-1.318 1.303-1.952 1.737a.8.8 0 0 1-.44.145c-.097 0-.195 0-.292-.048h-.098l-.585.386c-.635-.676-1.318-1.255-2.001-1.834a19.6 19.6 0 0 0-10.2-4.006l-.05-.627-.097-.097-.056-.053c-.136-.13-.291-.278-.334-.574-.046-.72.036-1.525.127-2.413l.02-.193v-.049c0-.144.048-.338.097-.482l.004-.026c.047-.28.095-.563.142-.891v-.434c0-.87-.683-1.593-1.513-1.593-.39 0-.78.193-1.073.482-.293.29-.44.676-.44 1.11v.387c0 .338.05.627.147.917.026.078.038.156.051.242l.002.01q.014.105.044.23v.048q.03.295.064.579c.084.737.16 1.413.083 2.028-.043.296-.199.444-.335.574l-.007.006-.049.047-.097.097-.049.627c-.878.096-1.757.193-2.636.386a18.87 18.87 0 0 0-9.663 5.406l-.488-.338h-.097c-.05 0-.098.012-.147.024s-.097.024-.146.024a.8.8 0 0 1-.44-.145c-.634-.434-1.268-1.062-1.951-1.786a2 2 0 0 1-.095-.103c-.07-.08-.147-.169-.247-.234a8 8 0 0 0-.634-.676 1 1 0 0 0-.083-.064 1 1 0 0 1-.162-.13q-.028-.025-.053-.039c-.025-.015-.044-.027-.044-.057a1.72 1.72 0 0 0-1.074-.386c-.44 0-.878.193-1.122.531-.488.628-.342 1.593.341 2.172.025 0 .037.012.05.024.011.012.024.024.048.024.049.024.085.06.122.097.037.036.073.072.122.096.293.193.537.338.83.483.146.048.292.145.439.241l.108.065c.83.502 1.526.922 2.088 1.431.244.242.244.483.244.724v.097l.488.434-.072.1-.008.011-.006.008a1 1 0 0 0-.158.267c-2.44 3.813-3.367 8.301-2.733 12.742l-.634.193c0 .024-.013.036-.025.048s-.024.024-.024.048a1.13 1.13 0 0 1-.537.531c-.732.241-1.61.338-2.635.434h-.05c-.146 0-.341 0-.487.049-.257 0-.513.036-.801.078l-.127.018a.6.6 0 0 0-.146.024c-.049.012-.098.024-.146.024-.05 0-.098 0-.147.049-.878.193-1.415 1.013-1.269 1.785.147.676.781 1.11 1.562 1.11.146 0 .244 0 .39-.048.05 0 .098 0 .098-.048a.6.6 0 0 0 .146-.024c.05-.012.098-.024.147-.024.342-.097.585-.193.878-.338.073-.024.145-.06.217-.096h.003c.073-.037.146-.073.22-.097h.049c.927-.338 1.756-.628 2.537-.724h.098c.272 0 .46.125.603.22l.031.021c.025 0 .037.012.05.024.011.012.023.024.048.024l.683-.096a19.1 19.1 0 0 0 6.393 9.073c.684.531 1.367.965 2.099 1.4l-.293.627c0 .024.012.036.025.048.012.013.024.025.024.049.098.193.195.434.098.772-.293.724-.733 1.448-1.27 2.268v.049c-.048.072-.097.132-.146.193l-.001.001c-.049.06-.097.12-.145.192-.146.18-.264.359-.395.558l-.142.214a1 1 0 0 0-.146.241c0 .048-.05.097-.05.097-.39.82-.097 1.737.635 2.075q.292.145.586.145c.585 0 1.171-.386 1.464-.917 0-.048.049-.097.049-.097.049-.096.097-.193.146-.241.097-.224.152-.406.206-.587v-.004q.04-.135.087-.278l.146-.434.115-.326c.286-.816.522-1.49.91-2.087.155-.23.34-.307.507-.378l.008-.003.002-.001h.002l.006-.003q.057-.023.11-.05.029 0 .043-.003c.014-.005.026-.017.054-.045l.342-.627a19.3 19.3 0 0 0 6.833 1.255c1.415 0 2.879-.145 4.245-.483a22 22 0 0 0 2.538-.724l.293.53q.029-.001.043.005c.015.005.027.017.055.044.244.048.439.145.634.434.359.621.635 1.364.943 2.192l.001.004.002.006.079.212v.048l.146.434q.046.139.084.277l.003.012c.054.193.108.387.206.58.025.048.05.084.073.12.025.037.05.073.074.121 0 .049.048.097.048.097.293.579.879.917 1.465.917q.293 0 .585-.145c.342-.193.635-.483.732-.869.098-.386.098-.82-.097-1.206 0-.024-.013-.036-.025-.049-.012-.012-.024-.024-.024-.048a1 1 0 0 0-.146-.241c-.146-.289-.34-.53-.535-.77l-.002-.002c-.049-.072-.097-.132-.145-.192l-.002-.001a2 2 0 0 1-.146-.193v-.049l-.09-.136-.002-.004c-.5-.763-.947-1.446-1.177-2.128-.078-.267-.032-.444.014-.626q.019-.072.035-.146c0-.024.012-.036.024-.049.012-.012.025-.024.025-.048l-.245-.579c2.587-1.496 4.783-3.62 6.443-6.226.878-1.351 1.561-2.847 2.05-4.343l.585.096c.024 0 .036-.012.049-.024.012-.012.024-.024.049-.024q.072-.036.14-.079c.137-.081.275-.163.494-.163h.098c.78.097 1.61.387 2.538.724h.048q.11.04.22.097c.073.036.146.072.22.096.292.145.536.242.878.338.049 0 .098.013.146.024a.6.6 0 0 0 .147.025c.048 0 .097 0 .146.048.147.048.244.048.39.048.733 0 1.367-.483 1.562-1.11 0-.579-.537-1.351-1.415-1.593m-22.596-2.364-2.147 1.013-2.148-1.014-.537-2.268 1.464-1.834h2.392l1.464 1.834zm13.08-.145a15 15 0 0 0-.342-4.875 15.4 15.4 0 0 0-1.855-4.585l-5.905 5.26a1.15 1.15 0 0 0-.293.532 1.307 1.307 0 0 0 .927 1.544zm-4.54-12.355-6.393 4.488a1.31 1.31 0 0 1-1.708-.29c-.146-.144-.195-.337-.244-.53l-.44-7.867a14.88 14.88 0 0 1 8.786 4.199m-13.452-4.087-.02.003-.02.004-.66.122c-2.783.627-5.272 1.979-7.272 3.957l6.49 4.586c.147.096.39.144.586.144.732 0 1.269-.579 1.318-1.255l.44-7.721c-.256.045-.5.091-.744.137zM23.24 27.206l5.808 5.116c.537.434.585 1.255.146 1.786a.97.97 0 0 1-.585.386l-7.565 2.172c-.293-3.282.44-6.612 2.196-9.46m6.442 11.776-7.76 1.303a15.24 15.24 0 0 0 6.101 7.578L31 40.768c.098-.241.098-.483.049-.772a1.314 1.314 0 0 0-1.367-1.014M39.737 49.89a16 16 0 0 1-3.416.386c-1.709 0-3.368-.29-4.93-.772l3.856-6.902c.39-.434 1.025-.627 1.562-.338.244.145.439.338.585.531l3.758 6.709c-.245.08-.504.146-.77.213-.212.054-.429.109-.645.173m4.831-2.027c1.855-1.207 3.465-2.751 4.686-4.682.634-.917 1.122-1.882 1.415-2.944l-7.809-1.303c-.244 0-.488.048-.683.145-.586.29-.83.917-.683 1.496z" clip-rule="evenodd"/></svg>