<svg xmlns="http://www.w3.org/2000/svg" width="281" height="81" fill="none"><path fill="#8E714E" fill-rule="evenodd" d="M261.727 33.95c-.253.05-.506.607-.506.91-.051 2.028-.101 7.398-.101 11.046 0 .101.151.304.303.304.76.05 2.584.101 4.155.101 2.178 0 3.445-.304 4.155-.607 1.823-.913 2.685-2.889 2.685-5.068 0-4.914-3.446-6.788-8.563-6.788-.355-.05-1.367-.05-2.128.101m13.072 22.646c0-5.015-3.699-7.802-10.386-7.802-.304 0-2.432-.05-2.939.05-.152.051-.354.153-.354.305 0 3.596-.051 9.322.101 11.551.101.963.811 2.331 1.672 2.736.911.507 2.989.608 4.408.608 4.002 0 7.498-2.23 7.498-7.448m-23.407-25.433c.506 0 2.026.151 5.927.151 3.699 0 6.638-.1 10.235-.1 4.407 0 10.487 1.57 10.487 8.156 0 3.243-2.28 5.827-5.269 7.094-.151.05-.151.151 0 .202 4.256 1.064 8.006 3.698 8.006 8.663 0 4.865-3.04 7.955-7.449 9.88-2.685 1.165-6.028 1.57-9.423 1.57-2.584 0-9.525-.303-13.375-.201-.406-.153.354-1.977.708-2.28.913-.052 1.622-.102 2.585-.406 1.368-.354 1.519-.76 1.722-2.837.102-1.773.102-8.056.102-12.514 0-6.13.051-10.285 0-12.312-.051-1.57-.608-2.077-1.723-2.381a91 91 0 0 0-3.445-.507c-.254-.253.607-1.976.912-2.178m-29.234 31.513c1.216.962 3.597 1.367 5.725 1.367 2.736 0 5.472-.505 8.107-2.888 2.685-2.43 4.559-6.18 4.559-12.158 0-5.726-2.178-10.387-6.637-13.122-2.533-1.572-5.775-2.23-9.525-2.23-1.114 0-2.178.051-2.837.355-.152.101-.506.557-.506.81-.102 1.014-.102 8.816-.102 13.376 0 4.712 0 11.298.102 12.058 0 .76.354 1.925 1.114 2.432m-11.501-31.514c.963 0 4.661.152 6.434.152 3.193 0 5.472-.151 11.501-.151 5.067 0 9.323 1.368 12.363 3.951 3.698 3.192 5.624 7.6 5.624 12.97 0 7.651-3.496 12.06-6.993 14.592-3.495 2.584-8.055 4.104-14.54 4.104-3.445 0-9.373-.101-14.288-.152h-.05c-.253-.456.405-2.23.81-2.28 1.318-.152 1.672-.203 2.331-.456 1.064-.405 1.267-.963 1.419-2.837.151-3.496.101-7.701.101-12.464 0-3.394.05-10.032-.051-12.16-.152-1.773-.911-2.229-2.432-2.533-.76-.152-1.773-.355-3.191-.506-.203-.355.709-1.926.962-2.23" clip-rule="evenodd"/><path fill="#442D22" fill-rule="evenodd" d="M149.353 64.652c-1.267-.152-2.179-.354-3.293-.861-.152-.102-.406-.608-.406-.811-.101-1.773-.101-6.84-.101-10.234 0-2.736-.456-5.117-1.621-6.79-1.369-1.925-3.344-3.039-5.878-3.039-2.229 0-5.218 1.52-7.701 3.648-.05.05-.456.405-.405-.152 0-.558.101-1.672.152-2.432.051-.71-.355-1.064-.355-1.064-1.621.81-6.181 1.874-7.853 2.026-1.215.254-1.52 1.42-.252 1.824h.05c1.367.405 2.28.862 2.988 1.318.507.405.457.962.457 1.419.05 3.799.05 9.626-.101 12.818-.051 1.266-.406 1.722-1.318 1.925l.102-.05c-.71.151-1.267.303-2.129.404-.304.304-.304 1.926 0 2.28.558 0 3.496-.152 5.929-.152 3.343 0 5.066.152 5.927.152.355-.405.456-1.925.254-2.28-.963-.05-1.673-.151-2.331-.354-.912-.204-1.165-.659-1.216-1.723-.101-2.685-.101-8.36-.101-12.21 0-1.064.304-1.57.607-1.875 1.166-1.013 3.041-1.722 4.713-1.722 1.621 0 2.684.507 3.495 1.165 1.115.912 1.469 2.23 1.621 3.192.254 2.178.153 6.485.153 10.234 0 2.027-.153 2.533-.912 2.786-.355.153-1.267.356-2.331.456-.355.355-.253 1.926 0 2.28 1.469 0 3.192-.151 5.725-.151 3.141 0 5.168.152 5.979.152.253-.304.354-1.773.152-2.18m14.034-19.353c-2.685 0-4.357 2.077-4.357 5.319 0 3.293 1.469 7.093 5.623 7.093.71 0 2.027-.304 2.635-1.014.963-.91 1.621-2.735 1.621-4.66 0-4.206-2.077-6.739-5.522-6.739m-.355 22.393a4.35 4.35 0 0 0-2.178.558c-2.128 1.367-3.091 2.684-3.091 4.256 0 1.468.557 2.633 1.773 3.647 1.47 1.266 3.496 1.875 6.08 1.875 5.168 0 7.448-2.787 7.448-5.522 0-1.926-.963-3.193-2.938-3.902-1.419-.608-4.003-.912-7.094-.912m.355 13.173c-3.091 0-5.32-.659-7.245-2.128-1.875-1.419-2.685-3.547-2.685-5.016 0-.405.101-1.52 1.013-2.533.557-.608 1.773-1.773 4.661-3.75.101-.05.152-.1.152-.203 0-.1-.102-.202-.203-.252-2.381-.912-3.09-2.382-3.293-3.192v-.102c-.05-.304-.152-.607.304-.912.355-.253.862-.557 1.418-.911.862-.507 1.774-1.065 2.331-1.52.102-.102.102-.203.102-.304 0-.102-.102-.203-.203-.254-3.546-1.165-5.319-3.8-5.319-7.752 0-2.583 1.165-4.914 3.242-6.383 1.418-1.115 4.965-2.483 7.296-2.483h.152c2.381.05 3.698.557 5.572 1.216 1.014.355 1.977.506 3.294.506 1.976 0 2.837-.607 3.546-1.316.051.1.153.355.203 1.013.051.659-.152 1.621-.659 2.33-.405.558-1.317.963-2.229.963h-.253c-.912-.101-1.318-.203-1.318-.203l-.202.102c-.051.101 0 .202.05.355l.051.101c.101.456.304 1.823.304 2.179 0 4.154-1.672 5.977-3.445 7.346-1.723 1.266-3.698 2.077-5.928 2.28-.05 0-.252 0-.709.05-.253 0-.608.051-.659.051h-.051c-.405.101-1.418.608-1.418 1.469 0 .76.456 1.672 2.635 1.824.455.05.911.05 1.418.102 2.888.202 6.485.456 8.157 1.013 2.331.86 3.8 2.938 3.8 5.42 0 3.75-2.685 7.246-7.143 9.424-2.179.963-4.358 1.47-6.739 1.47m28.878-35.313c-1.063 0-2.026.252-2.735.76-1.976 1.215-2.989 3.647-2.989 7.194 0 6.637 3.343 11.298 8.106 11.298 1.419 0 2.533-.405 3.496-1.216 1.469-1.216 2.229-3.648 2.229-7.043 0-6.586-3.293-10.994-8.106-10.994zm.913 21.684c-8.613 0-11.704-6.333-11.704-12.26 0-4.155 1.672-7.347 5.016-9.627 2.381-1.47 5.219-2.28 7.752-2.28 6.586 0 11.197 4.712 11.197 11.501 0 4.61-1.824 8.258-5.32 10.488-1.672 1.114-4.56 2.178-6.942 2.178zm-90.285-21.685c-1.064 0-2.026.253-2.736.76-1.976 1.216-2.99 3.648-2.99 7.194 0 6.638 3.344 11.3 8.107 11.3 1.419 0 2.533-.406 3.496-1.217 1.469-1.216 2.229-3.648 2.229-7.043 0-6.586-3.242-10.994-8.106-10.994m.912 21.685c-8.613 0-11.704-6.333-11.704-12.26 0-4.155 1.672-7.347 5.016-9.627 2.382-1.47 5.219-2.28 7.752-2.28 6.587 0 11.197 4.712 11.197 11.501 0 4.61-1.824 8.258-5.32 10.488-1.621 1.114-4.509 2.178-6.941 2.178m-57.91-.507c-.102-.151-.203-.608-.152-1.165 0-.405.101-.659.152-.76 1.064-.152 1.621-.304 2.23-.456 1.013-.254 1.418-.81 1.468-2.077.153-3.04.153-8.816.102-12.818v-.102c0-.456 0-1.014-.557-1.419-.811-.506-1.774-.962-3.04-1.317-.456-.151-.76-.405-.71-.709 0-.304.304-.658.963-.76 1.672-.152 6.029-1.215 7.751-1.976.102.101.254.406.254.811l-.05.557a21 21 0 0 0-.102 1.875c0 .202.203.354.405.354.102 0 .203-.05.304-.101 3.243-2.533 6.181-3.445 7.7-3.445 2.484 0 4.41 1.165 5.879 3.597.1.152.202.203.354.203.102 0 .253-.05.304-.152 2.99-2.28 5.979-3.648 7.954-3.648 4.712 0 7.499 3.496 7.499 9.424 0 1.671 0 3.85-.05 5.826 0 1.773-.051 3.395-.051 4.56 0 .253.354 1.063.911 1.216.71.354 1.673.506 2.94.709h.05c.101.355-.101 1.672-.304 1.925-.304 0-.76 0-1.267-.05a75 75 0 0 0-3.85-.102c-3.141 0-4.763.05-6.334.152-.1-.405-.151-1.62 0-1.925.913-.152 1.368-.304 1.926-.456 1.014-.304 1.267-.76 1.318-2.077 0-.963.202-9.17-.102-11.147-.304-2.026-1.824-4.407-5.168-4.407-1.267 0-3.242.507-5.168 1.975a.9.9 0 0 0-.203.507v.051c.203 1.063.203 2.28.203 4.154v3.294c0 2.28-.05 4.408 0 6.028 0 1.115.659 1.369 1.216 1.572.305.05.507.1.76.151.456.102.912.203 1.621.355.102.203.102.861-.05 1.419-.051.304-.153.455-.203.506-1.722-.05-3.496-.101-6.08-.101-.76 0-2.077.05-3.192.05-.912 0-1.773.051-2.28.051-.05-.101-.152-.455-.152-1.013 0-.456.102-.81.203-.912.254-.05.456-.101.71-.101a51 51 0 0 0 1.62-.304c.862-.253 1.166-.71 1.217-1.824.152-2.533.304-9.778-.051-11.603-.608-2.938-2.28-4.407-4.965-4.407-1.57 0-3.547.76-5.168 1.976-.253.202-.456.709-.456 1.165v2.99c0 3.647 0 8.207.05 10.183.052.607.254 1.317 1.42 1.57.253.05.658.152 1.165.203l.911.152c.102.304.051 1.52-.151 1.925-.507 0-1.115-.05-1.825-.05a83 83 0 0 0-3.951-.102c-1.773 0-3.04.05-4.054.102-.709-.102-1.266-.102-1.874-.102" clip-rule="evenodd"/><path fill="#fff" fill-rule="evenodd" d="m19.245 78.889-2.077-.71s.254-10.588-3.547-11.348c-2.533-2.94.406-124.636 9.526-.406 0 0-3.142 1.57-3.7 4.256-.607 2.635-.202 8.208-.202 8.208" clip-rule="evenodd"/><path fill="#A6A385" fill-rule="evenodd" d="m19.245 78.889-2.077-.71s.254-10.588-3.547-11.348c-2.533-2.94.406-124.636 9.526-.406 0 0-3.142 1.57-3.7 4.256-.607 2.635-.202 8.208-.202 8.208" clip-rule="evenodd"/><path fill="#fff" fill-rule="evenodd" d="M20.36 68.655S38.549 56.697 34.292 31.82C30.19 13.734 20.512 7.806 19.448 5.526c-1.165-1.621-2.28-4.458-2.28-4.458l.76 50.31c0 .05-1.57 15.402 2.432 17.277" clip-rule="evenodd"/><path fill="#499D4A" fill-rule="evenodd" d="M20.36 68.655S38.549 56.697 34.292 31.82C30.19 13.734 20.512 7.806 19.448 5.526c-1.165-1.621-2.28-4.458-2.28-4.458l.76 50.31c0 .05-1.57 15.402 2.432 17.277" clip-rule="evenodd"/><path fill="#fff" fill-rule="evenodd" d="M16.105 69.313S-.97 57.66.043 37.141C1.006 16.622 13.064 6.54 15.395 4.716c1.52-1.621 1.57-2.23 1.672-3.851 1.064 2.28.861 34.098 1.013 37.846.456 14.44-.81 27.867-1.975 30.602" clip-rule="evenodd"/><path fill="#58AA50" fill-rule="evenodd" d="M16.105 69.313S-.97 57.66.043 37.141C1.006 16.622 13.064 6.54 15.395 4.716c1.52-1.621 1.57-2.23 1.672-3.851 1.064 2.28.861 34.098 1.013 37.846.456 14.44-.81 27.867-1.975 30.602" clip-rule="evenodd"/></svg>