<svg xmlns="http://www.w3.org/2000/svg" width="159" height="156" fill="none"><mask id="b" width="177.476" height="178.297" x="-7.908" y="-9.908" fill="#000" maskUnits="userSpaceOnUse"><path fill="#fff" d="M-7.908-9.908h177.476v178.297H-7.908z"/><path fill-rule="evenodd" d="M81.464 6.64c-1.013.17-1.917.544-2.736.98 2.051.926 3.337 2.39 4.154 4.158.078.248.181.417.26.665.073.212.145.424.182.642.68 3.17-.23 3.734-.602 5.737-.641 2.608.086 5.174 1.704 7.069.151.236.344.502.568.726-2.912-8.957 4.488-11.614 5.419-14.719-.311-2.524-2.653-3.849-4.474-4.738-1.714-.684-3.173-.738-4.475-.52m11.848.144c-.005.86.067.623.104 1.065.012.297.073.66.086.956a8 8 0 0 1-.108.914 8 8 0 0 1-.143.92c-.096.315-.162.587-.258.902-.084.163-.132.32-.217.484l-.162.363a13 13 0 0 1-.42.817c-.181.254-.32.539-.543.763l.007.036c-.187.218-.368.472-.59.696-.663.708-1.458 1.29-2.162 1.967-.223.224-.452.412-.633.666a5.5 5.5 0 0 0-.59.696c-.216.26-.36.508-.535.799-.144.248-.319.538-.42.817a9 9 0 0 0-.38.847c-.096.315-.162.587-.258.902-.06.309-.126.58-.15.883-.053.345-.077.648-.1.95-.012.152.018.333.006.485s.013.296 0 .448c.05.29.068.623.117.913.036.218.073.436.145.648.049.29.134.575.26.89.086.284.207.562.327.84.158.273.279.551.436.824.102.17.241.333.338.466l-8.86-1.84a90 90 0 0 0-4.378-.386l-2.37-.164a68 68 0 0 0-6.746.122c-.072.012-.115-.018-.187-.006a65 65 0 0 0-6.529.757c-1.591.266-3.17.605-4.708.974-2.182.515-4.34 1.175-6.485 1.907-.53.163-1.055.363-1.579.563a73 73 0 0 0-3.133 1.271l-1.555.708c-.506.309-.97.648-1.44.95l-1.102.745c-.066.048-.139.06-.169.103-.331.242-.632.441-.928.678a2 2 0 0 0-.234.15c-.368.249-.73.533-1.024.77-.235.15-.464.339-.663.484-.096.09-.229.187-.295.236-.295.236-.59.472-.85.702a9 9 0 0 0-.776.69c-.223.224-.452.411-.639.63-.03.042-.066.048-.096.09a9 9 0 0 0-.602.623l-.06.085-.47.527c-.066.048-.126.133-.192.181-.157.176-.307.388-.464.563-.024.079-.09.127-.12.17-.18.254-.367.472-.548.726-.036.006-.03.042-.06.084-.187.218-.367.473-.548.727-.03.042-.024.078-.06.084-.15.212-.3.424-.445.672-.06.085-.157.176-.217.26-.144.249-.325.503-.505.757-.024.079-.09.127-.115.206-.24.339-.445.672-.686 1.01l-.09.128a22 22 0 0 1-1.547 2.088c-.554.69-1.15 1.35-1.758 1.936-.638.63-1.252 1.18-1.939 1.743q-.985.78-2.096 1.471c-.705.454-1.452.878-2.205 1.265-1.465.581-2.917 1.459-4.237 1.792-.289.048-.602.175-.886.26-.313.127-.59.248-.867.37l-.814.471c-.27.158-.536.351-.8.545-.224.224-.489.418-.711.642-.223.223-.44.484-.62.738-.223.224-.434.52-.614.775-.175.29-.355.544-.494.829-.132.32-.306.611-.403.926-.138.284-.27.605-.366.92-.09.35-.186.665-.24 1.01-.06.309-.114.654-.167.999a7 7 0 0 0-.035.902c.006.036-.024.078-.018.115-.018.339.055.774.055.998.007.26.007.484.05.739.024.145.054.326.115.465.079.249.151.46.26.666s.218.412.363.611l.006.037c.145.2.326.393.507.587s.362.387.58.575c.21.151.464.332.712.478.253.181.5.326.784.466.996.617 1.255.835 2.474 1.228.199.079.392.121.627.194.036-.006.079.024.115.018.012.072.018.109.066.175.085.285.206.563.327.841.127.315.284.588.435.824.145.2.254.405.399.605a.8.8 0 0 0 .139.163c.193.266.38.496.568.726l.67.672c.217.188.477.405.73.587.254.182.501.327.79.502 0 0 .043.03.08.025.247.145.494.29.735.399.284.14.561.242.875.339.277.103.591.2.899.26.235.073.5.103.766.133.042.03.078.024.157.048.15.013.337.019.488.03.22 1.98.493 3.838.892 4.443.447.671 1.668-1.81 2.834-4.618.202 2.542.55 5.507 1.057 6.318.55.841 2.246-2.354 3.604-5.792C54.53 68.97 80.91 82.845 87.575 107.56c-1.127-3.843-6.302-5.216-8.417-4.302-.635 2.869-1.903 6.627-4.51 9.266a23.7 23.7 0 0 0-1.577-7.202c-.236 3.474-1.269 6.857-2.953 9.901-3.394.829-7.11-.266-9.337-2.468-.163-.085-.236-.297-.368-.424-.151-.236-.303-.472-.417-.714a3 3 0 0 1-.345-.726c-.079-.248-.121-.503-.17-.793l-.091-.545c-.007-.26.023-.526.053-.793.03-.266.06-.532.126-.804.102-.279.168-.551.306-.836.323-1.845.086-3.262-1.175-3.909a4 4 0 0 0-.748-.248c-.15-.012-.344-.055-.494-.067-.115-.018-.194-.042-.308-.06-.265-.03-.53-.061-.79-.055a2.8 2.8 0 0 0-.778.019c-.26.006-.554.018-.808.06-.18.03-.355.097-.536.127-.29.049-.536.128-.778.242a6 6 0 0 0-.735.273c-.24.115-.482.23-.717.381-.235.152-.434.297-.669.448-.198.145-.39.327-.626.478-7.503 6.93-.312 19.015 6.065 21.793-2.103.762-4.23 1.604-4.767 2.179l-.06.084a34.6 34.6 0 0 0 5.29 1.616c2.443.375 5.018.653 6.151.762l.006.036a35.3 35.3 0 0 0 9.224-.872c15.835-3.807 26.915-18.242 26.604-34.764.127.315.248.594.375.908.218.636.478 1.301.666 1.98l.006.036c.127.314.218.635.303.92l.024.145c.091.32.182.641.23.932.103.393.206.786.273 1.186l.097.581c.031.181.103.393.134.575.036.218.037.442.073.659l.085.509c.043.254.043.478.085.732.025.145.049.291.043.478.043.254.049.515.098.805-.018.115 0 .224.018.333.013.297.019.557.031.853.019.109.037.218.019.333.024.369.007.708.031 1.077l.007.037.006.036c-.018.339-.03.714-.047 1.053l.018.109-.053 1.017c.006.036-.018.115-.012.151a10 10 0 0 1-.089 1.023l.018.109c-.047.381-.101.726-.119 1.065-.03.042-.024.079-.024.079l-.143 1.143c-.084.388-.138.733-.222 1.12s-.131.769-.221 1.12c-.084.387-.174.738-.258 1.125l-.036.006c-.09.351-.174.739-.3 1.096a2 2 0 0 1-.066.272c-.03.043-.024.079-.054.121-1.555 5.15-4.328 9.907-8.121 13.902-.26.23-.512.496-.765.762-.06.085-.163.14-.223.224-.223.224-.445.448-.704.678l.145.2.036-.006 1.482-.472.037-.006a78 78 0 0 0 2.736-.981c.247-.079.524-.2.765-.315.175-.066.313-.127.488-.193.247-.079.488-.194.735-.273.205-.109.416-.181.621-.29 3.471-1.477 6.779-3.263 9.905-5.242a58.8 58.8 0 0 1-19.379 22.169c4.111-.986 8.155-2.372 11.975-4.206 13.853-6.761 24.467-18.654 29.59-33.136a58.9 58.9 0 0 1-5.821 24.976 57.8 57.8 0 0 0 8.308-9.677 58.45 58.45 0 0 0 10.061-33.413 58.9 58.9 0 0 1 3.978 17.326c19.993-40.937-10.296-74.837-21.986-83.146-.049-.066-.091-.096-.103-.17-.03.043-.03.043-.024.08-.006-.037-.006-.037-.048-.067.073.436.109.878.146 1.32.032.853.057 1.67.046 2.493-.047.829-.131 1.664-.214 2.5a30 30 0 0 1-.479 2.468 32 32 0 0 1-.714 2.397c-.283.757-.595 1.555-.956 2.288a28 28 0 0 1-1.155 2.209c-.433.744-.914 1.422-1.396 2.1a23 23 0 0 1-.897 1.083c-.246.303-.463.563-.71.866a21 21 0 0 1-1.788 1.755 25 25 0 0 1-1.927 1.591c-.699.49-1.404.945-2.109 1.399-.711.417-1.464.805-2.223 1.156s-1.561.672-2.332.95c-.808.285-1.628.496-2.411.702-.573.133-1.145.267-1.724.363-.832.14-1.676.206-2.484.267-.844.066-1.694.097-2.52.048a18.5 18.5 0 0 1-2.527-.211l-.036.006c.784-.206 1.567-.412 2.338-.69.808-.285 1.573-.6 2.333-.95a26 26 0 0 0 2.223-1.157c.747-.423 1.446-.914 2.108-1.398.699-.49 1.319-1.005 1.97-1.561a42 42 0 0 0 1.782-1.792 20 20 0 0 0 1.571-1.943c.524-.647.963-1.355 1.402-2.063q.65-1.117 1.191-2.215c.054-.122.102-.279.156-.4.265-.641.529-1.283.758-1.918a25.5 25.5 0 0 0 1.193-4.866c.125-.805.173-1.634.22-2.463.005-.86.016-1.683-.046-2.494-.067-.847-.135-1.694-.268-2.493a29 29 0 0 0-.364-1.73c-.212-.824-.455-1.605-.697-2.385a27 27 0 0 0-.95-2.342c-.381-.72-.767-1.477-1.184-2.191s-.907-1.416-1.39-2.082a42 42 0 0 0-1.588-1.936 41 41 0 0 0-1.781-1.755 76 76 0 0 0-1.974-1.573 22 22 0 0 0-1.092-.75 68 68 0 0 0-5.624-2.718 7 7 0 0 0-.784-.242c-1.32-.563-2.509-.774-3.691-.95" clip-rule="evenodd"/></mask><path fill="#E0234E" fill-rule="evenodd" d="M81.464 6.64c-1.013.17-1.917.544-2.736.98 2.051.926 3.337 2.39 4.154 4.158.078.248.181.417.26.665.073.212.145.424.182.642.68 3.17-.23 3.734-.602 5.737-.641 2.608.086 5.174 1.704 7.069.151.236.344.502.568.726-2.912-8.957 4.488-11.614 5.419-14.719-.311-2.524-2.653-3.849-4.474-4.738-1.714-.684-3.173-.738-4.475-.52m11.848.144c-.005.86.067.623.104 1.065.012.297.073.66.086.956a8 8 0 0 1-.108.914 8 8 0 0 1-.143.92c-.096.315-.162.587-.258.902-.084.163-.132.32-.217.484l-.162.363a13 13 0 0 1-.42.817c-.181.254-.32.539-.543.763l.007.036c-.187.218-.368.472-.59.696-.663.708-1.458 1.29-2.162 1.967-.223.224-.452.412-.633.666a5.5 5.5 0 0 0-.59.696c-.216.26-.36.508-.535.799-.144.248-.319.538-.42.817a9 9 0 0 0-.38.847c-.096.315-.162.587-.258.902-.06.309-.126.58-.15.883-.053.345-.077.648-.1.95-.012.152.018.333.006.485s.013.296 0 .448c.05.29.068.623.117.913.036.218.073.436.145.648.049.29.134.575.26.89.086.284.207.562.327.84.158.273.279.551.436.824.102.17.241.333.338.466l-8.86-1.84a90 90 0 0 0-4.378-.386l-2.37-.164a68 68 0 0 0-6.746.122c-.072.012-.115-.018-.187-.006a65 65 0 0 0-6.529.757c-1.591.266-3.17.605-4.708.974-2.182.515-4.34 1.175-6.485 1.907-.53.163-1.055.363-1.579.563a73 73 0 0 0-3.133 1.271l-1.555.708c-.506.309-.97.648-1.44.95l-1.102.745c-.066.048-.139.06-.169.103-.331.242-.632.441-.928.678a2 2 0 0 0-.234.15c-.368.249-.73.533-1.024.77-.235.15-.464.339-.663.484-.096.09-.229.187-.295.236-.295.236-.59.472-.85.702a9 9 0 0 0-.776.69c-.223.224-.452.411-.639.63-.03.042-.066.048-.096.09a9 9 0 0 0-.602.623l-.06.085-.47.527c-.066.048-.126.133-.192.181-.157.176-.307.388-.464.563-.024.079-.09.127-.12.17-.18.254-.367.472-.548.726-.036.006-.03.042-.06.084-.187.218-.367.473-.548.727-.03.042-.024.078-.06.084-.15.212-.3.424-.445.672-.06.085-.157.176-.217.26-.144.249-.325.503-.505.757-.024.079-.09.127-.115.206-.24.339-.445.672-.686 1.01l-.09.128a22 22 0 0 1-1.547 2.088c-.554.69-1.15 1.35-1.758 1.936-.638.63-1.252 1.18-1.939 1.743q-.985.78-2.096 1.471c-.705.454-1.452.878-2.205 1.265-1.465.581-2.917 1.459-4.237 1.792-.289.048-.602.175-.886.26-.313.127-.59.248-.867.37l-.814.471c-.27.158-.536.351-.8.545-.224.224-.489.418-.711.642-.223.223-.44.484-.62.738-.223.224-.434.52-.614.775-.175.29-.355.544-.494.829-.132.32-.306.611-.403.926-.138.284-.27.605-.366.92-.09.35-.186.665-.24 1.01-.06.309-.114.654-.167.999a7 7 0 0 0-.035.902c.006.036-.024.078-.018.115-.018.339.055.774.055.998.007.26.007.484.05.739.024.145.054.326.115.465.079.249.151.46.26.666s.218.412.363.611l.006.037c.145.2.326.393.507.587s.362.387.58.575c.21.151.464.332.712.478.253.181.5.326.784.466.996.617 1.255.835 2.474 1.228.199.079.392.121.627.194.036-.006.079.024.115.018.012.072.018.109.066.175.085.285.206.563.327.841.127.315.284.588.435.824.145.2.254.405.399.605a.8.8 0 0 0 .139.163c.193.266.38.496.568.726l.67.672c.217.188.477.405.73.587.254.182.501.327.79.502 0 0 .043.03.08.025.247.145.494.29.735.399.284.14.561.242.875.339.277.103.591.2.899.26.235.073.5.103.766.133.042.03.078.024.157.048.15.013.337.019.488.03.22 1.98.493 3.838.892 4.443.447.671 1.668-1.81 2.834-4.618.202 2.542.55 5.507 1.057 6.318.55.841 2.246-2.354 3.604-5.792C54.53 68.97 80.91 82.845 87.575 107.56c-1.127-3.843-6.302-5.216-8.417-4.302-.635 2.869-1.903 6.627-4.51 9.266a23.7 23.7 0 0 0-1.577-7.202c-.236 3.474-1.269 6.857-2.953 9.901-3.394.829-7.11-.266-9.337-2.468-.163-.085-.236-.297-.368-.424-.151-.236-.303-.472-.417-.714a3 3 0 0 1-.345-.726c-.079-.248-.121-.503-.17-.793l-.091-.545c-.007-.26.023-.526.053-.793.03-.266.06-.532.126-.804.102-.279.168-.551.306-.836.323-1.845.086-3.262-1.175-3.909a4 4 0 0 0-.748-.248c-.15-.012-.344-.055-.494-.067-.115-.018-.194-.042-.308-.06-.265-.03-.53-.061-.79-.055a2.8 2.8 0 0 0-.778.019c-.26.006-.554.018-.808.06-.18.03-.355.097-.536.127-.29.049-.536.128-.778.242a6 6 0 0 0-.735.273c-.24.115-.482.23-.717.381-.235.152-.434.297-.669.448-.198.145-.39.327-.626.478-7.503 6.93-.312 19.015 6.065 21.793-2.103.762-4.23 1.604-4.767 2.179l-.06.084a34.6 34.6 0 0 0 5.29 1.616c2.443.375 5.018.653 6.151.762l.006.036a35.3 35.3 0 0 0 9.224-.872c15.835-3.807 26.915-18.242 26.604-34.764.127.315.248.594.375.908.218.636.478 1.301.666 1.98l.006.036c.127.314.218.635.303.92l.024.145c.091.32.182.641.23.932.103.393.206.786.273 1.186l.097.581c.031.181.103.393.134.575.036.218.037.442.073.659l.085.509c.043.254.043.478.085.732.025.145.049.291.043.478.043.254.049.515.098.805-.018.115 0 .224.018.333.013.297.019.557.031.853.019.109.037.218.019.333.024.369.007.708.031 1.077l.007.037.006.036c-.018.339-.03.714-.047 1.053l.018.109-.053 1.017c.006.036-.018.115-.012.151a10 10 0 0 1-.089 1.023l.018.109c-.047.381-.101.726-.119 1.065-.03.042-.024.079-.024.079l-.143 1.143c-.084.388-.138.733-.222 1.12s-.131.769-.221 1.12c-.084.387-.174.738-.258 1.125l-.036.006c-.09.351-.174.739-.3 1.096a2 2 0 0 1-.066.272c-.03.043-.024.079-.054.121-1.555 5.15-4.328 9.907-8.121 13.902-.26.23-.512.496-.765.762-.06.085-.163.14-.223.224-.223.224-.445.448-.704.678l.145.2.036-.006 1.482-.472.037-.006a78 78 0 0 0 2.736-.981c.247-.079.524-.2.765-.315.175-.066.313-.127.488-.193.247-.079.488-.194.735-.273.205-.109.416-.181.621-.29 3.471-1.477 6.779-3.263 9.905-5.242a58.8 58.8 0 0 1-19.379 22.169c4.111-.986 8.155-2.372 11.975-4.206 13.853-6.761 24.467-18.654 29.59-33.136a58.9 58.9 0 0 1-5.821 24.976 57.8 57.8 0 0 0 8.308-9.677 58.45 58.45 0 0 0 10.061-33.413 58.9 58.9 0 0 1 3.978 17.326c19.993-40.937-10.296-74.837-21.986-83.146-.049-.066-.091-.096-.103-.17-.03.043-.03.043-.024.08-.006-.037-.006-.037-.048-.067.073.436.109.878.146 1.32.032.853.057 1.67.046 2.493-.047.829-.131 1.664-.214 2.5a30 30 0 0 1-.479 2.468 32 32 0 0 1-.714 2.397c-.283.757-.595 1.555-.956 2.288a28 28 0 0 1-1.155 2.209c-.433.744-.914 1.422-1.396 2.1a23 23 0 0 1-.897 1.083c-.246.303-.463.563-.71.866a21 21 0 0 1-1.788 1.755 25 25 0 0 1-1.927 1.591c-.699.49-1.404.945-2.109 1.399-.711.417-1.464.805-2.223 1.156s-1.561.672-2.332.95c-.808.285-1.628.496-2.411.702-.573.133-1.145.267-1.724.363-.832.14-1.676.206-2.484.267-.844.066-1.694.097-2.52.048a18.5 18.5 0 0 1-2.527-.211l-.036.006c.784-.206 1.567-.412 2.338-.69.808-.285 1.573-.6 2.333-.95a26 26 0 0 0 2.223-1.157c.747-.423 1.446-.914 2.108-1.398.699-.49 1.319-1.005 1.97-1.561a42 42 0 0 0 1.782-1.792 20 20 0 0 0 1.571-1.943c.524-.647.963-1.355 1.402-2.063q.65-1.117 1.191-2.215c.054-.122.102-.279.156-.4.265-.641.529-1.283.758-1.918a25.5 25.5 0 0 0 1.193-4.866c.125-.805.173-1.634.22-2.463.005-.86.016-1.683-.046-2.494-.067-.847-.135-1.694-.268-2.493a29 29 0 0 0-.364-1.73c-.212-.824-.455-1.605-.697-2.385a27 27 0 0 0-.95-2.342c-.381-.72-.767-1.477-1.184-2.191s-.907-1.416-1.39-2.082a42 42 0 0 0-1.588-1.936 41 41 0 0 0-1.781-1.755 76 76 0 0 0-1.974-1.573 22 22 0 0 0-1.092-.75 68 68 0 0 0-5.624-2.718 7 7 0 0 0-.784-.242c-1.32-.563-2.509-.774-3.691-.95" clip-rule="evenodd"/><path fill="url(#a)" fill-rule="evenodd" d="M81.464 6.64c-1.013.17-1.917.544-2.736.98 2.051.926 3.337 2.39 4.154 4.158.078.248.181.417.26.665.073.212.145.424.182.642.68 3.17-.23 3.734-.602 5.737-.641 2.608.086 5.174 1.704 7.069.151.236.344.502.568.726-2.912-8.957 4.488-11.614 5.419-14.719-.311-2.524-2.653-3.849-4.474-4.738-1.714-.684-3.173-.738-4.475-.52m11.848.144c-.005.86.067.623.104 1.065.012.297.073.66.086.956a8 8 0 0 1-.108.914 8 8 0 0 1-.143.92c-.096.315-.162.587-.258.902-.084.163-.132.32-.217.484l-.162.363a13 13 0 0 1-.42.817c-.181.254-.32.539-.543.763l.007.036c-.187.218-.368.472-.59.696-.663.708-1.458 1.29-2.162 1.967-.223.224-.452.412-.633.666a5.5 5.5 0 0 0-.59.696c-.216.26-.36.508-.535.799-.144.248-.319.538-.42.817a9 9 0 0 0-.38.847c-.096.315-.162.587-.258.902-.06.309-.126.58-.15.883-.053.345-.077.648-.1.95-.012.152.018.333.006.485s.013.296 0 .448c.05.29.068.623.117.913.036.218.073.436.145.648.049.29.134.575.26.89.086.284.207.562.327.84.158.273.279.551.436.824.102.17.241.333.338.466l-8.86-1.84a90 90 0 0 0-4.378-.386l-2.37-.164a68 68 0 0 0-6.746.122c-.072.012-.115-.018-.187-.006a65 65 0 0 0-6.529.757c-1.591.266-3.17.605-4.708.974-2.182.515-4.34 1.175-6.485 1.907-.53.163-1.055.363-1.579.563a73 73 0 0 0-3.133 1.271l-1.555.708c-.506.309-.97.648-1.44.95l-1.102.745c-.066.048-.139.06-.169.103-.331.242-.632.441-.928.678a2 2 0 0 0-.234.15c-.368.249-.73.533-1.024.77-.235.15-.464.339-.663.484-.096.09-.229.187-.295.236-.295.236-.59.472-.85.702a9 9 0 0 0-.776.69c-.223.224-.452.411-.639.63-.03.042-.066.048-.096.09a9 9 0 0 0-.602.623l-.06.085-.47.527c-.066.048-.126.133-.192.181-.157.176-.307.388-.464.563-.024.079-.09.127-.12.17-.18.254-.367.472-.548.726-.036.006-.03.042-.06.084-.187.218-.367.473-.548.727-.03.042-.024.078-.06.084-.15.212-.3.424-.445.672-.06.085-.157.176-.217.26-.144.249-.325.503-.505.757-.024.079-.09.127-.115.206-.24.339-.445.672-.686 1.01l-.09.128a22 22 0 0 1-1.547 2.088c-.554.69-1.15 1.35-1.758 1.936-.638.63-1.252 1.18-1.939 1.743q-.985.78-2.096 1.471c-.705.454-1.452.878-2.205 1.265-1.465.581-2.917 1.459-4.237 1.792-.289.048-.602.175-.886.26-.313.127-.59.248-.867.37l-.814.471c-.27.158-.536.351-.8.545-.224.224-.489.418-.711.642-.223.223-.44.484-.62.738-.223.224-.434.52-.614.775-.175.29-.355.544-.494.829-.132.32-.306.611-.403.926-.138.284-.27.605-.366.92-.09.35-.186.665-.24 1.01-.06.309-.114.654-.167.999a7 7 0 0 0-.035.902c.006.036-.024.078-.018.115-.018.339.055.774.055.998.007.26.007.484.05.739.024.145.054.326.115.465.079.249.151.46.26.666s.218.412.363.611l.006.037c.145.2.326.393.507.587s.362.387.58.575c.21.151.464.332.712.478.253.181.5.326.784.466.996.617 1.255.835 2.474 1.228.199.079.392.121.627.194.036-.006.079.024.115.018.012.072.018.109.066.175.085.285.206.563.327.841.127.315.284.588.435.824.145.2.254.405.399.605a.8.8 0 0 0 .139.163c.193.266.38.496.568.726l.67.672c.217.188.477.405.73.587.254.182.501.327.79.502 0 0 .043.03.08.025.247.145.494.29.735.399.284.14.561.242.875.339.277.103.591.2.899.26.235.073.5.103.766.133.042.03.078.024.157.048.15.013.337.019.488.03.22 1.98.493 3.838.892 4.443.447.671 1.668-1.81 2.834-4.618.202 2.542.55 5.507 1.057 6.318.55.841 2.246-2.354 3.604-5.792C54.53 68.97 80.91 82.845 87.575 107.56c-1.127-3.843-6.302-5.216-8.417-4.302-.635 2.869-1.903 6.627-4.51 9.266a23.7 23.7 0 0 0-1.577-7.202c-.236 3.474-1.269 6.857-2.953 9.901-3.394.829-7.11-.266-9.337-2.468-.163-.085-.236-.297-.368-.424-.151-.236-.303-.472-.417-.714a3 3 0 0 1-.345-.726c-.079-.248-.121-.503-.17-.793l-.091-.545c-.007-.26.023-.526.053-.793.03-.266.06-.532.126-.804.102-.279.168-.551.306-.836.323-1.845.086-3.262-1.175-3.909a4 4 0 0 0-.748-.248c-.15-.012-.344-.055-.494-.067-.115-.018-.194-.042-.308-.06-.265-.03-.53-.061-.79-.055a2.8 2.8 0 0 0-.778.019c-.26.006-.554.018-.808.06-.18.03-.355.097-.536.127-.29.049-.536.128-.778.242a6 6 0 0 0-.735.273c-.24.115-.482.23-.717.381-.235.152-.434.297-.669.448-.198.145-.39.327-.626.478-7.503 6.93-.312 19.015 6.065 21.793-2.103.762-4.23 1.604-4.767 2.179l-.06.084a34.6 34.6 0 0 0 5.29 1.616c2.443.375 5.018.653 6.151.762l.006.036a35.3 35.3 0 0 0 9.224-.872c15.835-3.807 26.915-18.242 26.604-34.764.127.315.248.594.375.908.218.636.478 1.301.666 1.98l.006.036c.127.314.218.635.303.92l.024.145c.091.32.182.641.23.932.103.393.206.786.273 1.186l.097.581c.031.181.103.393.134.575.036.218.037.442.073.659l.085.509c.043.254.043.478.085.732.025.145.049.291.043.478.043.254.049.515.098.805-.018.115 0 .224.018.333.013.297.019.557.031.853.019.109.037.218.019.333.024.369.007.708.031 1.077l.007.037.006.036c-.018.339-.03.714-.047 1.053l.018.109-.053 1.017c.006.036-.018.115-.012.151a10 10 0 0 1-.089 1.023l.018.109c-.047.381-.101.726-.119 1.065-.03.042-.024.079-.024.079l-.143 1.143c-.084.388-.138.733-.222 1.12s-.131.769-.221 1.12c-.084.387-.174.738-.258 1.125l-.036.006c-.09.351-.174.739-.3 1.096a2 2 0 0 1-.066.272c-.03.043-.024.079-.054.121-1.555 5.15-4.328 9.907-8.121 13.902-.26.23-.512.496-.765.762-.06.085-.163.14-.223.224-.223.224-.445.448-.704.678l.145.2.036-.006 1.482-.472.037-.006a78 78 0 0 0 2.736-.981c.247-.079.524-.2.765-.315.175-.066.313-.127.488-.193.247-.079.488-.194.735-.273.205-.109.416-.181.621-.29 3.471-1.477 6.779-3.263 9.905-5.242a58.8 58.8 0 0 1-19.379 22.169c4.111-.986 8.155-2.372 11.975-4.206 13.853-6.761 24.467-18.654 29.59-33.136a58.9 58.9 0 0 1-5.821 24.976 57.8 57.8 0 0 0 8.308-9.677 58.45 58.45 0 0 0 10.061-33.413 58.9 58.9 0 0 1 3.978 17.326c19.993-40.937-10.296-74.837-21.986-83.146-.049-.066-.091-.096-.103-.17-.03.043-.03.043-.024.08-.006-.037-.006-.037-.048-.067.073.436.109.878.146 1.32.032.853.057 1.67.046 2.493-.047.829-.131 1.664-.214 2.5a30 30 0 0 1-.479 2.468 32 32 0 0 1-.714 2.397c-.283.757-.595 1.555-.956 2.288a28 28 0 0 1-1.155 2.209c-.433.744-.914 1.422-1.396 2.1a23 23 0 0 1-.897 1.083c-.246.303-.463.563-.71.866a21 21 0 0 1-1.788 1.755 25 25 0 0 1-1.927 1.591c-.699.49-1.404.945-2.109 1.399-.711.417-1.464.805-2.223 1.156s-1.561.672-2.332.95c-.808.285-1.628.496-2.411.702-.573.133-1.145.267-1.724.363-.832.14-1.676.206-2.484.267-.844.066-1.694.097-2.52.048a18.5 18.5 0 0 1-2.527-.211l-.036.006c.784-.206 1.567-.412 2.338-.69.808-.285 1.573-.6 2.333-.95a26 26 0 0 0 2.223-1.157c.747-.423 1.446-.914 2.108-1.398.699-.49 1.319-1.005 1.97-1.561a42 42 0 0 0 1.782-1.792 20 20 0 0 0 1.571-1.943c.524-.647.963-1.355 1.402-2.063q.65-1.117 1.191-2.215c.054-.122.102-.279.156-.4.265-.641.529-1.283.758-1.918a25.5 25.5 0 0 0 1.193-4.866c.125-.805.173-1.634.22-2.463.005-.86.016-1.683-.046-2.494-.067-.847-.135-1.694-.268-2.493a29 29 0 0 0-.364-1.73c-.212-.824-.455-1.605-.697-2.385a27 27 0 0 0-.95-2.342c-.381-.72-.767-1.477-1.184-2.191s-.907-1.416-1.39-2.082a42 42 0 0 0-1.588-1.936 41 41 0 0 0-1.781-1.755 76 76 0 0 0-1.974-1.573 22 22 0 0 0-1.092-.75 68 68 0 0 0-5.624-2.718 7 7 0 0 0-.784-.242c-1.32-.563-2.509-.774-3.691-.95" clip-rule="evenodd"/><path stroke="#fff" stroke-linecap="round" stroke-linejoin="round" stroke-width="12" d="M81.464 6.64c-1.013.17-1.917.544-2.736.98 2.051.926 3.337 2.39 4.154 4.158.078.248.181.417.26.665.073.212.145.424.182.642.68 3.17-.23 3.734-.602 5.737-.641 2.608.086 5.174 1.704 7.069.151.236.344.502.568.726-2.912-8.957 4.488-11.614 5.419-14.719-.311-2.524-2.653-3.849-4.474-4.738-1.714-.684-3.173-.738-4.475-.52m11.848.144c-.005.86.067.623.104 1.065.012.297.073.66.086.956a8 8 0 0 1-.108.914 8 8 0 0 1-.143.92c-.096.315-.162.587-.258.902-.084.163-.132.32-.217.484l-.162.363a13 13 0 0 1-.42.817c-.181.254-.32.539-.543.763l.007.036c-.187.218-.368.472-.59.696-.663.708-1.458 1.29-2.162 1.967-.223.224-.452.412-.633.666a5.5 5.5 0 0 0-.59.696c-.216.26-.36.508-.535.799-.144.248-.319.538-.42.817a9 9 0 0 0-.38.847c-.096.315-.162.587-.258.902-.06.309-.126.58-.15.883-.053.345-.077.648-.1.95-.012.152.018.333.006.485s.013.296 0 .448c.05.29.068.623.117.913.036.218.073.436.145.648.049.29.134.575.26.89.086.284.207.562.327.84.158.273.279.551.436.824.102.17.241.333.338.466l-8.86-1.84a90 90 0 0 0-4.378-.386l-2.37-.164a68 68 0 0 0-6.746.122c-.072.012-.115-.018-.187-.006a65 65 0 0 0-6.529.757c-1.591.266-3.17.605-4.708.974-2.182.515-4.34 1.175-6.485 1.907-.53.163-1.055.363-1.579.563a73 73 0 0 0-3.133 1.271l-1.555.708c-.506.309-.97.648-1.44.95l-1.102.745c-.066.048-.139.06-.169.103-.331.242-.632.441-.928.678a2 2 0 0 0-.234.15c-.368.249-.73.533-1.024.77-.235.15-.464.339-.663.484-.096.09-.229.187-.295.236-.295.236-.59.472-.85.702a9 9 0 0 0-.776.69c-.223.224-.452.411-.639.63-.03.042-.066.048-.096.09a9 9 0 0 0-.602.623l-.06.085-.47.527c-.066.048-.126.133-.192.181-.157.176-.307.388-.464.563-.024.079-.09.127-.12.17-.18.254-.367.472-.548.726-.036.006-.03.042-.06.084-.187.218-.367.473-.548.727-.03.042-.024.078-.06.084-.15.212-.3.424-.445.672-.06.085-.157.176-.217.26-.144.249-.325.503-.505.757-.024.079-.09.127-.115.206-.24.339-.445.672-.686 1.01l-.09.128a22 22 0 0 1-1.547 2.088c-.554.69-1.15 1.35-1.758 1.936-.638.63-1.252 1.18-1.939 1.743q-.985.78-2.096 1.471c-.705.454-1.452.878-2.205 1.265-1.465.581-2.917 1.459-4.237 1.792-.289.048-.602.175-.886.26-.313.127-.59.248-.867.37l-.814.471c-.27.158-.536.351-.8.545-.224.224-.489.418-.711.642-.223.223-.44.484-.62.738-.223.224-.434.52-.614.775-.175.29-.355.544-.494.829-.132.32-.306.611-.403.926-.138.284-.27.605-.366.92-.09.35-.186.665-.24 1.01-.06.309-.114.654-.167.999a7 7 0 0 0-.035.902c.006.036-.024.078-.018.115-.018.339.055.774.055.998.007.26.007.484.05.739.024.145.054.326.115.465.079.249.151.46.26.666s.218.412.363.611l.006.037c.145.2.326.393.507.587s.362.387.58.575c.21.151.464.332.712.478.253.181.5.326.784.466.996.617 1.255.835 2.474 1.228.199.079.392.121.627.194.036-.006.079.024.115.018.012.072.018.109.066.175.085.285.206.563.327.841.127.315.284.588.435.824.145.2.254.405.399.605a.8.8 0 0 0 .139.163c.193.266.38.496.568.726l.67.672c.217.188.477.405.73.587.254.182.501.327.79.502 0 0 .043.03.08.025.247.145.494.29.735.399.284.14.561.242.875.339.277.103.591.2.899.26.235.073.5.103.766.133.042.03.078.024.157.048.15.013.337.019.488.03.22 1.98.493 3.838.892 4.443.447.671 1.668-1.81 2.834-4.618.202 2.542.55 5.507 1.057 6.318.55.841 2.246-2.354 3.604-5.792C54.53 68.97 80.91 82.845 87.575 107.56c-1.127-3.843-6.302-5.216-8.417-4.302-.635 2.869-1.903 6.627-4.51 9.266a23.7 23.7 0 0 0-1.577-7.202c-.236 3.474-1.269 6.857-2.953 9.901-3.394.829-7.11-.266-9.337-2.468-.163-.085-.236-.297-.368-.424-.151-.236-.303-.472-.417-.714a3 3 0 0 1-.345-.726c-.079-.248-.121-.503-.17-.793l-.091-.545c-.007-.26.023-.526.053-.793.03-.266.06-.532.126-.804.102-.279.168-.551.306-.836.323-1.845.086-3.262-1.175-3.909a4 4 0 0 0-.748-.248c-.15-.012-.344-.055-.494-.067-.115-.018-.194-.042-.308-.06-.265-.03-.53-.061-.79-.055a2.8 2.8 0 0 0-.778.019c-.26.006-.554.018-.808.06-.18.03-.355.097-.536.127-.29.049-.536.128-.778.242a6 6 0 0 0-.735.273c-.24.115-.482.23-.717.381-.235.152-.434.297-.669.448-.198.145-.39.327-.626.478-7.503 6.93-.312 19.015 6.065 21.793-2.103.762-4.23 1.604-4.767 2.179l-.06.084a34.6 34.6 0 0 0 5.29 1.616c2.443.375 5.018.653 6.151.762l.006.036a35.3 35.3 0 0 0 9.224-.872c15.835-3.807 26.915-18.242 26.604-34.764.127.315.248.594.375.908.218.636.478 1.301.666 1.98l.006.036c.127.314.218.635.303.92l.024.145c.091.32.182.641.23.932.103.393.206.786.273 1.186l.097.581c.031.181.103.393.134.575.036.218.037.442.073.659l.085.509c.043.254.043.478.085.732.025.145.049.291.043.478.043.254.049.515.098.805-.018.115 0 .224.018.333.013.297.019.557.031.853.019.109.037.218.019.333.024.369.007.708.031 1.077l.007.037.006.036c-.018.339-.03.714-.047 1.053l.018.109-.053 1.017c.006.036-.018.115-.012.151a10 10 0 0 1-.089 1.023l.018.109c-.047.381-.101.726-.119 1.065-.03.042-.024.079-.024.079l-.143 1.143c-.084.388-.138.733-.222 1.12s-.131.769-.221 1.12c-.084.387-.174.738-.258 1.125l-.036.006c-.09.351-.174.739-.3 1.096a2 2 0 0 1-.066.272c-.03.043-.024.079-.054.121-1.555 5.15-4.328 9.907-8.121 13.902-.26.23-.512.496-.765.762-.06.085-.163.14-.223.224-.223.224-.445.448-.704.678l.145.2.036-.006 1.482-.472.037-.006a78 78 0 0 0 2.736-.981c.247-.079.524-.2.765-.315.175-.066.313-.127.488-.193.247-.079.488-.194.735-.273.205-.109.416-.181.621-.29 3.471-1.477 6.779-3.263 9.905-5.242a58.8 58.8 0 0 1-19.379 22.169c4.111-.986 8.155-2.372 11.975-4.206 13.853-6.761 24.467-18.654 29.59-33.136a58.9 58.9 0 0 1-5.821 24.976 57.8 57.8 0 0 0 8.308-9.677 58.45 58.45 0 0 0 10.061-33.413 58.9 58.9 0 0 1 3.978 17.326c19.993-40.937-10.296-74.837-21.986-83.146-.049-.066-.091-.096-.103-.17-.03.043-.03.043-.024.08-.006-.037-.006-.037-.048-.067.073.436.109.878.146 1.32.032.853.057 1.67.046 2.493-.047.829-.131 1.664-.214 2.5a30 30 0 0 1-.479 2.468 32 32 0 0 1-.714 2.397c-.283.757-.595 1.555-.956 2.288a28 28 0 0 1-1.155 2.209c-.433.744-.914 1.422-1.396 2.1a23 23 0 0 1-.897 1.083c-.246.303-.463.563-.71.866a21 21 0 0 1-1.788 1.755 25 25 0 0 1-1.927 1.591c-.699.49-1.404.945-2.109 1.399-.711.417-1.464.805-2.223 1.156s-1.561.672-2.332.95c-.808.285-1.628.496-2.411.702-.573.133-1.145.267-1.724.363-.832.14-1.676.206-2.484.267-.844.066-1.694.097-2.52.048a18.5 18.5 0 0 1-2.527-.211l-.036.006c.784-.206 1.567-.412 2.338-.69.808-.285 1.573-.6 2.333-.95a26 26 0 0 0 2.223-1.157c.747-.423 1.446-.914 2.108-1.398.699-.49 1.319-1.005 1.97-1.561a42 42 0 0 0 1.782-1.792 20 20 0 0 0 1.571-1.943c.524-.647.963-1.355 1.402-2.063q.65-1.117 1.191-2.215c.054-.122.102-.279.156-.4.265-.641.529-1.283.758-1.918a25.5 25.5 0 0 0 1.193-4.866c.125-.805.173-1.634.22-2.463.005-.86.016-1.683-.046-2.494-.067-.847-.135-1.694-.268-2.493a29 29 0 0 0-.364-1.73c-.212-.824-.455-1.605-.697-2.385a27 27 0 0 0-.95-2.342c-.381-.72-.767-1.477-1.184-2.191s-.907-1.416-1.39-2.082a42 42 0 0 0-1.588-1.936 41 41 0 0 0-1.781-1.755 76 76 0 0 0-1.974-1.573 22 22 0 0 0-1.092-.75 68 68 0 0 0-5.624-2.718 7 7 0 0 0-.784-.242c-1.32-.563-2.509-.774-3.691-.95" clip-rule="evenodd" mask="url(#b)"/><defs><linearGradient id="a" x1="69.026" x2="119" y1="8.722" y2="125" gradientUnits="userSpaceOnUse"><stop stop-color="#FF5A80"/><stop offset="1" stop-color="#AC0027" stop-opacity="0"/></linearGradient></defs></svg>