<svg xmlns="http://www.w3.org/2000/svg" width="32" height="32" fill="none"><path fill="#E0234E" fill-rule="evenodd" d="M16.584.286a1.9 1.9 0 0 0-.583.214c.437.201.711.52.886.906.016.054.038.09.055.145q.025.069.039.14c.145.69-.05.813-.128 1.25a1.75 1.75 0 0 0 .363 1.54 1 1 0 0 0 .121.158c-.621-1.951.957-2.53 1.156-3.207-.067-.55-.566-.839-.955-1.033a1.7 1.7 0 0 0-.954-.113m2.527.031c-.001.188.014.136.022.233.003.064.015.143.018.208q-.006.099-.023.2c-.005.065-.018.132-.03.2l-.055.196c-.018.036-.028.07-.046.106l-.035.079a3 3 0 0 1-.09.178c-.038.055-.068.117-.115.166l.001.008c-.04.047-.078.103-.126.152-.141.154-.31.28-.46.428-.048.049-.097.09-.136.145a1 1 0 0 0-.125.152c-.047.057-.077.11-.115.174-.03.054-.068.117-.09.178q-.045.093-.08.185l-.055.196c-.013.067-.027.127-.032.193a2 2 0 0 0-.022.207c-.002.033.004.072.002.105-.003.033.002.065 0 .098.01.063.014.136.025.2q.009.07.03.14a1 1 0 0 0 .056.194c.018.062.044.123.07.183.033.06.06.12.093.18.022.037.051.072.072.101l-1.89-.4a19 19 0 0 0-.933-.085l-.505-.035q-.72-.024-1.439.026c-.015.003-.024-.004-.04-.001a13.7 13.7 0 0 0-2.396.377A15 15 0 0 0 9.28 5.4c-.113.035-.225.079-.336.122q-.347.136-.669.277l-.331.155c-.108.067-.207.14-.307.207l-.235.162c-.014.01-.03.013-.036.022-.07.053-.135.097-.198.148a4 4 0 0 0-.268.2c-.05.033-.1.074-.142.106a2 2 0 0 0-.41.355c-.047.049-.096.09-.135.137-.007.01-.015.01-.021.02-.041.04-.089.088-.128.136l-.013.018-.1.115c-.014.01-.027.029-.041.04-.034.038-.066.084-.1.122-.004.017-.019.028-.025.037-.038.055-.078.103-.117.158-.007.002-.006.01-.013.019-.04.047-.078.103-.116.158-.007.01-.005.017-.013.018a2 2 0 0 0-.095.147c-.013.018-.034.038-.046.057-.031.054-.07.109-.108.164-.005.018-.02.028-.024.045-.052.074-.095.147-.147.22l-.019.028a5 5 0 0 1-.33.455c-.118.15-.245.294-.375.422a6 6 0 0 1-.413.38q-.21.17-.447.32c-.15.1-.31.192-.47.276-.313.127-.622.318-.904.39-.061.011-.128.039-.189.058q-.098.04-.185.08l-.173.103a2 2 0 0 0-.171.119c-.048.048-.104.09-.152.14a1.3 1.3 0 0 0-.132.16 1.3 1.3 0 0 0-.13.17c-.038.062-.076.118-.106.18-.028.07-.065.133-.086.202q-.046.095-.078.2c-.02.076-.04.145-.051.22q-.019.104-.036.218c-.005.066-.01.132-.007.196.001.008-.005.018-.004.025-.004.074.012.17.012.218.001.057.001.106.01.161.006.032.012.071.025.101.017.055.032.1.055.146.024.044.047.09.078.133l.001.008c.03.043.07.085.108.128.039.042.077.084.124.125.045.033.099.072.152.104.054.04.106.071.167.102.212.134.268.182.527.267.043.017.084.027.134.043.008-.002.017.005.025.003.002.016.003.024.014.039a1.7 1.7 0 0 0 .162.362c.031.044.054.089.085.132.01.015.02.03.03.036.041.058.081.108.121.158l.143.147c.046.04.102.088.156.127s.106.072.168.11c0 0 .01.007.017.005q.08.05.157.087.089.044.186.074c.06.022.126.044.192.057.05.016.107.022.163.029.01.006.017.005.034.01l.104.007c.047.431.105.836.19.968.096.146.356-.395.604-1.006.044.553.118 1.2.226 1.376.117.184.479-.513.768-1.262 5.256-2.233 10.881.79 12.302 6.177-.24-.838-1.343-1.137-1.794-.938-.136.625-.406 1.444-.962 2.02a5.3 5.3 0 0 0-.336-1.57 5.3 5.3 0 0 1-.63 2.158c-.724.18-1.516-.058-1.991-.538-.035-.019-.05-.065-.079-.093q-.05-.075-.088-.155a.7.7 0 0 1-.074-.158 1 1 0 0 1-.036-.173l-.02-.119a1 1 0 0 1 .012-.173q.007-.087.026-.175c.022-.06.036-.12.066-.182.069-.402.018-.71-.25-.852a1 1 0 0 0-.16-.054c-.032-.003-.074-.012-.106-.015-.024-.003-.04-.009-.065-.013a1 1 0 0 0-.169-.012.6.6 0 0 0-.166.004 1 1 0 0 0-.172.014c-.038.006-.076.02-.114.027a.6.6 0 0 0-.166.053 1.3 1.3 0 0 0-.31.142c-.05.034-.092.065-.142.098-.043.032-.084.071-.134.104-1.6 1.51-.066 4.144 1.293 4.75-.448.166-.902.349-1.016.474l-.013.019q.547.222 1.128.352c.521.081 1.07.142 1.312.166l.001.008a7.4 7.4 0 0 0 1.967-.19c3.376-.83 5.74-3.976 5.673-7.576l.08.198c.046.138.102.283.142.431l.001.008q.04.105.065.2l.005.032q.031.107.049.203c.022.086.044.172.058.259l.02.126c.007.04.023.086.03.126.007.047.007.096.015.143l.018.111c.01.056.01.104.018.16q.009.044.01.104c.008.055.01.112.02.175a.2.2 0 0 0 .004.073l.007.186q.008.035.004.072c.005.08.001.155.006.235l.002.008.001.008-.01.23.004.023-.011.222c0 .008-.004.025-.003.033-.004.074-.007.147-.019.223l.004.023c-.01.083-.022.159-.025.232-.007.01-.006.018-.006.018l-.03.249c-.018.084-.03.16-.047.244s-.028.167-.048.244c-.018.084-.037.16-.055.245l-.007.001c-.02.077-.037.161-.064.24a.4.4 0 0 1-.014.059c-.007.009-.005.017-.012.026a7.6 7.6 0 0 1-1.732 3.03q-.082.076-.163.166c-.012.018-.034.03-.047.048a3 3 0 0 1-.15.148l.03.044.008-.002.316-.103h.008q.293-.102.584-.215a1.4 1.4 0 0 0 .163-.068l.104-.042c.053-.018.104-.043.157-.06.043-.023.088-.04.132-.063a15 15 0 0 0 2.112-1.142 12.7 12.7 0 0 1-4.132 4.83 12.6 12.6 0 0 0 2.553-.916 12.7 12.7 0 0 0 6.31-7.221 13.1 13.1 0 0 1-1.241 5.443 12.5 12.5 0 0 0 1.771-2.109 12.94 12.94 0 0 0 2.145-7.282c.468 1.206.756 2.482.849 3.776 4.263-8.92-2.196-16.308-4.688-18.119-.01-.014-.02-.021-.022-.037-.007.01-.007.01-.005.017-.002-.008-.002-.008-.01-.014q.021.142.03.287c.007.186.013.364.01.544-.01.18-.028.362-.045.544a7 7 0 0 1-.102.538c-.044.17-.094.35-.153.523a6 6 0 0 1-.45.98c-.092.162-.195.31-.298.457-.065.085-.124.16-.19.236l-.152.189c-.12.134-.243.261-.382.382a5 5 0 0 1-.41.347q-.225.159-.45.305a6 6 0 0 1-.474.252 6 6 0 0 1-.497.207c-.173.062-.348.108-.515.153q-.183.045-.367.08a6 6 0 0 1-.53.057c-.18.015-.361.021-.537.01a4 4 0 0 1-.539-.045l-.008.001c.167-.045.334-.09.499-.15a5.6 5.6 0 0 0 .971-.46c.16-.092.309-.199.45-.304a6 6 0 0 0 .42-.34c.13-.128.26-.256.38-.39q.18-.202.335-.424c.112-.141.205-.296.299-.45q.138-.243.254-.483c.011-.026.022-.06.033-.087q.087-.21.162-.418a5.6 5.6 0 0 0 .254-1.06c.027-.176.037-.356.047-.537.001-.187.003-.367-.01-.543a7 7 0 0 0-.057-.544c-.02-.126-.05-.252-.078-.377a11 11 0 0 0-.148-.52 6 6 0 0 0-.203-.51c-.08-.157-.163-.322-.252-.477a6 6 0 0 0-.297-.454q-.164-.218-.338-.422a9 9 0 0 0-.38-.382q-.205-.173-.421-.343a5 5 0 0 0-.233-.164 14 14 0 0 0-1.199-.592 1.4 1.4 0 0 0-.167-.053 3 3 0 0 0-.787-.207" clip-rule="evenodd"/><path fill="url(#a)" fill-rule="evenodd" d="M16.584.286a1.9 1.9 0 0 0-.583.214c.437.201.711.52.886.906.016.054.038.09.055.145q.025.069.039.14c.145.69-.05.813-.128 1.25a1.75 1.75 0 0 0 .363 1.54 1 1 0 0 0 .121.158c-.621-1.951.957-2.53 1.156-3.207-.067-.55-.566-.839-.955-1.033a1.7 1.7 0 0 0-.954-.113m2.527.031c-.001.188.014.136.022.233.003.064.015.143.018.208q-.006.099-.023.2c-.005.065-.018.132-.03.2l-.055.196c-.018.036-.028.07-.046.106l-.035.079a3 3 0 0 1-.09.178c-.038.055-.068.117-.115.166l.001.008c-.04.047-.078.103-.126.152-.141.154-.31.28-.46.428-.048.049-.097.09-.136.145a1 1 0 0 0-.125.152c-.047.057-.077.11-.115.174-.03.054-.068.117-.09.178q-.045.093-.08.185l-.055.196c-.013.067-.027.127-.032.193a2 2 0 0 0-.022.207c-.002.033.004.072.002.105-.003.033.002.065 0 .098.01.063.014.136.025.2q.009.07.03.14a1 1 0 0 0 .056.194c.018.062.044.123.07.183.033.06.06.12.093.18.022.037.051.072.072.101l-1.89-.4a19 19 0 0 0-.933-.085l-.505-.035q-.72-.024-1.439.026c-.015.003-.024-.004-.04-.001a13.7 13.7 0 0 0-2.396.377A15 15 0 0 0 9.28 5.4c-.113.035-.225.079-.336.122q-.347.136-.669.277l-.331.155c-.108.067-.207.14-.307.207l-.235.162c-.014.01-.03.013-.036.022-.07.053-.135.097-.198.148a4 4 0 0 0-.268.2c-.05.033-.1.074-.142.106a2 2 0 0 0-.41.355c-.047.049-.096.09-.135.137-.007.01-.015.01-.021.02-.041.04-.089.088-.128.136l-.013.018-.1.115c-.014.01-.027.029-.041.04-.034.038-.066.084-.1.122-.004.017-.019.028-.025.037-.038.055-.078.103-.117.158-.007.002-.006.01-.013.019-.04.047-.078.103-.116.158-.007.01-.005.017-.013.018a2 2 0 0 0-.095.147c-.013.018-.034.038-.046.057-.031.054-.07.109-.108.164-.005.018-.02.028-.024.045-.052.074-.095.147-.147.22l-.019.028a5 5 0 0 1-.33.455c-.118.15-.245.294-.375.422a6 6 0 0 1-.413.38q-.21.17-.447.32c-.15.1-.31.192-.47.276-.313.127-.622.318-.904.39-.061.011-.128.039-.189.058q-.098.04-.185.08l-.173.103a2 2 0 0 0-.171.119c-.048.048-.104.09-.152.14a1.3 1.3 0 0 0-.132.16 1.3 1.3 0 0 0-.13.17c-.038.062-.076.118-.106.18-.028.07-.065.133-.086.202q-.046.095-.078.2c-.02.076-.04.145-.051.22q-.019.104-.036.218c-.005.066-.01.132-.007.196.001.008-.005.018-.004.025-.004.074.012.17.012.218.001.057.001.106.01.161.006.032.012.071.025.101.017.055.032.1.055.146.024.044.047.09.078.133l.001.008c.03.043.07.085.108.128.039.042.077.084.124.125.045.033.099.072.152.104.054.04.106.071.167.102.212.134.268.182.527.267.043.017.084.027.134.043.008-.002.017.005.025.003.002.016.003.024.014.039a1.7 1.7 0 0 0 .162.362c.031.044.054.089.085.132.01.015.02.03.03.036.041.058.081.108.121.158l.143.147c.046.04.102.088.156.127s.106.072.168.11c0 0 .01.007.017.005q.08.05.157.087.089.044.186.074c.06.022.126.044.192.057.05.016.107.022.163.029.01.006.017.005.034.01l.104.007c.047.431.105.836.19.968.096.146.356-.395.604-1.006.044.553.118 1.2.226 1.376.117.184.479-.513.768-1.262 5.256-2.233 10.881.79 12.302 6.177-.24-.838-1.343-1.137-1.794-.938-.136.625-.406 1.444-.962 2.02a5.3 5.3 0 0 0-.336-1.57 5.3 5.3 0 0 1-.63 2.158c-.724.18-1.516-.058-1.991-.538-.035-.019-.05-.065-.079-.093q-.05-.075-.088-.155a.7.7 0 0 1-.074-.158 1 1 0 0 1-.036-.173l-.02-.119a1 1 0 0 1 .012-.173q.007-.087.026-.175c.022-.06.036-.12.066-.182.069-.402.018-.71-.25-.852a1 1 0 0 0-.16-.054c-.032-.003-.074-.012-.106-.015-.024-.003-.04-.009-.065-.013a1 1 0 0 0-.169-.012.6.6 0 0 0-.166.004 1 1 0 0 0-.172.014c-.038.006-.076.02-.114.027a.6.6 0 0 0-.166.053 1.3 1.3 0 0 0-.31.142c-.05.034-.092.065-.142.098-.043.032-.084.071-.134.104-1.6 1.51-.066 4.144 1.293 4.75-.448.166-.902.349-1.016.474l-.013.019q.547.222 1.128.352c.521.081 1.07.142 1.312.166l.001.008a7.4 7.4 0 0 0 1.967-.19c3.376-.83 5.74-3.976 5.673-7.576l.08.198c.046.138.102.283.142.431l.001.008q.04.105.065.2l.005.032q.031.107.049.203c.022.086.044.172.058.259l.02.126c.007.04.023.086.03.126.007.047.007.096.015.143l.018.111c.01.056.01.104.018.16q.009.044.01.104c.008.055.01.112.02.175a.2.2 0 0 0 .004.073l.007.186q.008.035.004.072c.005.08.001.155.006.235l.002.008.001.008-.01.23.004.023-.011.222c0 .008-.004.025-.003.033-.004.074-.007.147-.019.223l.004.023c-.01.083-.022.159-.025.232-.007.01-.006.018-.006.018l-.03.249c-.018.084-.03.16-.047.244s-.028.167-.048.244c-.018.084-.037.16-.055.245l-.007.001c-.02.077-.037.161-.064.24a.4.4 0 0 1-.014.059c-.007.009-.005.017-.012.026a7.6 7.6 0 0 1-1.732 3.03q-.082.076-.163.166c-.012.018-.034.03-.047.048a3 3 0 0 1-.15.148l.03.044.008-.002.316-.103h.008q.293-.102.584-.215a1.4 1.4 0 0 0 .163-.068l.104-.042c.053-.018.104-.043.157-.06.043-.023.088-.04.132-.063a15 15 0 0 0 2.112-1.142 12.7 12.7 0 0 1-4.132 4.83 12.6 12.6 0 0 0 2.553-.916 12.7 12.7 0 0 0 6.31-7.221 13.1 13.1 0 0 1-1.241 5.443 12.5 12.5 0 0 0 1.771-2.109 12.94 12.94 0 0 0 2.145-7.282c.468 1.206.756 2.482.849 3.776 4.263-8.92-2.196-16.308-4.688-18.119-.01-.014-.02-.021-.022-.037-.007.01-.007.01-.005.017-.002-.008-.002-.008-.01-.014q.021.142.03.287c.007.186.013.364.01.544-.01.18-.028.362-.045.544a7 7 0 0 1-.102.538c-.044.17-.094.35-.153.523a6 6 0 0 1-.45.98c-.092.162-.195.31-.298.457-.065.085-.124.16-.19.236l-.152.189c-.12.134-.243.261-.382.382a5 5 0 0 1-.41.347q-.225.159-.45.305a6 6 0 0 1-.474.252 6 6 0 0 1-.497.207c-.173.062-.348.108-.515.153q-.183.045-.367.08a6 6 0 0 1-.53.057c-.18.015-.361.021-.537.01a4 4 0 0 1-.539-.045l-.008.001c.167-.045.334-.09.499-.15a5.6 5.6 0 0 0 .971-.46c.16-.092.309-.199.45-.304a6 6 0 0 0 .42-.34c.13-.128.26-.256.38-.39q.18-.202.335-.424c.112-.141.205-.296.299-.45q.138-.243.254-.483c.011-.026.022-.06.033-.087q.087-.21.162-.418a5.6 5.6 0 0 0 .254-1.06c.027-.176.037-.356.047-.537.001-.187.003-.367-.01-.543a7 7 0 0 0-.057-.544c-.02-.126-.05-.252-.078-.377a11 11 0 0 0-.148-.52 6 6 0 0 0-.203-.51c-.08-.157-.163-.322-.252-.477a6 6 0 0 0-.297-.454q-.164-.218-.338-.422a9 9 0 0 0-.38-.382q-.205-.173-.421-.343a5 5 0 0 0-.233-.164 14 14 0 0 0-1.199-.592 1.4 1.4 0 0 0-.167-.053 3 3 0 0 0-.787-.207" clip-rule="evenodd"/><defs><linearGradient id="a" x1="13.932" x2="24.985" y1=".74" y2="25.905" gradientUnits="userSpaceOnUse"><stop stop-color="#FF5A80"/><stop offset="1" stop-color="#AC0027" stop-opacity="0"/></linearGradient></defs></svg>