<svg xmlns="http://www.w3.org/2000/svg" width="242" height="65" fill="none"><path fill="#0E1E25" fill-rule="evenodd" d="m87.832 20.842.202 3.62q3.468-4.2 9.101-4.2 9.763 0 9.937 11.208v20.703h-7.018V31.875q0-2.981-1.285-4.416-1.285-1.434-4.203-1.433-4.249.001-6.326 3.851v22.296h-7.02V20.842h6.615zm40.157 31.91q-6.673 0-10.818-4.211-4.146-4.214-4.146-11.221v-.869q0-4.69 1.805-8.383 1.806-3.69 5.071-5.749 3.263-2.053 7.281-2.054 6.383 0 9.864 4.082 3.482 4.084 3.482 11.554v2.838h-20.426q.32 3.88 2.586 6.138 2.269 2.259 5.706 2.259 4.824.001 7.858-3.91l3.783 3.621q-1.878 2.809-5.011 4.357-3.135 1.55-7.033 1.549zm-.837-26.84q-2.89 0-4.665 2.026-1.778 2.027-2.268 5.647h13.376v-.522q-.232-3.533-1.878-5.342-1.648-1.809-4.565-1.809m27.617-12.684v7.615h5.518v5.212h-5.518v17.49q0 1.793.708 2.59.707.796 2.529.796c.826-.002 1.65-.1 2.454-.29v5.445q-2.397.666-4.622.665-8.088 0-8.088-8.946V26.054h-5.146v-5.212h5.142v-7.615h7.019zm18.345 38.947h-7.02V7.698h7.02zm15.109 0h-7.021V20.844h7.021zm-7.454-39.47q0-1.618 1.025-2.69 1.027-1.071 2.932-1.071t2.949 1.07q1.037 1.072 1.037 2.694 0 1.59-1.037 2.648-1.043 1.058-2.949 1.058t-2.932-1.058q-1.025-1.056-1.025-2.648zm17.565 39.47V26.054h-4.767v-5.212h4.767v-2.866q0-5.213 2.888-8.05 2.89-2.837 8.088-2.837 1.85 0 3.93.52l-.173 5.502a14 14 0 0 0-2.686-.23q-5.029-.001-5.028 5.182v2.779h6.355v5.212h-6.355v26.119h-7.019zm29.437-10.077 6.355-21.254h7.482l-12.42 36.08q-2.861 7.905-9.708 7.905-1.532 0-3.38-.522v-5.444l1.329.087q2.656 0 4.002-.97 1.341-.97 2.123-3.257l1.01-2.693-10.978-31.187h7.569z" clip-rule="evenodd"/><path fill="url(#a)" d="m45.854 22.748-.023-.01q-.02-.006-.038-.022a.18.18 0 0 1-.046-.153l1.273-7.785 5.972 5.973-6.21 2.642a.14.14 0 0 1-.055.01h-.025a.2.2 0 0 1-.033-.028 2.8 2.8 0 0 0-.815-.627m8.661-.475 6.385 6.385c1.326 1.328 1.99 1.99 2.232 2.758q.054.169.09.344l-15.26-6.462-.024-.01c-.061-.025-.132-.053-.132-.116 0-.062.072-.092.133-.116l.02-.009zm8.446 11.536c-.33.62-.972 1.262-2.06 2.35l-7.198 7.198-9.31-1.94-.05-.009c-.082-.013-.17-.028-.17-.102a2.8 2.8 0 0 0-1.078-1.965c-.038-.038-.028-.098-.017-.152q-.001-.012.004-.023l1.75-10.75.007-.036c.01-.083.025-.178.1-.178a2.85 2.85 0 0 0 1.91-1.096c.015-.016.025-.034.044-.044.053-.025.116 0 .17.023l15.896 6.724zM52.048 45.012 40.21 56.85l2.026-12.454.004-.016a.2.2 0 0 1 .01-.048c.016-.04.059-.056.1-.072l.02-.009c.444-.189.836-.48 1.145-.851.04-.047.087-.091.148-.1a.2.2 0 0 1 .048 0l8.335 1.714zM37.705 59.355 36.37 60.69 21.619 39.37l-.016-.023c-.023-.031-.048-.062-.043-.099 0-.026.018-.049.036-.069l.017-.021c.044-.066.082-.132.123-.203l.033-.057.005-.005c.023-.04.045-.078.084-.1.035-.016.082-.01.12 0l16.343 3.37a.3.3 0 0 1 .125.054c.022.021.026.044.031.07a2.9 2.9 0 0 0 1.694 1.936c.046.023.026.074.005.129a.4.4 0 0 0-.025.074 28008 28008 0 0 0-2.446 14.93m-2.787 2.786c-.984.973-1.564 1.489-2.22 1.696a3.3 3.3 0 0 1-1.986 0c-.767-.244-1.431-.906-2.757-2.233L13.14 46.79l3.87-6.001a.3.3 0 0 1 .065-.078c.041-.03.1-.016.15 0a4 4 0 0 0 2.698-.136c.045-.017.09-.029.124.003a.3.3 0 0 1 .046.052zM11.713 45.36l-3.399-3.398 6.711-2.863a.14.14 0 0 1 .055-.011c.056 0 .088.056.118.107a5 5 0 0 0 .214.303l.022.026c.02.028.006.056-.013.083l-3.707 5.754zm-4.903-4.9-4.3-4.3c-.73-.73-1.26-1.261-1.63-1.717l13.073 2.711.05.008c.08.014.169.028.169.104 0 .082-.097.12-.18.152l-.038.016zM.13 32.231q.023-.417.148-.815c.244-.768.906-1.43 2.234-2.758l5.502-5.502q3.8 5.515 7.62 11.016c.045.059.094.125.043.174-.24.265-.481.555-.65.87a.26.26 0 0 1-.083.102c-.022.013-.045.008-.07.003h-.003L.13 32.23zm9.356-10.547 7.395-7.398c.697.304 3.229 1.374 5.49 2.329 1.714.725 3.275 1.384 3.766 1.598.05.02.094.04.115.089.014.03.007.067 0 .099a3.3 3.3 0 0 0 .862 3.01c.05.05 0 .121-.043.182l-.023.035-7.512 11.634a.2.2 0 0 1-.07.083c-.04.024-.096.013-.142.001a3.7 3.7 0 0 0-.895-.122c-.27 0-.563.05-.86.104h-.001c-.033.005-.063.012-.089-.008a.3.3 0 0 1-.074-.084l-7.92-11.552zm8.892-8.892 9.578-9.578c1.326-1.326 1.99-1.99 2.757-2.232a3.3 3.3 0 0 1 1.987 0c.767.242 1.431.906 2.757 2.232l2.076 2.076-6.812 10.55a.3.3 0 0 1-.067.078c-.041.028-.099.017-.148 0a3.45 3.45 0 0 0-3.163.61c-.045.046-.11.02-.166-.005-.89-.387-7.809-3.311-8.799-3.731m20.601-6.056 6.29 6.29-1.516 9.386v.024a.2.2 0 0 1-.013.063c-.017.033-.05.04-.082.05-.324.098-.63.25-.903.45l-.033.027c-.018.02-.036.038-.066.041a.2.2 0 0 1-.07-.011L33 18.984l-.018-.009c-.06-.024-.133-.054-.133-.117a3.6 3.6 0 0 0-.51-1.507c-.047-.075-.098-.155-.059-.232zm-6.477 14.177 8.984 3.805c.05.023.104.044.126.095a.2.2 0 0 1 0 .094 2.2 2.2 0 0 0-.05.433v.253c0 .062-.064.088-.123.113l-.019.007c-1.423.608-19.981 8.521-20.009 8.521s-.058 0-.086-.028c-.049-.05 0-.118.045-.181l.023-.033 7.383-11.432.013-.02c.043-.069.092-.146.171-.146l.075.011c.168.023.316.045.466.045 1.12 0 2.158-.546 2.784-1.478a.3.3 0 0 1 .056-.066c.044-.033.11-.016.161.007m-10.289 15.13 20.229-8.627s.03 0 .057.028c.11.11.205.185.295.254l.045.028c.041.023.082.05.085.092 0 .016 0 .026-.003.041l-1.733 10.645-.006.043c-.012.082-.023.176-.1.176a2.85 2.85 0 0 0-2.263 1.395l-.008.013c-.023.038-.044.075-.082.094-.035.017-.08.01-.116.002L22.481 36.9c-.017-.004-.25-.855-.269-.857"/><defs><radialGradient id="a" cx="0" cy="0" r="1" gradientTransform="matrix(0 63.0922 -72.8423 0 -1.99 31.519)" gradientUnits="userSpaceOnUse"><stop stop-color="#20C6B7"/><stop offset="1" stop-color="#4D9ABF"/></radialGradient></defs></svg>