<svg xmlns="http://www.w3.org/2000/svg" width="53" height="32" fill="none"><path fill="#000" d="M12.287 8.406h9.822v.79h-8.921v5.937h8.39v.789h-8.39v6.518h9.024v.79h-9.925zm10.702 0h1.044l4.624 6.519 4.727-6.519 6.43-8.28L29.25 15.61l5.443 7.62h-1.085l-4.952-6.935-4.972 6.934H22.62l5.484-7.619zm12.094.79v-.79h11.192v.79H41.12v14.033h-.9V9.195zM0 8.405h1.126l15.518 23.468-6.413-8.645L.941 9.527.901 23.23H0zm46.185 13.796a.32.32 0 0 1-.322-.33.32.32 0 0 1 .322-.33c.186 0 .322.144.322.33s-.136.33-.322.33m.884-.868h.482c.007.263.198.44.478.44.313 0 .49-.19.49-.547v-2.26h.49v2.262c0 .643-.367 1.013-.976 1.013-.571 0-.963-.359-.963-.908m2.582-.029h.486c.042.303.335.496.758.496.394 0 .683-.206.683-.49 0-.243-.184-.39-.602-.49l-.407-.099c-.572-.135-.833-.414-.833-.884 0-.57.46-.948 1.15-.948.642 0 1.11.378 1.139.917h-.477c-.046-.295-.3-.479-.668-.479-.388 0-.646.189-.646.477 0 .228.166.359.578.456l.348.087c.648.152.915.419.915.9 0 .61-.469.994-1.217.994-.7 0-1.172-.366-1.207-.937"/></svg>