<svg xmlns="http://www.w3.org/2000/svg" width="240" height="147" fill="none"><path fill="#679E63" d="M118.231 146.468a4.53 4.53 0 0 1-2.266-.605l-7.212-4.266c-1.081-.6-.54-.816-.194-.941a14.2 14.2 0 0 0 3.244-1.481.54.54 0 0 1 .54.043l5.536 3.287a.7.7 0 0 0 .671 0l21.598-12.467a.68.68 0 0 0 .33-.584v-24.923a.69.69 0 0 0-.336-.594l-21.587-12.435a.67.67 0 0 0-.665 0l-21.587 12.435a.7.7 0 0 0-.341.594v24.923a.66.66 0 0 0 .34.579l5.915 3.417c3.212 1.622 5.179-.287 5.179-2.163v-24.631a.63.63 0 0 1 .184-.442.63.63 0 0 1 .444-.18h2.735a.64.64 0 0 1 .443.18.62.62 0 0 1 .184.442v24.61c0 4.287-2.33 6.741-6.395 6.741-1.249 0-2.228 0-4.974-1.351l-5.666-3.244a4.58 4.58 0 0 1-2.265-3.941v-24.923a4.55 4.55 0 0 1 2.265-3.936l21.587-12.5a4.74 4.74 0 0 1 4.542 0l21.598 12.484a4.56 4.56 0 0 1 2.265 3.935v24.923a4.58 4.58 0 0 1-2.265 3.942l-21.598 12.467a4.55 4.55 0 0 1-2.249.605"/><path fill="#679E63" d="M124.875 129.298c-9.45 0-11.429-4.325-11.429-7.975a.62.62 0 0 1 .383-.576.6.6 0 0 1 .239-.045h2.795a.62.62 0 0 1 .622.54c.422 2.844 1.676 4.282 7.39 4.282 4.552 0 6.488-1.033 6.488-3.444 0-1.395-.541-2.427-7.618-3.119-5.909-.584-9.563-1.892-9.563-6.618 0-4.357 3.67-6.958 9.828-6.958 6.92 0 10.343 2.401 10.775 7.569a.6.6 0 0 1-.162.476.63.63 0 0 1-.46.2h-2.8a.62.62 0 0 1-.606-.486c-.675-2.99-2.308-3.947-6.747-3.947-4.968 0-5.547 1.73-5.547 3.027 0 1.568.682 2.028 7.391 2.914s9.791 2.12 9.791 6.785c0 4.666-3.898 7.375-10.77 7.375m31.146-26.14a4.16 4.16 0 0 1-4.975 4.083 4.17 4.17 0 0 1-2.132-1.139 4.17 4.17 0 0 1-.902-4.537 4.16 4.16 0 0 1 3.846-2.57 4.17 4.17 0 0 1 4.163 4.163m-7.656 0a3.49 3.49 0 0 0 2.151 3.235 3.5 3.5 0 0 0 2.021.202 3.5 3.5 0 0 0 2.747-2.748 3.493 3.493 0 1 0-6.919-.7zm1.931-2.325h1.621c.541 0 1.622 0 1.622 1.233a1.08 1.08 0 0 1-.881 1.146c.638.043.681.465.768 1.081.024.42.106.835.243 1.233h-.989c0-.222-.179-1.411-.179-1.476-.065-.265-.156-.395-.486-.395h-.806v1.871h-.903zm.881 2.049h.724a.63.63 0 0 0 .665-.389.6.6 0 0 0 .043-.27c0-.638-.443-.638-.686-.638h-.746z"/><path fill="#333" fill-rule="evenodd" d="M51.322 48.954a2.76 2.76 0 0 0-1.384-2.406L27.042 33.373a2.76 2.76 0 0 0-1.26-.367h-.237a2.8 2.8 0 0 0-1.265.367L1.384 46.548A2.78 2.78 0 0 0 0 48.954l.049 35.482a1.36 1.36 0 0 0 .692 1.195 1.33 1.33 0 0 0 1.373 0l13.608-7.79a2.8 2.8 0 0 0 1.384-2.401V58.859a2.76 2.76 0 0 1 1.378-2.39l5.796-3.341c.422-.243.902-.37 1.39-.368.482-.002.956.125 1.372.368l5.796 3.341a2.76 2.76 0 0 1 1.379 2.39v16.58a2.8 2.8 0 0 0 1.389 2.401l13.602 7.79a1.35 1.35 0 0 0 1.384 0 1.39 1.39 0 0 0 .687-1.194zM161.481.173a1.383 1.383 0 0 0-2.054 1.206v35.14a.99.99 0 0 1-.487.844.97.97 0 0 1-.968 0l-5.714-3.314a2.76 2.76 0 0 0-2.763 0l-22.906 13.218a2.75 2.75 0 0 0-1.384 2.395V76.11a2.76 2.76 0 0 0 1.384 2.395l22.906 13.23a2.77 2.77 0 0 0 2.763 0l22.912-13.23a2.78 2.78 0 0 0 1.384-2.395V10.196a2.77 2.77 0 0 0-1.422-2.416zm-2.125 67.255a.69.69 0 0 1-.346.6l-7.866 4.536a.71.71 0 0 1-.692 0l-7.861-4.536a.69.69 0 0 1-.346-.6v-9.083a.7.7 0 0 1 .341-.595l7.866-4.546a.69.69 0 0 1 .692 0l7.866 4.546a.69.69 0 0 1 .346.595zm78.425-9.321a2.76 2.76 0 0 0 1.378-2.39v-6.406a2.77 2.77 0 0 0-1.378-2.395l-22.777-13.213a2.78 2.78 0 0 0-2.774 0l-22.896 13.224a2.75 2.75 0 0 0-1.384 2.395v26.437a2.77 2.77 0 0 0 1.395 2.4l22.761 12.975a2.77 2.77 0 0 0 2.703 0l13.765-7.65a1.39 1.39 0 0 0 .704-1.205 1.38 1.38 0 0 0-.704-1.206L205.532 67.85a1.4 1.4 0 0 1-.698-1.2v-8.272a1.38 1.38 0 0 1 .692-1.195l7.175-4.135a1.37 1.37 0 0 1 1.378 0l7.18 4.136a1.38 1.38 0 0 1 .692 1.194v6.488a1.37 1.37 0 0 0 .691 1.2 1.38 1.38 0 0 0 1.385-.005z" clip-rule="evenodd"/><path fill="#679E63" fill-rule="evenodd" d="M213.296 56.87a.54.54 0 0 1 .54 0l4.412 2.535a.54.54 0 0 1 .27.465v5.071a.54.54 0 0 1-.27.46l-4.396 2.54a.54.54 0 0 1-.54 0l-4.39-2.54a.55.55 0 0 1-.265-.46V59.87a.54.54 0 0 1 .265-.465z" clip-rule="evenodd"/><path fill="url(#a)" fill-rule="evenodd" d="M89.642 33.838a2.75 2.75 0 0 0-2.752 0L64.114 46.981a2.75 2.75 0 0 0-1.38 2.384v26.313a2.75 2.75 0 0 0 1.38 2.379l22.76 13.159a2.75 2.75 0 0 0 2.752 0l22.777-13.16a2.75 2.75 0 0 0 1.373-2.378V49.365a2.75 2.75 0 0 0-1.379-2.384z" clip-rule="evenodd"/><path fill="url(#b)" d="M112.462 46.981 89.62 33.838a2.7 2.7 0 0 0-.719-.286L63.254 77.424c.221.25.48.463.767.633l22.885 13.159a2.8 2.8 0 0 0 2.125.265l24.042-44.03a3.2 3.2 0 0 0-.611-.47"/><path fill="url(#c)" d="m86.133 29.005-.313.178h.416z"/><path fill="url(#d)" d="M112.473 78.056a2.9 2.9 0 0 0 1.346-1.751L88.777 33.508a2.8 2.8 0 0 0-1.936.308L64.135 46.884l24.507 44.65a2.8 2.8 0 0 0 1.005-.34z"/><path fill="url(#e)" d="m114.598 77.635-.152-.254v.34z"/><path fill="url(#f)" d="m112.473 78.056-22.804 13.16c-.31.176-.652.291-1.006.34l.455.827 25.328-14.662v-.346l-.627-1.081a2.88 2.88 0 0 1-1.346 1.762"/><path fill="url(#g)" d="m112.473 78.056-22.804 13.16c-.31.176-.652.291-1.006.34l.455.827 25.328-14.662v-.346l-.627-1.081a2.88 2.88 0 0 1-1.346 1.762"/><defs><linearGradient id="a" x1="97.525" x2="76.948" y1="43.624" y2="85.609" gradientUnits="userSpaceOnUse"><stop stop-color="#3F873F"/><stop offset=".33" stop-color="#3F8B3D"/><stop offset=".64" stop-color="#3E9637"/><stop offset=".93" stop-color="#3DA92E"/><stop offset="1" stop-color="#3DAE2B"/></linearGradient><linearGradient id="b" x1="84.798" x2="142.537" y1="65.595" y2="22.934" gradientUnits="userSpaceOnUse"><stop offset=".14" stop-color="#3F873F"/><stop offset=".4" stop-color="#529F44"/><stop offset=".71" stop-color="#63B649"/><stop offset=".91" stop-color="#6ABF4B"/></linearGradient><linearGradient id="c" x1="61.935" x2="114.597" y1="29.097" y2="29.097" gradientUnits="userSpaceOnUse"><stop offset=".09" stop-color="#6ABF4B"/><stop offset=".29" stop-color="#63B649"/><stop offset=".6" stop-color="#529F44"/><stop offset=".86" stop-color="#3F873F"/></linearGradient><linearGradient id="d" x1="9646.21" x2="14486.4" y1="16276.2" y2="16276.2" gradientUnits="userSpaceOnUse"><stop offset=".09" stop-color="#6ABF4B"/><stop offset=".29" stop-color="#63B649"/><stop offset=".6" stop-color="#529F44"/><stop offset=".86" stop-color="#3F873F"/></linearGradient><linearGradient id="e" x1="131.788" x2="146.534" y1="126.239" y2="126.239" gradientUnits="userSpaceOnUse"><stop offset=".09" stop-color="#6ABF4B"/><stop offset=".29" stop-color="#63B649"/><stop offset=".6" stop-color="#529F44"/><stop offset=".86" stop-color="#3F873F"/></linearGradient><linearGradient id="f" x1="5061.13" x2="7572.88" y1="5225.32" y2="5225.32" gradientUnits="userSpaceOnUse"><stop offset=".09" stop-color="#6ABF4B"/><stop offset=".29" stop-color="#63B649"/><stop offset=".6" stop-color="#529F44"/><stop offset=".86" stop-color="#3F873F"/></linearGradient><linearGradient id="g" x1="7938.74" x2="7254.61" y1="3976.48" y2="6213.09" gradientUnits="userSpaceOnUse"><stop stop-color="#3F873F"/><stop offset=".33" stop-color="#3F8B3D"/><stop offset=".64" stop-color="#3E9637"/><stop offset=".93" stop-color="#3DA92E"/><stop offset="1" stop-color="#3DAE2B"/></linearGradient></defs></svg>