<svg xmlns="http://www.w3.org/2000/svg" fill="none" viewBox="0 0 24 24" id="Nuxt-Icon--Streamline-Svg-Logos" height="24" width="24">
  <desc>
    Nuxt Icon Streamline Icon: https://streamlinehq.com
  </desc>
  <path fill="#00dc82" d="M13.4337 19.66635h8.735925c0.2775 0 0.550075 -0.070775 0.79035 -0.205375 0.2403 -0.1346 0.439825 -0.32815 0.5785 -0.561275 0.13865 -0.2331 0.211525 -0.497525 0.211525 -0.766675s-0.0733 -0.5335 -0.212225 -0.766525L17.671 7.50975c-0.138675 -0.23305 -0.338175 -0.4266 -0.578425 -0.56115 -0.24025 -0.134575 -0.512775 -0.2054 -0.790175 -0.2054 -0.277425 0 -0.549975 0.070825 -0.7902 0.2054 -0.24025 0.13455 -0.439725 0.3281 -0.5784 0.56115l-1.5001 2.522 -2.933 -4.931675c-0.13875 -0.23305 -0.338325 -0.42655 -0.578625 -0.5611 -0.240325 -0.134525 -0.512925 -0.20535 -0.79035 -0.20535 -0.27745 0 -0.550025 0.070825 -0.790375 0.20535 -0.2403 0.13455 -0.43985 0.32805 -0.578625 0.5611L0.4621925 17.3665C0.323305 17.599525 0.25 17.863875 0.25 18.133025s0.072825 0.533575 0.2115025 0.766675c0.1386775 0.233125 0.3381975 0.426675 0.578485 0.561275 0.2402925 0.1346 0.512885 0.205375 0.79036 0.205375H7.314025c2.172725 0 3.775 -0.9257 4.877525 -2.731725L14.86825 12.43815l1.4337 -2.4064L20.604825 17.26H14.86825l-1.43455 2.40635Zm-6.209075 -2.408825 -3.8269 -0.00085L9.13425 7.6196l2.86235 4.81855 -1.916475 3.220625c-0.73215 1.1718 -1.56395 1.59875 -2.8555 1.59875Z" stroke-width="0.25"></path>
</svg>