<svg xmlns="http://www.w3.org/2000/svg" viewBox="0 0 78.35 78.2"><defs><style>.cls-2{fill:#86c541}.cls-3{fill:#4b5d2c}.cls-4{fill:#5aa847}</style></defs><g id="Layer_2" data-name="Layer 2"><g id="Layer_1-2" data-name="Layer 1"><path d="M69.85 0c.29.33.72.21 1.08.29a9.67 9.67 0 1 1-5.86 18.37.93.93 0 0 0-1.21.22Q53.93 28.84 44 38.76a1 1 0 0 0-.25 1.29 9.27 9.27 0 0 1-1.99 10.15 9.16 9.16 0 0 1-9.88 2.61 9.21 9.21 0 0 1-6.74-7.76 9.67 9.67 0 0 1 13-10.49 1.21 1.21 0 0 0 1.56-.31q9.79-9.85 19.65-19.65a1.06 1.06 0 0 0 .32-1.39 9.62 9.62 0 0 1 7.5-13c.13 0 .28 0 .33-.16Z" style="fill:#444345"/><path d="M34.73 78.2a34.8 34.8 0 0 1-12.59-2.34c-.6-.23-.6-.45-.39-1q3.67-8.78 7.25-17.62c.23-.55.42-.69 1-.48a13.51 13.51 0 0 0 11.31-.89c.55-.29.73-.14 1 .31q4.94 8.2 9.9 16.38c.31.52.3.74-.26 1.06a34.85 34.85 0 0 1-17.22 4.58" class="cls-2"/><path d="M10.41 43.62H1.02c-.85 0-1-.26-1-1A34.33 34.33 0 0 1 8 21.46c.57-.69 1.2-1.32 1.78-2 .27-.31.46-.36.78 0q6.93 6.95 13.87 13.85c.4.39.18.59-.07.87a13.47 13.47 0 0 0-3.67 8.91c0 .61-.35.57-.76.57Z" class="cls-3"/><path d="M59.12 43.54h9.47c.62 0 .82.13.8.78a34.46 34.46 0 0 1-9.61 23.24c-.42.45-.65.46-1.1 0Q51.92 60.75 45.1 54c-.43-.43-.37-.66 0-1a13.36 13.36 0 0 0 3.61-8.77c0-.61.28-.66.77-.66 3.21-.02 6.43-.03 9.64-.03M34.73 19.32v9.53c0 .58-.16.77-.74.78a13.2 13.2 0 0 0-6 1.69c-.44.24-.64.22-.9-.22q-5-8.34-10-16.66c-.22-.35-.23-.52.18-.76A34.1 34.1 0 0 1 34.05 9c.59 0 .69.19.69.71-.02 3.21-.01 6.41-.01 9.61" class="cls-4"/><path d="M59 42.21h-9.55c-.61 0-.83-.16-.87-.77a6.2 6.2 0 0 0-.36-1.71 1 1 0 0 1 .3-1.24q7.1-7 14.17-14.13c.28-.27.48-.72.91-.07a34.94 34.94 0 0 1 5.79 17c.05.69-.11.89-.83.88-3.23.02-6.41.04-9.56.04" class="cls-3"/><path d="m54.43 15.19-.52.54c-4.69 4.69-9.4 9.37-14.08 14.08a1.07 1.07 0 0 1-1.31.34 7.6 7.6 0 0 0-1.79-.37c-.5-.06-.63-.26-.63-.75V9.63c0-.44.06-.63.58-.6a34.26 34.26 0 0 1 17.64 6 .7.7 0 0 1 .11.16" style="fill:#4a5d2b"/><path d="M10.47 45h9.47c.6 0 .89.12.95.79a10.5 10.5 0 0 0 .94 3.28c.17.37.19.6-.23.85Q13.16 54.94 4.75 60c-.36.22-.49.14-.68-.21a33.9 33.9 0 0 1-3.8-12.25c-.09-.82-.55-1.87 0-2.41S1.78 45 2.59 45z" class="cls-2"/><path d="M20.14 75c-.2-.09-.36-.14-.51-.22a36 36 0 0 1-8-5.36c-.35-.31-.35-.49 0-.83q6.91-6.87 13.8-13.78c.38-.38.6-.32.95 0a5.5 5.5 0 0 0 1.18.78c.53.26.62.52.38 1.09-2.52 5.86-4.94 11.78-7.39 17.68-.1.24-.12.55-.41.64" class="cls-3"/><path d="M24.73 53.45c0 .29-.28.42-.45.59Q18.37 60 12.44 65.87c-.61.61-1.24 1.21-1.83 1.84-.29.3-.47.33-.79 0a38 38 0 0 1-4.53-5.77c-.27-.42-.17-.6.22-.83q8.36-5 16.69-10c.35-.21.54-.23.79.15.46.67 1 1.28 1.48 1.92.08.07.18.17.26.27" class="cls-4"/><path d="M58.17 69c0 .25-.21.35-.34.47q-1.65 1.42-3.42 2.69c-.51.36-.71.33-1-.23-3.08-5.17-6.2-10.31-9.31-15.46-.2-.33-.43-.65-.6-1s-.55-.51-.09-.84.54.12.72.3l3 3 10.54 10.5Z" class="cls-3"/><path d="M26.3 32.33c-.19.22-.32.5-.66.25a3.3 3.3 0 0 1-.42-.41q-6.72-6.71-13.46-13.41c-.51-.5-.5-.75.05-1.19 1.08-.87 2.17-1.75 3.3-2.56.42-.29.61-.28.89.18q5 8.34 10.05 16.68c.09.13.16.29.25.46" style="fill:#88c543"/></g></g></svg>