<svg xmlns="http://www.w3.org/2000/svg" width="31" height="32" fill="none"><path fill="#231F20" d="M30.873 19.169c-.186-.565-.673-.959-1.303-1.053-.298-.045-.638-.026-1.04.058-.703.145-1.224.2-1.604.21 1.435-2.428 2.602-5.198 3.273-7.805 1.086-4.216.506-6.137-.172-7.006C28.232 1.274 25.614.04 22.454.001a13.4 13.4 0 0 0-3.936.553 14.6 14.6 0 0 0-2.302-.211c-1.519-.025-2.862.307-4.009.99A18 18 0 0 0 9.375.62c-2.768-.455-5-.1-6.632 1.056C.767 3.076-.15 5.508.02 8.905c.054 1.078.655 4.36 1.603 7.472.544 1.789 1.125 3.274 1.725 4.415.852 1.618 1.763 2.571 2.787 2.914.573.191 1.615.325 2.71-.59.14.169.325.337.571.492a3.8 3.8 0 0 0 1.076.455c1.374.344 2.662.258 3.76-.225l.017.545c.007.262.014.519.024.76.065 1.625.175 2.889.502 3.773.018.049.042.123.068.201.163.5.435 1.339 1.129 1.995.718.68 1.587.888 2.382.888.4 0 .78-.052 1.114-.124 1.19-.256 2.542-.646 3.52-2.042.925-1.32 1.374-3.308 1.455-6.44l.03-.254.02-.165.217.019.056.004c1.213.055 2.695-.203 3.605-.627.72-.334 3.025-1.555 2.482-3.202"/><path fill="#417BA2" d="M28.8 19.489c-3.605.745-3.852-.478-3.852-.478 3.806-5.663 5.397-12.85 4.024-14.61-3.746-4.799-10.23-2.53-10.338-2.47l-.035.006a13 13 0 0 0-2.405-.251c-1.631-.027-2.869.428-3.807 1.142 0 0-11.567-4.778-11.03 6.01.115 2.294 3.28 17.364 7.057 12.812 1.38-1.665 2.714-3.072 2.714-3.072a3.5 3.5 0 0 0 2.287.586l.064-.055c-.02.206-.01.408.026.648-.973 1.09-.687 1.28-2.632 1.682-1.967.407-.811 1.13-.057 1.32.915.23 3.032.555 4.462-1.453l-.057.229c.381.306.65 1.991.604 3.519-.045 1.527-.074 2.576.226 3.395.3.82.6 2.662 3.156 2.113 2.136-.46 3.243-1.649 3.397-3.633.11-1.41.357-1.202.372-2.463l.199-.597c.228-1.912.036-2.529 1.352-2.242l.32.028c.968.044 2.236-.156 2.98-.503 1.602-.745 2.553-1.99.973-1.663"/><path fill="#fff" d="M13.065 9.864c-.325-.046-.62-.004-.768.11a.28.28 0 0 0-.117.187c-.018.135.075.283.133.36.163.216.401.365.637.398a1 1 0 0 0 .102.007c.394 0 .751-.307.783-.534.04-.284-.372-.473-.77-.528m10.759.009c-.03-.222-.426-.286-.8-.233s-.738.221-.707.444c.024.174.336.47.706.47a1 1 0 0 0 .095-.007.9.9 0 0 0 .513-.282c.131-.138.207-.292.193-.392"/><path fill="#fff" d="M30 19.404c-.137-.417-.58-.551-1.315-.399-2.182.452-2.964.139-3.22-.05 1.696-2.592 3.092-5.724 3.844-8.646.357-1.385.554-2.67.57-3.718.018-1.15-.178-1.995-.58-2.512C27.674 2 25.29.882 22.404.851c-1.984-.022-3.66.487-3.985.63a10 10 0 0 0-2.243-.289c-1.49-.024-2.777.334-3.843 1.062a17 17 0 0 0-3.123-.82c-2.53-.41-4.54-.1-5.975.92C1.523 3.57.733 5.744.886 8.814c.052 1.034.639 4.212 1.565 7.256 1.22 4.006 2.546 6.274 3.94 6.74.164.055.352.093.56.093.509 0 1.133-.23 1.782-1.012a64 64 0 0 1 2.455-2.786c.549.295 1.151.46 1.767.476l.005.048q-.184.22-.312.386c-.427.544-.516.657-1.89.94-.39.081-1.429.296-1.444 1.026-.017.797 1.227 1.132 1.369 1.167q.742.185 1.423.185c1.103 0 2.074-.363 2.85-1.067-.024 2.842.095 5.643.435 6.496.279.699.96 2.406 3.11 2.406.316 0 .664-.037 1.046-.119 2.245-.483 3.22-1.477 3.597-3.67.202-1.173.548-3.972.71-5.474.345.108.787.157 1.265.157.998 0 2.15-.212 2.872-.549.81-.377 2.275-1.304 2.01-2.11M24.654 9.258c-.007.443-.068.846-.133 1.266-.07.451-.14.918-.159 1.485-.018.552.051 1.126.118 1.68.134 1.121.272 2.275-.262 3.413a4 4 0 0 1-.236-.487 10 10 0 0 0-.41-.779c-.775-1.394-2.592-4.66-1.662-5.993.277-.397.98-.805 2.744-.585m-2.139-7.51c2.586.058 4.632 1.028 6.08 2.883 1.11 1.424-.112 7.9-3.653 13.487l-.108-.136-.044-.056c.915-1.515.736-3.014.576-4.343-.065-.546-.127-1.06-.111-1.545.016-.513.084-.953.15-1.378.08-.524.161-1.067.139-1.706a.7.7 0 0 0 .015-.24c-.058-.614-.756-2.449-2.18-4.11-.777-.908-1.913-1.925-3.463-2.61a11.7 11.7 0 0 1 2.6-.245m-14.47 19.57c-.714.862-1.208.697-1.37.643-1.059-.354-2.287-2.597-3.37-6.153-.936-3.077-1.483-6.17-1.527-7.039-.136-2.743.527-4.656 1.972-5.684 2.352-1.672 6.219-.671 7.773-.163l-.068.065c-2.55 2.582-2.49 6.993-2.483 7.263 0 .104.009.251.02.454.044.742.126 2.122-.092 3.686-.203 1.454.244 2.876 1.226 3.903q.152.159.317.3a66 66 0 0 0-2.397 2.725m2.725-3.645c-.79-.828-1.15-1.979-.985-3.159.23-1.652.145-3.09.1-3.863q-.011-.164-.016-.278c.372-.331 2.098-1.259 3.33-.976.561.13.903.513 1.046 1.173.736 3.415.097 4.839-.416 5.982a11 11 0 0 0-.291.69l-.067.178c-.167.45-.323.869-.42 1.266-.84-.002-1.659-.362-2.28-1.013m.13 4.606a2 2 0 0 1-.597-.257c.109-.05.301-.12.635-.19 1.617-.333 1.867-.569 2.412-1.263.125-.159.267-.34.463-.559.292-.328.426-.273.668-.172.197.082.388.329.466.6.037.129.078.372-.057.562-1.14 1.599-2.799 1.578-3.99 1.28m8.46 7.894c-1.978.425-2.678-.587-3.14-1.743-.297-.747-.444-4.114-.34-7.833a.4.4 0 0 0-.02-.142 2 2 0 0 0-.054-.263c-.155-.541-.531-.994-.983-1.181-.179-.075-.508-.212-.904-.11.084-.349.23-.742.39-1.168l.066-.18c.075-.202.169-.411.268-.633.538-1.197 1.273-2.836.475-6.54-.3-1.387-1.298-2.064-2.813-1.907-.908.094-1.738.462-2.152.672a7 7 0 0 0-.247.132c.115-1.398.552-4.01 2.186-5.663 1.03-1.04 2.4-1.554 4.07-1.526 3.289.054 5.398 1.747 6.589 3.157 1.026 1.216 1.581 2.44 1.803 3.1-1.667-.17-2.801.16-3.376.985-1.25 1.792.684 5.27 1.614 6.943.17.306.318.57.364.683.303.736.695 1.227.98 1.586.089.11.174.216.239.31-.506.145-1.413.483-1.33 2.168-.067.846-.54 4.807-.781 6.206-.318 1.849-.997 2.537-2.904 2.947m8.255-9.472c-.517.24-1.38.42-2.202.46-.906.042-1.368-.102-1.476-.191-.052-1.05.339-1.16.751-1.277q.097-.026.19-.057.056.046.125.092c.728.482 2.028.534 3.863.154l.02-.004c-.247.232-.67.544-1.271.823"/></svg>