<svg xmlns="http://www.w3.org/2000/svg" width="53" height="64" fill="none"><path fill="#EDF2F7" fill-rule="evenodd" d="M52.65 48.76 30.642 2.018a3.53 3.53 0 0 0-3.009-2.01 3.49 3.49 0 0 0-3.216 1.667L.545 40.339a3.62 3.62 0 0 0 .04 3.881l11.672 18.074a3.75 3.75 0 0 0 4.215 1.55l33.87-10.018a3.7 3.7 0 0 0 2.331-2.013 3.63 3.63 0 0 0-.02-3.056zm-4.927 2.004-28.74 8.498c-.877.261-1.719-.499-1.536-1.384L27.715 8.713c.192-.92 1.462-1.066 1.864-.215l19.008 40.365a1.37 1.37 0 0 1-.865 1.9z" clip-rule="evenodd"/></svg>