<svg xmlns="http://www.w3.org/2000/svg" width="42" height="51" fill="none"><g clip-path="url(#a)"><path fill="url(#b)" d="M20.828.5a28.6 28.6 0 0 0-4.773.406c-4.226.745-4.993 2.302-4.993 5.175v3.794h9.987v1.265H7.313c-2.902 0-5.444 1.739-6.239 5.047-.917 3.792-.957 6.158 0 10.118.71 2.947 2.406 5.047 5.308 5.047h3.434v-4.549c0-3.285 2.852-6.184 6.24-6.184h9.975c2.777 0 4.994-2.279 4.994-5.058V6.08c0-2.698-2.284-4.724-4.994-5.175A31 31 0 0 0 20.828.5m-5.401 3.052c1.031 0 1.874.853 1.874 1.903a1.884 1.884 0 0 1-1.874 1.89 1.88 1.88 0 0 1-1.874-1.89c0-1.05.838-1.903 1.874-1.903"/><path fill="url(#c)" d="M32.27 11.14v4.42c0 3.428-2.915 6.312-6.24 6.312h-9.975c-2.732 0-4.993 2.331-4.993 5.06v9.478c0 2.698 2.353 4.285 4.993 5.06 3.162.926 6.193 1.093 9.976 0 2.514-.727 4.994-2.187 4.994-5.06v-3.794h-9.976v-1.264h14.969c2.903 0 3.984-2.018 4.994-5.047 1.043-3.119.998-6.118 0-10.118-.718-2.88-2.087-5.047-4.994-5.047zm-5.61 24.006c1.035 0 1.874.845 1.874 1.89 0 1.05-.84 1.904-1.874 1.904-1.032 0-1.875-.854-1.875-1.903 0-1.046.843-1.891 1.875-1.891"/><path fill="url(#d)" d="M21.162 50.5c7.392 0 13.384-1.158 13.384-2.587 0-1.428-5.992-2.587-13.384-2.587-7.391 0-13.384 1.158-13.384 2.587S13.771 50.5 21.162 50.5" opacity=".444"/></g><defs><linearGradient id="b" x1=".371" x2="23.338" y1=".5" y2="20.134" gradientUnits="userSpaceOnUse"><stop stop-color="#718096"/><stop offset="1" stop-color="#4A5568"/></linearGradient><linearGradient id="c" x1="26.419" x2="18.193" y1="36.718" y2="25.152" gradientUnits="userSpaceOnUse"><stop stop-color="#718096"/><stop offset="1" stop-color="#CBD5E0"/></linearGradient><radialGradient id="d" cx="0" cy="0" r="1" gradientTransform="matrix(0 -2.58685 11.4072 0 21.162 47.913)" gradientUnits="userSpaceOnUse"><stop stop-color="#B8B8B8" stop-opacity=".498"/><stop offset="1" stop-color="#7F7F7F" stop-opacity="0"/></radialGradient><clipPath id="a"><path fill="#fff" d="M.371.5h41.406v50H.371z"/></clipPath></defs></svg>