<svg xmlns="http://www.w3.org/2000/svg" width="190" height="190" fill="none"><path fill="#002C4B" d="M150.276 61.344c3.093-14.981 3.756-26.471 1.757-34.815-1.189-4.962-3.362-9.01-6.668-11.93-3.489-3.084-7.901-4.597-12.858-4.597-8.178 0-16.775 3.725-25.963 10.802-3.747 2.887-7.636 6.366-11.676 10.44a8.7 8.7 0 0 0-1.09-1.163C82.36 19.915 72.746 13.599 64.523 11.164c-4.89-1.448-9.48-1.586-13.66-.181-4.414 1.483-7.93 4.55-10.41 8.845-4.094 7.089-5.174 16.403-3.648 27.904.622 4.688 1.686 9.794 3.189 15.327a8.7 8.7 0 0 0-1.698.38c-14.489 4.797-24.749 9.955-30.96 15.85-3.696 3.506-6.109 7.41-6.981 11.733-.921 4.562-.023 9.137 2.454 13.429 4.087 7.079 11.6 12.661 22.304 17.083q6.445 2.663 14.595 4.83a8.7 8.7 0 0 0-.57 1.776c-3.092 14.981-3.756 26.471-1.757 34.814 1.19 4.962 3.363 9.01 6.668 11.931 3.49 3.083 7.902 4.596 12.86 4.596 8.177 0 16.774-3.725 25.962-10.802q5.679-4.375 11.805-10.57a8.7 8.7 0 0 0 1.546 1.81c11.42 10.166 21.034 16.482 29.257 18.917 4.89 1.448 9.481 1.586 13.661.181 4.413-1.483 7.929-4.55 10.409-8.845 4.094-7.089 5.174-16.403 3.648-27.904q-.968-7.283-3.354-15.929a8.7 8.7 0 0 0 1.863-.398c14.489-4.797 24.749-9.955 30.96-15.849 3.696-3.507 6.109-7.412 6.981-11.734.921-4.562.023-9.137-2.454-13.43-4.087-7.078-11.6-12.66-22.304-17.082q-6.639-2.741-15.082-4.959a8.7 8.7 0 0 0 .47-1.543"/><path fill="#FFD94C" fill-rule="evenodd" d="M80.397 64h29.211a5 5 0 0 1 4.337 2.511l14.632 25.5a5 5 0 0 1 0 4.978l-14.632 25.499a5 5 0 0 1-4.337 2.512H80.397a5 5 0 0 1-4.337-2.512l-14.632-25.5a5 5 0 0 1 0-4.977l14.632-25.5A5 5 0 0 1 80.397 64m25.591 6.276a5 5 0 0 1 4.338 2.514l11.017 19.224a5 5 0 0 1 0 4.972l-11.017 19.224a5 5 0 0 1-4.338 2.513h-21.97a5 5 0 0 1-4.339-2.513L68.662 96.986a5 5 0 0 1 0-4.972L79.679 72.79a5 5 0 0 1 4.338-2.514zm-3.907 6.865H87.924a5 5 0 0 0-4.335 2.51l-7.1 12.358a5 5 0 0 0 0 4.982l7.1 12.358a5 5 0 0 0 4.335 2.51h14.157a5 5 0 0 0 4.335-2.51l7.1-12.358a5 5 0 0 0 0-4.982l-7.1-12.358a5 5 0 0 0-4.335-2.51m-3.762 6.571a5 5 0 0 1 4.334 2.506l3.331 5.788a5 5 0 0 1 0 4.988l-3.331 5.788a5 5 0 0 1-4.334 2.506h-6.633a5 5 0 0 1-4.334-2.506l-3.33-5.788a5 5 0 0 1 0-4.988l3.33-5.788a5 5 0 0 1 4.334-2.506zm-3.315 6.473a4.313 4.313 0 1 0-.002 8.63 4.313 4.313 0 1 0 .002-8.63M60 94.5h7.768Z" clip-rule="evenodd"/><path fill="#FF4154" fill-rule="evenodd" d="M54.86 108.358a2.713 2.713 0 0 1 3.718 1.041l.475.845a270 270 0 0 0 11.888 19.191q7.3 10.725 16.421 21.716a2.776 2.776 0 0 1-.296 3.847l-.612.537q-30.16 26.353-39.206 10.527-8.847-15.479 6.403-56.279a2.75 2.75 0 0 1 1.21-1.425m85.674 20.684a2.707 2.707 0 0 1 3.126 2.152l.153.792Q151.266 171 133.316 171q-17.559 0-44.703-33.273a2.73 2.73 0 0 1-.613-1.745 2.713 2.713 0 0 1 2.73-2.694l.955.007q11.43.062 22.226-.794 12.748-1.01 26.623-3.459m6.875-55.23c.523-1.41 2.099-2.148 3.546-1.663l.788.266q38.761 13.204 29.455 29.022-9.102 15.471-52.936 22.527a2.86 2.86 0 0 1-1.879-.345 2.726 2.726 0 0 1-.994-3.772l.5-.837q5.982-10.041 10.813-19.986 5.704-11.744 10.707-25.212m-85.67-7.776a2.85 2.85 0 0 1 1.878.345 2.726 2.726 0 0 1 .994 3.772l-.5.837q-5.982 10.04-10.813 19.986-5.705 11.744-10.707 25.212c-.523 1.409-2.1 2.149-3.546 1.663l-.788-.266Q-.504 104.381 8.802 88.563q9.103-15.471 52.936-22.527m41.807-31.57q30.16-26.355 39.206-10.528 8.847 15.48-6.403 56.28a2.75 2.75 0 0 1-1.209 1.424 2.714 2.714 0 0 1-3.718-1.041l-.475-.844a269 269 0 0 0-11.888-19.192q-7.3-10.726-16.421-21.716a2.775 2.775 0 0 1 .296-3.847zM57.684 18q17.559 0 44.703 33.273c.402.492.618 1.11.613 1.745a2.71 2.71 0 0 1-2.731 2.694l-.954-.007q-11.431-.062-22.226.794-12.747 1.01-26.623 3.46a2.71 2.71 0 0 1-3.126-2.153l-.153-.792Q39.733 18 57.684 18" clip-rule="evenodd"/></svg>