<svg xmlns="http://www.w3.org/2000/svg" width="323" height="108" fill="none"><path fill="#636466" d="M176.315 34.638c0 2.5-2.053 4.73-4.73 4.73-2.053 0-3.838.536-5.355 1.696-1.695 1.072-3.034 2.588-4.105 4.283-2.142 2.857-3.212 6.247-3.658 7.496v16.956c0 2.588-2.231 4.73-4.908 4.73-2.588 0-4.73-2.142-4.73-4.73V34.64c0-2.59 2.142-4.642 4.73-4.642 2.677 0 4.908 2.053 4.908 4.641v.625c.535-.625 1.249-1.338 1.874-1.785 2.945-1.963 6.782-3.57 11.244-3.48 2.677 0 4.73 2.052 4.73 4.64m-2.617 17.581c.09-12.137 9.549-22.31 21.774-22.31 11.602 0 20.793 8.656 21.508 20.703v.446c0 .179 0 .624-.089.803-.269 2.142-2.142 3.57-4.641 3.57h-28.379c.447 2.053 1.428 4.373 3.035 5.89 1.874 2.142 5.444 3.747 8.566 4.015 3.213.267 7.05-.535 9.282-2.23 1.873-1.965 5.532-1.696 6.693-.27 1.16 1.251 2.052 3.929 0 5.802-4.374 4.015-9.639 5.89-15.975 5.89-12.225-.088-21.684-10.173-21.774-22.31m9.727-4.373h25.255c-.892-3.57-5.444-8.834-13.208-9.46-7.584.357-11.333 5.801-12.047 9.46m79.018 21.866c0 2.588-2.142 4.82-4.819 4.82-2.41 0-4.283-1.696-4.73-3.838-3.391 2.32-7.674 3.837-12.137 3.837-12.047 0-21.685-10.173-21.685-22.22 0-12.227 9.638-22.4 21.685-22.4 4.374 0 8.657 1.427 11.958 3.747V16.881c0-2.588 2.142-4.82 4.908-4.82 2.677 0 4.82 2.232 4.82 4.82zm-21.685-30.074c-3.213 0-6.158 1.338-8.388 3.658-2.231 2.232-3.57 5.443-3.57 9.014 0 3.39 1.338 6.603 3.57 8.834 2.23 2.321 5.175 3.66 8.388 3.66 3.302 0 6.158-1.339 8.388-3.66 2.231-2.23 3.57-5.444 3.57-8.834 0-3.57-1.338-6.782-3.57-9.014-2.23-2.32-5.086-3.658-8.388-3.658m38.666-20.882c0 2.677-2.052 4.908-4.819 4.908-2.678 0-4.819-2.23-4.819-4.908v-1.874a4.8 4.8 0 0 1 4.819-4.82c2.767 0 4.819 2.142 4.819 4.82zm0 16.152v34.804c0 2.678-2.052 4.82-4.819 4.82a4.8 4.8 0 0 1-4.819-4.82V34.907c0-2.855 2.141-4.908 4.819-4.908 2.768 0 4.819 2.053 4.819 4.908m6.133 26.857c1.606-2.141 4.731-2.41 6.693-.714 2.32 1.964 6.337 4.015 9.817 3.927 2.409 0 4.64-.803 6.068-1.696 1.25-1.07 1.606-1.962 1.606-2.677 0-.446-.089-.624-.267-.893-.09-.267-.446-.624-1.161-1.07-1.249-.892-3.927-1.874-7.139-2.499h-.089c-2.768-.535-5.445-1.249-7.764-2.32-2.41-1.16-4.552-2.766-6.158-5.176-.982-1.606-1.517-3.57-1.517-5.622 0-4.105 2.321-7.586 5.265-9.817 3.124-2.141 6.872-3.302 10.977-3.302 6.158 0 10.53 2.946 13.386 4.908 2.143 1.428 2.767 4.374 1.428 6.604-1.428 2.142-4.373 2.767-6.603 1.25-2.856-1.874-5.355-3.303-8.211-3.303-2.231 0-4.194.714-5.354 1.607-1.16.803-1.428 1.607-1.428 2.053 0 .356 0 .446.179.713.089.178.357.535.982.892 1.16.803 3.48 1.606 6.514 2.142l.089.09h.09c2.945.535 5.712 1.338 8.299 2.588 2.41 1.07 4.82 2.766 6.337 5.265 1.071 1.784 1.695 3.837 1.695 5.89 0 4.372-2.409 8.031-5.622 10.351-3.213 2.23-7.229 3.57-11.602 3.57-6.96-.089-12.315-3.301-15.884-6.157-1.964-1.606-2.231-4.641-.626-6.604"/><path fill="#A41E11" d="M116.324 81.093c-6.269 3.268-38.745 16.62-45.659 20.225s-10.755 3.57-16.217.959S14.426 85.706 8.201 82.73c-3.112-1.487-4.748-2.742-4.748-3.928V66.928s44.993-9.795 52.257-12.4c7.264-2.607 9.783-2.7 15.965-.436s43.143 8.933 49.252 11.17l-.003 11.706c.001 1.174-1.408 2.462-4.6 4.125"/><path fill="#D82C20" d="M116.325 69.215c-6.269 3.266-38.746 16.62-45.66 20.225s-10.755 3.57-16.216.96C48.986 87.79 14.426 73.826 8.2 70.851s-6.356-5.023-.24-7.418 40.485-15.88 47.75-18.486c7.263-2.605 9.783-2.7 15.965-.435 6.182 2.264 38.464 15.114 44.573 17.35 6.11 2.24 6.345 4.084.076 7.352"/><path fill="#A41E11" d="M116.324 61.73c-6.269 3.267-38.745 16.62-45.659 20.226-6.914 3.604-10.755 3.568-16.217.957-5.462-2.61-40.022-16.57-46.247-19.546-3.112-1.488-4.748-2.741-4.748-3.927V47.564s44.993-9.794 52.257-12.4 9.783-2.7 15.965-.436 43.143 8.932 49.252 11.17l-.003 11.707c.001 1.173-1.408 2.461-4.6 4.124"/><path fill="#D82C20" d="M116.325 49.852c-6.269 3.267-38.746 16.62-45.66 20.226-6.914 3.604-10.755 3.569-16.216.957C48.986 68.426 14.426 54.465 8.2 51.49s-6.356-5.023-.24-7.419c6.115-2.394 40.485-15.88 47.75-18.485 7.263-2.606 9.783-2.7 15.965-.436s38.465 15.112 44.574 17.35c6.11 2.24 6.345 4.084.076 7.352"/><path fill="#A41E11" d="M116.324 41.647c-6.269 3.268-38.745 16.622-45.659 20.227-6.914 3.604-10.755 3.57-16.217.958-5.462-2.61-40.022-16.572-46.247-19.547-3.112-1.487-4.748-2.741-4.748-3.926V27.483s44.993-9.794 52.257-12.4 9.783-2.7 15.965-.436 43.143 8.932 49.252 11.17l-.003 11.707c.001 1.172-1.408 2.46-4.6 4.123"/><path fill="#D82C20" d="M116.327 29.769c-6.269 3.268-38.746 16.621-45.66 20.226-6.914 3.604-10.755 3.569-16.216.959S14.428 34.382 8.203 31.407c-6.226-2.975-6.356-5.024-.24-7.419S48.447 8.11 55.712 5.503c7.263-2.606 9.783-2.7 15.965-.435 6.182 2.264 38.464 15.113 44.573 17.351s6.345 4.083.076 7.35"/><path fill="#fff" d="m77.584 18.333-10.18 1.057-2.278 5.483-3.68-6.119-11.754-1.056 8.77-3.163L55.83 9.68l8.21 3.212 7.742-2.535-2.092 5.02zM64.518 44.935l-18.998-7.88 27.223-4.178zM38.18 32.661c8.035 0 14.55-2.525 14.55-5.64s-6.515-5.64-14.55-5.64-14.55 2.525-14.55 5.64 6.514 5.64 14.55 5.64"/><path fill="#7A0C00" d="m89.614 19.832 16.111 6.367-16.098 6.36z"/><path fill="#AD2115" d="m71.79 26.883 17.823-7.051.014 12.727-1.747.684z"/></svg>