<svg xmlns="http://www.w3.org/2000/svg" width="36" height="38" fill="none"><path fill="#fff" fill-rule="evenodd" d="M15.923 1.343c-1.385.7-4.304 2.062-5.885 3.15-1.581 1.086-1.385 2.1-2.077 2.8S5.191 9.74 3.807 10.79c-1.385 1.05-1.039 3.85-1.385 4.9s-1.038 3.498-1.384 4.548c-.347 1.05.692 2.45 1.384 3.85.693 1.4 2.423 5.248 3.116 6.647.692 1.4 2.77.7 4.5 2.1s4.154 3.15 5.885 4.2 2.423 1.05 4.154 0 4.154-2.8 5.885-4.2 3.808-.7 4.5-2.1 2.423-5.248 3.116-6.648c.692-1.4 1.73-2.8 1.384-3.849s-1.038-3.5-1.384-4.549 0-3.849-1.385-4.899-2.992-2.386-4.154-3.499-.692-1.75-2.077-2.8-4.5-2.448-5.885-3.148q-2.078-1.05-4.154 0" clip-rule="evenodd"/><path fill="#BF4722" fill-rule="evenodd" d="m11.034 7.414 6.479 4.445a.9.9 0 0 0 .492.155.9.9 0 0 0 .492-.155l6.484-4.46a.89.89 0 0 0-.123-1.52l-6.479-3.224a.89.89 0 0 0-.778 0l-6.46 3.224a.89.89 0 0 0-.108 1.535zm9.172 5.84a.9.9 0 0 0 .384.738l5.194 3.568a.87.87 0 0 0 1.078-.07l4.357-3.917a.892.892 0 0 0-.04-1.36l-4.16-3.344a.88.88 0 0 0-1.043-.04l-5.386 3.703a.9.9 0 0 0-.384.723zM7.287 18.108a.9.9 0 0 1 .154 1.146.9.9 0 0 1-.302.285l-3.101 1.869a.875.875 0 0 1-.998-.07.9.9 0 0 1-.292-.967l1.147-3.628a.88.88 0 0 1 1.04-.6.85.85 0 0 1 .383.206zm16.823.38-5.608-3.858a.88.88 0 0 0-.984 0l-5.608 3.857a.9.9 0 0 0-.384.678.92.92 0 0 0 .295.728l5.603 5.038a.875.875 0 0 0 1.172 0l5.602-5.04a.9.9 0 0 0 .29-.726.89.89 0 0 0-.378-.678M9.153 17.49 4.8 13.573a.91.91 0 0 1-.296-.702.88.88 0 0 1 .33-.673l4.16-3.364a.89.89 0 0 1 1.049-.04l5.381 3.703c.25.165.4.446.4.748s-.15.582-.4.747l-5.189 3.568c-.335.23-.78.2-1.083-.07zM31.5 23.117l-4.431-2.666a.87.87 0 0 0-1.034.1l-5.416 4.858a.898.898 0 0 0 .256 1.495l7.513 3.06a.88.88 0 0 0 1.132-.464l2.33-5.242a.9.9 0 0 0-.35-1.141m.615-6.374 1.147 3.628h-.01a.9.9 0 0 1-.13.797.877.877 0 0 1-1.16.24l-3.106-1.87a.87.87 0 0 1-.424-.677.89.89 0 0 1 .29-.753l1.97-1.764c.223-.2.53-.273.817-.194a.9.9 0 0 1 .606.593M15.68 26.226a.9.9 0 0 0-.28-.817l-5.415-4.86a.87.87 0 0 0-1.034-.1l-4.43 2.668a.91.91 0 0 0-.355 1.136l2.333 5.243a.877.877 0 0 0 1.133.463l7.508-3.06a.89.89 0 0 0 .541-.672zm2.659 1.495 6.026 2.452a.89.89 0 0 1 .531.728.89.89 0 0 1-.374.832l-6.03 4.21a.87.87 0 0 1-.493.16.9.9 0 0 1-.492-.16l-6.026-4.21a.89.89 0 0 1 .172-1.56l6.026-2.451a.9.9 0 0 1 .66 0z" clip-rule="evenodd"/></svg>