<svg xmlns="http://www.w3.org/2000/svg" width="11" height="13" fill="none"><path fill="#3F3F3F" fill-rule="evenodd" d="M10.184 9.527c.11 1.427.11 2.096.11 2.826H7.017c0-.159.003-.304.006-.452.009-.459.018-.937-.056-1.903C6.87 8.584 6.266 8.27 5.154 8.27H0V5.696h5.31c1.404 0 2.106-.43 2.106-1.57 0-1.001-.702-1.608-2.106-1.608H0V0h5.895c3.178 0 4.757 1.512 4.757 3.929 0 1.807-1.111 2.985-2.612 3.182 1.267.255 2.008.982 2.144 2.416" clip-rule="evenodd"/><path fill="#3F3F3F" d="M0 12.353v-1.918h3.465c.579 0 .705.433.705.69v1.228z"/></svg>