<svg xmlns="http://www.w3.org/2000/svg" width="55" height="55" fill="none"><path fill="#4A5568" d="M27.68 3.926C14.684 3.926 4.106 14.51 4.106 27.5S14.69 51.074 27.68 51.074 51.254 40.49 51.254 27.5 40.672 3.926 27.68 3.926m-.035 2.095c.403.01.786.178 1.068.468A1.554 1.554 0 0 1 27.6 9.123a1.551 1.551 0 1 1 .045-3.102m3.551 2.553a19.09 19.09 0 0 1 13.066 9.306l-1.83 4.13c-.314.712.01 1.55.718 1.87l3.52 1.56c.11 1.1.123 2.209.04 3.312h-1.96c-.194 0-.273.13-.273.319v.898c0 2.114-1.192 2.578-2.24 2.693-.997.114-2.1-.42-2.239-1.028-.588-3.306-1.566-4.01-3.112-5.231 1.92-1.217 3.915-3.017 3.915-5.421 0-2.598-1.78-4.234-2.992-5.037-1.706-1.122-3.59-1.347-4.1-1.347H13.463A19.1 19.1 0 0 1 24.14 8.575l2.39 2.504a1.406 1.406 0 0 0 1.994.045zM9.153 20.054a1.55 1.55 0 1 1-.09 3.1 1.55 1.55 0 0 1 .09-3.1m36.98.07a1.551 1.551 0 1 1-.09 3.101 1.551 1.551 0 0 1 .09-3.1m-34.057.25h2.703v12.188H9.323a19.1 19.1 0 0 1-.619-7.286l3.342-1.486a1.41 1.41 0 0 0 .718-1.866zm11.28.13h6.439c.334 0 2.349.383 2.349 1.894 0 1.252-1.546 1.7-2.818 1.7h-5.974zm0 8.756h4.933c.448 0 2.408.13 3.032 2.634.194.768.628 3.271.922 4.074.295.898 1.486 2.693 2.758 2.693h8.05q-.811 1.085-1.766 2.045l-3.277-.704a1.417 1.417 0 0 0-1.68 1.088l-.778 3.63a19.09 19.09 0 0 1-15.914-.075l-.778-3.63a1.41 1.41 0 0 0-1.675-1.087l-3.207.688a19 19 0 0 1-1.656-1.955h15.595c.174 0 .294-.03.294-.194V32.95c0-.16-.12-.195-.294-.195h-4.563zM16.16 41.893a1.55 1.55 0 1 1-.09 3.1 1.55 1.55 0 0 1 .09-3.1m22.966.07a1.551 1.551 0 1 1-.09 3.1 1.551 1.551 0 0 1 .09-3.1"/><path fill="#4A5568" fill-rule="evenodd" stroke="#4A5568" stroke-linecap="round" stroke-linejoin="round" stroke-width="3" d="M49.938 27.5a22.257 22.257 0 1 1-44.515 0 22.257 22.257 0 0 1 44.515 0m-.42-2.15 3.472 2.15-3.471 2.15 2.982 2.787-3.82 1.431 2.384 3.317-4.035.658 1.696 3.72-4.085-.144.938 3.98-3.98-.938.145 4.084-3.72-1.695-.659 4.034L34.05 48.5l-1.431 3.82-2.788-2.982-2.15 3.471-2.15-3.47-2.787 2.982-1.431-3.82-3.317 2.383-.658-4.034-3.72 1.695.144-4.084-3.98.938.938-3.98-4.084.145 1.696-3.72-4.035-.66L6.68 33.87l-3.82-1.432 2.982-2.788-3.47-2.149 3.47-2.15-2.982-2.787 3.82-1.431-2.384-3.317 4.035-.658-1.696-3.72 4.084.144-.937-3.98 3.98.938-.145-4.084 3.72 1.695.659-4.034L21.312 6.5l1.431-3.82 2.788 2.982 2.15-3.471 2.149 3.47 2.788-2.982 1.43 3.82 3.317-2.383.658 4.034 3.72-1.695-.144 4.084 3.98-.938-.938 3.98 4.085-.144-1.696 3.72 4.035.658-2.384 3.316 3.82 1.432z" clip-rule="evenodd"/></svg>