<svg width="48" height="48" viewBox="0 0 48 48" fill="none" xmlns="http://www.w3.org/2000/svg">
<g clip-path="url(#clip0_6109_39558)">
<path d="M22.4121 41.3826L29.2797 40.8472C29.2797 40.8472 31.6284 40.4647 33.0071 38.1957L28.1564 37.0229L22.4121 41.3826Z" fill="url(#paint0_linear_6109_39558)"/>
<path d="M12.9151 25.2951C10.8727 25.3972 7.09424 25.7541 7.09424 25.7541L23.561 37.7114L27.3138 38.6547L33.007 38.2212L16.4382 26.2385C16.4382 26.2385 15.1106 25.2951 13.1959 25.2951C13.0937 25.2951 13.0172 25.2951 12.9151 25.2951Z" fill="url(#paint1_linear_6109_39558)"/>
<path d="M34.1558 22.9241L41.2275 22.4907C41.2275 22.4907 43.6529 22.1338 45.0315 19.8902L40.0021 18.641L34.1558 22.9241Z" fill="url(#paint2_linear_6109_39558)"/>
<path d="M24.1484 6.60724C22.0294 6.68372 18.1489 6.98966 18.1489 6.98966L35.3049 19.2273L39.1855 20.2216L45.0572 19.8648L27.7991 7.60155C27.7991 7.60155 26.3695 6.60724 24.3526 6.60724C24.3016 6.60724 24.225 6.60724 24.1484 6.60724Z" fill="url(#paint3_linear_6109_39558)"/>
<path d="M3.00941 28.4056C2.98389 28.4311 2.98389 28.4566 2.98389 28.482L7.50266 31.7454L19.4761 40.4138C22.0035 42.2239 25.4246 41.4591 27.1607 38.6547L18.021 32.0768L10.5917 26.6719C9.67272 26.0091 8.6515 25.7031 7.63031 25.7031C5.84322 25.7031 4.08167 26.6464 3.00941 28.4056Z" fill="url(#paint4_linear_6109_39558)"/>
<path d="M14.1404 9.61565C14.1404 9.64114 14.1148 9.66667 14.0894 9.69211L18.7867 13.032L23.4842 16.3464L31.2964 21.9043C33.9259 23.7655 37.449 23.026 39.1851 20.2471L34.4366 16.8563L29.688 13.4909L21.927 7.95846C20.9568 7.2701 19.859 6.93866 18.7867 6.93866C16.9742 6.96416 15.2127 7.88198 14.1404 9.61565Z" fill="url(#paint5_linear_6109_39558)"/>
<path d="M10.8218 13.3889L16.8723 20.0177C17.1532 20.4001 17.4595 20.757 17.8169 21.0629L29.6117 34.0145L35.4835 33.6575C37.2196 30.8785 36.5048 27.1054 33.8752 25.2442L26.063 19.6862L21.3911 16.3719L16.6936 13.032L10.8218 13.3889Z" fill="url(#paint6_linear_6109_39558)"/>
<path d="M10.7704 13.4654C9.05991 16.2189 9.77469 19.9413 12.3533 21.7768L20.0887 27.2839L24.8628 30.6491L29.6114 34.0145C31.3474 31.2356 30.6325 27.4622 28.003 25.6011L10.8215 13.3889C10.8215 13.4145 10.7958 13.44 10.7704 13.4654Z" fill="url(#paint7_linear_6109_39558)"/>
</g>
<defs>
<linearGradient id="paint0_linear_6109_39558" x1="34.5583" y1="5.47382" x2="25.5242" y2="50.0633" gradientUnits="userSpaceOnUse">
<stop stop-color="#1593F5"/>
<stop offset="1" stop-color="#0084CE"/>
</linearGradient>
<linearGradient id="paint1_linear_6109_39558" x1="33.672" y1="53.7681" x2="-4.20731" y2="-7.00738" gradientUnits="userSpaceOnUse">
<stop stop-color="#1593F5"/>
<stop offset="1" stop-color="#0084CE"/>
</linearGradient>
<linearGradient id="paint2_linear_6109_39558" x1="58.6083" y1="54.7909" x2="35.7973" y2="13.8477" gradientUnits="userSpaceOnUse">
<stop stop-color="white"/>
<stop offset="1" stop-color="#15ABFF"/>
</linearGradient>
<linearGradient id="paint3_linear_6109_39558" x1="18.1502" y1="-17.318" x2="37.514" y2="27.0639" gradientUnits="userSpaceOnUse">
<stop stop-color="white"/>
<stop offset="1" stop-color="#79CFFF"/>
</linearGradient>
<linearGradient id="paint4_linear_6109_39558" x1="39.945" y1="-0.435275" x2="9.16278" y2="42.2441" gradientUnits="userSpaceOnUse">
<stop stop-color="#0057E5"/>
<stop offset="1" stop-color="#0084CE"/>
</linearGradient>
<linearGradient id="paint5_linear_6109_39558" x1="32.9658" y1="-2.0477" x2="23.2852" y2="24.6644" gradientUnits="userSpaceOnUse">
<stop stop-color="white"/>
<stop offset="1" stop-color="#15ABFF"/>
</linearGradient>
<linearGradient id="paint6_linear_6109_39558" x1="45.0577" y1="51.2288" x2="-3.59406" y2="-13.0098" gradientUnits="userSpaceOnUse">
<stop stop-color="white"/>
<stop offset="1" stop-color="#79CFFF"/>
</linearGradient>
<linearGradient id="paint7_linear_6109_39558" x1="36.5692" y1="-8.53191" x2="11.6085" y2="40.811" gradientUnits="userSpaceOnUse">
<stop stop-color="white"/>
<stop offset="1" stop-color="#79CFFF"/>
</linearGradient>
<clipPath id="clip0_6109_39558">
<rect width="42" height="37" fill="white" transform="translate(3 5.5)"/>
</clipPath>
</defs>
</svg>
