<svg xmlns="http://www.w3.org/2000/svg" width="30" height="32" fill="none"><path fill="url(#a)" d="M17.621 15.366c-.049-.147-.537.146-.683.195q.252 1.526.293 3.073a27.5 27.5 0 0 1-3.269-2.097l-.341.146v-.146l-.488.146c-.146.097-.097 0-.097.195a10.4 10.4 0 0 1-.537 4.146c-.976-.829-1.902-2-2.146-3.073a.7.7 0 0 1-.342.098c-.146.049-.195 0-.146.146a6.4 6.4 0 0 0 2.293 3.22c-.927.341-1.952.731-3.122 1.122-.39.146-.976.292-1.61.536a25 25 0 0 0 2.39-4.975l-.732.292a33 33 0 0 1-2.536 4.634c-.049.05-.049.098-.098.147a4.03 4.03 0 0 1-.292-3.22c.048-.195-.635.293-.683.342-.195.097-.195.244-.244.439q-.09.458-.098.927c.023.712.243 1.404.634 2-1.512.439-3.22.975-4.878 1.414v-.146c.244-1.171 1.415-2.683 2.78-3.464l.342-.39-1.853 1.268C1.28 23.073.304 24.244.06 25.317c-.341 1.561.83 2.78 2.098 3.707a14.3 14.3 0 0 0 4.487 1.951A34.4 34.4 0 0 0 14.06 32h.341a.7.7 0 0 0 .098-.195c.146-.293 2.341-4.39 2.927-7.854a20.9 20.9 0 0 0 .195-8.585m-4 1.463a29.5 29.5 0 0 0 3.56 2 19.2 19.2 0 0 1-4.145 2.244c.471-1.362.67-2.805.585-4.244m-4 6.293q1.246-.419 2.439-.976a34 34 0 0 1-2.098 4.195 8 8 0 0 1-1.073-.683 9.2 9.2 0 0 1-1.853-1.756c.878-.244 1.756-.487 2.585-.78m-8.585 2.195c1.56-.39 3.22-.732 4.878-1.122C4.694 26 3.62 27.317 3.036 28.341c-.976-.731-1.952-1.853-2-3.024m2.195 3.17c.975-1.463 2.195-2.78 3.268-4.097q.4.499.878.927a8.3 8.3 0 0 0 1.854 1.268c-1.912.683-3.864 1.415-5.756 2.049a.5.5 0 0 1-.244-.146m4.195 2c-.098-.048-.195-.048-.293-.097a13 13 0 0 1-3.463-1.56c.78-.245 4.195-1.123 5.805-1.66-.927 1.513-1.756 2.732-2.05 3.318m6.878 1.22c-1.317-.146-4-.585-5.805-.927 2.488-.585 4.146-.829 6.976-2.195-.488 1.317-.927 2.586-1.171 3.122M8.06 30.585a.53.53 0 0 1-.293-.049 29 29 0 0 0 2.537-3.414 16.8 16.8 0 0 0 5.17 1.22c-1.17.487-7.121 2.195-7.414 2.243m8.683-6.341a40 40 0 0 1-1.17 4 19.5 19.5 0 0 1-4.879-1.512c1.659-.683 5.17-2.293 6.098-2.927 0 .146-.05.293-.05.439m.146-.732c-.975.585-4.292 1.854-5.853 2.44a21.7 21.7 0 0 0 1.805-4.05 15 15 0 0 0 4.048 1.61m0-.195a12.5 12.5 0 0 1-3.658-1.707 26 26 0 0 0 4-2.44 26 26 0 0 1-.342 4.147"/><path fill="url(#b)" d="M6.304 4.39c-.634-.488.049-1.17.439-1.463.146-.147.341-.244.488-.39.488.585 1.707 2.146 2.195 2.634l.878-.05c-.44-.39-2.293-2.243-2.83-2.73 1.782.526 3.613.869 5.464 1.024v.048q-1.36.68-2.634 1.513l.732.097a9 9 0 0 0 2.048-1.414q.476 1.052 1.064 2.048l.683.098C13.562 3.61 12.636 1.659 12.245 0c-.917.293-5.941 2.049-6.878 3.268-.439.488.586.878.927 1.122zM12.06.244c.088.971.318 1.925.683 2.83-1.17-.294-4-.733-5.024-.83a24 24 0 0 1 4.341-2"/><path fill="url(#c)" d="M29.23 12.683C27.476 9.95 24.84 7.415 16.89 5.95c-1.66-.292-3.66-.536-7.171-1.17-1.22-.195-4.879-.78-4.44-1.512A.52.52 0 0 0 5.368 4c1.805 2.049 4.44 3.268 4.44 7.463 0 3.854-3.464 7.464-6.976 10.342a5 5 0 0 0-.586.488 53.2 53.2 0 0 1 10.098-4.878c4.097-1.61 12.244-3.903 16.927-4.537zm-6.829-4.44c.488.196.927.391 1.366.586a37 37 0 0 0-6.049 1.854c.58-1.126.944-2.35 1.074-3.61 1.21.342 2.439.732 3.61 1.17M16.89 10.78a17.6 17.6 0 0 0-2.536-1.268A34 34 0 0 1 18.4 7.024c-.048.927-.536 2.196-1.512 3.757m-6.78-1.658c.932.198 1.846.475 2.732.83a34 34 0 0 0-2.635 2.39 11.7 11.7 0 0 0-.097-3.22m3.063 1.317a12 12 0 0 1-1.463 3.512 3.9 3.9 0 0 0-1.415-1.024q1.334-1.365 2.878-2.488m.585-.146c.732.341 1.513.731 2.293 1.122a25 25 0 0 0-3.414 1.902c.56-.93.943-1.955 1.131-3.024zm4.196-3.366a20.5 20.5 0 0 0-4.05 2.195 6.9 6.9 0 0 0-.585-3.073c1.571.244 3.083.536 4.644.878zM12.977 6a7.8 7.8 0 0 1 .341 3.17 42 42 0 0 0-3.073-.877A20 20 0 0 1 12.977 6M6.44 4.537q.879.292 2.05.585c.34.976.585 1.854.829 2.634a10.55 10.55 0 0 0-2.869-3.22zm2.39.683c1.415.341 2.928.585 3.806.731A11 11 0 0 0 9.856 8 17 17 0 0 0 8.84 5.22zm1.074 8.487c.388.176.75.406 1.073.683a34 34 0 0 0-2.244 1.707 7.8 7.8 0 0 0 1.18-2.39zm-1.756 3.269c.634-.44 1.512-1.074 2.634-1.805a16.2 16.2 0 0 1-4.195 3.61 13.3 13.3 0 0 0 1.57-1.805zm-.78 1.853a17.8 17.8 0 0 0 4.146-3.853c.397.49.65 1.081.731 1.707-1.892.78-3.405 1.366-4.868 2.146zm5.229-2.244a4.7 4.7 0 0 0-.537-2.195 70 70 0 0 1 3.951-2.146 48 48 0 0 1-3.414 4.341m.536-.195A21.3 21.3 0 0 0 16.987 12a16 16 0 0 1 2.829 2.244 78 78 0 0 0-6.683 2.146m7.17-2.292a9.8 9.8 0 0 0-2.536-2.732 48 48 0 0 1 6.342-2.293c-.732 1.317-1.952 2.683-3.805 5.025m.635-.147A13.8 13.8 0 0 0 24.5 9.22a15 15 0 0 1 4.195 3.317q.085.091.195.146a42 42 0 0 0-7.951 1.268"/><path fill="#231F20" d="M16.157 31.122h-.292V32h-.098v-.878h-.293v-.098h.683M17.28 32h-.098v-.878c0 .049 0 .097-.049.097l-.341.732h-.05l-.34-.732a.15.15 0 0 0-.05-.097v.829h-.097v-.976h.146l.293.683a.17.17 0 0 0 .049.098.17.17 0 0 1 .049-.098l.292-.683h.147"/><defs><radialGradient id="a" cx="0" cy="0" r="1" gradientTransform="translate(19.638 13.835)scale(28.1607)" gradientUnits="userSpaceOnUse"><stop stop-color="#fff"/><stop offset=".87" stop-color="#99A5B4"/><stop offset=".99" stop-color="#8A97A8"/></radialGradient><radialGradient id="b" cx="0" cy="0" r="1" gradientTransform="translate(16.435 7.443)scale(13.7888)" gradientUnits="userSpaceOnUse"><stop stop-color="#fff"/><stop offset=".87" stop-color="#99A5B4"/><stop offset=".99" stop-color="#8A97A8"/></radialGradient><radialGradient id="c" cx="0" cy="0" r="1" gradientTransform="translate(12.832 13.28)scale(11.6815)" gradientUnits="userSpaceOnUse"><stop stop-color="#E23126"/><stop offset="1" stop-color="#B92226"/></radialGradient></defs></svg>