<svg xmlns="http://www.w3.org/2000/svg" width="167" height="269" fill="none"><path fill="#009CE1" d="M10.86 235.08h5.28v-8.42h9.15v8.42h9.76v7.15h-9.76v14a6.74 6.74 0 0 0 .84 3.61c.56.89 1.66 1.33 3.31 1.33a16.4 16.4 0 0 0 4.94-.73l.67 6.48a18 18 0 0 1-3.67 1 24.5 24.5 0 0 1-4.42.4 12.2 12.2 0 0 1-5-.9 8.8 8.8 0 0 1-3.35-2.5 10.4 10.4 0 0 1-1.9-3.75 17.2 17.2 0 0 1-.6-4.68v-14.23h-5.28zm62.69 1.6a12.1 12.1 0 0 1-2.68 8 16.8 16.8 0 0 1-7.68 5l15 18H66.6l-12.9-16.24h-3v16.24h-9.36v-44.52h13.3a32.4 32.4 0 0 1 7.62.84 18.1 18.1 0 0 1 6 2.54 12.36 12.36 0 0 1 3.91 4.24 12.2 12.2 0 0 1 1.38 5.9m-9.36.2a5.27 5.27 0 0 0-2.67-4.94 13.8 13.8 0 0 0-6.95-1.54h-3.88v13.9h2.8a14.23 14.23 0 0 0 7.75-1.87 6.16 6.16 0 0 0 2.95-5.55m49.73.27a12.87 12.87 0 0 1-1.54 6.42 13.6 13.6 0 0 1-4.21 4.57 19 19 0 0 1-6.32 2.74 32 32 0 0 1-7.78.91h-1.81v15.84h-9.35v-44.52h12.16c2.5 0 4.991.299 7.42.89a18 18 0 0 1 6 2.57 12.44 12.44 0 0 1 4 4.38 12.84 12.84 0 0 1 1.43 6.2m-9.36 0a5.6 5.6 0 0 0-.576-2.929A5.6 5.6 0 0 0 101.99 232a13 13 0 0 0-7-1.64h-2.74v14.1h2.24c2.577.14 5.138-.487 7.36-1.8a6.24 6.24 0 0 0 2.71-5.51m36.93-14.84c1.11 0 2.25.06 3.41.17s2.28.26 3.37.46q1.588.286 3.14.73c.932.25 1.839.585 2.71 1l-1.34 6.84a29 29 0 0 0-4.74-1.31 27.7 27.7 0 0 0-5.15-.5q-7.62 0-11.66 4t-4 11.68q0 7.73 4 11.68t11.66 4a27.7 27.7 0 0 0 5.15-.5 30 30 0 0 0 4.74-1.3l1.34 6.83c-.871.415-1.778.75-2.71 1a32 32 0 0 1-3.14.73c-1.09.2-2.21.35-3.37.46s-2.3.17-3.41.17a27.6 27.6 0 0 1-10.16-1.74 21 21 0 0 1-7.42-4.81 20.15 20.15 0 0 1-4.54-7.29 26.5 26.5 0 0 1-1.54-9.22 26.5 26.5 0 0 1 1.54-9.22 20.15 20.15 0 0 1 4.54-7.29 21 21 0 0 1 7.42-4.81 27.6 27.6 0 0 1 10.16-1.76m-58.15-55.62A83.437 83.437 0 0 1 0 83.34 83.44 83.44 0 0 1 83.34 0a83.44 83.44 0 0 1 83.34 83.34 83.44 83.44 0 0 1-83.34 83.35M83.34 8A75.43 75.43 0 0 0 8 83.34a75.43 75.43 0 0 0 75.34 75.35 75.43 75.43 0 0 0 75.34-75.35A75.43 75.43 0 0 0 83.34 8"/><path fill="#009CE1" d="M55.12 100.92v.8l6.16 3.55v4.1l.06.03v-4.7zm6.22 19.68v-8.16h-.06v5.93l-13.46-7.76V97.56l4.68 2.69v-.89l-6.17-3.75a1.33 1.33 0 0 1-.63-1.14 2 2 0 0 1 0-.24 1.32 1.32 0 0 0-.54 1.05v16.09a1.32 1.32 0 0 0 .66 1.14l16.08 9.27c.2.117.428.179.66.18a1.3 1.3 0 0 1-.63-.17 1.32 1.32 0 0 1-.59-1.19m2.62-2.27V114h-.06v6.68a1.32 1.32 0 0 1-.65 1.14 1.3 1.3 0 0 1-.63.17c.232 0 .46-.063.66-.18l7.07-4.08-2.63-1.52zm16.09-7V95.24a1.32 1.32 0 0 0-.47-1 .7.7 0 0 1 0 .14 1.31 1.31 0 0 1-.65 1.12l-15.08 8.78q.008.115 0 .23v6.37h.06v-5.64l13.46-7.76v13.05l-7 4.06 2.63 1.52 6.38-3.68a1.32 1.32 0 0 0 .67-1.1"/><path fill="#009CE1" d="M63.9 120.6v-6.68l-2.56-1.48v8.16a1.32 1.32 0 0 0 .65 1.14c.192.11.409.168.63.17a1.3 1.3 0 0 0 .63-.17 1.32 1.32 0 0 0 .65-1.14M62.24 105a1.3 1.3 0 0 1-.68-.19l-.22-.14v4.71l2.56 1.48v-6.37a2 2 0 0 0 0-.23l-1 .56a1.3 1.3 0 0 1-.66.18m13.48-10.65-13.46 7.84-7.14-4.34v.85l7.5 4.32 15.46-8.91a1.28 1.28 0 0 1 1.5.14 1.27 1.27 0 0 0-.61-1L63.74 84a1.29 1.29 0 0 0-1.34 0l-7.28 4.23v3l7.92-4.61zm-28.56-.24 5.34 3.07v-.93l-2.92-1.78 2.92-1.7v-3l-6.15 3.58a1.33 1.33 0 0 0-.62.88l.12-.08a1.28 1.28 0 0 1 1.31-.04"/><path fill="#009CE1" d="m46.33 95.57 6.17 3.75v-2.14l-5.34-3.07a1.28 1.28 0 0 0-1.31 0l-.12.08q-.008.12 0 .24a1.33 1.33 0 0 0 .6 1.14m15.01 8.95a1.33 1.33 0 0 1 .65-1.14l.63-.36-7.5-4.32v2.22l6.22 3.78zm16.74-10.41L62.62 103l.62.36a1.32 1.32 0 0 1 .63.91l15.08-8.78a1.31 1.31 0 0 0 .65-1.12.7.7 0 0 0 0-.14q-.088-.078-.19-.14a1.28 1.28 0 0 0-1.33.02"/><path fill="#009CE1" d="m63.24 103.38-.62-.36-.63.36a1.33 1.33 0 0 0-.65 1.14v.18l.22.14c.205.125.44.191.68.19.232.001.46-.061.66-.18l1-.56a1.32 1.32 0 0 0-.66-.91m39.54 18.09v-7.35h-.06v5.05l-4.38-2.52-2.62 1.51 7.65 4.42c.203.11.43.168.66.17a1.4 1.4 0 0 1-.63-.17 1.33 1.33 0 0 1-.62-1.11M89.26 98.38l13.46 7.76v5h.06v-5.51l-15-9.14a1.33 1.33 0 0 1-.63-1.13 2 2 0 0 1 0-.24 1.32 1.32 0 0 0-.54 1.05v16.08a1.31 1.31 0 0 0 .66 1.14l5.8 3.35 2.63-1.52-6.46-3.72zm31.76-3.26a.6.6 0 0 1 0 .13 1.3 1.3 0 0 1-.65 1.12l-5.88 3.42v1.1l4.34-2.51v13.06l-13.46 7.76v-6.6h-.06v8.84a1.34 1.34 0 0 1-.65 1.14c-.194.105-.41.163-.63.17.23-.002.457-.06.66-.17l16.08-9.28a1.31 1.31 0 0 0 .66-1.14V96.08a1.3 1.3 0 0 0-.105-.523 1.3 1.3 0 0 0-.305-.437m-15.68 10.27v4.21h.06v-3.43l6.49-3.74v-1.08l-6.58 3.84q.021.1.03.2"/><path fill="#009CE1" d="M105.34 121.47v-8.84l-2.56 1.49v7.35a1.33 1.33 0 0 0 .65 1.14c.194.105.409.163.63.17.22-.007.436-.065.63-.17a1.34 1.34 0 0 0 .65-1.14m-.03-16.31-1 .56a1.3 1.3 0 0 1-.66.18 1.4 1.4 0 0 1-.68-.19l-.22-.14v5.51l2.56-1.48v-4.21a1.5 1.5 0 0 0 0-.23m-1.47-20.33-16.05 9.35a1.3 1.3 0 0 0-.62.88l.12-.09a1.33 1.33 0 0 1 1.31 0l15.46 8.92 7.83-4.52v-1.09l-8.19 4.78-12.68-7.72 13.47-7.85 7.4 4.51v-3.08l-6.71-4.08a1.31 1.31 0 0 0-1.34-.01m13.32 10.38-2.67 1.54v1.1l5-2.88a1.33 1.33 0 0 1 1.31 0q.102.067.19.15a1.26 1.26 0 0 0-.61-1l-5.89-3.59v3.08z"/><path fill="#009CE1" d="m103.43 104.25.63-.36L88.6 95a1.33 1.33 0 0 0-1.31 0l-.12.09q-.007.12 0 .24a1.33 1.33 0 0 0 .63 1.13l15 9.14v-.18a1.31 1.31 0 0 1 .63-1.17m1.25 0a1.29 1.29 0 0 1 .63.91l6.58-3.84v-1.95l-7.83 4.52zM119.49 95l-5 2.88v1.94l5.87-3.42a1.3 1.3 0 0 0 .65-1.12.6.6 0 0 0 0-.13 1.4 1.4 0 0 0-.19-.15 1.33 1.33 0 0 0-1.33 0"/><path fill="#009CE1" d="M103.68 105.9c.232.001.46-.061.66-.18l1-.56a1.3 1.3 0 0 0-.63-.91l-.62-.36-.63.36a1.33 1.33 0 0 0-.477.483c-.114.2-.173.427-.173.657v.18l.22.14c.198.116.421.181.65.19M66.57 70.33l16.08 9.27c.2.117.428.18.66.18a1.3 1.3 0 0 1-.63-.18 1.3 1.3 0 0 1-.65-1.13v-15.9L77.78 60l-.65.38 4.87 2.8v13.05l-13.46-7.76v-3.13l-2.63 1.51v2.38a1.32 1.32 0 0 0 .66 1.1m1.97-14.95 6 3.44.72-.41-8.17-5a1.33 1.33 0 0 1-.63-1.13 2 2 0 0 1 0-.24 1.31 1.31 0 0 0-.54 1.05v10.67l2.63-1.51z"/><path fill="#009CE1" d="M84.68 76.19V63.14l5-2.9-.93-.54-4.2 2.45q.015.115 0 .23v16.09a1.3 1.3 0 0 1-.65 1.13 1.3 1.3 0 0 1-.63.18c.232 0 .46-.063.66-.18l16.08-9.27a1.31 1.31 0 0 0 .66-1.14v-2.57l-2.63-1.52v3.33zm14.99-22.82-8.26 4.81.93.54 5.8-3.34v6.69l2.63 1.52V53.11a1.29 1.29 0 0 0-.47-1 .5.5 0 0 1 0 .13 1.3 1.3 0 0 1-.63 1.13"/><path fill="#009CE1" d="M84.62 78.47V62.38a1 1 0 0 0 0-.23l-1 .57c-.202.111-.43.17-.66.17-.24 0-.475-.065-.68-.19l-.22-.13v15.9a1.3 1.3 0 0 0 .65 1.13c.191.112.408.174.63.18.222-.006.439-.068.63-.18a1.3 1.3 0 0 0 .65-1.13M67.88 52l9.25 5.33.68-.39-7.51-4.58 13.46-7.84 12.73 7.69-7.65 4.46.93.54 9.08-5.24a1.28 1.28 0 0 1 1.31 0q.105.062.19.15a1.3 1.3 0 0 0-.61-1l-15.25-9.28a1.31 1.31 0 0 0-1.34 0l-16 9.34a1.35 1.35 0 0 0-.62.89 1 1 0 0 1 .12-.09 1.28 1.28 0 0 1 1.23.02m19.21 6.72-.92-.53-3.19 1.86-2.61-1.59-.61.35 3.58 2.07z"/><path fill="#009CE1" d="m67.05 53.43 8.17 5 1.91-1.11L67.88 52a1.28 1.28 0 0 0-1.31 0 1 1 0 0 0-.12.09q-.009.12 0 .24a1.33 1.33 0 0 0 .6 1.1m15.67 7.82.62-.37-3.58-2.06-2 1.14 4.28 2.61v-.19a1.29 1.29 0 0 1 .68-1.13M98.8 52l-9.08 5.24 1.69 1 8.26-4.81a1.3 1.3 0 0 0 .65-1.12.5.5 0 0 0 0-.13A1.28 1.28 0 0 0 98.8 52m-14.84 9.25a1.3 1.3 0 0 1 .63.9l4.2-2.45-1.7-1-3.75 2.16z"/><path fill="#009CE1" d="M82.96 62.89c.23 0 .458-.059.66-.17l1-.57a1.3 1.3 0 0 0-.63-.9l-.62-.37-.62.37a1.29 1.29 0 0 0-.66 1.13v.19l.22.13c.196.12.42.185.65.19m.53 59.32-10.5-6.06-2.63 1.51 12.47 7.2a1.28 1.28 0 0 0 1.31 0l11.56-6.67-2.63-1.51zM111.89 73v15.89l2.63 1.6V72.24a1.3 1.3 0 0 0-.66-1.13l-13.09-7.56v3zm-56.77 0 10.79-6.23v-3l-12.76 7.37a1.31 1.31 0 0 0-.65 1.13v17.45l2.62-1.53zm0 27.92-2.62-1.6v.89l2.62 1.51zm6.16 8.45v3.03l.06.04v-3.04zm2.62 1.52v3.03l.06.03v-3.03z"/><path fill="#009CE1" d="m70.38 114.63-2.62 1.51 2.62 1.52 2.63-1.52zm-9.04-5.23v3.04l2.56 1.48v-3.03zm-6.22-18.16V88.2l-2.62 1.53v3.04zm0 6.6-2.62-1.6v.94l2.62 1.51z"/><path fill="#009CE1" d="m55.12 98.69-2.62-1.51v2.14l2.62 1.6zm47.6 12.43v3.03l.06-.04v-3.03zm-7 4.04-2.63 1.51 2.63 1.52 2.62-1.52zm16.18-12.76 2.62-1.52v-1.09l-2.62 1.53zm-6.56 7.2v3.03l.07-.03v-3.04zm-2.56 1.48v3.03l2.56-1.48v-3.03zm9.12-11.71 2.62-1.52v-1.1l-2.62 1.53zm0-7.37 2.62 1.6v-3.07l-2.62-1.6z"/><path fill="#009CE1" d="M111.9 99.37v1.95l2.62-1.53v-1.94zM77.78 59.96l-2.56-1.56-.71.42 2.62 1.51zm-9.24 5.33v-3.03l-2.63 1.52v3.03zm21.18-5.06 2.62-1.51-.93-.54-2.61 1.52zm8.42 4.87 2.63 1.51v-3.03l-2.63-1.51zm-11.05-6.38 2.63-1.52-.93-.53-2.62 1.52zm-6.72-.26-2.56-1.55-.68.39 2.63 1.51z"/><path fill="#009CE1" d="m79.76 58.81-2.63-1.51-1.91 1.1 2.56 1.56zm9.04.89 2.61-1.52-1.69-.98-2.63 1.52z"/></svg>