<svg xmlns="http://www.w3.org/2000/svg" width="75" height="75" fill="none"><rect width="64" height="64" x="11.199" y=".457" fill="#EBF4FF" rx="6" transform="rotate(10 11.2 .457)"/><path fill="#3178C6" d="M53.25 17.528H21.064a3.906 3.906 0 0 0-3.906 3.906v32.188a3.906 3.906 0 0 0 3.906 3.906h32.188a3.906 3.906 0 0 0 3.906-3.907V21.435a3.906 3.906 0 0 0-3.906-3.906"/><path fill="#3178C6" d="M53.25 17.528H21.064a3.906 3.906 0 0 0-3.906 3.906v32.188a3.906 3.906 0 0 0 3.906 3.906h32.188a3.906 3.906 0 0 0 3.906-3.907V21.435a3.906 3.906 0 0 0-3.906-3.906"/><path fill="#fff" fill-rule="evenodd" d="M41.918 49.358v3.91q.953.49 2.255.734t2.745.244q1.407 0 2.672-.268 1.265-.27 2.22-.886a4.5 4.5 0 0 0 1.51-1.614q.555-.996.556-2.462 0-1.064-.318-1.864a4.4 4.4 0 0 0-.917-1.424 6.7 6.7 0 0 0-1.437-1.119 15 15 0 0 0-1.89-.934 24 24 0 0 1-1.38-.618 7 7 0 0 1-1.04-.61 2.7 2.7 0 0 1-.66-.66 1.4 1.4 0 0 1-.233-.79q0-.402.208-.726t.587-.556.93-.36a5.4 5.4 0 0 1 1.222-.13q.489 0 1.033.074.544.073 1.095.226t1.07.385.96.538v-3.654a9.6 9.6 0 0 0-1.951-.508 16 16 0 0 0-2.427-.165q-1.395 0-2.641.3-1.247.3-2.195.935a4.7 4.7 0 0 0-1.498 1.62q-.55.983-.55 2.352 0 1.748 1.009 2.982t3.063 2.09q.807.33 1.504.648.696.318 1.204.66.507.342.8.745.295.405.294.917 0 .38-.183.703a1.6 1.6 0 0 1-.556.562 3 3 0 0 1-.93.373q-.555.135-1.302.134a7.52 7.52 0 0 1-4.83-1.784m-6.575-9.636h5.017v-3.21H26.376v3.21h4.992v14.29h3.975z" clip-rule="evenodd"/></svg>