<svg xmlns="http://www.w3.org/2000/svg" width="33" height="34" fill="none"><g clip-path="url(#a)"><path fill="#3178C6" d="M29.642.214H3.207C1.436.214 0 1.682 0 3.493v27.014c0 1.811 1.436 3.279 3.208 3.279h26.434c1.771 0 3.207-1.468 3.207-3.279V3.493c0-1.81-1.436-3.279-3.207-3.279"/><path fill="#3178C6" d="M29.642.214H3.207C1.436.214 0 1.682 0 3.493v27.014c0 1.811 1.436 3.279 3.208 3.279h26.434c1.771 0 3.207-1.468 3.207-3.279V3.493c0-1.81-1.436-3.279-3.207-3.279"/><path fill="#fff" fill-rule="evenodd" d="M20.335 26.929v3.282q.783.41 1.852.616 1.07.204 2.254.205 1.156 0 2.194-.226 1.039-.225 1.823-.744a3.76 3.76 0 0 0 1.24-1.354q.457-.836.457-2.066 0-.893-.261-1.565a3.7 3.7 0 0 0-.753-1.195 5.5 5.5 0 0 0-1.18-.938 12.5 12.5 0 0 0-1.551-.785q-.633-.267-1.135-.518a6 6 0 0 1-.854-.513 2.2 2.2 0 0 1-.542-.554 1.2 1.2 0 0 1-.19-.661q0-.34.17-.61.17-.273.482-.468.311-.194.763-.302a4.3 4.3 0 0 1 1.004-.108q.401 0 .849.062.447.06.898.19.453.128.879.323t.788.451v-3.067a7.7 7.7 0 0 0-1.601-.426 13 13 0 0 0-1.994-.138q-1.145 0-2.168.251a5.5 5.5 0 0 0-1.803.785 3.9 3.9 0 0 0-1.23 1.359q-.452.825-.452 1.975 0 1.466.829 2.502.828 1.037 2.515 1.755.663.276 1.235.543t.99.554q.415.287.657.626.24.338.24.77 0 .317-.15.589a1.35 1.35 0 0 1-.457.472 2.5 2.5 0 0 1-.763.313 4.5 4.5 0 0 1-1.07.112 6 6 0 0 1-2.068-.374 6.1 6.1 0 0 1-1.898-1.123m-5.4-8.088h4.12v-2.693H7.571v2.693h4.1v11.994h3.264z" clip-rule="evenodd"/></g><defs><clipPath id="a"><path fill="#fff" d="M0 .214h32.849v33.571H0z"/></clipPath></defs></svg>