<svg xmlns="http://www.w3.org/2000/svg" width="333" height="75" fill="none"><path fill="url(#a)" fill-rule="evenodd" d="M296.757.022a36.8 36.8 0 0 0-24.206 7.97l4.723 2.657c5.609-4.133 12.693-5.904 19.483-5.609z" clip-rule="evenodd"/><path fill="url(#b)" fill-rule="evenodd" d="M321.848 11.24c-5.904-6.2-13.579-10.037-21.844-10.923v5.019c7.085 1.18 13.284 4.427 18.302 9.446z" clip-rule="evenodd"/><path fill="url(#c)" fill-rule="evenodd" d="M332.475 35.445c-.295-7.675-3.247-15.35-8.265-21.844l-3.543 3.542c4.133 5.609 6.495 11.808 6.79 18.302z" clip-rule="evenodd"/><path fill="url(#d)" fill-rule="evenodd" d="M324.21 60.832c5.018-6.495 7.97-14.17 8.265-21.845h-5.018c-.295 6.495-2.657 12.694-6.79 18.302z" clip-rule="evenodd"/><path fill="url(#e)" fill-rule="evenodd" d="M300.004 74.115c7.97-.885 15.94-4.723 21.844-10.922l-3.542-3.542c-5.018 5.313-11.513 8.56-18.302 9.446z" clip-rule="evenodd"/><path fill="url(#f)" fill-rule="evenodd" d="M272.551 66.44a36.8 36.8 0 0 0 24.206 7.97v-5.018c-6.79.295-13.579-1.476-19.483-5.608z" clip-rule="evenodd"/><path fill="#000" d="M18.564 26.424V57H8.372V26.424H0v-8.632h26.936v8.632zm20.497-8.632v21.32q0 1.716.104 3.536.156 1.768.78 3.224.676 1.456 2.08 2.392 1.404.885 3.952.884 2.549 0 3.9-.884 1.405-.936 2.08-2.392.676-1.455.78-3.224.156-1.82.156-3.536v-21.32h10.14v22.724q0 9.152-4.212 13.364-4.16 4.212-12.844 4.212T33.081 53.88 28.87 40.516V17.792zm39.803 17.524h1.924q3.015 0 4.628-1.248t1.612-3.588q0-2.34-1.612-3.588t-4.628-1.248h-1.924zM101.275 57H88.588l-9.724-15.08V57H68.672V17.792h15.86q3.275 0 5.72.988 2.444.935 4.004 2.6a10.6 10.6 0 0 1 2.392 3.848q.832 2.184.832 4.68 0 4.472-2.184 7.28-2.133 2.756-6.344 3.744zm11.855-7.904h2.236q3.849 0 5.512-.988 1.664-.988 1.664-3.172t-1.664-3.172q-1.663-.988-5.512-.988h-2.236zm0-15.912h1.872q4.784 0 4.784-3.796t-4.784-3.796h-1.872zm-10.192-15.392h15.184q5.408 0 8.216 2.6t2.808 7.488q0 2.964-1.092 4.94-1.04 1.925-3.224 3.276 2.184.415 3.692 1.3 1.56.832 2.496 2.08a7.6 7.6 0 0 1 1.404 2.808q.417 1.56.416 3.328 0 2.756-.988 4.888a9.55 9.55 0 0 1-2.704 3.588q-1.716 1.456-4.212 2.184t-5.616.728h-16.38zm41.992 19.604q0 2.34.884 4.316a10.9 10.9 0 0 0 2.392 3.432 11.2 11.2 0 0 0 3.484 2.288q2.028.78 4.264.78 2.235 0 4.212-.78a11.1 11.1 0 0 0 3.536-2.288 10.5 10.5 0 0 0 2.444-3.432q.884-1.976.884-4.316t-.884-4.316a10.5 10.5 0 0 0-2.444-3.432 10.4 10.4 0 0 0-3.536-2.236 10.75 10.75 0 0 0-4.212-.832q-2.236 0-4.264.832a10.5 10.5 0 0 0-3.484 2.236 10.9 10.9 0 0 0-2.392 3.432q-.885 1.976-.884 4.316m-10.66 0q0-4.368 1.612-8.112 1.611-3.795 4.472-6.604 2.86-2.808 6.812-4.368 4.003-1.612 8.788-1.612 4.731 0 8.736 1.612 4.003 1.56 6.864 4.368a19.9 19.9 0 0 1 4.524 6.604q1.612 3.744 1.612 8.112t-1.612 8.164a20 20 0 0 1-4.524 6.552q-2.86 2.808-6.864 4.42-4.005 1.56-8.736 1.56-4.785 0-8.788-1.56-3.953-1.612-6.812-4.42a20.4 20.4 0 0 1-4.472-6.552q-1.612-3.796-1.612-8.164m57.45-2.08h1.924q3.015 0 4.628-1.248 1.611-1.248 1.612-3.588 0-2.34-1.612-3.588t-4.628-1.248h-1.924zM214.132 57h-12.688l-9.724-15.08V57h-10.192V17.792h15.86q3.275 0 5.72.988 2.444.935 4.004 2.6a10.6 10.6 0 0 1 2.392 3.848q.831 2.184.832 4.68 0 4.472-2.184 7.28-2.132 2.756-6.344 3.744zm23.971-30.576h-12.116v6.552h11.44v8.632h-11.44v6.76h12.116V57h-22.308V17.792h22.308zm14.94 9.36h3.38q5.616 0 5.616-4.888t-5.616-4.888h-3.38zm0 21.216h-10.192V17.792h16.224q6.604 0 10.088 3.432 3.536 3.432 3.536 9.672t-3.536 9.672Q265.679 44 259.075 44h-6.032zm31.342-19.604q0 2.34.884 4.316a10.9 10.9 0 0 0 2.392 3.432 11.3 11.3 0 0 0 3.484 2.288q2.028.78 4.264.78t4.212-.78a11.1 11.1 0 0 0 3.536-2.288 10.5 10.5 0 0 0 2.444-3.432q.884-1.976.884-4.316t-.884-4.316a10.5 10.5 0 0 0-2.444-3.432 10.4 10.4 0 0 0-3.536-2.236 10.7 10.7 0 0 0-4.212-.832q-2.236 0-4.264.832a10.5 10.5 0 0 0-3.484 2.236 10.9 10.9 0 0 0-2.392 3.432q-.884 1.976-.884 4.316m-10.66 0q0-4.368 1.612-8.112 1.612-3.795 4.472-6.604 2.86-2.808 6.812-4.368 4.004-1.612 8.788-1.612 4.732 0 8.736 1.612 4.004 1.56 6.864 4.368a19.9 19.9 0 0 1 4.524 6.604q1.612 3.744 1.612 8.112t-1.612 8.164a20 20 0 0 1-4.524 6.552q-2.86 2.808-6.864 4.42-4.004 1.56-8.736 1.56-4.784 0-8.788-1.56-3.952-1.612-6.812-4.42a20.4 20.4 0 0 1-4.472-6.552q-1.612-3.796-1.612-8.164"/><defs><linearGradient id="a" x1="302.513" x2="302.513" y1="0" y2="74.433" gradientUnits="userSpaceOnUse"><stop stop-color="#1E90FF"/><stop offset="1" stop-color="#FF1E56"/></linearGradient><linearGradient id="b" x1="302.513" x2="302.513" y1="0" y2="74.433" gradientUnits="userSpaceOnUse"><stop stop-color="#1E90FF"/><stop offset="1" stop-color="#FF1E56"/></linearGradient><linearGradient id="c" x1="302.513" x2="302.513" y1="0" y2="74.433" gradientUnits="userSpaceOnUse"><stop stop-color="#1E90FF"/><stop offset="1" stop-color="#FF1E56"/></linearGradient><linearGradient id="d" x1="302.513" x2="302.513" y1="0" y2="74.433" gradientUnits="userSpaceOnUse"><stop stop-color="#1E90FF"/><stop offset="1" stop-color="#FF1E56"/></linearGradient><linearGradient id="e" x1="302.513" x2="302.513" y1="0" y2="74.433" gradientUnits="userSpaceOnUse"><stop stop-color="#1E90FF"/><stop offset="1" stop-color="#FF1E56"/></linearGradient><linearGradient id="f" x1="302.513" x2="302.513" y1="0" y2="74.433" gradientUnits="userSpaceOnUse"><stop stop-color="#1E90FF"/><stop offset="1" stop-color="#FF1E56"/></linearGradient></defs></svg>