<svg xmlns="http://www.w3.org/2000/svg" width="238" height="238" fill="none"><path fill="url(#a)" stroke="#7B7F87" stroke-linecap="round" stroke-linejoin="round" stroke-width="9.917" d="M206.047 67.58 32.689 169.685l173.358-.734z"/><path stroke="#3F4244" stroke-linecap="round" stroke-linejoin="round" stroke-width="15.867" d="m119.368 14.692 86.679 52.154v104.308l-86.679 52.155-86.679-52.155V66.846z"/><path fill="#5E6163" d="M32.321 146.914c11.157 0 20.2 8.879 20.2 19.833s-9.043 19.833-20.2 19.833-20.2-8.879-20.2-19.833 9.044-19.833 20.2-19.833"/><path fill="#3F4244" d="M119 0c11.159 0 20.201 8.88 20.201 19.833 0 10.954-9.042 19.834-20.201 19.834-11.158 0-20.2-8.88-20.2-19.834S107.842 0 119 0M32.321 47.747c11.157 0 20.2 8.88 20.2 19.833 0 10.954-9.043 19.834-20.2 19.834s-20.2-8.88-20.2-19.834 9.044-19.833 20.2-19.833M119 198.333c11.159 0 20.201 8.88 20.201 19.834S130.159 238 119 238c-11.158 0-20.2-8.879-20.2-19.833s9.042-19.834 20.2-19.834"/><path fill="#5E6163" d="M205.679 47.013c11.158 0 20.201 9.044 20.201 20.2 0 11.157-9.043 20.2-20.201 20.2s-20.2-9.043-20.2-20.2 9.042-20.2 20.2-20.2m0 99.901c11.158 0 20.201 8.879 20.201 19.833s-9.043 19.833-20.201 19.833-20.2-8.879-20.2-19.833 9.042-19.833 20.2-19.833"/><defs><linearGradient id="a" x1="218.028" x2="113.345" y1="142.789" y2="142.789" gradientUnits="userSpaceOnUse"><stop stop-color="#B9BBC1"/><stop offset="1" stop-color="#7A7E87"/></linearGradient></defs></svg>