<svg xmlns="http://www.w3.org/2000/svg" width="500" height="113" fill="none"><g clip-path="url(#a)"><path fill="#000" d="M250.638 28.113c-19.398 0-33.385 12.65-33.385 31.627s15.726 31.627 35.142 31.627c11.719 0 22.051-4.639 28.446-12.458L267.4 71.143c-3.549 3.883-8.944 6.15-15.005 6.15-8.417 0-15.568-4.393-18.221-11.421h49.233c.386-1.968.615-4.006.615-6.15 0-18.958-13.969-31.61-33.384-31.61M234.033 53.59c2.196-7.01 8.206-11.42 16.605-11.42 8.415 0 14.425 4.41 16.604 11.42zm-3.971-44.805-48.688 84.339-48.705-84.339h18.256l30.432 52.712 30.432-52.712zM65.497 0l64.923 112.452H.573zm289.158 59.74c0 10.542 6.888 17.57 17.571 17.57 7.239 0 12.669-3.285 15.462-8.644l13.494 7.784c-5.588 9.312-16.059 14.917-28.956 14.917-19.416 0-33.384-12.65-33.384-31.627s13.986-31.627 33.384-31.627c12.897 0 23.352 5.605 28.956 14.917l-13.494 7.784c-2.793-5.359-8.223-8.645-15.462-8.645-10.665 0-17.571 7.029-17.571 17.57M499.577 8.785V89.61h-15.813V8.785zm-59.74 19.328c-19.398 0-33.383 12.65-33.383 31.627s15.743 31.627 35.141 31.627c11.718 0 22.051-4.639 28.446-12.458l-13.442-7.766c-3.549 3.883-8.943 6.15-15.004 6.15-8.417 0-15.568-4.393-18.222-11.421h49.234c.386-1.968.614-4.006.614-6.15 0-18.958-13.968-31.61-33.384-31.61M423.233 53.59c2.197-7.01 8.188-11.42 16.604-11.42s14.426 4.41 16.605 11.42zm-89.662-23.72v17.026c-1.757-.51-3.62-.861-5.623-.861-10.208 0-17.571 7.028-17.571 17.57V89.61h-15.812V29.87h15.812v16.165c0-8.926 10.384-16.165 23.194-16.165"/></g><defs><clipPath id="a"><path fill="#fff" d="M.573 0h499.06v112.452H.573z"/></clipPath></defs></svg>