<svg xmlns="http://www.w3.org/2000/svg" width="75" height="75" fill="none"><rect width="64" height="64" x="11.199" y=".457" fill="transparent" rx="6" transform="rotate(10 11.2 .457)"/><mask id="a" width="41" height="41" x="17" y="17" maskUnits="userSpaceOnUse" style="mask-type:alpha"><path fill="#fff" fill-rule="evenodd" d="M45.52 57.255a2.5 2.5 0 0 0 1.985-.077l8.236-3.962a2.5 2.5 0 0 0 1.415-2.253v-26.87a2.5 2.5 0 0 0-1.415-2.253l-8.236-3.963a2.49 2.49 0 0 0-2.841.484L28.898 32.744l-6.867-5.212a1.665 1.665 0 0 0-2.127.094l-2.203 2.004a1.667 1.667 0 0 0-.001 2.464l5.955 5.434L17.7 42.96a1.667 1.667 0 0 0 .002 2.465l2.202 2.003c.594.54 1.488.58 2.127.095l6.867-5.213 15.766 14.383c.25.25.542.438.857.56m1.642-28.808L35.2 37.527l11.962 9.081z" clip-rule="evenodd"/></mask><g mask="url(#a)"><path fill="#0065A9" d="m55.74 21.847-8.24-3.968a2.49 2.49 0 0 0-2.843.483l-26.98 24.6a1.667 1.667 0 0 0 .001 2.464l2.204 2.004c.594.54 1.489.58 2.129.095L54.5 22.876c1.09-.827 2.656-.05 2.656 1.319v-.096a2.5 2.5 0 0 0-1.415-2.252"/><g filter="url(#b)"><path fill="#007ACC" d="m55.74 53.209-8.24 3.968a2.49 2.49 0 0 1-2.843-.483l-26.98-24.6a1.667 1.667 0 0 1 .001-2.465l2.204-2.003a1.67 1.67 0 0 1 2.129-.095L54.5 52.18c1.09.827 2.656.05 2.656-1.318v.095a2.5 2.5 0 0 1-1.415 2.253"/></g><g filter="url(#c)"><path fill="#1F9CF0" d="M47.5 57.178a2.49 2.49 0 0 1-2.844-.484c.923.923 2.5.27 2.5-1.036V19.396c0-1.305-1.577-1.958-2.5-1.035a2.49 2.49 0 0 1 2.843-.484l8.24 3.963a2.5 2.5 0 0 1 1.417 2.253v26.87a2.5 2.5 0 0 1-1.416 2.252z"/></g><path fill="url(#d)" fill-rule="evenodd" d="M45.497 57.254a2.5 2.5 0 0 0 1.984-.076l8.235-3.963a2.5 2.5 0 0 0 1.416-2.253v-26.87a2.5 2.5 0 0 0-1.416-2.252l-8.235-3.963a2.49 2.49 0 0 0-2.842.484L28.874 32.744l-6.867-5.213a1.665 1.665 0 0 0-2.127.095l-2.203 2.003a1.67 1.67 0 0 0-.002 2.465l5.956 5.434-5.956 5.433a1.667 1.667 0 0 0 .002 2.465l2.203 2.003c.593.54 1.488.58 2.127.095l6.867-5.213 15.765 14.383c.25.25.543.438.858.56m1.641-28.807-11.962 9.08 11.962 9.081z" clip-rule="evenodd" opacity=".25" style="mix-blend-mode:overlay"/></g><defs><filter id="b" width="82.691" height="72.898" x="-4.202" y="5.859" color-interpolation-filters="sRGB" filterUnits="userSpaceOnUse"><feFlood flood-opacity="0" result="BackgroundImageFix"/><feColorMatrix in="SourceAlpha" result="hardAlpha" values="0 0 0 0 0 0 0 0 0 0 0 0 0 0 0 0 0 0 127 0"/><feOffset/><feGaussianBlur stdDeviation="10.667"/><feColorMatrix values="0 0 0 0 0 0 0 0 0 0 0 0 0 0 0 0 0 0 0.25 0"/><feBlend in2="BackgroundImageFix" mode="overlay" result="effect1_dropShadow_8222_19376"/><feBlend in="SourceGraphic" in2="effect1_dropShadow_8222_19376" result="shape"/></filter><filter id="c" width="55.167" height="82.46" x="23.323" y="-3.703" color-interpolation-filters="sRGB" filterUnits="userSpaceOnUse"><feFlood flood-opacity="0" result="BackgroundImageFix"/><feColorMatrix in="SourceAlpha" result="hardAlpha" values="0 0 0 0 0 0 0 0 0 0 0 0 0 0 0 0 0 0 127 0"/><feOffset/><feGaussianBlur stdDeviation="10.667"/><feColorMatrix values="0 0 0 0 0 0 0 0 0 0 0 0 0 0 0 0 0 0 0.25 0"/><feBlend in2="BackgroundImageFix" mode="overlay" result="effect1_dropShadow_8222_19376"/><feBlend in="SourceGraphic" in2="effect1_dropShadow_8222_19376" result="shape"/></filter><linearGradient id="d" x1="37.132" x2="37.132" y1="17.631" y2="57.424" gradientUnits="userSpaceOnUse"><stop stop-color="#fff"/><stop offset="1" stop-color="#fff" stop-opacity="0"/></linearGradient></defs></svg>
