<svg xmlns="http://www.w3.org/2000/svg" width="120" data-name="Layer 1" viewBox="0 0 1986.34 504.27"><defs><linearGradient id="a" x1="-24849.09" x2="-24333.79" y1="-1429.29" y2="-1733.77" gradientTransform="matrix(.07 0 0 .07 1820.06 550.6)" gradientUnits="userSpaceOnUse"><stop offset="0" stop-color="#909ca9"/><stop offset="1" stop-color="#ededee"/></linearGradient><linearGradient id="b" x1="-24837.52" x2="-24422.9" y1="-7167.87" y2="-7167.87" gradientTransform="matrix(.07 0 0 .07 1820.06 550.6)" gradientUnits="userSpaceOnUse"><stop offset="0" stop-color="#939fab"/><stop offset="1" stop-color="#dcdee1"/></linearGradient><radialGradient id="c" cx="423.23" cy="-224.7" r="1.74" gradientUnits="userSpaceOnUse"><stop offset="0" stop-color="#8e99a8"/><stop offset="1" stop-color="#a0aec0"/></radialGradient></defs><path d="m288.21 233.25-100.06 32.67-87.05 38.42-24.35 6.43c-6.2 5.9-12.75 11.87-19.75 17.92-7.72 6.66-14.9 12.71-20.42 17.1a152.3 152.3 0 0 0-19.82 19.66c-6.87 8.62-12.31 17.77-14.66 24.81C-2.06 403 0 415.82 8 427.69c10.29 15.13 30.78 30.56 54.68 41.07 12.18 5.37 32.67 12.25 48.1 16.11 25.64 6.5 75.25 13.54 102.56 14.6 5.52.22 12.93.22 13.23 0 .61-.38 4.84-8.47 9.76-18.53 16.79-34.26 28.89-66.41 35.47-93.86 3.93-16.64 7-38.8 9.07-65 .53-7.34.76-31.92.3-40.24a282 282 0 0 0-3.78-35.47 8 8 0 0 1-.22-3.1c.3-.22 1.21-.53 13.53-4.08l-2.49-5.9Zm-22.84 13.38c.91 0 3.33 23.22 3.93 37.9.15 3.1.08 5.14-.07 5.14-.61 0-12.78-7.19-21.48-12.63-7.56-4.77-21.93-14.3-24.2-16.11-.76-.53-.68-.61 5.52-2.72 10.51-3.56 35.47-11.58 36.3-11.58m-51 16.79c.68 0 2.41 1 6.57 3.56 15.58 9.76 36.76 21.55 45.84 25.49 2.79 1.21 3.1.75-3.33 5.14-13.77 9.38-30.93 18.6-52 27.91-3.71 1.66-6.81 3-6.88 3a19.4 19.4 0 0 1 .91-4.16c5.06-18.84 7.94-37.89 8.09-53.17.07-7.57.07-7.57.76-7.79-.16.07-.08.07 0 .07Zm-10.52 4c.46.46.15 17.4-.45 22a192 192 0 0 1-7 32.9 49 49 0 0 1-1.74 5.29c-.3.38-10.66-9.75-14.07-13.68a102.4 102.4 0 0 1-13.91-20.27c-1.74-3.41-4.46-10.06-4.24-10.29 1.21-.83 41.07-16.26 41.37-16Zm-49.46 19.44a.3.3 0 0 1 .23.07 14.5 14.5 0 0 1 1.13 2.73 102.2 102.2 0 0 0 12.56 22.46 127 127 0 0 0 17.5 18.88c1.81 1.51 3.48 3 3.7 3.18.46.45.61.38-11.72 5.07-14.29 5.44-29.87 10.89-47.72 16.63q-6.41 2.07-12.78 4.16c-.68.23-.46-.15 1.51-3.25 8.85-13.84 22.31-41 29.87-60.2 1.29-3.33 2.57-6.65 2.8-7.41a2.73 2.73 0 0 1 1.66-2 7 7 0 0 1 1.29-.3Zm-15.12 6.28c.22.15-3.64 8.24-7.42 15.65-7.33 14.3-15.35 28.36-26.09 45.46-1.81 2.95-3.55 5.67-3.78 6-.38.53-.53.38-1.74-2a69.4 69.4 0 0 1-5.82-17.55c-1.14-5.9-.91-16.19.37-22.54 1-4.69.91-4.61 3.18-5.75 9.68-4.91 41-19.59 41.3-19.28Zm130.46 5.29v3.18a411 411 0 0 1-4.47 56.87c-.45 2.95-.83 5.37-.9 5.45s-2.2-.61-4.77-1.36a196 196 0 0 1-34.79-14.9c-7.34-4-18-10.59-17.7-10.89.08-.08 3.26-1.74 7-3.71a443 443 0 0 0 41.37-24.28c4.62-3.1 11.57-8.09 13.09-9.45l1.21-.91Zm-187.54 22.4c.31 0 .23.6-.22 3.32-.31 2-.68 5.6-.83 8.1-.61 11 1.21 19.21 6.65 30.4 1.51 3.1 2.72 5.67 2.65 5.75-.53.45-50.6 15.13-66.33 19.44-4.69 1.28-8.77 2.42-9.08 2.49-.52.15-.6.08-.37-1.21 1.73-11.12 10.21-25.64 22-37.89 7.87-8.17 14.15-12.93 24.89-19.06 7.71-4.39 19.58-11 20.49-11.27 0-.07.08-.07.15-.07m118 21.1a30.5 30.5 0 0 1 4.08 2.19c16.19 9.38 38.72 18.08 57.93 22.54l1.74.38-2.42 1.36c-10.06 5.6-43.11 19.36-76.91 32-4.92 1.81-9.76 3.63-10.67 4a5.6 5.6 0 0 1-1.74.53c0-.08 1.36-2.73 3.1-6 9.46-17.69 19-39.25 23.83-54.22.6-1.44 1-2.73 1.06-2.8Zm-12 3.93a22 22 0 0 1-1.28 3.48 480 480 0 0 1-26.25 52.87c-2.8 5-5.14 9-5.22 9s-2.34-1.37-5.06-3c-16-9.83-30.26-21.93-39.56-33.65l-1.36-1.67 6.84-1.89a494 494 0 0 0 66.41-22.91c2.95-1.25 5.37-2.23 5.44-2.23ZM262.87 372c.08 1.74-3.78 17.32-7 28.59-2.65 9.45-4.92 16.87-9.08 29.95-1.81 5.75-3.4 10.51-3.48 10.51a5 5 0 0 1-1-.22 316.7 316.7 0 0 1-61.49-17.32c-5.29-2.12-12.86-5.52-13.31-5.9-.15-.15 4.39-2.27 10.14-4.77 34.41-15.05 70.1-32.14 82.36-39.48a10.1 10.1 0 0 1 2.79-1.36Zm-172.51 5.9c.15.15-9.45 14-22.91 32.83-4.69 6.58-10.14 14.29-12.18 17.16s-5.14 7.42-6.88 10.14l-3.18 4.91-3.4-2.94a126 126 0 0 1-14.07-14.37c-6.5-8.09-10.89-16.64-12.63-24.43-.83-3.63-.83-5.44-.08-5.67 1.14-.3 21.33-5.07 40.24-9.45 10.51-2.42 22.69-5.3 27.07-6.36s8-1.89 8-1.89Zm9.68 3.71 2.42 2.72a141.8 141.8 0 0 0 35.47 29c2.42 1.37 4.24 2.57 4.09 2.65-.53.38-46.74 16.79-68.15 24.2-12 4.24-21.93 7.64-22 7.64a12.4 12.4 0 0 1-1.52-1l-1.36-1 2.2-3.17c7.1-10.29 16-21.56 35.47-45L100 381.56Zm60.36 43.18c.07-.07 3.4 1.14 7.48 2.65a242 242 0 0 0 28.06 8.7 310 310 0 0 0 42.43 7.33c1.66.15 2.57.31 2.27.53-.53.31-11.65 4-19.82 6.58-13 4.09-52.71 15.81-85.08 25.11-6 1.74-11.12 3.18-11.42 3.25-.76.16-3.25-.53-3.25-.83a54 54 0 0 1 4-5.06 448 448 0 0 0 30.7-41.3c2.5-3.78 4.62-6.88 4.62-7Zm-13.32.38c.08.08-5.29 8.7-14.67 23.52-4 6.28-8.47 13.39-10.06 15.88s-3.78 6.21-5.06 8.32l-2.2 3.86-1.13-.3c-2.72-.76-21.86-7.49-26.93-9.53a189 189 0 0 1-17.62-8.09c-6-3.26-13.61-8.1-13-8.25.15-.07 10.52-2.87 23-6.27 33.13-9 51.51-14.22 63.53-18a33 33 0 0 1 4.16-1.14Zm94.16 22.08h.08c.3.76-11.95 34.8-16.41 45.53-1 2.42-1.36 3-1.89 2.95-1.29-.07-19.06-2.57-29.88-4.16-18.83-2.87-50.44-8.39-58.38-10.21l-1.82-.37 11.27-2.58c24.2-5.44 35.85-8.39 47.65-12a337 337 0 0 0 44.54-17.17 38 38 0 0 1 4.84-2Z" style="fill:url(#a)"/><path d="M185.05 0c-1.66-.22-28.51 9.46-45.83 16.49C115.85 26 97.7 35.1 86.5 43c-4.15 2.95-9.37 8.17-10.2 10.21a7 7 0 0 0-.46 2.57L86 65.35l24.12 7.71 57.41 10.29 65.64 11.27.68-5.67c-.22 0-.38-.08-.6-.08l-8.62-1.36-1.74-3.1c-8.95-15.73-18.78-35.25-24.53-48.41a251 251 0 0 1-11-30.47C186 .38 185.88.08 185.05 0m-1.21 3.86h.08c.07.08.37 2.2.68 4.69a158 158 0 0 0 7.33 31.84c2.8 8.32 2.8 7.87-.45 6.88-7.71-2.11-42.28-8.09-67.31-11.57-4-.53-7.41-1.06-7.41-1.13-.31-.3 18.07-9.91 26.17-13.69 10.36-4.77 38.79-16.64 40.91-17.02m-72.91 33.88 2.95 1c16 5.44 56.35 13.16 78.58 15 2.5.23 4.62.46 4.69.46a35 35 0 0 1-4.76 2.49c-10.74 5.37-22.54 11.95-30.71 17a31.6 31.6 0 0 1-4.91 2.72c-.31 0-1.9-.3-3.56-.53l-3-.45-7.59-7.43c-13.31-12.94-23.74-22.92-27.75-26.7Zm-3 2.35 10.64 13.31c5.83 7.34 11.72 14.52 13 16.11a23.4 23.4 0 0 1 2.27 2.95c-.3.23-15.43-2.72-23.45-4.54-8.24-1.89-11.64-2.8-16.71-4.39l-4.16-1.36v-1.06c.08-5.06 6.51-12.63 17.4-20.34l1-.68Zm90.6 18.15c.31 0 .68.68 1.59 2.72 2.57 5.67 10.59 20.95 12.55 23.9.61 1 1.67 1.06-9-.68-25.67-4.18-33.9-5.52-33.9-5.67a7.7 7.7 0 0 1 1.74-1.14 147.7 147.7 0 0 0 23.07-16c1.74-1.44 3.33-2.8 3.63-3 .08-.15.23-.23.3-.15Z" style="fill:url(#b)"/><path d="M76.82 52.11a7.54 7.54 0 0 0-.07 6.58c1 2.42 3.86 5.37 7.11 8.4 0 0 33.65 32.82 37.74 37.51 18.6 21.48 26.69 42.66 27.45 71.85.45 18.76-3.1 35.24-12 54.38C121.37 265.16 88.17 303.06 37 345.11l7.48-2.5c4.84-3.63 11.42-7.49 26.85-16 35.62-19.51 75.71-37.44 124.87-55.89C267 244.14 383.35 213 449.6 202.84l6.89-1.05-1.06-1.67a231 231 0 0 0-15.21-21.4c-14.52-18-32.14-32.6-53.69-44.7-29.65-16.56-68-29.49-116.55-39.1-9.15-1.81-29.27-5.29-45.6-7.79-34.64-5.37-57-9.07-81.68-13.31-8.85-1.51-22.09-3.78-30.86-5.67a199 199 0 0 1-20-5.37c-5.45-2.12-13.31-4.24-15-10.67ZM96.34 71a22.5 22.5 0 0 1 2.87.91c2.87 1 6.58 2.12 11 3.33q5 1.36 10 2.64c4.54 1.14 8.32 2.2 8.39 2.2.54.53 8.17 25 10.75 34.33C140.28 118 141 121 141 121a15 15 0 0 1-1.89-3c-8.85-15.58-22.84-31.38-39-44.09a32 32 0 0 1-3.7-3Zm37.21 10.29a28.5 28.5 0 0 1 4.08.68c12.86 2.87 35.93 7.26 50.67 9.75a18.5 18.5 0 0 1 4.47 1 7.6 7.6 0 0 1-2.05 1.28c-2.49 1.29-12.55 7.26-15.88 9.53a145.4 145.4 0 0 0-21.4 17.09c-2.2 2.2-4.09 4-4.09 4s-.45-1.28-.83-2.87A244.5 244.5 0 0 0 135 84.71a33 33 0 0 1-1.51-3.48c0 .15 0 .08.08.08ZM199 93.79c.46.15 1.21 2.72 2.72 8.39a124 124 0 0 1 3.64 34.64c-.16 3.18-.31 6.13-.46 6.5l-.23.76-3.93-1.29c-8.09-2.57-21.25-6.42-32.52-9.6-6.43-1.74-11.65-3.33-11.65-3.48 0-.45 9.38-9.83 13.39-13.39 7.64-6.73 28.36-22.76 29-22.53Zm5.22.75c.23-.22 31.31 5.14 45.45 7.87 10.52 2 25.79 5.22 26.7 5.59.46.16-1.13 1.06-6.2 3.33-20 9-34.79 17.09-49.54 26.93-3.85 2.57-7.11 4.69-7.18 4.69a40 40 0 0 1-.15-4.84A105.75 105.75 0 0 0 205.17 97a11.2 11.2 0 0 1-.91-2.46Zm80.4 15.88c.22.23-.76 6.36-1.67 10-2.72 11.27-10.06 28-19.06 43.71a50 50 0 0 1-3.17 5.14 30.3 30.3 0 0 1-4.54-2.42 247 247 0 0 0-29.65-14.52c-3-1.28-5.67-2.34-5.75-2.49-.53-.46 23.83-16.57 36.68-24.28 10.21-6.2 26.85-15.43 27.16-15.13Zm5.74.91c.68 0 14.45 3.78 21.63 5.9 17.78 5.3 38.2 12.78 51.51 18.83l5.52 2.5-3.86.91c-32.52 7.48-60.35 16.11-87.2 27-2.19.9-4.16 1.66-4.31 1.66a19.3 19.3 0 0 1 1.59-3.86c8.09-17.16 13.31-35.09 14.59-50.37.08-1.43.31-2.57.53-2.57m-137 31.46c.23-.22 10.74 2.27 16.41 3.86 8.63 2.42 26.93 8.55 26.93 9 0 .08-2 1.82-4.46 3.93-9.91 8.25-19.44 16.94-30.86 28-3.41 3.25-6.28 5.9-6.43 5.9s-.23-.46-.15-1.06c1.74-12.71 1.36-29-1.06-45.61-.23-2.13-.45-3.94-.38-4.02m220.92.23c.15.15-4.84 8-8 12.48-4.54 6.5-11.19 15.13-26.24 34-7.94 10-16.87 21.26-19.82 25s-5.52 7-5.6 7a27.5 27.5 0 0 1-2.11-3 156.5 156.5 0 0 0-30.63-33.81c-2.27-1.89-4.77-3.93-5.6-4.54a8 8 0 0 1-1.51-1.28c0-.23 12.85-5.75 22.61-9.68 17.09-7 40.39-15.28 57.86-20.65 9.15-2.87 18.91-5.67 19.06-5.52Zm5.82 1.51a18 18 0 0 1 4.31 2.12 256.3 256.3 0 0 1 50.6 38c4 3.93 13.91 14.22 13.76 14.29 0 0-3.48.3-7.56.61-31.84 2.42-72.6 9.15-111.78 18.6-2.65.61-5 1.13-5.14 1.13s2.79-2.94 6.5-6.5c23-22.16 33.51-36.15 45.91-61.11 1.74-3.7 3.25-6.88 3.4-7.11Zm-168.43 17.25c1.06.22 10.89 4.84 18.3 8.54 6.81 3.41 17 8.85 17.55 9.31.08.07-3.55 2-8 4.16-14.22 7.1-26.4 13.83-39.11 21.55-3.63 2.19-6.65 4-6.73 4-.3 0-.22-.3 1.82-4a158.1 158.1 0 0 0 15.35-41.67c.3-1.14.61-1.89.83-1.89Zm-9.83 1.81c.23.23-2.34 9.53-3.93 14.6a185.7 185.7 0 0 1-13.39 30.7c-1.21 2.12-3 5.22-4 7l-1.89 3-4.23-4.09a55.9 55.9 0 0 0-14.07-10.36 21 21 0 0 1-3.63-2.11c0-.61 12.93-12.33 22.84-20.8 7.11-6.13 22.08-18.15 22.31-17.93ZM262 188.32l3.7 2.42A290 290 0 0 1 291.77 210c4.3 3.55 12.62 11 14.29 12.86l.91 1-6.13 1.74c-34.64 9.6-61.41 18.15-92.65 29.65-3.48 1.28-6.43 2.34-6.65 2.34-.46 0-.83.38 7-6.81 20-18.37 37.66-38.64 50.82-58.38l2.65-4.09Zm-15.81 3.94c.15.15-10.21 14.74-16.41 23-7.41 9.83-20.57 26.32-29.65 37.06-3.78 4.46-7 8.16-7.18 8.24s-.31-1.06-.31-2.8a63.5 63.5 0 0 0-6.42-27.23c-1.74-3.47-2.05-4.31-1.67-4.68 1.45-1.3 23.45-13.85 37.33-21.34 9.38-5 24.05-12.4 24.28-12.25Zm-95.6 23.44a34 34 0 0 1 3.94 2 82 82 0 0 1 13 8.77c.16.15-1.81 1.74-4.38 3.63-7.19 5.14-18.08 13.39-24.43 18.46-6.66 5.29-6.88 5.44-6.13 4.31a139 139 0 0 0 10.14-17.47 141 141 0 0 0 6.35-15.81 13.1 13.1 0 0 1 1.51-3.86Zm25.49 20c.38-.08.83.6 2.87 3.63a54.6 54.6 0 0 1 8.48 22l.15 1.51-10.36 4c-18.53 7.18-35.63 14.29-47.2 19.59-3.25 1.51-8.92 4.23-12.63 6.05s-6.73 3.32-6.73 3.25 2.35-1.82 5.22-3.93c22.61-16.42 42.2-34.42 56.87-52.42 1.59-1.89 3-3.63 3.18-3.7Zm-11.72 2.87c.3.3-8.32 10.06-14.22 16a251 251 0 0 1-47 37.9c-2.27 1.43-4.31 2.72-4.53 2.87-.53.3.15-.45 8-9 5-5.37 8.78-9.91 13.09-15.5 2.87-3.71 3.4-4.24 7.56-7.19 11.13-8.02 36.74-25.41 37.07-25.11Z" style="fill:url(#c)"/><path d="M773.88 198.49c-2.28 0-4.55.22-6.81.22-46 2.45-77 22.68-95.11 62.19-15.51 35.74-13.81 82.45.17 118.4 16.27 35.13 42.55 53.7 86.42 60.7 9.28 1.52 15.5 6.61 33.48 27.6l22.12 25.92h40.12l-26.68-26.89c-14.74-14.75-26.67-27.59-26.67-28.72s5.64-3.6 12.47-5.68c22.51-6.81 41.2-24.2 54.28-50.85 10.58-21.4 12.1-28 13.62-54.65 4-79.26-37.82-128.81-107.41-128.24m35.17 207.27c-19.51 9.45-47.85 11.34-66.35 4.55-19.13-7-37.65-26.89-46-49.37-9.26-24.6-7.93-70 2.65-90.39 17-32.53 39.53-47.49 72.43-47.49 48.79 0 76.55 29.88 80.17 86.05 2.86 46.88-12.84 82.06-42.9 96.63Zm693.03-139.57c-16.83 0-29.71 6.81-38.39 20.23l-6.81 10.63v-27.63h-29.12V435.1h29.11v-53c0-48.42.6-54.08 7.37-67.33 9.32-18.17 25.37-27.24 40.88-22.9l10.4 3v-28.63h-13.44zM1331 264.67a83.4 83.4 0 0 0-17.78 2.09c-39 10.19-60.94 47.49-59.59 85.87 0 32.14 6.24 48.21 21.75 65.06 31.77 26.06 60.5 28.14 99.27 14.16 6.62-2.82 13.82-6.07 13.82-6.07v-26.07l-13.82 7.16c-31.38 13.66-55 13.66-74-2.43-12.07-12.3-17.39-27.05-19.84-43.87h117.43v-22.34c0-45.54-27.41-74.29-67.31-73.56Zm-47.49 72.65s4.34-28.41 20.43-39.55a43.86 43.86 0 0 1 25.32-8.11 40.52 40.52 0 0 1 24.6 8.3c14.74 11.34 17.22 39.14 17.22 39.14h-87.57zm-702.13-29.88c-31.58-19.13-45.58-32.92-43.87-49.19 4.9-45 60.5-38.77 91.29-21.75l.22-30.27s-17-7.37-41.42-7.76c-37.43-.57-61.63 11.71-73 36.69-16.6 36.84-1.88 64.66 51.4 95.68 29.92 17.41 43.15 32.52 43.15 49 0 34.05-41 45.94-83.4 24.57-8.72-4.33-16.09-8-16.48-8-1.52 9.65-.74 32.74-.74 32.74a180.7 180.7 0 0 0 32.53 9.24c48.4 9.65 92.44-13.06 96.61-49.92 3.62-34.61-8.9-52.76-56.32-81.11Zm1178.45-43.16a87.7 87.7 0 0 0-18 2.11c-38.92 10.19-60.85 47.49-59.35 85.87 0 32.1 6.22 48 21.73 64.84 31.77 26.09 60.5 28.19 99.47 14.18 6.59-2.81 13.77-6 13.77-6v-26.13l-13.79 7.2c-31.44 13.62-55.08 13.62-74-2.47-12.09-12.28-17.36-26.88-19.81-43.88h117.23v-22.33c0-45.32-27.41-74.1-67.31-73.34zm-47.49 72.65s4.38-28.37 20.45-39.73a43.7 43.7 0 0 1 25.31-8.13 40.5 40.5 0 0 1 24.59 8.33c14.75 11.34 17.22 39.33 17.22 39.33h-87.55v.2Zm-533.81-29.12c-31.57-19.09-45.54-32.92-43.85-49.19 4.9-45 60.51-38.77 91.3-21.75l.22-30.27s-17-7.37-41.42-7.72c-37.43-.56-61.63 11.71-73 36.69-16.63 36.86-1.69 64.67 51.44 95.68 29.89 17.39 43.11 32.31 43.11 48.79 0 34-41 46.13-83.38 24.57-8.67-4.34-16-7.92-16.48-7.92-1.52 9.65-.73 32.75-.73 32.75a198 198 0 0 0 32.31 9.24c48.44 9.67 92.51-13 96.65-49.88 3.6-34.44-8.89-52.59-56.17-80.95ZM1931 265.8c-16.83 0-29.86 6.83-38.38 20.26l-6.81 10.58v-27.59h-29.13v165.64h29.11v-53c0-48.4.58-54.08 7.37-67.31 9.33-18.15 25.37-27.23 40.88-22.88l10.4 3v-28.7Zm-984.07 41.05V201.33h-29.36v233.73h123.48v-27.61h-94.12zm679.07 32.9-24.21 63-23.27-63.32-23.63-70.17h-30.06c19.48 55.21 40.66 111.37 62 165.83 9.26.21 18.54 0 27.8 0l32.65-82.09 33.29-83.75h-28.73s-12.69 33.26-25.92 70.52Zm-611.41-202.11a16.1 16.1 0 0 0 11.93-4.77 15.84 15.84 0 0 0 4.9-11.71 15.56 15.56 0 0 0-4.9-11.71 16.32 16.32 0 0 0-11.72-4.56 16.08 16.08 0 0 0-11.92 4.73 15.78 15.78 0 0 0-4.73 11.71c0 4.77 1.52 8.72 4.73 11.71a15.9 15.9 0 0 0 11.71 4.56Zm-10.41-26.89a14.85 14.85 0 0 1 25.37 10.41 14.56 14.56 0 0 1-4.33 10.58 14.17 14.17 0 0 1-10.41 4.16 13.83 13.83 0 0 1-10.41-4.16 14.57 14.57 0 0 1-4.34-10.58 14 14 0 0 1 4.12-10.41m7 11.93h1.91c1.35 0 2.67 1.3 3.8 3.77l2.28 5.12h3.57l-2.82-5.69c-1.14-2.27-2.27-3.59-3.6-4a6.88 6.88 0 0 0 3.95-2.08 5.2 5.2 0 0 0 1.3-3.79 4.83 4.83 0 0 0-1.69-4c-1.3-1.09-3.38-1.67-6.07-1.67h-6v21.19h3v-8.89Zm0-9.85h2.65a6.8 6.8 0 0 1 4 1c.72.57.91 1.31.91 2.65 0 2.45-1.52 3.6-4.34 3.6h-3.25v-7.2Zm-485.01 7.96c0-7.37-.22-12.86-.39-16.09h.22a48.3 48.3 0 0 0 2.45 8.54l28.19 63h4.73l28.19-63.54a57 57 0 0 0 2.45-8h.22c-.57 6.29-.76 11.75-.76 16.11v55.58h9.65v-82.6H589l-25.92 57.47c-.95 2.27-2.28 5.68-4 10.19h-.39a65.4 65.4 0 0 0-3.77-9.8l-25.33-58.06h-12.86v82.63H526v-55.39h.16Zm96.04.15h8.33v51.46h-8.33zm4.16-18.86a5.87 5.87 0 0 0 4.34-1.74 6 6 0 0 0 1.91-4.34 5.41 5.41 0 0 0-1.89-4.33 6.06 6.06 0 0 0-4.38-1.74 5.93 5.93 0 0 0-4.35 1.74 6.06 6.06 0 0 0-1.89 4.33 5.2 5.2 0 0 0 1.91 4.34 6.2 6.2 0 0 0 4.33 1.74Zm63.54 71.45v-9.07a23.9 23.9 0 0 1-14.53 5.1c-6.07 0-11-2.08-14.59-6.07s-5.49-9.43-5.49-16.26c0-7.16 1.91-12.84 5.86-17.18a19.06 19.06 0 0 1 14.75-6.25 24.2 24.2 0 0 1 14 4.56v-9.65a28.86 28.86 0 0 0-13.62-3c-9.46 0-16.83 3-22.34 8.9s-8.28 13.81-8.28 23.42c0 8.54 2.45 15.72 7.54 21.21 5.32 5.63 12.11 8.5 20.43 8.5 6.44-.18 11.71-1.53 16.26-4.17Zm23.84-27.43c0-6.79 1.51-12.28 4.33-16 2.65-3.4 5.86-5.12 9.65-5.12 3.21 0 5.49.59 7.16 1.91V117a15.1 15.1 0 0 0-5.64-.75 14.4 14.4 0 0 0-9.11 3.25 19.9 19.9 0 0 0-6.39 10h-.22v-12.12h-9.43v59h9.45V146.1ZM768 177.54c8.9 0 16.05-2.86 21.36-8.54s7.94-13.23 7.94-22.69c0-9.65-2.43-17-7.37-22.51s-11.71-8.13-20.6-8.13-16.05 2.65-21.36 7.76c-5.69 5.64-8.68 13.6-8.68 23.82 0 8.89 2.43 16.26 7.55 21.75 5.29 5.68 12.29 8.52 21.16 8.52Zm-13.44-48q5.4-5.7 14.18-5.69c6.08 0 10.63 1.89 14 5.69 3.41 4 5.1 9.63 5.1 17.19 0 7.2-1.52 12.86-4.73 16.66-3.21 4-7.94 6.07-14.18 6.07a18.46 18.46 0 0 1-14.38-6.07c-3.58-4-5.29-9.46-5.29-16.66-.37-7.15 1.52-13 5.29-17.19Zm84.16 42.86a15.49 15.49 0 0 0 5.51-12.1 14.76 14.76 0 0 0-4.34-10.78c-2.3-2.27-5.85-4.33-11-6.42-4.56-1.9-7.38-3.6-8.9-4.92a8.12 8.12 0 0 1-2.45-6.07 7.15 7.15 0 0 1 2.83-5.86A11.66 11.66 0 0 1 828 124a22.24 22.24 0 0 1 13.44 4.19v-9.46a27.7 27.7 0 0 0-12.69-2.82c-6.07 0-11.19 1.67-15 4.9a16.18 16.18 0 0 0-2.08 22.86c2.08 2.25 5.64 4.55 10.58 6.61 4.73 2.09 7.94 4 9.65 5.49a7.21 7.21 0 0 1 2.45 5.64c0 5.5-3.77 8.35-11.15 8.35a23.4 23.4 0 0 1-15.33-5.64v10.19a27.94 27.94 0 0 0 14.53 3.6c7-.37 12.49-2.08 16.26-5.49h.05Zm45.02-56.73c-8.89 0-16 2.65-21.36 7.77-5.64 5.64-8.68 13.59-8.68 23.81 0 8.89 2.46 16.26 7.55 21.75 5.31 5.68 12.3 8.52 21.19 8.52 9.11 0 16-2.86 21.36-8.54s8-13.23 8-22.69c0-9.65-2.48-17-7.38-22.51-5.11-5.48-11.92-8.13-20.6-8.13Zm18.34 31c0 7.2-1.51 12.86-4.72 16.66-3.21 4-7.94 6.07-14.19 6.07a18.48 18.48 0 0 1-14.38-6.07c-3.57-4-5.29-9.46-5.29-16.66 0-7.59 1.89-13.44 5.69-17.39 3.57-3.77 8.3-5.68 14.18-5.68s10.56 1.91 14 5.68c3 4.16 4.73 9.82 4.73 17.39Zm25.55 29.53h9.43v-51.07h13.82v-7.94h-13.82v-9.11c0-8.28 3.21-12.44 9.85-12.44a13.1 13.1 0 0 1 6.2 1.51v-8.52a20.95 20.95 0 0 0-19.47 3.8c-4 3.77-6.08 8.67-6.08 15.31v9.67h-10v7.94h10v50.87Zm38.75-16.09c0 11.53 5.1 17.41 15.51 17.41 3.77 0 6.61-.61 8.89-2v-8.11a9.9 9.9 0 0 1-6.07 1.91c-3.21 0-5.47-.76-6.79-2.48s-2.1-4.55-2.1-8.5v-33.23h15v-7.94h-15V99.78c-3.26 1.13-6.44 2.08-9.46 3v14.36h-10.19v7.94h10.19v35Zm1014.88 108.73a16.22 16.22 0 0 0-11.71-4.56 16.21 16.21 0 0 0-16.65 16.48 15.47 15.47 0 0 0 4.7 11.71 16.64 16.64 0 0 0 11.93 4.56 16.28 16.28 0 0 0 11.93-4.73 16 16 0 0 0 4.88-11.71 16.4 16.4 0 0 0-5.1-11.75Zm-1.52 22.33a15.2 15.2 0 0 1-20.81 0 14.7 14.7 0 0 1-4.34-10.62 14.88 14.88 0 0 1 25.15-10.41 14.3 14.3 0 0 1 4.34 10.41 13.58 13.58 0 0 1-4.34 10.62m-8.5-9.65a8.17 8.17 0 0 0 4-2.08 5.2 5.2 0 0 0 1.3-3.81 4.81 4.81 0 0 0-1.69-4c-1.3-1.09-3.4-1.67-6.07-1.67h-6v21.16h3v-8.89h1.89c1.3 0 2.6 1.3 3.77 3.77l2.25 5.1h3.61l-2.82-5.68c-1-2.48-2.11-3.61-3.25-4Zm-2.08-1.9h-3.25v-7.16h2.67a6.7 6.7 0 0 1 4 .93c.75.57.93 1.3.93 2.65 0 2.45-1.52 3.58-4.34 3.58ZM256.08 504.25h2.65v-21.17h6.99v-2.65h-16.64v2.65h7zm16.04-15.91a39 39 0 0 0-.15-4.7 13 13 0 0 0 .73 2.45l8.13 18.16h1.3l8.15-18.33c.22-.57.39-1.3.76-2.28a45 45 0 0 0-.18 4.55v16h2.82v-23.8h-3.4l-7.37 16.43c-.17.59-.76 1.73-1.13 3h-.21a18 18 0 0 0-1.09-2.82l-7.37-16.64h-3.81v23.83h2.7v-15.9h.15Z" style="fill:#a0aec0"/></svg>