<svg xmlns="http://www.w3.org/2000/svg" width="70" height="47" fill="none"><path fill="#A0AEC0" d="M17.326 42.378h-2.643q-.14-6.692-.772-12.585h-.023L9.864 42.378H7.85l-4-12.585h-.023q-.445 5.66-.56 12.585H.857q.233-8.422 1.169-15.791h3.275L9.115 38.19h.024l3.836-11.603h3.135q1.029 8.632 1.216 15.791m11.463-11.65q-1.614 8.76-4.258 12.73-2.059 3.06-4.515 3.06-.655 0-1.614-.393v-1.407q.468.069 1.1.07 1.146 0 1.848-.633.842-.77.842-1.73-.001-.656-.655-2.69l-2.9-9.007h2.596l2.081 6.736q.702 2.294.585 3.206 1.708-4.562 2.387-9.942z"/><path fill="#A0AEC0" fill-rule="evenodd" d="M47.68 4.718c-.324 0-.552.04-.782.096v.038h.037c.154.305.421.516.61.783.154.305.288.61.44.915l.038-.039c.269-.19.402-.495.402-.953-.115-.135-.133-.267-.23-.401-.114-.19-.362-.286-.515-.44" clip-rule="evenodd"/><path fill="#A0AEC0" fill-rule="evenodd" d="M67.14 21.299c-1.527-.038-2.71.114-3.701.534-.286.115-.744.115-.783.477.154.152.172.4.307.611.228.382.628.896.991 1.164.4.305.801.61 1.222.876.743.46 1.583.726 2.307 1.184.421.267.84.61 1.26.897.21.153.342.401.61.496v-.058c-.134-.171-.171-.42-.304-.611-.19-.19-.382-.363-.573-.552a9.1 9.1 0 0 0-1.984-1.927c-.61-.42-1.947-.993-2.194-1.697l-.039-.039c.42-.039.917-.192 1.317-.307.648-.172 1.24-.133 1.907-.304.306-.077.611-.173.918-.267v-.173c-.346-.342-.593-.801-.955-1.125a25.5 25.5 0 0 0-3.148-2.347c-.593-.382-1.356-.628-1.986-.954-.227-.114-.609-.17-.743-.363-.343-.42-.535-.972-.782-1.469a47 47 0 0 1-1.565-3.32c-.343-.743-.553-1.487-.973-2.174-1.966-3.244-4.102-5.208-7.384-7.136-.706-.401-1.545-.573-2.441-.783-.478-.02-.954-.057-1.431-.075-.306-.135-.612-.497-.878-.669-1.089-.686-3.892-2.174-4.694-.21-.515 1.241.763 2.462 1.202 3.092.325.438.745.935.973 1.43.133.325.172.669.306 1.012.305.839.59 1.774.992 2.557.21.4.438.82.705 1.182.154.21.42.305.478.65-.267.38-.287.953-.44 1.43-.686 2.157-.42 4.828.554 6.41.304.478 1.03 1.528 2.003 1.126.859-.343.668-1.43.916-2.384.057-.23.019-.382.133-.534v.038c.267.534.535 1.048.783 1.584.592.934 1.621 1.907 2.48 2.555.457.345.82.935 1.392 1.146v-.058h-.037c-.115-.171-.286-.248-.44-.38a9.4 9.4 0 0 1-.991-1.146c-.801-1.068-1.508-2.251-2.136-3.472-.307-.593-.573-1.241-.822-1.833-.114-.227-.114-.572-.305-.686-.287.42-.706.782-.915 1.296-.363.821-.4 1.832-.535 2.882-.076.02-.038 0-.076.038-.61-.152-.82-.782-1.05-1.314-.572-1.357-.668-3.532-.171-5.096.133-.4.707-1.66.477-2.041-.115-.364-.497-.572-.706-.86a7.6 7.6 0 0 1-.686-1.22c-.459-1.069-.689-2.252-1.183-3.32-.23-.497-.631-1.012-.954-1.47-.364-.514-.764-.877-1.05-1.487-.095-.21-.229-.554-.077-.782.038-.153.115-.21.268-.249.247-.21.954.057 1.201.172.707.285 1.298.554 1.889.953.267.192.554.554.896.65h.402c.61.133 1.297.037 1.87.21 1.01.324 1.926.8 2.747 1.316a16.93 16.93 0 0 1 5.952 6.525c.23.439.325.84.535 1.297.4.937.897 1.89 1.297 2.806.4.896.783 1.811 1.356 2.557.285.4 1.43.61 1.946.82.38.17.973.323 1.317.533.648.4 1.296.859 1.907 1.298.305.23 1.259.706 1.316 1.088" clip-rule="evenodd"/><path fill="#A0AEC0" d="M63.968 42.38H56.46V26.589h2.526v13.848h4.982z"/><path fill="#A0AEC0" fill-rule="evenodd" d="M45.09 39.221q-.96-1.544-.96-4.959 0-5.965 3.627-5.965 1.895 0 2.784 1.426.96 1.545.96 4.913 0 6.013-3.627 6.013-1.894 0-2.783-1.428m9.405 3.54-2.903-1.432c.259-.212.504-.44.726-.705q1.85-2.174 1.85-6.432 0-7.837-6.153-7.837-3.019 0-4.702 1.989-1.85 2.174-1.849 6.41 0 4.164 1.637 6.105 1.498 1.755 4.516 1.755 1.127 0 2.067-.278l3.78 2.2z" clip-rule="evenodd"/><path fill="#A0AEC0" d="M40.363 38.003q0 2.009-1.473 3.299-1.473 1.284-3.952 1.285-2.316-.002-4.491-1.474l.678-1.356q1.871.935 3.391.935 1.427-.002 2.234-.63c.537-.421.86-1.009.86-1.754 0-.937-.655-1.739-1.854-2.411-1.108-.608-3.322-1.877-3.322-1.877-1.199-.875-1.8-1.814-1.8-3.36q0-1.92 1.344-3.1 1.347-1.182 3.474-1.182 2.199 0 4 1.17l-.61 1.356q-1.541-.654-3.04-.654-1.215 0-1.87.585c-.438.389-.708.888-.708 1.497 0 .935.668 1.746 1.902 2.431a264 264 0 0 1 3.389 1.902c1.233.873 1.848 1.804 1.848 3.338m25.408 4.375h.419v-1.606h.548v-.329h-1.536v.329h.57zm3.186 0h.395v-1.935h-.594l-.483 1.32-.526-1.32h-.572v1.935h.374v-1.472h.02l.552 1.472h.284l.55-1.472z"/></svg>