<svg xmlns="http://www.w3.org/2000/svg" width="39" height="41" fill="none"><path fill="#A0AEC0" fill-rule="evenodd" d="M30.781 14.149c.08-.525.157-1.028.167-1.583-2.215-.274-3.097.236-3.445.732-1.167 1.666 1.113 5.748 2.087 7.492.25.448.43.771.514.973q.139.333.296.609c.67-1.423.497-2.865.328-4.266-.083-.693-.17-1.41-.147-2.1.023-.708.113-1.291.2-1.855zm-.874-.815c-.04-.278-.535-.357-1.006-.292-.47.066-.925.277-.887.556.03.217.423.587.887.587q.059 0 .118-.008c.31-.043.537-.24.645-.353.165-.172.26-.365.243-.49" clip-rule="evenodd"/><path fill="#A0AEC0" d="M35.895 6.783c-1.818-2.32-4.386-3.532-7.632-3.603a14.7 14.7 0 0 0-3.262.306c1.945.857 3.37 2.128 4.347 3.264 1.787 2.076 2.663 4.37 2.735 5.136a.9.9 0 0 1-.018.3c.028.8-.075 1.478-.176 2.133v.002c-.082.531-.167 1.08-.187 1.72-.02.606.058 1.25.14 1.931.2 1.662.424 3.536-.724 5.43l.056.07.135.17c4.445-6.984 5.98-15.08 4.586-16.859M8.378 28.445c.204.068.824.274 1.722-.803a82 82 0 0 1 3.008-3.407 6 6 0 0 1-.398-.375c-1.232-1.283-1.793-3.061-1.538-4.878.274-1.955.171-3.68.116-4.608a11 11 0 0 1-.026-.568c-.007-.337-.083-5.85 3.117-9.078l.048-.046.037-.036c-1.95-.634-6.804-1.886-9.756.205-1.815 1.284-2.647 3.675-2.476 7.105.055 1.085.742 4.952 1.918 8.798 1.359 4.446 2.9 7.249 4.228 7.691"/><path fill="#A0AEC0" fill-rule="evenodd" d="M12.282 19.137c-.206 1.475.245 2.914 1.238 3.948.78.814 1.808 1.264 2.863 1.267.121-.496.316-1.018.526-1.58l.084-.226c.108-.288.233-.567.366-.861.644-1.43 1.447-3.21.522-7.479-.179-.825-.608-1.304-1.313-1.465-1.546-.354-3.712.805-4.18 1.22q.006.133.018.322l.001.024v.001c.058.967.164 2.765-.125 4.83m4.117-5.814c-.408-.057-.777-.004-.964.137a.35.35 0 0 0-.146.235c-.024.168.094.353.167.45.204.27.504.456.8.498a1 1 0 0 0 .128.008c.494 0 .942-.384.982-.667.05-.355-.466-.591-.967-.661" clip-rule="evenodd"/><path fill="#A0AEC0" d="M12.934 28.522c.162.11.44.244.748.321 1.496.374 3.58.4 5.009-1.599.17-.237.117-.541.071-.702-.097-.34-.337-.648-.584-.75-.304-.126-.472-.195-.84.215-.244.273-.421.497-.577.695l-.003.004c-.685.867-.998 1.162-3.027 1.58-.42.085-.661.172-.797.236"/><path fill="#A0AEC0" d="M20.361 36.531c.58 1.446 1.458 2.71 3.94 2.18 2.395-.513 3.247-1.374 3.646-3.684.302-1.75.897-6.7.981-7.757-.104-2.107 1.035-2.529 1.669-2.712-.081-.115-.187-.247-.296-.384l-.002-.002c-.36-.449-.852-1.063-1.232-1.982-.058-.141-.243-.472-.457-.855-1.167-2.09-3.595-6.439-2.026-8.679.722-1.03 2.145-1.443 4.238-1.23-.278-.825-.976-2.356-2.263-3.875-1.495-1.764-4.143-3.88-8.272-3.947-2.096-.035-3.816.608-5.108 1.908-2.05 2.066-2.6 5.33-2.745 7.078q.143-.08.31-.165c.52-.263 1.563-.722 2.703-.84 1.9-.196 3.155.65 3.53 2.384 1.003 4.63.079 6.68-.596 8.175-.125.277-.242.539-.337.792l-.083.224c-.2.533-.383 1.025-.489 1.46.497-.127.91.044 1.135.138.567.234 1.04.8 1.233 1.476q.048.165.07.329a.6.6 0 0 1 .024.177c-.13 4.649.053 8.858.427 9.791"/><path fill="#A0AEC0" d="M31.9 27.445c1.031-.049 2.116-.274 2.764-.575.754-.349 1.285-.738 1.596-1.028l-.01.002-.015.003c-2.304.475-3.935.41-4.85-.193a2 2 0 0 1-.157-.115q-.111.037-.23.07l-.007.002c-.518.145-1.008.282-.944 1.595.136.111.715.292 1.854.239"/><path fill="#A0AEC0" fill-rule="evenodd" d="M37.118 23.638c.791.118 1.403.61 1.636 1.316.682 2.06-2.212 3.585-3.115 4.003-1.143.53-3.004.853-4.526.783l-.07-.004-.273-.024-.025.207-.008.07-.029.247c-.102 3.915-.666 6.4-1.827 8.05-1.227 1.745-2.924 2.232-4.418 2.552-.42.09-.897.155-1.398.155-.999 0-2.09-.26-2.99-1.11-.871-.82-1.214-1.867-1.418-2.493a8 8 0 0 0-.085-.252c-.41-1.105-.549-2.685-.63-4.717a78 78 0 0 1-.03-.95l-.021-.68c-1.38.604-2.995.711-4.721.28a4.8 4.8 0 0 1-1.35-.568 3 3 0 0 1-.716-.614c-1.376 1.143-2.684.976-3.403.736-1.285-.427-2.429-1.619-3.498-3.642-.754-1.426-1.483-3.283-2.166-5.519-1.19-3.89-1.945-7.992-2.012-9.34-.213-4.246.937-7.286 3.418-9.036 2.05-1.445 4.85-1.89 8.326-1.32a23 23 0 0 1 3.554.891c1.44-.853 3.126-1.268 5.033-1.238a18.6 18.6 0 0 1 2.89.264c.968-.3 2.825-.716 4.94-.69 3.966.047 7.253 1.59 9.506 4.465.851 1.086 1.58 3.487.216 8.757-.843 3.259-2.307 6.721-4.108 9.757.477-.013 1.13-.082 2.012-.264.506-.104.933-.128 1.306-.072m-1.11 1.112c.923-.19 1.478-.022 1.65.499.334 1.006-1.504 2.165-2.522 2.637-.906.42-2.352.686-3.604.686-.6 0-1.156-.062-1.588-.196-.204 1.877-.639 5.376-.892 6.84-.474 2.742-1.697 3.986-4.515 4.59a6.3 6.3 0 0 1-1.312.148c-2.7 0-3.555-2.133-3.905-3.007-.427-1.067-.576-4.568-.546-8.12-.974.88-2.193 1.334-3.578 1.334q-.855 0-1.786-.232c-.178-.044-1.74-.463-1.719-1.46.02-.911 1.322-1.18 1.813-1.28 1.725-.355 1.837-.497 2.373-1.176q.16-.206.39-.482v-.016l-.004-.045a5 5 0 0 1-2.218-.595 81 81 0 0 0-3.083 3.483c-.815.978-1.598 1.265-2.237 1.265a2.2 2.2 0 0 1-.702-.116c-1.75-.583-3.415-3.418-4.946-8.426-1.163-3.805-1.9-7.777-1.964-9.07-.193-3.838.8-6.555 2.948-8.075 1.801-1.274 4.325-1.66 7.5-1.15a21.6 21.6 0 0 1 3.92 1.026c1.339-.91 2.955-1.358 4.824-1.328a12.5 12.5 0 0 1 2.815.361c.408-.179 2.513-.815 5.003-.787 3.623.038 6.616 1.434 8.655 4.035.506.646.75 1.702.728 3.14-.02 1.31-.267 2.917-.715 4.647-.945 3.653-2.696 7.568-4.826 10.807.322.237 1.303.628 4.043.063" clip-rule="evenodd"/></svg>