<svg xmlns="http://www.w3.org/2000/svg" width="89" height="40" fill="none"><path fill="#A0AEC0" d="M33.729 19.887q-1.756 0-2.852 1.039c-.73.693-1.1 1.601-1.1 2.715q.001.864.274 1.585c.18.483.463.93.841 1.334q.572.607 2.268 1.654 2.079 1.268 2.73 2.07.653.804.652 1.684c0 .784-.258 1.41-.788 1.88q-.8.706-2.124.706-1.393-.001-2.434-.979-1.042-.975-1.054-2.593h-.433v3.92h.433c.132-.37.314-.56.553-.56.115 0 .385.079.804.227 1.021.363 1.86.538 2.518.538 1.136 0 2.105-.397 2.912-1.206.806-.807 1.214-1.782 1.214-2.92 0-.881-.27-1.666-.797-2.35s-1.553-1.482-3.086-2.397q-1.98-1.187-2.571-1.941c-.396-.503-.6-1.058-.6-1.668q.002-.991.721-1.586.715-.592 1.889-.591 1.325 0 2.199.789.87.79 1.016 2.199h.432v-3.398h-.402q-.073.26-.136.334-.06.076-.235.076-.212 0-.743-.175-1.138-.384-2.101-.386m14.128 0q-2.137 0-3.89 1.008a7.43 7.43 0 0 0-2.783 2.791 7.46 7.46 0 0 0-1.024 3.792c0 1.805.59 3.414 1.782 4.823q1.79 2.117 4.277 2.624.568.296 1.63 1.532c.8.931 1.477 1.602 2.033 2.002s1.156.694 1.79.888q.95.289 2.063.288c.898 0 1.703-.156 2.411-.478l-.159-.394q-.618.221-1.312.22-.941 0-1.896-.622-.953-.624-2.373-2.382c-.445-.56-.752-.915-.926-1.054q2.721-.53 4.467-2.639 1.744-2.11 1.744-4.808c0-2.135-.76-3.93-2.267-5.392-1.51-1.463-3.365-2.2-5.567-2.2m8.82 0 .023.462q1.423 0 1.6.842c.044.201.065.573.069 1.107l-.008 10.23q-.012 1.147-.326 1.465c-.21.21-.564.341-1.077.394l-.023.462H66.4l.242-2.32h-.432c-.123.632-.406 1.085-.857 1.342-.452.26-1.25.387-2.404.387h-.895q-1.559.001-1.797-1.13a2.4 2.4 0 0 1-.046-.485l.038-10.345c0-.762.096-1.274.296-1.524q.303-.373 1.092-.425l-.023-.462zm-8.668.56c1.608 0 2.922.634 3.936 1.912s1.517 3.03 1.517 5.248q0 3.153-1.532 5.05-1.535 1.898-4.073 1.897-2.435.002-3.95-1.957c-1.01-1.306-1.51-3.003-1.51-5.089q-.001-3.216 1.524-5.141 1.529-1.922 4.088-1.92m21.765 2.2a.66.66 0 0 0-.538.235c-.135.157-.176.346-.129.577q.07.335.372.584.298.248.644.25a.6.6 0 0 0 .516-.25.7.7 0 0 0 .114-.584 1 1 0 0 0-.357-.577.96.96 0 0 0-.622-.235m6.242 1.57q-.59 2.262-2.548 2.457l.015.433h1.524l-.03 5.11c.002.875.029 1.457.09 1.753.151.709.614 1.07 1.389 1.07q1.68 0 3.526-2.049l-.371-.318q-1.331 1.35-2.359 1.35-.632-.001-.781-.72a2 2 0 0 1-.038-.41l.015-5.786h2.328l-.022-.69h-2.298v-2.2zm9.002 1.926c-1.302 0-2.362.633-3.185 1.889q-1.232 1.886-.751 4.186c.19.898.567 1.595 1.145 2.085.577.491 1.309.736 2.184.736.815 0 1.95-.206 2.427-.622.479-.415.92-1.088 1.327-2.01l-.326-.34c-.65 1.195-1.961 1.797-2.95 1.797q-2.038-.002-2.503-2.23-.06-.285-.09-.607 2.427-.383 3.67-1.365c.826-.656 1.656-1.35 1.501-2.085a1.7 1.7 0 0 0-.667-1.04c-.353-.259-1.27-.394-1.782-.394m-14.235.053-2.806.645v.5l.97-.12q.706 0 .835.636.045.214.053.592l-.03 4.588q-.01.95-.22 1.115-.215.166-1.13.167l-.015.432h4.451l-.007-.432q-.93-.001-1.198-.145c-.176-.094-.297-.267-.35-.53-.04-.19-.057-.518-.06-.971l.015-6.477zm13.522.85q.403 0 .796.31.391.31.47.683c.254 1.22-.827 2.063-3.26 2.533-.07-.89.084-1.697.477-2.427.39-.729.898-1.1 1.517-1.1"/><path fill="#A0AEC0" fill-rule="evenodd" d="M3.296 2.368h24.148c-.613.99-1.19 2.05-1.734 3.163.294-.827.58-1.601.856-2.306H3.296c-1.15 0-2.085.935-2.085 2.085v24.687c5.249-2.014 13.116-3.753 18.583-3.69-.45 3.274-.647 6.248-.594 8.577H3.296a2.95 2.95 0 0 1-2.943-2.942V5.31a2.95 2.95 0 0 1 2.943-2.943" clip-rule="evenodd"/><path fill="#A0AEC0" d="M33.078 1.497C31.424.022 29.42.615 27.445 2.37c-.293.26-.586.55-.877.858-3.381 3.587-6.52 10.23-7.494 15.304.38.77.676 1.753.872 2.503.05.193.095.374.13.528.087.364.133.6.133.6s-.03-.115-.155-.476l-.081-.233-.052-.13c-.22-.512-.83-1.594-1.1-2.065a53 53 0 0 0-.602 1.884c.775 1.419 1.248 3.849 1.248 3.849s-.041-.158-.236-.707c-.173-.487-1.034-1.995-1.238-2.348-.35 1.288-.488 2.158-.363 2.37.243.41.474 1.118.677 1.9.459 1.765.778 3.912.778 3.912l.027.362a36 36 0 0 0 .09 4.405c.151 1.837.438 3.416.802 4.26l.248-.134c-.536-1.665-.753-3.846-.658-6.362.144-3.845 1.029-8.482 2.664-13.315 2.762-7.297 6.595-13.15 10.103-15.946-3.197 2.887-7.524 12.233-8.82 15.694-1.45 3.875-2.478 7.512-3.097 10.997 1.068-3.267 4.524-4.671 4.524-4.671s1.695-2.09 3.675-5.076c-1.186.27-3.134.733-3.787 1.008-.962.403-1.222.541-1.222.541s3.118-1.899 5.793-2.758c3.679-5.794 7.687-14.025 3.65-17.626"/></svg>