<svg width="1440" height="341" viewBox="0 0 1440 341" fill="none" xmlns="http://www.w3.org/2000/svg">
<g opacity="0.5" clip-path="url(#clip0_4008_16891)">
<rect width="1440" height="341" fill="url(#paint0_radial_4008_16891)"/>
<mask id="mask0_4008_16891" style="mask-type:alpha" maskUnits="userSpaceOnUse" x="0" y="0" width="1440" height="341">
<rect width="1440" height="341" fill="url(#paint1_radial_4008_16891)"/>
</mask>
<g mask="url(#mask0_4008_16891)">
<g opacity="0.1">
<rect x="-29.75" y="0.25" width="49.5" height="49.5" stroke="#2DD4BF" stroke-width="0.5"/>
<rect x="20.25" y="0.25" width="49.5" height="49.5" stroke="#2DD4BF" stroke-width="0.5"/>
<rect x="70.25" y="0.25" width="49.5" height="49.5" stroke="#2DD4BF" stroke-width="0.5"/>
<rect x="120.25" y="0.25" width="49.5" height="49.5" stroke="#2DD4BF" stroke-width="0.5"/>
<rect x="170.25" y="0.25" width="49.5" height="49.5" stroke="#2DD4BF" stroke-width="0.5"/>
<rect x="220.25" y="0.25" width="49.5" height="49.5" stroke="#2DD4BF" stroke-width="0.5"/>
<rect x="270.25" y="0.25" width="49.5" height="49.5" stroke="#2DD4BF" stroke-width="0.5"/>
<rect x="320.25" y="0.25" width="49.5" height="49.5" stroke="#2DD4BF" stroke-width="0.5"/>
<rect x="370.25" y="0.25" width="49.5" height="49.5" stroke="#2DD4BF" stroke-width="0.5"/>
<rect x="420.25" y="0.25" width="49.5" height="49.5" stroke="#2DD4BF" stroke-width="0.5"/>
<rect x="470.25" y="0.25" width="49.5" height="49.5" stroke="#2DD4BF" stroke-width="0.5"/>
<rect x="520.25" y="0.25" width="49.5" height="49.5" stroke="#2DD4BF" stroke-width="0.5"/>
<rect x="570.25" y="0.25" width="49.5" height="49.5" stroke="#2DD4BF" stroke-width="0.5"/>
<rect x="620.25" y="0.25" width="49.5" height="49.5" stroke="#2DD4BF" stroke-width="0.5"/>
<rect x="670.25" y="0.25" width="49.5" height="49.5" stroke="#2DD4BF" stroke-width="0.5"/>
<rect x="720.25" y="0.25" width="49.5" height="49.5" stroke="#2DD4BF" stroke-width="0.5"/>
<rect x="770.25" y="0.25" width="49.5" height="49.5" stroke="#2DD4BF" stroke-width="0.5"/>
<rect x="820.25" y="0.25" width="49.5" height="49.5" stroke="#2DD4BF" stroke-width="0.5"/>
<rect x="870.25" y="0.25" width="49.5" height="49.5" stroke="#2DD4BF" stroke-width="0.5"/>
<rect x="920.25" y="0.25" width="49.5" height="49.5" stroke="#2DD4BF" stroke-width="0.5"/>
<rect x="970.25" y="0.25" width="49.5" height="49.5" stroke="#2DD4BF" stroke-width="0.5"/>
<rect x="1020.25" y="0.25" width="49.5" height="49.5" stroke="#2DD4BF" stroke-width="0.5"/>
<rect x="1070.25" y="0.25" width="49.5" height="49.5" stroke="#2DD4BF" stroke-width="0.5"/>
<rect x="1120.25" y="0.25" width="49.5" height="49.5" stroke="#2DD4BF" stroke-width="0.5"/>
<rect x="1170.25" y="0.25" width="49.5" height="49.5" stroke="#2DD4BF" stroke-width="0.5"/>
<rect x="1220.25" y="0.25" width="49.5" height="49.5" stroke="#2DD4BF" stroke-width="0.5"/>
<rect x="1270.25" y="0.25" width="49.5" height="49.5" stroke="#2DD4BF" stroke-width="0.5"/>
<rect x="1320.25" y="0.25" width="49.5" height="49.5" stroke="#2DD4BF" stroke-width="0.5"/>
<rect x="1370.25" y="0.25" width="49.5" height="49.5" stroke="#2DD4BF" stroke-width="0.5"/>
<rect x="1420.25" y="0.25" width="49.5" height="49.5" stroke="#2DD4BF" stroke-width="0.5"/>
<rect x="-29.75" y="50.25" width="49.5" height="49.5" stroke="#2DD4BF" stroke-width="0.5"/>
<rect x="20.25" y="50.25" width="49.5" height="49.5" stroke="#2DD4BF" stroke-width="0.5"/>
<rect x="70.25" y="50.25" width="49.5" height="49.5" stroke="#2DD4BF" stroke-width="0.5"/>
<rect x="120.25" y="50.25" width="49.5" height="49.5" stroke="#2DD4BF" stroke-width="0.5"/>
<rect x="170.25" y="50.25" width="49.5" height="49.5" stroke="#2DD4BF" stroke-width="0.5"/>
<rect x="220.25" y="50.25" width="49.5" height="49.5" stroke="#2DD4BF" stroke-width="0.5"/>
<rect x="270.25" y="50.25" width="49.5" height="49.5" stroke="#2DD4BF" stroke-width="0.5"/>
<rect x="320.25" y="50.25" width="49.5" height="49.5" stroke="#2DD4BF" stroke-width="0.5"/>
<rect x="370.25" y="50.25" width="49.5" height="49.5" stroke="#2DD4BF" stroke-width="0.5"/>
<rect x="420.25" y="50.25" width="49.5" height="49.5" stroke="#2DD4BF" stroke-width="0.5"/>
<rect x="470.25" y="50.25" width="49.5" height="49.5" stroke="#2DD4BF" stroke-width="0.5"/>
<rect x="520.25" y="50.25" width="49.5" height="49.5" stroke="#2DD4BF" stroke-width="0.5"/>
<rect x="570.25" y="50.25" width="49.5" height="49.5" stroke="#2DD4BF" stroke-width="0.5"/>
<rect x="620.25" y="50.25" width="49.5" height="49.5" stroke="#2DD4BF" stroke-width="0.5"/>
<rect x="670.25" y="50.25" width="49.5" height="49.5" stroke="#2DD4BF" stroke-width="0.5"/>
<rect x="720.25" y="50.25" width="49.5" height="49.5" stroke="#2DD4BF" stroke-width="0.5"/>
<rect x="770.25" y="50.25" width="49.5" height="49.5" stroke="#2DD4BF" stroke-width="0.5"/>
<rect x="820.25" y="50.25" width="49.5" height="49.5" stroke="#2DD4BF" stroke-width="0.5"/>
<rect x="870.25" y="50.25" width="49.5" height="49.5" stroke="#2DD4BF" stroke-width="0.5"/>
<rect x="920.25" y="50.25" width="49.5" height="49.5" stroke="#2DD4BF" stroke-width="0.5"/>
<rect x="970.25" y="50.25" width="49.5" height="49.5" stroke="#2DD4BF" stroke-width="0.5"/>
<rect x="1020.25" y="50.25" width="49.5" height="49.5" stroke="#2DD4BF" stroke-width="0.5"/>
<rect x="1070.25" y="50.25" width="49.5" height="49.5" stroke="#2DD4BF" stroke-width="0.5"/>
<rect x="1120.25" y="50.25" width="49.5" height="49.5" stroke="#2DD4BF" stroke-width="0.5"/>
<rect x="1170.25" y="50.25" width="49.5" height="49.5" stroke="#2DD4BF" stroke-width="0.5"/>
<rect x="1220.25" y="50.25" width="49.5" height="49.5" stroke="#2DD4BF" stroke-width="0.5"/>
<rect x="1270.25" y="50.25" width="49.5" height="49.5" stroke="#2DD4BF" stroke-width="0.5"/>
<rect x="1320.25" y="50.25" width="49.5" height="49.5" stroke="#2DD4BF" stroke-width="0.5"/>
<rect x="1370.25" y="50.25" width="49.5" height="49.5" stroke="#2DD4BF" stroke-width="0.5"/>
<rect x="1420.25" y="50.25" width="49.5" height="49.5" stroke="#2DD4BF" stroke-width="0.5"/>
<rect x="-29.75" y="100.25" width="49.5" height="49.5" stroke="#2DD4BF" stroke-width="0.5"/>
<rect x="20.25" y="100.25" width="49.5" height="49.5" stroke="#2DD4BF" stroke-width="0.5"/>
<rect x="70.25" y="100.25" width="49.5" height="49.5" stroke="#2DD4BF" stroke-width="0.5"/>
<rect x="120.25" y="100.25" width="49.5" height="49.5" stroke="#2DD4BF" stroke-width="0.5"/>
<rect x="170.25" y="100.25" width="49.5" height="49.5" stroke="#2DD4BF" stroke-width="0.5"/>
<rect x="220.25" y="100.25" width="49.5" height="49.5" stroke="#2DD4BF" stroke-width="0.5"/>
<rect x="270.25" y="100.25" width="49.5" height="49.5" stroke="#2DD4BF" stroke-width="0.5"/>
<rect x="320.25" y="100.25" width="49.5" height="49.5" stroke="#2DD4BF" stroke-width="0.5"/>
<rect x="370.25" y="100.25" width="49.5" height="49.5" stroke="#2DD4BF" stroke-width="0.5"/>
<rect x="420.25" y="100.25" width="49.5" height="49.5" stroke="#2DD4BF" stroke-width="0.5"/>
<rect x="470.25" y="100.25" width="49.5" height="49.5" stroke="#2DD4BF" stroke-width="0.5"/>
<rect x="520.25" y="100.25" width="49.5" height="49.5" stroke="#2DD4BF" stroke-width="0.5"/>
<rect x="570.25" y="100.25" width="49.5" height="49.5" stroke="#2DD4BF" stroke-width="0.5"/>
<rect x="620.25" y="100.25" width="49.5" height="49.5" stroke="#2DD4BF" stroke-width="0.5"/>
<rect x="670.25" y="100.25" width="49.5" height="49.5" stroke="#2DD4BF" stroke-width="0.5"/>
<rect x="720.25" y="100.25" width="49.5" height="49.5" stroke="#2DD4BF" stroke-width="0.5"/>
<rect x="770.25" y="100.25" width="49.5" height="49.5" stroke="#2DD4BF" stroke-width="0.5"/>
<rect x="820.25" y="100.25" width="49.5" height="49.5" stroke="#2DD4BF" stroke-width="0.5"/>
<rect x="870.25" y="100.25" width="49.5" height="49.5" stroke="#2DD4BF" stroke-width="0.5"/>
<rect x="920.25" y="100.25" width="49.5" height="49.5" stroke="#2DD4BF" stroke-width="0.5"/>
<rect x="970.25" y="100.25" width="49.5" height="49.5" stroke="#2DD4BF" stroke-width="0.5"/>
<rect x="1020.25" y="100.25" width="49.5" height="49.5" stroke="#2DD4BF" stroke-width="0.5"/>
<rect x="1070.25" y="100.25" width="49.5" height="49.5" stroke="#2DD4BF" stroke-width="0.5"/>
<rect x="1120.25" y="100.25" width="49.5" height="49.5" stroke="#2DD4BF" stroke-width="0.5"/>
<rect x="1170.25" y="100.25" width="49.5" height="49.5" stroke="#2DD4BF" stroke-width="0.5"/>
<rect x="1220.25" y="100.25" width="49.5" height="49.5" stroke="#2DD4BF" stroke-width="0.5"/>
<rect x="1270.25" y="100.25" width="49.5" height="49.5" stroke="#2DD4BF" stroke-width="0.5"/>
<rect x="1320.25" y="100.25" width="49.5" height="49.5" stroke="#2DD4BF" stroke-width="0.5"/>
<rect x="1370.25" y="100.25" width="49.5" height="49.5" stroke="#2DD4BF" stroke-width="0.5"/>
<rect x="1420.25" y="100.25" width="49.5" height="49.5" stroke="#2DD4BF" stroke-width="0.5"/>
<rect x="-29.75" y="150.25" width="49.5" height="49.5" stroke="#2DD4BF" stroke-width="0.5"/>
<rect x="20.25" y="150.25" width="49.5" height="49.5" stroke="#2DD4BF" stroke-width="0.5"/>
<rect x="70.25" y="150.25" width="49.5" height="49.5" stroke="#2DD4BF" stroke-width="0.5"/>
<rect x="120.25" y="150.25" width="49.5" height="49.5" stroke="#2DD4BF" stroke-width="0.5"/>
<rect x="170.25" y="150.25" width="49.5" height="49.5" stroke="#2DD4BF" stroke-width="0.5"/>
<rect x="220.25" y="150.25" width="49.5" height="49.5" stroke="#2DD4BF" stroke-width="0.5"/>
<rect x="270.25" y="150.25" width="49.5" height="49.5" stroke="#2DD4BF" stroke-width="0.5"/>
<rect x="320.25" y="150.25" width="49.5" height="49.5" stroke="#2DD4BF" stroke-width="0.5"/>
<rect x="370.25" y="150.25" width="49.5" height="49.5" stroke="#2DD4BF" stroke-width="0.5"/>
<rect x="420.25" y="150.25" width="49.5" height="49.5" stroke="#2DD4BF" stroke-width="0.5"/>
<rect x="470.25" y="150.25" width="49.5" height="49.5" stroke="#2DD4BF" stroke-width="0.5"/>
<rect x="520.25" y="150.25" width="49.5" height="49.5" stroke="#2DD4BF" stroke-width="0.5"/>
<rect x="570.25" y="150.25" width="49.5" height="49.5" stroke="#2DD4BF" stroke-width="0.5"/>
<rect x="620.25" y="150.25" width="49.5" height="49.5" stroke="#2DD4BF" stroke-width="0.5"/>
<rect x="670.25" y="150.25" width="49.5" height="49.5" stroke="#2DD4BF" stroke-width="0.5"/>
<rect x="720.25" y="150.25" width="49.5" height="49.5" stroke="#2DD4BF" stroke-width="0.5"/>
<rect x="770.25" y="150.25" width="49.5" height="49.5" stroke="#2DD4BF" stroke-width="0.5"/>
<rect x="820.25" y="150.25" width="49.5" height="49.5" stroke="#2DD4BF" stroke-width="0.5"/>
<rect x="870.25" y="150.25" width="49.5" height="49.5" stroke="#2DD4BF" stroke-width="0.5"/>
<rect x="920.25" y="150.25" width="49.5" height="49.5" stroke="#2DD4BF" stroke-width="0.5"/>
<rect x="970.25" y="150.25" width="49.5" height="49.5" stroke="#2DD4BF" stroke-width="0.5"/>
<rect x="1020.25" y="150.25" width="49.5" height="49.5" stroke="#2DD4BF" stroke-width="0.5"/>
<rect x="1070.25" y="150.25" width="49.5" height="49.5" stroke="#2DD4BF" stroke-width="0.5"/>
<rect x="1120.25" y="150.25" width="49.5" height="49.5" stroke="#2DD4BF" stroke-width="0.5"/>
<rect x="1170.25" y="150.25" width="49.5" height="49.5" stroke="#2DD4BF" stroke-width="0.5"/>
<rect x="1220.25" y="150.25" width="49.5" height="49.5" stroke="#2DD4BF" stroke-width="0.5"/>
<rect x="1270.25" y="150.25" width="49.5" height="49.5" stroke="#2DD4BF" stroke-width="0.5"/>
<rect x="1320.25" y="150.25" width="49.5" height="49.5" stroke="#2DD4BF" stroke-width="0.5"/>
<rect x="1370.25" y="150.25" width="49.5" height="49.5" stroke="#2DD4BF" stroke-width="0.5"/>
<rect x="1420.25" y="150.25" width="49.5" height="49.5" stroke="#2DD4BF" stroke-width="0.5"/>
<rect x="-29.75" y="200.25" width="49.5" height="49.5" stroke="#2DD4BF" stroke-width="0.5"/>
<rect x="20.25" y="200.25" width="49.5" height="49.5" stroke="#2DD4BF" stroke-width="0.5"/>
<rect x="70.25" y="200.25" width="49.5" height="49.5" stroke="#2DD4BF" stroke-width="0.5"/>
<rect x="120.25" y="200.25" width="49.5" height="49.5" stroke="#2DD4BF" stroke-width="0.5"/>
<rect x="170.25" y="200.25" width="49.5" height="49.5" stroke="#2DD4BF" stroke-width="0.5"/>
<rect x="220.25" y="200.25" width="49.5" height="49.5" stroke="#2DD4BF" stroke-width="0.5"/>
<rect x="270.25" y="200.25" width="49.5" height="49.5" stroke="#2DD4BF" stroke-width="0.5"/>
<rect x="320.25" y="200.25" width="49.5" height="49.5" stroke="#2DD4BF" stroke-width="0.5"/>
<rect x="370.25" y="200.25" width="49.5" height="49.5" stroke="#2DD4BF" stroke-width="0.5"/>
<rect x="420.25" y="200.25" width="49.5" height="49.5" stroke="#2DD4BF" stroke-width="0.5"/>
<rect x="470.25" y="200.25" width="49.5" height="49.5" stroke="#2DD4BF" stroke-width="0.5"/>
<rect x="520.25" y="200.25" width="49.5" height="49.5" stroke="#2DD4BF" stroke-width="0.5"/>
<rect x="570.25" y="200.25" width="49.5" height="49.5" stroke="#2DD4BF" stroke-width="0.5"/>
<rect x="620.25" y="200.25" width="49.5" height="49.5" stroke="#2DD4BF" stroke-width="0.5"/>
<rect x="670.25" y="200.25" width="49.5" height="49.5" stroke="#2DD4BF" stroke-width="0.5"/>
<rect x="720.25" y="200.25" width="49.5" height="49.5" stroke="#2DD4BF" stroke-width="0.5"/>
<rect x="770.25" y="200.25" width="49.5" height="49.5" stroke="#2DD4BF" stroke-width="0.5"/>
<rect x="820.25" y="200.25" width="49.5" height="49.5" stroke="#2DD4BF" stroke-width="0.5"/>
<rect x="870.25" y="200.25" width="49.5" height="49.5" stroke="#2DD4BF" stroke-width="0.5"/>
<rect x="920.25" y="200.25" width="49.5" height="49.5" stroke="#2DD4BF" stroke-width="0.5"/>
<rect x="970.25" y="200.25" width="49.5" height="49.5" stroke="#2DD4BF" stroke-width="0.5"/>
<rect x="1020.25" y="200.25" width="49.5" height="49.5" stroke="#2DD4BF" stroke-width="0.5"/>
<rect x="1070.25" y="200.25" width="49.5" height="49.5" stroke="#2DD4BF" stroke-width="0.5"/>
<rect x="1120.25" y="200.25" width="49.5" height="49.5" stroke="#2DD4BF" stroke-width="0.5"/>
<rect x="1170.25" y="200.25" width="49.5" height="49.5" stroke="#2DD4BF" stroke-width="0.5"/>
<rect x="1220.25" y="200.25" width="49.5" height="49.5" stroke="#2DD4BF" stroke-width="0.5"/>
<rect x="1270.25" y="200.25" width="49.5" height="49.5" stroke="#2DD4BF" stroke-width="0.5"/>
<rect x="1320.25" y="200.25" width="49.5" height="49.5" stroke="#2DD4BF" stroke-width="0.5"/>
<rect x="1370.25" y="200.25" width="49.5" height="49.5" stroke="#2DD4BF" stroke-width="0.5"/>
<rect x="1420.25" y="200.25" width="49.5" height="49.5" stroke="#2DD4BF" stroke-width="0.5"/>
<rect x="-29.75" y="250.25" width="49.5" height="49.5" stroke="#2DD4BF" stroke-width="0.5"/>
<rect x="20.25" y="250.25" width="49.5" height="49.5" stroke="#2DD4BF" stroke-width="0.5"/>
<rect x="70.25" y="250.25" width="49.5" height="49.5" stroke="#2DD4BF" stroke-width="0.5"/>
<rect x="120.25" y="250.25" width="49.5" height="49.5" stroke="#2DD4BF" stroke-width="0.5"/>
<rect x="170.25" y="250.25" width="49.5" height="49.5" stroke="#2DD4BF" stroke-width="0.5"/>
<rect x="220.25" y="250.25" width="49.5" height="49.5" stroke="#2DD4BF" stroke-width="0.5"/>
<rect x="270.25" y="250.25" width="49.5" height="49.5" stroke="#2DD4BF" stroke-width="0.5"/>
<rect x="320.25" y="250.25" width="49.5" height="49.5" stroke="#2DD4BF" stroke-width="0.5"/>
<rect x="370.25" y="250.25" width="49.5" height="49.5" stroke="#2DD4BF" stroke-width="0.5"/>
<rect x="420.25" y="250.25" width="49.5" height="49.5" stroke="#2DD4BF" stroke-width="0.5"/>
<rect x="470.25" y="250.25" width="49.5" height="49.5" stroke="#2DD4BF" stroke-width="0.5"/>
<rect x="520.25" y="250.25" width="49.5" height="49.5" stroke="#2DD4BF" stroke-width="0.5"/>
<rect x="570.25" y="250.25" width="49.5" height="49.5" stroke="#2DD4BF" stroke-width="0.5"/>
<rect x="620.25" y="250.25" width="49.5" height="49.5" stroke="#2DD4BF" stroke-width="0.5"/>
<rect x="670.25" y="250.25" width="49.5" height="49.5" stroke="#2DD4BF" stroke-width="0.5"/>
<rect x="720.25" y="250.25" width="49.5" height="49.5" stroke="#2DD4BF" stroke-width="0.5"/>
<rect x="770.25" y="250.25" width="49.5" height="49.5" stroke="#2DD4BF" stroke-width="0.5"/>
<rect x="820.25" y="250.25" width="49.5" height="49.5" stroke="#2DD4BF" stroke-width="0.5"/>
<rect x="870.25" y="250.25" width="49.5" height="49.5" stroke="#2DD4BF" stroke-width="0.5"/>
<rect x="920.25" y="250.25" width="49.5" height="49.5" stroke="#2DD4BF" stroke-width="0.5"/>
<rect x="970.25" y="250.25" width="49.5" height="49.5" stroke="#2DD4BF" stroke-width="0.5"/>
<rect x="1020.25" y="250.25" width="49.5" height="49.5" stroke="#2DD4BF" stroke-width="0.5"/>
<rect x="1070.25" y="250.25" width="49.5" height="49.5" stroke="#2DD4BF" stroke-width="0.5"/>
<rect x="1120.25" y="250.25" width="49.5" height="49.5" stroke="#2DD4BF" stroke-width="0.5"/>
<rect x="1170.25" y="250.25" width="49.5" height="49.5" stroke="#2DD4BF" stroke-width="0.5"/>
<rect x="1220.25" y="250.25" width="49.5" height="49.5" stroke="#2DD4BF" stroke-width="0.5"/>
<rect x="1270.25" y="250.25" width="49.5" height="49.5" stroke="#2DD4BF" stroke-width="0.5"/>
<rect x="1320.25" y="250.25" width="49.5" height="49.5" stroke="#2DD4BF" stroke-width="0.5"/>
<rect x="1370.25" y="250.25" width="49.5" height="49.5" stroke="#2DD4BF" stroke-width="0.5"/>
<rect x="1420.25" y="250.25" width="49.5" height="49.5" stroke="#2DD4BF" stroke-width="0.5"/>
<rect x="-29.75" y="300.25" width="49.5" height="49.5" stroke="#2DD4BF" stroke-width="0.5"/>
<rect x="20.25" y="300.25" width="49.5" height="49.5" stroke="#2DD4BF" stroke-width="0.5"/>
<rect x="70.25" y="300.25" width="49.5" height="49.5" stroke="#2DD4BF" stroke-width="0.5"/>
<rect x="120.25" y="300.25" width="49.5" height="49.5" stroke="#2DD4BF" stroke-width="0.5"/>
<rect x="170.25" y="300.25" width="49.5" height="49.5" stroke="#2DD4BF" stroke-width="0.5"/>
<rect x="220.25" y="300.25" width="49.5" height="49.5" stroke="#2DD4BF" stroke-width="0.5"/>
<rect x="270.25" y="300.25" width="49.5" height="49.5" stroke="#2DD4BF" stroke-width="0.5"/>
<rect x="320.25" y="300.25" width="49.5" height="49.5" stroke="#2DD4BF" stroke-width="0.5"/>
<rect x="370.25" y="300.25" width="49.5" height="49.5" stroke="#2DD4BF" stroke-width="0.5"/>
<rect x="420.25" y="300.25" width="49.5" height="49.5" stroke="#2DD4BF" stroke-width="0.5"/>
<rect x="470.25" y="300.25" width="49.5" height="49.5" stroke="#2DD4BF" stroke-width="0.5"/>
<rect x="520.25" y="300.25" width="49.5" height="49.5" stroke="#2DD4BF" stroke-width="0.5"/>
<rect x="570.25" y="300.25" width="49.5" height="49.5" stroke="#2DD4BF" stroke-width="0.5"/>
<rect x="620.25" y="300.25" width="49.5" height="49.5" stroke="#2DD4BF" stroke-width="0.5"/>
<rect x="670.25" y="300.25" width="49.5" height="49.5" stroke="#2DD4BF" stroke-width="0.5"/>
<rect x="720.25" y="300.25" width="49.5" height="49.5" stroke="#2DD4BF" stroke-width="0.5"/>
<rect x="770.25" y="300.25" width="49.5" height="49.5" stroke="#2DD4BF" stroke-width="0.5"/>
<rect x="820.25" y="300.25" width="49.5" height="49.5" stroke="#2DD4BF" stroke-width="0.5"/>
<rect x="870.25" y="300.25" width="49.5" height="49.5" stroke="#2DD4BF" stroke-width="0.5"/>
<rect x="920.25" y="300.25" width="49.5" height="49.5" stroke="#2DD4BF" stroke-width="0.5"/>
<rect x="970.25" y="300.25" width="49.5" height="49.5" stroke="#2DD4BF" stroke-width="0.5"/>
<rect x="1020.25" y="300.25" width="49.5" height="49.5" stroke="#2DD4BF" stroke-width="0.5"/>
<rect x="1070.25" y="300.25" width="49.5" height="49.5" stroke="#2DD4BF" stroke-width="0.5"/>
<rect x="1120.25" y="300.25" width="49.5" height="49.5" stroke="#2DD4BF" stroke-width="0.5"/>
<rect x="1170.25" y="300.25" width="49.5" height="49.5" stroke="#2DD4BF" stroke-width="0.5"/>
<rect x="1220.25" y="300.25" width="49.5" height="49.5" stroke="#2DD4BF" stroke-width="0.5"/>
<rect x="1270.25" y="300.25" width="49.5" height="49.5" stroke="#2DD4BF" stroke-width="0.5"/>
<rect x="1320.25" y="300.25" width="49.5" height="49.5" stroke="#2DD4BF" stroke-width="0.5"/>
<rect x="1370.25" y="300.25" width="49.5" height="49.5" stroke="#2DD4BF" stroke-width="0.5"/>
<rect x="1420.25" y="300.25" width="49.5" height="49.5" stroke="#2DD4BF" stroke-width="0.5"/>
</g>
</g>
</g>
<defs>
<radialGradient id="paint1_radial_4008_16891" cx="0" cy="0" r="1" gradientUnits="userSpaceOnUse" gradientTransform="translate(720 170.5) rotate(90) scale(284.281 1200.48)">
<stop stop-color="#030712"/>
<stop offset="0.769231" stop-color="#030712" stop-opacity="0.5"/>
</radialGradient>
<clipPath id="clip0_4008_16891">
<rect width="1440" height="341" fill="white"/>
</clipPath>
</defs>
</svg>
