<svg width="359" height="188" viewBox="0 0 359 188" fill="none" xmlns="http://www.w3.org/2000/svg">
<rect x="8.5" y="0.5" width="343" height="150" rx="7.21587" fill="#F9FAFB"/>
<rect x="8.5" y="0.5" width="343" height="150" rx="7.21587" stroke="#F9FAFB"/>
<g opacity="0.78">
<path d="M18 9.9585C18.3438 9.9585 18.6719 10.1616 18.8594 10.4585C19.0312 10.771 19.0312 11.1616 18.8594 11.4585C18.6719 11.771 18.3438 11.9585 18 11.9585C17.6406 11.9585 17.3125 11.771 17.125 11.4585C16.9531 11.1616 16.9531 10.771 17.125 10.4585C17.3125 10.1616 17.6406 9.9585 18 9.9585ZM19.875 10.5835H24.625C24.8281 10.5835 25 10.7554 25 10.9585C25 11.1772 24.8281 11.3335 24.625 11.3335H19.875C19.6562 11.3335 19.5 11.1772 19.5 10.9585C19.5 10.7554 19.6562 10.5835 19.875 10.5835ZM19.875 13.0835H24.625C24.8281 13.0835 25 13.2554 25 13.4585C25 13.6772 24.8281 13.8335 24.625 13.8335H19.875C19.6562 13.8335 19.5 13.6772 19.5 13.4585C19.5 13.2554 19.6562 13.0835 19.875 13.0835ZM19.875 15.5835H24.625C24.8281 15.5835 25 15.7554 25 15.9585C25 16.1772 24.8281 16.3335 24.625 16.3335H19.875C19.6562 16.3335 19.5 16.1772 19.5 15.9585C19.5 15.7554 19.6562 15.5835 19.875 15.5835ZM18 13.8335C18.2031 13.8335 18.375 13.6772 18.375 13.4585C18.375 13.2554 18.2031 13.0835 18 13.0835C17.7812 13.0835 17.625 13.2554 17.625 13.4585C17.625 13.6772 17.7812 13.8335 18 13.8335ZM18 12.4585C18.3438 12.4585 18.6719 12.6616 18.8594 12.9585C19.0312 13.271 19.0312 13.6616 18.8594 13.9585C18.6719 14.271 18.3438 14.4585 18 14.4585C17.6406 14.4585 17.3125 14.271 17.125 13.9585C16.9531 13.6616 16.9531 13.271 17.125 12.9585C17.3125 12.6616 17.6406 12.4585 18 12.4585ZM17.625 15.9585C17.625 16.1772 17.7812 16.3335 18 16.3335C18.2031 16.3335 18.375 16.1772 18.375 15.9585C18.375 15.7554 18.2031 15.5835 18 15.5835C17.7812 15.5835 17.625 15.7554 17.625 15.9585ZM19 15.9585C19 16.3179 18.7969 16.646 18.5 16.8335C18.1875 17.0054 17.7969 17.0054 17.5 16.8335C17.1875 16.646 17 16.3179 17 15.9585C17 15.6147 17.1875 15.2866 17.5 15.0991C17.7969 14.9272 18.1875 14.9272 18.5 15.0991C18.7969 15.2866 19 15.6147 19 15.9585Z" fill="#6B7280"/>
<path opacity="0.7" d="M29.483 10.467V9.68577H34.9375V10.467H32.6506V16.9585H31.7699V10.467H29.483ZM37.608 17.0721C37.1155 17.0721 36.6835 16.9549 36.3118 16.7206C35.9425 16.4862 35.6536 16.1583 35.4453 15.7369C35.2393 15.3155 35.1364 14.8231 35.1364 14.2596C35.1364 13.6915 35.2393 13.1955 35.4453 12.7717C35.6536 12.3479 35.9425 12.0189 36.3118 11.7845C36.6835 11.5501 37.1155 11.4329 37.608 11.4329C38.1004 11.4329 38.5313 11.5501 38.9006 11.7845C39.2723 12.0189 39.5611 12.3479 39.767 12.7717C39.9754 13.1955 40.0795 13.6915 40.0795 14.2596C40.0795 14.8231 39.9754 15.3155 39.767 15.7369C39.5611 16.1583 39.2723 16.4862 38.9006 16.7206C38.5313 16.9549 38.1004 17.0721 37.608 17.0721ZM37.608 16.3193C37.982 16.3193 38.2898 16.2234 38.5312 16.0316C38.7727 15.8399 38.9515 15.5878 39.0675 15.2753C39.1835 14.9628 39.2415 14.6242 39.2415 14.2596C39.2415 13.895 39.1835 13.5553 39.0675 13.2405C38.9515 12.9256 38.7727 12.6711 38.5312 12.477C38.2898 12.2828 37.982 12.1858 37.608 12.1858C37.2339 12.1858 36.9261 12.2828 36.6847 12.477C36.4432 12.6711 36.2644 12.9256 36.1484 13.2405C36.0324 13.5553 35.9744 13.895 35.9744 14.2596C35.9744 14.6242 36.0324 14.9628 36.1484 15.2753C36.2644 15.5878 36.4432 15.8399 36.6847 16.0316C36.9261 16.2234 37.2339 16.3193 37.608 16.3193ZM44.4838 13.45V14.2312H41.302V13.45H44.4838ZM48.0181 17.0721C47.5636 17.0721 47.1623 16.9573 46.8143 16.7277C46.4663 16.4957 46.194 16.169 45.9975 15.7476C45.801 15.3238 45.7028 14.8231 45.7028 14.2454C45.7028 13.6725 45.801 13.1754 45.9975 12.754C46.194 12.3325 46.4674 12.007 46.8178 11.7774C47.1682 11.5477 47.573 11.4329 48.0323 11.4329C48.3874 11.4329 48.668 11.4921 48.8739 11.6105C49.0823 11.7265 49.2409 11.8591 49.3498 12.0082C49.4611 12.155 49.5475 12.2757 49.609 12.3704H49.68V9.68577H50.5181V16.9585H49.7085V16.1204H49.609C49.5475 16.2199 49.4599 16.3453 49.3462 16.4968C49.2326 16.646 49.0704 16.7798 48.8597 16.8981C48.649 17.0141 48.3685 17.0721 48.0181 17.0721ZM48.1317 16.3193C48.4679 16.3193 48.752 16.2317 48.984 16.0565C49.216 15.879 49.3924 15.6339 49.5131 15.3214C49.6339 15.0066 49.6942 14.6432 49.6942 14.2312C49.6942 13.824 49.6351 13.4677 49.5167 13.1623C49.3983 12.8546 49.2231 12.6155 48.9911 12.445C48.7591 12.2722 48.4727 12.1858 48.1317 12.1858C47.7766 12.1858 47.4807 12.2769 47.244 12.4592C47.0096 12.6391 46.8332 12.8842 46.7148 13.1943C46.5988 13.5021 46.5408 13.8477 46.5408 14.2312C46.5408 14.6195 46.6 14.9722 46.7184 15.2895C46.8391 15.6043 47.0167 15.8553 47.2511 16.0423C47.4878 16.227 47.7814 16.3193 48.1317 16.3193ZM54.3853 17.0721C53.8929 17.0721 53.4608 16.9549 53.0891 16.7206C52.7198 16.4862 52.431 16.1583 52.2227 15.7369C52.0167 15.3155 51.9137 14.8231 51.9137 14.2596C51.9137 13.6915 52.0167 13.1955 52.2227 12.7717C52.431 12.3479 52.7198 12.0189 53.0891 11.7845C53.4608 11.5501 53.8929 11.4329 54.3853 11.4329C54.8777 11.4329 55.3086 11.5501 55.6779 11.7845C56.0496 12.0189 56.3384 12.3479 56.5444 12.7717C56.7527 13.1955 56.8569 13.6915 56.8569 14.2596C56.8569 14.8231 56.7527 15.3155 56.5444 15.7369C56.3384 16.1583 56.0496 16.4862 55.6779 16.7206C55.3086 16.9549 54.8777 17.0721 54.3853 17.0721ZM54.3853 16.3193C54.7594 16.3193 55.0671 16.2234 55.3086 16.0316C55.5501 15.8399 55.7288 15.5878 55.8448 15.2753C55.9608 14.9628 56.0188 14.6242 56.0188 14.2596C56.0188 13.895 55.9608 13.5553 55.8448 13.2405C55.7288 12.9256 55.5501 12.6711 55.3086 12.477C55.0671 12.2828 54.7594 12.1858 54.3853 12.1858C54.0112 12.1858 53.7035 12.2828 53.462 12.477C53.2205 12.6711 53.0418 12.9256 52.9258 13.2405C52.8098 13.5553 52.7518 13.895 52.7518 14.2596C52.7518 14.6242 52.8098 14.9628 52.9258 15.2753C53.0418 15.5878 53.2205 15.8399 53.462 16.0316C53.7035 16.2234 54.0112 16.3193 54.3853 16.3193ZM61.9998 12.7255L61.247 12.9386C61.1996 12.8131 61.1298 12.6912 61.0375 12.5728C60.9475 12.4521 60.8244 12.3527 60.6681 12.2745C60.5119 12.1964 60.3118 12.1574 60.068 12.1574C59.7342 12.1574 59.456 12.2343 59.2335 12.3882C59.0133 12.5397 58.9032 12.7326 58.9032 12.967C58.9032 13.1754 58.979 13.3399 59.1305 13.4606C59.282 13.5814 59.5188 13.682 59.8407 13.7625L60.6504 13.9613C61.1381 14.0797 61.5015 14.2608 61.7406 14.5047C61.9797 14.7461 62.0993 15.0575 62.0993 15.4386C62.0993 15.7511 62.0093 16.0305 61.8294 16.2767C61.6518 16.5229 61.4032 16.717 61.0836 16.8591C60.764 17.0011 60.3923 17.0721 59.9686 17.0721C59.4122 17.0721 58.9518 16.9514 58.5872 16.7099C58.2226 16.4684 57.9918 16.1157 57.8947 15.6517L58.6902 15.4528C58.7659 15.7464 58.9092 15.9665 59.1199 16.1133C59.3329 16.2601 59.6111 16.3335 59.9544 16.3335C60.345 16.3335 60.6551 16.2506 60.8848 16.0849C61.1168 15.9168 61.2328 15.7156 61.2328 15.4812C61.2328 15.2918 61.1665 15.1332 61.0339 15.0054C60.9013 14.8752 60.6977 14.7781 60.4231 14.7142L59.514 14.5011C59.0145 14.3827 58.6475 14.1993 58.4132 13.9507C58.1812 13.6997 58.0652 13.3861 58.0652 13.0096C58.0652 12.7019 58.1516 12.4296 58.3244 12.1929C58.4996 11.9561 58.7375 11.7703 59.0382 11.6353C59.3412 11.5004 59.6845 11.4329 60.068 11.4329C60.6078 11.4329 61.0315 11.5513 61.3393 11.788C61.6494 12.0248 61.8696 12.3373 61.9998 12.7255Z" fill="#6B7280"/>
<path opacity="0.9" d="M71.0256 17.0579C70.6089 17.0579 70.2337 16.9751 69.8999 16.8093C69.5661 16.6436 69.2985 16.4164 69.0973 16.1275C68.8961 15.8387 68.786 15.5096 68.767 15.1403H69.6193C69.6525 15.4694 69.8016 15.7416 70.0668 15.9571C70.3343 16.1701 70.6539 16.2767 71.0256 16.2767C71.3239 16.2767 71.589 16.2068 71.821 16.0672C72.0554 15.9275 72.2389 15.7357 72.3714 15.4919C72.5064 15.2457 72.5739 14.9675 72.5739 14.6574C72.5739 14.3401 72.504 14.0572 72.3643 13.8086C72.227 13.5577 72.0376 13.36 71.7962 13.2156C71.5547 13.0712 71.2789 12.9978 70.9688 12.9954C70.7462 12.9931 70.5178 13.0274 70.2834 13.0984C70.049 13.1671 69.8561 13.2558 69.7045 13.3647L68.8807 13.2653L69.321 9.68577H73.0994V10.467H70.0597L69.804 12.6119H69.8466C69.9957 12.4935 70.1828 12.3953 70.4077 12.3172C70.6326 12.239 70.867 12.2 71.1108 12.2C71.5559 12.2 71.9524 12.3065 72.3004 12.5196C72.6508 12.7303 72.9254 13.0191 73.1243 13.3861C73.3255 13.753 73.4261 14.172 73.4261 14.6432C73.4261 15.1072 73.322 15.5215 73.1136 15.8861C72.9077 16.2483 72.6236 16.5347 72.2614 16.7454C71.8991 16.9538 71.4872 17.0579 71.0256 17.0579Z" fill="#9CA3AF"/>
</g>
<path d="M17 32.1808C17 30.3904 17.9444 28.7376 19.5185 27.8326C21.0728 26.9275 22.9813 26.9275 24.5554 27.8326C26.1097 28.7376 27.0738 30.3904 27.0738 32.1808C27.0738 33.991 26.1097 35.6437 24.5554 36.5488C22.9813 37.4538 21.0728 37.4538 19.5185 36.5488C17.9444 35.6437 17 33.991 17 32.1808ZM22.5288 34.7189L24.7324 32.5153C24.9095 32.3382 24.9095 32.0431 24.7324 31.8463L22.5288 29.6624C22.332 29.4656 22.0369 29.4656 21.8598 29.6624C21.6631 29.8394 21.6631 30.1346 21.8598 30.3117L23.2568 31.7086H19.6759C19.4004 31.7086 19.2036 31.925 19.2036 32.1808C19.2036 32.4563 19.4004 32.653 19.6759 32.653L23.2568 32.6727L21.8598 34.0697C21.6631 34.2467 21.6631 34.5419 21.8598 34.7189C22.0369 34.9157 22.332 34.9157 22.5288 34.7189Z" fill="#9CA3AF"/>
<rect x="36" y="29.4585" width="99" height="6" rx="3" fill="#9CA3AF"/>
<path d="M26.1294 53.1808C26.1294 51.7248 25.3424 50.3869 24.0831 49.6392C22.8042 48.9113 21.2499 48.9113 19.9907 49.6392C18.7118 50.3869 17.9444 51.7248 17.9444 53.1808C17.9444 54.6565 18.7118 55.9944 19.9907 56.7421C21.2499 57.4701 22.8042 57.4701 24.0831 56.7421C25.3424 55.9944 26.1294 54.6565 26.1294 53.1808ZM17 53.1808C17 51.3904 17.9444 49.7376 19.5185 48.8326C21.0728 47.9275 22.9813 47.9275 24.5554 48.8326C26.1097 49.7376 27.0738 51.3904 27.0738 53.1808C27.0738 54.991 26.1097 56.6437 24.5554 57.5488C22.9813 58.4538 21.0728 58.4538 19.5185 57.5488C17.9444 56.6437 17 54.991 17 53.1808Z" fill="#E5E7EB"/>
<rect x="36" y="50.4585" width="174" height="6" rx="3" fill="#E5E7EB"/>
<g opacity="0.58">
<path d="M26.1294 74.1808C26.1294 72.7248 25.3424 71.3869 24.0831 70.6392C22.8042 69.9113 21.2499 69.9113 19.9907 70.6392C18.7118 71.3869 17.9444 72.7248 17.9444 74.1808C17.9444 75.6565 18.7118 76.9944 19.9907 77.7421C21.2499 78.4701 22.8042 78.4701 24.0831 77.7421C25.3424 76.9944 26.1294 75.6565 26.1294 74.1808ZM17 74.1808C17 72.3904 17.9444 70.7376 19.5185 69.8326C21.0728 68.9275 22.9813 68.9275 24.5554 69.8326C26.1097 70.7376 27.0738 72.3904 27.0738 74.1808C27.0738 75.991 26.1097 77.6437 24.5554 78.5488C22.9813 79.4538 21.0728 79.4538 19.5185 78.5488C17.9444 77.6437 17 75.991 17 74.1808Z" fill="#E5E7EB"/>
<rect x="36" y="71.4585" width="118" height="6" rx="3" fill="#E5E7EB"/>
</g>
<g opacity="0.4">
<path d="M26.1294 95.1808C26.1294 93.7248 25.3424 92.3869 24.0831 91.6392C22.8042 90.9113 21.2499 90.9113 19.9907 91.6392C18.7118 92.3869 17.9444 93.7248 17.9444 95.1808C17.9444 96.6565 18.7118 97.9944 19.9907 98.7421C21.2499 99.4701 22.8042 99.4701 24.0831 98.7421C25.3424 97.9944 26.1294 96.6565 26.1294 95.1808ZM17 95.1808C17 93.3904 17.9444 91.7376 19.5185 90.8326C21.0728 89.9275 22.9813 89.9275 24.5554 90.8326C26.1097 91.7376 27.0738 93.3904 27.0738 95.1808C27.0738 96.991 26.1097 98.6437 24.5554 99.5488C22.9813 100.454 21.0728 100.454 19.5185 99.5488C17.9444 98.6437 17 96.991 17 95.1808Z" fill="#E5E7EB"/>
<rect x="36" y="92.4585" width="99" height="6" rx="3" fill="#E5E7EB"/>
</g>
<g opacity="0.4">
<path d="M26.1294 116.181C26.1294 114.725 25.3424 113.387 24.0831 112.639C22.8042 111.911 21.2499 111.911 19.9907 112.639C18.7118 113.387 17.9444 114.725 17.9444 116.181C17.9444 117.656 18.7118 118.994 19.9907 119.742C21.2499 120.47 22.8042 120.47 24.0831 119.742C25.3424 118.994 26.1294 117.656 26.1294 116.181ZM17 116.181C17 114.39 17.9444 112.738 19.5185 111.832C21.0728 110.927 22.9813 110.927 24.5554 111.832C26.1097 112.738 27.0738 114.39 27.0738 116.181C27.0738 117.991 26.1097 119.644 24.5554 120.549C22.9813 121.454 21.0728 121.454 19.5185 120.549C17.9444 119.644 17 117.991 17 116.181Z" fill="#E5E7EB"/>
<rect x="36" y="113.458" width="79" height="6" rx="3" fill="#E5E7EB"/>
<rect x="123" y="113.458" width="101" height="6" rx="3" fill="#E5E7EB"/>
</g>
<g opacity="0.4">
<path d="M26.1294 137.181C26.1294 135.725 25.3424 134.387 24.0831 133.639C22.8042 132.911 21.2499 132.911 19.9907 133.639C18.7118 134.387 17.9444 135.725 17.9444 137.181C17.9444 138.656 18.7118 139.994 19.9907 140.742C21.2499 141.47 22.8042 141.47 24.0831 140.742C25.3424 139.994 26.1294 138.656 26.1294 137.181ZM17 137.181C17 135.39 17.9444 133.738 19.5185 132.832C21.0728 131.927 22.9813 131.927 24.5554 132.832C26.1097 133.738 27.0738 135.39 27.0738 137.181C27.0738 138.991 26.1097 140.644 24.5554 141.549C22.9813 142.454 21.0728 142.454 19.5185 141.549C17.9444 140.644 17 138.991 17 137.181Z" fill="#9CA3AF"/>
<rect x="36" y="134.458" width="99" height="6" rx="3" fill="#E5E7EB"/>
</g>
<rect x="0.5" y="116.3" width="358" height="71.1432" rx="7.21587" fill="white"/>
<rect x="0.5" y="116.3" width="358" height="71.1432" rx="7.21587" stroke="#14B8A6"/>
<path d="M21.0369 134.896C20.9864 134.469 20.7813 134.137 20.4216 133.901C20.062 133.665 19.6209 133.547 19.0983 133.547C18.7162 133.547 18.3819 133.609 18.0953 133.733C17.8115 133.856 17.5895 134.026 17.4294 134.242C17.2721 134.459 17.1934 134.705 17.1934 134.98C17.1934 135.21 17.2482 135.408 17.3577 135.574C17.4701 135.737 17.6134 135.873 17.7876 135.983C17.9618 136.09 18.1444 136.178 18.3355 136.249C18.5266 136.316 18.7022 136.371 18.8623 136.413L19.7389 136.649C19.9637 136.708 20.2137 136.789 20.4891 136.893C20.7672 136.997 21.0327 137.139 21.2856 137.319C21.5413 137.496 21.752 137.724 21.9178 138.002C22.0835 138.28 22.1664 138.621 22.1664 139.026C22.1664 139.492 22.0442 139.914 21.7998 140.29C21.5581 140.667 21.2041 140.966 20.7377 141.188C20.2741 141.41 19.7108 141.521 19.0477 141.521C18.4296 141.521 17.8944 141.421 17.442 141.222C16.9925 141.022 16.6385 140.744 16.38 140.387C16.1243 140.03 15.9796 139.616 15.9459 139.144H17.0248C17.0529 139.47 17.1625 139.739 17.3535 139.953C17.5474 140.164 17.7918 140.321 18.0868 140.425C18.3847 140.526 18.705 140.577 19.0477 140.577C19.4467 140.577 19.8049 140.512 20.1224 140.383C20.4399 140.251 20.6914 140.068 20.8768 139.835C21.0622 139.599 21.155 139.324 21.155 139.009C21.155 138.722 21.0749 138.489 20.9147 138.309C20.7546 138.13 20.5439 137.983 20.2826 137.871C20.0213 137.759 19.7389 137.66 19.4355 137.576L18.3734 137.273C17.6991 137.079 17.1653 136.802 16.7719 136.442C16.3786 136.083 16.1819 135.612 16.1819 135.031C16.1819 134.547 16.3126 134.126 16.5739 133.766C16.838 133.404 17.192 133.123 17.6359 132.923C18.0826 132.721 18.5813 132.62 19.132 132.62C19.6883 132.62 20.1828 132.72 20.6155 132.919C21.0482 133.116 21.391 133.386 21.6438 133.728C21.8995 134.071 22.0344 134.46 22.0484 134.896H21.0369ZM26.2267 141.504C25.603 141.504 25.0649 141.366 24.6126 141.091C24.1631 140.813 23.8161 140.425 23.5716 139.928C23.33 139.428 23.2092 138.846 23.2092 138.183C23.2092 137.52 23.33 136.935 23.5716 136.43C23.8161 135.921 24.156 135.525 24.5915 135.241C25.0298 134.955 25.5412 134.811 26.1256 134.811C26.4627 134.811 26.7957 134.868 27.1244 134.98C27.4531 135.092 27.7523 135.275 28.0221 135.528C28.2918 135.778 28.5067 136.109 28.6669 136.522C28.827 136.935 28.9071 137.444 28.9071 138.048V138.47H23.9172V137.61H27.8956C27.8956 137.245 27.8226 136.919 27.6765 136.632C27.5332 136.345 27.3281 136.119 27.0612 135.954C26.7971 135.788 26.4852 135.705 26.1256 135.705C25.7294 135.705 25.3866 135.803 25.0973 136C24.8107 136.194 24.5901 136.447 24.4356 136.758C24.2811 137.07 24.2038 137.405 24.2038 137.762V138.335C24.2038 138.824 24.2881 139.238 24.4567 139.578C24.628 139.915 24.8655 140.172 25.1689 140.349C25.4723 140.523 25.8249 140.61 26.2267 140.61C26.488 140.61 26.724 140.574 26.9347 140.501C27.1483 140.425 27.3323 140.313 27.4868 140.164C27.6414 140.012 27.7608 139.824 27.8451 139.599L28.806 139.869C28.7048 140.195 28.5348 140.481 28.296 140.728C28.0572 140.973 27.7622 141.164 27.411 141.302C27.0598 141.437 26.665 141.504 26.2267 141.504ZM32.998 134.896V135.739H29.6433V134.896H32.998ZM30.621 133.345H31.6156V139.515C31.6156 139.796 31.6564 140.006 31.7378 140.147C31.8221 140.285 31.9289 140.377 32.0581 140.425C32.1902 140.47 32.3293 140.492 32.4754 140.492C32.5849 140.492 32.6749 140.487 32.7451 140.476C32.8153 140.462 32.8715 140.45 32.9137 140.442L33.116 141.335C33.0485 141.361 32.9544 141.386 32.8336 141.411C32.7128 141.439 32.5597 141.453 32.3742 141.453C32.0933 141.453 31.8179 141.393 31.5482 141.272C31.2813 141.151 31.0593 140.967 30.8823 140.72C30.7081 140.473 30.621 140.161 30.621 139.784V133.345ZM41.4368 138.722V134.896H42.4314V141.369H41.4368V140.273H41.3693C41.2176 140.602 40.9816 140.882 40.6613 141.112C40.341 141.34 39.9364 141.453 39.4476 141.453C39.043 141.453 38.6833 141.365 38.3687 141.188C38.054 141.008 37.8067 140.738 37.6269 140.379C37.4471 140.016 37.3572 139.56 37.3572 139.009V134.896H38.3518V138.942C38.3518 139.414 38.4839 139.79 38.748 140.071C39.0149 140.352 39.3548 140.492 39.7679 140.492C40.0151 140.492 40.2666 140.429 40.5222 140.303C40.7807 140.176 40.9971 139.983 41.1713 139.721C41.3483 139.46 41.4368 139.127 41.4368 138.722ZM44.0157 143.797V134.896H44.9766V135.924H45.0946C45.1677 135.812 45.2688 135.668 45.398 135.494C45.5301 135.317 45.7183 135.16 45.9628 135.022C46.21 134.882 46.5444 134.811 46.9658 134.811C47.5109 134.811 47.9913 134.948 48.4071 135.22C48.823 135.493 49.1475 135.879 49.3807 136.379C49.6139 136.879 49.7305 137.469 49.7305 138.149C49.7305 138.835 49.6139 139.429 49.3807 139.932C49.1475 140.432 48.8244 140.82 48.4114 141.095C47.9983 141.368 47.5221 141.504 46.9827 141.504C46.5668 141.504 46.2339 141.435 45.9838 141.297C45.7338 141.157 45.5413 140.998 45.4065 140.821C45.2716 140.641 45.1677 140.492 45.0946 140.374H45.0103V143.797H44.0157ZM44.9935 138.132C44.9935 138.621 45.0651 139.053 45.2084 139.426C45.3517 139.797 45.561 140.088 45.8363 140.299C46.1117 140.507 46.4488 140.61 46.8478 140.61C47.2636 140.61 47.6106 140.501 47.8888 140.282C48.1697 140.06 48.3805 139.762 48.5209 139.388C48.6642 139.012 48.7359 138.593 48.7359 138.132C48.7359 137.677 48.6656 137.267 48.5251 136.902C48.3875 136.534 48.1782 136.243 47.8972 136.029C47.619 135.813 47.2692 135.705 46.8478 135.705C46.4432 135.705 46.1033 135.807 45.8279 136.013C45.5526 136.215 45.3447 136.499 45.2042 136.864C45.0637 137.226 44.9935 137.649 44.9935 138.132ZM56.0157 141.521C55.6055 141.521 55.2332 141.444 54.8989 141.289C54.5645 141.132 54.299 140.905 54.1024 140.61C53.9057 140.313 53.8073 139.953 53.8073 139.532C53.8073 139.161 53.8804 138.86 54.0265 138.63C54.1726 138.397 54.3679 138.214 54.6123 138.082C54.8567 137.95 55.1265 137.851 55.4215 137.787C55.7193 137.719 56.0185 137.666 56.3191 137.627C56.7125 137.576 57.0314 137.538 57.2758 137.513C57.5231 137.485 57.7029 137.438 57.8153 137.374C57.9305 137.309 57.9881 137.197 57.9881 137.037V137.003C57.9881 136.587 57.8743 136.264 57.6467 136.034C57.4219 135.803 57.0806 135.688 56.6226 135.688C56.1478 135.688 55.7755 135.792 55.5058 136C55.236 136.208 55.0464 136.43 54.9368 136.666L53.9928 136.329C54.1614 135.935 54.3861 135.629 54.6671 135.41C54.9509 135.188 55.2599 135.033 55.5943 134.946C55.9314 134.856 56.263 134.811 56.5889 134.811C56.7968 134.811 57.0356 134.837 57.3053 134.887C57.5779 134.935 57.8406 135.035 58.0934 135.187C58.3491 135.338 58.5612 135.567 58.7298 135.873C58.8984 136.18 58.9827 136.59 58.9827 137.104V141.369H57.9881V140.492H57.9375C57.8701 140.633 57.7577 140.783 57.6003 140.943C57.443 141.104 57.2337 141.24 56.9724 141.352C56.7111 141.465 56.3922 141.521 56.0157 141.521ZM56.1674 140.627C56.5608 140.627 56.8923 140.55 57.162 140.396C57.4346 140.241 57.6397 140.042 57.7773 139.797C57.9178 139.553 57.9881 139.296 57.9881 139.026V138.116C57.9459 138.166 57.8532 138.212 57.7099 138.255C57.5694 138.294 57.4065 138.329 57.221 138.36C57.0384 138.388 56.86 138.413 56.6858 138.436C56.5144 138.456 56.3753 138.472 56.2686 138.486C56.0101 138.52 55.7685 138.575 55.5437 138.651C55.3217 138.724 55.1419 138.835 55.0042 138.984C54.8694 139.13 54.802 139.329 54.802 139.582C54.802 139.928 54.9298 140.189 55.1855 140.366C55.444 140.54 55.7713 140.627 56.1674 140.627ZM63.796 141.369V132.738H66.7124C67.3895 132.738 67.943 132.86 68.3729 133.105C68.8056 133.346 69.1259 133.674 69.3338 134.087C69.5417 134.5 69.6456 134.96 69.6456 135.469C69.6456 135.977 69.5417 136.44 69.3338 136.855C69.1287 137.271 68.8112 137.603 68.3813 137.85C67.9514 138.094 67.4008 138.217 66.7293 138.217H64.6389V137.29H66.6955C67.1591 137.29 67.5314 137.209 67.8124 137.049C68.0933 136.889 68.297 136.673 68.4235 136.4C68.5527 136.125 68.6173 135.814 68.6173 135.469C68.6173 135.123 68.5527 134.814 68.4235 134.542C68.297 134.269 68.0919 134.056 67.8081 133.901C67.5244 133.744 67.1479 133.665 66.6787 133.665H64.8412V141.369H63.796ZM70.9571 141.369V134.896H71.918V135.873H71.9854C72.1034 135.553 72.3169 135.293 72.626 135.094C72.9351 134.894 73.2835 134.795 73.6712 134.795C73.7442 134.795 73.8355 134.796 73.9451 134.799C74.0547 134.802 74.1376 134.806 74.1938 134.811V135.823C74.1601 135.814 74.0828 135.802 73.962 135.785C73.844 135.765 73.7189 135.755 73.5869 135.755C73.2722 135.755 72.9913 135.821 72.744 135.954C72.4996 136.083 72.3057 136.263 72.1624 136.493C72.0219 136.721 71.9517 136.98 71.9517 137.273V141.369H70.9571ZM75.1354 141.369V134.896H76.13V141.369H75.1354ZM75.6411 133.817C75.4473 133.817 75.2801 133.751 75.1396 133.619C75.0019 133.487 74.9331 133.328 74.9331 133.143C74.9331 132.957 75.0019 132.798 75.1396 132.666C75.2801 132.534 75.4473 132.468 75.6411 132.468C75.835 132.468 76.0008 132.534 76.1384 132.666C76.2789 132.798 76.3492 132.957 76.3492 133.143C76.3492 133.328 76.2789 133.487 76.1384 133.619C76.0008 133.751 75.835 133.817 75.6411 133.817ZM82.2996 136.345L81.4062 136.598C81.35 136.449 81.2671 136.305 81.1575 136.164C81.0508 136.021 80.9047 135.903 80.7192 135.81C80.5338 135.718 80.2964 135.671 80.007 135.671C79.6108 135.671 79.2807 135.762 79.0166 135.945C78.7553 136.125 78.6247 136.354 78.6247 136.632C78.6247 136.879 78.7146 137.075 78.8944 137.218C79.0742 137.361 79.3552 137.481 79.7373 137.576L80.6981 137.812C81.2769 137.953 81.7082 138.168 81.992 138.457C82.2758 138.743 82.4176 139.113 82.4176 139.565C82.4176 139.936 82.3109 140.268 82.0973 140.56C81.8866 140.852 81.5916 141.082 81.2123 141.251C80.833 141.42 80.3919 141.504 79.889 141.504C79.2287 141.504 78.6822 141.361 78.2496 141.074C77.8169 140.787 77.5429 140.369 77.4278 139.818L78.3718 139.582C78.4617 139.931 78.6317 140.192 78.8817 140.366C79.1346 140.54 79.4647 140.627 79.8721 140.627C80.3357 140.627 80.7038 140.529 80.9763 140.332C81.2516 140.133 81.3893 139.894 81.3893 139.616C81.3893 139.391 81.3106 139.203 81.1533 139.051C80.996 138.897 80.7543 138.781 80.4284 138.706L79.3495 138.453C78.7567 138.312 78.3212 138.094 78.0431 137.799C77.7677 137.502 77.63 137.129 77.63 136.683C77.63 136.317 77.7326 135.994 77.9377 135.713C78.1456 135.432 78.428 135.212 78.7848 135.052C79.1444 134.891 79.5518 134.811 80.007 134.811C80.6476 134.811 81.1505 134.952 81.5157 135.233C81.8838 135.514 82.1451 135.885 82.2996 136.345ZM83.6775 141.369V134.896H84.6384V135.907H84.7226C84.8575 135.562 85.0752 135.293 85.3759 135.102C85.6765 134.908 86.0375 134.811 86.459 134.811C86.886 134.811 87.2415 134.908 87.5252 135.102C87.8118 135.293 88.0352 135.562 88.1953 135.907H88.2628C88.4285 135.573 88.6772 135.307 89.0087 135.111C89.3403 134.911 89.7378 134.811 90.2014 134.811C90.7802 134.811 91.2536 134.993 91.6217 135.355C91.9897 135.715 92.1738 136.275 92.1738 137.037V141.369H91.1791V137.037C91.1791 136.559 91.0485 136.218 90.7872 136.013C90.5259 135.807 90.2183 135.705 89.8642 135.705C89.4091 135.705 89.0565 135.843 88.8064 136.118C88.5564 136.39 88.4313 136.736 88.4313 137.155V141.369H87.4199V136.935C87.4199 136.567 87.3005 136.271 87.0616 136.046C86.8228 135.819 86.5152 135.705 86.1387 135.705C85.8802 135.705 85.6386 135.774 85.4138 135.911C85.1918 136.049 85.012 136.24 84.8744 136.485C84.7395 136.726 84.6721 137.006 84.6721 137.323V141.369H83.6775ZM95.6598 141.521C95.2496 141.521 94.8774 141.444 94.543 141.289C94.2087 141.132 93.9432 140.905 93.7465 140.61C93.5498 140.313 93.4515 139.953 93.4515 139.532C93.4515 139.161 93.5245 138.86 93.6706 138.63C93.8167 138.397 94.012 138.214 94.2564 138.082C94.5009 137.95 94.7706 137.851 95.0656 137.787C95.3634 137.719 95.6627 137.666 95.9633 137.627C96.3566 137.576 96.6755 137.538 96.92 137.513C97.1672 137.485 97.347 137.438 97.4594 137.374C97.5746 137.309 97.6322 137.197 97.6322 137.037V137.003C97.6322 136.587 97.5184 136.264 97.2908 136.034C97.0661 135.803 96.7247 135.688 96.2667 135.688C95.7919 135.688 95.4196 135.792 95.1499 136C94.8802 136.208 94.6905 136.43 94.5809 136.666L93.6369 136.329C93.8055 135.935 94.0303 135.629 94.3112 135.41C94.595 135.188 94.9041 135.033 95.2384 134.946C95.5756 134.856 95.9071 134.811 96.233 134.811C96.4409 134.811 96.6797 134.837 96.9495 134.887C97.222 134.935 97.4847 135.035 97.7376 135.187C97.9932 135.338 98.2054 135.567 98.3739 135.873C98.5425 136.18 98.6268 136.59 98.6268 137.104V141.369H97.6322V140.492H97.5816C97.5142 140.633 97.4018 140.783 97.2445 140.943C97.0871 141.104 96.8778 141.24 96.6165 141.352C96.3552 141.465 96.0363 141.521 95.6598 141.521ZM95.8116 140.627C96.2049 140.627 96.5364 140.55 96.8062 140.396C97.0787 140.241 97.2838 140.042 97.4215 139.797C97.562 139.553 97.6322 139.296 97.6322 139.026V138.116C97.5901 138.166 97.4973 138.212 97.354 138.255C97.2136 138.294 97.0506 138.329 96.8652 138.36C96.6825 138.388 96.5041 138.413 96.3299 138.436C96.1586 138.456 96.0195 138.472 95.9127 138.486C95.6542 138.52 95.4126 138.575 95.1878 138.651C94.9659 138.724 94.7861 138.835 94.6484 138.984C94.5135 139.13 94.4461 139.329 94.4461 139.582C94.4461 139.928 94.5739 140.189 94.8296 140.366C95.0881 140.54 95.4154 140.627 95.8116 140.627ZM103.44 141.369V132.738H106.357C107.034 132.738 107.587 132.86 108.017 133.105C108.45 133.346 108.77 133.674 108.978 134.087C109.186 134.5 109.29 134.96 109.29 135.469C109.29 135.977 109.186 136.44 108.978 136.855C108.773 137.271 108.455 137.603 108.025 137.85C107.596 138.094 107.045 138.217 106.373 138.217H104.283V137.29H106.34C106.803 137.29 107.176 137.209 107.456 137.049C107.737 136.889 107.941 136.673 108.068 136.4C108.197 136.125 108.261 135.814 108.261 135.469C108.261 135.123 108.197 134.814 108.068 134.542C107.941 134.269 107.736 134.056 107.452 133.901C107.169 133.744 106.792 133.665 106.323 133.665H104.485V141.369H103.44ZM113.161 141.504C112.577 141.504 112.064 141.365 111.623 141.087C111.185 140.809 110.842 140.419 110.595 139.919C110.35 139.419 110.228 138.835 110.228 138.166C110.228 137.492 110.35 136.903 110.595 136.4C110.842 135.897 111.185 135.507 111.623 135.229C112.064 134.951 112.577 134.811 113.161 134.811C113.746 134.811 114.257 134.951 114.696 135.229C115.137 135.507 115.479 135.897 115.724 136.4C115.971 136.903 116.095 137.492 116.095 138.166C116.095 138.835 115.971 139.419 115.724 139.919C115.479 140.419 115.137 140.809 114.696 141.087C114.257 141.365 113.746 141.504 113.161 141.504ZM113.161 140.61C113.605 140.61 113.971 140.497 114.257 140.269C114.544 140.042 114.756 139.742 114.894 139.371C115.031 139.001 115.1 138.599 115.1 138.166C115.1 137.733 115.031 137.33 114.894 136.957C114.756 136.583 114.544 136.281 114.257 136.05C113.971 135.82 113.605 135.705 113.161 135.705C112.718 135.705 112.352 135.82 112.066 136.05C111.779 136.281 111.567 136.583 111.429 136.957C111.292 137.33 111.223 137.733 111.223 138.166C111.223 138.599 111.292 139.001 111.429 139.371C111.567 139.742 111.779 140.042 112.066 140.269C112.352 140.497 112.718 140.61 113.161 140.61ZM121.961 136.345L121.067 136.598C121.011 136.449 120.928 136.305 120.819 136.164C120.712 136.021 120.566 135.903 120.381 135.81C120.195 135.718 119.958 135.671 119.668 135.671C119.272 135.671 118.942 135.762 118.678 135.945C118.417 136.125 118.286 136.354 118.286 136.632C118.286 136.879 118.376 137.075 118.556 137.218C118.735 137.361 119.016 137.481 119.399 137.576L120.359 137.812C120.938 137.953 121.37 138.168 121.653 138.457C121.937 138.743 122.079 139.113 122.079 139.565C122.079 139.936 121.972 140.268 121.759 140.56C121.548 140.852 121.253 141.082 120.874 141.251C120.494 141.42 120.053 141.504 119.55 141.504C118.89 141.504 118.344 141.361 117.911 141.074C117.478 140.787 117.204 140.369 117.089 139.818L118.033 139.582C118.123 139.931 118.293 140.192 118.543 140.366C118.796 140.54 119.126 140.627 119.533 140.627C119.997 140.627 120.365 140.529 120.638 140.332C120.913 140.133 121.051 139.894 121.051 139.616C121.051 139.391 120.972 139.203 120.815 139.051C120.657 138.897 120.416 138.781 120.09 138.706L119.011 138.453C118.418 138.312 117.983 138.094 117.704 137.799C117.429 137.502 117.291 137.129 117.291 136.683C117.291 136.317 117.394 135.994 117.599 135.713C117.807 135.432 118.089 135.212 118.446 135.052C118.806 134.891 119.213 134.811 119.668 134.811C120.309 134.811 120.812 134.952 121.177 135.233C121.545 135.514 121.806 135.885 121.961 136.345ZM126.154 134.896V135.739H122.799V134.896H126.154ZM123.777 133.345H124.772V139.515C124.772 139.796 124.812 140.006 124.894 140.147C124.978 140.285 125.085 140.377 125.214 140.425C125.346 140.47 125.485 140.492 125.631 140.492C125.741 140.492 125.831 140.487 125.901 140.476C125.971 140.462 126.028 140.45 126.07 140.442L126.272 141.335C126.205 141.361 126.11 141.386 125.99 141.411C125.869 141.439 125.716 141.453 125.53 141.453C125.249 141.453 124.974 141.393 124.704 141.272C124.437 141.151 124.215 140.967 124.038 140.72C123.864 140.473 123.777 140.161 123.777 139.784V133.345ZM129.956 143.931C129.476 143.931 129.063 143.87 128.717 143.746C128.372 143.625 128.084 143.465 127.853 143.266C127.626 143.069 127.444 142.858 127.31 142.633L128.102 142.077C128.192 142.195 128.306 142.33 128.443 142.482C128.581 142.636 128.769 142.77 129.008 142.882C129.25 142.997 129.566 143.055 129.956 143.055C130.479 143.055 130.91 142.928 131.25 142.676C131.59 142.423 131.76 142.027 131.76 141.487V140.172H131.676C131.603 140.29 131.499 140.436 131.364 140.61C131.232 140.782 131.041 140.935 130.791 141.07C130.543 141.202 130.209 141.268 129.788 141.268C129.265 141.268 128.796 141.144 128.38 140.897C127.967 140.65 127.64 140.29 127.398 139.818C127.159 139.346 127.04 138.773 127.04 138.099C127.04 137.436 127.156 136.858 127.39 136.367C127.623 135.872 127.947 135.49 128.363 135.22C128.779 134.948 129.259 134.811 129.804 134.811C130.226 134.811 130.56 134.882 130.807 135.022C131.058 135.16 131.249 135.317 131.381 135.494C131.516 135.668 131.619 135.812 131.693 135.924H131.794V134.896H132.755V141.555C132.755 142.111 132.628 142.563 132.375 142.912C132.125 143.263 131.788 143.52 131.364 143.683C130.942 143.849 130.473 143.931 129.956 143.931ZM129.922 140.374C130.321 140.374 130.659 140.283 130.934 140.101C131.209 139.918 131.419 139.655 131.562 139.312C131.705 138.97 131.777 138.559 131.777 138.082C131.777 137.615 131.707 137.204 131.566 136.847C131.426 136.49 131.218 136.211 130.942 136.008C130.667 135.806 130.327 135.705 129.922 135.705C129.501 135.705 129.15 135.812 128.869 136.025C128.591 136.239 128.381 136.525 128.241 136.885C128.103 137.245 128.034 137.644 128.034 138.082C128.034 138.531 128.105 138.929 128.245 139.275C128.388 139.617 128.599 139.887 128.877 140.084C129.158 140.278 129.507 140.374 129.922 140.374ZM134.338 141.369V134.896H135.299V135.873H135.366C135.484 135.553 135.698 135.293 136.007 135.094C136.316 134.894 136.664 134.795 137.052 134.795C137.125 134.795 137.216 134.796 137.326 134.799C137.435 134.802 137.518 134.806 137.575 134.811V135.823C137.541 135.814 137.464 135.802 137.343 135.785C137.225 135.765 137.1 135.755 136.968 135.755C136.653 135.755 136.372 135.821 136.125 135.954C135.88 136.083 135.686 136.263 135.543 136.493C135.403 136.721 135.332 136.98 135.332 137.273V141.369H134.338ZM141.033 141.504C140.409 141.504 139.871 141.366 139.419 141.091C138.97 140.813 138.623 140.425 138.378 139.928C138.136 139.428 138.016 138.846 138.016 138.183C138.016 137.52 138.136 136.935 138.378 136.43C138.623 135.921 138.963 135.525 139.398 135.241C139.836 134.955 140.348 134.811 140.932 134.811C141.269 134.811 141.602 134.868 141.931 134.98C142.26 135.092 142.559 135.275 142.829 135.528C143.098 135.778 143.313 136.109 143.473 136.522C143.634 136.935 143.714 137.444 143.714 138.048V138.47H138.724V137.61H142.702C142.702 137.245 142.629 136.919 142.483 136.632C142.34 136.345 142.135 136.119 141.868 135.954C141.604 135.788 141.292 135.705 140.932 135.705C140.536 135.705 140.193 135.803 139.904 136C139.617 136.194 139.397 136.447 139.242 136.758C139.088 137.07 139.01 137.405 139.01 137.762V138.335C139.01 138.824 139.095 139.238 139.263 139.578C139.435 139.915 139.672 140.172 139.975 140.349C140.279 140.523 140.631 140.61 141.033 140.61C141.294 140.61 141.531 140.574 141.741 140.501C141.955 140.425 142.139 140.313 142.293 140.164C142.448 140.012 142.567 139.824 142.652 139.599L143.612 139.869C143.511 140.195 143.341 140.481 143.102 140.728C142.864 140.973 142.569 141.164 142.217 141.302C141.866 141.437 141.472 141.504 141.033 141.504ZM149.575 136.345L148.681 136.598C148.625 136.449 148.542 136.305 148.432 136.164C148.326 136.021 148.18 135.903 147.994 135.81C147.809 135.718 147.571 135.671 147.282 135.671C146.886 135.671 146.556 135.762 146.291 135.945C146.03 136.125 145.9 136.354 145.9 136.632C145.9 136.879 145.989 137.075 146.169 137.218C146.349 137.361 146.63 137.481 147.012 137.576L147.973 137.812C148.552 137.953 148.983 138.168 149.267 138.457C149.551 138.743 149.693 139.113 149.693 139.565C149.693 139.936 149.586 140.268 149.372 140.56C149.161 140.852 148.866 141.082 148.487 141.251C148.108 141.42 147.667 141.504 147.164 141.504C146.504 141.504 145.957 141.361 145.524 141.074C145.092 140.787 144.818 140.369 144.703 139.818L145.647 139.582C145.737 139.931 145.907 140.192 146.157 140.366C146.409 140.54 146.74 140.627 147.147 140.627C147.611 140.627 147.979 140.529 148.251 140.332C148.527 140.133 148.664 139.894 148.664 139.616C148.664 139.391 148.586 139.203 148.428 139.051C148.271 138.897 148.029 138.781 147.703 138.706L146.624 138.453C146.032 138.312 145.596 138.094 145.318 137.799C145.043 137.502 144.905 137.129 144.905 136.683C144.905 136.317 145.007 135.994 145.213 135.713C145.42 135.432 145.703 135.212 146.06 135.052C146.419 134.891 146.827 134.811 147.282 134.811C147.922 134.811 148.425 134.952 148.791 135.233C149.159 135.514 149.42 135.885 149.575 136.345ZM156.497 141.504C155.958 141.504 155.481 141.368 155.068 141.095C154.655 140.82 154.332 140.432 154.099 139.932C153.866 139.429 153.749 138.835 153.749 138.149C153.749 137.469 153.866 136.879 154.099 136.379C154.332 135.879 154.657 135.493 155.073 135.22C155.489 134.948 155.969 134.811 156.514 134.811C156.935 134.811 157.268 134.882 157.513 135.022C157.76 135.16 157.948 135.317 158.078 135.494C158.21 135.668 158.312 135.812 158.385 135.924H158.47V132.738H159.464V141.369H158.503V140.374H158.385C158.312 140.492 158.208 140.641 158.073 140.821C157.939 140.998 157.746 141.157 157.496 141.297C157.246 141.435 156.913 141.504 156.497 141.504ZM156.632 140.61C157.031 140.61 157.368 140.507 157.643 140.299C157.919 140.088 158.128 139.797 158.271 139.426C158.415 139.053 158.486 138.621 158.486 138.132C158.486 137.649 158.416 137.226 158.276 136.864C158.135 136.499 157.927 136.215 157.652 136.013C157.377 135.807 157.037 135.705 156.632 135.705C156.211 135.705 155.859 135.813 155.578 136.029C155.3 136.243 155.091 136.534 154.95 136.902C154.813 137.267 154.744 137.677 154.744 138.132C154.744 138.593 154.814 139.012 154.955 139.388C155.098 139.762 155.309 140.06 155.587 140.282C155.868 140.501 156.216 140.61 156.632 140.61ZM163.091 141.521C162.681 141.521 162.309 141.444 161.975 141.289C161.64 141.132 161.375 140.905 161.178 140.61C160.981 140.313 160.883 139.953 160.883 139.532C160.883 139.161 160.956 138.86 161.102 138.63C161.248 138.397 161.444 138.214 161.688 138.082C161.932 137.95 162.202 137.851 162.497 137.787C162.795 137.719 163.094 137.666 163.395 137.627C163.788 137.576 164.107 137.538 164.352 137.513C164.599 137.485 164.779 137.438 164.891 137.374C165.006 137.309 165.064 137.197 165.064 137.037V137.003C165.064 136.587 164.95 136.264 164.722 136.034C164.498 135.803 164.156 135.688 163.698 135.688C163.223 135.688 162.851 135.792 162.581 136C162.312 136.208 162.122 136.43 162.013 136.666L161.068 136.329C161.237 135.935 161.462 135.629 161.743 135.41C162.027 135.188 162.336 135.033 162.67 134.946C163.007 134.856 163.339 134.811 163.665 134.811C163.872 134.811 164.111 134.837 164.381 134.887C164.654 134.935 164.916 135.035 165.169 135.187C165.425 135.338 165.637 135.567 165.806 135.873C165.974 136.18 166.058 136.59 166.058 137.104V141.369H165.064V140.492H165.013C164.946 140.633 164.833 140.783 164.676 140.943C164.519 141.104 164.309 141.24 164.048 141.352C163.787 141.465 163.468 141.521 163.091 141.521ZM163.243 140.627C163.636 140.627 163.968 140.55 164.238 140.396C164.51 140.241 164.715 140.042 164.853 139.797C164.994 139.553 165.064 139.296 165.064 139.026V138.116C165.022 138.166 164.929 138.212 164.786 138.255C164.645 138.294 164.482 138.329 164.297 138.36C164.114 138.388 163.936 138.413 163.762 138.436C163.59 138.456 163.451 138.472 163.344 138.486C163.086 138.52 162.844 138.575 162.619 138.651C162.397 138.724 162.218 138.835 162.08 138.984C161.945 139.13 161.878 139.329 161.878 139.582C161.878 139.928 162.005 140.189 162.261 140.366C162.52 140.54 162.847 140.627 163.243 140.627ZM170.452 134.896V135.739H167.097V134.896H170.452ZM168.075 133.345H169.069V139.515C169.069 139.796 169.11 140.006 169.192 140.147C169.276 140.285 169.383 140.377 169.512 140.425C169.644 140.47 169.783 140.492 169.929 140.492C170.039 140.492 170.129 140.487 170.199 140.476C170.269 140.462 170.325 140.45 170.367 140.442L170.57 141.335C170.502 141.361 170.408 141.386 170.287 141.411C170.166 141.439 170.013 141.453 169.828 141.453C169.547 141.453 169.272 141.393 169.002 141.272C168.735 141.151 168.513 140.967 168.336 140.72C168.162 140.473 168.075 140.161 168.075 139.784V133.345ZM173.615 141.521C173.205 141.521 172.833 141.444 172.498 141.289C172.164 141.132 171.899 140.905 171.702 140.61C171.505 140.313 171.407 139.953 171.407 139.532C171.407 139.161 171.48 138.86 171.626 138.63C171.772 138.397 171.967 138.214 172.212 138.082C172.456 137.95 172.726 137.851 173.021 137.787C173.319 137.719 173.618 137.666 173.919 137.627C174.312 137.576 174.631 137.538 174.875 137.513C175.123 137.485 175.302 137.438 175.415 137.374C175.53 137.309 175.588 137.197 175.588 137.037V137.003C175.588 136.587 175.474 136.264 175.246 136.034C175.022 135.803 174.68 135.688 174.222 135.688C173.747 135.688 173.375 135.792 173.105 136C172.836 136.208 172.646 136.43 172.536 136.666L171.592 136.329C171.761 135.935 171.986 135.629 172.267 135.41C172.55 135.188 172.86 135.033 173.194 134.946C173.531 134.856 173.863 134.811 174.188 134.811C174.396 134.811 174.635 134.837 174.905 134.887C175.177 134.935 175.44 135.035 175.693 135.187C175.949 135.338 176.161 135.567 176.329 135.873C176.498 136.18 176.582 136.59 176.582 137.104V141.369H175.588V140.492H175.537C175.47 140.633 175.357 140.783 175.2 140.943C175.043 141.104 174.833 141.24 174.572 141.352C174.311 141.465 173.992 141.521 173.615 141.521ZM173.767 140.627C174.16 140.627 174.492 140.55 174.762 140.396C175.034 140.241 175.239 140.042 175.377 139.797C175.517 139.553 175.588 139.296 175.588 139.026V138.116C175.546 138.166 175.453 138.212 175.31 138.255C175.169 138.294 175.006 138.329 174.821 138.36C174.638 138.388 174.46 138.413 174.285 138.436C174.114 138.456 173.975 138.472 173.868 138.486C173.61 138.52 173.368 138.575 173.143 138.651C172.921 138.724 172.742 138.835 172.604 138.984C172.469 139.13 172.402 139.329 172.402 139.582C172.402 139.928 172.529 140.189 172.785 140.366C173.044 140.54 173.371 140.627 173.767 140.627ZM178.295 141.369V132.738H179.29V135.924H179.374C179.447 135.812 179.548 135.668 179.677 135.494C179.81 135.317 179.998 135.16 180.242 135.022C180.489 134.882 180.824 134.811 181.245 134.811C181.79 134.811 182.271 134.948 182.687 135.22C183.102 135.493 183.427 135.879 183.66 136.379C183.893 136.879 184.01 137.469 184.01 138.149C184.01 138.835 183.893 139.429 183.66 139.932C183.427 140.432 183.104 140.82 182.691 141.095C182.278 141.368 181.802 141.504 181.262 141.504C180.846 141.504 180.513 141.435 180.263 141.297C180.013 141.157 179.821 140.998 179.686 140.821C179.551 140.641 179.447 140.492 179.374 140.374H179.256V141.369H178.295ZM179.273 138.132C179.273 138.621 179.345 139.053 179.488 139.426C179.631 139.797 179.84 140.088 180.116 140.299C180.391 140.507 180.728 140.61 181.127 140.61C181.543 140.61 181.89 140.501 182.168 140.282C182.449 140.06 182.66 139.762 182.8 139.388C182.944 139.012 183.015 138.593 183.015 138.132C183.015 137.677 182.945 137.267 182.805 136.902C182.667 136.534 182.458 136.243 182.177 136.029C181.898 135.813 181.549 135.705 181.127 135.705C180.723 135.705 180.383 135.807 180.107 136.013C179.832 136.215 179.624 136.499 179.484 136.864C179.343 137.226 179.273 137.649 179.273 138.132ZM187.199 141.521C186.789 141.521 186.416 141.444 186.082 141.289C185.748 141.132 185.482 140.905 185.286 140.61C185.089 140.313 184.991 139.953 184.991 139.532C184.991 139.161 185.064 138.86 185.21 138.63C185.356 138.397 185.551 138.214 185.795 138.082C186.04 137.95 186.31 137.851 186.605 137.787C186.902 137.719 187.202 137.666 187.502 137.627C187.896 137.576 188.215 137.538 188.459 137.513C188.706 137.485 188.886 137.438 188.998 137.374C189.114 137.309 189.171 137.197 189.171 137.037V137.003C189.171 136.587 189.057 136.264 188.83 136.034C188.605 135.803 188.264 135.688 187.806 135.688C187.331 135.688 186.959 135.792 186.689 136C186.419 136.208 186.23 136.43 186.12 136.666L185.176 136.329C185.345 135.935 185.569 135.629 185.85 135.41C186.134 135.188 186.443 135.033 186.777 134.946C187.115 134.856 187.446 134.811 187.772 134.811C187.98 134.811 188.219 134.837 188.488 134.887C188.761 134.935 189.024 135.035 189.277 135.187C189.532 135.338 189.744 135.567 189.913 135.873C190.082 136.18 190.166 136.59 190.166 137.104V141.369H189.171V140.492H189.121C189.053 140.633 188.941 140.783 188.784 140.943C188.626 141.104 188.417 141.24 188.156 141.352C187.894 141.465 187.575 141.521 187.199 141.521ZM187.351 140.627C187.744 140.627 188.075 140.55 188.345 140.396C188.618 140.241 188.823 140.042 188.961 139.797C189.101 139.553 189.171 139.296 189.171 139.026V138.116C189.129 138.166 189.036 138.212 188.893 138.255C188.753 138.294 188.59 138.329 188.404 138.36C188.222 138.388 188.043 138.413 187.869 138.436C187.698 138.456 187.559 138.472 187.452 138.486C187.193 138.52 186.952 138.575 186.727 138.651C186.505 138.724 186.325 138.835 186.187 138.984C186.053 139.13 185.985 139.329 185.985 139.582C185.985 139.928 186.113 140.189 186.369 140.366C186.627 140.54 186.954 140.627 187.351 140.627ZM196.329 136.345L195.436 136.598C195.379 136.449 195.297 136.305 195.187 136.164C195.08 136.021 194.934 135.903 194.749 135.81C194.563 135.718 194.326 135.671 194.036 135.671C193.64 135.671 193.31 135.762 193.046 135.945C192.785 136.125 192.654 136.354 192.654 136.632C192.654 136.879 192.744 137.075 192.924 137.218C193.104 137.361 193.385 137.481 193.767 137.576L194.728 137.812C195.306 137.953 195.738 138.168 196.021 138.457C196.305 138.743 196.447 139.113 196.447 139.565C196.447 139.936 196.34 140.268 196.127 140.56C195.916 140.852 195.621 141.082 195.242 141.251C194.863 141.42 194.421 141.504 193.918 141.504C193.258 141.504 192.712 141.361 192.279 141.074C191.846 140.787 191.572 140.369 191.457 139.818L192.401 139.582C192.491 139.931 192.661 140.192 192.911 140.366C193.164 140.54 193.494 140.627 193.902 140.627C194.365 140.627 194.733 140.529 195.006 140.332C195.281 140.133 195.419 139.894 195.419 139.616C195.419 139.391 195.34 139.203 195.183 139.051C195.025 138.897 194.784 138.781 194.458 138.706L193.379 138.453C192.786 138.312 192.351 138.094 192.073 137.799C191.797 137.502 191.66 137.129 191.66 136.683C191.66 136.317 191.762 135.994 191.967 135.713C192.175 135.432 192.457 135.212 192.814 135.052C193.174 134.891 193.581 134.811 194.036 134.811C194.677 134.811 195.18 134.952 195.545 135.233C195.913 135.514 196.175 135.885 196.329 136.345ZM200.421 141.504C199.797 141.504 199.259 141.366 198.807 141.091C198.357 140.813 198.01 140.425 197.766 139.928C197.524 139.428 197.404 138.846 197.404 138.183C197.404 137.52 197.524 136.935 197.766 136.43C198.01 135.921 198.35 135.525 198.786 135.241C199.224 134.955 199.736 134.811 200.32 134.811C200.657 134.811 200.99 134.868 201.319 134.98C201.647 135.092 201.947 135.275 202.216 135.528C202.486 135.778 202.701 136.109 202.861 136.522C203.021 136.935 203.101 137.444 203.101 138.048V138.47H198.112V137.61H202.09C202.09 137.245 202.017 136.919 201.871 136.632C201.728 136.345 201.522 136.119 201.256 135.954C200.991 135.788 200.68 135.705 200.32 135.705C199.924 135.705 199.581 135.803 199.292 136C199.005 136.194 198.784 136.447 198.63 136.758C198.475 137.07 198.398 137.405 198.398 137.762V138.335C198.398 138.824 198.482 139.238 198.651 139.578C198.822 139.915 199.06 140.172 199.363 140.349C199.667 140.523 200.019 140.61 200.421 140.61C200.682 140.61 200.918 140.574 201.129 140.501C201.343 140.425 201.527 140.313 201.681 140.164C201.836 140.012 201.955 139.824 202.039 139.599L203 139.869C202.899 140.195 202.729 140.481 202.49 140.728C202.252 140.973 201.957 141.164 201.605 141.302C201.254 141.437 200.859 141.504 200.421 141.504Z" fill="#111827"/>
<rect x="15.2716" y="154.369" width="58.7725" height="17.0051" rx="4.16474" fill="#F9FAFB"/>
<path d="M20.2902 162.146C20.2902 161.133 21.1079 160.303 22.1204 160.303C22.6266 160.303 23.1069 160.523 23.4574 160.887L24.4439 161.925L25.4174 160.887C25.7679 160.523 26.2482 160.303 26.7544 160.303C27.7669 160.303 28.5976 161.133 28.5976 162.146V162.626C28.5976 163.639 27.7669 164.456 26.7544 164.456C26.2482 164.456 25.7679 164.249 25.4174 163.885L24.4439 162.834L23.4574 163.885C23.1069 164.249 22.6266 164.456 22.1204 164.456C21.1079 164.456 20.2902 163.639 20.2902 162.626V162.146ZM24.0155 162.379L23.0031 161.315C22.7694 161.068 22.4579 160.926 22.1204 160.926C21.4454 160.926 20.9132 161.471 20.9132 162.146V162.626C20.9132 163.301 21.4454 163.833 22.1204 163.833C22.4579 163.833 22.7694 163.703 23.0031 163.457L24.0155 162.379ZM24.8593 162.379L25.8717 163.457C26.1054 163.703 26.4169 163.833 26.7544 163.833C27.4294 163.833 27.9746 163.301 27.9746 162.626V162.146C27.9746 161.471 27.4294 160.926 26.7544 160.926C26.4299 160.926 26.1054 161.068 25.8717 161.315L24.8722 162.379H24.8593Z" fill="#9CA3AF"/>
<path d="M33.3336 166.872H32.4128L35.0759 159.619H35.9825L38.6457 166.872H37.7249L35.5576 160.766H35.5009L33.3336 166.872ZM33.6736 164.039H37.3849V164.818H33.6736V164.039ZM41.6582 169.025C41.2545 169.025 40.9075 168.973 40.6171 168.869C40.3267 168.767 40.0847 168.633 39.8911 168.465C39.6999 168.3 39.5476 168.123 39.4343 167.934L40.1 167.467C40.1756 167.566 40.2712 167.679 40.3869 167.807C40.5026 167.936 40.6608 168.049 40.8614 168.143C41.0645 168.24 41.3301 168.288 41.6582 168.288C42.0974 168.288 42.4598 168.182 42.7455 167.969C43.0311 167.757 43.174 167.424 43.174 166.971V165.866H43.1031C43.0417 165.965 42.9544 166.088 42.8411 166.234C42.7301 166.378 42.5696 166.507 42.3594 166.62C42.1517 166.731 41.8707 166.787 41.5166 166.787C41.0775 166.787 40.6832 166.683 40.3338 166.475C39.9867 166.267 39.7117 165.965 39.5086 165.568C39.3079 165.172 39.2076 164.69 39.2076 164.124C39.2076 163.566 39.3056 163.081 39.5015 162.668C39.6975 162.252 39.9702 161.931 40.3196 161.705C40.669 161.476 41.0727 161.361 41.5308 161.361C41.8849 161.361 42.1658 161.42 42.3736 161.538C42.5837 161.654 42.7443 161.786 42.8552 161.935C42.9686 162.081 43.0559 162.202 43.1173 162.296H43.2023V161.432H44.0097V167.027C44.0097 167.495 43.9035 167.875 43.691 168.168C43.4809 168.463 43.1976 168.679 42.8411 168.816C42.4869 168.955 42.0927 169.025 41.6582 169.025ZM41.6299 166.036C41.9652 166.036 42.2485 165.959 42.4798 165.806C42.7112 165.652 42.8871 165.431 43.0075 165.143C43.1279 164.855 43.1881 164.511 43.1881 164.109C43.1881 163.717 43.1291 163.372 43.0111 163.072C42.893 162.772 42.7183 162.537 42.4869 162.367C42.2556 162.197 41.9699 162.112 41.6299 162.112C41.2758 162.112 40.9807 162.202 40.7446 162.381C40.5108 162.561 40.3349 162.801 40.2169 163.104C40.1012 163.406 40.0434 163.741 40.0434 164.109C40.0434 164.487 40.1024 164.821 40.2204 165.112C40.3408 165.4 40.5179 165.626 40.7517 165.792C40.9877 165.954 41.2805 166.036 41.6299 166.036ZM47.6208 166.985C47.0967 166.985 46.6446 166.869 46.2645 166.638C45.8867 166.404 45.5951 166.078 45.3897 165.66C45.1867 165.24 45.0852 164.752 45.0852 164.194C45.0852 163.637 45.1867 163.146 45.3897 162.721C45.5951 162.294 45.8808 161.961 46.2468 161.722C46.6151 161.482 47.0447 161.361 47.5358 161.361C47.8191 161.361 48.0989 161.408 48.3751 161.503C48.6514 161.597 48.9028 161.751 49.1294 161.963C49.3561 162.173 49.5367 162.452 49.6713 162.799C49.8058 163.146 49.8731 163.573 49.8731 164.081V164.435H45.6801V163.713H49.0232C49.0232 163.406 48.9618 163.132 48.839 162.891C48.7186 162.65 48.5463 162.46 48.322 162.321C48.1001 162.182 47.838 162.112 47.5358 162.112C47.2029 162.112 46.9149 162.195 46.6717 162.36C46.4309 162.523 46.2456 162.735 46.1157 162.997C45.9859 163.259 45.9209 163.54 45.9209 163.84V164.322C45.9209 164.733 45.9918 165.081 46.1334 165.367C46.2774 165.65 46.4769 165.866 46.7319 166.015C46.9869 166.161 47.2832 166.234 47.6208 166.234C47.8404 166.234 48.0387 166.204 48.2158 166.142C48.3952 166.078 48.5498 165.984 48.6797 165.859C48.8095 165.731 48.9099 165.573 48.9807 165.384L49.7881 165.611C49.7031 165.885 49.5603 166.126 49.3596 166.333C49.159 166.539 48.9111 166.699 48.6159 166.815C48.3208 166.928 47.9891 166.985 47.6208 166.985ZM51.7808 163.599V166.872H50.945V161.432H51.7525V162.282H51.8233C51.9508 162.006 52.1444 161.784 52.4041 161.616C52.6638 161.446 52.999 161.361 53.4098 161.361C53.7781 161.361 54.1004 161.437 54.3766 161.588C54.6529 161.737 54.8677 161.963 55.0212 162.268C55.1746 162.57 55.2514 162.953 55.2514 163.415V166.872H54.4156V163.472C54.4156 163.045 54.3046 162.712 54.0827 162.473C53.8608 162.232 53.5562 162.112 53.169 162.112C52.9022 162.112 52.6638 162.17 52.4537 162.286C52.2459 162.401 52.0818 162.57 51.9614 162.792C51.841 163.014 51.7808 163.283 51.7808 163.599ZM58.9448 161.432V162.14H56.1258V161.432H58.9448ZM56.9474 160.129H57.7832V165.313C57.7832 165.55 57.8174 165.727 57.8859 165.845C57.9567 165.96 58.0465 166.038 58.1551 166.078C58.266 166.116 58.3829 166.135 58.5057 166.135C58.5977 166.135 58.6733 166.13 58.7323 166.121C58.7913 166.109 58.8385 166.1 58.874 166.093L59.0439 166.843C58.9873 166.865 58.9082 166.886 58.8067 166.907C58.7052 166.931 58.5765 166.942 58.4207 166.942C58.1846 166.942 57.9532 166.892 57.7265 166.79C57.5023 166.689 57.3157 166.534 57.167 166.326C57.0206 166.119 56.9474 165.856 56.9474 165.54V160.129Z" fill="#6B7280"/>
<path d="M65.7126 160.913C65.8294 160.796 66.0241 160.796 66.1409 160.913L68.2308 162.989C68.3476 163.119 68.3476 163.314 68.2308 163.431C68.101 163.561 67.9063 163.561 67.7894 163.431L65.9332 161.575L64.077 163.431C63.9472 163.561 63.7525 163.561 63.6357 163.431C63.5059 163.314 63.5059 163.119 63.6357 163.002L65.7126 160.913Z" fill="#9CA3AF"/>
<path d="M87.2385 166.872H86.3177L88.9808 159.619H89.8874L92.5506 166.872H91.6298L89.4625 160.766H89.4058L87.2385 166.872ZM87.5785 164.039H91.2898V164.818H87.5785V164.039ZM96.7956 164.648V161.432H97.6313V166.872H96.7956V165.951H96.7389C96.6114 166.227 96.4131 166.462 96.1439 166.656C95.8748 166.847 95.5348 166.942 95.124 166.942C94.784 166.942 94.4818 166.868 94.2174 166.719C93.953 166.568 93.7452 166.342 93.5941 166.039C93.443 165.735 93.3675 165.351 93.3675 164.888V161.432H94.2033V164.832C94.2033 165.228 94.3142 165.545 94.5362 165.781C94.7604 166.017 95.0461 166.135 95.3932 166.135C95.6009 166.135 95.8122 166.082 96.0271 165.976C96.2443 165.869 96.4261 165.707 96.5724 165.487C96.7212 165.267 96.7956 164.988 96.7956 164.648ZM101.328 161.432V162.14H98.5093V161.432H101.328ZM99.3309 160.129H100.167V165.313C100.167 165.55 100.201 165.727 100.269 165.845C100.34 165.96 100.43 166.038 100.539 166.078C100.65 166.116 100.766 166.135 100.889 166.135C100.981 166.135 101.057 166.13 101.116 166.121C101.175 166.109 101.222 166.1 101.257 166.093L101.427 166.843C101.371 166.865 101.292 166.886 101.19 166.907C101.089 166.931 100.96 166.942 100.804 166.942C100.568 166.942 100.337 166.892 100.11 166.79C99.8858 166.689 99.6992 166.534 99.5505 166.326C99.4041 166.119 99.3309 165.856 99.3309 165.54V160.129ZM104.537 166.985C104.046 166.985 103.615 166.868 103.245 166.634C102.877 166.401 102.588 166.074 102.381 165.653C102.175 165.233 102.073 164.742 102.073 164.18C102.073 163.614 102.175 163.119 102.381 162.696C102.588 162.274 102.877 161.946 103.245 161.712C103.615 161.478 104.046 161.361 104.537 161.361C105.028 161.361 105.458 161.478 105.826 161.712C106.197 161.946 106.485 162.274 106.691 162.696C106.898 163.119 107.002 163.614 107.002 164.18C107.002 164.742 106.898 165.233 106.691 165.653C106.485 166.074 106.197 166.401 105.826 166.634C105.458 166.868 105.028 166.985 104.537 166.985ZM104.537 166.234C104.91 166.234 105.217 166.139 105.458 165.947C105.699 165.756 105.877 165.505 105.993 165.193C106.109 164.881 106.166 164.544 106.166 164.18C106.166 163.817 106.109 163.478 105.993 163.164C105.877 162.85 105.699 162.596 105.458 162.402C105.217 162.209 104.91 162.112 104.537 162.112C104.164 162.112 103.857 162.209 103.617 162.402C103.376 162.596 103.198 162.85 103.082 163.164C102.966 163.478 102.908 163.817 102.908 164.18C102.908 164.544 102.966 164.881 103.082 165.193C103.198 165.505 103.376 165.756 103.617 165.947C103.857 166.139 104.164 166.234 104.537 166.234Z" fill="#6B7280"/>
<path d="M113.617 160.913C113.734 160.796 113.929 160.796 114.046 160.913L116.136 162.989C116.252 163.119 116.252 163.314 116.136 163.431C116.006 163.561 115.811 163.561 115.694 163.431L113.838 161.575L111.982 163.431C111.852 163.561 111.657 163.561 111.54 163.431C111.411 163.314 111.411 163.119 111.54 163.002L113.617 160.913Z" fill="#6B7280"/>
<circle cx="251.691" cy="162.872" r="5" stroke="#9CA3AF"/>
<path d="M256.691 162.872C256.691 160.11 254.453 157.872 251.691 157.872" stroke="#6B7280" stroke-linecap="round"/>
<path d="M271.677 158.769C269.262 158.769 267.315 160.736 267.315 163.132C267.315 165.547 269.262 167.495 271.677 167.495C271.833 167.495 271.989 167.651 271.989 167.807C271.989 167.982 271.833 168.118 271.677 168.118C268.912 168.118 266.691 165.898 266.691 163.132C266.691 160.386 268.912 158.146 271.677 158.146C274.424 158.146 276.663 160.386 276.663 163.132V163.6C276.663 164.554 275.884 165.313 274.949 165.313C274.287 165.313 273.722 164.963 273.43 164.418C273.041 164.963 272.398 165.313 271.677 165.313C270.47 165.313 269.496 164.34 269.496 163.132C269.496 161.944 270.47 160.951 271.677 160.951C272.281 160.951 272.827 161.204 273.236 161.613V161.574C273.236 161.418 273.372 161.262 273.547 161.262C273.703 161.262 273.859 161.418 273.859 161.574V163.132V163.6C273.859 164.203 274.346 164.69 274.949 164.69C275.534 164.69 276.04 164.203 276.04 163.6V163.132C276.04 160.736 274.073 158.769 271.677 158.769ZM273.236 163.132C273.236 162.587 272.924 162.08 272.456 161.788C271.97 161.516 271.366 161.516 270.898 161.788C270.411 162.08 270.119 162.587 270.119 163.132C270.119 163.697 270.411 164.203 270.898 164.495C271.366 164.768 271.97 164.768 272.456 164.495C272.924 164.203 273.236 163.697 273.236 163.132Z" fill="#6B7280"/>
<path d="M291.677 167.495C291.989 167.495 292.457 167.222 292.866 166.385C293.06 165.995 293.236 165.528 293.353 165.002H290.002C290.1 165.528 290.275 165.995 290.47 166.385C290.879 167.222 291.346 167.495 291.677 167.495ZM289.886 164.379H293.45C293.508 163.989 293.547 163.58 293.547 163.132C293.547 162.704 293.508 162.295 293.45 161.886H289.886C289.827 162.295 289.808 162.704 289.808 163.132C289.808 163.58 289.827 163.989 289.886 164.379ZM290.002 161.262H293.353C293.236 160.736 293.06 160.288 292.866 159.899C292.457 159.061 291.989 158.769 291.677 158.769C291.346 158.769 290.879 159.061 290.47 159.899C290.275 160.288 290.1 160.736 290.002 161.262ZM294.093 161.886C294.132 162.295 294.171 162.704 294.171 163.132C294.171 163.58 294.132 163.989 294.093 164.379H295.846C295.962 163.989 296.04 163.58 296.04 163.132C296.04 162.704 295.962 162.295 295.846 161.886H294.093ZM295.612 161.262C295.105 160.211 294.19 159.393 293.06 159.003C293.469 159.548 293.8 160.347 293.976 161.262H295.612ZM289.36 161.262C289.555 160.347 289.866 159.548 290.275 159.003C289.145 159.393 288.23 160.211 287.724 161.262H289.36ZM287.49 161.886C287.373 162.295 287.315 162.704 287.315 163.132C287.315 163.58 287.373 163.989 287.49 164.379H289.262C289.204 163.989 289.184 163.58 289.184 163.132C289.184 162.704 289.204 162.295 289.262 161.886H287.49ZM293.06 167.281C294.19 166.891 295.105 166.073 295.612 165.002H293.976C293.8 165.937 293.469 166.716 293.06 167.281ZM290.275 167.281C289.866 166.716 289.555 165.937 289.36 165.002H287.724C288.23 166.073 289.145 166.891 290.275 167.281ZM291.677 168.118C289.886 168.118 288.25 167.183 287.354 165.625C286.458 164.086 286.458 162.197 287.354 160.639C288.25 159.1 289.886 158.146 291.677 158.146C293.45 158.146 295.086 159.1 295.982 160.639C296.878 162.197 296.878 164.086 295.982 165.625C295.086 167.183 293.45 168.118 291.677 168.118Z" fill="#6B7280"/>
<path d="M307.938 159.393C307.587 159.393 307.315 159.685 307.315 160.016V164.573L308.62 163.249C308.931 162.957 309.418 162.957 309.73 163.249L311.054 164.573L313.606 162.002C313.917 161.71 314.404 161.71 314.716 162.002L316.04 163.327V160.016C316.04 159.685 315.748 159.393 315.417 159.393H307.938ZM307.315 165.45V166.248C307.315 166.599 307.587 166.872 307.938 166.872H308.736L310.606 165.002L309.282 163.697C309.223 163.638 309.126 163.638 309.068 163.697L307.315 165.45ZM314.268 162.45C314.209 162.392 314.112 162.392 314.054 162.45L309.613 166.872H315.417C315.748 166.872 316.04 166.599 316.04 166.248V164.203L314.268 162.45ZM306.691 160.016C306.691 159.334 307.237 158.769 307.938 158.769H315.417C316.099 158.769 316.664 159.334 316.664 160.016V166.248C316.664 166.95 316.099 167.495 315.417 167.495H307.938C307.237 167.495 306.691 166.95 306.691 166.248V160.016ZM309.808 160.951C309.808 160.795 309.652 160.639 309.496 160.639C309.321 160.639 309.184 160.795 309.184 160.951C309.184 161.126 309.321 161.262 309.496 161.262C309.652 161.262 309.808 161.126 309.808 160.951ZM308.561 160.951C308.561 160.62 308.736 160.327 309.029 160.152C309.301 159.977 309.671 159.977 309.964 160.152C310.236 160.327 310.431 160.62 310.431 160.951C310.431 161.301 310.236 161.593 309.964 161.769C309.671 161.944 309.301 161.944 309.029 161.769C308.736 161.593 308.561 161.301 308.561 160.951Z" fill="#6B7280"/>
<rect x="326.691" y="154.869" width="17.0371" height="16.0051" rx="8.00255" fill="#F0FDFA"/>
<rect x="331.71" y="159.372" width="7" height="7" rx="2" fill="#115E59"/>
</svg>
