<svg width="338" height="300" viewBox="0 0 338 300" fill="none" xmlns="http://www.w3.org/2000/svg">
<g clip-path="url(#clip0_4246_11142)">
<path d="M0 12C0 5.37259 5.37258 0 12 0H326C332.627 0 338 5.37258 338 12V288C338 294.627 332.627 300 326 300H12C5.37259 300 0 294.627 0 288V12Z" fill="url(#paint0_linear_4246_11142)"/>
<g opacity="0.42">
<path opacity="0.8" d="M153.542 194.067C181.29 194.067 206.392 198.308 224.542 205.152C233.619 208.574 240.936 212.639 245.976 217.132C251.017 221.625 253.745 226.513 253.745 231.591C253.745 236.67 251.017 241.557 245.976 246.05C240.936 250.543 233.619 254.608 224.542 258.031C206.392 264.874 181.29 269.115 153.542 269.115C125.795 269.115 100.693 264.874 82.5425 258.031C73.4659 254.608 66.1491 250.543 61.1089 246.05C56.0683 241.557 53.3394 236.67 53.3394 231.591C53.3394 226.513 56.0684 221.625 61.1089 217.132C66.1491 212.639 73.4661 208.574 82.5425 205.152C100.693 198.308 125.795 194.067 153.542 194.067Z" stroke="#0D9488" stroke-width="0.824713"/>
<path opacity="0.6" d="M153.542 172.871C191.006 172.871 224.906 178.59 249.424 187.821C261.684 192.438 271.578 197.924 278.398 203.996C285.22 210.068 288.932 216.691 288.933 223.591C288.933 230.491 285.22 237.114 278.398 243.187C271.578 249.258 261.684 254.745 249.424 259.361C224.906 268.593 191.006 274.311 153.542 274.311C116.078 274.311 82.1783 268.593 57.6602 259.361C45.3997 254.745 35.5064 249.258 28.6855 243.187C21.8643 237.114 18.1514 230.491 18.1514 223.591C18.1515 216.691 21.8644 210.068 28.6855 203.996C35.5064 197.924 45.3997 192.438 57.6602 187.821C82.1783 178.59 116.078 172.871 153.542 172.871Z" stroke="#0D9488" stroke-width="0.824713"/>
<path opacity="0.45" d="M153.542 149.477C201.937 149.477 245.734 156.918 277.415 168.936C293.257 174.945 306.049 182.09 314.873 190.003C323.697 197.916 328.518 206.564 328.519 215.591C328.519 224.618 323.697 233.266 314.873 241.18C306.049 249.093 293.257 256.238 277.415 262.247C245.734 274.264 201.937 281.706 153.542 281.706C105.147 281.706 61.3514 274.264 29.6699 262.247C13.8279 256.238 1.03598 249.093 -7.78809 241.18C-16.6124 233.266 -21.4346 224.618 -21.4346 215.591C-21.4344 206.564 -16.6122 197.916 -7.78809 190.003C1.03598 182.09 13.8278 174.945 29.6699 168.936C61.3514 156.918 105.147 149.477 153.542 149.477Z" stroke="#0D9488" stroke-width="0.824713"/>
<path opacity="0.3" d="M153.542 126.082C213.173 126.082 267.14 135.247 306.184 150.05C325.707 157.452 341.478 166.256 352.361 176.01C363.244 185.766 369.205 196.439 369.205 207.592C369.204 218.744 363.244 229.416 352.361 239.172C341.478 248.927 325.707 257.731 306.184 265.133C267.14 279.936 213.173 289.1 153.542 289.1C93.9119 289.1 39.9441 279.936 0.899902 265.133C-18.6233 257.731 -34.3941 248.927 -45.2769 239.172C-56.1598 229.416 -62.1205 218.744 -62.1206 207.592C-62.1206 196.439 -56.16 185.766 -45.2769 176.01C-34.394 166.256 -18.6233 157.452 0.899902 150.05C39.9441 135.247 93.9119 126.082 153.542 126.082Z" stroke="#0D9488" stroke-width="0.824713"/>
<path opacity="0.2" d="M153.542 99.3884C226.533 99.3884 292.596 110.645 340.396 128.831C364.297 137.924 383.61 148.743 396.941 160.734C410.273 172.726 417.587 185.857 417.587 199.592C417.587 213.326 410.273 226.457 396.941 238.449C383.61 250.44 364.296 261.258 340.396 270.351C292.596 288.537 226.533 299.794 153.542 299.794C80.5509 299.794 14.4882 288.537 -33.3115 270.351C-57.2125 261.258 -76.5262 250.44 -89.8574 238.449C-103.189 226.457 -110.504 213.326 -110.504 199.592C-110.504 185.857 -103.189 172.726 -89.8574 160.734C-76.5262 148.743 -57.2127 137.924 -33.3115 128.831C14.4882 110.645 80.5509 99.3884 153.542 99.3884Z" stroke="#0D9488" stroke-width="0.824713"/>
<path opacity="0.1" d="M153.542 73.7944C238.983 73.7944 316.316 87.0207 372.274 108.39C400.255 119.075 422.87 131.789 438.482 145.885C454.095 159.982 462.672 175.427 462.672 191.591C462.672 207.755 454.095 223.201 438.482 237.297C422.87 251.394 400.255 264.107 372.274 274.792C316.316 296.162 238.983 309.387 153.542 309.387C68.1014 309.387 -9.23225 296.162 -65.1904 274.792C-93.1709 264.107 -115.786 251.394 -131.398 237.297C-147.011 223.201 -155.588 207.755 -155.588 191.591C-155.588 175.427 -147.011 159.981 -131.398 145.885C-115.786 131.789 -93.1708 119.075 -65.1904 108.39C-9.23225 87.0207 68.1014 73.7944 153.542 73.7944Z" stroke="#0D9488" stroke-width="0.824713"/>
</g>
<path d="M150.408 227.094L150.403 227.385C149.992 239.7 123.546 249.635 90.9839 249.635C58.4215 249.635 31.9763 239.7 31.5649 227.385L31.5601 227.094V104.148H150.408V227.094Z" fill="url(#paint1_linear_4246_11142)" fill-opacity="0.5"/>
<path d="M90.9839 204.896C107.363 204.896 122.176 207.414 132.882 211.475C138.236 213.506 142.546 215.916 145.51 218.574C148.475 221.233 150.066 224.113 150.066 227.094C150.066 230.075 148.475 232.955 145.51 235.614C142.546 238.272 138.236 240.682 132.882 242.713C122.176 246.774 107.363 249.292 90.9839 249.292C74.6051 249.292 59.7923 246.774 49.0864 242.713C43.7323 240.682 39.4222 238.272 36.4575 235.614C33.4928 232.955 31.9019 230.075 31.9019 227.094C31.9019 224.113 33.4927 221.233 36.4575 218.574C39.4222 215.916 43.7323 213.506 49.0864 211.475C59.7923 207.414 74.6052 204.896 90.9839 204.896Z" fill="#CCFBF1" stroke="white" stroke-width="0.683033"/>
<path d="M134.683 211.879V226.789C134.683 228.874 133.523 230.905 131.327 232.794C129.132 234.683 125.936 236.4 121.957 237.848C114.001 240.744 102.987 242.542 90.8052 242.542C78.6238 242.541 67.6105 240.744 59.6548 237.848C55.6755 236.4 52.4787 234.683 50.2837 232.794C48.0877 230.905 46.9283 228.874 46.9282 226.789V211.879H134.683Z" fill="#F0FDFA" stroke="#0D9488" stroke-width="0.683033"/>
<path d="M90.8052 193.967C102.985 193.967 113.997 195.842 121.952 198.863C125.93 200.374 129.126 202.164 131.322 204.135C133.517 206.106 134.683 208.23 134.683 210.417C134.683 212.605 133.517 214.729 131.322 216.7C129.126 218.671 125.93 220.461 121.952 221.972C113.997 224.993 102.985 226.868 90.8052 226.868C78.6251 226.868 67.6129 224.993 59.6587 221.972C55.6805 220.461 52.4848 218.671 50.2896 216.7C48.0941 214.729 46.9282 212.605 46.9282 210.417C46.9282 208.23 48.0941 206.106 50.2896 204.135C52.4848 202.164 55.6805 200.374 59.6587 198.863C67.6129 195.842 78.6251 193.967 90.8052 193.967Z" fill="#F0FDFA" stroke="#0D9488" stroke-width="0.683033"/>
<path d="M132.443 197.382V208.683C132.443 210.648 131.347 212.564 129.264 214.35C127.182 216.135 124.15 217.758 120.373 219.127C112.822 221.866 102.369 223.566 90.8057 223.566C79.2422 223.566 68.788 221.866 61.2373 219.127C57.4607 217.758 54.4284 216.135 52.3467 214.35C50.2638 212.564 49.167 210.648 49.167 208.683V197.382H132.443Z" fill="#14B8A6" stroke="#F0FDFA" stroke-width="0.683033"/>
<path d="M134.683 187.29V202.199C134.683 204.284 133.523 206.315 131.327 208.205C129.132 210.094 125.936 211.811 121.957 213.259C114.001 216.154 102.987 217.952 90.8052 217.952C78.6238 217.952 67.6105 216.154 59.6548 213.259C55.6755 211.81 52.4787 210.094 50.2837 208.205C48.0877 206.315 46.9283 204.284 46.9282 202.199V187.29H134.683Z" fill="#F0FDFA" stroke="#0D9488" stroke-width="0.683033"/>
<path d="M90.8052 169.378C102.985 169.378 113.997 171.253 121.952 174.274C125.93 175.784 129.126 177.575 131.322 179.546C133.517 181.517 134.683 183.641 134.683 185.828C134.683 188.016 133.517 190.14 131.322 192.111C129.126 194.082 125.93 195.872 121.952 197.383C113.997 200.404 102.985 202.279 90.8052 202.279C78.6251 202.279 67.6129 200.404 59.6587 197.383C55.6805 195.872 52.4848 194.082 50.2896 192.111C48.0941 190.139 46.9282 188.016 46.9282 185.828C46.9282 183.641 48.0941 181.517 50.2896 179.546C52.4848 177.575 55.6805 175.784 59.6587 174.274C67.6129 171.253 78.6251 169.378 90.8052 169.378Z" fill="#F0FDFA" stroke="#0D9488" stroke-width="0.683033"/>
<path d="M132.443 172.793V184.094C132.443 186.059 131.347 187.975 129.264 189.761C127.182 191.546 124.15 193.169 120.373 194.538C112.822 197.277 102.369 198.977 90.8057 198.977C79.2422 198.977 68.788 197.277 61.2373 194.538C57.4607 193.169 54.4284 191.546 52.3467 189.761C50.2638 187.975 49.167 186.059 49.167 184.094V172.793H132.443Z" fill="#0F766E" stroke="#F0FDFA" stroke-width="0.683033"/>
<path d="M134.683 162.701V177.61C134.683 179.695 133.523 181.726 131.327 183.616C129.132 185.505 125.936 187.221 121.957 188.67C114.001 191.565 102.987 193.363 90.8052 193.363C78.6238 193.363 67.6105 191.565 59.6548 188.67C55.6755 187.221 52.4787 185.505 50.2837 183.616C48.0877 181.726 46.9283 179.695 46.9282 177.61V162.701H134.683Z" fill="#F0FDFA" stroke="#0D9488" stroke-width="0.683033"/>
<path d="M90.8052 144.789C102.985 144.789 113.997 146.664 121.952 149.685C125.93 151.195 129.126 152.986 131.322 154.957C133.517 156.928 134.683 159.052 134.683 161.239C134.683 163.427 133.517 165.55 131.322 167.521C129.126 169.492 125.93 171.283 121.952 172.794C113.997 175.815 102.985 177.689 90.8052 177.689C78.6251 177.689 67.6129 175.815 59.6587 172.794C55.6805 171.283 52.4848 169.492 50.2896 167.521C48.0941 165.55 46.9282 163.427 46.9282 161.239C46.9282 159.052 48.0941 156.928 50.2896 154.957C52.4848 152.986 55.6805 151.195 59.6587 149.685C67.6129 146.664 78.6251 144.789 90.8052 144.789Z" fill="#F0FDFA" stroke="#0D9488" stroke-width="0.683033"/>
<path d="M316.539 227.094C316.539 239.543 289.934 249.634 257.115 249.634C224.296 249.634 197.691 239.543 197.691 227.094V61.8H316.539V227.094Z" fill="url(#paint2_linear_4246_11142)" fill-opacity="0.5"/>
<path d="M257.115 204.896C273.494 204.896 288.308 207.414 299.014 211.475C304.368 213.506 308.677 215.916 311.642 218.574C314.606 221.233 316.197 224.113 316.197 227.094C316.197 230.075 314.606 232.955 311.642 235.614C308.677 238.272 304.368 240.682 299.014 242.713C288.308 246.774 273.494 249.292 257.115 249.292C240.736 249.292 225.924 246.774 215.218 242.713C209.864 240.682 205.554 238.272 202.589 235.614C199.624 232.955 198.033 230.075 198.033 227.094C198.033 224.113 199.624 221.233 202.589 218.574C205.554 215.916 209.864 213.506 215.218 211.475C225.924 207.414 240.737 204.896 257.115 204.896Z" fill="#0D9488" stroke="white" stroke-width="0.683033"/>
<path d="M300.814 211.879V226.789C300.814 228.874 299.654 230.905 297.458 232.794C295.263 234.683 292.066 236.4 288.087 237.848C280.132 240.744 269.118 242.542 256.936 242.542C244.755 242.541 233.741 240.744 225.786 237.848C221.806 236.4 218.61 234.683 216.415 232.794C214.219 230.905 213.059 228.874 213.059 226.789V211.879H300.814Z" fill="#F0FDFA" stroke="#0D9488" stroke-width="0.683033"/>
<path d="M256.937 193.967C269.117 193.967 280.129 195.842 288.083 198.863C292.061 200.374 295.258 202.164 297.453 204.135C299.648 206.106 300.814 208.23 300.814 210.417C300.814 212.605 299.648 214.729 297.453 216.7C295.258 218.671 292.061 220.461 288.083 221.972C280.129 224.993 269.117 226.868 256.937 226.868C244.756 226.868 233.744 224.993 225.79 221.972C221.812 220.461 218.616 218.671 216.421 216.7C214.225 214.729 213.06 212.605 213.06 210.417C213.06 208.23 214.225 206.106 216.421 204.135C218.616 202.164 221.812 200.374 225.79 198.863C233.744 195.842 244.756 193.967 256.937 193.967Z" fill="#F0FDFA" stroke="#0D9488" stroke-width="0.683033"/>
<path d="M298.574 197.382V208.683C298.574 210.648 297.477 212.564 295.395 214.35C293.313 216.135 290.28 217.758 286.504 219.127C278.953 221.866 268.5 223.566 256.937 223.566C245.373 223.566 234.919 221.866 227.368 219.127C223.592 217.758 220.559 216.135 218.478 214.35C216.395 212.564 215.298 210.648 215.298 208.683V197.382H298.574Z" fill="#CCFBF1" stroke="#F0FDFA" stroke-width="0.683033"/>
<path d="M300.814 187.29V202.199C300.814 204.284 299.654 206.315 297.458 208.205C295.263 210.094 292.066 211.811 288.087 213.259C280.132 216.154 269.118 217.952 256.936 217.952C244.755 217.952 233.741 216.154 225.786 213.259C221.806 211.81 218.61 210.094 216.415 208.205C214.219 206.315 213.059 204.284 213.059 202.199V187.29H300.814Z" fill="#F0FDFA" stroke="#0D9488" stroke-width="0.683033"/>
<path d="M256.937 169.378C269.117 169.378 280.129 171.253 288.083 174.274C292.061 175.784 295.258 177.575 297.453 179.546C299.648 181.517 300.814 183.641 300.814 185.828C300.814 188.016 299.648 190.14 297.453 192.111C295.258 194.082 292.061 195.872 288.083 197.383C280.129 200.404 269.117 202.279 256.937 202.279C244.756 202.279 233.744 200.404 225.79 197.383C221.812 195.872 218.616 194.082 216.421 192.111C214.225 190.139 213.06 188.016 213.06 185.828C213.06 183.641 214.225 181.517 216.421 179.546C218.616 177.575 221.812 175.784 225.79 174.274C233.744 171.253 244.756 169.378 256.937 169.378Z" fill="#F0FDFA" stroke="#0D9488" stroke-width="0.683033"/>
<path d="M298.574 172.793V184.094C298.574 186.059 297.477 187.975 295.395 189.761C293.313 191.546 290.28 193.169 286.504 194.538C278.953 197.277 268.5 198.977 256.937 198.977C245.373 198.977 234.919 197.277 227.368 194.538C223.592 193.169 220.559 191.546 218.478 189.761C216.395 187.975 215.298 186.059 215.298 184.094V172.793H298.574Z" fill="#14B8A6" stroke="#F0FDFA" stroke-width="0.683033"/>
<path d="M300.814 162.701V177.61C300.814 179.695 299.654 181.726 297.458 183.616C295.263 185.505 292.066 187.221 288.087 188.67C280.132 191.565 269.118 193.363 256.936 193.363C244.755 193.363 233.741 191.565 225.786 188.67C221.806 187.221 218.61 185.505 216.415 183.616C214.219 181.726 213.059 179.695 213.059 177.61V162.701H300.814Z" fill="#F0FDFA" stroke="#0D9488" stroke-width="0.683033"/>
<path d="M256.937 144.789C269.117 144.789 280.129 146.664 288.083 149.685C292.061 151.195 295.258 152.986 297.453 154.957C299.648 156.928 300.814 159.052 300.814 161.239C300.814 163.427 299.648 165.55 297.453 167.521C295.258 169.492 292.061 171.283 288.083 172.794C280.129 175.815 269.117 177.689 256.937 177.689C244.756 177.689 233.744 175.815 225.79 172.794C221.812 171.283 218.616 169.492 216.421 167.521C214.225 165.55 213.06 163.427 213.06 161.239C213.06 159.052 214.225 156.928 216.421 154.957C218.616 152.986 221.812 151.195 225.79 149.685C233.744 146.664 244.756 144.789 256.937 144.789Z" fill="#F0FDFA" stroke="#0D9488" stroke-width="0.683033"/>
<path d="M298.574 148.204V159.505C298.574 161.47 297.477 163.386 295.395 165.172C293.313 166.957 290.28 168.58 286.504 169.949C278.953 172.688 268.5 174.388 256.937 174.388C245.373 174.388 234.919 172.688 227.368 169.949C223.592 168.58 220.559 166.957 218.478 165.172C216.395 163.386 215.298 161.47 215.298 159.505V148.204H298.574Z" fill="#0F766E" stroke="#F0FDFA" stroke-width="0.683033"/>
<path d="M300.814 138.112V153.021C300.814 155.106 299.654 157.137 297.458 159.027C295.263 160.916 292.067 162.632 288.088 164.081C280.132 166.976 269.118 168.774 256.937 168.774C244.755 168.774 233.742 166.976 225.786 164.081C221.807 162.632 218.61 160.916 216.415 159.027C214.219 157.137 213.06 155.106 213.06 153.021V138.112H300.814Z" fill="#F0FDFA" stroke="#0D9488" stroke-width="0.683033"/>
<path d="M256.937 120.2C269.117 120.2 280.129 122.075 288.083 125.095C292.061 126.606 295.258 128.397 297.453 130.368C299.648 132.339 300.814 134.463 300.814 136.65C300.814 138.837 299.648 140.961 297.453 142.932C295.258 144.903 292.061 146.694 288.083 148.205C280.129 151.225 269.117 153.1 256.937 153.1C244.756 153.1 233.744 151.225 225.79 148.205C221.812 146.694 218.616 144.903 216.421 142.932C214.225 140.961 213.06 138.837 213.06 136.65C213.06 134.462 214.225 132.339 216.421 130.368C218.616 128.397 221.812 126.606 225.79 125.095C233.744 122.075 244.756 120.2 256.937 120.2Z" fill="#F0FDFA" stroke="#0D9488" stroke-width="0.683033"/>
<g clip-path="url(#clip1_4246_11142)">
<path d="M245.62 125.81L240.211 129.681C237.914 131.15 236.48 133.645 236.375 136.373C236.375 136.373 236.328 137.34 236.352 137.83C236.433 140.371 237.937 142.656 240.234 143.741H244.746L244.851 144.382H253.361C254.002 144.37 254.62 144.137 255.133 143.741H259.365C259.867 144.114 260.461 144.324 261.079 144.347H269.59L269.683 143.741H273.845C276.141 142.656 277.645 140.371 277.727 137.83C277.75 137.037 277.704 136.244 277.587 135.463L277.529 135.125L277.494 134.915C277.051 132.759 275.745 130.87 273.88 129.692L268.902 126.137L266.57 121.077C266.302 120.855 266.092 120.681 265.952 120.564C264.262 121.648 262.326 122.313 260.321 122.511L254.154 122.546C252.149 122.348 250.213 121.683 248.523 120.599C248.383 120.727 248.173 120.902 247.905 121.112C247.905 121.112 245.655 125.81 245.643 125.822" fill="white"/>
<path d="M245.62 125.81L240.211 129.681C237.914 131.15 236.48 133.645 236.375 136.373C236.375 136.373 236.328 137.34 236.352 137.83C236.433 140.371 237.937 142.656 240.234 143.741H244.746L244.851 144.382H253.361C254.002 144.37 254.62 144.137 255.133 143.741H259.365C259.867 144.114 260.461 144.324 261.079 144.347H269.59L269.683 143.741H273.845C276.141 142.656 277.645 140.371 277.727 137.83C277.75 137.037 277.704 136.244 277.587 135.463L277.529 135.125L277.494 134.915C277.051 132.759 275.745 130.87 273.88 129.692L268.902 126.137L266.57 121.077C266.302 120.855 266.092 120.681 265.952 120.564C264.262 121.648 262.326 122.313 260.321 122.511L254.154 122.546C252.149 122.348 250.213 121.683 248.523 120.599C248.383 120.727 248.173 120.902 247.905 121.112C247.905 121.112 245.655 125.81 245.643 125.822" stroke="#0D9488" stroke-width="0.699497" stroke-linejoin="round"/>
<path d="M265.918 120.541C266.058 120.669 266.268 120.844 266.536 121.054C267.853 122.791 268.797 125.764 268.797 125.764L269.567 129.634C270.523 130.998 271.059 132.607 271.117 134.274L270.989 135.137L269.625 143.997L269.567 144.335H261.056C260.333 144.324 259.646 144.044 259.109 143.566C259.039 143.508 258.969 143.449 258.911 143.379C258.305 142.75 257.967 141.922 257.955 141.048C257.955 140.663 258.013 140.29 258.13 139.929L259.937 135.72C260.17 135.289 260.287 134.799 260.287 134.309V133.248C260.252 133.26 260.217 133.272 260.182 133.295C259.727 133.47 259.249 133.563 258.76 133.563H255.67C255.134 133.563 254.609 133.458 254.12 133.248V134.356C254.12 134.845 254.236 135.335 254.469 135.767L256.276 139.975C256.393 140.337 256.44 140.721 256.451 141.094C256.451 141.969 256.102 142.796 255.495 143.426C255.437 143.496 255.367 143.554 255.297 143.613C254.761 144.091 254.073 144.37 253.35 144.382H244.84L244.781 144.044L243.417 135.184L243.289 134.321C243.347 132.654 243.884 131.045 244.84 129.681L245.609 125.81C245.621 125.799 245.854 123.98 247.871 121.1C248.139 120.879 248.349 120.704 248.489 120.587C250.191 121.672 252.114 122.336 254.12 122.534H260.264C260.264 122.523 260.264 122.511 260.264 122.499H260.287C262.292 122.301 264.227 121.637 265.918 120.552V120.541Z" fill="white" stroke="#0D9488" stroke-width="0.699497" stroke-linejoin="round"/>
<path d="M280.595 112.636L280.397 112.263C277.518 107.18 269.916 96.3496 257.209 96.3496C244.501 96.3496 236.9 107.18 234.021 112.263C232.913 114.222 232.587 116.518 233.134 118.699C233.391 119.794 233.787 120.89 234.475 121.8C235.07 122.581 236.002 123.304 236.83 123.688C239.15 124.726 241.47 124.446 243.429 123.735C245.376 123.024 246.985 121.87 247.894 121.123C247.964 121.065 248.022 121.019 248.08 120.972C249.654 122.068 251.566 122.709 253.641 122.709H260.823C262.875 122.709 264.775 122.079 266.349 120.995C266.396 121.042 266.454 121.077 266.512 121.123C267.422 121.87 269.03 123.024 270.977 123.735C272.924 124.446 275.256 124.738 277.576 123.7C278.404 123.315 279.255 122.744 279.931 121.8C280.595 120.867 281.015 119.794 281.272 118.699C281.785 116.658 281.528 114.513 280.584 112.636H280.595Z" fill="white" stroke="#0D9488" stroke-width="0.699497" stroke-linejoin="round"/>
<path d="M248.116 120.564C244.525 118.162 243.592 114.035 243.592 109.535C243.592 109.535 243.744 108.428 243.907 107.926C244.024 107.577 244.14 107.262 244.234 106.947C241.657 107.134 239.454 108.824 237.845 111.4C236.143 114.117 235.14 117.766 235.105 121.438C235.105 121.59 235 121.73 234.86 121.765C234.825 121.765 234.79 121.765 234.767 121.765C235.292 122.511 235.98 123.117 236.796 123.49C239.092 124.516 241.389 124.236 243.313 123.537C245.236 122.837 246.822 121.695 247.731 120.96C247.906 120.82 248.034 120.704 248.151 120.599C248.139 120.599 248.127 120.587 248.104 120.576L248.116 120.564Z" fill="#0D9488"/>
<path d="M279.289 121.613C279.254 117.894 278.24 114.21 276.515 111.447C274.883 108.847 272.656 107.134 270.044 106.947C270.149 107.262 270.266 107.588 270.382 107.938C270.546 108.439 270.697 108.999 270.697 109.57C270.697 114.129 269.753 118.302 266.115 120.739C266.104 120.739 266.092 120.75 266.069 120.762C266.185 120.867 266.325 120.984 266.5 121.135C267.41 121.881 269.018 123.035 270.965 123.747C272.912 124.458 275.244 124.749 277.564 123.712C278.392 123.327 279.091 122.709 279.627 121.951C279.592 121.951 279.557 121.963 279.523 121.951C279.371 121.905 279.278 121.776 279.266 121.613H279.289Z" fill="#0D9488"/>
<path d="M264.425 111.646C264.227 111.646 264.029 111.715 263.889 111.867C263.644 112.147 263.528 112.508 263.539 112.881C263.528 113.254 263.656 113.604 263.901 113.884C264.041 114.024 264.227 114.105 264.414 114.105C264.612 114.105 264.81 114.024 264.95 113.884C265.195 113.604 265.311 113.243 265.3 112.881C265.311 112.508 265.183 112.147 264.938 111.867C264.798 111.727 264.612 111.646 264.425 111.646Z" fill="#0D9488"/>
<path d="M251.566 111.879C251.426 111.727 251.24 111.657 251.053 111.646C250.855 111.646 250.657 111.727 250.517 111.867C250.272 112.135 250.144 112.497 250.156 112.87C250.144 113.243 250.261 113.604 250.505 113.872C250.645 114.024 250.832 114.094 251.018 114.105C251.216 114.105 251.415 114.024 251.555 113.884C252.033 113.301 252.033 112.462 251.555 111.879H251.566Z" fill="#0D9488"/>
<path d="M261.23 114.84V120.844C261.23 121.345 261.428 121.823 261.79 122.184C262.151 122.546 262.618 122.744 263.131 122.744C265.066 122.744 266.64 124.318 266.64 126.253C266.64 128.188 265.066 129.762 263.131 129.762C261.195 129.762 258.514 128.841 256.835 127.151C255.156 125.472 254.224 123.234 254.224 120.855V114.851" fill="white"/>
<path d="M261.23 114.84V120.844C261.23 121.345 261.428 121.823 261.79 122.184C262.151 122.546 262.618 122.744 263.131 122.744C265.066 122.744 266.64 124.318 266.64 126.253C266.64 128.188 265.066 129.762 263.131 129.762C261.195 129.762 258.514 128.841 256.835 127.151C255.156 125.472 254.224 123.234 254.224 120.855V114.851" stroke="#0D9488" stroke-width="0.699497" stroke-linecap="round" stroke-linejoin="round"/>
</g>
<g filter="url(#filter0_dd_4246_11142)">
<rect x="35" y="37.8" width="433" height="40" rx="8" fill="#F9FAFB"/>
<rect x="35.5" y="38.3" width="432" height="39" rx="7.5" stroke="#E5E7EB"/>
<g filter="url(#filter1_dddddd_4246_11142)">
<circle cx="51" cy="56.8" r="3" fill="#0F766E"/>
<circle cx="51" cy="56.8" r="2.68942" stroke="#E5E7EB" stroke-width="0.621156"/>
</g>
<path d="M72.92 62.6V55.3H73.82V56.35H74L73.82 56.56C73.82 56.14 73.9567 55.81 74.23 55.57C74.51 55.3234 74.8767 55.2 75.33 55.2C75.8833 55.2 76.3233 55.3834 76.65 55.75C76.9833 56.11 77.15 56.6067 77.15 57.24V58.85C77.15 59.27 77.0733 59.6334 76.92 59.94C76.7733 60.2467 76.5633 60.4834 76.29 60.65C76.0233 60.8167 75.7033 60.9 75.33 60.9C74.8833 60.9 74.52 60.7767 74.24 60.53C73.96 60.2834 73.82 59.9534 73.82 59.54L74 59.75H73.8L73.82 61V62.6H72.92ZM75.03 60.12C75.41 60.12 75.7067 60.0067 75.92 59.78C76.14 59.5534 76.25 59.2267 76.25 58.8V57.3C76.25 56.8734 76.14 56.5467 75.92 56.32C75.7067 56.0934 75.41 55.98 75.03 55.98C74.6633 55.98 74.37 56.0967 74.15 56.33C73.93 56.5634 73.82 56.8867 73.82 57.3V58.8C73.82 59.2134 73.93 59.5367 74.15 59.77C74.37 60.0034 74.6633 60.12 75.03 60.12ZM80.9961 60.88C80.5561 60.88 80.1761 60.7967 79.8561 60.63C79.5361 60.4634 79.2861 60.2234 79.1061 59.91C78.9328 59.59 78.8461 59.2134 78.8461 58.78V57.32C78.8461 56.88 78.9328 56.5034 79.1061 56.19C79.2861 55.8767 79.5361 55.6367 79.8561 55.47C80.1761 55.3034 80.5561 55.22 80.9961 55.22C81.4361 55.22 81.8161 55.3034 82.1361 55.47C82.4561 55.6367 82.7028 55.8767 82.8761 56.19C83.0561 56.5034 83.1461 56.8767 83.1461 57.31V58.78C83.1461 59.2134 83.0561 59.59 82.8761 59.91C82.7028 60.2234 82.4561 60.4634 82.1361 60.63C81.8161 60.7967 81.4361 60.88 80.9961 60.88ZM80.9961 60.08C81.3894 60.08 81.6961 59.97 81.9161 59.75C82.1361 59.53 82.2461 59.2067 82.2461 58.78V57.32C82.2461 56.8934 82.1361 56.57 81.9161 56.35C81.6961 56.13 81.3894 56.02 80.9961 56.02C80.6094 56.02 80.3028 56.13 80.0761 56.35C79.8561 56.57 79.7461 56.8934 79.7461 57.32V58.78C79.7461 59.2067 79.8561 59.53 80.0761 59.75C80.3028 59.97 80.6094 60.08 80.9961 60.08ZM86.8222 60.88C86.4489 60.88 86.1222 60.8234 85.8422 60.71C85.5689 60.59 85.3489 60.4234 85.1822 60.21C85.0222 59.9967 84.9255 59.7434 84.8922 59.45H85.7922C85.8322 59.6434 85.9389 59.7967 86.1122 59.91C86.2922 60.0234 86.5289 60.08 86.8222 60.08H87.2422C87.5955 60.08 87.8589 60.01 88.0322 59.87C88.2055 59.7234 88.2922 59.53 88.2922 59.29C88.2922 59.0567 88.2122 58.8734 88.0522 58.74C87.8989 58.6 87.6689 58.5067 87.3622 58.46L86.6222 58.34C86.0822 58.2467 85.6789 58.08 85.4122 57.84C85.1522 57.5934 85.0222 57.2367 85.0222 56.77C85.0222 56.2767 85.1789 55.8967 85.4922 55.63C85.8055 55.3567 86.2755 55.22 86.9022 55.22H87.2822C87.8089 55.22 88.2322 55.3434 88.5522 55.59C88.8722 55.8367 89.0655 56.17 89.1322 56.59H88.2322C88.1922 56.4167 88.0922 56.28 87.9322 56.18C87.7722 56.0734 87.5555 56.02 87.2822 56.02H86.9022C86.5622 56.02 86.3122 56.0834 86.1522 56.21C85.9989 56.3367 85.9222 56.5267 85.9222 56.78C85.9222 57.0067 85.9889 57.1734 86.1222 57.28C86.2555 57.3867 86.4655 57.4634 86.7522 57.51L87.4922 57.63C88.0855 57.7234 88.5155 57.8967 88.7822 58.15C89.0555 58.4034 89.1922 58.77 89.1922 59.25C89.1922 59.7567 89.0289 60.1567 88.7022 60.45C88.3822 60.7367 87.8955 60.88 87.2422 60.88H86.8222ZM93.5883 60.8C93.1149 60.8 92.7449 60.6734 92.4783 60.42C92.2183 60.1667 92.0883 59.81 92.0883 59.35V56.12H90.5383V55.3H92.0883V53.75H92.9883V55.3H95.1883V56.12H92.9883V59.35C92.9883 59.77 93.1883 59.98 93.5883 59.98H95.0883V60.8H93.5883ZM97.5944 62.6V61.78H99.3444C99.6244 61.78 99.8277 61.7167 99.9544 61.59C100.088 61.4634 100.154 61.2667 100.154 61V60.3L100.174 59.3H99.9944L100.164 59.15C100.164 59.55 100.031 59.8667 99.7644 60.1C99.4977 60.3334 99.141 60.45 98.6944 60.45C98.1277 60.45 97.681 60.2667 97.3544 59.9C97.0277 59.5267 96.8644 59.0267 96.8644 58.4V57.24C96.8644 56.6134 97.0277 56.1167 97.3544 55.75C97.681 55.3834 98.1277 55.2 98.6944 55.2C99.141 55.2 99.4977 55.3167 99.7644 55.55C100.031 55.7834 100.164 56.1 100.164 56.5L99.9944 56.35H100.164V55.3H101.054V61C101.054 61.4934 100.901 61.8834 100.594 62.17C100.294 62.4567 99.8744 62.6 99.3344 62.6H97.5944ZM98.9644 59.67C99.3377 59.67 99.631 59.5534 99.8444 59.32C100.058 59.0867 100.164 58.7634 100.164 58.35V57.3C100.164 56.8867 100.058 56.5634 99.8444 56.33C99.631 56.0967 99.3377 55.98 98.9644 55.98C98.5844 55.98 98.2877 56.0934 98.0744 56.32C97.8677 56.5467 97.7644 56.8734 97.7644 57.3V58.35C97.7644 58.7767 97.8677 59.1034 98.0744 59.33C98.2877 59.5567 98.5844 59.67 98.9644 59.67ZM103.09 60.8V55.3H103.97V56.35H104.18L103.89 57C103.89 56.4067 104.017 55.96 104.27 55.66C104.53 55.3534 104.914 55.2 105.42 55.2C106 55.2 106.46 55.3834 106.8 55.75C107.147 56.11 107.32 56.6 107.32 57.22V57.55H106.42V57.3C106.42 56.8667 106.314 56.5367 106.1 56.31C105.894 56.0767 105.597 55.96 105.21 55.96C104.83 55.96 104.53 56.0767 104.31 56.31C104.097 56.5434 103.99 56.8734 103.99 57.3V60.8H103.09ZM110.977 60.9C110.543 60.9 110.163 60.8134 109.837 60.64C109.517 60.4667 109.267 60.2234 109.087 59.91C108.913 59.59 108.827 59.22 108.827 58.8V57.3C108.827 56.8734 108.913 56.5034 109.087 56.19C109.267 55.8767 109.517 55.6334 109.837 55.46C110.163 55.2867 110.543 55.2 110.977 55.2C111.41 55.2 111.787 55.2867 112.107 55.46C112.433 55.6334 112.683 55.8767 112.857 56.19C113.037 56.5034 113.127 56.8734 113.127 57.3V58.27H109.707V58.8C109.707 59.2334 109.817 59.5667 110.037 59.8C110.257 60.0267 110.57 60.14 110.977 60.14C111.323 60.14 111.603 60.08 111.817 59.96C112.03 59.8334 112.16 59.6467 112.207 59.4H113.107C113.047 59.86 112.82 60.2267 112.427 60.5C112.04 60.7667 111.557 60.9 110.977 60.9ZM112.247 57.67V57.3C112.247 56.8667 112.137 56.5334 111.917 56.3C111.703 56.0667 111.39 55.95 110.977 55.95C110.57 55.95 110.257 56.0667 110.037 56.3C109.817 56.5334 109.707 56.8667 109.707 57.3V57.59H112.317L112.247 57.67ZM116.803 60.88C116.429 60.88 116.103 60.8234 115.823 60.71C115.549 60.59 115.329 60.4234 115.163 60.21C115.003 59.9967 114.906 59.7434 114.873 59.45H115.773C115.813 59.6434 115.919 59.7967 116.093 59.91C116.273 60.0234 116.509 60.08 116.803 60.08H117.223C117.576 60.08 117.839 60.01 118.013 59.87C118.186 59.7234 118.273 59.53 118.273 59.29C118.273 59.0567 118.193 58.8734 118.033 58.74C117.879 58.6 117.649 58.5067 117.343 58.46L116.603 58.34C116.063 58.2467 115.659 58.08 115.393 57.84C115.133 57.5934 115.003 57.2367 115.003 56.77C115.003 56.2767 115.159 55.8967 115.473 55.63C115.786 55.3567 116.256 55.22 116.883 55.22H117.263C117.789 55.22 118.213 55.3434 118.533 55.59C118.853 55.8367 119.046 56.17 119.113 56.59H118.213C118.173 56.4167 118.073 56.28 117.913 56.18C117.753 56.0734 117.536 56.02 117.263 56.02H116.883C116.543 56.02 116.293 56.0834 116.133 56.21C115.979 56.3367 115.903 56.5267 115.903 56.78C115.903 57.0067 115.969 57.1734 116.103 57.28C116.236 57.3867 116.446 57.4634 116.733 57.51L117.473 57.63C118.066 57.7234 118.496 57.8967 118.763 58.15C119.036 58.4034 119.173 58.77 119.173 59.25C119.173 59.7567 119.009 60.1567 118.683 60.45C118.363 60.7367 117.876 60.88 117.223 60.88H116.803ZM122.969 56.7C122.722 56.7 122.522 56.6334 122.369 56.5C122.215 56.36 122.139 56.1767 122.139 55.95C122.139 55.7234 122.215 55.5434 122.369 55.41C122.522 55.27 122.722 55.2 122.969 55.2C123.222 55.2 123.422 55.27 123.569 55.41C123.722 55.5434 123.799 55.7234 123.799 55.95C123.799 56.1767 123.722 56.36 123.569 56.5C123.422 56.6334 123.222 56.7 122.969 56.7ZM122.969 60.9C122.722 60.9 122.522 60.8334 122.369 60.7C122.215 60.56 122.139 60.3767 122.139 60.15C122.139 59.9234 122.215 59.7434 122.369 59.61C122.522 59.47 122.722 59.4 122.969 59.4C123.222 59.4 123.422 59.47 123.569 59.61C123.722 59.7434 123.799 59.9234 123.799 60.15C123.799 60.3767 123.722 60.56 123.569 60.7C123.422 60.8334 123.222 60.9 122.969 60.9ZM131.961 61.9L135.511 52.5H136.461L132.911 61.9H131.961ZM127.461 61.9L131.011 52.5H131.961L128.411 61.9H127.461ZM138.857 60.8V59.98H140.837V54.25L138.857 55.73V54.73L140.507 53.5H141.737V59.98H143.357V60.8H138.857ZM144.873 60.8V59.88L147.103 57.51C147.483 57.1034 147.76 56.7434 147.933 56.43C148.106 56.11 148.193 55.8034 148.193 55.51C148.193 55.1034 148.08 54.7834 147.853 54.55C147.633 54.3167 147.33 54.2 146.943 54.2C146.516 54.2 146.18 54.32 145.933 54.56C145.693 54.8 145.573 55.13 145.573 55.55H144.673C144.686 55.11 144.786 54.73 144.973 54.41C145.166 54.0834 145.43 53.8334 145.763 53.66C146.103 53.4867 146.496 53.4 146.943 53.4C147.383 53.4 147.763 53.4867 148.083 53.66C148.41 53.8267 148.66 54.0667 148.833 54.38C149.006 54.6934 149.093 55.0667 149.093 55.5C149.093 55.9134 148.983 56.3234 148.763 56.73C148.543 57.1367 148.183 57.6 147.683 58.12L145.883 59.98H149.213V60.8H144.873ZM152.949 60.9C152.516 60.9 152.136 60.8134 151.809 60.64C151.489 60.4667 151.239 60.2234 151.059 59.91C150.886 59.59 150.799 59.22 150.799 58.8V57.3C150.799 56.8734 150.886 56.5034 151.059 56.19C151.239 55.8767 151.489 55.6334 151.809 55.46C152.136 55.2867 152.516 55.2 152.949 55.2C153.383 55.2 153.759 55.2867 154.079 55.46C154.406 55.6334 154.656 55.8767 154.829 56.19C155.009 56.5034 155.099 56.8734 155.099 57.3V58.27H151.679V58.8C151.679 59.2334 151.789 59.5667 152.009 59.8C152.229 60.0267 152.543 60.14 152.949 60.14C153.296 60.14 153.576 60.08 153.789 59.96C154.003 59.8334 154.133 59.6467 154.179 59.4H155.079C155.019 59.86 154.793 60.2267 154.399 60.5C154.013 60.7667 153.529 60.9 152.949 60.9ZM154.219 57.67V57.3C154.219 56.8667 154.109 56.5334 153.889 56.3C153.676 56.0667 153.363 55.95 152.949 55.95C152.543 55.95 152.229 56.0667 152.009 56.3C151.789 56.5334 151.679 56.8667 151.679 57.3V57.59H154.289L154.219 57.67ZM158.925 60.9C158.332 60.9 157.845 60.7467 157.465 60.44C157.085 60.1334 156.862 59.72 156.795 59.2H157.695C157.729 59.4867 157.852 59.71 158.065 59.87C158.279 60.0234 158.569 60.1 158.935 60.1C159.355 60.1 159.669 59.9867 159.875 59.76C160.089 59.5334 160.195 59.2134 160.195 58.8V58.09C160.195 57.6767 160.089 57.3567 159.875 57.13C159.669 56.9034 159.359 56.79 158.945 56.79C158.685 56.79 158.459 56.86 158.265 57C158.072 57.1334 157.932 57.3134 157.845 57.54H156.945L156.995 53.5H160.835V54.32H157.865L157.835 56.75H158.115L157.835 57.01C157.835 56.6967 157.959 56.45 158.205 56.27C158.459 56.09 158.795 56 159.215 56C159.809 55.9934 160.269 56.1767 160.595 56.55C160.929 56.9167 161.095 57.43 161.095 58.09V58.8C161.095 59.4467 160.905 59.96 160.525 60.34C160.145 60.7134 159.612 60.9 158.925 60.9ZM164.621 60.9C164.075 60.9 163.631 60.7167 163.291 60.35C162.958 59.9834 162.791 59.4867 162.791 58.86V57.25C162.791 56.6167 162.958 56.1167 163.291 55.75C163.625 55.3834 164.068 55.2 164.621 55.2C165.075 55.2 165.438 55.3234 165.711 55.57C165.985 55.8167 166.121 56.1467 166.121 56.56L165.941 56.35H166.141L166.121 55.1V53.5H167.021V60.8H166.121V59.75H165.941L166.121 59.54C166.121 59.96 165.985 60.2934 165.711 60.54C165.438 60.78 165.075 60.9 164.621 60.9ZM164.921 60.12C165.295 60.12 165.588 60.0034 165.801 59.77C166.015 59.5367 166.121 59.2134 166.121 58.8V57.3C166.121 56.8867 166.015 56.5634 165.801 56.33C165.588 56.0967 165.295 55.98 164.921 55.98C164.541 55.98 164.241 56.0934 164.021 56.32C163.801 56.5467 163.691 56.8734 163.691 57.3V58.8C163.691 59.2267 163.801 59.5534 164.021 59.78C164.241 60.0067 164.541 60.12 164.921 60.12ZM170.458 60.9C169.878 60.9 169.421 60.7534 169.088 60.46C168.754 60.16 168.588 59.7567 168.588 59.25C168.588 58.7367 168.754 58.3334 169.088 58.04C169.421 57.7467 169.871 57.6 170.438 57.6H172.138V57.05C172.138 56.71 172.034 56.45 171.828 56.27C171.628 56.0834 171.341 55.99 170.968 55.99C170.641 55.99 170.368 56.06 170.148 56.2C169.928 56.3334 169.801 56.5167 169.768 56.75H168.868C168.928 56.2767 169.151 55.9 169.538 55.62C169.924 55.34 170.408 55.2 170.988 55.2C171.621 55.2 172.121 55.3634 172.488 55.69C172.854 56.0167 173.038 56.46 173.038 57.02V60.8H172.158V59.75H172.008L172.158 59.6C172.158 60 172.001 60.3167 171.688 60.55C171.381 60.7834 170.971 60.9 170.458 60.9ZM170.678 60.19C171.104 60.19 171.454 60.0834 171.728 59.87C172.001 59.6567 172.138 59.3834 172.138 59.05V58.27H170.458C170.158 58.27 169.921 58.3534 169.748 58.52C169.574 58.6867 169.488 58.9134 169.488 59.2C169.488 59.5067 169.591 59.75 169.798 59.93C170.011 60.1034 170.304 60.19 170.678 60.19ZM176.454 60.9C175.874 60.9 175.417 60.7534 175.084 60.46C174.75 60.16 174.584 59.7567 174.584 59.25C174.584 58.7367 174.75 58.3334 175.084 58.04C175.417 57.7467 175.867 57.6 176.434 57.6H178.134V57.05C178.134 56.71 178.03 56.45 177.824 56.27C177.624 56.0834 177.337 55.99 176.964 55.99C176.637 55.99 176.364 56.06 176.144 56.2C175.924 56.3334 175.797 56.5167 175.764 56.75H174.864C174.924 56.2767 175.147 55.9 175.534 55.62C175.92 55.34 176.404 55.2 176.984 55.2C177.617 55.2 178.117 55.3634 178.484 55.69C178.85 56.0167 179.034 56.46 179.034 57.02V60.8H178.154V59.75H178.004L178.154 59.6C178.154 60 177.997 60.3167 177.684 60.55C177.377 60.7834 176.967 60.9 176.454 60.9ZM176.674 60.19C177.1 60.19 177.45 60.0834 177.724 59.87C177.997 59.6567 178.134 59.3834 178.134 59.05V58.27H176.454C176.154 58.27 175.917 58.3534 175.744 58.52C175.57 58.6867 175.484 58.9134 175.484 59.2C175.484 59.5067 175.587 59.75 175.794 59.93C176.007 60.1034 176.3 60.19 176.674 60.19ZM182.91 60.9C182.316 60.9 181.83 60.7467 181.45 60.44C181.07 60.1334 180.846 59.72 180.78 59.2H181.68C181.713 59.4867 181.836 59.71 182.05 59.87C182.263 60.0234 182.553 60.1 182.92 60.1C183.34 60.1 183.653 59.9867 183.86 59.76C184.073 59.5334 184.18 59.2134 184.18 58.8V58.09C184.18 57.6767 184.073 57.3567 183.86 57.13C183.653 56.9034 183.343 56.79 182.93 56.79C182.67 56.79 182.443 56.86 182.25 57C182.056 57.1334 181.916 57.3134 181.83 57.54H180.93L180.98 53.5H184.82V54.32H181.85L181.82 56.75H182.1L181.82 57.01C181.82 56.6967 181.943 56.45 182.19 56.27C182.443 56.09 182.78 56 183.2 56C183.793 55.9934 184.253 56.1767 184.58 56.55C184.913 56.9167 185.08 57.43 185.08 58.09V58.8C185.08 59.4467 184.89 59.96 184.51 60.34C184.13 60.7134 183.596 60.9 182.91 60.9ZM188.926 56.7C188.679 56.7 188.479 56.6334 188.326 56.5C188.172 56.36 188.096 56.1767 188.096 55.95C188.096 55.7234 188.172 55.5434 188.326 55.41C188.479 55.27 188.679 55.2 188.926 55.2C189.179 55.2 189.379 55.27 189.526 55.41C189.679 55.5434 189.756 55.7234 189.756 55.95C189.756 56.1767 189.679 56.36 189.526 56.5C189.379 56.6334 189.179 56.7 188.926 56.7ZM188.926 60.9C188.679 60.9 188.479 60.8334 188.326 60.7C188.172 60.56 188.096 60.3767 188.096 60.15C188.096 59.9234 188.172 59.7434 188.326 59.61C188.479 59.47 188.679 59.4 188.926 59.4C189.179 59.4 189.379 59.47 189.526 59.61C189.679 59.7434 189.756 59.9234 189.756 60.15C189.756 60.3767 189.679 60.56 189.526 60.7C189.379 60.8334 189.179 60.9 188.926 60.9ZM194.752 60.88C194.379 60.88 194.052 60.8234 193.772 60.71C193.499 60.59 193.279 60.4234 193.112 60.21C192.952 59.9967 192.855 59.7434 192.822 59.45H193.722C193.762 59.6434 193.869 59.7967 194.042 59.91C194.222 60.0234 194.459 60.08 194.752 60.08H195.172C195.525 60.08 195.789 60.01 195.962 59.87C196.135 59.7234 196.222 59.53 196.222 59.29C196.222 59.0567 196.142 58.8734 195.982 58.74C195.829 58.6 195.599 58.5067 195.292 58.46L194.552 58.34C194.012 58.2467 193.609 58.08 193.342 57.84C193.082 57.5934 192.952 57.2367 192.952 56.77C192.952 56.2767 193.109 55.8967 193.422 55.63C193.735 55.3567 194.205 55.22 194.832 55.22H195.212C195.739 55.22 196.162 55.3434 196.482 55.59C196.802 55.8367 196.995 56.17 197.062 56.59H196.162C196.122 56.4167 196.022 56.28 195.862 56.18C195.702 56.0734 195.485 56.02 195.212 56.02H194.832C194.492 56.02 194.242 56.0834 194.082 56.21C193.929 56.3367 193.852 56.5267 193.852 56.78C193.852 57.0067 193.919 57.1734 194.052 57.28C194.185 57.3867 194.395 57.4634 194.682 57.51L195.422 57.63C196.015 57.7234 196.445 57.8967 196.712 58.15C196.985 58.4034 197.122 58.77 197.122 59.25C197.122 59.7567 196.959 60.1567 196.632 60.45C196.312 60.7367 195.825 60.88 195.172 60.88H194.752ZM198.868 60.8V53.5H199.768V57.57H200.828L202.428 55.3H203.458L201.608 57.92L203.488 60.8H202.438L200.838 58.35H199.768V60.8H198.868ZM204.514 61.8V61.05H209.314V61.8H204.514ZM210.84 60.8V53.5H211.74V56.62H214.08V53.5H214.98V60.8H214.08V57.44H211.74V60.8H210.84ZM218.736 60.88C218.363 60.88 218.036 60.8234 217.756 60.71C217.483 60.59 217.263 60.4234 217.096 60.21C216.936 59.9967 216.84 59.7434 216.806 59.45H217.706C217.746 59.6434 217.853 59.7967 218.026 59.91C218.206 60.0234 218.443 60.08 218.736 60.08H219.156C219.51 60.08 219.773 60.01 219.946 59.87C220.12 59.7234 220.206 59.53 220.206 59.29C220.206 59.0567 220.126 58.8734 219.966 58.74C219.813 58.6 219.583 58.5067 219.276 58.46L218.536 58.34C217.996 58.2467 217.593 58.08 217.326 57.84C217.066 57.5934 216.936 57.2367 216.936 56.77C216.936 56.2767 217.093 55.8967 217.406 55.63C217.72 55.3567 218.19 55.22 218.816 55.22H219.196C219.723 55.22 220.146 55.3434 220.466 55.59C220.786 55.8367 220.98 56.17 221.046 56.59H220.146C220.106 56.4167 220.006 56.28 219.846 56.18C219.686 56.0734 219.47 56.02 219.196 56.02H218.816C218.476 56.02 218.226 56.0834 218.066 56.21C217.913 56.3367 217.836 56.5267 217.836 56.78C217.836 57.0067 217.903 57.1734 218.036 57.28C218.17 57.3867 218.38 57.4634 218.666 57.51L219.406 57.63C220 57.7234 220.43 57.8967 220.696 58.15C220.97 58.4034 221.106 58.77 221.106 59.25C221.106 59.7567 220.943 60.1567 220.616 60.45C220.296 60.7367 219.81 60.88 219.156 60.88H218.736ZM222.902 60.8V53.5H227.102V54.32H223.792V56.58H226.752V57.39H223.792V59.98H227.102V60.8H222.902ZM230.938 60.9C230.498 60.9 230.112 60.8167 229.778 60.65C229.452 60.4834 229.198 60.2434 229.018 59.93C228.838 59.61 228.748 59.2334 228.748 58.8V57.3C228.748 56.86 228.838 56.4834 229.018 56.17C229.198 55.8567 229.452 55.6167 229.778 55.45C230.112 55.2834 230.498 55.2 230.938 55.2C231.572 55.2 232.082 55.37 232.468 55.71C232.855 56.05 233.058 56.5134 233.078 57.1H232.178C232.158 56.7467 232.038 56.4767 231.818 56.29C231.605 56.0967 231.312 56 230.938 56C230.545 56 230.232 56.1134 229.998 56.34C229.765 56.56 229.648 56.8767 229.648 57.29V58.8C229.648 59.2134 229.765 59.5334 229.998 59.76C230.232 59.9867 230.545 60.1 230.938 60.1C231.312 60.1 231.605 60.0034 231.818 59.81C232.038 59.6167 232.158 59.3467 232.178 59H233.078C233.058 59.5867 232.855 60.05 232.468 60.39C232.082 60.73 231.572 60.9 230.938 60.9ZM235.765 60.8L237.835 57.48L237.795 57.45C237.668 57.6367 237.495 57.78 237.275 57.88C237.055 57.98 236.808 58.03 236.535 58.03C236.141 58.03 235.795 57.9367 235.495 57.75C235.201 57.5634 234.975 57.3 234.815 56.96C234.655 56.6134 234.575 56.21 234.575 55.75C234.575 55.2767 234.671 54.8667 234.865 54.52C235.058 54.1667 235.328 53.8934 235.675 53.7C236.021 53.5 236.425 53.4 236.885 53.4C237.351 53.4 237.758 53.5 238.105 53.7C238.458 53.8934 238.731 54.1667 238.925 54.52C239.118 54.8667 239.215 55.2767 239.215 55.75C239.215 56.1167 239.161 56.4767 239.055 56.83C238.955 57.1834 238.801 57.5234 238.595 57.85L236.765 60.8H235.765ZM236.895 57.3C237.321 57.3 237.665 57.16 237.925 56.88C238.185 56.5934 238.315 56.2167 238.315 55.75C238.315 55.2834 238.185 54.91 237.925 54.63C237.665 54.3434 237.321 54.2 236.895 54.2C236.468 54.2 236.125 54.3434 235.865 54.63C235.605 54.91 235.475 55.2834 235.475 55.75C235.475 56.2167 235.605 56.5934 235.865 56.88C236.125 57.16 236.468 57.3 236.895 57.3ZM243.641 60.8C243.321 60.8 243.041 60.7367 242.801 60.61C242.561 60.4834 242.374 60.3034 242.241 60.07C242.107 59.8367 242.041 59.5634 242.041 59.25V54.32H240.191V53.5H242.941V59.25C242.941 59.4767 243.004 59.6567 243.131 59.79C243.257 59.9167 243.427 59.98 243.641 59.98H245.391V60.8H243.641ZM246.817 60.8V53.5H247.717V56.62H250.057V53.5H250.957V60.8H250.057V57.44H247.717V60.8H246.817ZM255.133 62.6C254.566 62.6 254.073 62.48 253.653 62.24C253.233 62.0067 252.906 61.67 252.673 61.23C252.446 60.7967 252.333 60.2867 252.333 59.7V56.3C252.333 55.7 252.439 55.1834 252.653 54.75C252.873 54.3167 253.183 53.9834 253.583 53.75C253.989 53.5167 254.473 53.4 255.033 53.4C255.539 53.4 255.976 53.5 256.343 53.7C256.709 53.8934 256.989 54.1734 257.183 54.54C257.383 54.9067 257.483 55.3434 257.483 55.85V60.15H256.773V59.6H256.493L256.683 59.4C256.683 59.6534 256.586 59.86 256.393 60.02C256.199 60.1734 255.943 60.25 255.623 60.25C255.189 60.25 254.856 60.12 254.623 59.86C254.396 59.5934 254.283 59.2067 254.283 58.7V57.5C254.283 56.9934 254.396 56.61 254.623 56.35C254.856 56.0834 255.189 55.95 255.623 55.95C255.943 55.95 256.199 56.03 256.393 56.19C256.586 56.3434 256.683 56.55 256.683 56.81L256.543 56.6H256.783L256.683 55.9V55.85C256.683 55.47 256.619 55.15 256.493 54.89C256.366 54.63 256.179 54.4334 255.933 54.3C255.693 54.1667 255.393 54.1 255.033 54.1C254.433 54.1 253.966 54.2934 253.633 54.68C253.299 55.0667 253.133 55.6067 253.133 56.3V59.7C253.133 60.3667 253.309 60.89 253.663 61.27C254.023 61.6567 254.513 61.85 255.133 61.85H255.833V62.6H255.133ZM255.883 59.62C256.156 59.62 256.356 59.5367 256.483 59.37C256.616 59.2034 256.683 58.9467 256.683 58.6V57.49C256.683 57.1767 256.616 56.9467 256.483 56.8C256.356 56.6534 256.156 56.58 255.883 56.58C255.616 56.58 255.416 56.6567 255.283 56.81C255.149 56.9567 255.083 57.1867 255.083 57.5V58.7C255.083 59.0134 255.149 59.2467 255.283 59.4C255.416 59.5467 255.616 59.62 255.883 59.62ZM260.559 60.9C260.012 60.9 259.569 60.7167 259.229 60.35C258.896 59.9834 258.729 59.4867 258.729 58.86V57.25C258.729 56.6167 258.896 56.1167 259.229 55.75C259.562 55.3834 260.006 55.2 260.559 55.2C261.012 55.2 261.376 55.3234 261.649 55.57C261.922 55.8167 262.059 56.1467 262.059 56.56L261.879 56.35H262.079L262.059 55.1V53.5H262.959V60.8H262.059V59.75H261.879L262.059 59.54C262.059 59.96 261.922 60.2934 261.649 60.54C261.376 60.78 261.012 60.9 260.559 60.9ZM260.859 60.12C261.232 60.12 261.526 60.0034 261.739 59.77C261.952 59.5367 262.059 59.2134 262.059 58.8V57.3C262.059 56.8867 261.952 56.5634 261.739 56.33C261.526 56.0967 261.232 55.98 260.859 55.98C260.479 55.98 260.179 56.0934 259.959 56.32C259.739 56.5467 259.629 56.8734 259.629 57.3V58.8C259.629 59.2267 259.739 59.5534 259.959 59.78C260.179 60.0067 260.479 60.12 260.859 60.12ZM267.195 60.9C266.742 60.9 266.378 60.78 266.105 60.54C265.832 60.2934 265.695 59.96 265.695 59.54L265.875 59.75H265.695V60.8H264.795V53.5H265.695V55.1L265.675 56.35H265.875L265.695 56.56C265.695 56.1467 265.832 55.8167 266.105 55.57C266.385 55.3234 266.748 55.2 267.195 55.2C267.748 55.2 268.192 55.3834 268.525 55.75C268.858 56.1167 269.025 56.6167 269.025 57.25V58.86C269.025 59.4867 268.858 59.9834 268.525 60.35C268.192 60.7167 267.748 60.9 267.195 60.9ZM266.895 60.12C267.275 60.12 267.575 60.0067 267.795 59.78C268.015 59.5534 268.125 59.2267 268.125 58.8V57.3C268.125 56.8734 268.015 56.5467 267.795 56.32C267.575 56.0934 267.275 55.98 266.895 55.98C266.528 55.98 266.235 56.0967 266.015 56.33C265.802 56.5634 265.695 56.8867 265.695 57.3V58.8C265.695 59.2134 265.802 59.5367 266.015 59.77C266.235 60.0034 266.528 60.12 266.895 60.12ZM272.871 60.9C272.618 60.9 272.414 60.8267 272.261 60.68C272.114 60.5334 272.041 60.3367 272.041 60.09C272.041 59.83 272.114 59.6234 272.261 59.47C272.414 59.3167 272.618 59.24 272.871 59.24C273.124 59.24 273.324 59.3167 273.471 59.47C273.624 59.6234 273.701 59.83 273.701 60.09C273.701 60.3367 273.624 60.5334 273.471 60.68C273.324 60.8267 273.124 60.9 272.871 60.9ZM276.787 62.6V55.3H277.687V56.35H277.867L277.687 56.56C277.687 56.14 277.824 55.81 278.097 55.57C278.377 55.3234 278.744 55.2 279.197 55.2C279.751 55.2 280.191 55.3834 280.517 55.75C280.851 56.11 281.017 56.6067 281.017 57.24V58.85C281.017 59.27 280.941 59.6334 280.787 59.94C280.641 60.2467 280.431 60.4834 280.157 60.65C279.891 60.8167 279.571 60.9 279.197 60.9C278.751 60.9 278.387 60.7767 278.107 60.53C277.827 60.2834 277.687 59.9534 277.687 59.54L277.867 59.75H277.667L277.687 61V62.6H276.787ZM278.897 60.12C279.277 60.12 279.574 60.0067 279.787 59.78C280.007 59.5534 280.117 59.2267 280.117 58.8V57.3C280.117 56.8734 280.007 56.5467 279.787 56.32C279.574 56.0934 279.277 55.98 278.897 55.98C278.531 55.98 278.237 56.0967 278.017 56.33C277.797 56.5634 277.687 56.8867 277.687 57.3V58.8C277.687 59.2134 277.797 59.5367 278.017 59.77C278.237 60.0034 278.531 60.12 278.897 60.12ZM282.973 60.8V55.3H283.853V56.35H284.063L283.773 57C283.773 56.4067 283.9 55.96 284.153 55.66C284.413 55.3534 284.797 55.2 285.303 55.2C285.883 55.2 286.343 55.3834 286.683 55.75C287.03 56.11 287.203 56.6 287.203 57.22V57.55H286.303V57.3C286.303 56.8667 286.197 56.5367 285.983 56.31C285.777 56.0767 285.48 55.96 285.093 55.96C284.713 55.96 284.413 56.0767 284.193 56.31C283.98 56.5434 283.873 56.8734 283.873 57.3V60.8H282.973ZM288.709 60.8V59.98H290.659V56.12H288.959V55.3H291.559V59.98H293.409V60.8H288.709ZM291.009 54.31C290.789 54.31 290.616 54.2534 290.489 54.14C290.363 54.0267 290.299 53.8734 290.299 53.68C290.299 53.48 290.363 53.3234 290.489 53.21C290.616 53.09 290.789 53.03 291.009 53.03C291.229 53.03 291.403 53.09 291.529 53.21C291.656 53.3234 291.719 53.48 291.719 53.68C291.719 53.8734 291.656 54.0267 291.529 54.14C291.403 54.2534 291.229 54.31 291.009 54.31ZM296.685 60.88C296.312 60.88 295.985 60.8234 295.705 60.71C295.432 60.59 295.212 60.4234 295.045 60.21C294.885 59.9967 294.789 59.7434 294.755 59.45H295.655C295.695 59.6434 295.802 59.7967 295.975 59.91C296.155 60.0234 296.392 60.08 296.685 60.08H297.105C297.459 60.08 297.722 60.01 297.895 59.87C298.069 59.7234 298.155 59.53 298.155 59.29C298.155 59.0567 298.075 58.8734 297.915 58.74C297.762 58.6 297.532 58.5067 297.225 58.46L296.485 58.34C295.945 58.2467 295.542 58.08 295.275 57.84C295.015 57.5934 294.885 57.2367 294.885 56.77C294.885 56.2767 295.042 55.8967 295.355 55.63C295.669 55.3567 296.139 55.22 296.765 55.22H297.145C297.672 55.22 298.095 55.3434 298.415 55.59C298.735 55.8367 298.929 56.17 298.995 56.59H298.095C298.055 56.4167 297.955 56.28 297.795 56.18C297.635 56.0734 297.419 56.02 297.145 56.02H296.765C296.425 56.02 296.175 56.0834 296.015 56.21C295.862 56.3367 295.785 56.5267 295.785 56.78C295.785 57.0067 295.852 57.1734 295.985 57.28C296.119 57.3867 296.329 57.4634 296.615 57.51L297.355 57.63C297.949 57.7234 298.379 57.8967 298.645 58.15C298.919 58.4034 299.055 58.77 299.055 59.25C299.055 59.7567 298.892 60.1567 298.565 60.45C298.245 60.7367 297.759 60.88 297.105 60.88H296.685ZM300.512 60.8V55.3H301.302V55.96H301.482L301.342 56.2C301.342 55.8934 301.422 55.65 301.582 55.47C301.748 55.29 301.972 55.2 302.252 55.2C302.558 55.2 302.795 55.3134 302.962 55.54C303.128 55.7667 303.212 56.0867 303.212 56.5L302.942 55.96H303.362L303.172 56.2C303.172 55.8934 303.255 55.65 303.422 55.47C303.595 55.29 303.822 55.2 304.102 55.2C304.448 55.2 304.715 55.33 304.902 55.59C305.095 55.85 305.192 56.1934 305.192 56.62V60.8H304.362V56.61C304.362 56.3834 304.312 56.2067 304.212 56.08C304.118 55.9534 303.978 55.89 303.792 55.89C303.612 55.89 303.468 55.9534 303.362 56.08C303.262 56.2 303.212 56.3734 303.212 56.6V60.8H302.492V56.61C302.492 56.3767 302.438 56.2 302.332 56.08C302.232 55.9534 302.088 55.89 301.902 55.89C301.715 55.89 301.575 55.9534 301.482 56.08C301.388 56.2 301.342 56.3734 301.342 56.6V60.8H300.512ZM308.368 60.9C307.788 60.9 307.331 60.7534 306.998 60.46C306.664 60.16 306.498 59.7567 306.498 59.25C306.498 58.7367 306.664 58.3334 306.998 58.04C307.331 57.7467 307.781 57.6 308.348 57.6H310.048V57.05C310.048 56.71 309.944 56.45 309.738 56.27C309.538 56.0834 309.251 55.99 308.878 55.99C308.551 55.99 308.278 56.06 308.058 56.2C307.838 56.3334 307.711 56.5167 307.678 56.75H306.778C306.838 56.2767 307.061 55.9 307.448 55.62C307.834 55.34 308.318 55.2 308.898 55.2C309.531 55.2 310.031 55.3634 310.398 55.69C310.764 56.0167 310.948 56.46 310.948 57.02V60.8H310.068V59.75H309.918L310.068 59.6C310.068 60 309.911 60.3167 309.598 60.55C309.291 60.7834 308.881 60.9 308.368 60.9ZM308.588 60.19C309.014 60.19 309.364 60.0834 309.638 59.87C309.911 59.6567 310.048 59.3834 310.048 59.05V58.27H308.368C308.068 58.27 307.831 58.3534 307.658 58.52C307.484 58.6867 307.398 58.9134 307.398 59.2C307.398 59.5067 307.501 59.75 307.708 59.93C307.921 60.1034 308.214 60.19 308.588 60.19ZM314.844 60.9C314.59 60.9 314.387 60.8267 314.234 60.68C314.087 60.5334 314.014 60.3367 314.014 60.09C314.014 59.83 314.087 59.6234 314.234 59.47C314.387 59.3167 314.59 59.24 314.844 59.24C315.097 59.24 315.297 59.3167 315.444 59.47C315.597 59.6234 315.674 59.83 315.674 60.09C315.674 60.3367 315.597 60.5334 315.444 60.68C315.297 60.8267 315.097 60.9 314.844 60.9ZM318.69 60.8V59.98H320.64V56.12H318.94V55.3H321.54V59.98H323.39V60.8H318.69ZM320.99 54.31C320.77 54.31 320.597 54.2534 320.47 54.14C320.343 54.0267 320.28 53.8734 320.28 53.68C320.28 53.48 320.343 53.3234 320.47 53.21C320.597 53.09 320.77 53.03 320.99 53.03C321.21 53.03 321.383 53.09 321.51 53.21C321.637 53.3234 321.7 53.48 321.7 53.68C321.7 53.8734 321.637 54.0267 321.51 54.14C321.383 54.2534 321.21 54.31 320.99 54.31ZM326.836 60.88C326.396 60.88 326.016 60.7967 325.696 60.63C325.376 60.4634 325.126 60.2234 324.946 59.91C324.773 59.59 324.686 59.2134 324.686 58.78V57.32C324.686 56.88 324.773 56.5034 324.946 56.19C325.126 55.8767 325.376 55.6367 325.696 55.47C326.016 55.3034 326.396 55.22 326.836 55.22C327.276 55.22 327.656 55.3034 327.976 55.47C328.296 55.6367 328.543 55.8767 328.716 56.19C328.896 56.5034 328.986 56.8767 328.986 57.31V58.78C328.986 59.2134 328.896 59.59 328.716 59.91C328.543 60.2234 328.296 60.4634 327.976 60.63C327.656 60.7967 327.276 60.88 326.836 60.88ZM326.836 60.08C327.229 60.08 327.536 59.97 327.756 59.75C327.976 59.53 328.086 59.2067 328.086 58.78V57.32C328.086 56.8934 327.976 56.57 327.756 56.35C327.536 56.13 327.229 56.02 326.836 56.02C326.449 56.02 326.143 56.13 325.916 56.35C325.696 56.57 325.586 56.8934 325.586 57.32V58.78C325.586 59.2067 325.696 59.53 325.916 59.75C326.143 59.97 326.449 60.08 326.836 60.08ZM332.832 56.7C332.585 56.7 332.385 56.6334 332.232 56.5C332.079 56.36 332.002 56.1767 332.002 55.95C332.002 55.7234 332.079 55.5434 332.232 55.41C332.385 55.27 332.585 55.2 332.832 55.2C333.085 55.2 333.285 55.27 333.432 55.41C333.585 55.5434 333.662 55.7234 333.662 55.95C333.662 56.1767 333.585 56.36 333.432 56.5C333.285 56.6334 333.085 56.7 332.832 56.7ZM332.832 60.9C332.585 60.9 332.385 60.8334 332.232 60.7C332.079 60.56 332.002 60.3767 332.002 60.15C332.002 59.9234 332.079 59.7434 332.232 59.61C332.385 59.47 332.585 59.4 332.832 59.4C333.085 59.4 333.285 59.47 333.432 59.61C333.585 59.7434 333.662 59.9234 333.662 60.15C333.662 60.3767 333.585 60.56 333.432 60.7C333.285 60.8334 333.085 60.9 332.832 60.9ZM338.808 60.9C338.215 60.9 337.728 60.7467 337.348 60.44C336.968 60.1334 336.745 59.72 336.678 59.2H337.578C337.611 59.4867 337.735 59.71 337.948 59.87C338.161 60.0234 338.451 60.1 338.818 60.1C339.238 60.1 339.551 59.9867 339.758 59.76C339.971 59.5334 340.078 59.2134 340.078 58.8V58.09C340.078 57.6767 339.971 57.3567 339.758 57.13C339.551 56.9034 339.241 56.79 338.828 56.79C338.568 56.79 338.341 56.86 338.148 57C337.955 57.1334 337.815 57.3134 337.728 57.54H336.828L336.878 53.5H340.718V54.32H337.748L337.718 56.75H337.998L337.718 57.01C337.718 56.6967 337.841 56.45 338.088 56.27C338.341 56.09 338.678 56 339.098 56C339.691 55.9934 340.151 56.1767 340.478 56.55C340.811 56.9167 340.978 57.43 340.978 58.09V58.8C340.978 59.4467 340.788 59.96 340.408 60.34C340.028 60.7134 339.495 60.9 338.808 60.9ZM345.924 60.8V59.2H342.624V57.79L345.514 53.5H346.494L343.524 57.98V58.38H345.924V56.6H346.824V60.8H345.924ZM350.71 60.9C350.27 60.9 349.884 60.8134 349.55 60.64C349.224 60.46 348.97 60.2134 348.79 59.9C348.61 59.5867 348.52 59.22 348.52 58.8H349.42C349.42 59.2067 349.534 59.5267 349.76 59.76C349.994 59.9867 350.314 60.1 350.72 60.1C351.134 60.1 351.454 59.98 351.68 59.74C351.907 59.5 352.02 59.1867 352.02 58.8V58.28C352.02 57.8667 351.907 57.5467 351.68 57.32C351.454 57.0934 351.134 56.98 350.72 56.98H349.97V56.08L351.78 54.32H348.82V53.5H352.69V54.4L350.74 56.29V56.18C351.407 56.18 351.937 56.37 352.33 56.75C352.724 57.13 352.92 57.64 352.92 58.28V58.8C352.92 59.22 352.827 59.5867 352.64 59.9C352.46 60.2134 352.204 60.46 351.87 60.64C351.537 60.8134 351.15 60.9 350.71 60.9ZM354.736 60.8V59.88L356.966 57.51C357.346 57.1034 357.623 56.7434 357.796 56.43C357.97 56.11 358.056 55.8034 358.056 55.51C358.056 55.1034 357.943 54.7834 357.716 54.55C357.496 54.3167 357.193 54.2 356.806 54.2C356.38 54.2 356.043 54.32 355.796 54.56C355.556 54.8 355.436 55.13 355.436 55.55H354.536C354.55 55.11 354.65 54.73 354.836 54.41C355.03 54.0834 355.293 53.8334 355.626 53.66C355.966 53.4867 356.36 53.4 356.806 53.4C357.246 53.4 357.626 53.4867 357.946 53.66C358.273 53.8267 358.523 54.0667 358.696 54.38C358.87 54.6934 358.956 55.0667 358.956 55.5C358.956 55.9134 358.846 56.3234 358.626 56.73C358.406 57.1367 358.046 57.6 357.546 58.12L355.746 59.98H359.076V60.8H354.736ZM360.563 61.9L364.113 52.5H365.063L361.513 61.9H360.563ZM366.729 62.6V55.3H367.629V56.35H367.809L367.629 56.56C367.629 56.14 367.765 55.81 368.039 55.57C368.319 55.3234 368.685 55.2 369.139 55.2C369.692 55.2 370.132 55.3834 370.459 55.75C370.792 56.11 370.959 56.6067 370.959 57.24V58.85C370.959 59.27 370.882 59.6334 370.729 59.94C370.582 60.2467 370.372 60.4834 370.099 60.65C369.832 60.8167 369.512 60.9 369.139 60.9C368.692 60.9 368.329 60.7767 368.049 60.53C367.769 60.2834 367.629 59.9534 367.629 59.54L367.809 59.75H367.609L367.629 61V62.6H366.729ZM368.839 60.12C369.219 60.12 369.515 60.0067 369.729 59.78C369.949 59.5534 370.059 59.2267 370.059 58.8V57.3C370.059 56.8734 369.949 56.5467 369.729 56.32C369.515 56.0934 369.219 55.98 368.839 55.98C368.472 55.98 368.179 56.0967 367.959 56.33C367.739 56.5634 367.629 56.8867 367.629 57.3V58.8C367.629 59.2134 367.739 59.5367 367.959 59.77C368.179 60.0034 368.472 60.12 368.839 60.12ZM374.805 60.88C374.365 60.88 373.985 60.7967 373.665 60.63C373.345 60.4634 373.095 60.2234 372.915 59.91C372.741 59.59 372.655 59.2134 372.655 58.78V57.32C372.655 56.88 372.741 56.5034 372.915 56.19C373.095 55.8767 373.345 55.6367 373.665 55.47C373.985 55.3034 374.365 55.22 374.805 55.22C375.245 55.22 375.625 55.3034 375.945 55.47C376.265 55.6367 376.511 55.8767 376.685 56.19C376.865 56.5034 376.955 56.8767 376.955 57.31V58.78C376.955 59.2134 376.865 59.59 376.685 59.91C376.511 60.2234 376.265 60.4634 375.945 60.63C375.625 60.7967 375.245 60.88 374.805 60.88ZM374.805 60.08C375.198 60.08 375.505 59.97 375.725 59.75C375.945 59.53 376.055 59.2067 376.055 58.78V57.32C376.055 56.8934 375.945 56.57 375.725 56.35C375.505 56.13 375.198 56.02 374.805 56.02C374.418 56.02 374.111 56.13 373.885 56.35C373.665 56.57 373.555 56.8934 373.555 57.32V58.78C373.555 59.2067 373.665 59.53 373.885 59.75C374.111 59.97 374.418 60.08 374.805 60.08ZM380.631 60.88C380.257 60.88 379.931 60.8234 379.651 60.71C379.377 60.59 379.157 60.4234 378.991 60.21C378.831 59.9967 378.734 59.7434 378.701 59.45H379.601C379.641 59.6434 379.747 59.7967 379.921 59.91C380.101 60.0234 380.337 60.08 380.631 60.08H381.051C381.404 60.08 381.667 60.01 381.841 59.87C382.014 59.7234 382.101 59.53 382.101 59.29C382.101 59.0567 382.021 58.8734 381.861 58.74C381.707 58.6 381.477 58.5067 381.171 58.46L380.431 58.34C379.891 58.2467 379.487 58.08 379.221 57.84C378.961 57.5934 378.831 57.2367 378.831 56.77C378.831 56.2767 378.987 55.8967 379.301 55.63C379.614 55.3567 380.084 55.22 380.711 55.22H381.091C381.617 55.22 382.041 55.3434 382.361 55.59C382.681 55.8367 382.874 56.17 382.941 56.59H382.041C382.001 56.4167 381.901 56.28 381.741 56.18C381.581 56.0734 381.364 56.02 381.091 56.02H380.711C380.371 56.02 380.121 56.0834 379.961 56.21C379.807 56.3367 379.731 56.5267 379.731 56.78C379.731 57.0067 379.797 57.1734 379.931 57.28C380.064 57.3867 380.274 57.4634 380.561 57.51L381.301 57.63C381.894 57.7234 382.324 57.8967 382.591 58.15C382.864 58.4034 383.001 58.77 383.001 59.25C383.001 59.7567 382.837 60.1567 382.511 60.45C382.191 60.7367 381.704 60.88 381.051 60.88H380.631ZM387.397 60.8C386.924 60.8 386.554 60.6734 386.287 60.42C386.027 60.1667 385.897 59.81 385.897 59.35V56.12H384.347V55.3H385.897V53.75H386.797V55.3H388.997V56.12H386.797V59.35C386.797 59.77 386.997 59.98 387.397 59.98H388.897V60.8H387.397ZM391.403 62.6V61.78H393.153C393.433 61.78 393.636 61.7167 393.763 61.59C393.896 61.4634 393.963 61.2667 393.963 61V60.3L393.983 59.3H393.803L393.973 59.15C393.973 59.55 393.84 59.8667 393.573 60.1C393.306 60.3334 392.95 60.45 392.503 60.45C391.936 60.45 391.49 60.2667 391.163 59.9C390.836 59.5267 390.673 59.0267 390.673 58.4V57.24C390.673 56.6134 390.836 56.1167 391.163 55.75C391.49 55.3834 391.936 55.2 392.503 55.2C392.95 55.2 393.306 55.3167 393.573 55.55C393.84 55.7834 393.973 56.1 393.973 56.5L393.803 56.35H393.973V55.3H394.863V61C394.863 61.4934 394.71 61.8834 394.403 62.17C394.103 62.4567 393.683 62.6 393.143 62.6H391.403ZM392.773 59.67C393.146 59.67 393.44 59.5534 393.653 59.32C393.866 59.0867 393.973 58.7634 393.973 58.35V57.3C393.973 56.8867 393.866 56.5634 393.653 56.33C393.44 56.0967 393.146 55.98 392.773 55.98C392.393 55.98 392.096 56.0934 391.883 56.32C391.676 56.5467 391.573 56.8734 391.573 57.3V58.35C391.573 58.7767 391.676 59.1034 391.883 59.33C392.096 59.5567 392.393 59.67 392.773 59.67ZM396.899 60.8V55.3H397.779V56.35H397.989L397.699 57C397.699 56.4067 397.826 55.96 398.079 55.66C398.339 55.3534 398.722 55.2 399.229 55.2C399.809 55.2 400.269 55.3834 400.609 55.75C400.956 56.11 401.129 56.6 401.129 57.22V57.55H400.229V57.3C400.229 56.8667 400.122 56.5367 399.909 56.31C399.702 56.0767 399.406 55.96 399.019 55.96C398.639 55.96 398.339 56.0767 398.119 56.31C397.906 56.5434 397.799 56.8734 397.799 57.3V60.8H396.899ZM404.785 60.9C404.352 60.9 403.972 60.8134 403.645 60.64C403.325 60.4667 403.075 60.2234 402.895 59.91C402.722 59.59 402.635 59.22 402.635 58.8V57.3C402.635 56.8734 402.722 56.5034 402.895 56.19C403.075 55.8767 403.325 55.6334 403.645 55.46C403.972 55.2867 404.352 55.2 404.785 55.2C405.218 55.2 405.595 55.2867 405.915 55.46C406.242 55.6334 406.492 55.8767 406.665 56.19C406.845 56.5034 406.935 56.8734 406.935 57.3V58.27H403.515V58.8C403.515 59.2334 403.625 59.5667 403.845 59.8C404.065 60.0267 404.378 60.14 404.785 60.14C405.132 60.14 405.412 60.08 405.625 59.96C405.838 59.8334 405.968 59.6467 406.015 59.4H406.915C406.855 59.86 406.628 60.2267 406.235 60.5C405.848 60.7667 405.365 60.9 404.785 60.9ZM406.055 57.67V57.3C406.055 56.8667 405.945 56.5334 405.725 56.3C405.512 56.0667 405.198 55.95 404.785 55.95C404.378 55.95 404.065 56.0667 403.845 56.3C403.625 56.5334 403.515 56.8667 403.515 57.3V57.59H406.125L406.055 57.67ZM410.611 60.88C410.238 60.88 409.911 60.8234 409.631 60.71C409.358 60.59 409.138 60.4234 408.971 60.21C408.811 59.9967 408.715 59.7434 408.681 59.45H409.581C409.621 59.6434 409.728 59.7967 409.901 59.91C410.081 60.0234 410.318 60.08 410.611 60.08H411.031C411.385 60.08 411.648 60.01 411.821 59.87C411.995 59.7234 412.081 59.53 412.081 59.29C412.081 59.0567 412.001 58.8734 411.841 58.74C411.688 58.6 411.458 58.5067 411.151 58.46L410.411 58.34C409.871 58.2467 409.468 58.08 409.201 57.84C408.941 57.5934 408.811 57.2367 408.811 56.77C408.811 56.2767 408.968 55.8967 409.281 55.63C409.595 55.3567 410.065 55.22 410.691 55.22H411.071C411.598 55.22 412.021 55.3434 412.341 55.59C412.661 55.8367 412.855 56.17 412.921 56.59H412.021C411.981 56.4167 411.881 56.28 411.721 56.18C411.561 56.0734 411.345 56.02 411.071 56.02H410.691C410.351 56.02 410.101 56.0834 409.941 56.21C409.788 56.3367 409.711 56.5267 409.711 56.78C409.711 57.0067 409.778 57.1734 409.911 57.28C410.045 57.3867 410.255 57.4634 410.541 57.51L411.281 57.63C411.875 57.7234 412.305 57.8967 412.571 58.15C412.845 58.4034 412.981 58.77 412.981 59.25C412.981 59.7567 412.818 60.1567 412.491 60.45C412.171 60.7367 411.685 60.88 411.031 60.88H410.611Z" fill="#6B7280"/>
</g>
</g>
<path d="M12 0.5H326C332.351 0.5 337.5 5.64873 337.5 12V288C337.5 294.351 332.351 299.5 326 299.5H12C5.64873 299.5 0.5 294.351 0.5 288V12C0.500004 5.64873 5.64873 0.5 12 0.5Z" stroke="#E5E7EB"/>
<defs>
<filter id="filter0_dd_4246_11142" x="29.7409" y="35.9218" width="443.518" height="50.5181" filterUnits="userSpaceOnUse" color-interpolation-filters="sRGB">
<feFlood flood-opacity="0" result="BackgroundImageFix"/>
<feColorMatrix in="SourceAlpha" type="matrix" values="0 0 0 0 0 0 0 0 0 0 0 0 0 0 0 0 0 0 127 0" result="hardAlpha"/>
<feOffset dy="1.22278"/>
<feGaussianBlur stdDeviation="0.951048"/>
<feColorMatrix type="matrix" values="0 0 0 0 0 0 0 0 0 0 0 0 0 0 0 0 0 0 0.142849 0"/>
<feBlend mode="normal" in2="BackgroundImageFix" result="effect1_dropShadow_4246_11142"/>
<feColorMatrix in="SourceAlpha" type="matrix" values="0 0 0 0 0 0 0 0 0 0 0 0 0 0 0 0 0 0 127 0" result="hardAlpha"/>
<feOffset dy="3.38082"/>
<feGaussianBlur stdDeviation="2.62953"/>
<feColorMatrix type="matrix" values="0 0 0 0 0 0 0 0 0 0 0 0 0 0 0 0 0 0 0.205 0"/>
<feBlend mode="normal" in2="effect1_dropShadow_4246_11142" result="effect2_dropShadow_4246_11142"/>
<feBlend mode="normal" in="SourceGraphic" in2="effect2_dropShadow_4246_11142" result="shape"/>
</filter>
<filter id="filter1_dddddd_4246_11142" x="32" y="37.8" width="38" height="38" filterUnits="userSpaceOnUse" color-interpolation-filters="sRGB">
<feFlood flood-opacity="0" result="BackgroundImageFix"/>
<feColorMatrix in="SourceAlpha" type="matrix" values="0 0 0 0 0 0 0 0 0 0 0 0 0 0 0 0 0 0 127 0" result="hardAlpha"/>
<feOffset/>
<feGaussianBlur stdDeviation="0.221381"/>
<feColorMatrix type="matrix" values="0 0 0 0 0.254902 0 0 0 0 0.764706 0 0 0 0 0.694118 0 0 0 0.106835 0"/>
<feBlend mode="normal" in2="BackgroundImageFix" result="effect1_dropShadow_4246_11142"/>
<feColorMatrix in="SourceAlpha" type="matrix" values="0 0 0 0 0 0 0 0 0 0 0 0 0 0 0 0 0 0 127 0" result="hardAlpha"/>
<feOffset/>
<feGaussianBlur stdDeviation="0.532008"/>
<feColorMatrix type="matrix" values="0 0 0 0 0.254902 0 0 0 0 0.764706 0 0 0 0 0.694118 0 0 0 0.153479 0"/>
<feBlend mode="normal" in2="effect1_dropShadow_4246_11142" result="effect2_dropShadow_4246_11142"/>
<feColorMatrix in="SourceAlpha" type="matrix" values="0 0 0 0 0 0 0 0 0 0 0 0 0 0 0 0 0 0 127 0" result="hardAlpha"/>
<feOffset/>
<feGaussianBlur stdDeviation="1.00172"/>
<feColorMatrix type="matrix" values="0 0 0 0 0.254902 0 0 0 0 0.764706 0 0 0 0 0.694118 0 0 0 0.19 0"/>
<feBlend mode="normal" in2="effect2_dropShadow_4246_11142" result="effect3_dropShadow_4246_11142"/>
<feColorMatrix in="SourceAlpha" type="matrix" values="0 0 0 0 0 0 0 0 0 0 0 0 0 0 0 0 0 0 127 0" result="hardAlpha"/>
<feOffset/>
<feGaussianBlur stdDeviation="1.7869"/>
<feColorMatrix type="matrix" values="0 0 0 0 0.254902 0 0 0 0 0.764706 0 0 0 0 0.694118 0 0 0 0.226521 0"/>
<feBlend mode="normal" in2="effect3_dropShadow_4246_11142" result="effect4_dropShadow_4246_11142"/>
<feColorMatrix in="SourceAlpha" type="matrix" values="0 0 0 0 0 0 0 0 0 0 0 0 0 0 0 0 0 0 127 0" result="hardAlpha"/>
<feOffset/>
<feGaussianBlur stdDeviation="3.34221"/>
<feColorMatrix type="matrix" values="0 0 0 0 0.254902 0 0 0 0 0.764706 0 0 0 0 0.694118 0 0 0 0.273165 0"/>
<feBlend mode="normal" in2="effect4_dropShadow_4246_11142" result="effect5_dropShadow_4246_11142"/>
<feColorMatrix in="SourceAlpha" type="matrix" values="0 0 0 0 0 0 0 0 0 0 0 0 0 0 0 0 0 0 127 0" result="hardAlpha"/>
<feOffset/>
<feGaussianBlur stdDeviation="8"/>
<feColorMatrix type="matrix" values="0 0 0 0 0.254902 0 0 0 0 0.764706 0 0 0 0 0.694118 0 0 0 0.38 0"/>
<feBlend mode="normal" in2="effect5_dropShadow_4246_11142" result="effect6_dropShadow_4246_11142"/>
<feBlend mode="normal" in="SourceGraphic" in2="effect6_dropShadow_4246_11142" result="shape"/>
</filter>
<linearGradient id="paint0_linear_4246_11142" x1="169" y1="0" x2="169" y2="496" gradientUnits="userSpaceOnUse">
<stop stop-color="white"/>
<stop offset="1" stop-color="#F0FDFA"/>
</linearGradient>
<linearGradient id="paint1_linear_4246_11142" x1="90.9839" y1="115.681" x2="90.9839" y2="384.539" gradientUnits="userSpaceOnUse">
<stop stop-color="#3F827D" stop-opacity="0"/>
<stop offset="1" stop-color="#71E8DF"/>
</linearGradient>
<linearGradient id="paint2_linear_4246_11142" x1="257.115" y1="105.235" x2="257.115" y2="217.946" gradientUnits="userSpaceOnUse">
<stop stop-color="#3F827D" stop-opacity="0"/>
<stop offset="1" stop-color="#71E8DF"/>
</linearGradient>
<clipPath id="clip0_4246_11142">
<path d="M0 12C0 5.37259 5.37258 0 12 0H326C332.627 0 338 5.37258 338 12V288C338 294.627 332.627 300 326 300H12C5.37259 300 0 294.627 0 288V12Z" fill="white"/>
</clipPath>
<clipPath id="clip1_4246_11142">
<rect width="49.56" height="48.72" fill="white" transform="translate(232.429 96)"/>
</clipPath>
</defs>
</svg>
