<svg width="547" height="300" viewBox="0 0 547 300" fill="none" xmlns="http://www.w3.org/2000/svg">
<g clip-path="url(#clip0_4008_16790)">
<path d="M0 12C0 5.37259 5.37258 0 12 0H535C541.627 0 547 5.37258 547 12V288C547 294.627 541.627 300 535 300H12C5.37259 300 0 294.627 0 288V12Z" fill="url(#paint0_linear_4008_16790)"/>
<g opacity="0.42">
<path opacity="0.8" d="M427.114 194.067C454.861 194.067 479.963 198.308 498.114 205.152C507.19 208.574 514.507 212.639 519.547 217.132C524.588 221.625 527.316 226.513 527.316 231.591C527.316 236.67 524.588 241.557 519.547 246.05C514.507 250.543 507.19 254.608 498.114 258.031C479.963 264.874 454.861 269.115 427.114 269.115C399.366 269.115 374.264 264.874 356.114 258.031C347.037 254.608 339.72 250.543 334.68 246.05C329.639 241.557 326.91 236.67 326.91 231.591C326.91 226.513 329.639 221.625 334.68 217.132C339.72 212.639 347.037 208.574 356.114 205.152C374.264 198.308 399.366 194.067 427.114 194.067Z" stroke="#0D9488" stroke-width="0.824713"/>
<path opacity="0.6" d="M427.113 172.871C464.578 172.871 498.477 178.59 522.995 187.821C535.256 192.438 545.149 197.924 551.97 203.996C558.791 210.068 562.504 216.691 562.504 223.591C562.504 230.491 558.791 237.114 551.97 243.187C545.149 249.258 535.256 254.745 522.995 259.361C498.477 268.593 464.578 274.311 427.113 274.311C389.649 274.311 355.75 268.593 331.231 259.361C318.971 254.745 309.078 249.258 302.257 243.187C295.436 237.114 291.723 230.491 291.723 223.591C291.723 216.691 295.436 210.068 302.257 203.996C309.078 197.924 318.971 192.438 331.231 187.821C355.75 178.59 389.649 172.871 427.113 172.871Z" stroke="#0D9488" stroke-width="0.824713"/>
<path opacity="0.45" d="M427.113 149.477C475.508 149.477 519.304 156.918 550.986 168.936C566.828 174.945 579.62 182.09 588.444 190.003C597.268 197.916 602.089 206.564 602.089 215.591C602.089 224.618 597.268 233.266 588.444 241.18C579.62 249.093 566.828 256.238 550.986 262.247C519.304 274.264 475.508 281.706 427.113 281.706C378.717 281.706 334.922 274.264 303.241 262.247C287.399 256.238 274.607 249.093 265.783 241.18C256.958 233.266 252.136 224.618 252.136 215.591C252.136 206.564 256.959 197.916 265.783 190.003C274.607 182.09 287.399 174.945 303.241 168.936C334.922 156.918 378.717 149.477 427.113 149.477Z" stroke="#0D9488" stroke-width="0.824713"/>
<path opacity="0.3" d="M427.114 126.082C486.744 126.082 540.711 135.247 579.755 150.05C599.278 157.452 615.049 166.256 625.932 176.01C636.815 185.766 642.776 196.439 642.776 207.592C642.775 218.744 636.815 229.416 625.932 239.172C615.049 248.927 599.278 257.731 579.755 265.133C540.711 279.936 486.744 289.1 427.114 289.1C367.483 289.1 313.515 279.936 274.471 265.133C254.948 257.731 239.177 248.927 228.294 239.172C217.411 229.416 211.451 218.744 211.45 207.592C211.45 196.439 217.411 185.766 228.294 176.01C239.177 166.256 254.948 157.452 274.471 150.05C313.515 135.247 367.483 126.082 427.114 126.082Z" stroke="#0D9488" stroke-width="0.824713"/>
<path opacity="0.2" d="M427.113 99.3884C500.104 99.3884 566.167 110.645 613.967 128.831C637.868 137.924 657.181 148.743 670.513 160.734C683.844 172.726 691.158 185.857 691.158 199.592C691.158 213.326 683.844 226.457 670.513 238.449C657.182 250.44 637.868 261.258 613.967 270.351C566.167 288.537 500.104 299.794 427.113 299.794C354.122 299.794 288.059 288.537 240.26 270.351C216.359 261.258 197.045 250.44 183.714 238.449C170.383 226.457 163.067 213.326 163.067 199.592C163.067 185.857 170.383 172.726 183.714 160.734C197.045 148.743 216.359 137.924 240.26 128.831C288.059 110.645 354.122 99.3884 427.113 99.3884Z" stroke="#0D9488" stroke-width="0.824713"/>
<path opacity="0.1" d="M427.113 73.7944C512.554 73.7944 589.887 87.0207 645.845 108.39C673.826 119.075 696.441 131.789 712.053 145.885C727.666 159.982 736.243 175.427 736.243 191.591C736.243 207.755 727.666 223.201 712.053 237.297C696.441 251.394 673.826 264.107 645.845 274.792C589.887 296.162 512.554 309.387 427.113 309.387C341.672 309.387 264.339 296.162 208.381 274.792C180.4 264.107 157.785 251.394 142.173 237.297C126.56 223.201 117.983 207.755 117.983 191.591C117.983 175.427 126.56 159.981 142.173 145.885C157.785 131.789 180.4 119.075 208.381 108.39C264.339 87.0207 341.672 73.7944 427.113 73.7944Z" stroke="#0D9488" stroke-width="0.824713"/>
</g>
<path d="M152.848 227.094L152.843 227.385C152.432 239.7 125.986 249.634 93.4238 249.634C60.8613 249.634 34.4159 239.7 34.0049 227.385L34 227.094V137.617H152.848V227.094Z" fill="url(#paint1_linear_4008_16790)"/>
<path d="M93.424 204.896C109.803 204.896 124.616 207.414 135.322 211.475C140.676 213.506 144.986 215.916 147.95 218.574C150.915 221.233 152.506 224.113 152.506 227.094C152.506 230.075 150.915 232.955 147.95 235.614C144.986 238.272 140.676 240.682 135.322 242.713C124.616 246.774 109.803 249.292 93.424 249.292C77.0452 249.292 62.2323 246.774 51.5265 242.713C46.1723 240.682 41.8623 238.272 38.8976 235.614C35.9328 232.955 34.3419 230.075 34.3419 227.094C34.3419 224.113 35.9328 221.233 38.8976 218.574C41.8623 215.916 46.1723 213.506 51.5265 211.475C62.2323 207.414 77.0452 204.896 93.424 204.896Z" fill="#F0FDFA" stroke="white" stroke-width="0.683033"/>
<path d="M137.124 211.879V226.788C137.124 228.874 135.963 230.904 133.767 232.794C131.572 234.683 128.376 236.4 124.397 237.848C116.442 240.744 105.428 242.541 93.246 242.541C81.0646 242.541 70.0513 240.744 62.0956 237.848C58.1163 236.4 54.9195 234.683 52.7245 232.794C50.5285 230.904 49.3691 228.874 49.369 226.788V211.879H137.124Z" fill="#F0FDFA" stroke="#0D9488" stroke-width="0.683033"/>
<path d="M93.2458 193.967C105.426 193.967 116.438 195.842 124.392 198.863C128.371 200.374 131.567 202.164 133.762 204.135C135.958 206.106 137.124 208.23 137.124 210.417C137.124 212.605 135.958 214.729 133.762 216.7C131.567 218.671 128.371 220.461 124.392 221.972C116.438 224.993 105.426 226.868 93.2458 226.868C81.0657 226.868 70.0536 224.993 62.0994 221.972C58.1212 220.461 54.9255 218.671 52.7302 216.7C50.5348 214.729 49.3689 212.605 49.3689 210.417C49.3689 208.23 50.5348 206.106 52.7302 204.135C54.9255 202.164 58.1212 200.374 62.0994 198.863C70.0536 195.842 81.0657 193.967 93.2458 193.967Z" fill="#F0FDFA" stroke="#0D9488" stroke-width="0.683033"/>
<path d="M134.884 197.382V208.683C134.884 210.648 133.787 212.564 131.704 214.35C129.622 216.135 126.59 217.758 122.813 219.127C115.263 221.866 104.809 223.566 93.2461 223.566C81.6826 223.566 71.2284 221.866 63.6777 219.127C59.9011 217.758 56.8688 216.135 54.7871 214.35C52.7042 212.564 51.6075 210.648 51.6074 208.683V197.382H134.884Z" fill="#0F766E" stroke="#F0FDFA" stroke-width="0.683033"/>
<path d="M137.124 187.29V202.199C137.124 204.284 135.963 206.315 133.767 208.205C131.572 210.094 128.376 211.811 124.397 213.259C116.441 216.154 105.427 217.952 93.2458 217.952C81.0645 217.952 70.0511 216.154 62.0955 213.259C58.1162 211.81 54.9194 210.094 52.7244 208.205C50.5284 206.315 49.369 204.284 49.3689 202.199V187.29H137.124Z" fill="#F0FDFA" stroke="#0D9488" stroke-width="0.683033"/>
<path d="M93.2457 169.378C105.426 169.378 116.438 171.253 124.392 174.274C128.371 175.784 131.567 177.575 133.762 179.546C135.958 181.517 137.124 183.641 137.124 185.828C137.124 188.016 135.958 190.14 133.762 192.111C131.567 194.082 128.371 195.872 124.392 197.383C116.438 200.404 105.426 202.279 93.2457 202.279C81.0656 202.279 70.0535 200.404 62.0992 197.383C58.1211 195.872 54.9253 194.082 52.7301 192.111C50.5347 190.139 49.3688 188.016 49.3688 185.828C49.3688 183.641 50.5347 181.517 52.7301 179.546C54.9254 177.575 58.1211 175.784 62.0992 174.274C70.0535 171.253 81.0656 169.378 93.2457 169.378Z" fill="#F0FDFA" stroke="#0D9488" stroke-width="0.683033"/>
<path d="M318.979 227.094L318.974 227.385C318.563 239.7 292.118 249.635 259.555 249.635C226.993 249.635 200.548 239.7 200.136 227.385L200.131 227.094V104.148H318.979V227.094Z" fill="url(#paint2_linear_4008_16790)" fill-opacity="0.5"/>
<path d="M259.555 204.896C275.934 204.896 290.748 207.414 301.454 211.475C306.808 213.506 311.117 215.916 314.082 218.574C317.046 221.233 318.637 224.113 318.637 227.094C318.637 230.075 317.046 232.955 314.082 235.614C311.117 238.272 306.808 240.682 301.454 242.713C290.748 246.774 275.934 249.292 259.555 249.292C243.176 249.292 228.364 246.774 217.658 242.713C212.304 240.682 207.994 238.272 205.029 235.614C202.064 232.955 200.473 230.075 200.473 227.094C200.473 224.113 202.064 221.233 205.029 218.574C207.994 215.916 212.304 213.506 217.658 211.475C228.364 207.414 243.176 204.896 259.555 204.896Z" fill="#CCFBF1" stroke="white" stroke-width="0.683033"/>
<path d="M303.255 211.879V226.789C303.255 228.874 302.094 230.905 299.898 232.794C297.703 234.683 294.507 236.4 290.528 237.848C282.572 240.744 271.558 242.542 259.377 242.542C247.195 242.541 236.182 240.744 228.226 237.848C224.247 236.4 221.05 234.683 218.855 232.794C216.659 230.905 215.5 228.874 215.5 226.789V211.879H303.255Z" fill="#F0FDFA" stroke="#0D9488" stroke-width="0.683033"/>
<path d="M259.377 193.967C271.557 193.967 282.569 195.842 290.523 198.863C294.502 200.374 297.698 202.164 299.893 204.135C302.089 206.106 303.255 208.23 303.255 210.417C303.255 212.605 302.089 214.729 299.893 216.7C297.698 218.671 294.502 220.461 290.523 221.972C282.569 224.993 271.557 226.868 259.377 226.868C247.197 226.868 236.184 224.993 228.23 221.972C224.252 220.461 221.056 218.671 218.861 216.7C216.666 214.729 215.5 212.605 215.5 210.417C215.5 208.23 216.666 206.106 218.861 204.135C221.056 202.164 224.252 200.374 228.23 198.863C236.184 195.842 247.197 193.967 259.377 193.967Z" fill="#F0FDFA" stroke="#0D9488" stroke-width="0.683033"/>
<path d="M301.015 197.382V208.683C301.015 210.648 299.918 212.564 297.835 214.35C295.753 216.135 292.721 217.758 288.944 219.127C281.394 221.866 270.94 223.566 259.377 223.566C247.814 223.566 237.359 221.866 229.809 219.127C226.032 217.758 223 216.135 220.918 214.35C218.835 212.564 217.738 210.648 217.738 208.683V197.382H301.015Z" fill="#14B8A6" stroke="#F0FDFA" stroke-width="0.683033"/>
<path d="M303.255 187.29V202.199C303.255 204.284 302.094 206.315 299.898 208.205C297.703 210.094 294.507 211.811 290.528 213.259C282.572 216.154 271.558 217.952 259.377 217.952C247.195 217.952 236.182 216.154 228.226 213.259C224.247 211.81 221.05 210.094 218.855 208.205C216.659 206.315 215.5 204.284 215.5 202.199V187.29H303.255Z" fill="#F0FDFA" stroke="#0D9488" stroke-width="0.683033"/>
<path d="M259.377 169.378C271.557 169.378 282.569 171.253 290.523 174.274C294.502 175.784 297.698 177.575 299.893 179.546C302.089 181.517 303.255 183.641 303.255 185.828C303.255 188.016 302.089 190.14 299.893 192.111C297.698 194.082 294.502 195.872 290.523 197.383C282.569 200.404 271.557 202.279 259.377 202.279C247.197 202.279 236.184 200.404 228.23 197.383C224.252 195.872 221.056 194.082 218.861 192.111C216.666 190.139 215.5 188.016 215.5 185.828C215.5 183.641 216.666 181.517 218.861 179.546C221.056 177.575 224.252 175.784 228.23 174.274C236.184 171.253 247.197 169.378 259.377 169.378Z" fill="#F0FDFA" stroke="#0D9488" stroke-width="0.683033"/>
<path d="M301.015 172.793V184.094C301.015 186.059 299.918 187.975 297.835 189.761C295.753 191.546 292.721 193.169 288.944 194.538C281.394 197.277 270.94 198.977 259.377 198.977C247.814 198.977 237.359 197.277 229.809 194.538C226.032 193.169 223 191.546 220.918 189.761C218.835 187.975 217.738 186.059 217.738 184.094V172.793H301.015Z" fill="#0F766E" stroke="#F0FDFA" stroke-width="0.683033"/>
<path d="M303.255 162.701V177.61C303.255 179.695 302.094 181.726 299.898 183.616C297.703 185.505 294.507 187.221 290.528 188.67C282.572 191.565 271.558 193.363 259.377 193.363C247.195 193.363 236.182 191.565 228.226 188.67C224.247 187.221 221.05 185.505 218.855 183.616C216.659 181.726 215.5 179.695 215.5 177.61V162.701H303.255Z" fill="#F0FDFA" stroke="#0D9488" stroke-width="0.683033"/>
<path d="M259.377 144.789C271.557 144.789 282.569 146.664 290.523 149.685C294.502 151.195 297.698 152.986 299.893 154.957C302.089 156.928 303.255 159.052 303.255 161.239C303.255 163.427 302.089 165.55 299.893 167.521C297.698 169.492 294.502 171.283 290.523 172.794C282.569 175.815 271.557 177.689 259.377 177.689C247.197 177.689 236.184 175.815 228.23 172.794C224.252 171.283 221.056 169.492 218.861 167.521C216.666 165.55 215.5 163.427 215.5 161.239C215.5 159.052 216.666 156.928 218.861 154.957C221.056 152.986 224.252 151.195 228.23 149.685C236.184 146.664 247.197 144.789 259.377 144.789Z" fill="#F0FDFA" stroke="#0D9488" stroke-width="0.683033"/>
<path d="M485.11 227.094C485.11 239.543 458.505 249.634 425.687 249.634C392.868 249.634 366.263 239.543 366.263 227.094V61.8H485.11V227.094Z" fill="url(#paint3_linear_4008_16790)" fill-opacity="0.5"/>
<path d="M425.687 204.896C442.065 204.896 456.879 207.414 467.585 211.475C472.939 213.506 477.248 215.916 480.213 218.574C483.178 221.233 484.769 224.113 484.769 227.094C484.769 230.075 483.178 232.955 480.213 235.614C477.248 238.272 472.939 240.682 467.585 242.713C456.879 246.774 442.065 249.292 425.687 249.292C409.308 249.292 394.495 246.774 383.789 242.713C378.435 240.682 374.125 238.272 371.16 235.614C368.195 232.955 366.604 230.075 366.604 227.094C366.605 224.113 368.195 221.233 371.16 218.574C374.125 215.916 378.435 213.506 383.789 211.475C394.495 207.414 409.308 204.896 425.687 204.896Z" fill="#0D9488" stroke="white" stroke-width="0.683033"/>
<path d="M469.385 211.879V226.789C469.385 228.874 468.225 230.905 466.029 232.794C463.834 234.683 460.638 236.4 456.659 237.848C448.703 240.744 437.689 242.542 425.507 242.542C413.326 242.541 402.313 240.744 394.357 237.848C390.378 236.4 387.181 234.683 384.986 232.794C382.79 230.905 381.63 228.874 381.63 226.789V211.879H469.385Z" fill="#F0FDFA" stroke="#0D9488" stroke-width="0.683033"/>
<path d="M425.508 193.967C437.688 193.967 448.7 195.842 456.654 198.863C460.633 200.374 463.829 202.164 466.024 204.135C468.22 206.106 469.386 208.23 469.386 210.417C469.386 212.605 468.22 214.729 466.024 216.7C463.829 218.671 460.633 220.461 456.654 221.972C448.7 224.993 437.688 226.868 425.508 226.868C413.328 226.868 402.316 224.993 394.361 221.972C390.383 220.461 387.187 218.671 384.992 216.7C382.797 214.729 381.631 212.605 381.631 210.417C381.631 208.23 382.797 206.106 384.992 204.135C387.187 202.164 390.383 200.374 394.361 198.863C402.316 195.842 413.328 193.967 425.508 193.967Z" fill="#F0FDFA" stroke="#0D9488" stroke-width="0.683033"/>
<path d="M467.146 197.382V208.683C467.145 210.648 466.049 212.564 463.966 214.35C461.884 216.135 458.852 217.758 455.075 219.127C447.525 221.866 437.071 223.566 425.508 223.566C413.944 223.566 403.49 221.866 395.939 219.127C392.163 217.758 389.131 216.135 387.049 214.35C384.966 212.564 383.869 210.648 383.869 208.683V197.382H467.146Z" fill="#CCFBF1" stroke="#F0FDFA" stroke-width="0.683033"/>
<path d="M469.385 187.29V202.199C469.385 204.284 468.225 206.315 466.029 208.205C463.834 210.094 460.638 211.811 456.659 213.259C448.703 216.154 437.689 217.952 425.507 217.952C413.326 217.952 402.313 216.154 394.357 213.259C390.378 211.81 387.181 210.094 384.986 208.205C382.79 206.315 381.63 204.284 381.63 202.199V187.29H469.385Z" fill="#F0FDFA" stroke="#0D9488" stroke-width="0.683033"/>
<path d="M425.508 169.378C437.688 169.378 448.7 171.253 456.654 174.274C460.633 175.784 463.829 177.575 466.024 179.546C468.22 181.517 469.386 183.641 469.386 185.828C469.386 188.016 468.22 190.14 466.024 192.111C463.829 194.082 460.633 195.872 456.654 197.383C448.7 200.404 437.688 202.279 425.508 202.279C413.328 202.279 402.316 200.404 394.361 197.383C390.383 195.872 387.187 194.082 384.992 192.111C382.797 190.139 381.631 188.016 381.631 185.828C381.631 183.641 382.797 181.517 384.992 179.546C387.187 177.575 390.383 175.784 394.361 174.274C402.316 171.253 413.328 169.378 425.508 169.378Z" fill="#F0FDFA" stroke="#0D9488" stroke-width="0.683033"/>
<path d="M467.146 172.793V184.094C467.145 186.059 466.049 187.975 463.966 189.761C461.884 191.546 458.852 193.169 455.075 194.538C447.525 197.277 437.071 198.977 425.508 198.977C413.944 198.977 403.49 197.277 395.939 194.538C392.163 193.169 389.131 191.546 387.049 189.761C384.966 187.975 383.869 186.059 383.869 184.094V172.793H467.146Z" fill="#14B8A6" stroke="#F0FDFA" stroke-width="0.683033"/>
<path d="M469.385 162.701V177.61C469.385 179.695 468.225 181.726 466.029 183.616C463.834 185.505 460.638 187.221 456.659 188.67C448.703 191.565 437.689 193.363 425.507 193.363C413.326 193.363 402.313 191.565 394.357 188.67C390.378 187.221 387.181 185.505 384.986 183.616C382.79 181.726 381.63 179.695 381.63 177.61V162.701H469.385Z" fill="#F0FDFA" stroke="#0D9488" stroke-width="0.683033"/>
<path d="M425.508 144.789C437.688 144.789 448.7 146.664 456.654 149.685C460.633 151.195 463.829 152.986 466.024 154.957C468.22 156.928 469.386 159.052 469.386 161.239C469.386 163.427 468.22 165.55 466.024 167.521C463.829 169.492 460.633 171.283 456.654 172.794C448.7 175.815 437.688 177.689 425.508 177.689C413.328 177.689 402.316 175.815 394.361 172.794C390.383 171.283 387.187 169.492 384.992 167.521C382.797 165.55 381.631 163.427 381.631 161.239C381.631 159.052 382.797 156.928 384.992 154.957C387.187 152.986 390.383 151.195 394.361 149.685C402.316 146.664 413.328 144.789 425.508 144.789Z" fill="#F0FDFA" stroke="#0D9488" stroke-width="0.683033"/>
<path d="M467.146 148.204V159.505C467.145 161.47 466.049 163.386 463.966 165.172C461.884 166.957 458.852 168.58 455.075 169.949C447.525 172.688 437.071 174.388 425.508 174.388C413.944 174.388 403.49 172.688 395.939 169.949C392.163 168.58 389.131 166.957 387.049 165.172C384.966 163.386 383.869 161.47 383.869 159.505V148.204H467.146Z" fill="#0F766E" stroke="#F0FDFA" stroke-width="0.683033"/>
<path d="M469.386 138.112V153.021C469.386 155.106 468.225 157.137 466.029 159.027C463.834 160.916 460.638 162.632 456.659 164.081C448.703 166.976 437.689 168.774 425.508 168.774C413.326 168.774 402.313 166.976 394.357 164.081C390.378 162.632 387.181 160.916 384.986 159.027C382.79 157.137 381.631 155.106 381.631 153.021V138.112H469.386Z" fill="#F0FDFA" stroke="#0D9488" stroke-width="0.683033"/>
<path d="M425.508 120.2C437.688 120.2 448.7 122.075 456.655 125.095C460.633 126.606 463.829 128.397 466.025 130.368C468.22 132.339 469.386 134.463 469.386 136.65C469.386 138.837 468.22 140.961 466.025 142.932C463.829 144.903 460.633 146.694 456.655 148.205C448.7 151.225 437.688 153.1 425.508 153.1C413.328 153.1 402.316 151.225 394.362 148.205C390.383 146.694 387.188 144.903 384.992 142.932C382.797 140.961 381.631 138.837 381.631 136.65C381.631 134.462 382.797 132.339 384.992 130.368C387.188 128.397 390.383 126.606 394.362 125.095C402.316 122.075 413.328 120.2 425.508 120.2Z" fill="#F0FDFA" stroke="#0D9488" stroke-width="0.683033"/>
<g clip-path="url(#clip1_4008_16790)">
<path d="M414.191 125.81L408.782 129.681C406.485 131.15 405.051 133.645 404.946 136.373C404.946 136.373 404.9 137.34 404.923 137.83C405.005 140.371 406.509 142.656 408.805 143.741H413.317L413.422 144.382H421.932C422.574 144.37 423.192 144.137 423.705 143.741H427.936C428.438 144.114 429.032 144.324 429.65 144.347H438.161L438.254 143.741H442.416C444.713 142.656 446.217 140.371 446.298 137.83C446.322 137.037 446.275 136.244 446.158 135.463L446.1 135.125L446.065 134.915C445.622 132.759 444.316 130.87 442.451 129.692L437.473 126.137L435.141 121.077C434.873 120.855 434.663 120.681 434.523 120.564C432.833 121.648 430.898 122.313 428.892 122.511L422.725 122.546C420.72 122.348 418.785 121.683 417.094 120.599C416.954 120.727 416.745 120.902 416.476 121.112C416.476 121.112 414.226 125.81 414.215 125.822" fill="white"/>
<path d="M414.191 125.81L408.782 129.681C406.485 131.15 405.051 133.645 404.946 136.373C404.946 136.373 404.9 137.34 404.923 137.83C405.005 140.371 406.509 142.656 408.805 143.741H413.317L413.422 144.382H421.932C422.574 144.37 423.192 144.137 423.705 143.741H427.936C428.438 144.114 429.032 144.324 429.65 144.347H438.161L438.254 143.741H442.416C444.713 142.656 446.217 140.371 446.298 137.83C446.322 137.037 446.275 136.244 446.158 135.463L446.1 135.125L446.065 134.915C445.622 132.759 444.316 130.87 442.451 129.692L437.473 126.137L435.141 121.077C434.873 120.855 434.663 120.681 434.523 120.564C432.833 121.648 430.898 122.313 428.892 122.511L422.725 122.546C420.72 122.348 418.785 121.683 417.094 120.599C416.954 120.727 416.745 120.902 416.476 121.112C416.476 121.112 414.226 125.81 414.215 125.822" stroke="#0D9488" stroke-width="0.699497" stroke-linejoin="round"/>
<path d="M434.489 120.541C434.629 120.669 434.839 120.844 435.107 121.054C436.425 122.791 437.369 125.764 437.369 125.764L438.138 129.634C439.094 130.998 439.631 132.607 439.689 134.274L439.561 135.137L438.197 143.997L438.138 144.335H429.628C428.905 144.324 428.217 144.044 427.681 143.566C427.611 143.508 427.541 143.449 427.483 143.379C426.876 142.75 426.538 141.922 426.527 141.048C426.527 140.663 426.585 140.29 426.702 139.929L428.509 135.72C428.742 135.289 428.858 134.799 428.858 134.309V133.248C428.823 133.26 428.788 133.272 428.753 133.295C428.299 133.47 427.821 133.563 427.331 133.563H424.242C423.705 133.563 423.181 133.458 422.691 133.248V134.356C422.691 134.845 422.808 135.335 423.041 135.767L424.848 139.975C424.965 140.337 425.011 140.721 425.023 141.094C425.023 141.969 424.673 142.796 424.067 143.426C424.009 143.496 423.939 143.554 423.869 143.613C423.332 144.091 422.645 144.37 421.922 144.382H413.411L413.353 144.044L411.989 135.184L411.861 134.321C411.919 132.654 412.455 131.045 413.411 129.681L414.181 125.81C414.192 125.799 414.425 123.98 416.442 121.1C416.71 120.879 416.92 120.704 417.06 120.587C418.762 121.672 420.686 122.336 422.691 122.534H428.835C428.835 122.523 428.835 122.511 428.835 122.499H428.858C430.864 122.301 432.799 121.637 434.489 120.552V120.541Z" fill="white" stroke="#0D9488" stroke-width="0.699497" stroke-linejoin="round"/>
<path d="M449.167 112.636L448.969 112.263C446.089 107.18 438.488 96.3496 425.78 96.3496C413.073 96.3496 405.472 107.18 402.592 112.263C401.485 114.222 401.158 116.518 401.706 118.699C401.963 119.794 402.359 120.89 403.047 121.8C403.641 122.581 404.574 123.304 405.402 123.688C407.722 124.726 410.042 124.446 412 123.735C413.947 123.024 415.556 121.87 416.465 121.123C416.535 121.065 416.594 121.019 416.652 120.972C418.226 122.068 420.138 122.709 422.213 122.709H429.394C431.446 122.709 433.347 122.079 434.921 120.995C434.967 121.042 435.025 121.077 435.084 121.123C435.993 121.87 437.602 123.024 439.549 123.735C441.496 124.446 443.827 124.738 446.147 123.7C446.975 123.315 447.826 122.744 448.502 121.8C449.167 120.867 449.587 119.794 449.843 118.699C450.356 116.658 450.1 114.513 449.155 112.636H449.167Z" fill="white" stroke="#0D9488" stroke-width="0.699497" stroke-linejoin="round"/>
<path d="M416.688 120.564C413.097 118.162 412.164 114.035 412.164 109.535C412.164 109.535 412.316 108.428 412.479 107.926C412.596 107.577 412.712 107.262 412.805 106.947C410.229 107.134 408.026 108.824 406.417 111.4C404.715 114.117 403.712 117.766 403.677 121.438C403.677 121.59 403.572 121.73 403.432 121.765C403.397 121.765 403.362 121.765 403.339 121.765C403.863 122.511 404.551 123.117 405.367 123.49C407.664 124.516 409.961 124.236 411.884 123.537C413.808 122.837 415.394 121.695 416.303 120.96C416.478 120.82 416.606 120.704 416.723 120.599C416.711 120.599 416.699 120.587 416.676 120.576L416.688 120.564Z" fill="#0D9488"/>
<path d="M447.861 121.613C447.826 117.894 446.812 114.21 445.086 111.447C443.454 108.847 441.228 107.134 438.616 106.947C438.721 107.262 438.838 107.588 438.954 107.938C439.117 108.439 439.269 108.999 439.269 109.57C439.269 114.129 438.325 118.302 434.687 120.739C434.676 120.739 434.664 120.75 434.641 120.762C434.757 120.867 434.897 120.984 435.072 121.135C435.981 121.881 437.59 123.035 439.537 123.747C441.484 124.458 443.816 124.749 446.136 123.712C446.963 123.327 447.663 122.709 448.199 121.951C448.164 121.951 448.129 121.963 448.094 121.951C447.943 121.905 447.849 121.776 447.838 121.613H447.861Z" fill="#0D9488"/>
<path d="M432.997 111.646C432.798 111.646 432.6 111.715 432.46 111.867C432.216 112.147 432.099 112.508 432.111 112.881C432.099 113.254 432.227 113.604 432.472 113.884C432.612 114.024 432.798 114.105 432.985 114.105C433.183 114.105 433.381 114.024 433.521 113.884C433.766 113.604 433.883 113.243 433.871 112.881C433.883 112.508 433.754 112.147 433.51 111.867C433.37 111.727 433.183 111.646 432.997 111.646Z" fill="#0D9488"/>
<path d="M420.138 111.879C419.998 111.727 419.812 111.657 419.625 111.646C419.427 111.646 419.229 111.727 419.089 111.867C418.844 112.135 418.716 112.497 418.727 112.87C418.716 113.243 418.832 113.604 419.077 113.872C419.217 114.024 419.404 114.094 419.59 114.105C419.788 114.105 419.986 114.024 420.126 113.884C420.604 113.301 420.604 112.462 420.126 111.879H420.138Z" fill="#0D9488"/>
<path d="M429.802 114.84V120.844C429.802 121.345 430 121.823 430.361 122.184C430.723 122.546 431.189 122.744 431.702 122.744C433.637 122.744 435.211 124.318 435.211 126.253C435.211 128.188 433.637 129.762 431.702 129.762C429.767 129.762 427.085 128.841 425.407 127.151C423.728 125.472 422.795 123.234 422.795 120.855V114.851" fill="white"/>
<path d="M429.802 114.84V120.844C429.802 121.345 430 121.823 430.361 122.184C430.723 122.546 431.189 122.744 431.702 122.744C433.637 122.744 435.211 124.318 435.211 126.253C435.211 128.188 433.637 129.762 431.702 129.762C429.767 129.762 427.085 128.841 425.407 127.151C423.728 125.472 422.795 123.234 422.795 120.855V114.851" stroke="#0D9488" stroke-width="0.699497" stroke-linecap="round" stroke-linejoin="round"/>
</g>
<g filter="url(#filter0_dd_4008_16790)">
<rect x="42" y="37.8" width="433" height="40" rx="8" fill="#F9FAFB"/>
<rect x="42.5" y="38.3" width="432" height="39" rx="7.5" stroke="#E5E7EB"/>
<g filter="url(#filter1_dddddd_4008_16790)">
<circle cx="58" cy="56.8" r="3" fill="#0F766E"/>
<circle cx="58" cy="56.8" r="2.68942" stroke="#E5E7EB" stroke-width="0.621156"/>
</g>
<path d="M79.92 62.6V55.3H80.82V56.35H81L80.82 56.56C80.82 56.14 80.9567 55.81 81.23 55.57C81.51 55.3234 81.8767 55.2 82.33 55.2C82.8833 55.2 83.3233 55.3834 83.65 55.75C83.9833 56.11 84.15 56.6067 84.15 57.24V58.85C84.15 59.27 84.0733 59.6334 83.92 59.94C83.7733 60.2467 83.5633 60.4834 83.29 60.65C83.0233 60.8167 82.7033 60.9 82.33 60.9C81.8833 60.9 81.52 60.7767 81.24 60.53C80.96 60.2834 80.82 59.9534 80.82 59.54L81 59.75H80.8L80.82 61V62.6H79.92ZM82.03 60.12C82.41 60.12 82.7067 60.0067 82.92 59.78C83.14 59.5534 83.25 59.2267 83.25 58.8V57.3C83.25 56.8734 83.14 56.5467 82.92 56.32C82.7067 56.0934 82.41 55.98 82.03 55.98C81.6633 55.98 81.37 56.0967 81.15 56.33C80.93 56.5634 80.82 56.8867 80.82 57.3V58.8C80.82 59.2134 80.93 59.5367 81.15 59.77C81.37 60.0034 81.6633 60.12 82.03 60.12ZM87.9961 60.88C87.5561 60.88 87.1761 60.7967 86.8561 60.63C86.5361 60.4634 86.2861 60.2234 86.1061 59.91C85.9328 59.59 85.8461 59.2134 85.8461 58.78V57.32C85.8461 56.88 85.9328 56.5034 86.1061 56.19C86.2861 55.8767 86.5361 55.6367 86.8561 55.47C87.1761 55.3034 87.5561 55.22 87.9961 55.22C88.4361 55.22 88.8161 55.3034 89.1361 55.47C89.4561 55.6367 89.7028 55.8767 89.8761 56.19C90.0561 56.5034 90.1461 56.8767 90.1461 57.31V58.78C90.1461 59.2134 90.0561 59.59 89.8761 59.91C89.7028 60.2234 89.4561 60.4634 89.1361 60.63C88.8161 60.7967 88.4361 60.88 87.9961 60.88ZM87.9961 60.08C88.3894 60.08 88.6961 59.97 88.9161 59.75C89.1361 59.53 89.2461 59.2067 89.2461 58.78V57.32C89.2461 56.8934 89.1361 56.57 88.9161 56.35C88.6961 56.13 88.3894 56.02 87.9961 56.02C87.6094 56.02 87.3028 56.13 87.0761 56.35C86.8561 56.57 86.7461 56.8934 86.7461 57.32V58.78C86.7461 59.2067 86.8561 59.53 87.0761 59.75C87.3028 59.97 87.6094 60.08 87.9961 60.08ZM93.8222 60.88C93.4489 60.88 93.1222 60.8234 92.8422 60.71C92.5689 60.59 92.3489 60.4234 92.1822 60.21C92.0222 59.9967 91.9255 59.7434 91.8922 59.45H92.7922C92.8322 59.6434 92.9389 59.7967 93.1122 59.91C93.2922 60.0234 93.5289 60.08 93.8222 60.08H94.2422C94.5955 60.08 94.8589 60.01 95.0322 59.87C95.2055 59.7234 95.2922 59.53 95.2922 59.29C95.2922 59.0567 95.2122 58.8734 95.0522 58.74C94.8989 58.6 94.6689 58.5067 94.3622 58.46L93.6222 58.34C93.0822 58.2467 92.6789 58.08 92.4122 57.84C92.1522 57.5934 92.0222 57.2367 92.0222 56.77C92.0222 56.2767 92.1789 55.8967 92.4922 55.63C92.8055 55.3567 93.2755 55.22 93.9022 55.22H94.2822C94.8089 55.22 95.2322 55.3434 95.5522 55.59C95.8722 55.8367 96.0655 56.17 96.1322 56.59H95.2322C95.1922 56.4167 95.0922 56.28 94.9322 56.18C94.7722 56.0734 94.5555 56.02 94.2822 56.02H93.9022C93.5622 56.02 93.3122 56.0834 93.1522 56.21C92.9989 56.3367 92.9222 56.5267 92.9222 56.78C92.9222 57.0067 92.9889 57.1734 93.1222 57.28C93.2555 57.3867 93.4655 57.4634 93.7522 57.51L94.4922 57.63C95.0855 57.7234 95.5155 57.8967 95.7822 58.15C96.0555 58.4034 96.1922 58.77 96.1922 59.25C96.1922 59.7567 96.0289 60.1567 95.7022 60.45C95.3822 60.7367 94.8955 60.88 94.2422 60.88H93.8222ZM100.588 60.8C100.115 60.8 99.7449 60.6734 99.4783 60.42C99.2183 60.1667 99.0883 59.81 99.0883 59.35V56.12H97.5383V55.3H99.0883V53.75H99.9883V55.3H102.188V56.12H99.9883V59.35C99.9883 59.77 100.188 59.98 100.588 59.98H102.088V60.8H100.588ZM104.594 62.6V61.78H106.344C106.624 61.78 106.828 61.7167 106.954 61.59C107.088 61.4634 107.154 61.2667 107.154 61V60.3L107.174 59.3H106.994L107.164 59.15C107.164 59.55 107.031 59.8667 106.764 60.1C106.498 60.3334 106.141 60.45 105.694 60.45C105.128 60.45 104.681 60.2667 104.354 59.9C104.028 59.5267 103.864 59.0267 103.864 58.4V57.24C103.864 56.6134 104.028 56.1167 104.354 55.75C104.681 55.3834 105.128 55.2 105.694 55.2C106.141 55.2 106.498 55.3167 106.764 55.55C107.031 55.7834 107.164 56.1 107.164 56.5L106.994 56.35H107.164V55.3H108.054V61C108.054 61.4934 107.901 61.8834 107.594 62.17C107.294 62.4567 106.874 62.6 106.334 62.6H104.594ZM105.964 59.67C106.338 59.67 106.631 59.5534 106.844 59.32C107.058 59.0867 107.164 58.7634 107.164 58.35V57.3C107.164 56.8867 107.058 56.5634 106.844 56.33C106.631 56.0967 106.338 55.98 105.964 55.98C105.584 55.98 105.288 56.0934 105.074 56.32C104.868 56.5467 104.764 56.8734 104.764 57.3V58.35C104.764 58.7767 104.868 59.1034 105.074 59.33C105.288 59.5567 105.584 59.67 105.964 59.67ZM110.09 60.8V55.3H110.97V56.35H111.18L110.89 57C110.89 56.4067 111.017 55.96 111.27 55.66C111.53 55.3534 111.914 55.2 112.42 55.2C113 55.2 113.46 55.3834 113.8 55.75C114.147 56.11 114.32 56.6 114.32 57.22V57.55H113.42V57.3C113.42 56.8667 113.314 56.5367 113.1 56.31C112.894 56.0767 112.597 55.96 112.21 55.96C111.83 55.96 111.53 56.0767 111.31 56.31C111.097 56.5434 110.99 56.8734 110.99 57.3V60.8H110.09ZM117.977 60.9C117.543 60.9 117.163 60.8134 116.837 60.64C116.517 60.4667 116.267 60.2234 116.087 59.91C115.913 59.59 115.827 59.22 115.827 58.8V57.3C115.827 56.8734 115.913 56.5034 116.087 56.19C116.267 55.8767 116.517 55.6334 116.837 55.46C117.163 55.2867 117.543 55.2 117.977 55.2C118.41 55.2 118.787 55.2867 119.107 55.46C119.433 55.6334 119.683 55.8767 119.857 56.19C120.037 56.5034 120.127 56.8734 120.127 57.3V58.27H116.707V58.8C116.707 59.2334 116.817 59.5667 117.037 59.8C117.257 60.0267 117.57 60.14 117.977 60.14C118.323 60.14 118.603 60.08 118.817 59.96C119.03 59.8334 119.16 59.6467 119.207 59.4H120.107C120.047 59.86 119.82 60.2267 119.427 60.5C119.04 60.7667 118.557 60.9 117.977 60.9ZM119.247 57.67V57.3C119.247 56.8667 119.137 56.5334 118.917 56.3C118.703 56.0667 118.39 55.95 117.977 55.95C117.57 55.95 117.257 56.0667 117.037 56.3C116.817 56.5334 116.707 56.8667 116.707 57.3V57.59H119.317L119.247 57.67ZM123.803 60.88C123.429 60.88 123.103 60.8234 122.823 60.71C122.549 60.59 122.329 60.4234 122.163 60.21C122.003 59.9967 121.906 59.7434 121.873 59.45H122.773C122.813 59.6434 122.919 59.7967 123.093 59.91C123.273 60.0234 123.509 60.08 123.803 60.08H124.223C124.576 60.08 124.839 60.01 125.013 59.87C125.186 59.7234 125.273 59.53 125.273 59.29C125.273 59.0567 125.193 58.8734 125.033 58.74C124.879 58.6 124.649 58.5067 124.343 58.46L123.603 58.34C123.063 58.2467 122.659 58.08 122.393 57.84C122.133 57.5934 122.003 57.2367 122.003 56.77C122.003 56.2767 122.159 55.8967 122.473 55.63C122.786 55.3567 123.256 55.22 123.883 55.22H124.263C124.789 55.22 125.213 55.3434 125.533 55.59C125.853 55.8367 126.046 56.17 126.113 56.59H125.213C125.173 56.4167 125.073 56.28 124.913 56.18C124.753 56.0734 124.536 56.02 124.263 56.02H123.883C123.543 56.02 123.293 56.0834 123.133 56.21C122.979 56.3367 122.903 56.5267 122.903 56.78C122.903 57.0067 122.969 57.1734 123.103 57.28C123.236 57.3867 123.446 57.4634 123.733 57.51L124.473 57.63C125.066 57.7234 125.496 57.8967 125.763 58.15C126.036 58.4034 126.173 58.77 126.173 59.25C126.173 59.7567 126.009 60.1567 125.683 60.45C125.363 60.7367 124.876 60.88 124.223 60.88H123.803ZM129.969 56.7C129.722 56.7 129.522 56.6334 129.369 56.5C129.215 56.36 129.139 56.1767 129.139 55.95C129.139 55.7234 129.215 55.5434 129.369 55.41C129.522 55.27 129.722 55.2 129.969 55.2C130.222 55.2 130.422 55.27 130.569 55.41C130.722 55.5434 130.799 55.7234 130.799 55.95C130.799 56.1767 130.722 56.36 130.569 56.5C130.422 56.6334 130.222 56.7 129.969 56.7ZM129.969 60.9C129.722 60.9 129.522 60.8334 129.369 60.7C129.215 60.56 129.139 60.3767 129.139 60.15C129.139 59.9234 129.215 59.7434 129.369 59.61C129.522 59.47 129.722 59.4 129.969 59.4C130.222 59.4 130.422 59.47 130.569 59.61C130.722 59.7434 130.799 59.9234 130.799 60.15C130.799 60.3767 130.722 60.56 130.569 60.7C130.422 60.8334 130.222 60.9 129.969 60.9ZM138.961 61.9L142.511 52.5H143.461L139.911 61.9H138.961ZM134.461 61.9L138.011 52.5H138.961L135.411 61.9H134.461ZM145.857 60.8V59.98H147.837V54.25L145.857 55.73V54.73L147.507 53.5H148.737V59.98H150.357V60.8H145.857ZM151.873 60.8V59.88L154.103 57.51C154.483 57.1034 154.76 56.7434 154.933 56.43C155.106 56.11 155.193 55.8034 155.193 55.51C155.193 55.1034 155.08 54.7834 154.853 54.55C154.633 54.3167 154.33 54.2 153.943 54.2C153.516 54.2 153.18 54.32 152.933 54.56C152.693 54.8 152.573 55.13 152.573 55.55H151.673C151.686 55.11 151.786 54.73 151.973 54.41C152.166 54.0834 152.43 53.8334 152.763 53.66C153.103 53.4867 153.496 53.4 153.943 53.4C154.383 53.4 154.763 53.4867 155.083 53.66C155.41 53.8267 155.66 54.0667 155.833 54.38C156.006 54.6934 156.093 55.0667 156.093 55.5C156.093 55.9134 155.983 56.3234 155.763 56.73C155.543 57.1367 155.183 57.6 154.683 58.12L152.883 59.98H156.213V60.8H151.873ZM159.949 60.9C159.516 60.9 159.136 60.8134 158.809 60.64C158.489 60.4667 158.239 60.2234 158.059 59.91C157.886 59.59 157.799 59.22 157.799 58.8V57.3C157.799 56.8734 157.886 56.5034 158.059 56.19C158.239 55.8767 158.489 55.6334 158.809 55.46C159.136 55.2867 159.516 55.2 159.949 55.2C160.383 55.2 160.759 55.2867 161.079 55.46C161.406 55.6334 161.656 55.8767 161.829 56.19C162.009 56.5034 162.099 56.8734 162.099 57.3V58.27H158.679V58.8C158.679 59.2334 158.789 59.5667 159.009 59.8C159.229 60.0267 159.543 60.14 159.949 60.14C160.296 60.14 160.576 60.08 160.789 59.96C161.003 59.8334 161.133 59.6467 161.179 59.4H162.079C162.019 59.86 161.793 60.2267 161.399 60.5C161.013 60.7667 160.529 60.9 159.949 60.9ZM161.219 57.67V57.3C161.219 56.8667 161.109 56.5334 160.889 56.3C160.676 56.0667 160.363 55.95 159.949 55.95C159.543 55.95 159.229 56.0667 159.009 56.3C158.789 56.5334 158.679 56.8667 158.679 57.3V57.59H161.289L161.219 57.67ZM165.925 60.9C165.332 60.9 164.845 60.7467 164.465 60.44C164.085 60.1334 163.862 59.72 163.795 59.2H164.695C164.729 59.4867 164.852 59.71 165.065 59.87C165.279 60.0234 165.569 60.1 165.935 60.1C166.355 60.1 166.669 59.9867 166.875 59.76C167.089 59.5334 167.195 59.2134 167.195 58.8V58.09C167.195 57.6767 167.089 57.3567 166.875 57.13C166.669 56.9034 166.359 56.79 165.945 56.79C165.685 56.79 165.459 56.86 165.265 57C165.072 57.1334 164.932 57.3134 164.845 57.54H163.945L163.995 53.5H167.835V54.32H164.865L164.835 56.75H165.115L164.835 57.01C164.835 56.6967 164.959 56.45 165.205 56.27C165.459 56.09 165.795 56 166.215 56C166.809 55.9934 167.269 56.1767 167.595 56.55C167.929 56.9167 168.095 57.43 168.095 58.09V58.8C168.095 59.4467 167.905 59.96 167.525 60.34C167.145 60.7134 166.612 60.9 165.925 60.9ZM171.621 60.9C171.075 60.9 170.631 60.7167 170.291 60.35C169.958 59.9834 169.791 59.4867 169.791 58.86V57.25C169.791 56.6167 169.958 56.1167 170.291 55.75C170.625 55.3834 171.068 55.2 171.621 55.2C172.075 55.2 172.438 55.3234 172.711 55.57C172.985 55.8167 173.121 56.1467 173.121 56.56L172.941 56.35H173.141L173.121 55.1V53.5H174.021V60.8H173.121V59.75H172.941L173.121 59.54C173.121 59.96 172.985 60.2934 172.711 60.54C172.438 60.78 172.075 60.9 171.621 60.9ZM171.921 60.12C172.295 60.12 172.588 60.0034 172.801 59.77C173.015 59.5367 173.121 59.2134 173.121 58.8V57.3C173.121 56.8867 173.015 56.5634 172.801 56.33C172.588 56.0967 172.295 55.98 171.921 55.98C171.541 55.98 171.241 56.0934 171.021 56.32C170.801 56.5467 170.691 56.8734 170.691 57.3V58.8C170.691 59.2267 170.801 59.5534 171.021 59.78C171.241 60.0067 171.541 60.12 171.921 60.12ZM177.458 60.9C176.878 60.9 176.421 60.7534 176.088 60.46C175.754 60.16 175.588 59.7567 175.588 59.25C175.588 58.7367 175.754 58.3334 176.088 58.04C176.421 57.7467 176.871 57.6 177.438 57.6H179.138V57.05C179.138 56.71 179.034 56.45 178.828 56.27C178.628 56.0834 178.341 55.99 177.968 55.99C177.641 55.99 177.368 56.06 177.148 56.2C176.928 56.3334 176.801 56.5167 176.768 56.75H175.868C175.928 56.2767 176.151 55.9 176.538 55.62C176.924 55.34 177.408 55.2 177.988 55.2C178.621 55.2 179.121 55.3634 179.488 55.69C179.854 56.0167 180.038 56.46 180.038 57.02V60.8H179.158V59.75H179.008L179.158 59.6C179.158 60 179.001 60.3167 178.688 60.55C178.381 60.7834 177.971 60.9 177.458 60.9ZM177.678 60.19C178.104 60.19 178.454 60.0834 178.728 59.87C179.001 59.6567 179.138 59.3834 179.138 59.05V58.27H177.458C177.158 58.27 176.921 58.3534 176.748 58.52C176.574 58.6867 176.488 58.9134 176.488 59.2C176.488 59.5067 176.591 59.75 176.798 59.93C177.011 60.1034 177.304 60.19 177.678 60.19ZM183.454 60.9C182.874 60.9 182.417 60.7534 182.084 60.46C181.75 60.16 181.584 59.7567 181.584 59.25C181.584 58.7367 181.75 58.3334 182.084 58.04C182.417 57.7467 182.867 57.6 183.434 57.6H185.134V57.05C185.134 56.71 185.03 56.45 184.824 56.27C184.624 56.0834 184.337 55.99 183.964 55.99C183.637 55.99 183.364 56.06 183.144 56.2C182.924 56.3334 182.797 56.5167 182.764 56.75H181.864C181.924 56.2767 182.147 55.9 182.534 55.62C182.92 55.34 183.404 55.2 183.984 55.2C184.617 55.2 185.117 55.3634 185.484 55.69C185.85 56.0167 186.034 56.46 186.034 57.02V60.8H185.154V59.75H185.004L185.154 59.6C185.154 60 184.997 60.3167 184.684 60.55C184.377 60.7834 183.967 60.9 183.454 60.9ZM183.674 60.19C184.1 60.19 184.45 60.0834 184.724 59.87C184.997 59.6567 185.134 59.3834 185.134 59.05V58.27H183.454C183.154 58.27 182.917 58.3534 182.744 58.52C182.57 58.6867 182.484 58.9134 182.484 59.2C182.484 59.5067 182.587 59.75 182.794 59.93C183.007 60.1034 183.3 60.19 183.674 60.19ZM189.91 60.9C189.316 60.9 188.83 60.7467 188.45 60.44C188.07 60.1334 187.846 59.72 187.78 59.2H188.68C188.713 59.4867 188.836 59.71 189.05 59.87C189.263 60.0234 189.553 60.1 189.92 60.1C190.34 60.1 190.653 59.9867 190.86 59.76C191.073 59.5334 191.18 59.2134 191.18 58.8V58.09C191.18 57.6767 191.073 57.3567 190.86 57.13C190.653 56.9034 190.343 56.79 189.93 56.79C189.67 56.79 189.443 56.86 189.25 57C189.056 57.1334 188.916 57.3134 188.83 57.54H187.93L187.98 53.5H191.82V54.32H188.85L188.82 56.75H189.1L188.82 57.01C188.82 56.6967 188.943 56.45 189.19 56.27C189.443 56.09 189.78 56 190.2 56C190.793 55.9934 191.253 56.1767 191.58 56.55C191.913 56.9167 192.08 57.43 192.08 58.09V58.8C192.08 59.4467 191.89 59.96 191.51 60.34C191.13 60.7134 190.596 60.9 189.91 60.9ZM195.926 56.7C195.679 56.7 195.479 56.6334 195.326 56.5C195.172 56.36 195.096 56.1767 195.096 55.95C195.096 55.7234 195.172 55.5434 195.326 55.41C195.479 55.27 195.679 55.2 195.926 55.2C196.179 55.2 196.379 55.27 196.526 55.41C196.679 55.5434 196.756 55.7234 196.756 55.95C196.756 56.1767 196.679 56.36 196.526 56.5C196.379 56.6334 196.179 56.7 195.926 56.7ZM195.926 60.9C195.679 60.9 195.479 60.8334 195.326 60.7C195.172 60.56 195.096 60.3767 195.096 60.15C195.096 59.9234 195.172 59.7434 195.326 59.61C195.479 59.47 195.679 59.4 195.926 59.4C196.179 59.4 196.379 59.47 196.526 59.61C196.679 59.7434 196.756 59.9234 196.756 60.15C196.756 60.3767 196.679 60.56 196.526 60.7C196.379 60.8334 196.179 60.9 195.926 60.9ZM201.752 60.88C201.379 60.88 201.052 60.8234 200.772 60.71C200.499 60.59 200.279 60.4234 200.112 60.21C199.952 59.9967 199.855 59.7434 199.822 59.45H200.722C200.762 59.6434 200.869 59.7967 201.042 59.91C201.222 60.0234 201.459 60.08 201.752 60.08H202.172C202.525 60.08 202.789 60.01 202.962 59.87C203.135 59.7234 203.222 59.53 203.222 59.29C203.222 59.0567 203.142 58.8734 202.982 58.74C202.829 58.6 202.599 58.5067 202.292 58.46L201.552 58.34C201.012 58.2467 200.609 58.08 200.342 57.84C200.082 57.5934 199.952 57.2367 199.952 56.77C199.952 56.2767 200.109 55.8967 200.422 55.63C200.735 55.3567 201.205 55.22 201.832 55.22H202.212C202.739 55.22 203.162 55.3434 203.482 55.59C203.802 55.8367 203.995 56.17 204.062 56.59H203.162C203.122 56.4167 203.022 56.28 202.862 56.18C202.702 56.0734 202.485 56.02 202.212 56.02H201.832C201.492 56.02 201.242 56.0834 201.082 56.21C200.929 56.3367 200.852 56.5267 200.852 56.78C200.852 57.0067 200.919 57.1734 201.052 57.28C201.185 57.3867 201.395 57.4634 201.682 57.51L202.422 57.63C203.015 57.7234 203.445 57.8967 203.712 58.15C203.985 58.4034 204.122 58.77 204.122 59.25C204.122 59.7567 203.959 60.1567 203.632 60.45C203.312 60.7367 202.825 60.88 202.172 60.88H201.752ZM205.868 60.8V53.5H206.768V57.57H207.828L209.428 55.3H210.458L208.608 57.92L210.488 60.8H209.438L207.838 58.35H206.768V60.8H205.868ZM211.514 61.8V61.05H216.314V61.8H211.514ZM217.84 60.8V53.5H218.74V56.62H221.08V53.5H221.98V60.8H221.08V57.44H218.74V60.8H217.84ZM225.736 60.88C225.363 60.88 225.036 60.8234 224.756 60.71C224.483 60.59 224.263 60.4234 224.096 60.21C223.936 59.9967 223.84 59.7434 223.806 59.45H224.706C224.746 59.6434 224.853 59.7967 225.026 59.91C225.206 60.0234 225.443 60.08 225.736 60.08H226.156C226.51 60.08 226.773 60.01 226.946 59.87C227.12 59.7234 227.206 59.53 227.206 59.29C227.206 59.0567 227.126 58.8734 226.966 58.74C226.813 58.6 226.583 58.5067 226.276 58.46L225.536 58.34C224.996 58.2467 224.593 58.08 224.326 57.84C224.066 57.5934 223.936 57.2367 223.936 56.77C223.936 56.2767 224.093 55.8967 224.406 55.63C224.72 55.3567 225.19 55.22 225.816 55.22H226.196C226.723 55.22 227.146 55.3434 227.466 55.59C227.786 55.8367 227.98 56.17 228.046 56.59H227.146C227.106 56.4167 227.006 56.28 226.846 56.18C226.686 56.0734 226.47 56.02 226.196 56.02H225.816C225.476 56.02 225.226 56.0834 225.066 56.21C224.913 56.3367 224.836 56.5267 224.836 56.78C224.836 57.0067 224.903 57.1734 225.036 57.28C225.17 57.3867 225.38 57.4634 225.666 57.51L226.406 57.63C227 57.7234 227.43 57.8967 227.696 58.15C227.97 58.4034 228.106 58.77 228.106 59.25C228.106 59.7567 227.943 60.1567 227.616 60.45C227.296 60.7367 226.81 60.88 226.156 60.88H225.736ZM229.902 60.8V53.5H234.102V54.32H230.792V56.58H233.752V57.39H230.792V59.98H234.102V60.8H229.902ZM237.938 60.9C237.498 60.9 237.112 60.8167 236.778 60.65C236.452 60.4834 236.198 60.2434 236.018 59.93C235.838 59.61 235.748 59.2334 235.748 58.8V57.3C235.748 56.86 235.838 56.4834 236.018 56.17C236.198 55.8567 236.452 55.6167 236.778 55.45C237.112 55.2834 237.498 55.2 237.938 55.2C238.572 55.2 239.082 55.37 239.468 55.71C239.855 56.05 240.058 56.5134 240.078 57.1H239.178C239.158 56.7467 239.038 56.4767 238.818 56.29C238.605 56.0967 238.312 56 237.938 56C237.545 56 237.232 56.1134 236.998 56.34C236.765 56.56 236.648 56.8767 236.648 57.29V58.8C236.648 59.2134 236.765 59.5334 236.998 59.76C237.232 59.9867 237.545 60.1 237.938 60.1C238.312 60.1 238.605 60.0034 238.818 59.81C239.038 59.6167 239.158 59.3467 239.178 59H240.078C240.058 59.5867 239.855 60.05 239.468 60.39C239.082 60.73 238.572 60.9 237.938 60.9ZM242.765 60.8L244.835 57.48L244.795 57.45C244.668 57.6367 244.495 57.78 244.275 57.88C244.055 57.98 243.808 58.03 243.535 58.03C243.141 58.03 242.795 57.9367 242.495 57.75C242.201 57.5634 241.975 57.3 241.815 56.96C241.655 56.6134 241.575 56.21 241.575 55.75C241.575 55.2767 241.671 54.8667 241.865 54.52C242.058 54.1667 242.328 53.8934 242.675 53.7C243.021 53.5 243.425 53.4 243.885 53.4C244.351 53.4 244.758 53.5 245.105 53.7C245.458 53.8934 245.731 54.1667 245.925 54.52C246.118 54.8667 246.215 55.2767 246.215 55.75C246.215 56.1167 246.161 56.4767 246.055 56.83C245.955 57.1834 245.801 57.5234 245.595 57.85L243.765 60.8H242.765ZM243.895 57.3C244.321 57.3 244.665 57.16 244.925 56.88C245.185 56.5934 245.315 56.2167 245.315 55.75C245.315 55.2834 245.185 54.91 244.925 54.63C244.665 54.3434 244.321 54.2 243.895 54.2C243.468 54.2 243.125 54.3434 242.865 54.63C242.605 54.91 242.475 55.2834 242.475 55.75C242.475 56.2167 242.605 56.5934 242.865 56.88C243.125 57.16 243.468 57.3 243.895 57.3ZM250.641 60.8C250.321 60.8 250.041 60.7367 249.801 60.61C249.561 60.4834 249.374 60.3034 249.241 60.07C249.107 59.8367 249.041 59.5634 249.041 59.25V54.32H247.191V53.5H249.941V59.25C249.941 59.4767 250.004 59.6567 250.131 59.79C250.257 59.9167 250.427 59.98 250.641 59.98H252.391V60.8H250.641ZM253.817 60.8V53.5H254.717V56.62H257.057V53.5H257.957V60.8H257.057V57.44H254.717V60.8H253.817ZM262.133 62.6C261.566 62.6 261.073 62.48 260.653 62.24C260.233 62.0067 259.906 61.67 259.673 61.23C259.446 60.7967 259.333 60.2867 259.333 59.7V56.3C259.333 55.7 259.439 55.1834 259.653 54.75C259.873 54.3167 260.183 53.9834 260.583 53.75C260.989 53.5167 261.473 53.4 262.033 53.4C262.539 53.4 262.976 53.5 263.343 53.7C263.709 53.8934 263.989 54.1734 264.183 54.54C264.383 54.9067 264.483 55.3434 264.483 55.85V60.15H263.773V59.6H263.493L263.683 59.4C263.683 59.6534 263.586 59.86 263.393 60.02C263.199 60.1734 262.943 60.25 262.623 60.25C262.189 60.25 261.856 60.12 261.623 59.86C261.396 59.5934 261.283 59.2067 261.283 58.7V57.5C261.283 56.9934 261.396 56.61 261.623 56.35C261.856 56.0834 262.189 55.95 262.623 55.95C262.943 55.95 263.199 56.03 263.393 56.19C263.586 56.3434 263.683 56.55 263.683 56.81L263.543 56.6H263.783L263.683 55.9V55.85C263.683 55.47 263.619 55.15 263.493 54.89C263.366 54.63 263.179 54.4334 262.933 54.3C262.693 54.1667 262.393 54.1 262.033 54.1C261.433 54.1 260.966 54.2934 260.633 54.68C260.299 55.0667 260.133 55.6067 260.133 56.3V59.7C260.133 60.3667 260.309 60.89 260.663 61.27C261.023 61.6567 261.513 61.85 262.133 61.85H262.833V62.6H262.133ZM262.883 59.62C263.156 59.62 263.356 59.5367 263.483 59.37C263.616 59.2034 263.683 58.9467 263.683 58.6V57.49C263.683 57.1767 263.616 56.9467 263.483 56.8C263.356 56.6534 263.156 56.58 262.883 56.58C262.616 56.58 262.416 56.6567 262.283 56.81C262.149 56.9567 262.083 57.1867 262.083 57.5V58.7C262.083 59.0134 262.149 59.2467 262.283 59.4C262.416 59.5467 262.616 59.62 262.883 59.62ZM267.559 60.9C267.012 60.9 266.569 60.7167 266.229 60.35C265.896 59.9834 265.729 59.4867 265.729 58.86V57.25C265.729 56.6167 265.896 56.1167 266.229 55.75C266.562 55.3834 267.006 55.2 267.559 55.2C268.012 55.2 268.376 55.3234 268.649 55.57C268.922 55.8167 269.059 56.1467 269.059 56.56L268.879 56.35H269.079L269.059 55.1V53.5H269.959V60.8H269.059V59.75H268.879L269.059 59.54C269.059 59.96 268.922 60.2934 268.649 60.54C268.376 60.78 268.012 60.9 267.559 60.9ZM267.859 60.12C268.232 60.12 268.526 60.0034 268.739 59.77C268.952 59.5367 269.059 59.2134 269.059 58.8V57.3C269.059 56.8867 268.952 56.5634 268.739 56.33C268.526 56.0967 268.232 55.98 267.859 55.98C267.479 55.98 267.179 56.0934 266.959 56.32C266.739 56.5467 266.629 56.8734 266.629 57.3V58.8C266.629 59.2267 266.739 59.5534 266.959 59.78C267.179 60.0067 267.479 60.12 267.859 60.12ZM274.195 60.9C273.742 60.9 273.378 60.78 273.105 60.54C272.832 60.2934 272.695 59.96 272.695 59.54L272.875 59.75H272.695V60.8H271.795V53.5H272.695V55.1L272.675 56.35H272.875L272.695 56.56C272.695 56.1467 272.832 55.8167 273.105 55.57C273.385 55.3234 273.748 55.2 274.195 55.2C274.748 55.2 275.192 55.3834 275.525 55.75C275.858 56.1167 276.025 56.6167 276.025 57.25V58.86C276.025 59.4867 275.858 59.9834 275.525 60.35C275.192 60.7167 274.748 60.9 274.195 60.9ZM273.895 60.12C274.275 60.12 274.575 60.0067 274.795 59.78C275.015 59.5534 275.125 59.2267 275.125 58.8V57.3C275.125 56.8734 275.015 56.5467 274.795 56.32C274.575 56.0934 274.275 55.98 273.895 55.98C273.528 55.98 273.235 56.0967 273.015 56.33C272.802 56.5634 272.695 56.8867 272.695 57.3V58.8C272.695 59.2134 272.802 59.5367 273.015 59.77C273.235 60.0034 273.528 60.12 273.895 60.12ZM279.871 60.9C279.618 60.9 279.414 60.8267 279.261 60.68C279.114 60.5334 279.041 60.3367 279.041 60.09C279.041 59.83 279.114 59.6234 279.261 59.47C279.414 59.3167 279.618 59.24 279.871 59.24C280.124 59.24 280.324 59.3167 280.471 59.47C280.624 59.6234 280.701 59.83 280.701 60.09C280.701 60.3367 280.624 60.5334 280.471 60.68C280.324 60.8267 280.124 60.9 279.871 60.9ZM283.787 62.6V55.3H284.687V56.35H284.867L284.687 56.56C284.687 56.14 284.824 55.81 285.097 55.57C285.377 55.3234 285.744 55.2 286.197 55.2C286.751 55.2 287.191 55.3834 287.517 55.75C287.851 56.11 288.017 56.6067 288.017 57.24V58.85C288.017 59.27 287.941 59.6334 287.787 59.94C287.641 60.2467 287.431 60.4834 287.157 60.65C286.891 60.8167 286.571 60.9 286.197 60.9C285.751 60.9 285.387 60.7767 285.107 60.53C284.827 60.2834 284.687 59.9534 284.687 59.54L284.867 59.75H284.667L284.687 61V62.6H283.787ZM285.897 60.12C286.277 60.12 286.574 60.0067 286.787 59.78C287.007 59.5534 287.117 59.2267 287.117 58.8V57.3C287.117 56.8734 287.007 56.5467 286.787 56.32C286.574 56.0934 286.277 55.98 285.897 55.98C285.531 55.98 285.237 56.0967 285.017 56.33C284.797 56.5634 284.687 56.8867 284.687 57.3V58.8C284.687 59.2134 284.797 59.5367 285.017 59.77C285.237 60.0034 285.531 60.12 285.897 60.12ZM289.973 60.8V55.3H290.853V56.35H291.063L290.773 57C290.773 56.4067 290.9 55.96 291.153 55.66C291.413 55.3534 291.797 55.2 292.303 55.2C292.883 55.2 293.343 55.3834 293.683 55.75C294.03 56.11 294.203 56.6 294.203 57.22V57.55H293.303V57.3C293.303 56.8667 293.197 56.5367 292.983 56.31C292.777 56.0767 292.48 55.96 292.093 55.96C291.713 55.96 291.413 56.0767 291.193 56.31C290.98 56.5434 290.873 56.8734 290.873 57.3V60.8H289.973ZM295.709 60.8V59.98H297.659V56.12H295.959V55.3H298.559V59.98H300.409V60.8H295.709ZM298.009 54.31C297.789 54.31 297.616 54.2534 297.489 54.14C297.363 54.0267 297.299 53.8734 297.299 53.68C297.299 53.48 297.363 53.3234 297.489 53.21C297.616 53.09 297.789 53.03 298.009 53.03C298.229 53.03 298.403 53.09 298.529 53.21C298.656 53.3234 298.719 53.48 298.719 53.68C298.719 53.8734 298.656 54.0267 298.529 54.14C298.403 54.2534 298.229 54.31 298.009 54.31ZM303.685 60.88C303.312 60.88 302.985 60.8234 302.705 60.71C302.432 60.59 302.212 60.4234 302.045 60.21C301.885 59.9967 301.789 59.7434 301.755 59.45H302.655C302.695 59.6434 302.802 59.7967 302.975 59.91C303.155 60.0234 303.392 60.08 303.685 60.08H304.105C304.459 60.08 304.722 60.01 304.895 59.87C305.069 59.7234 305.155 59.53 305.155 59.29C305.155 59.0567 305.075 58.8734 304.915 58.74C304.762 58.6 304.532 58.5067 304.225 58.46L303.485 58.34C302.945 58.2467 302.542 58.08 302.275 57.84C302.015 57.5934 301.885 57.2367 301.885 56.77C301.885 56.2767 302.042 55.8967 302.355 55.63C302.669 55.3567 303.139 55.22 303.765 55.22H304.145C304.672 55.22 305.095 55.3434 305.415 55.59C305.735 55.8367 305.929 56.17 305.995 56.59H305.095C305.055 56.4167 304.955 56.28 304.795 56.18C304.635 56.0734 304.419 56.02 304.145 56.02H303.765C303.425 56.02 303.175 56.0834 303.015 56.21C302.862 56.3367 302.785 56.5267 302.785 56.78C302.785 57.0067 302.852 57.1734 302.985 57.28C303.119 57.3867 303.329 57.4634 303.615 57.51L304.355 57.63C304.949 57.7234 305.379 57.8967 305.645 58.15C305.919 58.4034 306.055 58.77 306.055 59.25C306.055 59.7567 305.892 60.1567 305.565 60.45C305.245 60.7367 304.759 60.88 304.105 60.88H303.685ZM307.512 60.8V55.3H308.302V55.96H308.482L308.342 56.2C308.342 55.8934 308.422 55.65 308.582 55.47C308.748 55.29 308.972 55.2 309.252 55.2C309.558 55.2 309.795 55.3134 309.962 55.54C310.128 55.7667 310.212 56.0867 310.212 56.5L309.942 55.96H310.362L310.172 56.2C310.172 55.8934 310.255 55.65 310.422 55.47C310.595 55.29 310.822 55.2 311.102 55.2C311.448 55.2 311.715 55.33 311.902 55.59C312.095 55.85 312.192 56.1934 312.192 56.62V60.8H311.362V56.61C311.362 56.3834 311.312 56.2067 311.212 56.08C311.118 55.9534 310.978 55.89 310.792 55.89C310.612 55.89 310.468 55.9534 310.362 56.08C310.262 56.2 310.212 56.3734 310.212 56.6V60.8H309.492V56.61C309.492 56.3767 309.438 56.2 309.332 56.08C309.232 55.9534 309.088 55.89 308.902 55.89C308.715 55.89 308.575 55.9534 308.482 56.08C308.388 56.2 308.342 56.3734 308.342 56.6V60.8H307.512ZM315.368 60.9C314.788 60.9 314.331 60.7534 313.998 60.46C313.664 60.16 313.498 59.7567 313.498 59.25C313.498 58.7367 313.664 58.3334 313.998 58.04C314.331 57.7467 314.781 57.6 315.348 57.6H317.048V57.05C317.048 56.71 316.944 56.45 316.738 56.27C316.538 56.0834 316.251 55.99 315.878 55.99C315.551 55.99 315.278 56.06 315.058 56.2C314.838 56.3334 314.711 56.5167 314.678 56.75H313.778C313.838 56.2767 314.061 55.9 314.448 55.62C314.834 55.34 315.318 55.2 315.898 55.2C316.531 55.2 317.031 55.3634 317.398 55.69C317.764 56.0167 317.948 56.46 317.948 57.02V60.8H317.068V59.75H316.918L317.068 59.6C317.068 60 316.911 60.3167 316.598 60.55C316.291 60.7834 315.881 60.9 315.368 60.9ZM315.588 60.19C316.014 60.19 316.364 60.0834 316.638 59.87C316.911 59.6567 317.048 59.3834 317.048 59.05V58.27H315.368C315.068 58.27 314.831 58.3534 314.658 58.52C314.484 58.6867 314.398 58.9134 314.398 59.2C314.398 59.5067 314.501 59.75 314.708 59.93C314.921 60.1034 315.214 60.19 315.588 60.19ZM321.844 60.9C321.59 60.9 321.387 60.8267 321.234 60.68C321.087 60.5334 321.014 60.3367 321.014 60.09C321.014 59.83 321.087 59.6234 321.234 59.47C321.387 59.3167 321.59 59.24 321.844 59.24C322.097 59.24 322.297 59.3167 322.444 59.47C322.597 59.6234 322.674 59.83 322.674 60.09C322.674 60.3367 322.597 60.5334 322.444 60.68C322.297 60.8267 322.097 60.9 321.844 60.9ZM325.69 60.8V59.98H327.64V56.12H325.94V55.3H328.54V59.98H330.39V60.8H325.69ZM327.99 54.31C327.77 54.31 327.597 54.2534 327.47 54.14C327.343 54.0267 327.28 53.8734 327.28 53.68C327.28 53.48 327.343 53.3234 327.47 53.21C327.597 53.09 327.77 53.03 327.99 53.03C328.21 53.03 328.383 53.09 328.51 53.21C328.637 53.3234 328.7 53.48 328.7 53.68C328.7 53.8734 328.637 54.0267 328.51 54.14C328.383 54.2534 328.21 54.31 327.99 54.31ZM333.836 60.88C333.396 60.88 333.016 60.7967 332.696 60.63C332.376 60.4634 332.126 60.2234 331.946 59.91C331.773 59.59 331.686 59.2134 331.686 58.78V57.32C331.686 56.88 331.773 56.5034 331.946 56.19C332.126 55.8767 332.376 55.6367 332.696 55.47C333.016 55.3034 333.396 55.22 333.836 55.22C334.276 55.22 334.656 55.3034 334.976 55.47C335.296 55.6367 335.543 55.8767 335.716 56.19C335.896 56.5034 335.986 56.8767 335.986 57.31V58.78C335.986 59.2134 335.896 59.59 335.716 59.91C335.543 60.2234 335.296 60.4634 334.976 60.63C334.656 60.7967 334.276 60.88 333.836 60.88ZM333.836 60.08C334.229 60.08 334.536 59.97 334.756 59.75C334.976 59.53 335.086 59.2067 335.086 58.78V57.32C335.086 56.8934 334.976 56.57 334.756 56.35C334.536 56.13 334.229 56.02 333.836 56.02C333.449 56.02 333.143 56.13 332.916 56.35C332.696 56.57 332.586 56.8934 332.586 57.32V58.78C332.586 59.2067 332.696 59.53 332.916 59.75C333.143 59.97 333.449 60.08 333.836 60.08ZM339.832 56.7C339.585 56.7 339.385 56.6334 339.232 56.5C339.079 56.36 339.002 56.1767 339.002 55.95C339.002 55.7234 339.079 55.5434 339.232 55.41C339.385 55.27 339.585 55.2 339.832 55.2C340.085 55.2 340.285 55.27 340.432 55.41C340.585 55.5434 340.662 55.7234 340.662 55.95C340.662 56.1767 340.585 56.36 340.432 56.5C340.285 56.6334 340.085 56.7 339.832 56.7ZM339.832 60.9C339.585 60.9 339.385 60.8334 339.232 60.7C339.079 60.56 339.002 60.3767 339.002 60.15C339.002 59.9234 339.079 59.7434 339.232 59.61C339.385 59.47 339.585 59.4 339.832 59.4C340.085 59.4 340.285 59.47 340.432 59.61C340.585 59.7434 340.662 59.9234 340.662 60.15C340.662 60.3767 340.585 60.56 340.432 60.7C340.285 60.8334 340.085 60.9 339.832 60.9ZM345.808 60.9C345.215 60.9 344.728 60.7467 344.348 60.44C343.968 60.1334 343.745 59.72 343.678 59.2H344.578C344.611 59.4867 344.735 59.71 344.948 59.87C345.161 60.0234 345.451 60.1 345.818 60.1C346.238 60.1 346.551 59.9867 346.758 59.76C346.971 59.5334 347.078 59.2134 347.078 58.8V58.09C347.078 57.6767 346.971 57.3567 346.758 57.13C346.551 56.9034 346.241 56.79 345.828 56.79C345.568 56.79 345.341 56.86 345.148 57C344.955 57.1334 344.815 57.3134 344.728 57.54H343.828L343.878 53.5H347.718V54.32H344.748L344.718 56.75H344.998L344.718 57.01C344.718 56.6967 344.841 56.45 345.088 56.27C345.341 56.09 345.678 56 346.098 56C346.691 55.9934 347.151 56.1767 347.478 56.55C347.811 56.9167 347.978 57.43 347.978 58.09V58.8C347.978 59.4467 347.788 59.96 347.408 60.34C347.028 60.7134 346.495 60.9 345.808 60.9ZM352.924 60.8V59.2H349.624V57.79L352.514 53.5H353.494L350.524 57.98V58.38H352.924V56.6H353.824V60.8H352.924ZM357.71 60.9C357.27 60.9 356.884 60.8134 356.55 60.64C356.224 60.46 355.97 60.2134 355.79 59.9C355.61 59.5867 355.52 59.22 355.52 58.8H356.42C356.42 59.2067 356.534 59.5267 356.76 59.76C356.994 59.9867 357.314 60.1 357.72 60.1C358.134 60.1 358.454 59.98 358.68 59.74C358.907 59.5 359.02 59.1867 359.02 58.8V58.28C359.02 57.8667 358.907 57.5467 358.68 57.32C358.454 57.0934 358.134 56.98 357.72 56.98H356.97V56.08L358.78 54.32H355.82V53.5H359.69V54.4L357.74 56.29V56.18C358.407 56.18 358.937 56.37 359.33 56.75C359.724 57.13 359.92 57.64 359.92 58.28V58.8C359.92 59.22 359.827 59.5867 359.64 59.9C359.46 60.2134 359.204 60.46 358.87 60.64C358.537 60.8134 358.15 60.9 357.71 60.9ZM361.736 60.8V59.88L363.966 57.51C364.346 57.1034 364.623 56.7434 364.796 56.43C364.97 56.11 365.056 55.8034 365.056 55.51C365.056 55.1034 364.943 54.7834 364.716 54.55C364.496 54.3167 364.193 54.2 363.806 54.2C363.38 54.2 363.043 54.32 362.796 54.56C362.556 54.8 362.436 55.13 362.436 55.55H361.536C361.55 55.11 361.65 54.73 361.836 54.41C362.03 54.0834 362.293 53.8334 362.626 53.66C362.966 53.4867 363.36 53.4 363.806 53.4C364.246 53.4 364.626 53.4867 364.946 53.66C365.273 53.8267 365.523 54.0667 365.696 54.38C365.87 54.6934 365.956 55.0667 365.956 55.5C365.956 55.9134 365.846 56.3234 365.626 56.73C365.406 57.1367 365.046 57.6 364.546 58.12L362.746 59.98H366.076V60.8H361.736ZM367.563 61.9L371.113 52.5H372.063L368.513 61.9H367.563ZM373.729 62.6V55.3H374.629V56.35H374.809L374.629 56.56C374.629 56.14 374.765 55.81 375.039 55.57C375.319 55.3234 375.685 55.2 376.139 55.2C376.692 55.2 377.132 55.3834 377.459 55.75C377.792 56.11 377.959 56.6067 377.959 57.24V58.85C377.959 59.27 377.882 59.6334 377.729 59.94C377.582 60.2467 377.372 60.4834 377.099 60.65C376.832 60.8167 376.512 60.9 376.139 60.9C375.692 60.9 375.329 60.7767 375.049 60.53C374.769 60.2834 374.629 59.9534 374.629 59.54L374.809 59.75H374.609L374.629 61V62.6H373.729ZM375.839 60.12C376.219 60.12 376.515 60.0067 376.729 59.78C376.949 59.5534 377.059 59.2267 377.059 58.8V57.3C377.059 56.8734 376.949 56.5467 376.729 56.32C376.515 56.0934 376.219 55.98 375.839 55.98C375.472 55.98 375.179 56.0967 374.959 56.33C374.739 56.5634 374.629 56.8867 374.629 57.3V58.8C374.629 59.2134 374.739 59.5367 374.959 59.77C375.179 60.0034 375.472 60.12 375.839 60.12ZM381.805 60.88C381.365 60.88 380.985 60.7967 380.665 60.63C380.345 60.4634 380.095 60.2234 379.915 59.91C379.741 59.59 379.655 59.2134 379.655 58.78V57.32C379.655 56.88 379.741 56.5034 379.915 56.19C380.095 55.8767 380.345 55.6367 380.665 55.47C380.985 55.3034 381.365 55.22 381.805 55.22C382.245 55.22 382.625 55.3034 382.945 55.47C383.265 55.6367 383.511 55.8767 383.685 56.19C383.865 56.5034 383.955 56.8767 383.955 57.31V58.78C383.955 59.2134 383.865 59.59 383.685 59.91C383.511 60.2234 383.265 60.4634 382.945 60.63C382.625 60.7967 382.245 60.88 381.805 60.88ZM381.805 60.08C382.198 60.08 382.505 59.97 382.725 59.75C382.945 59.53 383.055 59.2067 383.055 58.78V57.32C383.055 56.8934 382.945 56.57 382.725 56.35C382.505 56.13 382.198 56.02 381.805 56.02C381.418 56.02 381.111 56.13 380.885 56.35C380.665 56.57 380.555 56.8934 380.555 57.32V58.78C380.555 59.2067 380.665 59.53 380.885 59.75C381.111 59.97 381.418 60.08 381.805 60.08ZM387.631 60.88C387.257 60.88 386.931 60.8234 386.651 60.71C386.377 60.59 386.157 60.4234 385.991 60.21C385.831 59.9967 385.734 59.7434 385.701 59.45H386.601C386.641 59.6434 386.747 59.7967 386.921 59.91C387.101 60.0234 387.337 60.08 387.631 60.08H388.051C388.404 60.08 388.667 60.01 388.841 59.87C389.014 59.7234 389.101 59.53 389.101 59.29C389.101 59.0567 389.021 58.8734 388.861 58.74C388.707 58.6 388.477 58.5067 388.171 58.46L387.431 58.34C386.891 58.2467 386.487 58.08 386.221 57.84C385.961 57.5934 385.831 57.2367 385.831 56.77C385.831 56.2767 385.987 55.8967 386.301 55.63C386.614 55.3567 387.084 55.22 387.711 55.22H388.091C388.617 55.22 389.041 55.3434 389.361 55.59C389.681 55.8367 389.874 56.17 389.941 56.59H389.041C389.001 56.4167 388.901 56.28 388.741 56.18C388.581 56.0734 388.364 56.02 388.091 56.02H387.711C387.371 56.02 387.121 56.0834 386.961 56.21C386.807 56.3367 386.731 56.5267 386.731 56.78C386.731 57.0067 386.797 57.1734 386.931 57.28C387.064 57.3867 387.274 57.4634 387.561 57.51L388.301 57.63C388.894 57.7234 389.324 57.8967 389.591 58.15C389.864 58.4034 390.001 58.77 390.001 59.25C390.001 59.7567 389.837 60.1567 389.511 60.45C389.191 60.7367 388.704 60.88 388.051 60.88H387.631ZM394.397 60.8C393.924 60.8 393.554 60.6734 393.287 60.42C393.027 60.1667 392.897 59.81 392.897 59.35V56.12H391.347V55.3H392.897V53.75H393.797V55.3H395.997V56.12H393.797V59.35C393.797 59.77 393.997 59.98 394.397 59.98H395.897V60.8H394.397ZM398.403 62.6V61.78H400.153C400.433 61.78 400.636 61.7167 400.763 61.59C400.896 61.4634 400.963 61.2667 400.963 61V60.3L400.983 59.3H400.803L400.973 59.15C400.973 59.55 400.84 59.8667 400.573 60.1C400.306 60.3334 399.95 60.45 399.503 60.45C398.936 60.45 398.49 60.2667 398.163 59.9C397.836 59.5267 397.673 59.0267 397.673 58.4V57.24C397.673 56.6134 397.836 56.1167 398.163 55.75C398.49 55.3834 398.936 55.2 399.503 55.2C399.95 55.2 400.306 55.3167 400.573 55.55C400.84 55.7834 400.973 56.1 400.973 56.5L400.803 56.35H400.973V55.3H401.863V61C401.863 61.4934 401.71 61.8834 401.403 62.17C401.103 62.4567 400.683 62.6 400.143 62.6H398.403ZM399.773 59.67C400.146 59.67 400.44 59.5534 400.653 59.32C400.866 59.0867 400.973 58.7634 400.973 58.35V57.3C400.973 56.8867 400.866 56.5634 400.653 56.33C400.44 56.0967 400.146 55.98 399.773 55.98C399.393 55.98 399.096 56.0934 398.883 56.32C398.676 56.5467 398.573 56.8734 398.573 57.3V58.35C398.573 58.7767 398.676 59.1034 398.883 59.33C399.096 59.5567 399.393 59.67 399.773 59.67ZM403.899 60.8V55.3H404.779V56.35H404.989L404.699 57C404.699 56.4067 404.826 55.96 405.079 55.66C405.339 55.3534 405.722 55.2 406.229 55.2C406.809 55.2 407.269 55.3834 407.609 55.75C407.956 56.11 408.129 56.6 408.129 57.22V57.55H407.229V57.3C407.229 56.8667 407.122 56.5367 406.909 56.31C406.702 56.0767 406.406 55.96 406.019 55.96C405.639 55.96 405.339 56.0767 405.119 56.31C404.906 56.5434 404.799 56.8734 404.799 57.3V60.8H403.899ZM411.785 60.9C411.352 60.9 410.972 60.8134 410.645 60.64C410.325 60.4667 410.075 60.2234 409.895 59.91C409.722 59.59 409.635 59.22 409.635 58.8V57.3C409.635 56.8734 409.722 56.5034 409.895 56.19C410.075 55.8767 410.325 55.6334 410.645 55.46C410.972 55.2867 411.352 55.2 411.785 55.2C412.218 55.2 412.595 55.2867 412.915 55.46C413.242 55.6334 413.492 55.8767 413.665 56.19C413.845 56.5034 413.935 56.8734 413.935 57.3V58.27H410.515V58.8C410.515 59.2334 410.625 59.5667 410.845 59.8C411.065 60.0267 411.378 60.14 411.785 60.14C412.132 60.14 412.412 60.08 412.625 59.96C412.838 59.8334 412.968 59.6467 413.015 59.4H413.915C413.855 59.86 413.628 60.2267 413.235 60.5C412.848 60.7667 412.365 60.9 411.785 60.9ZM413.055 57.67V57.3C413.055 56.8667 412.945 56.5334 412.725 56.3C412.512 56.0667 412.198 55.95 411.785 55.95C411.378 55.95 411.065 56.0667 410.845 56.3C410.625 56.5334 410.515 56.8667 410.515 57.3V57.59H413.125L413.055 57.67ZM417.611 60.88C417.238 60.88 416.911 60.8234 416.631 60.71C416.358 60.59 416.138 60.4234 415.971 60.21C415.811 59.9967 415.715 59.7434 415.681 59.45H416.581C416.621 59.6434 416.728 59.7967 416.901 59.91C417.081 60.0234 417.318 60.08 417.611 60.08H418.031C418.385 60.08 418.648 60.01 418.821 59.87C418.995 59.7234 419.081 59.53 419.081 59.29C419.081 59.0567 419.001 58.8734 418.841 58.74C418.688 58.6 418.458 58.5067 418.151 58.46L417.411 58.34C416.871 58.2467 416.468 58.08 416.201 57.84C415.941 57.5934 415.811 57.2367 415.811 56.77C415.811 56.2767 415.968 55.8967 416.281 55.63C416.595 55.3567 417.065 55.22 417.691 55.22H418.071C418.598 55.22 419.021 55.3434 419.341 55.59C419.661 55.8367 419.855 56.17 419.921 56.59H419.021C418.981 56.4167 418.881 56.28 418.721 56.18C418.561 56.0734 418.345 56.02 418.071 56.02H417.691C417.351 56.02 417.101 56.0834 416.941 56.21C416.788 56.3367 416.711 56.5267 416.711 56.78C416.711 57.0067 416.778 57.1734 416.911 57.28C417.045 57.3867 417.255 57.4634 417.541 57.51L418.281 57.63C418.875 57.7234 419.305 57.8967 419.571 58.15C419.845 58.4034 419.981 58.77 419.981 59.25C419.981 59.7567 419.818 60.1567 419.491 60.45C419.171 60.7367 418.685 60.88 418.031 60.88H417.611Z" fill="#6B7280"/>
</g>
</g>
<path d="M12 0.5H535C541.351 0.5 546.5 5.64872 546.5 12V288C546.5 294.351 541.351 299.5 535 299.5H12C5.64873 299.5 0.5 294.351 0.5 288V12C0.500004 5.64873 5.64873 0.5 12 0.5Z" stroke="#E5E7EB"/>
<defs>
<filter id="filter0_dd_4008_16790" x="36.7409" y="35.9218" width="443.518" height="50.5181" filterUnits="userSpaceOnUse" color-interpolation-filters="sRGB">
<feFlood flood-opacity="0" result="BackgroundImageFix"/>
<feColorMatrix in="SourceAlpha" type="matrix" values="0 0 0 0 0 0 0 0 0 0 0 0 0 0 0 0 0 0 127 0" result="hardAlpha"/>
<feOffset dy="1.22278"/>
<feGaussianBlur stdDeviation="0.951048"/>
<feColorMatrix type="matrix" values="0 0 0 0 0 0 0 0 0 0 0 0 0 0 0 0 0 0 0.142849 0"/>
<feBlend mode="normal" in2="BackgroundImageFix" result="effect1_dropShadow_4008_16790"/>
<feColorMatrix in="SourceAlpha" type="matrix" values="0 0 0 0 0 0 0 0 0 0 0 0 0 0 0 0 0 0 127 0" result="hardAlpha"/>
<feOffset dy="3.38082"/>
<feGaussianBlur stdDeviation="2.62953"/>
<feColorMatrix type="matrix" values="0 0 0 0 0 0 0 0 0 0 0 0 0 0 0 0 0 0 0.205 0"/>
<feBlend mode="normal" in2="effect1_dropShadow_4008_16790" result="effect2_dropShadow_4008_16790"/>
<feBlend mode="normal" in="SourceGraphic" in2="effect2_dropShadow_4008_16790" result="shape"/>
</filter>
<filter id="filter1_dddddd_4008_16790" x="39" y="37.8" width="38" height="38" filterUnits="userSpaceOnUse" color-interpolation-filters="sRGB">
<feFlood flood-opacity="0" result="BackgroundImageFix"/>
<feColorMatrix in="SourceAlpha" type="matrix" values="0 0 0 0 0 0 0 0 0 0 0 0 0 0 0 0 0 0 127 0" result="hardAlpha"/>
<feOffset/>
<feGaussianBlur stdDeviation="0.221381"/>
<feColorMatrix type="matrix" values="0 0 0 0 0.254902 0 0 0 0 0.764706 0 0 0 0 0.694118 0 0 0 0.106835 0"/>
<feBlend mode="normal" in2="BackgroundImageFix" result="effect1_dropShadow_4008_16790"/>
<feColorMatrix in="SourceAlpha" type="matrix" values="0 0 0 0 0 0 0 0 0 0 0 0 0 0 0 0 0 0 127 0" result="hardAlpha"/>
<feOffset/>
<feGaussianBlur stdDeviation="0.532008"/>
<feColorMatrix type="matrix" values="0 0 0 0 0.254902 0 0 0 0 0.764706 0 0 0 0 0.694118 0 0 0 0.153479 0"/>
<feBlend mode="normal" in2="effect1_dropShadow_4008_16790" result="effect2_dropShadow_4008_16790"/>
<feColorMatrix in="SourceAlpha" type="matrix" values="0 0 0 0 0 0 0 0 0 0 0 0 0 0 0 0 0 0 127 0" result="hardAlpha"/>
<feOffset/>
<feGaussianBlur stdDeviation="1.00172"/>
<feColorMatrix type="matrix" values="0 0 0 0 0.254902 0 0 0 0 0.764706 0 0 0 0 0.694118 0 0 0 0.19 0"/>
<feBlend mode="normal" in2="effect2_dropShadow_4008_16790" result="effect3_dropShadow_4008_16790"/>
<feColorMatrix in="SourceAlpha" type="matrix" values="0 0 0 0 0 0 0 0 0 0 0 0 0 0 0 0 0 0 127 0" result="hardAlpha"/>
<feOffset/>
<feGaussianBlur stdDeviation="1.7869"/>
<feColorMatrix type="matrix" values="0 0 0 0 0.254902 0 0 0 0 0.764706 0 0 0 0 0.694118 0 0 0 0.226521 0"/>
<feBlend mode="normal" in2="effect3_dropShadow_4008_16790" result="effect4_dropShadow_4008_16790"/>
<feColorMatrix in="SourceAlpha" type="matrix" values="0 0 0 0 0 0 0 0 0 0 0 0 0 0 0 0 0 0 127 0" result="hardAlpha"/>
<feOffset/>
<feGaussianBlur stdDeviation="3.34221"/>
<feColorMatrix type="matrix" values="0 0 0 0 0.254902 0 0 0 0 0.764706 0 0 0 0 0.694118 0 0 0 0.273165 0"/>
<feBlend mode="normal" in2="effect4_dropShadow_4008_16790" result="effect5_dropShadow_4008_16790"/>
<feColorMatrix in="SourceAlpha" type="matrix" values="0 0 0 0 0 0 0 0 0 0 0 0 0 0 0 0 0 0 127 0" result="hardAlpha"/>
<feOffset/>
<feGaussianBlur stdDeviation="8"/>
<feColorMatrix type="matrix" values="0 0 0 0 0.254902 0 0 0 0 0.764706 0 0 0 0 0.694118 0 0 0 0.38 0"/>
<feBlend mode="normal" in2="effect5_dropShadow_4008_16790" result="effect6_dropShadow_4008_16790"/>
<feBlend mode="normal" in="SourceGraphic" in2="effect6_dropShadow_4008_16790" result="shape"/>
</filter>
<linearGradient id="paint0_linear_4008_16790" x1="273.5" y1="0" x2="273.5" y2="496" gradientUnits="userSpaceOnUse">
<stop stop-color="white"/>
<stop offset="1" stop-color="#F0FDFA"/>
</linearGradient>
<linearGradient id="paint1_linear_4008_16790" x1="93.4238" y1="159.117" x2="93.4238" y2="435.119" gradientUnits="userSpaceOnUse">
<stop stop-color="#3F827D" stop-opacity="0"/>
<stop offset="1" stop-color="#71E8DF"/>
</linearGradient>
<linearGradient id="paint2_linear_4008_16790" x1="259.555" y1="115.681" x2="259.555" y2="384.539" gradientUnits="userSpaceOnUse">
<stop stop-color="#3F827D" stop-opacity="0"/>
<stop offset="1" stop-color="#71E8DF"/>
</linearGradient>
<linearGradient id="paint3_linear_4008_16790" x1="425.687" y1="105.235" x2="425.687" y2="217.946" gradientUnits="userSpaceOnUse">
<stop stop-color="#3F827D" stop-opacity="0"/>
<stop offset="1" stop-color="#71E8DF"/>
</linearGradient>
<clipPath id="clip0_4008_16790">
<path d="M0 12C0 5.37259 5.37258 0 12 0H535C541.627 0 547 5.37258 547 12V288C547 294.627 541.627 300 535 300H12C5.37259 300 0 294.627 0 288V12Z" fill="white"/>
</clipPath>
<clipPath id="clip1_4008_16790">
<rect width="49.56" height="48.72" fill="white" transform="translate(401 96)"/>
</clipPath>
</defs>
</svg>
