<svg xmlns="http://www.w3.org/2000/svg" fill="none" viewBox="42.52 171.9 481.92 249.93"><g opacity="0.42"><path opacity="0.8" d="M283.482 331.743C305.082 331.743 324.622 335.044 338.751 340.372C345.816 343.036 351.512 346.2 355.435 349.698C359.359 353.196 361.483 356.999 361.483 360.953C361.483 364.906 359.359 368.71 355.435 372.208C351.512 375.705 345.816 378.87 338.751 381.534C324.622 386.861 305.082 390.163 283.482 390.163C261.883 390.163 242.342 386.861 228.214 381.534C221.148 378.87 215.452 375.705 211.528 372.208C207.605 368.71 205.481 364.906 205.481 360.953C205.481 356.999 207.605 353.195 211.528 349.698C215.452 346.2 221.148 343.036 228.214 340.372C242.342 335.044 261.883 331.743 283.482 331.743Z" stroke="#2DD4BF" stroke-width="0.641984"></path><path opacity="0.6" d="M283.481 315.243C312.645 315.243 339.033 319.694 358.119 326.88C367.663 330.474 375.364 334.745 380.674 339.472C385.983 344.199 388.874 349.354 388.874 354.725C388.874 360.096 385.983 365.252 380.674 369.979C375.364 374.705 367.663 378.976 358.119 382.57C339.033 389.756 312.645 394.207 283.481 394.207C254.318 394.207 227.93 389.756 208.844 382.57C199.3 378.976 191.598 374.705 186.289 369.979C180.979 365.252 178.09 360.096 178.09 354.725C178.09 349.354 180.979 344.199 186.289 339.472C191.598 334.745 199.3 330.474 208.844 326.88C227.93 319.694 254.318 315.243 283.481 315.243Z" stroke="#2DD4BF" stroke-width="0.641984"></path><path opacity="0.45" d="M283.482 297.032C321.155 297.032 355.247 302.824 379.909 312.179C392.241 316.857 402.198 322.419 409.067 328.579C415.936 334.739 419.69 341.471 419.69 348.498C419.69 355.525 415.936 362.256 409.067 368.416C402.198 374.576 392.241 380.139 379.909 384.817C355.247 394.171 321.155 399.963 283.482 399.963C245.81 399.963 211.718 394.171 187.056 384.817C174.724 380.139 164.766 374.576 157.897 368.416C151.028 362.256 147.275 355.525 147.275 348.498C147.275 341.471 151.028 334.739 157.897 328.579C164.766 322.419 174.724 316.857 187.056 312.179C211.718 302.825 245.81 297.032 283.482 297.032Z" stroke="#2DD4BF" stroke-width="0.641984"></path><path opacity="0.3" d="M283.482 278.821C329.9 278.821 371.91 285.955 402.303 297.478C417.501 303.24 429.777 310.094 438.249 317.687C446.721 325.281 451.36 333.589 451.36 342.27C451.36 350.952 446.72 359.259 438.249 366.853C429.777 374.447 417.501 381.3 402.303 387.062C371.91 398.585 329.9 405.719 283.482 405.719C237.064 405.719 195.053 398.585 164.66 387.062C149.462 381.3 137.186 374.447 128.715 366.853C120.243 359.259 115.603 350.952 115.603 342.27C115.603 333.589 120.243 325.281 128.715 317.687C137.186 310.094 149.462 303.24 164.66 297.478C195.053 285.955 237.064 278.821 283.482 278.821Z" stroke="#2DD4BF" stroke-width="0.641984"></path><path opacity="0.2" d="M283.481 258.042C340.3 258.042 391.725 266.805 428.934 280.961C447.54 288.04 462.574 296.46 472.952 305.795C483.329 315.13 489.023 325.352 489.023 336.043C489.023 346.734 483.329 356.956 472.952 366.29C462.574 375.625 447.54 384.046 428.934 391.125C391.725 405.281 340.3 414.044 283.481 414.044C226.663 414.044 175.238 405.281 138.029 391.125C119.423 384.046 104.389 375.625 94.0115 366.29C83.6341 356.955 77.9403 346.734 77.9402 336.043C77.9402 325.352 83.6339 315.13 94.0115 305.795C104.389 296.46 119.424 288.04 138.029 280.961C175.238 266.805 226.663 258.042 283.481 258.042Z" stroke="#2DD4BF" stroke-width="0.641984"></path><path opacity="0.1" d="M283.482 238.119C349.992 238.119 410.191 248.414 453.751 265.049C475.532 273.366 493.135 283.263 505.289 294.236C517.442 305.209 524.119 317.233 524.119 329.815C524.119 342.398 517.442 354.421 505.289 365.394C493.135 376.367 475.532 386.264 453.751 394.582C410.191 411.216 349.992 421.511 283.482 421.511C216.972 421.511 156.773 411.216 113.214 394.582C91.4327 386.264 73.828 376.367 61.6746 365.394C49.5213 354.421 42.8455 342.398 42.8455 329.815C42.8455 317.233 49.5213 305.209 61.6746 294.236C73.828 283.263 91.4327 273.366 113.214 265.049C156.773 248.414 216.972 238.119 283.482 238.119Z" stroke="#2DD4BF" stroke-width="0.641984"></path></g><path d="M287.29 186.429C292.26 183.8 298.897 184.233 306.171 188.211L306.877 188.607L307.358 188.89C317.394 194.882 326.085 206.11 330.887 218.176C333.425 218.086 336.263 218.84 339.213 220.609H339.212C344.107 223.427 348.518 228.261 351.705 233.792C354.892 239.324 356.869 245.578 356.869 251.245C356.869 253.015 356.863 254.296 356.856 255.201C360.709 257.464 364.195 261.302 366.725 265.676C369.282 270.095 370.878 275.087 370.878 279.594C370.878 284.098 369.296 287.345 366.653 288.879C364.01 290.413 360.401 290.178 356.469 287.926L356.468 287.925L284.834 246.564C279.937 243.747 275.524 238.911 272.337 233.379C269.149 227.847 267.173 221.593 267.173 215.926C267.173 210.293 268.353 206.875 270.448 204.997C272.485 203.17 275.316 202.863 278.537 203.274C278.952 194.97 282.204 189.119 287.29 186.429Z" fill="#0A101D" stroke="#2DD4BF" stroke-width="0.535272" stroke-linejoin="round"></path><path d="M310.328 173.801C315.263 171.142 321.996 171.639 329.447 175.926C339.608 181.798 348.469 193.163 353.299 205.402C353.341 205.509 353.448 205.577 353.562 205.571C356.022 205.442 358.825 206.153 361.775 207.924L361.779 207.926C366.575 210.685 370.926 215.443 374.079 220.915C377.232 226.387 379.173 232.548 379.173 238.1C379.173 240.163 379.209 240.901 379.221 241.27C379.226 241.452 379.226 241.529 379.214 241.631C379.201 241.737 379.176 241.866 379.131 242.137C379.119 242.182 379.118 242.218 379.118 242.229C379.119 242.241 379.119 242.251 379.12 242.259C379.121 242.262 379.122 242.266 379.122 242.268V242.274H379.123V242.275C379.144 242.405 379.256 242.5 379.387 242.501C379.389 242.501 379.391 242.5 379.394 242.5C383.16 244.702 386.598 248.472 389.101 252.799C391.623 257.159 393.181 262.059 393.181 266.449C393.181 268.669 393.102 270.194 392.955 271.26C392.808 272.329 392.595 272.907 392.35 273.258C392.111 273.597 391.824 273.749 391.434 273.926C391.042 274.102 390.554 274.299 390.023 274.741L390.021 274.743C389.588 275.114 389.087 275.368 388.493 275.632L388.468 275.644L368.829 286.969C370.186 285.215 370.944 282.693 370.944 279.594C370.944 275.088 369.366 270.095 366.817 265.676C364.269 261.256 360.736 257.383 356.802 255.13L356.788 255.122L356.633 255.042C356.873 253.865 356.936 252.578 356.936 251.246C356.936 245.611 354.959 239.374 351.771 233.843C348.584 228.311 344.173 223.458 339.276 220.607L339.273 220.606L338.697 220.29C335.906 218.806 333.272 218.095 330.952 218.176C326.008 205.984 317.117 194.525 306.944 188.607H306.943C300.84 185.096 295.178 184.054 290.509 185.218L310.329 173.802L310.328 173.801Z" fill="#0A101D" stroke="#2DD4BF" stroke-width="0.535272" stroke-linejoin="round"></path><g filter="url(#filter0_dddddd_2014_3022)"><path d="M272.603 256.611C272.482 257.101 272.058 257.206 271.633 256.961C271.027 256.611 270.542 255.771 270.663 255.141C272.058 249.017 277.453 246.882 283.939 250.626C288.849 253.461 293.153 259.026 295.577 264.975V260.706C295.577 260.146 296.002 259.831 296.547 260.146C297.032 260.426 297.517 261.266 297.517 261.826V268.545C297.517 269.175 297.032 269.385 296.547 269.105L295.577 268.545L290.728 265.745C290.182 265.43 289.758 264.695 289.758 264.065C289.758 263.505 290.182 263.19 290.728 263.505L294.001 265.395C292.001 260.251 288.243 255.351 283.939 252.866C278.423 249.681 273.816 251.431 272.603 256.611ZM295.214 276.035C295.335 275.545 295.759 275.37 296.244 275.65C296.79 275.965 297.275 276.874 297.153 277.504C295.759 283.629 290.364 285.694 283.939 281.984C278.968 279.114 274.664 273.62 272.3 267.705V271.905C272.3 272.535 271.876 272.78 271.33 272.465C270.785 272.15 270.36 271.415 270.36 270.785V264.065C270.36 263.505 270.785 263.19 271.33 263.505L272.24 264.03L277.15 266.865C277.695 267.18 278.119 267.985 278.119 268.545C278.119 269.175 277.695 269.42 277.15 269.105L273.816 267.18C275.816 272.395 279.574 277.224 283.939 279.744C289.394 282.894 294.001 281.214 295.214 276.035Z" fill="#F9FAFB"></path></g><path d="M230.151 243.097L241.047 236.818C228.859 229.523 217.87 221.305 210.022 213.826L199.126 220.105C206.975 227.584 217.963 235.895 230.151 243.097Z" fill="#0A101D" stroke="#2DD4BF" stroke-width="0.535272" stroke-linejoin="round"></path><path d="M230.151 243.097C217.87 235.894 206.974 227.584 199.126 220.105C193.401 218.997 185.921 216.319 177.519 212.164C174.471 210.686 171.332 209.024 168.1 207.177C157.758 255.932 199.126 300.07 199.126 300.07C199.126 300.07 207.067 300.808 215.1 296.469L217.039 295.268C218.332 294.437 219.625 293.421 220.918 292.221C228.859 284.834 234.861 270.521 230.151 243.005V243.097Z" fill="#0A101D" stroke="#2DD4BF" stroke-width="0.535272" stroke-linejoin="round"></path><path d="M199.126 220.012L210.022 213.733C202.173 212.163 191.185 207.731 178.996 200.898L168.1 207.177C171.332 209.024 174.472 210.686 177.519 212.163C185.922 216.226 193.401 218.904 199.126 220.105V220.012Z" fill="#0A101D" stroke="#2DD4BF" stroke-width="0.535272" stroke-linejoin="round"></path><path d="M230.151 243.097C234.86 270.706 228.858 285.019 220.917 292.313C219.624 293.514 218.332 294.437 217.039 295.36L225.349 290.559L225.996 290.189L227.935 289.081L228.212 288.897C237.723 282.618 246.402 268.49 241.047 236.818L230.151 243.097Z" fill="#0A101D" stroke="#2DD4BF" stroke-width="0.535272" stroke-linejoin="round"></path><g filter="url(#filter1_dddddd_2014_3022)"><path d="M209.888 257.223C210.183 257.735 210.183 258.359 209.888 258.53L196.509 266.254C196.214 266.424 195.673 266.112 195.378 265.601L188.295 253.333C188 252.822 188 252.197 188.295 252.027C188.59 251.856 189.131 252.169 189.426 252.68L195.968 264.01L208.756 256.57C209.051 256.4 209.592 256.712 209.888 257.223Z" fill="#14B8A6"></path></g><g clip-path="url(#clip0_2014_3022)"><path d="M289.888 215.275C292.104 216.045 294.416 217.335 296.355 218.746C299.948 221.361 302.45 226.053 304.078 229.94C304.156 230.313 303.948 230.616 303.74 230.971L301.281 235.144C301.169 235.343 301.351 235.637 301.472 235.689C301.983 235.931 304.441 233.403 305.134 233.083C306.294 236.312 306.831 239.793 307.116 243.325L307.307 245.697V250.043C307.307 251.004 306.952 251.957 307.272 252.987C315.125 255.498 321.938 259.194 327.531 265.333C328.327 266.207 328.916 267.047 329.565 267.999C333.349 273.531 334.899 280.327 330.942 286.275C329.94 287.782 327.462 290.076 325.081 291.366C325.661 292.05 326.423 292.11 327.063 292.509C336.872 298.725 338.838 312.101 337.47 322.749C336.604 329.468 334.821 334.896 332.033 341.017C331.808 341.519 331.6 341.926 331.332 342.445C328.293 348.203 324.475 353.44 319.67 357.873C314.397 362.739 307.03 366.99 299.68 366.583L299.506 368.08C299.394 369.059 299.056 370.054 299.437 371.033C299.818 372.011 299.429 372.106 299.463 372.652L299.602 374.885C299.714 376.677 300.156 379.145 298.753 380.625C296.069 383.456 292.875 385.569 289.187 386.815C284.97 388.235 281.222 388.677 276.867 387.707C274.884 387.266 272.893 386.599 271.352 385.326C270.002 384.218 269.586 382.755 269.603 381.127C269.621 379.5 269.733 377.967 270.296 376.383C270.53 375.725 270.486 374.773 271.084 374.314C271.499 373.993 271.742 373.708 272.036 373.266L273.447 371.102C273.724 371.162 273.82 371.708 274.071 371.803C275.066 372.106 276.096 371.63 277.127 372.071C276.962 372.712 276.659 373.673 276.157 374.002C275.283 374.279 271.205 373.898 271.508 375.673C274.408 375.128 277.257 375.344 280.062 376.227C282.867 377.11 287.576 379.378 288.598 383.595C289.291 383.43 289.793 383.24 290.373 382.937C290.061 379.335 286.226 376.643 282.919 375.604C283.161 374.66 283.663 373.942 284.33 373.284C288.442 374.461 291.022 375.301 294.208 378.14C294.225 379.119 293.94 379.846 294.113 380.798C294.39 380.547 295.385 380.244 295.394 379.716C295.429 377.076 296.052 374.513 298.035 372.66C298.468 372.262 298.805 371.76 298.433 371.162C296.762 372.219 295.593 373.699 294.857 375.552C294.303 375.491 293.792 375.154 293.637 374.617C295.654 374.132 294.39 372.764 297.593 370.678C297.905 370.479 298.32 370.349 298.286 369.872C297.662 370.15 295.056 371.855 295.334 370.487C295.611 369.119 297.498 369.812 298.364 368.539C298.745 367.985 298.615 367.128 298.407 366.522C297.281 367.137 296.424 367.847 295.221 367.976C295.005 368.002 294.961 367.518 295.039 367.388C295.325 366.92 296.251 366.99 296.771 366.349C289.299 364.427 284.183 361.362 280.841 354.081C280.313 354.28 279.862 354.436 279.386 354.202C278.339 353.692 277.352 353.163 276.382 352.531C275.967 352.263 275.612 351.917 275.612 351.354L275.638 344.411C275.638 344.151 276.365 344.082 276.486 344.263L276.521 351.492C277.205 351.899 279.689 353.743 280.148 353.328C280.512 353.008 279.914 351.943 279.724 351.371C279.075 351.276 278.676 350.86 278.486 350.506C278.105 349.822 278.711 349.285 278.901 348.826L277.975 343.121C267.517 344.549 254.911 342.61 246.522 336.143C244.228 334.377 242.116 332.316 241.163 329.693L240.332 327.407C239.882 326.169 239.994 322.516 240.254 321.122C240.514 319.728 240.401 320.412 240.124 320.195C240.497 319.866 240.453 319.356 240.54 318.819C241.025 315.59 241.466 312.412 242.756 309.382C244.046 306.352 243.414 309.668 243.44 309.954C243.561 311.261 244.418 312.542 245.7 312.845C246.981 313.148 246.141 312.179 245.899 312.066C245.068 311.676 244.315 311.018 244.367 310.109C245.293 310.447 245.838 310.949 246.721 311.053C247.189 310.153 248.15 309.573 248.661 308.837C248.868 307.806 248.271 306.577 248.366 305.478C249.492 305.746 250.435 306.958 251.604 307.071C252.643 307.174 253.777 306.681 254.859 306.698C257.162 306.724 259.621 304.292 259.543 301.789L259.301 294.032C259.292 293.721 259.431 293.487 259.673 293.444C259.915 293.4 260.184 293.565 260.193 293.876C260.27 296.673 260.513 299.331 260.418 302.179C260.314 305.131 257.855 307.512 254.885 307.642C252.089 307.763 249.63 308.767 248.011 310.88C246.314 313.088 245.717 315.884 246.609 318.533C247.916 322.412 251.587 324.516 255.543 324.316C267.335 323.736 277.681 314.343 277.395 302.473L277.179 293.712C277.17 293.34 277.308 293.167 277.655 293.167C278.001 293.167 278.018 293.366 278.036 293.677L278.278 299.227C278.443 302.984 278.122 306.508 276.746 310.153C278.858 309.763 280.503 309.036 282.512 308.404C282.416 309.694 282.165 310.949 281.854 312.23C280.494 311.711 279.308 312.326 279.031 313.546C278.772 314.715 279.577 315.875 280.797 315.979C282.018 316.083 282.901 315.053 282.936 313.737C283.256 313.849 283.429 314.066 283.724 314.256C284.408 313.417 284.676 312.438 284.849 311.304L287.576 293.773C291.152 292.024 293.827 289.236 295.844 285.834C296.225 285.193 296.416 284.63 296.156 283.842C293.637 275.142 283.577 271.479 275.681 275.176C270.486 277.609 269.067 282.656 270.556 287.955L265.612 290.734C263.889 289.53 262.14 288.388 260.478 286.959C262.158 281.574 260.729 276.492 255.942 273.549C250.583 270.25 243.483 270.406 238.661 274.7C237.198 276.293 235.588 278.25 235.51 280.535C236.964 284.699 240.072 287.955 243.726 290.206L246.02 309.876C240.955 307.685 236.627 304.335 233.276 300.058C232.272 298.526 231.198 297.201 230.488 295.53C229.96 294.275 232.471 293.054 229.926 284.284C228.289 278.639 227.502 272.882 227.761 267.003C227.796 266.224 228.489 265.878 229.155 265.843C240.029 265.229 251.102 260.631 260.253 254.9C260.868 254.519 261.327 254.485 261.941 254.952C271.482 262.121 282.226 267.454 294.113 269.497C298.814 270.311 303.446 270.432 308.233 270.051C308.986 269.99 309.341 271.098 309.315 271.687C309.047 277.886 307.584 284.604 306.346 290.812C306.528 290.846 307.125 290.742 307.281 290.509L308.926 281.929C309.567 278.579 309.956 275.28 310.181 271.895C310.363 269.202 308.606 271.246 309.099 265.947C314.943 268.899 320.683 273.445 322.284 279.747C323.834 285.842 319.497 288.942 319.479 289.427C319.462 289.911 319.748 289.617 319.878 289.66L323.652 291.063C329.314 288.595 333.184 283.254 332.267 276.873C331.868 274.068 330.795 271.549 329.254 269.176C324.12 261.281 314.778 255.982 305.783 253.532C304.987 251.619 303.757 250.147 302.718 248.398C302.138 247.42 302.363 245.983 301.853 244.901C302.944 244.563 303.593 244.277 304.173 243.55C303.281 243.533 302.528 243.827 301.55 244.078C300.528 240.641 299.091 237.369 296.502 234.919L294.329 232.858C295.654 231.187 296.727 229.43 297.23 227.101C295.983 228.702 294.883 230.529 293.671 232.52C287.845 228.694 281.395 229.04 275.317 231.966C275.118 230.728 274.919 229.733 274.512 228.72C274.2 230.01 274.356 231.127 274.651 232.339C273.646 232.867 272.772 233.352 271.828 234.001C271.387 231.256 270.919 228.737 270.036 226.148C269.993 228.841 270.382 231.551 271.266 234.373C267.993 236.867 265.309 239.784 262.842 243.264L257.647 227.525C258.651 226.244 259.647 225.144 260.859 224.157L264.365 231.715C264.478 231.949 264.79 231.958 264.92 231.88C265.049 231.802 265.101 231.568 265.049 231.343L263.197 222.088C267.958 218.209 273.439 215.621 279.438 214.504C281.897 214.045 284.226 214.14 286.737 214.547L286.451 223.872C286.442 224.157 286.633 224.348 286.823 224.356C287.014 224.365 287.195 224.209 287.273 223.941L289.853 215.257L289.888 215.275ZM283.265 353.717C278.469 341.372 281.62 326.238 287.299 314.784C291.827 305.659 298.926 297.123 308.207 292.612C311.211 291.149 314.207 290.5 317.661 290.136C308.476 288.673 299.247 294.967 293.394 301.504C284.572 311.356 279.412 324.446 278.824 337.632C278.503 344.722 280.01 352.834 284.555 358.401C285.559 359.639 286.65 360.843 288.07 361.509C285.94 359.025 284.399 356.678 283.265 353.709V353.717ZM321.557 354.765C326.631 349.363 330.509 343.025 333.167 336.091C336.734 326.792 338.292 316.317 335.712 306.594C334.795 303.14 333.392 300.015 331.15 297.253C327.981 293.34 323.358 291.115 318.259 291.149C308.891 291.227 300.294 297.85 294.658 304.88C288.13 313.018 283.949 322.793 282.39 333.121C281.516 338.948 281.542 344.662 283.083 350.298C283.983 353.605 285.325 356.661 287.403 359.319C291.308 364.323 297.377 366.6 303.61 365.457C310.597 364.176 316.744 359.89 321.557 354.765ZM281.733 318.031C282.339 317.919 282.693 317.408 282.529 316.958C281.248 317.503 279.906 317.364 278.919 316.542C277.932 315.719 277.603 314.577 277.819 313.304C278.036 312.031 278.425 311.676 278.417 310.793C277.551 310.837 277.005 311.07 276.278 311.27L274.651 314.655L276.841 313.979C276.98 316.603 279.153 318.507 281.741 318.04L281.733 318.031ZM277.369 341.614C277.733 341.571 277.949 341.441 277.941 341.181C277.932 340.922 277.958 340.671 277.568 340.722C270.036 341.675 262.418 340.939 255.284 338.324C248.695 335.909 242.756 331.528 240.575 324.619C240.124 324.619 240.678 327.173 240.609 327.018C243.466 333.286 249.397 337.208 255.769 339.407C262.729 341.813 270.071 342.48 277.369 341.623V341.614ZM288.598 362.063C288.537 361.752 288.382 361.63 288.156 361.57C288.26 361.83 288.442 361.925 288.598 362.063ZM275.577 373.145C275.854 373.119 275.897 372.755 275.811 372.747C275.412 372.695 272.746 372.496 273.231 373.353L275.586 373.145H275.577ZM298.468 373.457C296.996 375.024 296.234 377.006 296.398 379.024C298.45 377.231 299.255 376.141 298.468 373.457ZM293.074 381.43C293.039 380.573 293.463 379.378 293.1 378.599C292.736 377.82 291.81 377.335 291.161 376.92C289.178 375.647 287.048 374.885 284.806 374.245C284.52 374.167 284.139 375.076 284.382 375.171C287.611 376.513 290.555 378.885 291.247 382.469C291.87 382.14 292.546 381.915 293.083 381.422L293.074 381.43ZM280.945 381.474C281.404 380.625 281.871 379.881 282.477 379.63C283.083 379.378 284.235 379.214 284.867 379.725C286.2 380.79 286.641 382.573 286.321 384.192C286.797 384.235 287.273 384.08 287.732 383.854C287.429 382.062 286.382 380.686 285.005 379.586C284.295 379.023 283.594 378.729 282.789 378.296C279.49 376.521 275.629 375.881 271.932 376.426C271.369 376.513 270.928 376.859 271.092 377.413C271.898 376.617 273.309 376.643 273.975 377.604C274.642 378.565 274.685 379.24 274.737 380.071C275.222 378.998 275.984 378.14 277.092 377.863C279.248 377.327 280.668 379.664 280.945 381.456V381.474ZM273.716 381.387C273.932 380.123 273.768 377.881 272.607 377.725C271.447 377.569 270.997 379.413 271.101 379.863C271.361 380.963 272.616 381.655 273.716 381.387ZM270.538 381.958C270.616 386.192 278.027 387.3 281.248 387.309C287.421 387.335 293.36 384.807 297.714 380.513C298.459 379.777 298.866 378.842 298.823 377.924C298.312 378.227 298.078 378.746 297.619 379.179C293.221 383.3 287.481 385.655 281.438 385.811C277.88 385.82 272.72 384.928 270.556 381.958H270.538ZM279.932 383.24C280.269 381.543 279.542 378.816 277.828 378.695C276.14 378.573 275.213 380.755 275.187 382.261C276.382 383.508 278.278 383.915 279.932 383.24ZM285.438 383.759C285.611 382.642 285.403 381.768 284.841 380.98C284.278 380.192 283.499 379.967 282.694 380.599C281.888 381.231 281.126 382.608 281.75 383.378C282.555 384.357 284.33 383.941 285.429 383.768L285.438 383.759ZM280.685 383.655C279.101 385.196 274.694 384.261 274.261 382.114C273.352 382.512 272.616 382.279 271.681 381.967C272.789 383.162 274.226 383.621 275.724 384.183C277.837 384.737 279.984 384.989 282.243 384.807C281.681 384.46 281.187 384.192 280.685 383.647V383.655Z" fill="#5EEAD4"></path><path d="M285.049 213.5L287.612 214.236L287.499 220.305L289.196 214.911C289.36 215.041 289.75 215.101 289.888 215.283L287.309 223.967C287.231 224.235 287.083 224.391 286.858 224.382C286.633 224.374 286.477 224.183 286.486 223.898L286.772 214.573C284.27 214.166 281.932 214.071 279.473 214.53C273.474 215.647 267.994 218.235 263.232 222.114L265.085 231.369C265.128 231.585 265.085 231.819 264.955 231.906C264.825 231.992 264.513 231.975 264.401 231.741L260.894 224.183C259.682 225.17 258.678 226.27 257.682 227.551L262.877 243.29C265.336 239.81 268.028 236.893 271.301 234.399C270.409 231.577 270.028 228.867 270.071 226.174C270.954 228.763 271.422 231.282 271.863 234.027C272.807 233.378 273.682 232.893 274.686 232.365C274.4 231.153 274.236 230.036 274.547 228.746C274.954 229.759 275.145 230.746 275.352 231.992C281.43 229.057 287.88 228.72 293.706 232.546C294.919 230.555 296.018 228.728 297.265 227.127C296.763 229.464 295.689 231.213 294.364 232.884L296.537 234.945C299.126 237.386 300.555 240.667 301.585 244.104C302.563 243.853 303.308 243.55 304.208 243.576C303.628 244.295 302.979 244.589 301.888 244.927C302.399 246.009 302.174 247.446 302.754 248.424C303.792 250.173 305.022 251.645 305.818 253.558C314.814 256.008 324.164 261.307 329.289 269.203C330.441 270.898 331.904 274.094 332.302 276.899C333.211 283.28 329.341 288.621 323.688 291.089L319.913 289.686C319.783 289.634 319.515 289.591 319.515 289.453C319.523 288.959 323.861 285.868 322.32 279.773C320.718 273.471 314.978 268.917 309.134 265.973C308.641 271.272 310.398 269.228 310.216 271.921C309.991 275.306 309.602 278.605 308.961 281.955L307.316 290.535C307.16 290.768 306.563 290.872 306.381 290.838C307.619 284.622 309.082 277.912 309.351 271.713C309.377 271.124 309.022 270.016 308.268 270.077C303.481 270.467 298.858 270.337 294.148 269.523C282.261 267.48 271.517 262.147 261.977 254.978C252.436 247.81 260.894 254.545 260.288 254.926C251.137 260.658 240.064 265.255 229.19 265.869C228.524 265.904 227.831 266.25 227.796 267.029C227.537 272.908 228.316 278.665 229.961 284.31C232.506 293.08 229.987 294.301 230.524 295.556C231.234 297.236 232.307 298.56 233.311 300.084C236.662 304.361 240.991 307.711 246.055 309.902L243.761 290.232C240.108 287.981 236.991 284.726 235.545 280.561C235.623 278.276 237.233 276.319 238.696 274.726C243.519 270.441 250.618 270.276 255.977 273.575C260.773 276.527 262.202 281.6 260.513 286.985C262.184 288.414 263.933 289.556 265.647 290.76L270.591 287.981C269.102 282.682 270.513 277.644 275.716 275.202C283.603 271.505 293.672 275.168 296.191 283.868C296.442 284.665 296.252 285.219 295.879 285.86C293.854 289.262 291.178 292.05 287.612 293.799L284.884 311.33C284.711 312.464 284.443 313.434 283.759 314.282C283.465 314.092 283.3 313.875 282.971 313.763C282.945 315.088 282.045 316.109 280.833 316.005C279.621 315.901 278.807 314.741 279.067 313.572C279.344 312.352 280.53 311.737 281.889 312.257C282.201 310.975 282.452 309.72 282.547 308.43C280.547 309.062 278.893 309.789 276.781 310.179C278.157 306.543 278.478 303.01 278.313 299.253L278.071 293.703C278.054 293.392 277.932 293.193 277.69 293.193C277.344 293.193 277.205 293.366 277.214 293.738L277.43 302.499C277.716 314.369 267.37 323.762 255.579 324.342C251.622 324.533 247.951 322.438 246.644 318.559C245.752 315.901 246.35 313.105 248.047 310.906C249.674 308.793 252.124 307.789 254.921 307.668C257.89 307.538 260.358 305.157 260.453 302.205C260.548 299.357 260.306 296.699 260.228 293.903C260.219 293.591 259.89 293.444 259.708 293.47C259.526 293.496 259.327 293.747 259.336 294.058L259.578 301.816C259.656 304.318 257.206 306.75 254.895 306.724C252.583 306.698 252.678 307.201 251.639 307.097C250.471 306.984 249.527 305.763 248.401 305.504C248.306 306.603 248.904 307.833 248.696 308.863C248.194 309.599 247.224 310.179 246.757 311.079C245.873 310.975 245.328 310.473 244.402 310.135C244.35 311.044 245.094 311.702 245.934 312.092C246.774 312.482 245.96 312.923 245.735 312.871C244.454 312.568 243.597 311.287 243.475 309.98C243.354 308.672 242.913 309.131 242.791 309.408C241.501 312.447 241.06 315.624 240.575 318.845C240.09 322.066 240.532 319.884 240.159 320.221C239.995 320.247 239.839 320.308 239.683 320.369C239.683 320.152 239.605 319.91 239.571 319.685C238.947 320.031 238.644 320.481 238.125 320.897C238.774 318.308 238.532 315.823 237.787 313.295C236.03 307.313 231.415 302.716 225.277 301.088C226.307 300.352 227.277 299.313 228.489 299.158L231.311 298.803C231.329 298.681 231.095 298.058 230.809 298.075C226.195 298.387 221.433 298.249 217.087 296.508L215.546 289.409C216.031 289.695 215.962 290.258 216.195 290.708C218.862 295.963 224.914 297.764 230.558 297.746C230.463 297.149 230.151 296.82 229.918 296.37C228.506 293.608 231.9 294.162 229.199 284.777C227.771 279.808 226.948 274.891 226.879 269.523C220.948 273.384 214.975 279.644 215.208 287.184C214.698 286.336 214.654 285.505 214.447 284.578L211.78 272.423C215.667 266.64 222.057 262.45 228.229 259.463C228.809 259.186 229.182 258.857 229.121 258.233C229.736 258.078 230.091 257.723 230.325 257.151C229.632 259.688 228.905 262.225 228.853 265.03C240.333 264.337 250.834 259.748 260.384 253.861C260.981 253.489 261.864 253.835 262.392 254.234C268.002 258.381 273.907 261.947 280.382 264.605C289.282 268.259 298.581 270.112 308.268 269.159C308.563 260.666 306.052 253.628 300.641 247.29C298.39 244.624 295.784 242.52 292.91 240.598C282.633 233.733 272.478 243.871 267.067 252.026L256.972 251.013L255.657 247.784C255.423 247.204 255.111 246.849 254.453 246.797C253.085 246.693 252.341 245.515 252.548 244.182C252.756 242.849 253.328 242.563 253.96 241.767L250.774 236.91C251.059 236.806 251.137 236.312 251.163 236.061C252.618 238.26 254.202 240.399 255.544 242.797C255.769 243.204 256.695 243.022 256.972 242.996C256.462 241.697 255.579 240.693 255.405 239.213C256.635 240.269 257.137 241.715 258.011 242.987C258.297 243.403 259.094 243.316 259.639 243.29L257.925 236.693C259.145 238.892 259.769 241.143 260.687 243.386C260.92 243.663 261.604 243.671 262.08 243.585L256.912 227.75C255.821 227.447 254.799 227.283 253.639 227.092L253.665 229.975C253.665 230.252 253.622 230.529 253.397 230.581C253.172 230.633 252.929 230.581 252.791 230.347L250.973 227.317C250.609 227.793 250.67 228.564 250.289 228.763C249.908 228.962 249.934 228.78 249.856 228.607L248.774 226.322C247.44 226.079 246.151 225.889 244.869 225.794C244.696 225.395 244.358 225.239 244.696 224.798C245.986 225.084 247.328 225.291 248.722 225.395C248.895 225.413 249.033 224.954 249.302 225.058C249.501 225.672 249.518 226.426 250.072 227.006C250.479 226.434 250.306 225.43 250.921 225.179C251.536 224.928 251.354 225.854 251.406 226.131C251.605 227.127 252.228 227.863 252.73 228.642C252.99 227.906 252.514 226.798 252.903 226.33C253.293 225.863 253.397 226.157 253.657 226.209L257.068 226.876C258.089 225.655 259.102 224.607 260.28 223.473C259.803 222.781 257.345 221.733 257.535 221.067C257.726 220.4 261.708 221.473 262.626 221.499C264.427 220.045 266.219 218.824 268.21 217.69C272.34 215.344 281.136 212.383 285.032 213.508L285.049 213.5ZM263.336 227.361C263.258 225.482 262.712 223.975 262.392 222.322L259.76 221.872C260.306 222.486 261.059 222.755 261.431 223.395C262.202 224.694 262.539 226.157 263.336 227.361ZM263.656 247.022C264.435 247.108 264.859 246.399 265.188 245.94C269.387 240.096 275.785 233.672 283.265 232.72C287.958 232.122 292.486 234.079 295.551 237.628C298.615 241.178 298.442 242.182 299.516 244.754C299.845 245.489 300.719 246.052 301.377 246.676C300.806 243.567 299.654 240.84 298.079 238.278C294.243 232.036 287.031 229.239 279.95 231.144C272.651 233.109 267.136 238.416 262.946 244.632L255.215 243.741C254.903 243.308 254.765 242.953 254.384 242.555C253.908 243.126 253.492 243.671 253.38 244.364C253.267 245.057 253.786 245.922 254.626 246.009L263.656 247.022ZM292.598 239.377C294.512 240.546 296.122 241.801 297.957 243.299C296.953 240.858 295.585 238.546 293.481 236.754C290.763 234.442 287.309 233.109 283.724 233.499C276.339 234.313 269.838 240.736 265.734 246.589L267.015 250.563C272.521 242.537 282.642 233.3 292.598 239.377ZM265.137 247.411C264.427 247.853 263.873 247.87 263.215 247.801L256.263 247.056L257.535 250.182L266.253 251.056L265.137 247.403V247.411ZM274.565 276.864C271.05 279.271 270.054 283.626 271.387 287.401C271.76 287.167 272.019 287.054 272.149 286.881C272.495 286.414 270.262 281.072 274.565 276.864ZM244.064 289.331C244.41 289.522 244.999 289.124 245.112 288.821C241.198 286.483 238.393 283.15 236.93 278.847C236.151 279.695 236.264 280.639 236.74 281.505C238.48 284.708 240.783 287.513 244.064 289.331ZM292.564 288.933C293.629 287.678 294.659 286.431 295.36 284.925C295.602 284.414 295.239 283.704 294.936 283.271C293.204 287.193 290.148 290.301 286.425 292.361C287.006 294.422 291.871 289.73 292.555 288.933H292.564ZM253.18 291.877C253.856 290.552 253.457 288.985 252.375 288.085C251.752 287.565 250.947 287.435 250.15 287.782C249.354 288.128 249.155 288.543 248.982 289.288C248.73 290.362 249.042 291.548 249.847 292.327C250.349 292.812 250.981 293.071 251.683 292.959C252.193 292.881 252.851 292.552 253.198 291.877H253.18ZM284.123 292.803C285.845 291.937 286.209 289.704 285.049 288.31C284.33 287.444 283.153 287.331 282.253 287.989C280.971 288.924 280.677 290.777 281.629 292.076C282.581 293.374 283.213 293.271 284.131 292.803H284.123ZM247.899 308.828L245.536 289.911C245.25 289.73 244.973 289.929 244.809 290.067C244.644 290.206 244.618 290.457 244.653 290.768L246.921 309.78C247.25 309.711 247.96 309.322 247.899 308.828ZM283.733 313.044L286.702 293.998C286.763 293.6 286.122 293.236 285.811 293.435L282.876 311.417C282.815 311.78 282.659 312.265 282.85 312.49C283.04 312.715 283.265 312.992 283.733 313.044ZM280.556 312.958C279.828 313.261 279.673 313.997 279.967 314.559C280.227 315.044 280.772 315.321 281.395 315.062C281.872 314.862 282.235 314.196 281.975 313.607C281.785 313.166 281.179 312.698 280.547 312.958H280.556Z" fill="#042F2E"></path><path d="M253.357 241.726C252.818 242.385 252.222 243.105 252.071 244.098C251.977 244.716 252.147 245.463 252.525 246.07C252.91 246.687 253.55 247.22 254.432 247.287C254.763 247.312 254.946 247.347 255.047 247.38C255.056 247.383 255.064 247.387 255.071 247.389C255.074 247.407 255.08 247.431 255.085 247.466C255.101 247.576 255.127 247.757 255.21 247.962L255.211 247.964L256.526 251.193L256.64 251.471L256.939 251.502L267.034 252.514L267.335 252.545L267.501 252.294C270.183 248.245 274.025 243.74 278.434 241.099C282.819 238.473 287.715 237.708 292.649 241.005C295.499 242.911 298.065 244.985 300.276 247.604L300.278 247.606C305.514 253.73 307.986 260.522 307.797 268.692C298.364 269.545 289.295 267.717 280.59 264.135C274.554 261.652 269.019 258.389 263.756 254.59L262.707 253.823C262.395 253.592 261.981 253.373 261.545 253.264C261.168 253.171 260.718 253.148 260.307 253.336L260.138 253.427C250.787 259.198 240.54 263.695 229.387 264.483C229.507 261.966 230.166 259.646 230.823 257.276C230.941 256.851 231.126 256.423 231.342 255.965C231.552 255.518 231.802 255.025 232.014 254.524L232.013 254.523C235.537 246.246 242.38 240.694 250.603 237.527L253.357 241.726Z" fill="#042F2E" stroke="#5EEAD4"></path><path d="M229.112 258.216C229.181 258.839 228.8 259.16 228.22 259.445C222.047 262.441 215.667 266.631 211.771 272.406L214.437 284.561C214.645 285.487 214.688 286.327 215.199 287.167C214.965 279.626 220.939 273.367 226.869 269.505C226.939 274.873 227.761 279.791 229.19 284.76C231.891 294.136 228.497 293.591 229.908 296.353C231.319 299.114 230.454 297.132 230.549 297.729C224.913 297.746 218.861 295.946 216.186 290.691C213.511 285.435 216.022 289.678 215.537 289.392L217.078 296.491C221.424 298.231 226.194 298.37 230.8 298.058C231.077 298.041 231.311 298.655 231.302 298.785L228.48 299.14C227.259 299.296 226.289 300.335 225.268 301.071C231.406 302.699 236.029 307.296 237.778 313.278C238.523 315.806 238.765 318.291 238.116 320.879C238.635 320.464 238.938 320.022 239.561 319.667C239.605 319.892 239.674 320.135 239.674 320.351C239.7 321.148 238.514 321.546 237.423 322.637C235.553 324.498 233.034 325.477 231.025 327.139C229.017 328.801 227.623 330.42 224.982 331.043L226.289 337.017L234.194 372.297C234.384 373.162 234.601 373.665 234.124 374.487C233.648 375.309 233.207 375.405 232.393 375.638C231.709 375.829 230.151 375.535 229.926 374.53L220.298 331.762C216.783 331.736 213.684 330.463 211.225 328.117C210.394 327.321 209.866 326.351 209.104 325.459C206.394 321.009 206.464 315.702 209.087 311.192C210.334 309.053 212.186 307.547 214.403 306.3L211.823 294.69L209.753 292.552C208.654 291.418 207.892 289.946 207.364 288.388C206.109 284.699 206.559 280.795 207.97 277.193L205.546 265.765C205.78 265.722 206.031 265.696 206.273 265.809C206.516 265.921 206.481 266.19 206.55 266.519L210.524 284.682L216.376 311.235C217.64 311.469 218.567 312.031 219.736 312.863L209.295 265.324C209.303 265.03 210.048 264.96 210.143 264.926L211.537 271.133C216.039 265.454 221.026 262.077 227.216 258.943C227.856 258.614 228.462 258.355 229.086 258.199L229.112 258.216ZM211.424 293.115L208.394 278.986C207.961 279.505 207.996 280.085 207.849 280.717C206.819 285.176 208.1 289.963 211.424 293.115ZM223.216 301.036C224.419 300.508 225.398 299.885 226.506 299.097C223.372 299.028 220.411 298.612 217.32 297.573L218.679 303.634C220.212 302.673 221.519 301.66 223.225 301.036H223.216ZM231.12 325.303C234.635 317.858 227.943 306.3 219.147 305.711L221.078 314.611C223.432 317.91 224.064 321.754 223.909 325.728C223.753 329.701 224.636 328.663 224.818 330.16C226.982 329.719 230.393 326.862 231.129 325.303H231.12ZM218.636 319.07C219.424 318.187 220.394 317.719 221.614 317.667C221.64 317.399 221.597 317.07 221.259 316.888C219.848 318.265 217.216 318.551 215.796 317.053C214.377 315.555 215.156 313.564 216.48 312.317C215.649 311.624 213.883 312.611 213.848 311.763C213.814 310.915 213.935 311.321 214.264 311.27L215.433 311.096L214.602 307.166C210.879 309.226 208.576 312.759 208.065 317.018C207.615 320.819 209.07 324.533 211.788 327.251C213.511 328.974 215.693 330.359 218.134 330.507C218.688 330.541 219.32 329.883 220.065 329.857C219.104 329.078 218.472 328.567 218.342 327.65C218.212 326.732 218.558 325.676 219.459 325.061C221.052 323.961 222.679 324.723 222.948 324.498C223.216 324.273 223.025 324.195 222.948 324.126C222.757 323.944 221.632 324.472 220.151 324.083C219.069 323.797 218.255 323.009 217.987 322.187C217.597 320.975 217.866 319.91 218.627 319.061L218.636 319.07ZM220.878 315.979C220.203 314.707 219.415 313.815 218.454 313.01C218.099 312.845 217.84 312.594 217.467 312.724C216.602 313.027 215.147 315.321 216.61 316.577C218.073 317.832 219.857 317.252 220.887 315.979H220.878ZM223.043 323.044C222.887 321.39 222.593 319.996 222.099 318.499C220.974 318.473 219.9 318.914 219.233 319.78C218.567 320.646 218.593 321.07 218.835 321.84C219.32 323.364 221.623 323.719 223.043 323.035V323.044ZM221.268 329.087C222.264 328.091 222.731 326.853 222.913 325.511C221.623 325.122 219.346 325.425 219.242 327.009C219.147 328.455 220.913 329.442 221.277 329.087H221.268ZM230.765 374.271C231.129 374.894 232.142 374.851 232.531 374.651C232.921 374.452 233.7 374.141 233.544 373.465L223.311 327.624C222.757 328.922 222.021 329.788 220.956 330.541L230.765 374.271Z" fill="#5EEAD4"></path><path d="M273.448 371.093C273.603 370.851 273.456 370.409 273.768 370.227C274.132 370.842 274.729 371.137 275.508 371.145C280.426 371.171 283.542 372.106 288.148 373.535C292.754 374.963 294.364 374.764 294.468 372.47C294.555 370.695 294.468 368.963 294.131 367.241C293.992 366.522 293.386 366.141 292.641 366.228C290.304 366.505 287.88 366.063 286.131 364.462C283.629 362.185 283.482 358.081 279.188 356.86C277.015 356.246 275.023 357.155 274.227 359.267C273.924 360.064 273.396 361.553 272.495 361.605C272.478 361.336 272.495 360.938 272.417 360.687C272.92 360.54 273.11 360.081 273.032 359.527L272.391 354.878C273.188 354.228 274.348 353.769 274.816 352.904C275.058 350.237 274.859 347.614 274.945 344.947C274.963 344.515 274.755 344.307 274.391 344.376C274.028 344.445 274.045 344.584 274.045 344.939L274.002 352.601C272.85 353.51 271.785 354.332 270.539 355.094L267.119 352.41L267.067 344.411C267.067 344.142 266.201 344.082 266.193 344.289L266.21 355.319C265.05 356.497 262.513 356.15 263.44 357.397C264.626 357.276 265.76 356.609 266.833 356.072C266.946 356.722 267.084 357.657 266.6 358.167C265.275 359.579 262.808 359.025 263.63 360.462C264.539 360.254 265.474 359.882 266.297 359.483C267.119 360.254 264.478 360.661 263.491 362.47C262.505 364.28 262.808 363.994 261.95 364.288C261.985 364.713 262.487 364.86 262.764 364.842C263.041 364.825 263.05 364.436 263.223 364.141C263.976 362.869 265.119 361.708 266.565 361.085C266.807 361.024 266.825 361.795 266.591 361.977C264.401 363.622 263.405 366.115 263.258 368.842C263.111 371.569 262.305 369.708 261.924 369.829L262.089 367.57C260.816 366.427 259.414 365.241 257.734 364.687L251.795 362.73C251.18 362.929 250.522 363.682 250.358 364.306C253.492 365.838 256.886 368.479 257.137 372.072C256.297 372.418 255.475 372.617 254.617 372.773C254.107 367.596 246.15 363.76 242.133 363.622L240.107 363.552C240.939 361.648 243.146 362.739 244.116 362.375C244.765 362.133 245.207 361.388 245.64 360.895C245.137 360.237 244.358 360.479 243.778 360.107C243.198 359.735 243.501 359.362 243.146 359.328C243.207 358.99 243.345 358.652 243.657 358.488C243.752 359.154 244.67 359.639 245.302 359.812C249.033 360.834 252.54 362.02 256.159 363.31C257.691 363.856 262.323 364.704 262.582 362.081C262.842 359.457 262.799 356.817 262.028 356.28C261.024 355.57 258.747 356.843 255.561 355.562C253.405 354.696 252.696 353.181 251.691 351.164L254.912 349.83C255.63 349.536 255.968 348.861 255.977 348.09L256.02 342.541C256.02 342.255 255.899 342.03 255.76 341.943C255.622 341.857 255.12 341.735 255.12 341.891L255.016 348.817L251.483 350.246L248.886 346.67L248.826 338.939C248.826 338.653 248.237 338.402 248.003 338.411L247.977 346.35C247.977 346.93 248.436 347.32 248.54 347.926C246.964 347.138 244.99 346.61 244.047 348.488C243.103 350.367 243.311 350.159 242.835 350.861L242.93 348.558C244.055 347.389 243.449 346.705 243.441 345.043L246.436 344.246C247.051 344.082 247.51 343.571 247.51 342.887L247.492 338.073C247.492 337.71 246.938 337.511 246.644 337.407L246.601 343.225C245.64 343.554 244.722 343.822 243.596 344.03C242.843 342.705 242.237 341.363 241.631 339.926L241.571 332.022L241.042 331.087C241.094 330.645 240.904 330.082 241.233 329.736C242.185 332.359 244.298 334.42 246.592 336.186C254.981 342.662 267.586 344.592 278.045 343.164L278.971 348.869C278.772 349.328 278.175 349.856 278.556 350.549C278.937 351.241 279.144 351.319 279.794 351.415C279.984 351.986 280.581 353.051 280.218 353.371C279.75 353.787 277.274 351.943 276.59 351.536L276.556 344.307C276.435 344.116 275.707 344.194 275.707 344.454L275.681 351.397C275.681 351.951 276.036 352.298 276.452 352.575C277.421 353.207 278.408 353.735 279.456 354.246C279.932 354.479 280.391 354.324 280.91 354.124C284.261 361.405 289.378 364.47 296.84 366.392C296.321 367.033 295.395 366.964 295.109 367.431C294.823 367.899 295.074 368.037 295.291 368.02C296.485 367.89 297.351 367.18 298.477 366.565C298.684 367.171 298.806 368.028 298.433 368.583C297.568 369.855 295.507 370.028 295.403 370.53C295.126 371.89 297.732 370.184 298.355 369.916C298.39 370.392 297.975 370.522 297.663 370.721C294.451 372.807 295.715 374.175 293.706 374.66C293.862 375.197 294.364 375.535 294.927 375.595C295.654 373.742 296.823 372.271 298.503 371.206C298.875 371.803 298.529 372.297 298.104 372.704C296.122 374.556 295.498 377.119 295.464 379.759C295.429 382.4 294.451 380.591 294.182 380.842C294.009 379.889 294.295 379.162 294.278 378.184C291.092 375.344 288.512 374.504 284.399 373.327C283.733 373.976 283.239 374.703 282.988 375.647C286.287 376.677 290.122 379.378 290.442 382.98C289.862 383.283 289.36 383.474 288.668 383.638C287.646 379.422 284.019 377.5 280.131 376.27C276.244 375.041 274.469 375.171 271.578 375.716C271.275 373.942 275.361 374.322 276.227 374.045C276.729 373.716 277.023 372.755 277.196 372.115C276.166 371.682 275.136 372.149 274.14 371.846C273.889 371.76 273.794 371.206 273.517 371.145L273.448 371.093ZM244.454 339.467C244.142 339.043 243.397 338.818 243.06 339.294C242.514 340.056 242.809 341.069 243.397 341.709C243.64 341.978 243.925 342.082 244.237 342.021C245.224 341.831 245.034 340.246 244.454 339.467ZM265.362 344.151C265.266 343.952 264.6 343.908 264.548 344.108L264.461 352.15C263.214 353.016 262.02 353.709 260.704 354.254L257.587 351.172L257.509 342.48C257.232 342.341 256.886 342.238 256.652 342.393V350.99C256.652 351.588 257.137 352.012 257.518 352.376L259.803 354.583C260.28 355.042 260.825 355.189 261.44 354.904C262.608 354.367 263.708 353.752 264.799 353.068C265.89 352.384 265.387 352.341 265.387 351.839L265.362 344.151ZM253.042 346.376C252.756 345.501 252.029 344.844 251.154 345.181C250.635 345.38 250.436 345.96 250.41 346.402C250.384 346.843 250.696 347.328 251.103 347.701C251.509 348.073 252.237 348.272 252.721 347.874C253.206 347.475 253.232 346.956 253.042 346.376ZM262.028 351.614C262.591 350.99 262.349 350.107 261.907 349.631C261.466 349.155 260.6 348.869 259.994 349.363C259.388 349.856 259.414 350.921 259.994 351.518C260.574 352.116 261.396 352.315 262.028 351.622V351.614ZM270.85 352.956C271.595 352.8 272.019 352.194 272.036 351.588C272.054 350.982 271.699 350.324 270.998 350.159C270.296 349.995 269.664 350.211 269.292 350.722C268.92 351.233 268.972 351.813 269.344 352.358C269.716 352.904 270.14 353.094 270.85 352.947V352.956Z" fill="#042F2E"></path><path d="M200.213 221.993C200.611 222.573 202.014 225.897 202.438 226.85L208.767 241.1L212.213 249.229C212.516 249.939 210.161 251.151 208.767 253.965C208.299 254.9 208.161 255.783 208.507 256.787L210.498 262.553C210.723 263.211 210.455 263.627 210.031 264.051C208.516 264.865 206.957 265.021 205.373 264.908L204.429 264.328L203.997 256.753C203.893 254.909 199.711 253.073 198.222 252.467C196.733 251.861 198.023 251.541 198.031 251.221L198.187 244.104L198.681 232.538L198.837 227.352C198.863 226.495 199.07 225.646 198.984 224.755C198.897 223.863 199.027 222.867 199.131 221.984L205.797 256.381C205.867 256.753 206.066 256.796 206.334 256.779C206.602 256.762 206.637 256.545 206.576 256.225L200.282 222.928C200.205 222.521 200.187 222.278 200.205 221.993H200.213Z" fill="#5EEAD4"></path><path d="M273.767 370.227C273.309 367.353 272.703 364.496 272.486 361.596C273.395 361.544 273.923 360.055 274.218 359.258C275.014 357.154 277.005 356.237 279.178 356.851C283.473 358.072 283.62 362.176 286.122 364.453C287.879 366.054 290.295 366.496 292.632 366.219C293.385 366.132 293.983 366.513 294.121 367.232C294.459 368.955 294.546 370.686 294.459 372.461C294.346 374.764 289.671 374.002 288.139 373.526C283.533 372.097 280.416 371.171 275.499 371.136C270.581 371.102 274.122 370.833 273.759 370.219L273.767 370.227Z" fill="#5EEAD4"></path><path d="M285.048 213.5C281.152 212.374 272.356 215.335 268.227 217.681C264.097 220.027 264.443 220.036 262.642 221.491C261.725 221.465 257.777 220.279 257.552 221.058C257.327 221.837 259.82 222.772 260.296 223.465C259.119 224.599 258.115 225.655 257.084 226.867L253.673 226.2C253.413 226.148 253.084 226.131 252.92 226.322C252.53 226.789 253.007 227.889 252.747 228.633C252.245 227.845 251.621 227.118 251.422 226.122C251.223 225.127 251.492 224.936 250.937 225.17C250.383 225.404 250.487 226.434 250.089 226.997C249.535 226.417 249.518 225.664 249.318 225.049C249.059 224.945 248.92 225.404 248.738 225.387C247.345 225.283 246.011 225.075 244.713 224.789C245.301 224.001 247.171 221.534 248.141 221.612C249.673 221.742 251.214 221.794 252.833 221.811C253.033 221.811 253.145 221.638 253.154 221.543C253.162 221.447 253.154 221.179 253.007 221.11C252.011 220.599 251.059 220.088 250.046 219.733C255.941 213.621 269.335 210.019 278.217 211.846L284.814 213.197C284.962 213.231 285.065 213.439 285.048 213.5Z" fill="#5EEAD4"></path><path d="M272.4 360.678C272.01 359.388 271.837 356.176 271.526 355.951C270.894 355.492 270.885 356.497 269.586 355.501C268.816 354.912 268.149 354.22 267.24 353.908C266.954 354.575 267.448 354.93 267.578 355.423C268.218 357.804 266.928 358.964 267.543 360.349C268.158 361.735 267.586 361.613 267.578 362.271L267.508 368.141C267.482 370.158 263.734 372.427 262.149 373.31C258.842 375.171 255.232 376.245 251.44 376.669C248.358 377.015 243.882 376.322 241.155 374.92C239.891 374.271 238.48 373.37 237.934 371.976C236.939 369.466 237.389 366.505 238.739 364.254C239.138 362.938 239.943 362.064 241.086 361.406C242.228 360.748 242.549 359.561 243.12 359.302C243.475 359.345 243.484 359.908 243.752 360.081C244.332 360.453 245.111 360.211 245.613 360.869C245.189 361.362 244.739 362.107 244.09 362.349C243.12 362.713 240.912 361.622 240.081 363.527L242.107 363.596C246.124 363.734 254.081 367.561 254.591 372.747C255.448 372.591 256.271 372.392 257.111 372.046C256.868 368.453 253.475 365.821 250.332 364.28C250.496 363.656 251.154 362.903 251.769 362.704L257.708 364.661C259.388 365.215 260.79 366.401 262.063 367.544L261.898 369.803C262.279 369.682 263.197 369.405 263.232 368.816C263.379 366.089 264.374 363.596 266.565 361.951C266.807 361.769 266.781 360.999 266.539 361.059C265.093 361.683 263.95 362.843 263.197 364.115C263.024 364.41 263.093 364.791 262.738 364.817C262.383 364.843 261.968 364.687 261.924 364.263C262.781 363.968 263.076 363.172 263.465 362.444C264.444 360.635 267.084 360.228 266.27 359.458C265.439 359.856 264.513 360.228 263.604 360.436C262.79 358.999 265.249 359.553 266.573 358.142C267.898 356.73 266.92 356.696 266.807 356.047C265.734 356.575 264.6 357.25 263.413 357.371C262.487 356.124 265.024 356.471 266.184 355.293L266.167 344.264C266.167 344.056 267.032 344.116 267.041 344.385L267.093 352.384L270.513 355.068C271.751 354.306 272.824 353.484 273.976 352.575L274.019 344.913C274.019 344.549 274.114 344.393 274.365 344.35C274.72 344.281 274.937 344.489 274.919 344.922C274.824 347.597 275.032 350.211 274.789 352.878C274.322 353.744 273.162 354.202 272.365 354.852L273.006 359.501C273.084 360.055 272.893 360.514 272.391 360.661L272.4 360.678ZM244.012 361.267C243.432 360.929 242.834 360.869 242.419 361.388C242.99 361.509 243.579 361.674 244.012 361.267ZM266.496 363.232C265.015 364.557 264.288 366.427 264.279 368.288C266.513 366.669 266.98 365.951 266.496 363.232ZM260.963 370.357L261.085 367.864C259.63 366.522 257.994 365.578 256.167 364.946L252.444 363.665C252.15 363.561 251.83 363.596 251.708 364.029C254.825 365.795 257.284 367.899 258.011 371.647C259.093 371.336 259.985 370.894 260.955 370.349L260.963 370.357ZM250.73 368.6C252.072 369.777 252.28 371.665 251.83 373.188C252.566 373.18 253.076 373.145 253.734 372.929C253.137 367.613 244.384 363.752 239.631 364.566C241.345 365.05 241.12 365.795 241.614 367.284C242.176 366.643 242.774 365.985 243.657 365.89C244.895 365.76 245.873 366.617 246.375 367.682C246.67 368.288 246.635 368.946 247.016 369.5C247.709 368.141 249.509 367.544 250.721 368.6H250.73ZM240.436 368.894C240.731 367.985 240.583 365.656 239.761 365.552C238.939 365.449 238.826 367.327 238.861 367.622C238.939 368.34 239.631 368.955 240.436 368.903V368.894ZM245.804 371.379C246.012 370.124 246.003 369.223 245.648 368.228C245.302 367.345 244.462 366.488 243.406 366.912C242.367 367.327 241.406 368.964 241.917 370.089C242.428 371.215 244.497 371.725 245.795 371.379H245.804ZM245.553 375.405C252.159 376.764 259.968 374.409 265.102 370.228C265.967 369.526 266.773 368.669 266.66 367.423C264.954 369.111 263.128 370.314 261.015 371.344C255.223 374.167 248.687 375.344 242.505 373.076C240.912 372.487 239.622 371.621 238.471 370.427C238.471 373.621 243.233 374.937 245.553 375.413V375.405ZM251.128 372.556C251.379 371.128 250.713 369.093 249.44 368.99C248.176 368.886 247.319 370.409 247.319 371.587C247.319 372.764 250.193 372.79 251.128 372.565V372.556ZM246.367 372.141C244.419 372.981 241.319 371.976 240.869 369.829C240.099 369.977 239.51 369.847 238.999 369.353C240.177 371.968 245.215 373.249 247.804 373.249C247.215 373.154 246.852 372.479 246.367 372.141Z" fill="#5EEAD4"></path><path d="M243.631 358.453L242.817 352.696L242.8 350.817C243.276 350.116 243.596 349.276 244.012 348.445C244.964 346.566 246.929 347.086 248.505 347.882C248.401 347.276 247.942 346.887 247.942 346.307L247.968 338.368C248.202 338.359 248.791 338.601 248.791 338.896L248.851 346.627L251.449 350.203L254.981 348.774L255.085 341.848C255.085 341.692 255.596 341.813 255.726 341.9C255.855 341.987 255.985 342.212 255.985 342.497L255.942 348.047C255.942 348.817 255.596 349.493 254.877 349.787L251.656 351.12C252.652 353.137 253.371 354.653 255.526 355.518C258.712 356.8 260.981 355.527 261.994 356.237C262.764 356.774 262.66 360.929 262.548 362.037C262.288 364.652 257.656 363.804 256.124 363.267C252.505 361.985 248.999 360.791 245.267 359.769C244.635 359.596 243.709 359.111 243.622 358.445L243.631 358.453Z" fill="#5EEAD4"></path><path d="M210.039 264.051C210.109 264.337 210.1 264.649 210.169 264.934C210.074 264.969 209.33 265.038 209.321 265.333L219.762 312.871C218.593 312.031 217.667 311.477 216.403 311.244L210.55 284.691L206.576 266.527C206.507 266.198 206.542 265.93 206.299 265.817C206.057 265.705 205.797 265.731 205.572 265.774C205.512 265.488 205.425 265.203 205.39 264.917C206.975 265.021 208.524 264.874 210.048 264.06L210.039 264.051Z" fill="#042F2E"></path><path d="M251.181 236.053C249.986 234.243 248.93 232.312 247.709 230.416L245.787 227.464C245.406 226.884 245.129 226.347 244.886 225.785C246.168 225.88 247.466 226.07 248.791 226.313L249.873 228.598C249.951 228.763 250.185 228.815 250.306 228.754C250.696 228.555 250.635 227.785 250.99 227.308L252.808 230.339C252.947 230.572 253.206 230.624 253.414 230.572C253.622 230.52 253.683 230.243 253.683 229.966L253.657 227.083C254.817 227.274 255.83 227.438 256.929 227.741L262.098 243.576C261.622 243.663 260.929 243.654 260.704 243.377C259.786 241.126 259.163 238.884 257.942 236.685L259.656 243.282C259.111 243.316 258.314 243.394 258.029 242.979C257.154 241.706 256.652 240.26 255.423 239.204C255.596 240.684 256.488 241.689 256.99 242.987C256.721 243.013 255.795 243.195 255.561 242.788C254.219 240.39 252.644 238.252 251.181 236.053ZM255.423 239.048C255.423 238.996 255.388 238.961 255.336 238.961C255.284 238.961 255.25 238.996 255.25 239.048C255.25 239.1 255.284 239.135 255.336 239.135C255.388 239.135 255.423 239.1 255.423 239.048Z" fill="#5EEAD4"></path><path d="M200.213 221.993C200.196 222.279 200.213 222.521 200.291 222.928L206.594 256.234C206.654 256.554 206.516 256.779 206.351 256.788C206.083 256.805 205.884 256.762 205.815 256.389L199.148 221.993C199.2 221.551 199.278 221.482 199.754 221.43C200.274 221.37 200.049 221.759 200.213 221.993Z" fill="#042F2E"></path><path d="M241.007 331.043L241.535 331.978L241.596 339.883C242.202 341.32 242.817 342.662 243.561 343.986C244.687 343.779 245.605 343.51 246.566 343.181L246.609 337.363C246.895 337.467 247.457 337.666 247.457 338.03L247.475 342.844C247.475 343.527 247.024 344.038 246.401 344.203L243.406 344.999C243.406 346.662 244.02 347.345 242.895 348.514C242.955 346.947 242.713 345.268 242.306 343.666C241.899 342.064 240.791 341.294 240.782 339.891L240.722 331.234C240.722 331.078 240.791 330.974 240.878 330.983C240.964 330.991 240.964 331.009 241.016 331.035L241.007 331.043Z" fill="#5EEAD4"></path><path d="M305.135 233.092C304.442 233.403 301.983 235.94 301.473 235.698C300.962 235.455 301.161 235.343 301.282 235.152L303.741 230.979C303.949 230.624 304.156 230.321 304.079 229.949C304.511 230.979 304.762 232.061 305.135 233.1V233.092ZM304.555 232.321C304.338 232.113 304.182 232.113 303.975 232.113C303.776 232.494 303.559 232.78 303.447 233.213C303.914 233.014 304.2 232.693 304.555 232.321Z" fill="#042F2E"></path><path d="M250.055 219.733C251.068 220.088 252.011 220.599 253.016 221.11C254.02 221.621 253.172 221.447 253.163 221.543C253.154 221.638 253.05 221.811 252.843 221.811C251.224 221.794 249.683 221.742 248.15 221.612C248.375 221.084 248.895 220.668 249.405 220.443C249.518 221.058 250.245 221.049 250.756 220.859C250.297 220.729 249.994 220.564 249.405 220.443C249.397 220.045 249.856 219.95 250.063 219.733H250.055Z" fill="#042F2E"></path><path d="M289.195 214.902L287.499 220.296L287.611 214.227C288.157 214.383 288.763 214.565 289.195 214.894V214.902Z" fill="#5EEAD4"></path><path d="M321.557 354.765C316.752 359.891 310.596 364.176 303.61 365.457C297.376 366.6 291.307 364.323 287.403 359.319C285.325 356.661 283.983 353.596 283.083 350.298C281.542 344.653 281.516 338.948 282.39 333.121C283.948 322.802 288.13 313.019 294.658 304.88C300.294 297.85 308.882 291.227 318.258 291.15C323.358 291.106 327.972 293.34 331.149 297.253C333.392 300.015 334.803 303.14 335.712 306.595C338.292 316.308 336.734 326.784 333.167 336.091C330.509 343.026 326.63 349.363 321.557 354.765ZM312.856 357.198C316.163 355.259 319.012 352.835 321.557 349.926C328.396 342.091 332.526 332.308 333.548 321.944C333.851 318.871 333.677 316.083 333.184 313.088C332.569 309.356 331.314 305.85 329.063 302.829C326.812 299.807 321.765 296.768 316.882 296.976C309.48 297.288 303.194 301.928 298.433 307.27C289.221 317.616 283.412 335.32 288.078 348.817C289.238 352.177 291.169 355.129 293.939 357.319C299.645 361.838 306.96 360.661 312.856 357.207V357.198Z" fill="#042F2E"></path><path d="M283.265 353.718C284.399 356.687 285.94 359.033 288.07 361.518C286.65 360.852 285.559 359.639 284.555 358.41C280.01 352.843 278.512 344.723 278.824 337.641C279.412 324.455 284.572 311.365 293.394 301.513C299.247 294.976 308.484 288.674 317.661 290.145C314.207 290.509 311.22 291.158 308.207 292.621C298.927 297.141 291.827 305.668 287.299 314.793C281.62 326.247 278.46 341.381 283.265 353.726V353.718Z" fill="#042F2E"></path><path d="M270.539 381.958C272.703 384.928 277.863 385.82 281.421 385.811C287.473 385.655 293.213 383.3 297.602 379.179C301.991 375.058 298.303 378.236 298.805 377.924C298.849 378.85 298.442 379.777 297.697 380.513C293.351 384.815 287.412 387.343 281.231 387.309C278.01 387.291 270.599 386.192 270.521 381.958H270.539Z" fill="#042F2E"></path><path d="M277.37 341.614C270.08 342.471 262.73 341.804 255.769 339.398C249.397 337.199 243.467 333.277 240.61 327.009C240.679 327.165 240.125 324.611 240.575 324.611C242.757 331.519 248.696 335.9 255.284 338.316C262.41 340.93 270.037 341.666 277.569 340.714C285.101 339.761 277.941 340.973 277.941 341.172C277.941 341.372 277.733 341.562 277.37 341.605V341.614Z" fill="#042F2E"></path><path d="M293.074 381.43C292.537 381.924 291.862 382.149 291.238 382.478C290.546 378.894 287.611 376.521 284.373 375.179C284.131 375.076 284.512 374.167 284.797 374.253C287.04 374.894 289.169 375.656 291.152 376.928C291.801 377.344 292.762 377.898 293.091 378.608C293.42 379.318 293.031 380.573 293.065 381.439L293.074 381.43Z" fill="#042F2E"></path><path d="M280.945 381.474C280.668 379.673 279.248 377.335 277.092 377.881C274.936 378.426 275.222 379.015 274.737 380.088C274.694 379.257 274.504 378.374 273.975 377.621C273.447 376.868 271.898 376.634 271.092 377.431C270.928 376.868 271.369 376.522 271.932 376.444C275.629 375.898 279.49 376.539 282.789 378.314C283.585 378.747 284.295 379.041 285.005 379.604C286.39 380.703 287.438 382.08 287.732 383.872C287.273 384.097 286.797 384.253 286.321 384.209C286.641 382.59 286.2 380.807 284.867 379.742C284.226 379.231 283.265 379.309 282.477 379.647C281.689 379.985 281.404 380.643 280.945 381.491V381.474Z" fill="#042F2E"></path><path d="M279.932 383.24C278.278 383.915 276.373 383.508 275.187 382.261C275.213 380.755 276.14 378.573 277.828 378.695C279.542 378.824 280.269 381.543 279.932 383.24Z" fill="#042F2E"></path><path d="M281.733 318.031C279.144 318.498 276.971 316.594 276.833 313.97L274.642 314.646L276.27 311.261C276.997 311.061 277.543 310.836 278.408 310.784C278.408 311.667 277.958 312.412 277.811 313.295C277.595 314.568 278.001 315.771 278.911 316.533C279.82 317.295 281.239 317.494 282.521 316.949C282.685 317.399 282.33 317.918 281.724 318.022L281.733 318.031Z" fill="#042F2E"></path><path d="M285.438 383.759C284.33 383.932 282.564 384.356 281.759 383.369C281.135 382.599 282.079 381.075 282.703 380.59C283.326 380.106 284.339 380.261 284.85 380.971C285.36 381.681 285.62 382.634 285.447 383.75L285.438 383.759Z" fill="#042F2E"></path><path d="M273.716 381.387C272.616 381.656 271.361 380.954 271.101 379.863C270.842 378.773 271.517 377.578 272.608 377.725C273.699 377.872 273.924 380.123 273.716 381.387Z" fill="#042F2E"></path><path d="M298.468 373.457C299.247 376.141 298.442 377.231 296.399 379.024C296.243 377.006 296.996 375.024 298.468 373.457Z" fill="#042F2E"></path><path d="M280.685 383.655C281.187 384.201 281.681 384.461 282.244 384.816C279.975 384.997 277.837 384.746 275.724 384.192C274.227 383.621 272.79 383.162 271.681 381.976C272.616 382.279 273.352 382.521 274.261 382.123C274.694 384.27 279.101 385.214 280.685 383.664V383.655Z" fill="#042F2E"></path><path d="M275.577 373.145L273.222 373.353C272.738 372.487 275.413 372.695 275.802 372.747C276.192 372.799 275.846 373.119 275.569 373.145H275.577Z" fill="#042F2E"></path><path d="M288.599 362.063C288.443 361.925 288.261 361.83 288.157 361.57C288.382 361.63 288.538 361.752 288.599 362.063Z" fill="#042F2E"></path><path d="M263.656 247.022L254.626 246.009C253.786 245.914 253.25 245.204 253.379 244.364C253.509 243.524 253.908 243.135 254.384 242.555C254.765 242.953 254.903 243.308 255.215 243.741L262.946 244.632C267.128 238.416 272.642 233.109 279.949 231.144C287.031 229.239 294.243 232.036 298.078 238.278C299.654 240.84 300.806 243.567 301.377 246.675C300.719 246.052 299.845 245.498 299.516 244.754C298.442 242.182 297.386 239.758 295.55 237.628C292.486 234.079 287.958 232.131 283.265 232.72C275.785 233.663 269.387 240.096 265.188 245.94C264.859 246.398 264.435 247.117 263.656 247.022Z" fill="#5EEAD4"></path><path d="M265.136 247.411L266.253 251.065L257.535 250.19L256.262 247.065L263.214 247.809C263.872 247.879 264.426 247.853 265.136 247.42V247.411Z" fill="#5EEAD4"></path><path d="M283.733 313.044C283.265 312.984 283.014 312.689 282.849 312.49C282.685 312.291 282.815 311.78 282.875 311.417L285.81 293.435C286.122 293.236 286.763 293.599 286.702 293.998L283.733 313.044Z" fill="#5EEAD4"></path><path d="M247.899 308.828C247.959 309.313 247.25 309.711 246.921 309.78L244.652 290.768C244.618 290.457 244.626 290.223 244.808 290.067C244.99 289.911 245.241 289.738 245.535 289.911L247.899 308.828Z" fill="#5EEAD4"></path><path d="M253.18 291.877C252.833 292.561 252.175 292.881 251.665 292.959C250.963 293.071 250.34 292.812 249.829 292.327C249.024 291.556 248.712 290.362 248.963 289.288C249.215 288.215 249.639 287.998 250.132 287.782C250.937 287.435 251.734 287.565 252.357 288.085C253.439 288.985 253.838 290.552 253.162 291.877H253.18Z" fill="#5EEAD4"></path><path d="M284.122 292.803C283.196 293.27 282.165 292.82 281.62 292.076C280.676 290.786 280.971 288.933 282.243 287.989C283.516 287.045 284.321 287.444 285.04 288.309C286.2 289.695 285.836 291.937 284.113 292.803H284.122Z" fill="#5EEAD4"></path><path d="M244.063 289.331C240.773 287.513 238.479 284.708 236.739 281.505C236.263 280.63 236.159 279.695 236.929 278.847C238.392 283.149 241.206 286.483 245.111 288.82C244.998 289.123 244.409 289.521 244.063 289.331Z" fill="#5EEAD4"></path><path d="M292.563 288.933C291.879 289.738 287.005 294.422 286.433 292.362C290.156 290.31 293.212 287.193 294.944 283.271C295.247 283.704 295.61 284.405 295.368 284.925C294.658 286.423 293.636 287.678 292.572 288.933H292.563Z" fill="#5EEAD4"></path><path d="M274.564 276.865C270.262 281.081 272.495 286.414 272.149 286.881C271.803 287.349 271.759 287.167 271.387 287.401C270.054 283.626 271.05 279.271 274.564 276.865Z" fill="#5EEAD4"></path><path d="M263.336 227.36C262.54 226.166 262.202 224.703 261.431 223.395C260.661 222.088 260.306 222.495 259.76 221.872L262.392 222.322C262.713 223.975 263.258 225.482 263.336 227.36Z" fill="#5EEAD4"></path><path d="M280.555 312.958C281.187 312.698 281.785 313.157 281.984 313.607C282.235 314.196 281.871 314.862 281.404 315.062C280.78 315.33 280.235 315.053 279.975 314.559C279.672 313.997 279.828 313.252 280.564 312.958H280.555Z" fill="#5EEAD4"></path><path d="M292.598 239.377C282.65 233.291 272.521 242.537 267.015 250.563L265.733 246.589C269.837 240.736 276.339 234.312 283.724 233.499C287.308 233.1 290.762 234.442 293.481 236.754C295.585 238.546 296.961 240.857 297.957 243.299C296.121 241.792 294.511 240.546 292.598 239.377Z" fill="#5EEAD4"></path><path d="M231.12 325.303C230.385 326.862 226.974 329.719 224.809 330.16C224.627 328.671 223.848 327.225 223.9 325.727C224.056 321.762 223.424 317.91 221.069 314.611L219.138 305.711C227.935 306.3 234.627 317.858 231.112 325.303H231.12Z" fill="#042F2E"></path><path d="M218.636 319.07C217.883 319.918 217.615 320.983 217.996 322.195C218.264 323.026 219.069 323.805 220.16 324.091C221.64 324.481 222.766 323.953 222.956 324.134C223.147 324.316 223.034 324.437 222.956 324.507C222.688 324.74 221.06 323.979 219.467 325.069C218.576 325.684 218.195 326.576 218.351 327.658C218.506 328.74 219.112 329.095 220.073 329.866C219.329 329.883 218.697 330.541 218.143 330.515C215.701 330.368 213.52 328.983 211.797 327.26C209.078 324.55 207.624 320.827 208.074 317.027C208.576 312.767 210.888 309.235 214.611 307.174L215.442 311.105L214.273 311.278C213.944 311.33 213.849 311.503 213.857 311.771C213.892 312.62 215.658 311.633 216.489 312.326C215.165 313.564 214.489 315.676 215.805 317.061C217.121 318.446 219.857 318.273 221.268 316.897C221.597 317.079 221.649 317.408 221.623 317.676C220.402 317.728 219.433 318.195 218.645 319.078L218.636 319.07Z" fill="#042F2E"></path><path d="M230.766 374.27L220.957 330.541C222.022 329.788 222.758 328.914 223.312 327.624L233.545 373.465C233.692 374.141 232.878 374.478 232.532 374.651C232.186 374.825 231.129 374.894 230.766 374.27Z" fill="#042F2E"></path><path d="M223.216 301.036C221.519 301.66 220.212 302.681 218.671 303.634L217.311 297.573C220.411 298.612 223.363 299.028 226.497 299.097C225.389 299.893 224.41 300.508 223.207 301.036H223.216Z" fill="#042F2E"></path><path d="M211.425 293.115C208.1 289.963 206.819 285.176 207.849 280.717C208.879 276.258 207.962 279.505 208.395 278.986L211.425 293.115Z" fill="#042F2E"></path><path d="M223.043 323.044C221.623 323.728 219.32 323.373 218.836 321.849C218.351 320.326 218.766 320.386 219.234 319.789C219.909 318.923 220.983 318.481 222.099 318.507C222.593 319.997 222.896 321.39 223.043 323.053V323.044Z" fill="#042F2E"></path><path d="M220.879 315.979C219.848 317.252 217.831 317.633 216.602 316.577C215.372 315.52 216.602 313.027 217.459 312.724C217.831 312.594 218.1 312.845 218.446 313.01C219.407 313.815 220.195 314.707 220.87 315.979H220.879Z" fill="#042F2E"></path><path d="M221.268 329.087C220.913 329.442 219.139 328.455 219.234 327.009C219.338 325.416 221.623 325.122 222.905 325.511C222.723 326.844 222.255 328.091 221.26 329.087H221.268Z" fill="#042F2E"></path><path d="M265.361 344.151L265.387 351.839C265.387 352.35 265.205 352.817 264.798 353.068C263.707 353.752 262.608 354.358 261.439 354.904C260.27 355.449 260.279 355.033 259.803 354.583L257.517 352.376C257.145 352.012 256.66 351.588 256.66 350.99V342.393C256.885 342.238 257.232 342.35 257.509 342.48L257.587 351.172L260.703 354.254C262.019 353.709 263.214 353.016 264.461 352.15L264.547 344.108C264.599 343.908 265.266 343.96 265.361 344.151Z" fill="#5EEAD4"></path><path d="M270.85 352.955C270.149 353.103 269.612 352.748 269.343 352.367C268.971 351.821 268.971 351.181 269.291 350.73C269.612 350.28 270.322 350.003 270.997 350.168C271.672 350.332 272.062 350.947 272.036 351.596C272.01 352.246 271.594 352.808 270.85 352.964V352.955Z" fill="#5EEAD4"></path><path d="M262.028 351.614C261.396 352.306 260.478 352.003 259.993 351.51C259.509 351.016 259.284 349.925 259.993 349.354C260.703 348.783 261.439 349.12 261.907 349.622C262.374 350.125 262.599 350.99 262.028 351.605V351.614Z" fill="#5EEAD4"></path><path d="M253.042 346.376C253.232 346.956 253.085 347.579 252.721 347.874C252.358 348.168 251.544 348.099 251.102 347.701C250.661 347.302 250.392 346.921 250.41 346.402C250.427 345.882 250.635 345.38 251.154 345.181C252.029 344.844 252.756 345.502 253.042 346.376Z" fill="#5EEAD4"></path><path d="M244.453 339.467C245.033 340.246 245.223 341.831 244.236 342.021C243.249 342.212 243.639 341.978 243.397 341.71C242.816 341.06 242.513 340.047 243.059 339.294C243.604 338.541 244.141 339.043 244.453 339.467Z" fill="#5EEAD4"></path><path d="M245.552 375.404C243.232 374.928 238.47 373.612 238.47 370.418C239.631 371.612 240.912 372.478 242.505 373.067C248.686 375.344 255.223 374.166 261.015 371.335C263.127 370.305 264.945 369.102 266.659 367.414C266.781 368.66 265.967 369.509 265.101 370.219C259.959 374.4 252.158 376.755 245.552 375.396V375.404Z" fill="#042F2E"></path><path d="M260.963 370.357C259.993 370.903 259.093 371.353 258.019 371.656C257.283 367.907 254.825 365.803 251.717 364.037C251.838 363.604 252.158 363.57 252.452 363.674L256.175 364.955C258.002 365.587 259.638 366.522 261.093 367.873L260.971 370.366L260.963 370.357Z" fill="#042F2E"></path><path d="M250.73 368.6C249.527 367.544 247.726 368.141 247.025 369.5C246.644 368.946 246.67 368.288 246.384 367.682C245.873 366.617 244.903 365.76 243.665 365.89C242.774 365.977 242.176 366.635 241.622 367.284C241.129 365.804 241.354 365.05 239.64 364.566C244.393 363.752 253.145 367.613 253.743 372.929C253.085 373.136 252.583 373.171 251.838 373.188C252.288 371.673 252.081 369.777 250.739 368.6H250.73Z" fill="#042F2E"></path><path d="M245.804 371.379C244.506 371.725 242.558 371.474 241.926 370.089C241.294 368.704 242.367 367.336 243.415 366.911C244.471 366.487 245.311 367.344 245.657 368.227C246.003 369.223 246.021 370.115 245.813 371.379H245.804Z" fill="#042F2E"></path><path d="M251.128 372.556C250.184 372.781 247.319 372.851 247.319 371.578C247.319 370.305 248.185 368.877 249.44 368.981C250.713 369.085 251.379 371.128 251.128 372.548V372.556Z" fill="#042F2E"></path><path d="M266.495 363.232C266.98 365.942 266.513 366.661 264.279 368.288C264.279 366.427 265.015 364.565 266.495 363.232Z" fill="#042F2E"></path><path d="M246.366 372.141C246.851 372.478 247.215 373.154 247.804 373.249C245.206 373.249 240.176 371.968 238.999 369.353C239.51 369.838 240.098 369.968 240.869 369.829C241.328 371.976 244.427 372.981 246.366 372.141Z" fill="#042F2E"></path><path d="M240.437 368.894C239.623 368.955 238.939 368.332 238.861 367.613C238.783 366.894 239.034 365.457 239.761 365.544C240.489 365.63 240.731 367.977 240.437 368.886V368.894Z" fill="#042F2E"></path><path d="M244.012 361.267C243.579 361.683 242.981 361.518 242.419 361.388C242.834 360.86 243.432 360.929 244.012 361.267Z" fill="#042F2E"></path><path d="M255.335 239.135C255.383 239.135 255.422 239.096 255.422 239.048C255.422 239 255.383 238.962 255.335 238.962C255.288 238.962 255.249 239 255.249 239.048C255.249 239.096 255.288 239.135 255.335 239.135Z" fill="#042F2E"></path><path d="M304.554 232.321C304.199 232.702 303.913 233.014 303.446 233.213C303.558 232.78 303.775 232.494 303.974 232.114C304.182 232.114 304.338 232.114 304.554 232.321Z" fill="#5EEAD4"></path><path d="M249.396 220.443C249.985 220.564 250.288 220.729 250.747 220.859C250.227 221.049 249.509 221.049 249.396 220.443Z" fill="#5EEAD4"></path><path d="M312.857 357.198C306.961 360.652 299.645 361.83 293.94 357.31C288.235 352.791 289.239 352.168 288.079 348.809C283.404 335.312 289.221 317.616 298.433 307.261C303.195 301.919 309.472 297.279 316.882 296.967C321.774 296.76 326.172 298.924 329.064 302.82C331.955 306.716 332.57 309.348 333.185 313.079C333.678 316.066 333.851 318.862 333.548 321.936C332.527 332.299 328.397 342.09 321.557 349.917C319.012 352.826 316.164 355.259 312.857 357.189V357.198Z" fill="#042F2E"></path><path d="M273.161 211.37C274.944 211.37 276.65 211.526 278.217 211.846L284.814 213.197C284.961 213.231 285.065 213.439 285.048 213.5L287.61 214.236C288.156 214.392 288.762 214.573 289.195 214.902C289.359 215.032 289.749 215.093 289.887 215.275C292.104 216.045 294.415 217.335 296.354 218.746C299.947 221.361 302.449 226.053 304.077 229.94C304.51 230.971 304.761 232.053 305.133 233.092C306.293 236.321 306.83 239.801 307.116 243.334L307.306 245.706V250.052C307.306 251.013 306.951 251.965 307.272 252.996C315.124 255.506 321.937 259.203 327.53 265.341C328.327 266.216 328.915 267.055 329.565 268.008C333.348 273.54 334.898 280.336 330.941 286.284C329.478 288.483 327.461 290.085 325.08 291.374C325.66 292.058 326.422 292.119 327.063 292.517C336.872 298.733 338.837 312.109 337.469 322.758C336.603 329.476 334.82 334.905 332.032 341.026C331.807 341.528 331.599 341.935 331.331 342.454C328.292 348.211 324.474 353.449 319.669 357.882C314.63 362.531 307.678 366.617 300.666 366.617C293.653 366.617 300.008 366.609 299.688 366.591L299.514 368.089C299.402 369.067 299.064 370.063 299.445 371.041C299.679 371.63 299.436 372.115 299.471 372.66L299.61 374.894C299.722 376.686 300.164 379.153 298.761 380.634C296.077 383.465 292.883 385.577 289.195 386.824C286.519 387.724 284.026 388.235 281.446 388.235C278.866 388.235 278.459 388.071 276.866 387.716C274.884 387.274 272.892 386.608 271.351 385.335C270.001 384.227 269.585 382.764 269.603 381.136C269.62 379.465 269.732 377.976 270.295 376.392C270.529 375.734 270.486 374.781 271.083 374.322C271.499 374.002 271.741 373.716 272.035 373.275L273.446 371.111C273.602 370.868 273.455 370.427 273.767 370.245C273.308 367.37 272.702 364.513 272.486 361.613C272.468 361.345 272.486 360.947 272.408 360.696C272.018 359.406 271.845 356.194 271.533 355.968C271.403 355.873 271.299 355.839 271.204 355.839C271.005 355.839 270.858 355.977 270.59 355.977C270.321 355.977 270.061 355.882 269.594 355.518C268.823 354.93 268.157 354.237 267.248 353.925C266.962 354.592 267.455 354.947 267.585 355.44C268.226 357.821 266.936 358.981 267.551 360.367C267.845 361.042 267.594 361.631 267.585 362.288L267.516 368.158C267.49 370.176 263.741 372.444 262.157 373.327C258.85 375.188 255.24 376.262 251.448 376.686C250.92 376.747 250.348 376.773 249.759 376.773C246.885 376.773 243.422 376.097 241.162 374.937C239.898 374.288 238.487 373.387 237.942 371.994C236.946 369.483 237.396 366.522 238.747 364.271C239.145 362.955 239.95 362.081 241.093 361.423C242.037 360.877 242.556 359.579 243.128 359.319C243.188 358.981 243.327 358.644 243.639 358.479L242.825 352.722L242.807 350.843L242.903 348.54C242.963 346.973 242.721 345.294 242.314 343.692C241.985 342.402 240.799 341.32 240.79 339.917L240.73 331.26C240.73 331.113 240.799 331.009 240.877 331.009C240.877 331.009 240.877 331.009 240.885 331.009C240.929 331.009 240.972 331.035 241.024 331.061C241.076 330.619 240.885 330.056 241.214 329.71L240.383 327.425C239.933 326.187 240.046 322.533 240.305 321.139C240.375 320.776 240.453 320.429 240.176 320.213C240.011 320.239 239.855 320.299 239.699 320.36C239.725 321.156 238.539 321.555 237.448 322.646C235.578 324.507 233.059 325.485 231.05 327.147C229.18 328.689 227.648 330.429 225.007 331.052L226.315 337.026L234.219 372.305C234.41 373.171 234.626 373.673 234.15 374.496C233.856 374.998 233.232 375.413 232.418 375.647C232.288 375.682 232.124 375.699 231.951 375.699C231.189 375.699 230.133 375.353 229.951 374.539L220.324 331.771C216.809 331.745 213.709 330.472 211.251 328.126C210.42 327.329 209.891 326.36 209.13 325.468C206.42 321.018 206.489 315.711 209.112 311.2C210.359 309.062 212.212 307.555 214.428 306.309L211.848 294.699L209.779 292.561C208.679 291.426 207.917 289.955 207.389 288.396C206.134 284.708 206.584 280.804 207.995 277.202L205.571 265.774C205.511 265.488 205.424 265.203 205.389 264.917L204.446 264.337L204.013 256.762C203.909 254.918 199.727 253.082 198.238 252.476C197.831 252.312 198.039 251.55 198.048 251.229L198.204 244.113L198.697 232.546L198.853 227.361C198.879 226.503 199.087 225.655 199 224.763C198.905 223.785 199.043 222.876 199.147 221.993C199.199 221.551 199.277 221.482 199.753 221.43C199.788 221.43 199.823 221.43 199.849 221.43C200.247 221.43 200.065 221.776 200.212 222.002C200.611 222.582 202.013 225.906 202.437 226.858L208.766 241.109L212.212 249.238C212.515 249.948 210.16 251.16 208.766 253.974C208.298 254.909 208.16 255.792 208.506 256.796L210.497 262.562C210.723 263.22 210.454 263.636 210.03 264.06C210.099 264.346 210.091 264.657 210.16 264.943L211.554 271.15C216.056 265.471 221.042 262.095 227.232 258.961C227.873 258.632 228.479 258.372 229.103 258.216C229.717 258.06 230.072 257.705 230.306 257.134C230.566 256.199 231.102 255.298 231.518 254.32C235.163 245.758 242.288 240.078 250.781 236.901C251.067 236.797 251.145 236.304 251.171 236.053C249.976 234.243 248.92 232.313 247.699 230.417L245.777 227.464C245.396 226.884 245.119 226.348 244.877 225.785C244.703 225.387 244.366 225.231 244.703 224.789C245.283 224.01 247.093 221.612 248.089 221.612C248.106 221.612 248.123 221.612 248.14 221.612C248.366 221.084 248.885 220.668 249.396 220.443C249.387 220.045 249.846 219.95 250.054 219.733C254.911 214.703 264.85 211.37 273.169 211.37M273.161 209.898C268.893 209.898 264.148 210.747 259.811 212.279C255.266 213.889 251.543 216.088 249.05 218.651C249.041 218.651 249.032 218.668 249.024 218.668C248.859 218.772 248.495 218.997 248.227 219.404C247.829 219.655 247.482 219.967 247.214 220.313C246.218 220.712 245.102 221.82 243.535 223.906C243.093 224.486 243.067 225.032 243.11 225.387C243.171 225.828 243.37 226.131 243.491 226.313C243.509 226.339 243.526 226.374 243.543 226.391C243.855 227.092 244.167 227.681 244.556 228.27L246.478 231.222C247.05 232.105 247.604 233.023 248.132 233.914C248.521 234.564 248.92 235.23 249.327 235.888C240.219 239.533 233.604 245.689 230.176 253.74C230.046 254.052 229.899 254.355 229.735 254.684C229.432 255.307 229.12 255.948 228.921 256.649C228.869 256.762 228.843 256.77 228.756 256.788C228.09 256.952 227.414 257.22 226.575 257.645C223.06 259.428 220.298 261.099 217.882 262.926C215.874 264.441 214.047 266.103 212.35 267.947L211.606 264.614C211.606 264.588 211.597 264.545 211.588 264.493C211.701 264.32 211.813 264.129 211.891 263.913C212.116 263.324 212.116 262.709 211.891 262.069L209.9 256.303C209.71 255.74 209.762 255.272 210.082 254.615C210.731 253.307 211.623 252.398 212.333 251.662C212.688 251.299 212.991 250.996 213.216 250.675C213.839 249.818 213.744 249.1 213.554 248.649L210.108 240.52C210.108 240.511 210.108 240.494 210.108 240.494L203.779 226.244C203.693 226.053 203.563 225.759 203.416 225.421C202.498 223.309 201.926 222.027 201.571 221.404C201.381 220.331 200.533 219.95 199.84 219.95C199.762 219.95 199.675 219.95 199.589 219.967C199.295 220.002 198.749 220.054 198.29 220.486C197.779 220.954 197.71 221.569 197.684 221.828C197.676 221.941 197.658 222.053 197.641 222.166C197.546 222.971 197.433 223.889 197.528 224.902C197.563 225.309 197.52 225.75 197.468 226.226C197.433 226.573 197.39 226.936 197.381 227.326L197.225 232.503L196.732 244.052V244.07V244.087L196.576 251.186C196.576 251.212 196.567 251.273 196.559 251.316C196.533 251.55 196.49 251.879 196.533 252.225C196.611 252.987 197.035 253.576 197.684 253.835C198.489 254.164 199.675 254.684 200.714 255.307C202.273 256.233 202.515 256.796 202.541 256.857L202.974 264.415L203.017 265.185L203.675 265.592L204.074 265.835V265.852C204.091 265.93 204.108 266.008 204.125 266.077L206.463 277.081C204.931 281.211 204.766 285.28 205.996 288.872C206.662 290.812 207.58 292.396 208.723 293.582L210.506 295.418L212.766 305.573C210.541 306.967 208.965 308.534 207.848 310.447C204.913 315.486 204.931 321.382 207.874 326.221L207.935 326.325L208.013 326.42C208.281 326.732 208.532 327.078 208.792 327.433C209.216 328.013 209.649 328.611 210.238 329.173C212.705 331.528 215.761 332.896 219.138 333.173L228.522 374.842C228.877 376.426 230.557 377.154 231.96 377.154C233.362 377.154 232.566 377.119 232.834 377.041C234.02 376.703 234.946 376.054 235.431 375.214C236.141 373.985 235.916 373.024 235.726 372.245C235.708 372.158 235.682 372.063 235.656 371.959L227.761 336.679L226.739 332.004C228.479 331.294 229.752 330.186 230.99 329.095C231.319 328.81 231.656 328.515 231.985 328.238C232.782 327.58 233.682 327.026 234.643 326.446C235.951 325.65 237.31 324.819 238.479 323.65C238.522 323.607 238.565 323.563 238.617 323.52C238.565 325.096 238.634 326.888 238.998 327.883L239.621 329.598C239.561 329.823 239.544 330.03 239.544 330.221C239.353 330.507 239.258 330.853 239.258 331.225L239.318 339.883C239.318 341.077 239.881 342.047 240.323 342.826C240.565 343.259 240.799 343.666 240.885 344.004C241.301 345.64 241.483 347.129 241.431 348.436L241.336 350.739V350.774V350.809L241.353 352.687V352.783L241.37 352.878L242.08 357.934C241.994 358.064 241.916 358.219 241.855 358.393C241.595 358.644 241.37 358.938 241.154 359.224C240.894 359.57 240.608 359.96 240.357 360.098C238.868 360.964 237.899 362.115 237.396 363.622C235.812 366.366 235.492 369.743 236.583 372.487C237.336 374.392 239.18 375.517 240.496 376.193C242.859 377.405 246.496 378.192 249.768 378.192C253.041 378.192 251.049 378.158 251.621 378.097C255.75 377.638 259.542 376.444 262.893 374.556C266.979 372.253 268.979 370.15 268.997 368.124L269.066 362.254C269.066 362.133 269.083 361.994 269.109 361.821C269.178 361.284 269.274 360.548 268.901 359.709C268.815 359.518 268.858 359.267 268.997 358.661C269.1 358.202 269.222 357.648 269.248 356.99C269.646 357.224 270.027 357.345 270.399 357.38C270.442 357.674 270.486 357.994 270.52 358.254C270.65 359.267 270.789 360.306 270.996 361.024C270.996 361.085 271.005 361.232 271.014 361.319C271.014 361.431 271.014 361.544 271.031 361.665C271.196 363.83 271.568 365.977 271.931 368.054C272.035 368.652 272.139 369.258 272.243 369.864C272.157 370.089 272.122 370.297 272.105 370.444L270.823 372.418C270.607 372.755 270.468 372.903 270.209 373.102C269.36 373.76 269.17 374.729 269.04 375.379C269.005 375.561 268.971 375.742 268.927 375.846C268.304 377.586 268.165 379.197 268.148 381.075C268.122 383.396 268.875 385.144 270.434 386.426C271.931 387.655 273.879 388.504 276.563 389.101C278.243 389.473 279.844 389.655 281.463 389.655C284.061 389.655 286.675 389.179 289.679 388.166C293.506 386.876 296.926 384.66 299.843 381.595C301.514 379.837 301.307 377.318 301.151 375.474C301.133 375.214 301.107 374.972 301.099 374.747L300.96 372.513C300.96 372.452 300.969 372.323 300.986 372.201C301.038 371.794 301.116 371.171 300.839 370.444C300.7 370.08 300.787 369.57 300.882 368.972C300.926 368.721 300.969 368.47 300.995 368.193L301.012 368.028C304.415 367.968 307.964 367.041 311.583 365.258C314.717 363.708 317.868 361.509 320.691 358.912C325.357 354.609 329.383 349.285 332.656 343.086C332.95 342.523 333.166 342.09 333.4 341.58C334.924 338.238 336.032 335.346 336.906 332.498C337.859 329.381 338.525 326.247 338.958 322.897C339.33 320.014 339.443 317.122 339.296 314.291C339.14 311.183 338.664 308.231 337.902 305.53C337.045 302.517 335.824 299.816 334.274 297.504C332.569 294.967 330.456 292.881 327.98 291.297C329.738 290.067 331.132 288.665 332.205 287.054C333.262 285.47 333.997 283.756 334.404 281.972C334.785 280.301 334.872 278.553 334.664 276.769C334.292 273.583 332.967 270.25 330.82 267.125C330.136 266.129 329.504 265.229 328.664 264.302C325.859 261.22 322.708 258.658 319.046 256.493C315.972 254.675 312.57 253.143 308.665 251.844C308.674 251.645 308.709 251.437 308.735 251.195C308.778 250.84 308.83 250.433 308.83 250V245.654V245.593V245.533L308.631 243.161C308.284 238.884 307.627 235.507 306.562 232.538C306.423 232.148 306.302 231.75 306.172 231.317C305.973 230.659 305.765 229.984 305.479 229.308C303.151 223.733 300.38 219.759 297.263 217.491C295.151 215.95 292.813 214.686 290.666 213.907C290.441 213.751 290.216 213.664 290.052 213.604C290.052 213.604 290.034 213.604 290.026 213.595C289.385 213.145 288.649 212.928 288.052 212.755L286.017 212.167C285.775 211.924 285.472 211.751 285.143 211.69L278.546 210.34C276.918 210.002 275.117 209.838 273.195 209.838L273.161 209.898Z" fill="#030712"></path><path d="M308.086 344.631C307.748 344.671 307.479 344.283 307.574 343.798C309.221 335.007 310.972 326.161 312.668 317.334C312.74 316.942 312.992 316.706 313.242 316.671C313.491 316.636 313.647 316.772 313.737 317.064C315.774 324.03 317.865 330.986 319.827 337.793C319.94 338.176 319.749 338.665 319.418 338.837C315.67 340.81 311.944 342.752 308.251 344.576C308.195 344.603 308.15 344.614 308.096 344.624M312.993 309.301C312.513 309.356 312.024 309.724 311.702 310.396C307.644 318.926 303.384 327.586 299.347 335.84C299.028 336.494 299.004 337.286 299.286 337.886C301.002 341.475 302.726 345.136 304.411 348.818C304.672 349.388 305.154 349.692 305.652 349.631C306.15 349.569 305.913 349.58 306.035 349.518C311.306 346.972 316.678 344.091 322.102 341.138C322.993 340.651 323.511 339.325 323.198 338.319C320.372 329.258 317.22 319.775 314.266 310.319C314.037 309.588 313.516 309.252 312.982 309.317" fill="#5EEAD4"></path></g><path d="M384.802 335.201V370.013C384.802 375.646 380.831 382.479 375.937 385.341L336.232 408.241L335.862 408.426C333.646 409.719 331.615 409.903 330.045 409.257L329.122 408.795C327.829 407.687 326.998 405.84 326.998 403.347V368.536C326.998 362.903 330.968 356.07 335.862 353.207L372.151 332.247L375.937 330.123C377.322 329.292 378.707 328.922 379.908 328.922C381.108 328.922 381.108 329.015 381.57 329.199C383.509 329.938 384.802 332.062 384.802 335.201Z" fill="#0A101D" stroke="#2DD4BF" stroke-width="0.535272" stroke-linejoin="round"></path><g filter="url(#filter2_dddddd_2014_3022)"><path d="M362.548 363.549C362.548 359.394 359.593 357.732 355.992 359.763C352.391 361.887 349.436 366.873 349.436 371.029C349.436 375.184 350.821 375.553 352.945 375.645V380.724C352.945 382.663 354.33 383.402 355.992 382.478C357.654 381.555 359.039 379.154 359.039 377.215V372.137C361.071 369.643 362.548 366.412 362.548 363.457V363.549Z" fill="#14B8A6"></path></g><path d="M381.57 329.199C381.109 329.015 380.462 328.922 379.908 328.922C378.708 328.922 377.415 329.292 375.938 330.123L372.152 332.246L335.863 353.207C330.969 356.07 326.998 362.903 326.998 368.535V403.347C326.998 405.84 327.829 407.687 329.122 408.703L317.395 401.962L317.026 401.777C315.456 400.854 314.44 398.915 314.44 396.052V361.241C314.44 355.608 318.411 348.775 323.305 345.912L329.122 342.588L363.38 322.828C364.765 321.997 366.15 321.627 367.35 321.627C368.551 321.627 368.643 321.72 369.197 321.997L370.12 322.458L381.57 329.199Z" fill="#0A101D" stroke="#2DD4BF" stroke-width="0.535272" stroke-linejoin="round"></path><path d="M329.03 351.915C327.553 351.915 326.352 350.714 326.352 349.329V339.911C326.352 325.136 335.124 308.423 346.297 302.052L349.068 300.482C354.423 297.435 359.686 297.066 363.934 299.466C368.828 302.329 371.69 308.608 371.69 316.826V326.244C371.69 327.722 370.49 328.83 369.105 328.83C367.72 328.83 366.52 327.63 366.52 326.244V316.826C366.52 310.547 364.673 305.93 361.349 304.083C358.117 302.236 354.331 303.622 351.745 305.099L348.975 306.669C339.464 312.209 331.616 327.168 331.616 340.003V349.421C331.616 350.899 330.415 352.007 329.03 352.007V351.915Z" fill="#0A101D" stroke="#2DD4BF" stroke-width="0.535272" stroke-linejoin="round"></path><defs><filter id="filter0_dddddd_2014_3022" x="38.6652" y="-0.000100136" width="490.547" height="510.427" filterUnits="userSpaceOnUse" color-interpolation-filters="sRGB"><feFlood flood-opacity="0" result="BackgroundImageFix"></feFlood><feColorMatrix in="SourceAlpha" type="matrix" values="0 0 0 0 0 0 0 0 0 0 0 0 0 0 0 0 0 0 127 0" result="hardAlpha"></feColorMatrix><feOffset dy="-0.306938"></feOffset><feGaussianBlur stdDeviation="3.2058"></feGaussianBlur><feColorMatrix type="matrix" values="0 0 0 0 0.262745 0 0 0 0 0.941176 0 0 0 0 0.764706 0 0 0 0.230539 0"></feColorMatrix><feBlend mode="normal" in2="BackgroundImageFix" result="effect1_dropShadow_2014_3022"></feBlend><feColorMatrix in="SourceAlpha" type="matrix" values="0 0 0 0 0 0 0 0 0 0 0 0 0 0 0 0 0 0 127 0" result="hardAlpha"></feColorMatrix><feOffset dy="-0.737615"></feOffset><feGaussianBlur stdDeviation="7.70398"></feGaussianBlur><feColorMatrix type="matrix" values="0 0 0 0 0.262745 0 0 0 0 0.941176 0 0 0 0 0.764706 0 0 0 0.331192 0"></feColorMatrix><feBlend mode="normal" in2="effect1_dropShadow_2014_3022" result="effect2_dropShadow_2014_3022"></feBlend><feColorMatrix in="SourceAlpha" type="matrix" values="0 0 0 0 0 0 0 0 0 0 0 0 0 0 0 0 0 0 127 0" result="hardAlpha"></feColorMatrix><feOffset dy="-1.38886"></feOffset><feGaussianBlur stdDeviation="14.5059"></feGaussianBlur><feColorMatrix type="matrix" values="0 0 0 0 0.262745 0 0 0 0 0.941176 0 0 0 0 0.764706 0 0 0 0.41 0"></feColorMatrix><feBlend mode="normal" in2="effect2_dropShadow_2014_3022" result="effect3_dropShadow_2014_3022"></feBlend><feColorMatrix in="SourceAlpha" type="matrix" values="0 0 0 0 0 0 0 0 0 0 0 0 0 0 0 0 0 0 127 0" result="hardAlpha"></feColorMatrix><feOffset dy="-2.4775"></feOffset><feGaussianBlur stdDeviation="25.8761"></feGaussianBlur><feColorMatrix type="matrix" values="0 0 0 0 0.262745 0 0 0 0 0.941176 0 0 0 0 0.764706 0 0 0 0.488808 0"></feColorMatrix><feBlend mode="normal" in2="effect3_dropShadow_2014_3022" result="effect4_dropShadow_2014_3022"></feBlend><feColorMatrix in="SourceAlpha" type="matrix" values="0 0 0 0 0 0 0 0 0 0 0 0 0 0 0 0 0 0 127 0" result="hardAlpha"></feColorMatrix><feOffset dy="-4.63388"></feOffset><feGaussianBlur stdDeviation="48.3984"></feGaussianBlur><feColorMatrix type="matrix" values="0 0 0 0 0.262745 0 0 0 0 0.941176 0 0 0 0 0.764706 0 0 0 0.589461 0"></feColorMatrix><feBlend mode="normal" in2="effect4_dropShadow_2014_3022" result="effect5_dropShadow_2014_3022"></feBlend><feColorMatrix in="SourceAlpha" type="matrix" values="0 0 0 0 0 0 0 0 0 0 0 0 0 0 0 0 0 0 127 0" result="hardAlpha"></feColorMatrix><feOffset dy="-11.0918"></feOffset><feGaussianBlur stdDeviation="115.848"></feGaussianBlur><feColorMatrix type="matrix" values="0 0 0 0 0.262745 0 0 0 0 0.941176 0 0 0 0 0.764706 0 0 0 0.82 0"></feColorMatrix><feBlend mode="normal" in2="effect5_dropShadow_2014_3022" result="effect6_dropShadow_2014_3022"></feBlend><feBlend mode="normal" in="SourceGraphic" in2="effect6_dropShadow_2014_3022" result="shape"></feBlend></filter><filter id="filter1_dddddd_2014_3022" x="0" y="47.2458" width="398.183" height="406.243" filterUnits="userSpaceOnUse" color-interpolation-filters="sRGB"><feFlood flood-opacity="0" result="BackgroundImageFix"></feFlood><feColorMatrix in="SourceAlpha" type="matrix" values="0 0 0 0 0 0 0 0 0 0 0 0 0 0 0 0 0 0 127 0" result="hardAlpha"></feColorMatrix><feOffset dy="-0.249053"></feOffset><feGaussianBlur stdDeviation="2.60122"></feGaussianBlur><feColorMatrix type="matrix" values="0 0 0 0 0.262745 0 0 0 0 0.941176 0 0 0 0 0.764706 0 0 0 0.230539 0"></feColorMatrix><feBlend mode="normal" in2="BackgroundImageFix" result="effect1_dropShadow_2014_3022"></feBlend><feColorMatrix in="SourceAlpha" type="matrix" values="0 0 0 0 0 0 0 0 0 0 0 0 0 0 0 0 0 0 127 0" result="hardAlpha"></feColorMatrix><feOffset dy="-0.598509"></feOffset><feGaussianBlur stdDeviation="6.2511"></feGaussianBlur><feColorMatrix type="matrix" values="0 0 0 0 0.262745 0 0 0 0 0.941176 0 0 0 0 0.764706 0 0 0 0.331192 0"></feColorMatrix><feBlend mode="normal" in2="effect1_dropShadow_2014_3022" result="effect2_dropShadow_2014_3022"></feBlend><feColorMatrix in="SourceAlpha" type="matrix" values="0 0 0 0 0 0 0 0 0 0 0 0 0 0 0 0 0 0 127 0" result="hardAlpha"></feColorMatrix><feOffset dy="-1.12694"></feOffset><feGaussianBlur stdDeviation="11.7703"></feGaussianBlur><feColorMatrix type="matrix" values="0 0 0 0 0.262745 0 0 0 0 0.941176 0 0 0 0 0.764706 0 0 0 0.41 0"></feColorMatrix><feBlend mode="normal" in2="effect2_dropShadow_2014_3022" result="effect3_dropShadow_2014_3022"></feBlend><feColorMatrix in="SourceAlpha" type="matrix" values="0 0 0 0 0 0 0 0 0 0 0 0 0 0 0 0 0 0 127 0" result="hardAlpha"></feColorMatrix><feOffset dy="-2.01027"></feOffset><feGaussianBlur stdDeviation="20.9961"></feGaussianBlur><feColorMatrix type="matrix" values="0 0 0 0 0.262745 0 0 0 0 0.941176 0 0 0 0 0.764706 0 0 0 0.488808 0"></feColorMatrix><feBlend mode="normal" in2="effect3_dropShadow_2014_3022" result="effect4_dropShadow_2014_3022"></feBlend><feColorMatrix in="SourceAlpha" type="matrix" values="0 0 0 0 0 0 0 0 0 0 0 0 0 0 0 0 0 0 127 0" result="hardAlpha"></feColorMatrix><feOffset dy="-3.75998"></feOffset><feGaussianBlur stdDeviation="39.271"></feGaussianBlur><feColorMatrix type="matrix" values="0 0 0 0 0.262745 0 0 0 0 0.941176 0 0 0 0 0.764706 0 0 0 0.589461 0"></feColorMatrix><feBlend mode="normal" in2="effect4_dropShadow_2014_3022" result="effect5_dropShadow_2014_3022"></feBlend><feColorMatrix in="SourceAlpha" type="matrix" values="0 0 0 0 0 0 0 0 0 0 0 0 0 0 0 0 0 0 127 0" result="hardAlpha"></feColorMatrix><feOffset dy="-9"></feOffset><feGaussianBlur stdDeviation="94"></feGaussianBlur><feColorMatrix type="matrix" values="0 0 0 0 0.262745 0 0 0 0 0.941176 0 0 0 0 0.764706 0 0 0 0.82 0"></feColorMatrix><feBlend mode="normal" in2="effect5_dropShadow_2014_3022" result="effect6_dropShadow_2014_3022"></feBlend><feBlend mode="normal" in="SourceGraphic" in2="effect6_dropShadow_2014_3022" result="shape"></feBlend></filter><filter id="filter2_dddddd_2014_3022" x="161.436" y="161.898" width="389.112" height="399.975" filterUnits="userSpaceOnUse" color-interpolation-filters="sRGB"><feFlood flood-opacity="0" result="BackgroundImageFix"></feFlood><feColorMatrix in="SourceAlpha" type="matrix" values="0 0 0 0 0 0 0 0 0 0 0 0 0 0 0 0 0 0 127 0" result="hardAlpha"></feColorMatrix><feOffset dy="-0.249053"></feOffset><feGaussianBlur stdDeviation="2.60122"></feGaussianBlur><feColorMatrix type="matrix" values="0 0 0 0 0.262745 0 0 0 0 0.941176 0 0 0 0 0.764706 0 0 0 0.230539 0"></feColorMatrix><feBlend mode="normal" in2="BackgroundImageFix" result="effect1_dropShadow_2014_3022"></feBlend><feColorMatrix in="SourceAlpha" type="matrix" values="0 0 0 0 0 0 0 0 0 0 0 0 0 0 0 0 0 0 127 0" result="hardAlpha"></feColorMatrix><feOffset dy="-0.598509"></feOffset><feGaussianBlur stdDeviation="6.2511"></feGaussianBlur><feColorMatrix type="matrix" values="0 0 0 0 0.262745 0 0 0 0 0.941176 0 0 0 0 0.764706 0 0 0 0.331192 0"></feColorMatrix><feBlend mode="normal" in2="effect1_dropShadow_2014_3022" result="effect2_dropShadow_2014_3022"></feBlend><feColorMatrix in="SourceAlpha" type="matrix" values="0 0 0 0 0 0 0 0 0 0 0 0 0 0 0 0 0 0 127 0" result="hardAlpha"></feColorMatrix><feOffset dy="-1.12694"></feOffset><feGaussianBlur stdDeviation="11.7703"></feGaussianBlur><feColorMatrix type="matrix" values="0 0 0 0 0.262745 0 0 0 0 0.941176 0 0 0 0 0.764706 0 0 0 0.41 0"></feColorMatrix><feBlend mode="normal" in2="effect2_dropShadow_2014_3022" result="effect3_dropShadow_2014_3022"></feBlend><feColorMatrix in="SourceAlpha" type="matrix" values="0 0 0 0 0 0 0 0 0 0 0 0 0 0 0 0 0 0 127 0" result="hardAlpha"></feColorMatrix><feOffset dy="-2.01027"></feOffset><feGaussianBlur stdDeviation="20.9961"></feGaussianBlur><feColorMatrix type="matrix" values="0 0 0 0 0.262745 0 0 0 0 0.941176 0 0 0 0 0.764706 0 0 0 0.488808 0"></feColorMatrix><feBlend mode="normal" in2="effect3_dropShadow_2014_3022" result="effect4_dropShadow_2014_3022"></feBlend><feColorMatrix in="SourceAlpha" type="matrix" values="0 0 0 0 0 0 0 0 0 0 0 0 0 0 0 0 0 0 127 0" result="hardAlpha"></feColorMatrix><feOffset dy="-3.75998"></feOffset><feGaussianBlur stdDeviation="39.271"></feGaussianBlur><feColorMatrix type="matrix" values="0 0 0 0 0.262745 0 0 0 0 0.941176 0 0 0 0 0.764706 0 0 0 0.589461 0"></feColorMatrix><feBlend mode="normal" in2="effect4_dropShadow_2014_3022" result="effect5_dropShadow_2014_3022"></feBlend><feColorMatrix in="SourceAlpha" type="matrix" values="0 0 0 0 0 0 0 0 0 0 0 0 0 0 0 0 0 0 127 0" result="hardAlpha"></feColorMatrix><feOffset dy="-9"></feOffset><feGaussianBlur stdDeviation="94"></feGaussianBlur><feColorMatrix type="matrix" values="0 0 0 0 0.262745 0 0 0 0 0.941176 0 0 0 0 0.764706 0 0 0 0.82 0"></feColorMatrix><feBlend mode="normal" in2="effect5_dropShadow_2014_3022" result="effect6_dropShadow_2014_3022"></feBlend><feBlend mode="normal" in="SourceGraphic" in2="effect6_dropShadow_2014_3022" result="shape"></feBlend></filter><clipPath id="clip0_2014_3022"><rect width="142.966" height="179.8" fill="white" transform="translate(196.44 209.898)"></rect></clipPath></defs></svg>
