<svg fill="none" xmlns="http://www.w3.org/2000/svg" viewBox="31.13 16.2 455.37 254.5"> <g filter="url(#filter0_dddddd_2168_13501)"> <g clip-path="url(#clip0_2168_13501)"> <path d="M408.381 17.2H39.619C35.4112 17.2 32 21.219 32 26.1767V201.223C32 206.181 35.4112 210.2 39.619 210.2H408.381C412.589 210.2 416 206.181 416 201.223V26.1767C416 21.219 412.589 17.2 408.381 17.2Z" fill="#FCFDFD"></path> <path d="M408.381 17.2H39.619C35.4112 17.2 32 21.219 32 26.1767V201.223C32 206.181 35.4112 210.2 39.619 210.2H408.381C412.589 210.2 416 206.181 416 201.223V26.1767C416 21.219 412.589 17.2 408.381 17.2Z" fill="url(#paint0_linear_2168_13501)"></path> <path d="M486.5 16.2H32V47.7H486.5V16.2Z" fill="#F9FAFB"></path> <path d="M177.381 98.4858H82.8812C80.893 98.4858 79.2812 100.098 79.2812 102.086V102.986C79.2812 104.974 80.893 106.586 82.8812 106.586H177.381C179.369 106.586 180.981 104.974 180.981 102.986V102.086C180.981 100.098 179.369 98.4858 177.381 98.4858Z" fill="#F9FAFB"></path> <path d="M47.3004 98.8381H45.5004C43.5122 98.8381 41.9004 100.45 41.9004 102.438V103.338C41.9004 105.326 43.5122 106.938 45.5004 106.938H47.3004C49.2886 106.938 50.9004 105.326 50.9004 103.338V102.438C50.9004 100.45 49.2886 98.8381 47.3004 98.8381Z" fill="#99F6E4"></path> <path d="M397.882 98.4858H218.782C216.793 98.4858 215.182 100.098 215.182 102.086V102.986C215.182 104.974 216.793 106.586 218.782 106.586H397.882C399.87 106.586 401.482 104.974 401.482 102.986V102.086C401.482 100.098 399.87 98.4858 397.882 98.4858Z" fill="#F9FAFB"></path> <path d="M177.381 127.285H82.8812C80.893 127.285 79.2812 128.897 79.2812 130.885V131.785C79.2812 133.773 80.893 135.385 82.8812 135.385H177.381C179.369 135.385 180.981 133.773 180.981 131.785V130.885C180.981 128.897 179.369 127.285 177.381 127.285Z" fill="#F9FAFB"></path> <path d="M47.3004 127.638H45.5004C43.5122 127.638 41.9004 129.25 41.9004 131.238V132.138C41.9004 134.126 43.5122 135.738 45.5004 135.738H47.3004C49.2886 135.738 50.9004 134.126 50.9004 132.138V131.238C50.9004 129.25 49.2886 127.638 47.3004 127.638Z" fill="#99F6E4"></path> <path d="M397.882 127.285H218.782C216.793 127.285 215.182 128.897 215.182 130.885V131.785C215.182 133.773 216.793 135.385 218.782 135.385H397.882C399.87 135.385 401.482 133.773 401.482 131.785V130.885C401.482 128.897 399.87 127.285 397.882 127.285Z" fill="#F9FAFB"></path> <path d="M177.381 154.286H82.8812C80.893 154.286 79.2812 155.898 79.2812 157.886V158.786C79.2812 160.774 80.893 162.386 82.8812 162.386H177.381C179.369 162.386 180.981 160.774 180.981 158.786V157.886C180.981 155.898 179.369 154.286 177.381 154.286Z" fill="#F9FAFB"></path> <path d="M177.381 183.086H82.8812C80.893 183.086 79.2812 184.697 79.2812 186.686V187.586C79.2812 189.574 80.893 191.186 82.8812 191.186H177.381C179.369 191.186 180.981 189.574 180.981 187.586V186.686C180.981 184.697 179.369 183.086 177.381 183.086Z" fill="#F9FAFB"></path> <path d="M47.3004 154.638H45.5004C43.5122 154.638 41.9004 156.25 41.9004 158.238V159.138C41.9004 161.126 43.5122 162.738 45.5004 162.738H47.3004C49.2886 162.738 50.9004 161.126 50.9004 159.138V158.238C50.9004 156.25 49.2886 154.638 47.3004 154.638Z" fill="#99F6E4"></path> <path d="M47.3004 183.438H45.5004C43.5122 183.438 41.9004 185.05 41.9004 187.038V187.938C41.9004 189.926 43.5122 191.538 45.5004 191.538H47.3004C49.2886 191.538 50.9004 189.926 50.9004 187.938V187.038C50.9004 185.05 49.2886 183.438 47.3004 183.438Z" fill="#99F6E4"></path> <path d="M397.882 154.286H218.782C216.793 154.286 215.182 155.898 215.182 157.886V158.786C215.182 160.774 216.793 162.386 218.782 162.386H397.882C399.87 162.386 401.482 160.774 401.482 158.786V157.886C401.482 155.898 399.87 154.286 397.882 154.286Z" fill="#F9FAFB"></path> <path d="M397.882 183.086H218.782C216.793 183.086 215.182 184.697 215.182 186.686V187.586C215.182 189.574 216.793 191.186 218.782 191.186H397.882C399.87 191.186 401.482 189.574 401.482 187.586V186.686C401.482 184.697 399.87 183.086 397.882 183.086Z" fill="#F9FAFB"></path> <path d="M63.082 57.0857H48.682C46.6938 57.0857 45.082 58.6975 45.082 60.6857V75.0857C45.082 77.0739 46.6938 78.6857 48.682 78.6857H63.082C65.0703 78.6857 66.682 77.0739 66.682 75.0857V60.6857C66.682 58.6975 65.0703 57.0857 63.082 57.0857Z" fill="#F9FAFB"></path> <path d="M147.681 57.0857H82.8812C80.893 57.0857 79.2812 58.6975 79.2812 60.6857V75.0857C79.2812 77.0739 80.893 78.6857 82.8812 78.6857H147.681C149.669 78.6857 151.281 77.0739 151.281 75.0857V60.6857C151.281 58.6975 149.669 57.0857 147.681 57.0857Z" fill="#F9FAFB"></path> <path d="M263.782 57.0857H165.682C163.694 57.0857 162.082 58.6975 162.082 60.6857V75.0857C162.082 77.0739 163.694 78.6857 165.682 78.6857H263.782C265.77 78.6857 267.382 77.0739 267.382 75.0857V60.6857C267.382 58.6975 265.77 57.0857 263.782 57.0857Z" fill="#F9FAFB"></path> <path d="M397.882 57.0857H281.782C279.793 57.0857 278.182 58.6975 278.182 60.6857V75.0857C278.182 77.0739 279.793 78.6857 281.782 78.6857H397.882C399.87 78.6857 401.482 77.0739 401.482 75.0857V60.6857C401.482 58.6975 399.87 57.0857 397.882 57.0857Z" fill="#F9FAFB"></path> <path d="M31.582 87.2358H485.182" stroke="#F9FAFB" stroke-width="0.9"></path> <path d="M416.332 87.6858V210.086" stroke="#F9FAFB" stroke-width="0.9"></path> <path d="M31.582 116.035H485.182" stroke="#F9FAFB" stroke-width="0.9"></path> <path d="M31.582 144.836H485.182" stroke="#F9FAFB" stroke-width="0.9"></path> <path d="M31.582 173.636H485.182" stroke="#F9FAFB" stroke-width="0.9"></path> </g> </g> <path d="M267.646 243.846C267.842 243.651 268.158 243.651 268.354 243.846L271.535 247.028C271.73 247.223 271.73 247.54 271.535 247.735C271.34 247.93 271.023 247.93 270.828 247.735L268.441 245.348C268.108 248.685 266.334 251.829 263.439 254.677C260.216 257.847 255.577 260.679 249.886 263.047C238.501 267.783 222.808 270.7 205.5 270.7C188.192 270.7 172.499 267.783 161.114 263.047C155.423 260.679 150.784 257.847 147.561 254.677C144.336 251.505 142.5 247.964 142.5 244.2C142.5 243.924 142.724 243.7 143 243.7C143.276 243.7 143.5 243.924 143.5 244.2C143.5 247.615 145.162 250.914 148.262 253.964C151.364 257.015 155.879 259.785 161.498 262.123C172.734 266.797 188.291 269.7 205.5 269.7C222.709 269.7 238.266 266.797 249.502 262.123C255.121 259.785 259.636 257.015 262.738 253.964C265.448 251.299 267.058 248.443 267.421 245.485L265.172 247.735C264.977 247.93 264.66 247.93 264.465 247.735C264.27 247.54 264.27 247.223 264.465 247.028L267.646 243.846Z" fill="url(#paint1_linear_2168_13501)"></path> <path d="M412.646 243.846C412.842 243.651 413.158 243.651 413.354 243.846L416.535 247.028C416.73 247.223 416.73 247.54 416.535 247.735C416.34 247.93 416.023 247.93 415.828 247.735L413.441 245.348C413.108 248.685 411.334 251.829 408.439 254.677C405.216 257.847 400.577 260.679 394.886 263.047C383.501 267.783 367.808 270.7 350.5 270.7C333.192 270.7 317.499 267.783 306.114 263.047C300.423 260.679 295.784 257.847 292.561 254.677C289.336 251.505 287.5 247.964 287.5 244.2C287.5 243.924 287.724 243.7 288 243.7C288.276 243.7 288.5 243.924 288.5 244.2C288.5 247.615 290.162 250.914 293.262 253.964C296.364 257.015 300.879 259.785 306.498 262.123C317.734 266.797 333.291 269.7 350.5 269.7C367.709 269.7 383.266 266.797 394.502 262.123C400.121 259.785 404.636 257.015 407.738 253.964C410.448 251.299 412.058 248.443 412.421 245.485L410.172 247.735C409.977 247.93 409.66 247.93 409.465 247.735C409.27 247.54 409.27 247.223 409.465 247.028L412.646 243.846Z" fill="url(#paint2_linear_2168_13501)"></path> <path d="M452.865 218.736H452.498C452.74 219.473 452.865 220.223 452.865 220.985C452.865 230.839 432.015 238.827 406.296 238.827C380.577 238.827 359.728 230.839 359.728 220.985C359.728 220.223 359.853 219.473 360.095 218.736H359.728V89.2H452.865V218.736Z" fill="url(#paint3_linear_2168_13501)" fill-opacity="0.5"></path> <path d="M406.296 203.411C419.131 203.411 430.74 205.405 439.13 208.619C443.325 210.227 446.702 212.134 449.025 214.238C451.349 216.343 452.598 218.624 452.598 220.985C452.598 223.347 451.349 225.627 449.025 227.731C446.702 229.836 443.325 231.744 439.13 233.352C430.74 236.566 419.131 238.56 406.296 238.56C393.461 238.56 381.852 236.566 373.463 233.352C369.267 231.744 365.89 229.836 363.566 227.731C361.243 225.627 359.995 223.347 359.995 220.985C359.995 218.624 361.243 216.343 363.566 214.238C365.89 212.134 369.267 210.227 373.463 208.619C381.852 205.405 393.461 203.411 406.296 203.411Z" fill="#0D9488" stroke="#F0FDFA" stroke-width="0.535272"></path> <path d="M440.541 208.939V220.743C440.541 222.395 439.631 224.004 437.91 225.5C436.19 226.995 433.686 228.354 430.567 229.5C424.333 231.792 415.702 233.215 406.156 233.215C396.61 233.215 387.98 231.792 381.745 229.5C378.627 228.354 376.122 226.995 374.401 225.5C372.681 224.004 371.771 222.395 371.771 220.743V208.939H440.541Z" fill="#F0FDFA" stroke="#0D9488" stroke-width="0.535272"></path> <path d="M406.156 194.76C415.701 194.761 424.33 196.245 430.563 198.635C433.681 199.831 436.186 201.249 437.906 202.809C439.627 204.369 440.541 206.051 440.541 207.785C440.541 209.518 439.627 211.2 437.906 212.76C436.186 214.321 433.681 215.738 430.563 216.933C424.33 219.324 415.701 220.808 406.156 220.808C396.611 220.808 387.981 219.324 381.748 216.933C378.631 215.738 376.127 214.321 374.406 212.76C372.686 211.2 371.771 209.518 371.771 207.785C371.771 206.051 372.686 204.369 374.406 202.809C376.127 201.249 378.631 199.831 381.748 198.635C387.981 196.245 396.611 194.76 406.156 194.76Z" fill="#F0FDFA" stroke="#0D9488" stroke-width="0.535272"></path> <path d="M438.787 197.464V206.412C438.787 207.969 437.926 209.487 436.294 210.9C434.663 212.313 432.286 213.598 429.327 214.682C423.41 216.849 415.218 218.195 406.156 218.195C397.095 218.195 388.902 216.849 382.985 214.682C380.026 213.598 377.65 212.313 376.019 210.9C374.386 209.487 373.525 207.969 373.525 206.412V197.464H438.787Z" fill="#CCFBF1" stroke="#F0FDFA" stroke-width="0.535272"></path> <path d="M440.541 189.475V201.279C440.541 202.932 439.631 204.54 437.91 206.036C436.19 207.531 433.686 208.891 430.567 210.037C424.333 212.329 415.702 213.752 406.156 213.752C396.61 213.752 387.98 212.329 381.745 210.037C378.627 208.89 376.122 207.531 374.401 206.036C372.681 204.54 371.771 202.932 371.771 201.279V189.475H440.541Z" fill="#F0FDFA" stroke="#0D9488" stroke-width="0.535272"></path> <path d="M406.156 175.297C415.701 175.297 424.33 176.782 430.563 179.172C433.681 180.368 436.186 181.786 437.906 183.346C439.627 184.906 440.541 186.588 440.541 188.322C440.541 190.055 439.627 191.737 437.906 193.297C436.186 194.858 433.681 196.274 430.563 197.47C424.33 199.861 415.701 201.345 406.156 201.345C396.611 201.345 387.981 199.861 381.748 197.47C378.631 196.275 376.127 194.857 374.406 193.297C372.686 191.737 371.771 190.055 371.771 188.322C371.771 186.588 372.686 184.906 374.406 183.346C376.127 181.786 378.631 180.368 381.748 179.172C387.981 176.781 396.611 175.297 406.156 175.297Z" fill="#F0FDFA" stroke="#0D9488" stroke-width="0.535272"></path> <path d="M438.787 178V186.949C438.787 188.506 437.926 190.024 436.294 191.437C434.663 192.85 432.286 194.134 429.327 195.218C423.41 197.386 415.218 198.732 406.156 198.732C397.095 198.732 388.902 197.386 382.985 195.218C380.026 194.134 377.65 192.85 376.019 191.437C374.386 190.024 373.525 188.506 373.525 186.949V178H438.787Z" fill="#0D9488" stroke="#F0FDFA" stroke-width="0.535272"></path> <path d="M440.541 170.012V181.816C440.541 183.468 439.631 185.077 437.91 186.573C436.19 188.068 433.686 189.427 430.567 190.573C424.333 192.865 415.702 194.288 406.156 194.288C396.61 194.288 387.98 192.865 381.745 190.573C378.627 189.427 376.122 188.068 374.401 186.573C372.681 185.077 371.771 183.468 371.771 181.816V170.012H440.541Z" fill="#F0FDFA" stroke="#0D9488" stroke-width="0.535272"></path> <path d="M406.156 155.833C415.701 155.834 424.33 157.318 430.563 159.708C433.681 160.904 436.186 162.322 437.906 163.882C439.627 165.442 440.541 167.124 440.541 168.858C440.541 170.591 439.627 172.273 437.906 173.833C436.186 175.394 433.681 176.811 430.563 178.006C424.33 180.397 415.701 181.881 406.156 181.881C396.611 181.881 387.981 180.397 381.748 178.006C378.631 176.811 376.127 175.394 374.406 173.833C372.686 172.273 371.771 170.591 371.771 168.858C371.771 167.124 372.686 165.442 374.406 163.882C376.127 162.322 378.631 160.904 381.748 159.708C387.981 157.318 396.611 155.833 406.156 155.833Z" fill="#F0FDFA" stroke="#0D9488" stroke-width="0.535272"></path> <path d="M438.787 158.537V167.485C438.787 169.042 437.926 170.56 436.294 171.973C434.663 173.386 432.286 174.671 429.327 175.755C423.41 177.922 415.218 179.268 406.156 179.268C397.095 179.268 388.902 177.922 382.985 175.755C380.026 174.671 377.65 173.386 376.019 171.973C374.386 170.56 373.525 169.042 373.525 167.485V158.537H438.787Z" fill="#0D9488" stroke="#F0FDFA" stroke-width="0.535272"></path> <path d="M440.541 150.548V162.352C440.541 164.005 439.631 165.613 437.91 167.109C436.19 168.604 433.686 169.964 430.567 171.11C424.333 173.402 415.702 174.825 406.156 174.825C396.61 174.825 387.98 173.402 381.745 171.11C378.627 169.963 376.122 168.604 374.401 167.109C372.681 165.613 371.771 164.005 371.771 162.352V150.548H440.541Z" fill="#F0FDFA" stroke="#0D9488" stroke-width="0.535272"></path> <path d="M406.156 136.37C415.701 136.37 424.33 137.854 430.563 140.245C433.681 141.441 436.186 142.859 437.906 144.419C439.627 145.979 440.541 147.661 440.541 149.395C440.541 151.128 439.627 152.81 437.906 154.37C436.186 155.93 433.681 157.347 430.563 158.543C424.33 160.934 415.701 162.418 406.156 162.418C396.611 162.418 387.981 160.934 381.748 158.543C378.631 157.347 376.127 155.93 374.406 154.37C372.686 152.81 371.771 151.128 371.771 149.395C371.771 147.661 372.686 145.979 374.406 144.419C376.127 142.859 378.631 141.441 381.748 140.245C387.981 137.854 396.611 136.37 406.156 136.37Z" fill="#F0FDFA" stroke="#0D9488" stroke-width="0.535272"></path> <path d="M290.432 203.144C316.151 203.144 337.001 211.132 337.001 220.986C337.001 230.839 316.151 238.828 290.432 238.828C264.713 238.828 243.863 230.839 243.863 220.986C243.863 211.132 264.713 203.144 290.432 203.144Z" fill="url(#paint4_linear_2168_13501)" fill-opacity="0.5"></path> <path d="M290.432 203.412C303.267 203.412 314.876 205.405 323.266 208.62C327.461 210.227 330.838 212.134 333.161 214.239C335.485 216.343 336.733 218.624 336.733 220.986C336.733 223.347 335.484 225.627 333.161 227.732C330.838 229.836 327.461 231.745 323.266 233.352C314.876 236.566 303.267 238.56 290.432 238.56C277.596 238.56 265.988 236.566 257.599 233.352C253.403 231.745 250.026 229.836 247.702 227.732C245.379 225.628 244.131 223.347 244.131 220.986C244.131 218.624 245.379 216.343 247.702 214.239C250.026 212.134 253.403 210.227 257.599 208.62C265.988 205.405 277.596 203.412 290.432 203.412Z" fill="#CCFBF1" stroke="#F0FDFA" stroke-width="0.535272"></path> <path d="M324.678 208.939V220.743C324.678 222.396 323.768 224.004 322.047 225.5C320.327 226.995 317.822 228.354 314.704 229.501C308.47 231.793 299.839 233.216 290.293 233.216C280.747 233.216 272.116 231.793 265.882 229.501C262.764 228.354 260.258 226.995 258.538 225.5C256.817 224.004 255.907 222.396 255.907 220.743V208.939H324.678Z" fill="#F0FDFA" stroke="#0D9488" stroke-width="0.535272"></path> <path d="M290.293 194.761C299.838 194.761 308.467 196.245 314.7 198.636C317.818 199.832 320.323 201.25 322.043 202.81C323.763 204.37 324.678 206.052 324.678 207.786C324.678 209.519 323.763 211.201 322.043 212.761C320.323 214.321 317.818 215.738 314.7 216.934C308.467 219.325 299.838 220.809 290.293 220.809C280.748 220.809 272.118 219.325 265.885 216.934C262.768 215.738 260.263 214.321 258.543 212.761C256.823 211.201 255.907 209.519 255.907 207.786C255.907 206.052 256.823 204.37 258.543 202.81C260.263 201.25 262.767 199.832 265.885 198.636C272.118 196.245 280.748 194.761 290.293 194.761Z" fill="#F0FDFA" stroke="#0D9488" stroke-width="0.535272"></path> <path d="M322.924 197.464V206.413C322.924 207.97 322.063 209.487 320.431 210.901C318.799 212.314 316.423 213.598 313.464 214.682C307.547 216.85 299.355 218.196 290.293 218.196C281.231 218.196 273.039 216.85 267.122 214.682C264.163 213.598 261.787 212.314 260.155 210.901C258.523 209.487 257.662 207.97 257.662 206.413V197.464H322.924Z" fill="#0D9488" stroke="#F0FDFA" stroke-width="0.535272"></path> <path d="M324.678 189.476V201.28C324.678 202.932 323.768 204.541 322.047 206.036C320.327 207.532 317.822 208.891 314.704 210.037C308.47 212.329 299.839 213.752 290.293 213.752C280.747 213.752 272.116 212.329 265.882 210.037C262.764 208.891 260.258 207.532 258.538 206.036C256.817 204.541 255.907 202.932 255.907 201.28V189.476H324.678Z" fill="#F0FDFA" stroke="#0D9488" stroke-width="0.535272"></path> <path d="M290.293 175.298C299.838 175.298 308.467 176.782 314.7 179.173C317.818 180.368 320.323 181.786 322.043 183.346C323.763 184.907 324.678 186.589 324.678 188.322C324.678 190.055 323.763 191.738 322.043 193.298C320.323 194.858 317.818 196.275 314.7 197.47C308.467 199.861 299.838 201.345 290.293 201.345C280.748 201.345 272.118 199.861 265.885 197.47C262.768 196.275 260.263 194.858 258.543 193.298C256.823 191.738 255.907 190.055 255.907 188.322C255.907 186.588 256.823 184.907 258.543 183.346C260.263 181.786 262.767 180.368 265.885 179.173C272.118 176.782 280.748 175.298 290.293 175.298Z" fill="#F0FDFA" stroke="#0D9488" stroke-width="0.535272"></path> <path d="M322.924 178.001V186.949C322.924 188.506 322.063 190.024 320.431 191.437C318.799 192.85 316.423 194.134 313.464 195.219C307.547 197.386 299.355 198.732 290.293 198.732C281.231 198.732 273.039 197.386 267.122 195.219C264.163 194.134 261.787 192.85 260.155 191.437C258.523 190.024 257.662 188.506 257.662 186.949V178.001H322.924Z" fill="#0D9488" stroke="#F0FDFA" stroke-width="0.535272"></path> <path d="M324.678 170.012V181.816C324.678 183.469 323.768 185.077 322.047 186.573C320.327 188.068 317.822 189.427 314.704 190.574C308.47 192.866 299.839 194.289 290.293 194.289C280.747 194.289 272.116 192.866 265.882 190.574C262.764 189.427 260.258 188.068 258.538 186.573C256.817 185.077 255.907 183.469 255.907 181.816V170.012H324.678Z" fill="#F0FDFA" stroke="#0D9488" stroke-width="0.535272"></path> <path d="M290.293 155.834C299.838 155.834 308.467 157.318 314.7 159.709C317.818 160.905 320.323 162.323 322.043 163.883C323.763 165.443 324.678 167.125 324.678 168.859C324.678 170.592 323.763 172.274 322.043 173.834C320.323 175.394 317.818 176.811 314.7 178.007C308.467 180.398 299.838 181.882 290.293 181.882C280.748 181.882 272.118 180.398 265.885 178.007C262.768 176.811 260.263 175.394 258.543 173.834C256.823 172.274 255.907 170.592 255.907 168.859C255.907 167.125 256.823 165.443 258.543 163.883C260.263 162.323 262.767 160.905 265.885 159.709C272.118 157.318 280.748 155.834 290.293 155.834Z" fill="#F0FDFA" stroke="#0D9488" stroke-width="0.535272"></path> <path d="M174.568 203.144C200.287 203.144 221.137 211.132 221.138 220.985C221.138 230.839 200.288 238.827 174.568 238.827C148.849 238.827 128 230.839 128 220.985C128 211.132 148.85 203.144 174.568 203.144Z" fill="url(#paint5_linear_2168_13501)"></path> <path d="M174.568 203.411C187.404 203.411 199.013 205.405 207.402 208.619C211.598 210.227 214.975 212.134 217.298 214.239C219.621 216.343 220.87 218.624 220.87 220.986C220.87 223.347 219.621 225.627 217.298 227.732C214.974 229.836 211.598 231.744 207.402 233.352C199.013 236.566 187.404 238.56 174.568 238.56C161.733 238.56 150.125 236.566 141.735 233.352C137.54 231.744 134.162 229.836 131.839 227.732C129.516 225.627 128.268 223.347 128.268 220.986C128.268 218.624 129.515 216.343 131.839 214.239C134.162 212.134 137.54 210.227 141.735 208.619C150.125 205.405 161.733 203.411 174.568 203.411Z" fill="#99F6E4" stroke="#F0FDFA" stroke-width="0.535272"></path> <path d="M208.814 208.939V220.743C208.814 222.395 207.904 224.004 206.184 225.5C204.463 226.995 201.959 228.354 198.841 229.5C192.606 231.792 183.976 233.215 174.43 233.215C164.884 233.215 156.253 231.792 150.019 229.5C146.9 228.354 144.395 226.995 142.675 225.5C140.954 224.004 140.044 222.395 140.044 220.743V208.939H208.814Z" fill="#F0FDFA" stroke="#0D9488" stroke-width="0.535272"></path> <path d="M174.43 194.761C183.974 194.761 192.604 196.245 198.837 198.636C201.954 199.832 204.459 201.25 206.18 202.81C207.9 204.37 208.814 206.052 208.814 207.785C208.814 209.519 207.9 211.201 206.18 212.761C204.459 214.321 201.954 215.738 198.837 216.934C192.604 219.325 183.975 220.809 174.43 220.809C164.885 220.809 156.255 219.325 150.021 216.934C146.904 215.738 144.4 214.321 142.68 212.761C140.959 211.201 140.044 209.519 140.044 207.785C140.044 206.052 140.959 204.37 142.68 202.81C144.4 201.25 146.904 199.832 150.021 198.636C156.255 196.245 164.885 194.761 174.43 194.761Z" fill="#F0FDFA" stroke="#0D9488" stroke-width="0.535272"></path> <path d="M207.06 197.464V206.412C207.059 207.97 206.198 209.487 204.566 210.901C202.935 212.313 200.559 213.598 197.6 214.682C191.683 216.849 183.49 218.196 174.429 218.196C165.367 218.196 157.175 216.849 151.258 214.682C148.298 213.598 145.922 212.313 144.291 210.901C142.659 209.487 141.798 207.97 141.798 206.412V197.464H207.06Z" fill="#0D9488" stroke="#F0FDFA" stroke-width="0.535272"></path> <path d="M208.814 189.476V201.279C208.814 202.932 207.904 204.54 206.184 206.036C204.463 207.531 201.959 208.891 198.841 210.037C192.606 212.329 183.976 213.752 174.43 213.752C164.884 213.752 156.253 212.329 150.019 210.037C146.9 208.891 144.395 207.531 142.675 206.036C140.954 204.54 140.044 202.932 140.044 201.279V189.476H208.814Z" fill="#F0FDFA" stroke="#0D9488" stroke-width="0.535272"></path> <path d="M174.43 175.298C183.974 175.298 192.604 176.782 198.837 179.173C201.954 180.368 204.459 181.786 206.18 183.346C207.9 184.907 208.814 186.589 208.814 188.322C208.814 190.055 207.9 191.738 206.18 193.298C204.459 194.858 201.954 196.275 198.837 197.47C192.604 199.861 183.975 201.345 174.43 201.345C164.885 201.345 156.255 199.861 150.021 197.47C146.904 196.275 144.4 194.858 142.68 193.298C140.959 191.738 140.044 190.055 140.044 188.322C140.044 186.588 140.959 184.907 142.68 183.346C144.4 181.786 146.904 180.368 150.021 179.173C156.255 176.782 164.885 175.298 174.43 175.298Z" fill="#F0FDFA" stroke="#0D9488" stroke-width="0.535272"></path> <g filter="url(#filter1_dd_2168_13501)"> <rect x="70" y="32.0686" width="386" height="40.4022" rx="8" fill="#F9FAFB"></rect> <rect x="70.5" y="32.5686" width="385" height="39.4022" rx="7.5" stroke="#E5E7EB"></rect> <g filter="url(#filter2_dddddd_2168_13501)"> <circle cx="86" cy="51.0686" r="3" fill="#0D9488"></circle> <circle cx="86" cy="51.0686" r="2.68942" stroke="#F3F4F6" stroke-width="0.621156"></circle> </g> <path d="M101.92 56.8686V49.5686H102.82V50.6186H103L102.82 50.8286C102.82 50.4086 102.957 50.0786 103.23 49.8386C103.51 49.5919 103.877 49.4686 104.33 49.4686C104.883 49.4686 105.323 49.6519 105.65 50.0186C105.983 50.3786 106.15 50.8753 106.15 51.5086V53.1186C106.15 53.5386 106.073 53.9019 105.92 54.2086C105.773 54.5153 105.563 54.7519 105.29 54.9186C105.023 55.0853 104.703 55.1686 104.33 55.1686C103.883 55.1686 103.52 55.0453 103.24 54.7986C102.96 54.5519 102.82 54.2219 102.82 53.8086L103 54.0186H102.8L102.82 55.2686V56.8686H101.92ZM104.03 54.3886C104.41 54.3886 104.707 54.2753 104.92 54.0486C105.14 53.8219 105.25 53.4953 105.25 53.0686V51.5686C105.25 51.1419 105.14 50.8153 104.92 50.5886C104.707 50.3619 104.41 50.2486 104.03 50.2486C103.663 50.2486 103.37 50.3653 103.15 50.5986C102.93 50.8319 102.82 51.1553 102.82 51.5686V53.0686C102.82 53.4819 102.93 53.8053 103.15 54.0386C103.37 54.2719 103.663 54.3886 104.03 54.3886ZM109.996 55.1486C109.556 55.1486 109.176 55.0653 108.856 54.8986C108.536 54.7319 108.286 54.4919 108.106 54.1786C107.933 53.8586 107.846 53.4819 107.846 53.0486V51.5886C107.846 51.1486 107.933 50.7719 108.106 50.4586C108.286 50.1453 108.536 49.9053 108.856 49.7386C109.176 49.5719 109.556 49.4886 109.996 49.4886C110.436 49.4886 110.816 49.5719 111.136 49.7386C111.456 49.9053 111.703 50.1453 111.876 50.4586C112.056 50.7719 112.146 51.1453 112.146 51.5786V53.0486C112.146 53.4819 112.056 53.8586 111.876 54.1786C111.703 54.4919 111.456 54.7319 111.136 54.8986C110.816 55.0653 110.436 55.1486 109.996 55.1486ZM109.996 54.3486C110.389 54.3486 110.696 54.2386 110.916 54.0186C111.136 53.7986 111.246 53.4753 111.246 53.0486V51.5886C111.246 51.1619 111.136 50.8386 110.916 50.6186C110.696 50.3986 110.389 50.2886 109.996 50.2886C109.609 50.2886 109.303 50.3986 109.076 50.6186C108.856 50.8386 108.746 51.1619 108.746 51.5886V53.0486C108.746 53.4753 108.856 53.7986 109.076 54.0186C109.303 54.2386 109.609 54.3486 109.996 54.3486ZM115.822 55.1486C115.449 55.1486 115.122 55.0919 114.842 54.9786C114.569 54.8586 114.349 54.6919 114.182 54.4786C114.022 54.2653 113.926 54.0119 113.892 53.7186H114.792C114.832 53.9119 114.939 54.0653 115.112 54.1786C115.292 54.2919 115.529 54.3486 115.822 54.3486H116.242C116.596 54.3486 116.859 54.2786 117.032 54.1386C117.206 53.9919 117.292 53.7986 117.292 53.5586C117.292 53.3253 117.212 53.1419 117.052 53.0086C116.899 52.8686 116.669 52.7753 116.362 52.7286L115.622 52.6086C115.082 52.5153 114.679 52.3486 114.412 52.1086C114.152 51.8619 114.022 51.5053 114.022 51.0386C114.022 50.5453 114.179 50.1653 114.492 49.8986C114.806 49.6253 115.276 49.4886 115.902 49.4886H116.282C116.809 49.4886 117.232 49.6119 117.552 49.8586C117.872 50.1053 118.066 50.4386 118.132 50.8586H117.232C117.192 50.6853 117.092 50.5486 116.932 50.4486C116.772 50.3419 116.556 50.2886 116.282 50.2886H115.902C115.562 50.2886 115.312 50.3519 115.152 50.4786C114.999 50.6053 114.922 50.7953 114.922 51.0486C114.922 51.2753 114.989 51.4419 115.122 51.5486C115.256 51.6553 115.466 51.7319 115.752 51.7786L116.492 51.8986C117.086 51.9919 117.516 52.1653 117.782 52.4186C118.056 52.6719 118.192 53.0386 118.192 53.5186C118.192 54.0253 118.029 54.4253 117.702 54.7186C117.382 55.0053 116.896 55.1486 116.242 55.1486H115.822ZM122.588 55.0686C122.115 55.0686 121.745 54.9419 121.478 54.6886C121.218 54.4353 121.088 54.0786 121.088 53.6186V50.3886H119.538V49.5686H121.088V48.0186H121.988V49.5686H124.188V50.3886H121.988V53.6186C121.988 54.0386 122.188 54.2486 122.588 54.2486H124.088V55.0686H122.588ZM126.594 56.8686V56.0486H128.344C128.624 56.0486 128.828 55.9853 128.954 55.8586C129.088 55.7319 129.154 55.5353 129.154 55.2686V54.5686L129.174 53.5686H128.994L129.164 53.4186C129.164 53.8186 129.031 54.1353 128.764 54.3686C128.498 54.6019 128.141 54.7186 127.694 54.7186C127.128 54.7186 126.681 54.5353 126.354 54.1686C126.028 53.7953 125.864 53.2953 125.864 52.6686V51.5086C125.864 50.8819 126.028 50.3853 126.354 50.0186C126.681 49.6519 127.128 49.4686 127.694 49.4686C128.141 49.4686 128.498 49.5853 128.764 49.8186C129.031 50.0519 129.164 50.3686 129.164 50.7686L128.994 50.6186H129.164V49.5686H130.054V55.2686C130.054 55.7619 129.901 56.1519 129.594 56.4386C129.294 56.7253 128.874 56.8686 128.334 56.8686H126.594ZM127.964 53.9386C128.338 53.9386 128.631 53.8219 128.844 53.5886C129.058 53.3553 129.164 53.0319 129.164 52.6186V51.5686C129.164 51.1553 129.058 50.8319 128.844 50.5986C128.631 50.3653 128.338 50.2486 127.964 50.2486C127.584 50.2486 127.288 50.3619 127.074 50.5886C126.868 50.8153 126.764 51.1419 126.764 51.5686V52.6186C126.764 53.0453 126.868 53.3719 127.074 53.5986C127.288 53.8253 127.584 53.9386 127.964 53.9386ZM132.09 55.0686V49.5686H132.97V50.6186H133.18L132.89 51.2686C132.89 50.6753 133.017 50.2286 133.27 49.9286C133.53 49.6219 133.914 49.4686 134.42 49.4686C135 49.4686 135.46 49.6519 135.8 50.0186C136.147 50.3786 136.32 50.8686 136.32 51.4886V51.8186H135.42V51.5686C135.42 51.1353 135.314 50.8053 135.1 50.5786C134.894 50.3453 134.597 50.2286 134.21 50.2286C133.83 50.2286 133.53 50.3453 133.31 50.5786C133.097 50.8119 132.99 51.1419 132.99 51.5686V55.0686H132.09ZM139.977 55.1686C139.543 55.1686 139.163 55.0819 138.837 54.9086C138.517 54.7353 138.267 54.4919 138.087 54.1786C137.913 53.8586 137.827 53.4886 137.827 53.0686V51.5686C137.827 51.1419 137.913 50.7719 138.087 50.4586C138.267 50.1453 138.517 49.9019 138.837 49.7286C139.163 49.5553 139.543 49.4686 139.977 49.4686C140.41 49.4686 140.787 49.5553 141.107 49.7286C141.433 49.9019 141.683 50.1453 141.857 50.4586C142.037 50.7719 142.127 51.1419 142.127 51.5686V52.5386H138.707V53.0686C138.707 53.5019 138.817 53.8353 139.037 54.0686C139.257 54.2953 139.57 54.4086 139.977 54.4086C140.323 54.4086 140.603 54.3486 140.817 54.2286C141.03 54.1019 141.16 53.9153 141.207 53.6686H142.107C142.047 54.1286 141.82 54.4953 141.427 54.7686C141.04 55.0353 140.557 55.1686 139.977 55.1686ZM141.247 51.9386V51.5686C141.247 51.1353 141.137 50.8019 140.917 50.5686C140.703 50.3353 140.39 50.2186 139.977 50.2186C139.57 50.2186 139.257 50.3353 139.037 50.5686C138.817 50.8019 138.707 51.1353 138.707 51.5686V51.8586H141.317L141.247 51.9386ZM145.803 55.1486C145.429 55.1486 145.103 55.0919 144.823 54.9786C144.549 54.8586 144.329 54.6919 144.163 54.4786C144.003 54.2653 143.906 54.0119 143.873 53.7186H144.773C144.813 53.9119 144.919 54.0653 145.093 54.1786C145.273 54.2919 145.509 54.3486 145.803 54.3486H146.223C146.576 54.3486 146.839 54.2786 147.013 54.1386C147.186 53.9919 147.273 53.7986 147.273 53.5586C147.273 53.3253 147.193 53.1419 147.033 53.0086C146.879 52.8686 146.649 52.7753 146.343 52.7286L145.603 52.6086C145.063 52.5153 144.659 52.3486 144.393 52.1086C144.133 51.8619 144.003 51.5053 144.003 51.0386C144.003 50.5453 144.159 50.1653 144.473 49.8986C144.786 49.6253 145.256 49.4886 145.883 49.4886H146.263C146.789 49.4886 147.213 49.6119 147.533 49.8586C147.853 50.1053 148.046 50.4386 148.113 50.8586H147.213C147.173 50.6853 147.073 50.5486 146.913 50.4486C146.753 50.3419 146.536 50.2886 146.263 50.2886H145.883C145.543 50.2886 145.293 50.3519 145.133 50.4786C144.979 50.6053 144.903 50.7953 144.903 51.0486C144.903 51.2753 144.969 51.4419 145.103 51.5486C145.236 51.6553 145.446 51.7319 145.733 51.7786L146.473 51.8986C147.066 51.9919 147.496 52.1653 147.763 52.4186C148.036 52.6719 148.173 53.0386 148.173 53.5186C148.173 54.0253 148.009 54.4253 147.683 54.7186C147.363 55.0053 146.876 55.1486 146.223 55.1486H145.803ZM151.969 50.9686C151.722 50.9686 151.522 50.9019 151.369 50.7686C151.215 50.6286 151.139 50.4453 151.139 50.2186C151.139 49.9919 151.215 49.8119 151.369 49.6786C151.522 49.5386 151.722 49.4686 151.969 49.4686C152.222 49.4686 152.422 49.5386 152.569 49.6786C152.722 49.8119 152.799 49.9919 152.799 50.2186C152.799 50.4453 152.722 50.6286 152.569 50.7686C152.422 50.9019 152.222 50.9686 151.969 50.9686ZM151.969 55.1686C151.722 55.1686 151.522 55.1019 151.369 54.9686C151.215 54.8286 151.139 54.6453 151.139 54.4186C151.139 54.1919 151.215 54.0119 151.369 53.8786C151.522 53.7386 151.722 53.6686 151.969 53.6686C152.222 53.6686 152.422 53.7386 152.569 53.8786C152.722 54.0119 152.799 54.1919 152.799 54.4186C152.799 54.6453 152.722 54.8286 152.569 54.9686C152.422 55.1019 152.222 55.1686 151.969 55.1686ZM160.961 56.1686L164.511 46.7686H165.461L161.911 56.1686H160.961ZM156.461 56.1686L160.011 46.7686H160.961L157.411 56.1686H156.461ZM167.857 55.0686V54.2486H169.837V48.5186L167.857 49.9986V48.9986L169.507 47.7686H170.737V54.2486H172.357V55.0686H167.857ZM173.873 55.0686V54.1486L176.103 51.7786C176.483 51.3719 176.76 51.0119 176.933 50.6986C177.106 50.3786 177.193 50.0719 177.193 49.7786C177.193 49.3719 177.08 49.0519 176.853 48.8186C176.633 48.5853 176.33 48.4686 175.943 48.4686C175.516 48.4686 175.18 48.5886 174.933 48.8286C174.693 49.0686 174.573 49.3986 174.573 49.8186H173.673C173.686 49.3786 173.786 48.9986 173.973 48.6786C174.166 48.3519 174.43 48.1019 174.763 47.9286C175.103 47.7553 175.496 47.6686 175.943 47.6686C176.383 47.6686 176.763 47.7553 177.083 47.9286C177.41 48.0953 177.66 48.3353 177.833 48.6486C178.006 48.9619 178.093 49.3353 178.093 49.7686C178.093 50.1819 177.983 50.5919 177.763 50.9986C177.543 51.4053 177.183 51.8686 176.683 52.3886L174.883 54.2486H178.213V55.0686H173.873ZM181.949 55.1686C181.516 55.1686 181.136 55.0819 180.809 54.9086C180.489 54.7353 180.239 54.4919 180.059 54.1786C179.886 53.8586 179.799 53.4886 179.799 53.0686V51.5686C179.799 51.1419 179.886 50.7719 180.059 50.4586C180.239 50.1453 180.489 49.9019 180.809 49.7286C181.136 49.5553 181.516 49.4686 181.949 49.4686C182.383 49.4686 182.759 49.5553 183.079 49.7286C183.406 49.9019 183.656 50.1453 183.829 50.4586C184.009 50.7719 184.099 51.1419 184.099 51.5686V52.5386H180.679V53.0686C180.679 53.5019 180.789 53.8353 181.009 54.0686C181.229 54.2953 181.543 54.4086 181.949 54.4086C182.296 54.4086 182.576 54.3486 182.789 54.2286C183.003 54.1019 183.133 53.9153 183.179 53.6686H184.079C184.019 54.1286 183.793 54.4953 183.399 54.7686C183.013 55.0353 182.529 55.1686 181.949 55.1686ZM183.219 51.9386V51.5686C183.219 51.1353 183.109 50.8019 182.889 50.5686C182.676 50.3353 182.363 50.2186 181.949 50.2186C181.543 50.2186 181.229 50.3353 181.009 50.5686C180.789 50.8019 180.679 51.1353 180.679 51.5686V51.8586H183.289L183.219 51.9386ZM187.925 55.1686C187.332 55.1686 186.845 55.0153 186.465 54.7086C186.085 54.4019 185.862 53.9886 185.795 53.4686H186.695C186.729 53.7553 186.852 53.9786 187.065 54.1386C187.279 54.2919 187.569 54.3686 187.935 54.3686C188.355 54.3686 188.669 54.2553 188.875 54.0286C189.089 53.8019 189.195 53.4819 189.195 53.0686V52.3586C189.195 51.9453 189.089 51.6253 188.875 51.3986C188.669 51.1719 188.359 51.0586 187.945 51.0586C187.685 51.0586 187.459 51.1286 187.265 51.2686C187.072 51.4019 186.932 51.5819 186.845 51.8086H185.945L185.995 47.7686H189.835V48.5886H186.865L186.835 51.0186H187.115L186.835 51.2786C186.835 50.9653 186.959 50.7186 187.205 50.5386C187.459 50.3586 187.795 50.2686 188.215 50.2686C188.809 50.2619 189.269 50.4453 189.595 50.8186C189.929 51.1853 190.095 51.6986 190.095 52.3586V53.0686C190.095 53.7153 189.905 54.2286 189.525 54.6086C189.145 54.9819 188.612 55.1686 187.925 55.1686ZM193.621 55.1686C193.075 55.1686 192.631 54.9853 192.291 54.6186C191.958 54.2519 191.791 53.7553 191.791 53.1286V51.5186C191.791 50.8853 191.958 50.3853 192.291 50.0186C192.625 49.6519 193.068 49.4686 193.621 49.4686C194.075 49.4686 194.438 49.5919 194.711 49.8386C194.985 50.0853 195.121 50.4153 195.121 50.8286L194.941 50.6186H195.141L195.121 49.3686V47.7686H196.021V55.0686H195.121V54.0186H194.941L195.121 53.8086C195.121 54.2286 194.985 54.5619 194.711 54.8086C194.438 55.0486 194.075 55.1686 193.621 55.1686ZM193.921 54.3886C194.295 54.3886 194.588 54.2719 194.801 54.0386C195.015 53.8053 195.121 53.4819 195.121 53.0686V51.5686C195.121 51.1553 195.015 50.8319 194.801 50.5986C194.588 50.3653 194.295 50.2486 193.921 50.2486C193.541 50.2486 193.241 50.3619 193.021 50.5886C192.801 50.8153 192.691 51.1419 192.691 51.5686V53.0686C192.691 53.4953 192.801 53.8219 193.021 54.0486C193.241 54.2753 193.541 54.3886 193.921 54.3886ZM199.458 55.1686C198.878 55.1686 198.421 55.0219 198.088 54.7286C197.754 54.4286 197.588 54.0253 197.588 53.5186C197.588 53.0053 197.754 52.6019 198.088 52.3086C198.421 52.0153 198.871 51.8686 199.438 51.8686H201.138V51.3186C201.138 50.9786 201.034 50.7186 200.828 50.5386C200.628 50.3519 200.341 50.2586 199.968 50.2586C199.641 50.2586 199.368 50.3286 199.148 50.4686C198.928 50.6019 198.801 50.7853 198.768 51.0186H197.868C197.928 50.5453 198.151 50.1686 198.538 49.8886C198.924 49.6086 199.408 49.4686 199.988 49.4686C200.621 49.4686 201.121 49.6319 201.488 49.9586C201.854 50.2853 202.038 50.7286 202.038 51.2886V55.0686H201.158V54.0186H201.008L201.158 53.8686C201.158 54.2686 201.001 54.5853 200.688 54.8186C200.381 55.0519 199.971 55.1686 199.458 55.1686ZM199.678 54.4586C200.104 54.4586 200.454 54.3519 200.728 54.1386C201.001 53.9253 201.138 53.6519 201.138 53.3186V52.5386H199.458C199.158 52.5386 198.921 52.6219 198.748 52.7886C198.574 52.9553 198.488 53.1819 198.488 53.4686C198.488 53.7753 198.591 54.0186 198.798 54.1986C199.011 54.3719 199.304 54.4586 199.678 54.4586ZM205.454 55.1686C204.874 55.1686 204.417 55.0219 204.084 54.7286C203.75 54.4286 203.584 54.0253 203.584 53.5186C203.584 53.0053 203.75 52.6019 204.084 52.3086C204.417 52.0153 204.867 51.8686 205.434 51.8686H207.134V51.3186C207.134 50.9786 207.03 50.7186 206.824 50.5386C206.624 50.3519 206.337 50.2586 205.964 50.2586C205.637 50.2586 205.364 50.3286 205.144 50.4686C204.924 50.6019 204.797 50.7853 204.764 51.0186H203.864C203.924 50.5453 204.147 50.1686 204.534 49.8886C204.92 49.6086 205.404 49.4686 205.984 49.4686C206.617 49.4686 207.117 49.6319 207.484 49.9586C207.85 50.2853 208.034 50.7286 208.034 51.2886V55.0686H207.154V54.0186H207.004L207.154 53.8686C207.154 54.2686 206.997 54.5853 206.684 54.8186C206.377 55.0519 205.967 55.1686 205.454 55.1686ZM205.674 54.4586C206.1 54.4586 206.45 54.3519 206.724 54.1386C206.997 53.9253 207.134 53.6519 207.134 53.3186V52.5386H205.454C205.154 52.5386 204.917 52.6219 204.744 52.7886C204.57 52.9553 204.484 53.1819 204.484 53.4686C204.484 53.7753 204.587 54.0186 204.794 54.1986C205.007 54.3719 205.3 54.4586 205.674 54.4586ZM211.91 55.1686C211.316 55.1686 210.83 55.0153 210.45 54.7086C210.07 54.4019 209.846 53.9886 209.78 53.4686H210.68C210.713 53.7553 210.836 53.9786 211.05 54.1386C211.263 54.2919 211.553 54.3686 211.92 54.3686C212.34 54.3686 212.653 54.2553 212.86 54.0286C213.073 53.8019 213.18 53.4819 213.18 53.0686V52.3586C213.18 51.9453 213.073 51.6253 212.86 51.3986C212.653 51.1719 212.343 51.0586 211.93 51.0586C211.67 51.0586 211.443 51.1286 211.25 51.2686C211.056 51.4019 210.916 51.5819 210.83 51.8086H209.93L209.98 47.7686H213.82V48.5886H210.85L210.82 51.0186H211.1L210.82 51.2786C210.82 50.9653 210.943 50.7186 211.19 50.5386C211.443 50.3586 211.78 50.2686 212.2 50.2686C212.793 50.2619 213.253 50.4453 213.58 50.8186C213.913 51.1853 214.08 51.6986 214.08 52.3586V53.0686C214.08 53.7153 213.89 54.2286 213.51 54.6086C213.13 54.9819 212.596 55.1686 211.91 55.1686ZM217.926 50.9686C217.679 50.9686 217.479 50.9019 217.326 50.7686C217.172 50.6286 217.096 50.4453 217.096 50.2186C217.096 49.9919 217.172 49.8119 217.326 49.6786C217.479 49.5386 217.679 49.4686 217.926 49.4686C218.179 49.4686 218.379 49.5386 218.526 49.6786C218.679 49.8119 218.756 49.9919 218.756 50.2186C218.756 50.4453 218.679 50.6286 218.526 50.7686C218.379 50.9019 218.179 50.9686 217.926 50.9686ZM217.926 55.1686C217.679 55.1686 217.479 55.1019 217.326 54.9686C217.172 54.8286 217.096 54.6453 217.096 54.4186C217.096 54.1919 217.172 54.0119 217.326 53.8786C217.479 53.7386 217.679 53.6686 217.926 53.6686C218.179 53.6686 218.379 53.7386 218.526 53.8786C218.679 54.0119 218.756 54.1919 218.756 54.4186C218.756 54.6453 218.679 54.8286 218.526 54.9686C218.379 55.1019 218.179 55.1686 217.926 55.1686ZM223.752 55.1486C223.379 55.1486 223.052 55.0919 222.772 54.9786C222.499 54.8586 222.279 54.6919 222.112 54.4786C221.952 54.2653 221.855 54.0119 221.822 53.7186H222.722C222.762 53.9119 222.869 54.0653 223.042 54.1786C223.222 54.2919 223.459 54.3486 223.752 54.3486H224.172C224.525 54.3486 224.789 54.2786 224.962 54.1386C225.135 53.9919 225.222 53.7986 225.222 53.5586C225.222 53.3253 225.142 53.1419 224.982 53.0086C224.829 52.8686 224.599 52.7753 224.292 52.7286L223.552 52.6086C223.012 52.5153 222.609 52.3486 222.342 52.1086C222.082 51.8619 221.952 51.5053 221.952 51.0386C221.952 50.5453 222.109 50.1653 222.422 49.8986C222.735 49.6253 223.205 49.4886 223.832 49.4886H224.212C224.739 49.4886 225.162 49.6119 225.482 49.8586C225.802 50.1053 225.995 50.4386 226.062 50.8586H225.162C225.122 50.6853 225.022 50.5486 224.862 50.4486C224.702 50.3419 224.485 50.2886 224.212 50.2886H223.832C223.492 50.2886 223.242 50.3519 223.082 50.4786C222.929 50.6053 222.852 50.7953 222.852 51.0486C222.852 51.2753 222.919 51.4419 223.052 51.5486C223.185 51.6553 223.395 51.7319 223.682 51.7786L224.422 51.8986C225.015 51.9919 225.445 52.1653 225.712 52.4186C225.985 52.6719 226.122 53.0386 226.122 53.5186C226.122 54.0253 225.959 54.4253 225.632 54.7186C225.312 55.0053 224.825 55.1486 224.172 55.1486H223.752ZM227.868 55.0686V47.7686H228.768V51.8386H229.828L231.428 49.5686H232.458L230.608 52.1886L232.488 55.0686H231.438L229.838 52.6186H228.768V55.0686H227.868ZM233.514 56.0686V55.3186H238.314V56.0686H233.514ZM239.84 55.0686V47.7686H240.74V50.8886H243.08V47.7686H243.98V55.0686H243.08V51.7086H240.74V55.0686H239.84ZM247.736 55.1486C247.363 55.1486 247.036 55.0919 246.756 54.9786C246.483 54.8586 246.263 54.6919 246.096 54.4786C245.936 54.2653 245.84 54.0119 245.806 53.7186H246.706C246.746 53.9119 246.853 54.0653 247.026 54.1786C247.206 54.2919 247.443 54.3486 247.736 54.3486H248.156C248.51 54.3486 248.773 54.2786 248.946 54.1386C249.12 53.9919 249.206 53.7986 249.206 53.5586C249.206 53.3253 249.126 53.1419 248.966 53.0086C248.813 52.8686 248.583 52.7753 248.276 52.7286L247.536 52.6086C246.996 52.5153 246.593 52.3486 246.326 52.1086C246.066 51.8619 245.936 51.5053 245.936 51.0386C245.936 50.5453 246.093 50.1653 246.406 49.8986C246.72 49.6253 247.19 49.4886 247.816 49.4886H248.196C248.723 49.4886 249.146 49.6119 249.466 49.8586C249.786 50.1053 249.98 50.4386 250.046 50.8586H249.146C249.106 50.6853 249.006 50.5486 248.846 50.4486C248.686 50.3419 248.47 50.2886 248.196 50.2886H247.816C247.476 50.2886 247.226 50.3519 247.066 50.4786C246.913 50.6053 246.836 50.7953 246.836 51.0486C246.836 51.2753 246.903 51.4419 247.036 51.5486C247.17 51.6553 247.38 51.7319 247.666 51.7786L248.406 51.8986C249 51.9919 249.43 52.1653 249.696 52.4186C249.97 52.6719 250.106 53.0386 250.106 53.5186C250.106 54.0253 249.943 54.4253 249.616 54.7186C249.296 55.0053 248.81 55.1486 248.156 55.1486H247.736ZM251.902 55.0686V47.7686H256.102V48.5886H252.792V50.8486H255.752V51.6586H252.792V54.2486H256.102V55.0686H251.902ZM259.938 55.1686C259.498 55.1686 259.112 55.0853 258.778 54.9186C258.452 54.7519 258.198 54.5119 258.018 54.1986C257.838 53.8786 257.748 53.5019 257.748 53.0686V51.5686C257.748 51.1286 257.838 50.7519 258.018 50.4386C258.198 50.1253 258.452 49.8853 258.778 49.7186C259.112 49.5519 259.498 49.4686 259.938 49.4686C260.572 49.4686 261.082 49.6386 261.468 49.9786C261.855 50.3186 262.058 50.7819 262.078 51.3686H261.178C261.158 51.0153 261.038 50.7453 260.818 50.5586C260.605 50.3653 260.312 50.2686 259.938 50.2686C259.545 50.2686 259.232 50.3819 258.998 50.6086C258.765 50.8286 258.648 51.1453 258.648 51.5586V53.0686C258.648 53.4819 258.765 53.8019 258.998 54.0286C259.232 54.2553 259.545 54.3686 259.938 54.3686C260.312 54.3686 260.605 54.2719 260.818 54.0786C261.038 53.8853 261.158 53.6153 261.178 53.2686H262.078C262.058 53.8553 261.855 54.3186 261.468 54.6586C261.082 54.9986 260.572 55.1686 259.938 55.1686ZM264.765 55.0686L266.835 51.7486L266.795 51.7186C266.668 51.9053 266.495 52.0486 266.275 52.1486C266.055 52.2486 265.808 52.2986 265.535 52.2986C265.141 52.2986 264.795 52.2053 264.495 52.0186C264.201 51.8319 263.975 51.5686 263.815 51.2286C263.655 50.8819 263.575 50.4786 263.575 50.0186C263.575 49.5453 263.671 49.1353 263.865 48.7886C264.058 48.4353 264.328 48.1619 264.675 47.9686C265.021 47.7686 265.425 47.6686 265.885 47.6686C266.351 47.6686 266.758 47.7686 267.105 47.9686C267.458 48.1619 267.731 48.4353 267.925 48.7886C268.118 49.1353 268.215 49.5453 268.215 50.0186C268.215 50.3853 268.161 50.7453 268.055 51.0986C267.955 51.4519 267.801 51.7919 267.595 52.1186L265.765 55.0686H264.765ZM265.895 51.5686C266.321 51.5686 266.665 51.4286 266.925 51.1486C267.185 50.8619 267.315 50.4853 267.315 50.0186C267.315 49.5519 267.185 49.1786 266.925 48.8986C266.665 48.6119 266.321 48.4686 265.895 48.4686C265.468 48.4686 265.125 48.6119 264.865 48.8986C264.605 49.1786 264.475 49.5519 264.475 50.0186C264.475 50.4853 264.605 50.8619 264.865 51.1486C265.125 51.4286 265.468 51.5686 265.895 51.5686ZM272.641 55.0686C272.321 55.0686 272.041 55.0053 271.801 54.8786C271.561 54.7519 271.374 54.5719 271.241 54.3386C271.107 54.1053 271.041 53.8319 271.041 53.5186V48.5886H269.191V47.7686H271.941V53.5186C271.941 53.7453 272.004 53.9253 272.131 54.0586C272.257 54.1853 272.427 54.2486 272.641 54.2486H274.391V55.0686H272.641ZM275.817 55.0686V47.7686H276.717V50.8886H279.057V47.7686H279.957V55.0686H279.057V51.7086H276.717V55.0686H275.817ZM284.133 56.8686C283.566 56.8686 283.073 56.7486 282.653 56.5086C282.233 56.2753 281.906 55.9386 281.673 55.4986C281.446 55.0653 281.333 54.5553 281.333 53.9686V50.5686C281.333 49.9686 281.439 49.4519 281.653 49.0186C281.873 48.5853 282.183 48.2519 282.583 48.0186C282.989 47.7853 283.473 47.6686 284.033 47.6686C284.539 47.6686 284.976 47.7686 285.343 47.9686C285.709 48.1619 285.989 48.4419 286.183 48.8086C286.383 49.1753 286.483 49.6119 286.483 50.1186V54.4186H285.773V53.8686H285.493L285.683 53.6686C285.683 53.9219 285.586 54.1286 285.393 54.2886C285.199 54.4419 284.943 54.5186 284.623 54.5186C284.189 54.5186 283.856 54.3886 283.623 54.1286C283.396 53.8619 283.283 53.4753 283.283 52.9686V51.7686C283.283 51.2619 283.396 50.8786 283.623 50.6186C283.856 50.3519 284.189 50.2186 284.623 50.2186C284.943 50.2186 285.199 50.2986 285.393 50.4586C285.586 50.6119 285.683 50.8186 285.683 51.0786L285.543 50.8686H285.783L285.683 50.1686V50.1186C285.683 49.7386 285.619 49.4186 285.493 49.1586C285.366 48.8986 285.179 48.7019 284.933 48.5686C284.693 48.4353 284.393 48.3686 284.033 48.3686C283.433 48.3686 282.966 48.5619 282.633 48.9486C282.299 49.3353 282.133 49.8753 282.133 50.5686V53.9686C282.133 54.6353 282.309 55.1586 282.663 55.5386C283.023 55.9253 283.513 56.1186 284.133 56.1186H284.833V56.8686H284.133ZM284.883 53.8886C285.156 53.8886 285.356 53.8053 285.483 53.6386C285.616 53.4719 285.683 53.2153 285.683 52.8686V51.7586C285.683 51.4453 285.616 51.2153 285.483 51.0686C285.356 50.9219 285.156 50.8486 284.883 50.8486C284.616 50.8486 284.416 50.9253 284.283 51.0786C284.149 51.2253 284.083 51.4553 284.083 51.7686V52.9686C284.083 53.2819 284.149 53.5153 284.283 53.6686C284.416 53.8153 284.616 53.8886 284.883 53.8886ZM289.559 55.1686C289.012 55.1686 288.569 54.9853 288.229 54.6186C287.896 54.2519 287.729 53.7553 287.729 53.1286V51.5186C287.729 50.8853 287.896 50.3853 288.229 50.0186C288.562 49.6519 289.006 49.4686 289.559 49.4686C290.012 49.4686 290.376 49.5919 290.649 49.8386C290.922 50.0853 291.059 50.4153 291.059 50.8286L290.879 50.6186H291.079L291.059 49.3686V47.7686H291.959V55.0686H291.059V54.0186H290.879L291.059 53.8086C291.059 54.2286 290.922 54.5619 290.649 54.8086C290.376 55.0486 290.012 55.1686 289.559 55.1686ZM289.859 54.3886C290.232 54.3886 290.526 54.2719 290.739 54.0386C290.952 53.8053 291.059 53.4819 291.059 53.0686V51.5686C291.059 51.1553 290.952 50.8319 290.739 50.5986C290.526 50.3653 290.232 50.2486 289.859 50.2486C289.479 50.2486 289.179 50.3619 288.959 50.5886C288.739 50.8153 288.629 51.1419 288.629 51.5686V53.0686C288.629 53.4953 288.739 53.8219 288.959 54.0486C289.179 54.2753 289.479 54.3886 289.859 54.3886ZM296.195 55.1686C295.742 55.1686 295.378 55.0486 295.105 54.8086C294.832 54.5619 294.695 54.2286 294.695 53.8086L294.875 54.0186H294.695V55.0686H293.795V47.7686H294.695V49.3686L294.675 50.6186H294.875L294.695 50.8286C294.695 50.4153 294.832 50.0853 295.105 49.8386C295.385 49.5919 295.748 49.4686 296.195 49.4686C296.748 49.4686 297.192 49.6519 297.525 50.0186C297.858 50.3853 298.025 50.8853 298.025 51.5186V53.1286C298.025 53.7553 297.858 54.2519 297.525 54.6186C297.192 54.9853 296.748 55.1686 296.195 55.1686ZM295.895 54.3886C296.275 54.3886 296.575 54.2753 296.795 54.0486C297.015 53.8219 297.125 53.4953 297.125 53.0686V51.5686C297.125 51.1419 297.015 50.8153 296.795 50.5886C296.575 50.3619 296.275 50.2486 295.895 50.2486C295.528 50.2486 295.235 50.3653 295.015 50.5986C294.802 50.8319 294.695 51.1553 294.695 51.5686V53.0686C294.695 53.4819 294.802 53.8053 295.015 54.0386C295.235 54.2719 295.528 54.3886 295.895 54.3886ZM301.871 55.1686C301.618 55.1686 301.414 55.0953 301.261 54.9486C301.114 54.8019 301.041 54.6053 301.041 54.3586C301.041 54.0986 301.114 53.8919 301.261 53.7386C301.414 53.5853 301.618 53.5086 301.871 53.5086C302.124 53.5086 302.324 53.5853 302.471 53.7386C302.624 53.8919 302.701 54.0986 302.701 54.3586C302.701 54.6053 302.624 54.8019 302.471 54.9486C302.324 55.0953 302.124 55.1686 301.871 55.1686ZM305.787 56.8686V49.5686H306.687V50.6186H306.867L306.687 50.8286C306.687 50.4086 306.824 50.0786 307.097 49.8386C307.377 49.5919 307.744 49.4686 308.197 49.4686C308.751 49.4686 309.191 49.6519 309.517 50.0186C309.851 50.3786 310.017 50.8753 310.017 51.5086V53.1186C310.017 53.5386 309.941 53.9019 309.787 54.2086C309.641 54.5153 309.431 54.7519 309.157 54.9186C308.891 55.0853 308.571 55.1686 308.197 55.1686C307.751 55.1686 307.387 55.0453 307.107 54.7986C306.827 54.5519 306.687 54.2219 306.687 53.8086L306.867 54.0186H306.667L306.687 55.2686V56.8686H305.787ZM307.897 54.3886C308.277 54.3886 308.574 54.2753 308.787 54.0486C309.007 53.8219 309.117 53.4953 309.117 53.0686V51.5686C309.117 51.1419 309.007 50.8153 308.787 50.5886C308.574 50.3619 308.277 50.2486 307.897 50.2486C307.531 50.2486 307.237 50.3653 307.017 50.5986C306.797 50.8319 306.687 51.1553 306.687 51.5686V53.0686C306.687 53.4819 306.797 53.8053 307.017 54.0386C307.237 54.2719 307.531 54.3886 307.897 54.3886ZM311.973 55.0686V49.5686H312.853V50.6186H313.063L312.773 51.2686C312.773 50.6753 312.9 50.2286 313.153 49.9286C313.413 49.6219 313.797 49.4686 314.303 49.4686C314.883 49.4686 315.343 49.6519 315.683 50.0186C316.03 50.3786 316.203 50.8686 316.203 51.4886V51.8186H315.303V51.5686C315.303 51.1353 315.197 50.8053 314.983 50.5786C314.777 50.3453 314.48 50.2286 314.093 50.2286C313.713 50.2286 313.413 50.3453 313.193 50.5786C312.98 50.8119 312.873 51.1419 312.873 51.5686V55.0686H311.973ZM317.709 55.0686V54.2486H319.659V50.3886H317.959V49.5686H320.559V54.2486H322.409V55.0686H317.709ZM320.009 48.5786C319.789 48.5786 319.616 48.5219 319.489 48.4086C319.363 48.2953 319.299 48.1419 319.299 47.9486C319.299 47.7486 319.363 47.5919 319.489 47.4786C319.616 47.3586 319.789 47.2986 320.009 47.2986C320.229 47.2986 320.403 47.3586 320.529 47.4786C320.656 47.5919 320.719 47.7486 320.719 47.9486C320.719 48.1419 320.656 48.2953 320.529 48.4086C320.403 48.5219 320.229 48.5786 320.009 48.5786ZM325.685 55.1486C325.312 55.1486 324.985 55.0919 324.705 54.9786C324.432 54.8586 324.212 54.6919 324.045 54.4786C323.885 54.2653 323.789 54.0119 323.755 53.7186H324.655C324.695 53.9119 324.802 54.0653 324.975 54.1786C325.155 54.2919 325.392 54.3486 325.685 54.3486H326.105C326.459 54.3486 326.722 54.2786 326.895 54.1386C327.069 53.9919 327.155 53.7986 327.155 53.5586C327.155 53.3253 327.075 53.1419 326.915 53.0086C326.762 52.8686 326.532 52.7753 326.225 52.7286L325.485 52.6086C324.945 52.5153 324.542 52.3486 324.275 52.1086C324.015 51.8619 323.885 51.5053 323.885 51.0386C323.885 50.5453 324.042 50.1653 324.355 49.8986C324.669 49.6253 325.139 49.4886 325.765 49.4886H326.145C326.672 49.4886 327.095 49.6119 327.415 49.8586C327.735 50.1053 327.929 50.4386 327.995 50.8586H327.095C327.055 50.6853 326.955 50.5486 326.795 50.4486C326.635 50.3419 326.419 50.2886 326.145 50.2886H325.765C325.425 50.2886 325.175 50.3519 325.015 50.4786C324.862 50.6053 324.785 50.7953 324.785 51.0486C324.785 51.2753 324.852 51.4419 324.985 51.5486C325.119 51.6553 325.329 51.7319 325.615 51.7786L326.355 51.8986C326.949 51.9919 327.379 52.1653 327.645 52.4186C327.919 52.6719 328.055 53.0386 328.055 53.5186C328.055 54.0253 327.892 54.4253 327.565 54.7186C327.245 55.0053 326.759 55.1486 326.105 55.1486H325.685ZM329.512 55.0686V49.5686H330.302V50.2286H330.482L330.342 50.4686C330.342 50.1619 330.422 49.9186 330.582 49.7386C330.748 49.5586 330.972 49.4686 331.252 49.4686C331.558 49.4686 331.795 49.5819 331.962 49.8086C332.128 50.0353 332.212 50.3553 332.212 50.7686L331.942 50.2286H332.362L332.172 50.4686C332.172 50.1619 332.255 49.9186 332.422 49.7386C332.595 49.5586 332.822 49.4686 333.102 49.4686C333.448 49.4686 333.715 49.5986 333.902 49.8586C334.095 50.1186 334.192 50.4619 334.192 50.8886V55.0686H333.362V50.8786C333.362 50.6519 333.312 50.4753 333.212 50.3486C333.118 50.2219 332.978 50.1586 332.792 50.1586C332.612 50.1586 332.468 50.2219 332.362 50.3486C332.262 50.4686 332.212 50.6419 332.212 50.8686V55.0686H331.492V50.8786C331.492 50.6453 331.438 50.4686 331.332 50.3486C331.232 50.2219 331.088 50.1586 330.902 50.1586C330.715 50.1586 330.575 50.2219 330.482 50.3486C330.388 50.4686 330.342 50.6419 330.342 50.8686V55.0686H329.512ZM337.368 55.1686C336.788 55.1686 336.331 55.0219 335.998 54.7286C335.664 54.4286 335.498 54.0253 335.498 53.5186C335.498 53.0053 335.664 52.6019 335.998 52.3086C336.331 52.0153 336.781 51.8686 337.348 51.8686H339.048V51.3186C339.048 50.9786 338.944 50.7186 338.738 50.5386C338.538 50.3519 338.251 50.2586 337.878 50.2586C337.551 50.2586 337.278 50.3286 337.058 50.4686C336.838 50.6019 336.711 50.7853 336.678 51.0186H335.778C335.838 50.5453 336.061 50.1686 336.448 49.8886C336.834 49.6086 337.318 49.4686 337.898 49.4686C338.531 49.4686 339.031 49.6319 339.398 49.9586C339.764 50.2853 339.948 50.7286 339.948 51.2886V55.0686H339.068V54.0186H338.918L339.068 53.8686C339.068 54.2686 338.911 54.5853 338.598 54.8186C338.291 55.0519 337.881 55.1686 337.368 55.1686ZM337.588 54.4586C338.014 54.4586 338.364 54.3519 338.638 54.1386C338.911 53.9253 339.048 53.6519 339.048 53.3186V52.5386H337.368C337.068 52.5386 336.831 52.6219 336.658 52.7886C336.484 52.9553 336.398 53.1819 336.398 53.4686C336.398 53.7753 336.501 54.0186 336.708 54.1986C336.921 54.3719 337.214 54.4586 337.588 54.4586ZM343.844 55.1686C343.59 55.1686 343.387 55.0953 343.234 54.9486C343.087 54.8019 343.014 54.6053 343.014 54.3586C343.014 54.0986 343.087 53.8919 343.234 53.7386C343.387 53.5853 343.59 53.5086 343.844 53.5086C344.097 53.5086 344.297 53.5853 344.444 53.7386C344.597 53.8919 344.674 54.0986 344.674 54.3586C344.674 54.6053 344.597 54.8019 344.444 54.9486C344.297 55.0953 344.097 55.1686 343.844 55.1686ZM347.69 55.0686V54.2486H349.64V50.3886H347.94V49.5686H350.54V54.2486H352.39V55.0686H347.69ZM349.99 48.5786C349.77 48.5786 349.597 48.5219 349.47 48.4086C349.343 48.2953 349.28 48.1419 349.28 47.9486C349.28 47.7486 349.343 47.5919 349.47 47.4786C349.597 47.3586 349.77 47.2986 349.99 47.2986C350.21 47.2986 350.383 47.3586 350.51 47.4786C350.637 47.5919 350.7 47.7486 350.7 47.9486C350.7 48.1419 350.637 48.2953 350.51 48.4086C350.383 48.5219 350.21 48.5786 349.99 48.5786ZM355.836 55.1486C355.396 55.1486 355.016 55.0653 354.696 54.8986C354.376 54.7319 354.126 54.4919 353.946 54.1786C353.773 53.8586 353.686 53.4819 353.686 53.0486V51.5886C353.686 51.1486 353.773 50.7719 353.946 50.4586C354.126 50.1453 354.376 49.9053 354.696 49.7386C355.016 49.5719 355.396 49.4886 355.836 49.4886C356.276 49.4886 356.656 49.5719 356.976 49.7386C357.296 49.9053 357.543 50.1453 357.716 50.4586C357.896 50.7719 357.986 51.1453 357.986 51.5786V53.0486C357.986 53.4819 357.896 53.8586 357.716 54.1786C357.543 54.4919 357.296 54.7319 356.976 54.8986C356.656 55.0653 356.276 55.1486 355.836 55.1486ZM355.836 54.3486C356.229 54.3486 356.536 54.2386 356.756 54.0186C356.976 53.7986 357.086 53.4753 357.086 53.0486V51.5886C357.086 51.1619 356.976 50.8386 356.756 50.6186C356.536 50.3986 356.229 50.2886 355.836 50.2886C355.449 50.2886 355.143 50.3986 354.916 50.6186C354.696 50.8386 354.586 51.1619 354.586 51.5886V53.0486C354.586 53.4753 354.696 53.7986 354.916 54.0186C355.143 54.2386 355.449 54.3486 355.836 54.3486ZM361.832 50.9686C361.585 50.9686 361.385 50.9019 361.232 50.7686C361.079 50.6286 361.002 50.4453 361.002 50.2186C361.002 49.9919 361.079 49.8119 361.232 49.6786C361.385 49.5386 361.585 49.4686 361.832 49.4686C362.085 49.4686 362.285 49.5386 362.432 49.6786C362.585 49.8119 362.662 49.9919 362.662 50.2186C362.662 50.4453 362.585 50.6286 362.432 50.7686C362.285 50.9019 362.085 50.9686 361.832 50.9686ZM361.832 55.1686C361.585 55.1686 361.385 55.1019 361.232 54.9686C361.079 54.8286 361.002 54.6453 361.002 54.4186C361.002 54.1919 361.079 54.0119 361.232 53.8786C361.385 53.7386 361.585 53.6686 361.832 53.6686C362.085 53.6686 362.285 53.7386 362.432 53.8786C362.585 54.0119 362.662 54.1919 362.662 54.4186C362.662 54.6453 362.585 54.8286 362.432 54.9686C362.285 55.1019 362.085 55.1686 361.832 55.1686ZM367.808 55.1686C367.215 55.1686 366.728 55.0153 366.348 54.7086C365.968 54.4019 365.745 53.9886 365.678 53.4686H366.578C366.611 53.7553 366.735 53.9786 366.948 54.1386C367.161 54.2919 367.451 54.3686 367.818 54.3686C368.238 54.3686 368.551 54.2553 368.758 54.0286C368.971 53.8019 369.078 53.4819 369.078 53.0686V52.3586C369.078 51.9453 368.971 51.6253 368.758 51.3986C368.551 51.1719 368.241 51.0586 367.828 51.0586C367.568 51.0586 367.341 51.1286 367.148 51.2686C366.955 51.4019 366.815 51.5819 366.728 51.8086H365.828L365.878 47.7686H369.718V48.5886H366.748L366.718 51.0186H366.998L366.718 51.2786C366.718 50.9653 366.841 50.7186 367.088 50.5386C367.341 50.3586 367.678 50.2686 368.098 50.2686C368.691 50.2619 369.151 50.4453 369.478 50.8186C369.811 51.1853 369.978 51.6986 369.978 52.3586V53.0686C369.978 53.7153 369.788 54.2286 369.408 54.6086C369.028 54.9819 368.495 55.1686 367.808 55.1686ZM374.924 55.0686V53.4686H371.624V52.0586L374.514 47.7686H375.494L372.524 52.2486V52.6486H374.924V50.8686H375.824V55.0686H374.924ZM379.71 55.1686C379.27 55.1686 378.884 55.0819 378.55 54.9086C378.224 54.7286 377.97 54.4819 377.79 54.1686C377.61 53.8553 377.52 53.4886 377.52 53.0686H378.42C378.42 53.4753 378.534 53.7953 378.76 54.0286C378.994 54.2553 379.314 54.3686 379.72 54.3686C380.134 54.3686 380.454 54.2486 380.68 54.0086C380.907 53.7686 381.02 53.4553 381.02 53.0686V52.5486C381.02 52.1353 380.907 51.8153 380.68 51.5886C380.454 51.3619 380.134 51.2486 379.72 51.2486H378.97V50.3486L380.78 48.5886H377.82V47.7686H381.69V48.6686L379.74 50.5586V50.4486C380.407 50.4486 380.937 50.6386 381.33 51.0186C381.724 51.3986 381.92 51.9086 381.92 52.5486V53.0686C381.92 53.4886 381.827 53.8553 381.64 54.1686C381.46 54.4819 381.204 54.7286 380.87 54.9086C380.537 55.0819 380.15 55.1686 379.71 55.1686ZM383.736 55.0686V54.1486L385.966 51.7786C386.346 51.3719 386.623 51.0119 386.796 50.6986C386.97 50.3786 387.056 50.0719 387.056 49.7786C387.056 49.3719 386.943 49.0519 386.716 48.8186C386.496 48.5853 386.193 48.4686 385.806 48.4686C385.38 48.4686 385.043 48.5886 384.796 48.8286C384.556 49.0686 384.436 49.3986 384.436 49.8186H383.536C383.55 49.3786 383.65 48.9986 383.836 48.6786C384.03 48.3519 384.293 48.1019 384.626 47.9286C384.966 47.7553 385.36 47.6686 385.806 47.6686C386.246 47.6686 386.626 47.7553 386.946 47.9286C387.273 48.0953 387.523 48.3353 387.696 48.6486C387.87 48.9619 387.956 49.3353 387.956 49.7686C387.956 50.1819 387.846 50.5919 387.626 50.9986C387.406 51.4053 387.046 51.8686 386.546 52.3886L384.746 54.2486H388.076V55.0686H383.736ZM389.563 56.1686L393.113 46.7686H394.063L390.513 56.1686H389.563ZM395.729 56.8686V49.5686H396.629V50.6186H396.809L396.629 50.8286C396.629 50.4086 396.765 50.0786 397.039 49.8386C397.319 49.5919 397.685 49.4686 398.139 49.4686C398.692 49.4686 399.132 49.6519 399.459 50.0186C399.792 50.3786 399.959 50.8753 399.959 51.5086V53.1186C399.959 53.5386 399.882 53.9019 399.729 54.2086C399.582 54.5153 399.372 54.7519 399.099 54.9186C398.832 55.0853 398.512 55.1686 398.139 55.1686C397.692 55.1686 397.329 55.0453 397.049 54.7986C396.769 54.5519 396.629 54.2219 396.629 53.8086L396.809 54.0186H396.609L396.629 55.2686V56.8686H395.729ZM397.839 54.3886C398.219 54.3886 398.515 54.2753 398.729 54.0486C398.949 53.8219 399.059 53.4953 399.059 53.0686V51.5686C399.059 51.1419 398.949 50.8153 398.729 50.5886C398.515 50.3619 398.219 50.2486 397.839 50.2486C397.472 50.2486 397.179 50.3653 396.959 50.5986C396.739 50.8319 396.629 51.1553 396.629 51.5686V53.0686C396.629 53.4819 396.739 53.8053 396.959 54.0386C397.179 54.2719 397.472 54.3886 397.839 54.3886ZM403.805 55.1486C403.365 55.1486 402.985 55.0653 402.665 54.8986C402.345 54.7319 402.095 54.4919 401.915 54.1786C401.741 53.8586 401.655 53.4819 401.655 53.0486V51.5886C401.655 51.1486 401.741 50.7719 401.915 50.4586C402.095 50.1453 402.345 49.9053 402.665 49.7386C402.985 49.5719 403.365 49.4886 403.805 49.4886C404.245 49.4886 404.625 49.5719 404.945 49.7386C405.265 49.9053 405.511 50.1453 405.685 50.4586C405.865 50.7719 405.955 51.1453 405.955 51.5786V53.0486C405.955 53.4819 405.865 53.8586 405.685 54.1786C405.511 54.4919 405.265 54.7319 404.945 54.8986C404.625 55.0653 404.245 55.1486 403.805 55.1486ZM403.805 54.3486C404.198 54.3486 404.505 54.2386 404.725 54.0186C404.945 53.7986 405.055 53.4753 405.055 53.0486V51.5886C405.055 51.1619 404.945 50.8386 404.725 50.6186C404.505 50.3986 404.198 50.2886 403.805 50.2886C403.418 50.2886 403.111 50.3986 402.885 50.6186C402.665 50.8386 402.555 51.1619 402.555 51.5886V53.0486C402.555 53.4753 402.665 53.7986 402.885 54.0186C403.111 54.2386 403.418 54.3486 403.805 54.3486ZM409.631 55.1486C409.257 55.1486 408.931 55.0919 408.651 54.9786C408.377 54.8586 408.157 54.6919 407.991 54.4786C407.831 54.2653 407.734 54.0119 407.701 53.7186H408.601C408.641 53.9119 408.747 54.0653 408.921 54.1786C409.101 54.2919 409.337 54.3486 409.631 54.3486H410.051C410.404 54.3486 410.667 54.2786 410.841 54.1386C411.014 53.9919 411.101 53.7986 411.101 53.5586C411.101 53.3253 411.021 53.1419 410.861 53.0086C410.707 52.8686 410.477 52.7753 410.171 52.7286L409.431 52.6086C408.891 52.5153 408.487 52.3486 408.221 52.1086C407.961 51.8619 407.831 51.5053 407.831 51.0386C407.831 50.5453 407.987 50.1653 408.301 49.8986C408.614 49.6253 409.084 49.4886 409.711 49.4886H410.091C410.617 49.4886 411.041 49.6119 411.361 49.8586C411.681 50.1053 411.874 50.4386 411.941 50.8586H411.041C411.001 50.6853 410.901 50.5486 410.741 50.4486C410.581 50.3419 410.364 50.2886 410.091 50.2886H409.711C409.371 50.2886 409.121 50.3519 408.961 50.4786C408.807 50.6053 408.731 50.7953 408.731 51.0486C408.731 51.2753 408.797 51.4419 408.931 51.5486C409.064 51.6553 409.274 51.7319 409.561 51.7786L410.301 51.8986C410.894 51.9919 411.324 52.1653 411.591 52.4186C411.864 52.6719 412.001 53.0386 412.001 53.5186C412.001 54.0253 411.837 54.4253 411.511 54.7186C411.191 55.0053 410.704 55.1486 410.051 55.1486H409.631ZM416.397 55.0686C415.924 55.0686 415.554 54.9419 415.287 54.6886C415.027 54.4353 414.897 54.0786 414.897 53.6186V50.3886H413.347V49.5686H414.897V48.0186H415.797V49.5686H417.997V50.3886H415.797V53.6186C415.797 54.0386 415.997 54.2486 416.397 54.2486H417.897V55.0686H416.397ZM420.403 56.8686V56.0486H422.153C422.433 56.0486 422.636 55.9853 422.763 55.8586C422.896 55.7319 422.963 55.5353 422.963 55.2686V54.5686L422.983 53.5686H422.803L422.973 53.4186C422.973 53.8186 422.84 54.1353 422.573 54.3686C422.306 54.6019 421.95 54.7186 421.503 54.7186C420.936 54.7186 420.49 54.5353 420.163 54.1686C419.836 53.7953 419.673 53.2953 419.673 52.6686V51.5086C419.673 50.8819 419.836 50.3853 420.163 50.0186C420.49 49.6519 420.936 49.4686 421.503 49.4686C421.95 49.4686 422.306 49.5853 422.573 49.8186C422.84 50.0519 422.973 50.3686 422.973 50.7686L422.803 50.6186H422.973V49.5686H423.863V55.2686C423.863 55.7619 423.71 56.1519 423.403 56.4386C423.103 56.7253 422.683 56.8686 422.143 56.8686H420.403ZM421.773 53.9386C422.146 53.9386 422.44 53.8219 422.653 53.5886C422.866 53.3553 422.973 53.0319 422.973 52.6186V51.5686C422.973 51.1553 422.866 50.8319 422.653 50.5986C422.44 50.3653 422.146 50.2486 421.773 50.2486C421.393 50.2486 421.096 50.3619 420.883 50.5886C420.676 50.8153 420.573 51.1419 420.573 51.5686V52.6186C420.573 53.0453 420.676 53.3719 420.883 53.5986C421.096 53.8253 421.393 53.9386 421.773 53.9386ZM425.899 55.0686V49.5686H426.779V50.6186H426.989L426.699 51.2686C426.699 50.6753 426.826 50.2286 427.079 49.9286C427.339 49.6219 427.722 49.4686 428.229 49.4686C428.809 49.4686 429.269 49.6519 429.609 50.0186C429.956 50.3786 430.129 50.8686 430.129 51.4886V51.8186H429.229V51.5686C429.229 51.1353 429.122 50.8053 428.909 50.5786C428.702 50.3453 428.406 50.2286 428.019 50.2286C427.639 50.2286 427.339 50.3453 427.119 50.5786C426.906 50.8119 426.799 51.1419 426.799 51.5686V55.0686H425.899ZM433.785 55.1686C433.352 55.1686 432.972 55.0819 432.645 54.9086C432.325 54.7353 432.075 54.4919 431.895 54.1786C431.722 53.8586 431.635 53.4886 431.635 53.0686V51.5686C431.635 51.1419 431.722 50.7719 431.895 50.4586C432.075 50.1453 432.325 49.9019 432.645 49.7286C432.972 49.5553 433.352 49.4686 433.785 49.4686C434.218 49.4686 434.595 49.5553 434.915 49.7286C435.242 49.9019 435.492 50.1453 435.665 50.4586C435.845 50.7719 435.935 51.1419 435.935 51.5686V52.5386H432.515V53.0686C432.515 53.5019 432.625 53.8353 432.845 54.0686C433.065 54.2953 433.378 54.4086 433.785 54.4086C434.132 54.4086 434.412 54.3486 434.625 54.2286C434.838 54.1019 434.968 53.9153 435.015 53.6686H435.915C435.855 54.1286 435.628 54.4953 435.235 54.7686C434.848 55.0353 434.365 55.1686 433.785 55.1686ZM435.055 51.9386V51.5686C435.055 51.1353 434.945 50.8019 434.725 50.5686C434.512 50.3353 434.198 50.2186 433.785 50.2186C433.378 50.2186 433.065 50.3353 432.845 50.5686C432.625 50.8019 432.515 51.1353 432.515 51.5686V51.8586H435.125L435.055 51.9386ZM439.611 55.1486C439.238 55.1486 438.911 55.0919 438.631 54.9786C438.358 54.8586 438.138 54.6919 437.971 54.4786C437.811 54.2653 437.715 54.0119 437.681 53.7186H438.581C438.621 53.9119 438.728 54.0653 438.901 54.1786C439.081 54.2919 439.318 54.3486 439.611 54.3486H440.031C440.385 54.3486 440.648 54.2786 440.821 54.1386C440.995 53.9919 441.081 53.7986 441.081 53.5586C441.081 53.3253 441.001 53.1419 440.841 53.0086C440.688 52.8686 440.458 52.7753 440.151 52.7286L439.411 52.6086C438.871 52.5153 438.468 52.3486 438.201 52.1086C437.941 51.8619 437.811 51.5053 437.811 51.0386C437.811 50.5453 437.968 50.1653 438.281 49.8986C438.595 49.6253 439.065 49.4886 439.691 49.4886H440.071C440.598 49.4886 441.021 49.6119 441.341 49.8586C441.661 50.1053 441.855 50.4386 441.921 50.8586H441.021C440.981 50.6853 440.881 50.5486 440.721 50.4486C440.561 50.3419 440.345 50.2886 440.071 50.2886H439.691C439.351 50.2886 439.101 50.3519 438.941 50.4786C438.788 50.6053 438.711 50.7953 438.711 51.0486C438.711 51.2753 438.778 51.4419 438.911 51.5486C439.045 51.6553 439.255 51.7319 439.541 51.7786L440.281 51.8986C440.875 51.9919 441.305 52.1653 441.571 52.4186C441.845 52.6719 441.981 53.0386 441.981 53.5186C441.981 54.0253 441.818 54.4253 441.491 54.7186C441.171 55.0053 440.685 55.1486 440.031 55.1486H439.611Z" fill="#6B7280"></path> </g> <defs> <filter id="filter0_dddddd_2168_13501" x="7.7" y="-4.86374e-05" width="432.6" height="242.6" filterUnits="userSpaceOnUse" color-interpolation-filters="sRGB"> <feFlood flood-opacity="0" result="BackgroundImageFix"></feFlood> <feColorMatrix in="SourceAlpha" type="matrix" values="0 0 0 0 0 0 0 0 0 0 0 0 0 0 0 0 0 0 127 0" result="hardAlpha"></feColorMatrix> <feOffset dy="0.224148"></feOffset> <feGaussianBlur stdDeviation="0.336222"></feGaussianBlur> <feColorMatrix type="matrix" values="0 0 0 0 0 0 0 0 0 0.0745098 0 0 0 0 0.207843 0 0 0 0.0168687 0"></feColorMatrix> <feBlend mode="normal" in2="BackgroundImageFix" result="effect1_dropShadow_2168_13501"></feBlend> <feColorMatrix in="SourceAlpha" type="matrix" values="0 0 0 0 0 0 0 0 0 0 0 0 0 0 0 0 0 0 127 0" result="hardAlpha"></feColorMatrix> <feOffset dy="0.538658"></feOffset> <feGaussianBlur stdDeviation="0.807988"></feGaussianBlur> <feColorMatrix type="matrix" values="0 0 0 0 0 0 0 0 0 0.0745098 0 0 0 0 0.207843 0 0 0 0.0242336 0"></feColorMatrix> <feBlend mode="normal" in2="effect1_dropShadow_2168_13501" result="effect2_dropShadow_2168_13501"></feBlend> <feColorMatrix in="SourceAlpha" type="matrix" values="0 0 0 0 0 0 0 0 0 0 0 0 0 0 0 0 0 0 127 0" result="hardAlpha"></feColorMatrix> <feOffset dy="1.01425"></feOffset> <feGaussianBlur stdDeviation="1.52137"></feGaussianBlur> <feColorMatrix type="matrix" values="0 0 0 0 0 0 0 0 0 0.0745098 0 0 0 0 0.207843 0 0 0 0.03 0"></feColorMatrix> <feBlend mode="normal" in2="effect2_dropShadow_2168_13501" result="effect3_dropShadow_2168_13501"></feBlend> <feColorMatrix in="SourceAlpha" type="matrix" values="0 0 0 0 0 0 0 0 0 0 0 0 0 0 0 0 0 0 127 0" result="hardAlpha"></feColorMatrix> <feOffset dy="1.80924"></feOffset> <feGaussianBlur stdDeviation="2.71386"></feGaussianBlur> <feColorMatrix type="matrix" values="0 0 0 0 0 0 0 0 0 0.0745098 0 0 0 0 0.207843 0 0 0 0.0357664 0"></feColorMatrix> <feBlend mode="normal" in2="effect3_dropShadow_2168_13501" result="effect4_dropShadow_2168_13501"></feBlend> <feColorMatrix in="SourceAlpha" type="matrix" values="0 0 0 0 0 0 0 0 0 0 0 0 0 0 0 0 0 0 127 0" result="hardAlpha"></feColorMatrix> <feOffset dy="3.38398"></feOffset> <feGaussianBlur stdDeviation="5.07598"></feGaussianBlur> <feColorMatrix type="matrix" values="0 0 0 0 0 0 0 0 0 0.0745098 0 0 0 0 0.207843 0 0 0 0.0431313 0"></feColorMatrix> <feBlend mode="normal" in2="effect4_dropShadow_2168_13501" result="effect5_dropShadow_2168_13501"></feBlend> <feColorMatrix in="SourceAlpha" type="matrix" values="0 0 0 0 0 0 0 0 0 0 0 0 0 0 0 0 0 0 127 0" result="hardAlpha"></feColorMatrix> <feOffset dy="8.1"></feOffset> <feGaussianBlur stdDeviation="12.15"></feGaussianBlur> <feColorMatrix type="matrix" values="0 0 0 0 0 0 0 0 0 0.0745098 0 0 0 0 0.207843 0 0 0 0.06 0"></feColorMatrix> <feBlend mode="normal" in2="effect5_dropShadow_2168_13501" result="effect6_dropShadow_2168_13501"></feBlend> <feBlend mode="normal" in="SourceGraphic" in2="effect6_dropShadow_2168_13501" result="shape"></feBlend> </filter> <filter id="filter1_dd_2168_13501" x="64.7409" y="30.1904" width="396.518" height="50.9204" filterUnits="userSpaceOnUse" color-interpolation-filters="sRGB"> <feFlood flood-opacity="0" result="BackgroundImageFix"></feFlood> <feColorMatrix in="SourceAlpha" type="matrix" values="0 0 0 0 0 0 0 0 0 0 0 0 0 0 0 0 0 0 127 0" result="hardAlpha"></feColorMatrix> <feOffset dy="1.22278"></feOffset> <feGaussianBlur stdDeviation="0.951048"></feGaussianBlur> <feColorMatrix type="matrix" values="0 0 0 0 0 0 0 0 0 0 0 0 0 0 0 0 0 0 0.142849 0"></feColorMatrix> <feBlend mode="normal" in2="BackgroundImageFix" result="effect1_dropShadow_2168_13501"></feBlend> <feColorMatrix in="SourceAlpha" type="matrix" values="0 0 0 0 0 0 0 0 0 0 0 0 0 0 0 0 0 0 127 0" result="hardAlpha"></feColorMatrix> <feOffset dy="3.38082"></feOffset> <feGaussianBlur stdDeviation="2.62953"></feGaussianBlur> <feColorMatrix type="matrix" values="0 0 0 0 0 0 0 0 0 0 0 0 0 0 0 0 0 0 0.205 0"></feColorMatrix> <feBlend mode="normal" in2="effect1_dropShadow_2168_13501" result="effect2_dropShadow_2168_13501"></feBlend> <feBlend mode="normal" in="SourceGraphic" in2="effect2_dropShadow_2168_13501" result="shape"></feBlend> </filter> <filter id="filter2_dddddd_2168_13501" x="67" y="32.0686" width="38" height="38" filterUnits="userSpaceOnUse" color-interpolation-filters="sRGB"> <feFlood flood-opacity="0" result="BackgroundImageFix"></feFlood> <feColorMatrix in="SourceAlpha" type="matrix" values="0 0 0 0 0 0 0 0 0 0 0 0 0 0 0 0 0 0 127 0" result="hardAlpha"></feColorMatrix> <feOffset></feOffset> <feGaussianBlur stdDeviation="0.221381"></feGaussianBlur> <feColorMatrix type="matrix" values="0 0 0 0 0.254902 0 0 0 0 0.764706 0 0 0 0 0.694118 0 0 0 0.106835 0"></feColorMatrix> <feBlend mode="normal" in2="BackgroundImageFix" result="effect1_dropShadow_2168_13501"></feBlend> <feColorMatrix in="SourceAlpha" type="matrix" values="0 0 0 0 0 0 0 0 0 0 0 0 0 0 0 0 0 0 127 0" result="hardAlpha"></feColorMatrix> <feOffset></feOffset> <feGaussianBlur stdDeviation="0.532008"></feGaussianBlur> <feColorMatrix type="matrix" values="0 0 0 0 0.254902 0 0 0 0 0.764706 0 0 0 0 0.694118 0 0 0 0.153479 0"></feColorMatrix> <feBlend mode="normal" in2="effect1_dropShadow_2168_13501" result="effect2_dropShadow_2168_13501"></feBlend> <feColorMatrix in="SourceAlpha" type="matrix" values="0 0 0 0 0 0 0 0 0 0 0 0 0 0 0 0 0 0 127 0" result="hardAlpha"></feColorMatrix> <feOffset></feOffset> <feGaussianBlur stdDeviation="1.00172"></feGaussianBlur> <feColorMatrix type="matrix" values="0 0 0 0 0.254902 0 0 0 0 0.764706 0 0 0 0 0.694118 0 0 0 0.19 0"></feColorMatrix> <feBlend mode="normal" in2="effect2_dropShadow_2168_13501" result="effect3_dropShadow_2168_13501"></feBlend> <feColorMatrix in="SourceAlpha" type="matrix" values="0 0 0 0 0 0 0 0 0 0 0 0 0 0 0 0 0 0 127 0" result="hardAlpha"></feColorMatrix> <feOffset></feOffset> <feGaussianBlur stdDeviation="1.7869"></feGaussianBlur> <feColorMatrix type="matrix" values="0 0 0 0 0.254902 0 0 0 0 0.764706 0 0 0 0 0.694118 0 0 0 0.226521 0"></feColorMatrix> <feBlend mode="normal" in2="effect3_dropShadow_2168_13501" result="effect4_dropShadow_2168_13501"></feBlend> <feColorMatrix in="SourceAlpha" type="matrix" values="0 0 0 0 0 0 0 0 0 0 0 0 0 0 0 0 0 0 127 0" result="hardAlpha"></feColorMatrix> <feOffset></feOffset> <feGaussianBlur stdDeviation="3.34221"></feGaussianBlur> <feColorMatrix type="matrix" values="0 0 0 0 0.254902 0 0 0 0 0.764706 0 0 0 0 0.694118 0 0 0 0.273165 0"></feColorMatrix> <feBlend mode="normal" in2="effect4_dropShadow_2168_13501" result="effect5_dropShadow_2168_13501"></feBlend> <feColorMatrix in="SourceAlpha" type="matrix" values="0 0 0 0 0 0 0 0 0 0 0 0 0 0 0 0 0 0 127 0" result="hardAlpha"></feColorMatrix> <feOffset></feOffset> <feGaussianBlur stdDeviation="8"></feGaussianBlur> <feColorMatrix type="matrix" values="0 0 0 0 0.254902 0 0 0 0 0.764706 0 0 0 0 0.694118 0 0 0 0.38 0"></feColorMatrix> <feBlend mode="normal" in2="effect5_dropShadow_2168_13501" result="effect6_dropShadow_2168_13501"></feBlend> <feBlend mode="normal" in="SourceGraphic" in2="effect6_dropShadow_2168_13501" result="shape"></feBlend> </filter> <linearGradient id="paint0_linear_2168_13501" x1="281.5" y1="457.2" x2="184" y2="-16.3001" gradientUnits="userSpaceOnUse"> <stop stop-color="#F0FDFA"></stop> <stop offset="1" stop-color="white" stop-opacity="0"></stop> </linearGradient> <linearGradient id="paint1_linear_2168_13501" x1="143" y1="257.2" x2="268" y2="257.2" gradientUnits="userSpaceOnUse"> <stop stop-color="white"></stop> <stop offset="1" stop-color="#71E8DF"></stop> </linearGradient> <linearGradient id="paint2_linear_2168_13501" x1="288" y1="257.2" x2="413" y2="257.2" gradientUnits="userSpaceOnUse"> <stop stop-color="white"></stop> <stop offset="1" stop-color="#71E8DF"></stop> </linearGradient> <linearGradient id="paint3_linear_2168_13501" x1="406.296" y1="123.8" x2="406.296" y2="213.584" gradientUnits="userSpaceOnUse"> <stop stop-color="#3F827D" stop-opacity="0"></stop> <stop offset="1" stop-color="#71E8DF"></stop> </linearGradient> <linearGradient id="paint4_linear_2168_13501" x1="290.432" y1="205.973" x2="290.432" y2="271.916" gradientUnits="userSpaceOnUse"> <stop stop-color="#3F827D" stop-opacity="0"></stop> <stop offset="1" stop-color="#71E8DF"></stop> </linearGradient> <linearGradient id="paint5_linear_2168_13501" x1="174.569" y1="209.992" x2="174.569" y2="297.914" gradientUnits="userSpaceOnUse"> <stop stop-color="#3F827D" stop-opacity="0"></stop> <stop offset="1" stop-color="#71E8DF"></stop> </linearGradient> <clipPath id="clip0_2168_13501"> <rect x="32" y="16.2" width="384" height="194" rx="9" fill="white"></rect> </clipPath> </defs> </svg>
