<svg xmlns="http://www.w3.org/2000/svg" fill="none" viewBox="0 0 844 474" height="474" width="844">
<rect fill="#434190" height="474" width="844"></rect>
<g filter="url(#filter0_f_6624_731)">
<rect fill-opacity="0.5" fill="#010101" rx="24.717" height="49.4339" width="405.818" y="229.07" x="231"></rect>
</g>
<rect stroke-width="2.29925" stroke="#68D391" fill="#434190" rx="40.2369" height="80.4738" width="369.03" y="203.775" x="243.646"></rect>
<path fill="white" d="M288.833 250.324C288.833 250.764 288.758 251.168 288.609 251.537C288.459 251.907 288.239 252.221 287.95 252.481C287.64 252.76 287.251 252.975 286.782 253.125C286.322 253.274 285.793 253.349 285.194 253.349C284.725 253.349 284.261 253.289 283.802 253.17C283.342 253.04 282.933 252.82 282.574 252.511C282.214 252.211 281.92 251.807 281.69 251.298C281.46 250.778 281.346 250.135 281.346 249.366H277.766C277.766 250.534 277.941 251.537 278.29 252.376C278.64 253.205 279.109 253.893 279.698 254.443C280.287 254.992 280.961 255.411 281.72 255.7C282.489 255.99 283.282 256.175 284.101 256.255V259.16H286.422V256.255C287.331 256.165 288.154 255.97 288.893 255.671C289.632 255.361 290.261 254.952 290.78 254.443C291.309 253.943 291.714 253.349 291.993 252.66C292.273 251.962 292.412 251.173 292.412 250.294C292.412 249.366 292.263 248.557 291.963 247.868C291.674 247.179 291.249 246.57 290.69 246.041C290.131 245.522 289.457 245.068 288.669 244.678C287.88 244.279 286.996 243.905 286.018 243.555C285.309 243.306 284.71 243.056 284.221 242.806C283.732 242.557 283.337 242.287 283.038 241.998C282.728 241.718 282.504 241.409 282.364 241.069C282.234 240.73 282.169 240.34 282.169 239.901C282.169 239.462 282.234 239.063 282.364 238.703C282.494 238.334 282.683 238.014 282.933 237.745C283.202 237.465 283.542 237.251 283.951 237.101C284.371 236.941 284.865 236.861 285.434 236.861C285.933 236.861 286.382 236.951 286.782 237.131C287.191 237.31 287.535 237.56 287.815 237.879C288.114 238.229 288.344 238.663 288.504 239.182C288.674 239.692 288.758 240.276 288.758 240.935H292.323C292.323 239.866 292.178 238.918 291.888 238.089C291.609 237.251 291.204 236.532 290.675 235.933C290.196 235.404 289.622 234.974 288.953 234.645C288.284 234.305 287.535 234.081 286.707 233.971V230.691H284.386V233.941C283.507 234.041 282.708 234.25 281.989 234.57C281.281 234.879 280.677 235.289 280.177 235.798C279.678 236.317 279.289 236.926 279.009 237.625C278.74 238.314 278.605 239.078 278.605 239.916C278.605 240.855 278.755 241.673 279.054 242.372C279.364 243.061 279.803 243.665 280.372 244.184C280.931 244.713 281.605 245.178 282.394 245.577C283.192 245.966 284.081 246.326 285.059 246.655C285.738 246.885 286.317 247.124 286.797 247.374C287.276 247.624 287.67 247.893 287.98 248.183C288.279 248.482 288.494 248.807 288.624 249.156C288.763 249.506 288.833 249.895 288.833 250.324ZM314.801 256H318.38V244.439C318.54 244.169 318.725 243.92 318.934 243.69C319.144 243.46 319.369 243.266 319.608 243.106C319.918 242.896 320.262 242.737 320.642 242.627C321.021 242.507 321.43 242.447 321.87 242.447C322.399 242.447 322.868 242.507 323.277 242.627C323.687 242.737 324.036 242.926 324.326 243.196C324.615 243.465 324.835 243.825 324.984 244.274C325.134 244.723 325.209 245.282 325.209 245.951V256H328.788V245.891C328.788 244.753 328.654 243.785 328.384 242.986C328.114 242.177 327.735 241.514 327.246 240.994C326.757 240.475 326.168 240.096 325.479 239.856C324.79 239.617 324.031 239.497 323.202 239.497C322.573 239.497 321.974 239.587 321.405 239.766C320.836 239.946 320.312 240.201 319.833 240.53C319.533 240.74 319.249 240.979 318.979 241.249C318.72 241.509 318.48 241.793 318.26 242.103L318.036 239.796H314.801V256ZM333.251 262.23H336.83V254.532C337.02 254.742 337.225 254.937 337.444 255.116C337.664 255.296 337.893 255.456 338.133 255.596C338.542 255.825 338.987 256 339.466 256.12C339.955 256.24 340.489 256.3 341.068 256.3C342.087 256.3 342.99 256.09 343.779 255.671C344.568 255.251 345.232 254.672 345.771 253.933C346.31 253.205 346.714 252.336 346.984 251.328C347.263 250.319 347.403 249.231 347.403 248.063V247.748C347.403 246.53 347.263 245.417 346.984 244.409C346.704 243.391 346.3 242.517 345.771 241.788C345.232 241.059 344.563 240.495 343.764 240.096C342.975 239.697 342.062 239.497 341.023 239.497C340.494 239.497 339.995 239.557 339.526 239.677C339.057 239.786 338.627 239.946 338.238 240.156C337.938 240.316 337.659 240.505 337.399 240.725C337.14 240.944 336.9 241.189 336.68 241.459L336.546 239.796H333.251V262.23ZM343.824 247.748V248.063C343.824 248.782 343.754 249.466 343.614 250.115C343.474 250.754 343.25 251.323 342.94 251.822C342.641 252.311 342.251 252.7 341.772 252.99C341.303 253.269 340.734 253.409 340.065 253.409C339.656 253.409 339.281 253.364 338.942 253.274C338.602 253.175 338.298 253.045 338.028 252.885C337.769 252.715 337.539 252.516 337.339 252.286C337.14 252.056 336.97 251.802 336.83 251.522V244.319C336.99 244.019 337.175 243.75 337.384 243.51C337.604 243.271 337.859 243.071 338.148 242.911C338.398 242.762 338.682 242.647 339.002 242.567C339.321 242.487 339.666 242.447 340.035 242.447C340.704 242.447 341.278 242.587 341.757 242.866C342.236 243.146 342.631 243.525 342.94 244.005C343.24 244.484 343.459 245.048 343.599 245.697C343.749 246.336 343.824 247.02 343.824 247.748ZM358.755 245.247L354.921 239.796H350.982L356.658 247.778L350.788 256H354.756L358.784 250.339L362.828 256H366.781L360.911 247.778L366.602 239.796H362.633L358.755 245.247ZM395.669 235.843H392.075V239.796H388.152V242.477H392.075V250.444C392.075 251.482 392.21 252.371 392.48 253.11C392.759 253.849 393.144 254.453 393.633 254.922C394.122 255.401 394.706 255.755 395.385 255.985C396.074 256.205 396.828 256.314 397.646 256.314C398.096 256.314 398.545 256.29 398.994 256.24C399.453 256.2 399.893 256.14 400.312 256.06C400.731 255.98 401.121 255.885 401.48 255.775C401.849 255.656 402.164 255.516 402.423 255.356L402.034 252.885C401.854 252.925 401.63 252.975 401.36 253.035C401.101 253.085 400.821 253.13 400.522 253.17C400.212 253.22 399.893 253.259 399.563 253.289C399.234 253.319 398.914 253.334 398.605 253.334C398.175 253.334 397.781 253.284 397.422 253.185C397.062 253.085 396.753 252.915 396.493 252.675C396.234 252.446 396.029 252.131 395.879 251.732C395.739 251.323 395.669 250.818 395.669 250.219V242.477H401.765V239.796H395.669V235.843ZM418.103 239.497C416.985 239.497 415.961 239.756 415.033 240.276C414.114 240.795 413.326 241.509 412.667 242.417L412.652 242.043L412.502 239.796H409.148V256H412.727V245.996C412.916 245.517 413.151 245.093 413.431 244.723C413.71 244.354 414.05 244.049 414.449 243.81C414.818 243.56 415.243 243.376 415.722 243.256C416.201 243.136 416.74 243.076 417.339 243.076C417.868 243.076 418.397 243.106 418.927 243.166C419.466 243.226 420.01 243.316 420.559 243.435L421.068 239.901C420.759 239.791 420.329 239.697 419.78 239.617C419.241 239.537 418.682 239.497 418.103 239.497ZM427.358 262.544C428.147 262.544 428.836 262.405 429.425 262.125C430.014 261.855 430.523 261.516 430.952 261.107C431.381 260.707 431.736 260.268 432.015 259.789C432.305 259.32 432.544 258.875 432.734 258.456L440.956 239.796H436.987L433.079 249.74L432.405 251.477L431.851 249.695L427.822 239.796H423.884L430.787 255.281L429.769 257.213C429.659 257.433 429.539 257.642 429.41 257.842C429.29 258.042 429.13 258.271 428.93 258.531C428.721 258.79 428.476 259.02 428.197 259.22C427.917 259.429 427.603 259.534 427.253 259.534C427.093 259.534 426.884 259.524 426.624 259.504C426.375 259.494 426.15 259.484 425.95 259.474L425.456 262.275C425.746 262.345 426.045 262.405 426.355 262.454C426.674 262.514 427.008 262.544 427.358 262.544ZM457.294 247.868V244.963H445.239V247.868H457.294ZM462.191 262.23H465.77V254.532C465.96 254.742 466.165 254.937 466.384 255.116C466.604 255.296 466.834 255.456 467.073 255.596C467.483 255.825 467.927 256 468.406 256.12C468.895 256.24 469.429 256.3 470.009 256.3C471.027 256.3 471.93 256.09 472.719 255.671C473.508 255.251 474.172 254.672 474.711 253.933C475.25 253.205 475.654 252.336 475.924 251.328C476.203 250.319 476.343 249.231 476.343 248.063V247.748C476.343 246.53 476.203 245.417 475.924 244.409C475.644 243.391 475.24 242.517 474.711 241.788C474.172 241.059 473.503 240.495 472.704 240.096C471.915 239.697 471.002 239.497 469.964 239.497C469.434 239.497 468.935 239.557 468.466 239.677C467.997 239.786 467.567 239.946 467.178 240.156C466.879 240.316 466.599 240.505 466.339 240.725C466.08 240.944 465.84 241.189 465.621 241.459L465.486 239.796H462.191V262.23ZM472.764 247.748V248.063C472.764 248.782 472.694 249.466 472.554 250.115C472.415 250.754 472.19 251.323 471.88 251.822C471.581 252.311 471.192 252.7 470.712 252.99C470.243 253.269 469.674 253.409 469.005 253.409C468.596 253.409 468.221 253.364 467.882 253.274C467.543 253.175 467.238 253.045 466.968 252.885C466.709 252.715 466.479 252.516 466.28 252.286C466.08 252.056 465.91 251.802 465.77 251.522V244.319C465.93 244.019 466.115 243.75 466.325 243.51C466.544 243.271 466.799 243.071 467.088 242.911C467.338 242.762 467.622 242.647 467.942 242.567C468.261 242.487 468.606 242.447 468.975 242.447C469.644 242.447 470.218 242.587 470.697 242.866C471.177 243.146 471.571 243.525 471.88 244.005C472.18 244.484 472.4 245.048 472.539 245.697C472.689 246.336 472.764 247.02 472.764 247.748ZM491.783 239.497C490.665 239.497 489.642 239.756 488.713 240.276C487.795 240.795 487.006 241.509 486.347 242.417L486.332 242.043L486.182 239.796H482.828V256H486.407V245.996C486.597 245.517 486.831 245.093 487.111 244.723C487.39 244.354 487.73 244.049 488.129 243.81C488.498 243.56 488.923 243.376 489.402 243.256C489.881 243.136 490.42 243.076 491.019 243.076C491.548 243.076 492.078 243.106 492.607 243.166C493.146 243.226 493.69 243.316 494.239 243.435L494.748 239.901C494.439 239.791 494.009 239.697 493.46 239.617C492.921 239.537 492.362 239.497 491.783 239.497ZM499.825 239.796V242.777H504.812V253.035H499.825V256H513.183V253.035H508.421V239.796H499.825ZM504.482 235.603C504.482 235.983 504.572 236.317 504.752 236.607C504.942 236.886 505.216 237.081 505.576 237.191C505.925 237.3 506.245 237.325 506.534 237.265C506.824 237.206 507.073 237.081 507.283 236.891C507.702 236.781 508.022 236.567 508.241 236.247C508.461 235.918 508.536 235.533 508.466 235.094C508.416 234.665 508.221 234.315 507.882 234.046C507.552 233.766 507.118 233.626 506.579 233.626C506.26 233.626 505.97 233.676 505.71 233.776C505.461 233.866 505.246 233.996 505.066 234.166C504.877 234.345 504.732 234.56 504.632 234.809C504.532 235.049 504.482 235.314 504.482 235.603ZM528.009 251.612C528.009 251.872 527.949 252.111 527.829 252.331C527.72 252.541 527.55 252.735 527.32 252.915C527.041 253.135 526.666 253.309 526.197 253.439C525.738 253.569 525.199 253.634 524.58 253.634C524.12 253.634 523.666 253.589 523.217 253.499C522.768 253.399 522.368 253.239 522.019 253.02C521.659 252.81 521.36 252.536 521.12 252.196C520.891 251.847 520.761 251.422 520.731 250.923H517.257C517.257 251.592 517.416 252.251 517.736 252.9C518.055 253.549 518.525 254.123 519.144 254.622C519.753 255.131 520.506 255.541 521.405 255.85C522.313 256.16 523.352 256.314 524.52 256.314C525.568 256.314 526.522 256.195 527.38 255.955C528.239 255.715 528.978 255.381 529.597 254.952C530.206 254.522 530.675 254.008 531.004 253.409C531.344 252.81 531.513 252.151 531.513 251.432C531.513 250.694 531.354 250.055 531.034 249.516C530.715 248.976 530.265 248.507 529.686 248.108C529.107 247.728 528.408 247.409 527.59 247.149C526.771 246.89 525.868 246.67 524.879 246.49C524.17 246.371 523.581 246.236 523.112 246.086C522.653 245.936 522.293 245.772 522.034 245.592C521.754 245.422 521.56 245.228 521.45 245.008C521.34 244.778 521.285 244.524 521.285 244.244C521.285 243.975 521.35 243.72 521.48 243.48C521.61 243.231 521.804 243.016 522.064 242.836C522.323 242.637 522.653 242.482 523.052 242.372C523.462 242.252 523.936 242.192 524.475 242.192C525.064 242.192 525.578 242.272 526.017 242.432C526.457 242.582 526.816 242.787 527.096 243.046C527.335 243.266 527.515 243.515 527.635 243.795C527.765 244.064 527.829 244.349 527.829 244.648H531.409C531.409 243.92 531.249 243.241 530.929 242.612C530.61 241.983 530.156 241.439 529.567 240.979C528.968 240.52 528.239 240.161 527.38 239.901C526.522 239.632 525.553 239.497 524.475 239.497C523.467 239.497 522.548 239.627 521.719 239.886C520.901 240.146 520.202 240.5 519.623 240.949C519.034 241.399 518.579 241.923 518.26 242.522C517.95 243.111 517.796 243.735 517.796 244.394C517.796 245.083 517.95 245.687 518.26 246.206C518.569 246.725 518.999 247.174 519.548 247.554C520.107 247.953 520.771 248.293 521.54 248.572C522.318 248.852 523.177 249.086 524.115 249.276C524.864 249.416 525.488 249.565 525.987 249.725C526.487 249.885 526.891 250.055 527.2 250.234C527.49 250.434 527.695 250.644 527.814 250.863C527.944 251.083 528.009 251.333 528.009 251.612ZM537.878 239.796H534.763V256H538.058V243.555C538.118 243.405 538.183 243.271 538.252 243.151C538.332 243.031 538.422 242.926 538.522 242.836C538.652 242.707 538.807 242.612 538.986 242.552C539.176 242.482 539.391 242.447 539.63 242.447C539.85 242.447 540.045 242.477 540.214 242.537C540.394 242.597 540.549 242.692 540.678 242.821C540.808 242.951 540.903 243.131 540.963 243.361C541.033 243.58 541.068 243.85 541.068 244.169V256H544.303V243.975C544.303 243.875 544.303 243.8 544.303 243.75C544.303 243.69 544.303 243.64 544.303 243.6C544.343 243.43 544.402 243.281 544.482 243.151C544.562 243.011 544.662 242.891 544.782 242.791C544.912 242.682 545.061 242.597 545.231 242.537C545.401 242.477 545.6 242.447 545.83 242.447C546.05 242.447 546.249 242.477 546.429 242.537C546.619 242.597 546.779 242.692 546.908 242.821C547.038 242.961 547.138 243.146 547.208 243.376C547.278 243.595 547.313 243.865 547.313 244.184V256H550.607V244.214C550.607 243.366 550.517 242.642 550.338 242.043C550.168 241.434 549.923 240.94 549.604 240.56C549.284 240.201 548.905 239.936 548.466 239.766C548.037 239.587 547.562 239.497 547.043 239.497C546.644 239.497 546.274 239.547 545.935 239.647C545.605 239.746 545.306 239.886 545.036 240.066C544.827 240.206 544.632 240.375 544.452 240.575C544.273 240.775 544.113 240.989 543.973 241.219C543.873 240.969 543.753 240.75 543.614 240.56C543.474 240.36 543.314 240.191 543.134 240.051C542.905 239.861 542.63 239.721 542.311 239.632C541.991 239.542 541.632 239.497 541.233 239.497C540.464 239.497 539.805 239.682 539.256 240.051C538.717 240.42 538.292 240.93 537.983 241.578L537.878 239.796ZM564.61 256H568.264V255.745C568.064 255.326 567.909 254.827 567.799 254.248C567.7 253.659 567.65 253 567.65 252.271V245.068C567.65 244.149 567.48 243.341 567.14 242.642C566.801 241.933 566.332 241.349 565.733 240.89C565.134 240.43 564.42 240.086 563.591 239.856C562.773 239.617 561.889 239.497 560.941 239.497C559.882 239.497 558.939 239.637 558.11 239.916C557.291 240.186 556.603 240.555 556.044 241.024C555.464 241.484 555.025 242.013 554.726 242.612C554.426 243.211 554.271 243.835 554.261 244.484H557.856C557.856 244.174 557.91 243.885 558.02 243.615C558.14 243.336 558.32 243.101 558.559 242.911C558.799 242.702 559.099 242.537 559.458 242.417C559.827 242.297 560.257 242.237 560.746 242.237C561.285 242.237 561.759 242.307 562.169 242.447C562.588 242.577 562.942 242.767 563.232 243.016C563.501 243.266 563.706 243.56 563.846 243.9C563.996 244.239 564.07 244.619 564.07 245.038V246.131H561.465C560.297 246.131 559.248 246.241 558.32 246.461C557.401 246.68 556.628 247 555.999 247.419C555.32 247.868 554.801 248.437 554.441 249.126C554.092 249.805 553.917 250.589 553.917 251.477C553.917 252.166 554.052 252.81 554.321 253.409C554.601 253.998 554.99 254.502 555.489 254.922C555.979 255.351 556.568 255.691 557.257 255.94C557.955 256.18 558.724 256.3 559.563 256.3C560.082 256.3 560.566 256.25 561.015 256.15C561.465 256.05 561.884 255.91 562.273 255.73C562.663 255.561 563.012 255.361 563.322 255.131C563.641 254.892 563.926 254.642 564.175 254.383C564.225 254.692 564.28 254.992 564.34 255.281C564.41 255.561 564.5 255.8 564.61 256ZM560.252 253.424C559.792 253.424 559.393 253.369 559.054 253.259C558.714 253.14 558.43 252.98 558.2 252.78C557.97 252.581 557.796 252.341 557.676 252.061C557.556 251.772 557.496 251.462 557.496 251.133C557.496 250.734 557.566 250.374 557.706 250.055C557.856 249.735 558.08 249.461 558.38 249.231C558.719 248.961 559.173 248.757 559.742 248.617C560.312 248.467 560.985 248.392 561.764 248.392H564.07V251.388C563.941 251.647 563.756 251.897 563.516 252.136C563.277 252.376 562.992 252.591 562.663 252.78C562.333 252.97 561.964 253.125 561.555 253.244C561.155 253.364 560.721 253.424 560.252 253.424Z"></path>
<path fill="white" d="M265.855 162.614L264.002 162.4C264.002 162.655 263.957 162.902 263.868 163.141C263.778 163.381 263.658 163.59 263.508 163.77C263.359 163.957 263.183 164.107 262.981 164.219C262.786 164.331 262.576 164.387 262.352 164.387C262.157 164.387 261.966 164.365 261.779 164.32C261.6 164.275 261.42 164.208 261.24 164.118C261.068 164.028 260.892 163.923 260.713 163.804C260.541 163.676 260.357 163.534 260.163 163.377C259.886 163.137 259.609 162.924 259.332 162.737C259.062 162.542 258.786 162.385 258.501 162.266C258.217 162.131 257.921 162.03 257.614 161.962C257.307 161.888 256.985 161.85 256.649 161.85C256.14 161.85 255.676 161.951 255.257 162.153C254.837 162.355 254.482 162.632 254.19 162.984C253.883 163.336 253.647 163.755 253.483 164.241C253.318 164.72 253.236 165.237 253.236 165.791L255.043 166.015C255.043 165.761 255.088 165.518 255.178 165.286C255.268 165.054 255.391 164.851 255.548 164.679C255.698 164.507 255.874 164.369 256.076 164.264C256.286 164.159 256.503 164.107 256.727 164.107C256.907 164.107 257.083 164.125 257.255 164.163C257.427 164.2 257.595 164.26 257.76 164.342C257.955 164.425 258.149 164.533 258.344 164.668C258.539 164.795 258.737 164.941 258.939 165.106C259.231 165.368 259.512 165.596 259.781 165.791C260.058 165.978 260.339 166.135 260.623 166.262C260.9 166.39 261.184 166.487 261.476 166.554C261.776 166.614 262.094 166.644 262.43 166.644C262.939 166.644 263.403 166.539 263.823 166.33C264.242 166.12 264.605 165.832 264.912 165.465C265.211 165.106 265.443 164.683 265.608 164.197C265.772 163.703 265.855 163.175 265.855 162.614ZM271.738 172.403L278.148 154.654H275.689L269.268 172.403H271.738ZM285.03 164.769H287.803C288.626 164.769 289.382 164.649 290.071 164.41C290.767 164.17 291.366 163.83 291.867 163.388C292.369 162.954 292.758 162.434 293.035 161.828C293.312 161.214 293.45 160.529 293.45 159.773C293.45 158.987 293.312 158.28 293.035 157.651C292.758 157.023 292.369 156.487 291.867 156.046C291.366 155.604 290.767 155.264 290.071 155.024C289.382 154.785 288.626 154.661 287.803 154.654H282.336V171H285.03V164.769ZM285.03 162.569V156.854H287.803C288.26 156.862 288.668 156.937 289.027 157.079C289.394 157.221 289.704 157.423 289.959 157.685C290.213 157.947 290.404 158.258 290.531 158.617C290.666 158.969 290.733 159.362 290.733 159.796C290.733 160.192 290.666 160.559 290.531 160.896C290.404 161.233 290.213 161.525 289.959 161.772C289.704 162.019 289.394 162.213 289.027 162.355C288.668 162.49 288.26 162.561 287.803 162.569H285.03ZM304.408 158.628C303.569 158.628 302.802 158.823 302.106 159.212C301.417 159.601 300.826 160.136 300.332 160.817L300.321 160.537L300.209 158.853H297.694V171H300.377V163.5C300.519 163.141 300.695 162.823 300.905 162.546C301.114 162.269 301.369 162.041 301.668 161.861C301.945 161.674 302.263 161.536 302.622 161.446C302.982 161.356 303.386 161.311 303.835 161.311C304.232 161.311 304.628 161.334 305.025 161.379C305.429 161.424 305.837 161.491 306.249 161.581L306.63 158.931C306.398 158.849 306.077 158.778 305.665 158.718C305.261 158.658 304.842 158.628 304.408 158.628ZM309.325 164.814V165.05C309.325 165.94 309.452 166.76 309.707 167.508C309.961 168.257 310.332 168.908 310.818 169.462C311.297 170.016 311.888 170.45 312.592 170.764C313.295 171.079 314.093 171.236 314.983 171.236C315.866 171.236 316.656 171.079 317.352 170.764C318.056 170.45 318.647 170.016 319.126 169.462C319.605 168.908 319.972 168.257 320.226 167.508C320.481 166.76 320.608 165.94 320.608 165.05V164.814C320.608 163.931 320.481 163.115 320.226 162.367C319.972 161.611 319.605 160.956 319.126 160.402C318.639 159.848 318.044 159.414 317.341 159.1C316.645 158.785 315.851 158.628 314.961 158.628C314.07 158.628 313.277 158.785 312.581 159.1C311.885 159.414 311.297 159.848 310.818 160.402C310.332 160.956 309.961 161.611 309.707 162.367C309.452 163.115 309.325 163.931 309.325 164.814ZM312.008 165.05V164.814C312.008 164.283 312.064 163.774 312.177 163.287C312.296 162.801 312.48 162.374 312.727 162.007C312.966 161.641 313.269 161.349 313.636 161.132C314.01 160.915 314.452 160.806 314.961 160.806C315.477 160.806 315.919 160.915 316.286 161.132C316.66 161.349 316.97 161.641 317.217 162.007C317.449 162.374 317.625 162.801 317.745 163.287C317.865 163.774 317.925 164.283 317.925 164.814V165.05C317.925 165.596 317.865 166.113 317.745 166.599C317.633 167.086 317.457 167.512 317.217 167.879C316.978 168.246 316.671 168.538 316.297 168.755C315.923 168.964 315.485 169.069 314.983 169.069C314.467 169.069 314.021 168.964 313.647 168.755C313.273 168.538 312.966 168.246 312.727 167.879C312.48 167.512 312.296 167.086 312.177 166.599C312.064 166.113 312.008 165.596 312.008 165.05ZM325.301 158.853V161.087H328.781V171.191C328.781 171.662 328.717 172.055 328.59 172.37C328.463 172.684 328.291 172.938 328.074 173.133C327.857 173.32 327.598 173.455 327.299 173.537C327 173.62 326.682 173.661 326.345 173.661C326.255 173.661 326.128 173.657 325.963 173.65C325.798 173.65 325.626 173.642 325.447 173.627C325.259 173.62 325.08 173.605 324.908 173.582C324.736 173.567 324.597 173.548 324.492 173.526L324.335 175.715C324.492 175.745 324.646 175.771 324.795 175.794C324.953 175.816 325.106 175.835 325.256 175.85C325.458 175.872 325.66 175.887 325.862 175.895C326.072 175.902 326.281 175.906 326.491 175.906C327.284 175.906 327.988 175.809 328.601 175.614C329.215 175.42 329.735 175.128 330.162 174.739C330.588 174.349 330.914 173.859 331.139 173.268C331.363 172.684 331.475 171.992 331.475 171.191V158.853H325.301ZM328.534 155.709C328.534 156.128 328.669 156.476 328.938 156.753C329.215 157.03 329.597 157.169 330.083 157.169C330.585 157.169 330.974 157.03 331.251 156.753C331.528 156.476 331.666 156.128 331.666 155.709C331.666 155.282 331.528 154.931 331.251 154.654C330.974 154.369 330.585 154.227 330.083 154.227C329.589 154.227 329.208 154.373 328.938 154.665C328.669 154.949 328.534 155.297 328.534 155.709ZM343.106 171.225C344.289 171.225 345.296 170.993 346.126 170.528C346.965 170.064 347.586 169.541 347.99 168.957L346.553 167.565C346.179 168.044 345.704 168.414 345.127 168.676C344.551 168.931 343.93 169.058 343.264 169.058C342.777 169.058 342.328 168.975 341.916 168.811C341.512 168.646 341.16 168.414 340.861 168.115C340.562 167.83 340.326 167.508 340.154 167.149C339.982 166.79 339.854 166.345 339.772 165.813V165.757H348.192V164.601C348.192 163.733 348.076 162.932 347.844 162.198C347.612 161.465 347.268 160.832 346.811 160.301C346.355 159.777 345.79 159.369 345.116 159.077C344.442 158.778 343.668 158.628 342.792 158.628C342.006 158.628 341.265 158.778 340.569 159.077C339.881 159.369 339.274 159.788 338.75 160.335C338.226 160.881 337.815 161.54 337.515 162.31C337.216 163.081 337.066 163.942 337.066 164.893V165.353C337.066 166.184 337.209 166.958 337.493 167.677C337.785 168.388 338.197 169.005 338.728 169.529C339.259 170.061 339.896 170.476 340.636 170.775C341.385 171.075 342.208 171.225 343.106 171.225ZM342.781 160.806C343.23 160.806 343.623 160.885 343.96 161.042C344.304 161.192 344.588 161.394 344.813 161.648C345.045 161.91 345.225 162.217 345.352 162.569C345.479 162.913 345.543 163.261 345.543 163.613V163.792H339.828C339.91 163.328 340.038 162.913 340.21 162.546C340.382 162.179 340.595 161.865 340.85 161.603C341.104 161.349 341.392 161.154 341.714 161.019C342.044 160.877 342.399 160.806 342.781 160.806ZM356.534 169.069C355.972 169.069 355.505 168.957 355.13 168.732C354.756 168.508 354.46 168.208 354.243 167.834C354.019 167.475 353.858 167.059 353.761 166.588C353.671 166.109 353.626 165.622 353.626 165.128V164.735C353.626 164.249 353.671 163.77 353.761 163.298C353.858 162.827 354.023 162.408 354.255 162.041C354.472 161.674 354.764 161.379 355.13 161.154C355.505 160.922 355.972 160.806 356.534 160.806C356.9 160.806 357.241 160.87 357.555 160.997C357.877 161.124 358.154 161.296 358.386 161.513C358.611 161.73 358.783 161.985 358.903 162.277C359.03 162.569 359.093 162.879 359.093 163.209H361.619C361.627 162.535 361.503 161.918 361.249 161.356C361.002 160.795 360.654 160.312 360.205 159.908C359.756 159.504 359.217 159.189 358.588 158.965C357.967 158.74 357.29 158.628 356.556 158.628C355.628 158.628 354.812 158.793 354.109 159.122C353.413 159.444 352.829 159.882 352.357 160.436C351.886 160.989 351.53 161.637 351.291 162.378C351.059 163.119 350.943 163.905 350.943 164.735V165.128C350.943 165.967 351.062 166.756 351.302 167.497C351.541 168.231 351.897 168.874 352.369 169.428C352.833 169.982 353.413 170.424 354.109 170.753C354.812 171.075 355.632 171.236 356.567 171.236C357.241 171.236 357.881 171.127 358.487 170.91C359.101 170.686 359.643 170.379 360.115 169.99C360.579 169.615 360.946 169.17 361.215 168.654C361.492 168.13 361.627 167.572 361.619 166.981H359.093C359.093 167.288 359.022 167.568 358.88 167.823C358.745 168.077 358.562 168.298 358.33 168.485C358.09 168.672 357.814 168.818 357.499 168.923C357.192 169.02 356.87 169.069 356.534 169.069ZM370.444 155.889H367.749V158.853H364.808V160.862H367.749V166.835C367.749 167.613 367.85 168.279 368.052 168.833C368.262 169.387 368.55 169.84 368.917 170.192C369.284 170.551 369.721 170.817 370.23 170.989C370.747 171.153 371.312 171.236 371.926 171.236C372.262 171.236 372.599 171.217 372.936 171.18C373.28 171.15 373.61 171.105 373.924 171.045C374.238 170.985 374.53 170.914 374.8 170.832C375.077 170.742 375.312 170.637 375.507 170.517L375.215 168.665C375.08 168.695 374.912 168.732 374.71 168.777C374.515 168.815 374.306 168.848 374.081 168.878C373.849 168.916 373.61 168.945 373.363 168.968C373.116 168.99 372.876 169.002 372.644 169.002C372.322 169.002 372.027 168.964 371.757 168.889C371.488 168.815 371.256 168.687 371.061 168.508C370.867 168.336 370.713 168.1 370.601 167.8C370.496 167.493 370.444 167.116 370.444 166.666V160.862H375.013V158.853H370.444V155.889ZM386.801 167.711C386.801 167.905 386.756 168.085 386.666 168.249C386.584 168.407 386.457 168.553 386.285 168.687C386.075 168.852 385.794 168.983 385.443 169.08C385.098 169.178 384.694 169.226 384.23 169.226C383.886 169.226 383.545 169.192 383.209 169.125C382.872 169.05 382.572 168.931 382.31 168.766C382.041 168.609 381.816 168.403 381.637 168.148C381.465 167.886 381.367 167.568 381.345 167.194H378.74C378.74 167.696 378.86 168.19 379.1 168.676C379.339 169.163 379.691 169.593 380.155 169.967C380.611 170.349 381.177 170.656 381.85 170.888C382.531 171.12 383.31 171.236 384.185 171.236C384.971 171.236 385.686 171.146 386.33 170.966C386.973 170.787 387.527 170.536 387.991 170.214C388.448 169.892 388.8 169.507 389.047 169.058C389.301 168.609 389.428 168.115 389.428 167.576C389.428 167.022 389.308 166.543 389.069 166.139C388.829 165.735 388.493 165.383 388.059 165.083C387.624 164.799 387.101 164.56 386.487 164.365C385.873 164.17 385.196 164.006 384.455 163.871C383.923 163.781 383.482 163.68 383.13 163.568C382.786 163.456 382.516 163.332 382.322 163.197C382.112 163.07 381.966 162.924 381.884 162.76C381.801 162.587 381.76 162.397 381.76 162.187C381.76 161.985 381.809 161.794 381.906 161.614C382.004 161.427 382.15 161.266 382.344 161.132C382.539 160.982 382.786 160.866 383.085 160.784C383.392 160.694 383.747 160.649 384.152 160.649C384.593 160.649 384.979 160.709 385.308 160.829C385.637 160.941 385.907 161.094 386.116 161.289C386.296 161.453 386.431 161.641 386.52 161.85C386.618 162.052 386.666 162.266 386.666 162.49H389.35C389.35 161.944 389.23 161.435 388.99 160.963C388.751 160.492 388.41 160.084 387.969 159.74C387.52 159.395 386.973 159.126 386.33 158.931C385.686 158.729 384.96 158.628 384.152 158.628C383.396 158.628 382.707 158.725 382.086 158.92C381.472 159.115 380.948 159.38 380.514 159.717C380.073 160.054 379.732 160.447 379.493 160.896C379.26 161.337 379.144 161.805 379.144 162.299C379.144 162.816 379.26 163.268 379.493 163.658C379.725 164.047 380.046 164.384 380.458 164.668C380.877 164.967 381.375 165.222 381.951 165.431C382.535 165.641 383.179 165.817 383.882 165.959C384.444 166.064 384.911 166.176 385.286 166.296C385.66 166.416 385.963 166.543 386.195 166.678C386.412 166.827 386.565 166.985 386.655 167.149C386.753 167.314 386.801 167.501 386.801 167.711Z" opacity="0.5"></path>
<path fill="white" d="M290.751 336.394H293.524C294.348 336.394 295.103 336.274 295.792 336.035C296.488 335.795 297.087 335.455 297.588 335.013C298.09 334.579 298.479 334.059 298.756 333.453C299.033 332.839 299.171 332.154 299.171 331.398C299.171 330.612 299.033 329.905 298.756 329.276C298.479 328.648 298.09 328.112 297.588 327.671C297.087 327.229 296.488 326.889 295.792 326.649C295.103 326.41 294.348 326.286 293.524 326.279H288.057V342.625H290.751V336.394ZM290.751 334.194V328.479H293.524C293.981 328.487 294.389 328.562 294.748 328.704C295.115 328.846 295.425 329.048 295.68 329.31C295.934 329.572 296.125 329.883 296.252 330.242C296.387 330.594 296.454 330.987 296.454 331.421C296.454 331.817 296.387 332.184 296.252 332.521C296.125 332.858 295.934 333.15 295.68 333.397C295.425 333.644 295.115 333.838 294.748 333.98C294.389 334.115 293.981 334.186 293.524 334.194H290.751ZM310.129 330.253C309.29 330.253 308.523 330.448 307.827 330.837C307.139 331.226 306.547 331.761 306.053 332.442L306.042 332.162L305.93 330.478H303.415V342.625H306.098V335.125C306.24 334.766 306.416 334.448 306.626 334.171C306.835 333.894 307.09 333.666 307.389 333.486C307.666 333.299 307.984 333.161 308.344 333.071C308.703 332.981 309.107 332.936 309.556 332.936C309.953 332.936 310.349 332.959 310.746 333.004C311.15 333.049 311.558 333.116 311.97 333.206L312.352 330.556C312.12 330.474 311.798 330.403 311.386 330.343C310.982 330.283 310.563 330.253 310.129 330.253ZM316.157 330.478V332.712H319.896V340.402H316.157V342.625H326.172V340.402H322.602V330.478H316.157ZM319.649 327.334C319.649 327.618 319.716 327.869 319.851 328.086C319.993 328.296 320.199 328.442 320.469 328.524C320.731 328.606 320.97 328.625 321.187 328.58C321.404 328.535 321.591 328.442 321.748 328.3C322.063 328.217 322.302 328.056 322.467 327.817C322.632 327.57 322.688 327.282 322.635 326.952C322.598 326.631 322.452 326.369 322.198 326.166C321.951 325.957 321.625 325.852 321.221 325.852C320.981 325.852 320.764 325.89 320.57 325.964C320.383 326.032 320.222 326.129 320.087 326.256C319.945 326.391 319.836 326.552 319.761 326.739C319.686 326.919 319.649 327.117 319.649 327.334ZM337.286 339.336C337.286 339.53 337.241 339.71 337.152 339.874C337.069 340.032 336.942 340.178 336.77 340.312C336.56 340.477 336.28 340.608 335.928 340.705C335.584 340.803 335.179 340.851 334.715 340.851C334.371 340.851 334.031 340.817 333.694 340.75C333.357 340.675 333.058 340.556 332.796 340.391C332.526 340.234 332.302 340.028 332.122 339.773C331.95 339.511 331.853 339.193 331.83 338.819H329.226C329.226 339.321 329.345 339.815 329.585 340.301C329.824 340.788 330.176 341.218 330.64 341.592C331.097 341.974 331.662 342.281 332.335 342.513C333.016 342.745 333.795 342.861 334.671 342.861C335.456 342.861 336.171 342.771 336.815 342.591C337.459 342.412 338.012 342.161 338.476 341.839C338.933 341.517 339.285 341.132 339.532 340.683C339.786 340.234 339.913 339.74 339.913 339.201C339.913 338.647 339.794 338.168 339.554 337.764C339.315 337.36 338.978 337.008 338.544 336.708C338.11 336.424 337.586 336.185 336.972 335.99C336.358 335.795 335.681 335.631 334.94 335.496C334.409 335.406 333.967 335.305 333.615 335.193C333.271 335.081 333.001 334.957 332.807 334.822C332.597 334.695 332.451 334.549 332.369 334.385C332.287 334.212 332.246 334.022 332.246 333.812C332.246 333.61 332.294 333.419 332.391 333.239C332.489 333.052 332.635 332.891 332.829 332.757C333.024 332.607 333.271 332.491 333.57 332.409C333.877 332.319 334.233 332.274 334.637 332.274C335.078 332.274 335.464 332.334 335.793 332.454C336.123 332.566 336.392 332.719 336.602 332.914C336.781 333.078 336.916 333.266 337.006 333.475C337.103 333.677 337.152 333.891 337.152 334.115H339.835C339.835 333.569 339.715 333.06 339.476 332.588C339.236 332.117 338.896 331.709 338.454 331.365C338.005 331.02 337.459 330.751 336.815 330.556C336.171 330.354 335.445 330.253 334.637 330.253C333.881 330.253 333.192 330.35 332.571 330.545C331.957 330.74 331.433 331.005 330.999 331.342C330.558 331.679 330.217 332.072 329.978 332.521C329.746 332.962 329.63 333.43 329.63 333.924C329.63 334.441 329.746 334.893 329.978 335.283C330.21 335.672 330.532 336.009 330.943 336.293C331.362 336.592 331.86 336.847 332.436 337.056C333.02 337.266 333.664 337.442 334.367 337.584C334.929 337.689 335.397 337.801 335.771 337.921C336.145 338.041 336.448 338.168 336.68 338.303C336.897 338.452 337.051 338.61 337.14 338.774C337.238 338.939 337.286 339.126 337.286 339.336ZM344.685 330.478H342.35V342.625H344.82V333.296C344.864 333.183 344.913 333.082 344.966 332.992C345.025 332.903 345.093 332.824 345.168 332.757C345.265 332.659 345.381 332.588 345.516 332.543C345.658 332.491 345.819 332.465 345.998 332.465C346.163 332.465 346.309 332.487 346.436 332.532C346.571 332.577 346.687 332.648 346.784 332.745C346.882 332.843 346.953 332.977 346.998 333.15C347.05 333.314 347.076 333.516 347.076 333.756V342.625H349.501V333.61C349.501 333.535 349.501 333.479 349.501 333.441C349.501 333.397 349.501 333.359 349.501 333.329C349.531 333.202 349.576 333.09 349.636 332.992C349.696 332.888 349.771 332.798 349.86 332.723C349.958 332.641 350.07 332.577 350.197 332.532C350.324 332.487 350.474 332.465 350.646 332.465C350.811 332.465 350.961 332.487 351.095 332.532C351.238 332.577 351.357 332.648 351.455 332.745C351.552 332.85 351.627 332.989 351.679 333.161C351.732 333.325 351.758 333.528 351.758 333.767V342.625H354.228V333.789C354.228 333.153 354.16 332.611 354.026 332.162C353.898 331.705 353.715 331.335 353.475 331.05C353.236 330.781 352.952 330.582 352.622 330.455C352.3 330.32 351.945 330.253 351.556 330.253C351.256 330.253 350.979 330.29 350.725 330.365C350.478 330.44 350.253 330.545 350.051 330.68C349.894 330.784 349.748 330.912 349.613 331.061C349.479 331.211 349.359 331.372 349.254 331.544C349.179 331.357 349.089 331.192 348.985 331.05C348.88 330.9 348.76 330.773 348.625 330.668C348.453 330.526 348.247 330.421 348.008 330.354C347.768 330.287 347.499 330.253 347.2 330.253C346.623 330.253 346.129 330.392 345.718 330.668C345.314 330.945 344.995 331.327 344.763 331.814L344.685 330.478ZM364.725 342.625H367.464V342.434C367.314 342.12 367.198 341.746 367.116 341.311C367.041 340.87 367.004 340.376 367.004 339.83V334.429C367.004 333.741 366.877 333.135 366.622 332.611C366.368 332.079 366.016 331.641 365.567 331.297C365.118 330.953 364.582 330.695 363.961 330.522C363.348 330.343 362.685 330.253 361.974 330.253C361.181 330.253 360.473 330.358 359.852 330.567C359.239 330.769 358.722 331.046 358.303 331.398C357.869 331.742 357.54 332.139 357.315 332.588C357.09 333.037 356.974 333.505 356.967 333.992H359.661C359.661 333.76 359.703 333.543 359.785 333.34C359.875 333.131 360.009 332.955 360.189 332.813C360.369 332.656 360.593 332.532 360.863 332.442C361.14 332.352 361.461 332.308 361.828 332.308C362.232 332.308 362.588 332.36 362.895 332.465C363.209 332.562 363.475 332.704 363.692 332.891C363.894 333.078 364.047 333.299 364.152 333.554C364.264 333.808 364.321 334.093 364.321 334.407V335.227H362.367C361.491 335.227 360.706 335.309 360.009 335.474C359.321 335.638 358.741 335.878 358.269 336.192C357.76 336.529 357.371 336.955 357.102 337.472C356.84 337.981 356.709 338.568 356.709 339.235C356.709 339.751 356.81 340.234 357.012 340.683C357.221 341.124 357.513 341.502 357.888 341.817C358.254 342.139 358.696 342.393 359.212 342.58C359.736 342.76 360.313 342.85 360.941 342.85C361.33 342.85 361.693 342.812 362.03 342.737C362.367 342.662 362.681 342.558 362.973 342.423C363.265 342.296 363.527 342.146 363.759 341.974C363.999 341.794 364.212 341.607 364.399 341.413C364.437 341.645 364.478 341.869 364.523 342.086C364.575 342.296 364.642 342.475 364.725 342.625ZM361.458 340.694C361.113 340.694 360.814 340.653 360.56 340.57C360.305 340.481 360.092 340.361 359.92 340.211C359.747 340.062 359.617 339.882 359.527 339.672C359.437 339.455 359.392 339.223 359.392 338.976C359.392 338.677 359.444 338.407 359.549 338.168C359.661 337.928 359.83 337.723 360.054 337.55C360.309 337.348 360.649 337.195 361.076 337.09C361.503 336.978 362.008 336.922 362.592 336.922H364.321V339.167C364.223 339.362 364.085 339.549 363.905 339.728C363.726 339.908 363.512 340.069 363.265 340.211C363.018 340.353 362.741 340.469 362.434 340.559C362.135 340.649 361.809 340.694 361.458 340.694ZM390.254 342.85C391.437 342.85 392.444 342.618 393.275 342.153C394.113 341.689 394.734 341.166 395.138 340.582L393.701 339.19C393.327 339.669 392.852 340.039 392.275 340.301C391.699 340.556 391.078 340.683 390.412 340.683C389.925 340.683 389.476 340.6 389.064 340.436C388.66 340.271 388.309 340.039 388.009 339.74C387.71 339.455 387.474 339.133 387.302 338.774C387.13 338.415 387.002 337.97 386.92 337.438V337.382H395.34V336.226C395.34 335.358 395.224 334.557 394.992 333.823C394.76 333.09 394.416 332.457 393.959 331.926C393.503 331.402 392.938 330.994 392.264 330.702C391.59 330.403 390.816 330.253 389.94 330.253C389.154 330.253 388.413 330.403 387.717 330.702C387.029 330.994 386.422 331.413 385.898 331.96C385.375 332.506 384.963 333.165 384.664 333.935C384.364 334.706 384.214 335.567 384.214 336.518V336.978C384.214 337.809 384.357 338.583 384.641 339.302C384.933 340.013 385.345 340.63 385.876 341.154C386.407 341.686 387.044 342.101 387.785 342.4C388.533 342.7 389.356 342.85 390.254 342.85ZM389.929 332.431C390.378 332.431 390.771 332.51 391.108 332.667C391.452 332.817 391.736 333.019 391.961 333.273C392.193 333.535 392.373 333.842 392.5 334.194C392.627 334.538 392.691 334.886 392.691 335.238V335.417H386.976C387.059 334.953 387.186 334.538 387.358 334.171C387.53 333.804 387.743 333.49 387.998 333.228C388.252 332.974 388.541 332.779 388.862 332.644C389.192 332.502 389.547 332.431 389.929 332.431ZM403.727 334.564L400.853 330.478H397.9L402.155 336.461L397.754 342.625H400.729L403.749 338.381L406.78 342.625H409.744L405.343 336.461L409.61 330.478H406.634L403.727 334.564ZM419.961 342.625H422.7V342.434C422.55 342.12 422.434 341.746 422.352 341.311C422.277 340.87 422.24 340.376 422.24 339.83V334.429C422.24 333.741 422.112 333.135 421.858 332.611C421.603 332.079 421.252 331.641 420.803 331.297C420.354 330.953 419.818 330.695 419.197 330.522C418.583 330.343 417.921 330.253 417.21 330.253C416.417 330.253 415.709 330.358 415.088 330.567C414.474 330.769 413.958 331.046 413.539 331.398C413.105 331.742 412.775 332.139 412.551 332.588C412.326 333.037 412.21 333.505 412.203 333.992H414.897C414.897 333.76 414.939 333.543 415.021 333.34C415.111 333.131 415.245 332.955 415.425 332.813C415.605 332.656 415.829 332.532 416.099 332.442C416.376 332.352 416.697 332.308 417.064 332.308C417.468 332.308 417.824 332.36 418.131 332.465C418.445 332.562 418.711 332.704 418.928 332.891C419.13 333.078 419.283 333.299 419.388 333.554C419.5 333.808 419.556 334.093 419.556 334.407V335.227H417.603C416.727 335.227 415.941 335.309 415.245 335.474C414.557 335.638 413.977 335.878 413.505 336.192C412.996 336.529 412.607 336.955 412.338 337.472C412.076 337.981 411.945 338.568 411.945 339.235C411.945 339.751 412.046 340.234 412.248 340.683C412.457 341.124 412.749 341.502 413.124 341.817C413.49 342.139 413.932 342.393 414.448 342.58C414.972 342.76 415.549 342.85 416.177 342.85C416.566 342.85 416.929 342.812 417.266 342.737C417.603 342.662 417.917 342.558 418.209 342.423C418.501 342.296 418.763 342.146 418.995 341.974C419.235 341.794 419.448 341.607 419.635 341.413C419.672 341.645 419.714 341.869 419.759 342.086C419.811 342.296 419.878 342.475 419.961 342.625ZM416.694 340.694C416.349 340.694 416.05 340.653 415.795 340.57C415.541 340.481 415.328 340.361 415.156 340.211C414.983 340.062 414.852 339.882 414.763 339.672C414.673 339.455 414.628 339.223 414.628 338.976C414.628 338.677 414.68 338.407 414.785 338.168C414.897 337.928 415.066 337.723 415.29 337.55C415.545 337.348 415.885 337.195 416.312 337.09C416.739 336.978 417.244 336.922 417.828 336.922H419.556V339.167C419.459 339.362 419.321 339.549 419.141 339.728C418.961 339.908 418.748 340.069 418.501 340.211C418.254 340.353 417.977 340.469 417.67 340.559C417.371 340.649 417.045 340.694 416.694 340.694ZM427.539 330.478H425.204V342.625H427.673V333.296C427.718 333.183 427.767 333.082 427.819 332.992C427.879 332.903 427.947 332.824 428.022 332.757C428.119 332.659 428.235 332.588 428.37 332.543C428.512 332.491 428.673 332.465 428.852 332.465C429.017 332.465 429.163 332.487 429.29 332.532C429.425 332.577 429.541 332.648 429.638 332.745C429.735 332.843 429.807 332.977 429.851 333.15C429.904 333.314 429.93 333.516 429.93 333.756V342.625H432.355V333.61C432.355 333.535 432.355 333.479 432.355 333.441C432.355 333.397 432.355 333.359 432.355 333.329C432.385 333.202 432.43 333.09 432.49 332.992C432.55 332.888 432.624 332.798 432.714 332.723C432.812 332.641 432.924 332.577 433.051 332.532C433.178 332.487 433.328 332.465 433.5 332.465C433.665 332.465 433.815 332.487 433.949 332.532C434.091 332.577 434.211 332.648 434.309 332.745C434.406 332.85 434.481 332.989 434.533 333.161C434.585 333.325 434.612 333.528 434.612 333.767V342.625H437.082V333.789C437.082 333.153 437.014 332.611 436.879 332.162C436.752 331.705 436.569 331.335 436.329 331.05C436.09 330.781 435.805 330.582 435.476 330.455C435.154 330.32 434.799 330.253 434.41 330.253C434.11 330.253 433.833 330.29 433.579 330.365C433.332 330.44 433.107 330.545 432.905 330.68C432.748 330.784 432.602 330.912 432.467 331.061C432.333 331.211 432.213 331.372 432.108 331.544C432.033 331.357 431.943 331.192 431.839 331.05C431.734 330.9 431.614 330.773 431.479 330.668C431.307 330.526 431.101 330.421 430.862 330.354C430.622 330.287 430.353 330.253 430.054 330.253C429.477 330.253 428.983 330.392 428.572 330.668C428.167 330.945 427.849 331.327 427.617 331.814L427.539 330.478ZM439.843 347.295H442.527V341.525C442.669 341.682 442.822 341.828 442.987 341.963C443.152 342.097 443.324 342.217 443.503 342.322C443.81 342.494 444.143 342.625 444.502 342.715C444.869 342.805 445.27 342.85 445.704 342.85C446.467 342.85 447.145 342.692 447.736 342.378C448.327 342.064 448.825 341.63 449.229 341.076C449.633 340.529 449.936 339.878 450.138 339.122C450.348 338.366 450.453 337.55 450.453 336.675V336.439C450.453 335.526 450.348 334.691 450.138 333.935C449.929 333.172 449.626 332.517 449.229 331.971C448.825 331.424 448.323 331.002 447.725 330.702C447.133 330.403 446.448 330.253 445.67 330.253C445.273 330.253 444.899 330.298 444.547 330.388C444.196 330.47 443.874 330.59 443.582 330.747C443.357 330.867 443.148 331.009 442.953 331.174C442.759 331.338 442.579 331.522 442.414 331.724L442.313 330.478H439.843V347.295ZM447.769 336.439V336.675C447.769 337.214 447.717 337.726 447.612 338.213C447.508 338.692 447.339 339.118 447.107 339.493C446.883 339.859 446.591 340.151 446.231 340.368C445.88 340.578 445.453 340.683 444.952 340.683C444.645 340.683 444.364 340.649 444.11 340.582C443.855 340.507 443.627 340.41 443.425 340.29C443.23 340.163 443.058 340.013 442.908 339.841C442.759 339.669 442.631 339.478 442.527 339.268V333.868C442.646 333.644 442.785 333.441 442.942 333.262C443.107 333.082 443.297 332.933 443.515 332.813C443.702 332.7 443.915 332.614 444.154 332.555C444.394 332.495 444.652 332.465 444.929 332.465C445.431 332.465 445.861 332.57 446.22 332.779C446.579 332.989 446.875 333.273 447.107 333.632C447.332 333.992 447.496 334.414 447.601 334.901C447.713 335.38 447.769 335.893 447.769 336.439ZM454.146 325.381V327.615H457.986V340.402H454.146V342.625H464.374V340.402H460.692V325.381H454.146ZM473.108 342.85C474.291 342.85 475.298 342.618 476.128 342.153C476.967 341.689 477.588 341.166 477.992 340.582L476.555 339.19C476.181 339.669 475.706 340.039 475.129 340.301C474.553 340.556 473.932 340.683 473.266 340.683C472.779 340.683 472.33 340.6 471.918 340.436C471.514 340.271 471.162 340.039 470.863 339.74C470.564 339.455 470.328 339.133 470.156 338.774C469.984 338.415 469.856 337.97 469.774 337.438V337.382H478.194V336.226C478.194 335.358 478.078 334.557 477.846 333.823C477.614 333.09 477.27 332.457 476.813 331.926C476.357 331.402 475.792 330.994 475.118 330.702C474.444 330.403 473.67 330.253 472.794 330.253C472.008 330.253 471.267 330.403 470.571 330.702C469.883 330.994 469.276 331.413 468.752 331.96C468.228 332.506 467.817 333.165 467.517 333.935C467.218 334.706 467.068 335.567 467.068 336.518V336.978C467.068 337.809 467.211 338.583 467.495 339.302C467.787 340.013 468.199 340.63 468.73 341.154C469.261 341.686 469.898 342.101 470.638 342.4C471.387 342.7 472.21 342.85 473.108 342.85ZM472.783 332.431C473.232 332.431 473.625 332.51 473.962 332.667C474.306 332.817 474.59 333.019 474.815 333.273C475.047 333.535 475.227 333.842 475.354 334.194C475.481 334.538 475.545 334.886 475.545 335.238V335.417H469.83C469.912 334.953 470.04 334.538 470.212 334.171C470.384 333.804 470.597 333.49 470.852 333.228C471.106 332.974 471.394 332.779 471.716 332.644C472.046 332.502 472.401 332.431 472.783 332.431ZM489.185 339.336C489.185 339.53 489.14 339.71 489.05 339.874C488.968 340.032 488.841 340.178 488.669 340.312C488.459 340.477 488.179 340.608 487.827 340.705C487.482 340.803 487.078 340.851 486.614 340.851C486.27 340.851 485.929 340.817 485.593 340.75C485.256 340.675 484.956 340.556 484.694 340.391C484.425 340.234 484.201 340.028 484.021 339.773C483.849 339.511 483.751 339.193 483.729 338.819H481.124C481.124 339.321 481.244 339.815 481.484 340.301C481.723 340.788 482.075 341.218 482.539 341.592C482.995 341.974 483.561 342.281 484.234 342.513C484.915 342.745 485.694 342.861 486.569 342.861C487.355 342.861 488.07 342.771 488.714 342.591C489.357 342.412 489.911 342.161 490.375 341.839C490.832 341.517 491.184 341.132 491.431 340.683C491.685 340.234 491.812 339.74 491.812 339.201C491.812 338.647 491.693 338.168 491.453 337.764C491.214 337.36 490.877 337.008 490.443 336.708C490.009 336.424 489.485 336.185 488.871 335.99C488.257 335.795 487.58 335.631 486.839 335.496C486.307 335.406 485.866 335.305 485.514 335.193C485.17 335.081 484.9 334.957 484.706 334.822C484.496 334.695 484.35 334.549 484.268 334.385C484.186 334.212 484.144 334.022 484.144 333.812C484.144 333.61 484.193 333.419 484.29 333.239C484.388 333.052 484.534 332.891 484.728 332.757C484.923 332.607 485.17 332.491 485.469 332.409C485.776 332.319 486.132 332.274 486.536 332.274C486.977 332.274 487.363 332.334 487.692 332.454C488.021 332.566 488.291 332.719 488.5 332.914C488.68 333.078 488.815 333.266 488.905 333.475C489.002 333.677 489.05 333.891 489.05 334.115H491.734C491.734 333.569 491.614 333.06 491.374 332.588C491.135 332.117 490.794 331.709 490.353 331.365C489.904 331.02 489.357 330.751 488.714 330.556C488.07 330.354 487.344 330.253 486.536 330.253C485.78 330.253 485.091 330.35 484.47 330.545C483.856 330.74 483.332 331.005 482.898 331.342C482.457 331.679 482.116 332.072 481.877 332.521C481.645 332.962 481.529 333.43 481.529 333.924C481.529 334.441 481.645 334.893 481.877 335.283C482.109 335.672 482.43 336.009 482.842 336.293C483.261 336.592 483.759 336.847 484.335 337.056C484.919 337.266 485.563 337.442 486.266 337.584C486.828 337.689 487.295 337.801 487.67 337.921C488.044 338.041 488.347 338.168 488.579 338.303C488.796 338.452 488.949 338.61 489.039 338.774C489.137 338.939 489.185 339.126 489.185 339.336ZM509.382 325.381V327.615H513.222V340.402H509.382V342.625H519.61V340.402H515.927V325.381H509.382ZM522.181 336.439V336.675C522.181 337.565 522.308 338.385 522.563 339.133C522.817 339.882 523.187 340.533 523.674 341.087C524.153 341.641 524.744 342.075 525.448 342.389C526.151 342.704 526.948 342.861 527.839 342.861C528.722 342.861 529.512 342.704 530.208 342.389C530.912 342.075 531.503 341.641 531.982 341.087C532.461 340.533 532.828 339.882 533.082 339.133C533.337 338.385 533.464 337.565 533.464 336.675V336.439C533.464 335.556 533.337 334.74 533.082 333.992C532.828 333.236 532.461 332.581 531.982 332.027C531.495 331.473 530.9 331.039 530.197 330.725C529.501 330.41 528.707 330.253 527.817 330.253C526.926 330.253 526.133 330.41 525.437 330.725C524.741 331.039 524.153 331.473 523.674 332.027C523.187 332.581 522.817 333.236 522.563 333.992C522.308 334.74 522.181 335.556 522.181 336.439ZM524.864 336.675V336.439C524.864 335.908 524.92 335.399 525.032 334.912C525.152 334.426 525.336 333.999 525.583 333.632C525.822 333.266 526.125 332.974 526.492 332.757C526.866 332.54 527.308 332.431 527.817 332.431C528.333 332.431 528.775 332.54 529.141 332.757C529.516 332.974 529.826 333.266 530.073 333.632C530.305 333.999 530.481 334.426 530.601 334.912C530.721 335.399 530.781 335.908 530.781 336.439V336.675C530.781 337.221 530.721 337.738 530.601 338.224C530.489 338.711 530.313 339.137 530.073 339.504C529.834 339.871 529.527 340.163 529.153 340.38C528.778 340.589 528.341 340.694 527.839 340.694C527.323 340.694 526.877 340.589 526.503 340.38C526.129 340.163 525.822 339.871 525.583 339.504C525.336 339.137 525.152 338.711 525.032 338.224C524.92 337.738 524.864 337.221 524.864 336.675ZM544.242 342.625H546.981V342.434C546.831 342.12 546.715 341.746 546.633 341.311C546.558 340.87 546.521 340.376 546.521 339.83V334.429C546.521 333.741 546.393 333.135 546.139 332.611C545.884 332.079 545.533 331.641 545.084 331.297C544.634 330.953 544.099 330.695 543.478 330.522C542.864 330.343 542.202 330.253 541.491 330.253C540.698 330.253 539.99 330.358 539.369 330.567C538.755 330.769 538.239 331.046 537.82 331.398C537.386 331.742 537.056 332.139 536.832 332.588C536.607 333.037 536.491 333.505 536.484 333.992H539.178C539.178 333.76 539.219 333.543 539.302 333.34C539.392 333.131 539.526 332.955 539.706 332.813C539.886 332.656 540.11 332.532 540.379 332.442C540.656 332.352 540.978 332.308 541.345 332.308C541.749 332.308 542.105 332.36 542.412 332.465C542.726 332.562 542.992 332.704 543.209 332.891C543.411 333.078 543.564 333.299 543.669 333.554C543.781 333.808 543.837 334.093 543.837 334.407V335.227H541.884C541.008 335.227 540.222 335.309 539.526 335.474C538.838 335.638 538.258 335.878 537.786 336.192C537.277 336.529 536.888 336.955 536.619 337.472C536.357 337.981 536.226 338.568 536.226 339.235C536.226 339.751 536.327 340.234 536.529 340.683C536.738 341.124 537.03 341.502 537.404 341.817C537.771 342.139 538.213 342.393 538.729 342.58C539.253 342.76 539.829 342.85 540.458 342.85C540.847 342.85 541.21 342.812 541.547 342.737C541.884 342.662 542.198 342.558 542.49 342.423C542.782 342.296 543.044 342.146 543.276 341.974C543.516 341.794 543.729 341.607 543.916 341.413C543.953 341.645 543.995 341.869 544.039 342.086C544.092 342.296 544.159 342.475 544.242 342.625ZM540.975 340.694C540.63 340.694 540.331 340.653 540.076 340.57C539.822 340.481 539.609 340.361 539.436 340.211C539.264 340.062 539.133 339.882 539.043 339.672C538.954 339.455 538.909 339.223 538.909 338.976C538.909 338.677 538.961 338.407 539.066 338.168C539.178 337.928 539.347 337.723 539.571 337.55C539.826 337.348 540.166 337.195 540.593 337.09C541.019 336.978 541.525 336.922 542.108 336.922H543.837V339.167C543.74 339.362 543.602 339.549 543.422 339.728C543.242 339.908 543.029 340.069 542.782 340.211C542.535 340.353 542.258 340.469 541.951 340.559C541.652 340.649 541.326 340.694 540.975 340.694ZM549.934 336.461V336.697C549.934 337.573 550.046 338.389 550.27 339.145C550.495 339.893 550.813 340.541 551.225 341.087C551.636 341.641 552.138 342.075 552.729 342.389C553.32 342.696 553.986 342.85 554.727 342.85C555.431 342.85 556.052 342.722 556.591 342.468C557.13 342.206 557.594 341.835 557.983 341.356L558.107 342.625H560.543V325.381H557.86V331.611C557.47 331.177 557.021 330.844 556.512 330.612C556.011 330.373 555.423 330.253 554.75 330.253C554.001 330.253 553.328 330.406 552.729 330.713C552.138 331.013 551.636 331.436 551.225 331.982C550.805 332.528 550.484 333.183 550.259 333.947C550.042 334.703 549.934 335.541 549.934 336.461ZM552.617 336.697V336.461C552.617 335.915 552.669 335.402 552.774 334.923C552.879 334.437 553.047 334.01 553.279 333.644C553.496 333.277 553.781 332.989 554.132 332.779C554.492 332.57 554.922 332.465 555.423 332.465C556.022 332.465 556.516 332.599 556.905 332.869C557.302 333.131 557.62 333.486 557.86 333.935V339.156C557.62 339.612 557.302 339.975 556.905 340.245C556.509 340.507 556.007 340.638 555.401 340.638C554.907 340.638 554.484 340.537 554.132 340.335C553.781 340.125 553.492 339.837 553.268 339.47C553.043 339.118 552.879 338.703 552.774 338.224C552.669 337.745 552.617 337.236 552.617 336.697ZM569.771 342.85C570.954 342.85 571.961 342.618 572.791 342.153C573.63 341.689 574.251 341.166 574.655 340.582L573.218 339.19C572.844 339.669 572.368 340.039 571.792 340.301C571.216 340.556 570.595 340.683 569.928 340.683C569.442 340.683 568.993 340.6 568.581 340.436C568.177 340.271 567.825 340.039 567.526 339.74C567.227 339.455 566.991 339.133 566.819 338.774C566.647 338.415 566.519 337.97 566.437 337.438V337.382H574.857V336.226C574.857 335.358 574.741 334.557 574.509 333.823C574.277 333.09 573.933 332.457 573.476 331.926C573.02 331.402 572.455 330.994 571.781 330.702C571.107 330.403 570.333 330.253 569.457 330.253C568.671 330.253 567.93 330.403 567.234 330.702C566.545 330.994 565.939 331.413 565.415 331.96C564.891 332.506 564.48 333.165 564.18 333.935C563.881 334.706 563.731 335.567 563.731 336.518V336.978C563.731 337.809 563.873 338.583 564.158 339.302C564.45 340.013 564.861 340.63 565.393 341.154C565.924 341.686 566.56 342.101 567.301 342.4C568.05 342.7 568.873 342.85 569.771 342.85ZM569.446 332.431C569.895 332.431 570.288 332.51 570.625 332.667C570.969 332.817 571.253 333.019 571.478 333.273C571.71 333.535 571.889 333.842 572.017 334.194C572.144 334.538 572.208 334.886 572.208 335.238V335.417H566.493C566.575 334.953 566.703 334.538 566.875 334.171C567.047 333.804 567.26 333.49 567.515 333.228C567.769 332.974 568.057 332.779 568.379 332.644C568.708 332.502 569.064 332.431 569.446 332.431ZM577.551 336.461V336.697C577.551 337.573 577.664 338.389 577.888 339.145C578.113 339.893 578.431 340.541 578.843 341.087C579.254 341.641 579.756 342.075 580.347 342.389C580.938 342.696 581.604 342.85 582.345 342.85C583.049 342.85 583.67 342.722 584.209 342.468C584.748 342.206 585.212 341.835 585.601 341.356L585.725 342.625H588.161V325.381H585.478V331.611C585.088 331.177 584.639 330.844 584.13 330.612C583.629 330.373 583.041 330.253 582.368 330.253C581.619 330.253 580.946 330.406 580.347 330.713C579.756 331.013 579.254 331.436 578.843 331.982C578.423 332.528 578.102 333.183 577.877 333.947C577.66 334.703 577.551 335.541 577.551 336.461ZM580.235 336.697V336.461C580.235 335.915 580.287 335.402 580.392 334.923C580.497 334.437 580.665 334.01 580.897 333.644C581.114 333.277 581.399 332.989 581.75 332.779C582.11 332.57 582.54 332.465 583.041 332.465C583.64 332.465 584.134 332.599 584.523 332.869C584.92 333.131 585.238 333.486 585.478 333.935V339.156C585.238 339.612 584.92 339.975 584.523 340.245C584.127 340.507 583.625 340.638 583.019 340.638C582.525 340.638 582.102 340.537 581.75 340.335C581.399 340.125 581.11 339.837 580.886 339.47C580.661 339.118 580.497 338.703 580.392 338.224C580.287 337.745 580.235 337.236 580.235 336.697Z" opacity="0.5"></path>
<path stroke-width="2.29925" stroke="#68D391" d="M250.544 333.914L257.367 340.849L270.662 327.109"></path>
<defs>
<filter color-interpolation-filters="sRGB" filterUnits="userSpaceOnUse" height="279.363" width="635.743" y="114.108" x="116.037" id="filter0_f_6624_731">
<feFlood result="BackgroundImageFix" flood-opacity="0"></feFlood>
<feBlend result="shape" in2="BackgroundImageFix" in="SourceGraphic" mode="normal"></feBlend>
<feGaussianBlur result="effect1_foregroundBlur_6624_731" stdDeviation="57.4813"></feGaussianBlur>
</filter>
</defs>
</svg>
