<svg xmlns="http://www.w3.org/2000/svg" width="160" height="50" fill="none"><path fill="#718096" fill-rule="evenodd" d="M39.941 40.247a.97.97 0 0 1 .806-.407c.532 0 .984.446 1.004.989a.98.98 0 0 1-.295.678c-4.288 5.077-10.72 8.293-17.939 8.293C10.614 49.8.169 39.511.169 26.8s10.445-23 23.328-23c5.626 0 10.76 1.957 14.792 5.212a2.1 2.1 0 0 1 .924-.193c1.338 0 2.42 1.065 2.42 2.383s-1.082 2.383-2.42 2.383-2.42-1.065-2.42-2.383c0-.271.06-.543.139-.775a21.5 21.5 0 0 0-5.115-3.023 21.7 21.7 0 0 0-8.32-1.647c-2.891 0-5.684.543-8.32 1.647a21.5 21.5 0 0 0-6.786 4.515 20.5 20.5 0 0 0-4.563 6.685A20.9 20.9 0 0 0 2.156 26.8c0 2.848.55 5.6 1.672 8.196a21.1 21.1 0 0 0 4.583 6.685c1.947 1.938 4.249 3.45 6.786 4.515a21.7 21.7 0 0 0 8.32 1.647c2.891 0 5.685-.543 8.32-1.647a21.5 21.5 0 0 0 6.786-4.515c.453-.465 1.318-1.434 1.318-1.434M21.176 16.841h4.78l6.904 17.652h-4.327l-4.977-13.894-2.793 7.596h4.308l1.18 3.294h-6.53L18.6 34.492h-4.328zm77.42 0v17.652h11.407v-3.314h-7.572V16.841zm22.127 0v17.652h11.428v-3.314h-7.573V16.841zm-37.647 8.835c0-3.139-2.577-5.677-5.763-5.677-3.167 0-5.763 2.538-5.763 5.677 0 3.14 2.576 5.678 5.763 5.678s5.763-2.539 5.763-5.678m-15.027 0c0-5.038 4.15-9.126 9.264-9.126s9.264 4.088 9.264 9.126-4.15 9.127-9.264 9.127-9.264-4.089-9.264-9.127m87.528 0c0-3.139-2.576-5.677-5.763-5.677s-5.763 2.538-5.763 5.677c0 3.14 2.577 5.678 5.763 5.678s5.763-2.539 5.763-5.678m-15.027 0c0-5.038 4.15-9.126 9.264-9.126s9.265 4.088 9.265 9.126-4.151 9.127-9.265 9.127-9.264-4.089-9.264-9.127m-96.518-8.835h8.36c3.186 0 5.763 2.654 5.763 5.774 0 3.139-2.577 5.793-5.763 5.793h-4.544v6.084h-3.816zm3.816 8.118h4.544c1.239 0 2.262-1.124 2.262-2.344 0-1.221-1.023-2.325-2.262-2.325h-4.544z" clip-rule="evenodd"/></svg>