<svg xmlns="http://www.w3.org/2000/svg" width="141" height="42" fill="none"><path fill="#718096" d="M1.6 32.77V17.017h19.453v-.922H1.6V1.721h20.683V.8H.688v32.892h21.777v-.921zm38.405-22.757-8.064 10.734-7.881-10.733h-1.185l8.52 11.424-9.34 12.254h1.094L31.94 22.13l8.839 11.563h1.139l-9.385-12.254 8.565-11.424zM44.652 41.8V27.059h.091q.82 3.225 3.235 5.182t6.15 1.958q2.415 0 4.283-.99a9.14 9.14 0 0 0 3.12-2.696q1.253-1.704 1.914-3.961.66-2.258.66-4.745 0-2.671-.683-4.93-.684-2.257-1.982-3.915a9.1 9.1 0 0 0-3.143-2.58q-1.845-.921-4.169-.921-1.776 0-3.303.53a8.8 8.8 0 0 0-2.71 1.497 10.1 10.1 0 0 0-2.05 2.28 10.6 10.6 0 0 0-1.322 2.88h-.091v-6.634h-.911V41.8zm9.476-8.476q-4.282 0-6.88-2.972-2.596-2.971-2.596-8.545a14.8 14.8 0 0 1 .638-4.377q.637-2.073 1.845-3.639a8.9 8.9 0 0 1 2.984-2.488q1.776-.92 4.01-.92 2.277 0 3.985.92a8.1 8.1 0 0 1 2.825 2.511q1.116 1.59 1.686 3.64a16.2 16.2 0 0 1 .57 4.353q0 2.073-.525 4.123-.523 2.05-1.617 3.685a8.8 8.8 0 0 1-2.802 2.672q-1.708 1.037-4.123 1.037m14.989.368V20.287q0-1.935.546-3.778a9.3 9.3 0 0 1 1.686-3.248q1.14-1.404 2.893-2.211 1.755-.806 4.169-.668v-.921q-2.096-.046-3.668.46-1.572.507-2.71 1.382a7 7 0 0 0-1.823 2.05 9.2 9.2 0 0 0-1.002 2.511h-.091v-5.85h-.911v23.678zm10.432-11.655h19.59a16.6 16.6 0 0 0-.478-4.699q-.57-2.257-1.822-4.008t-3.235-2.81-4.715-1.06a9.3 9.3 0 0 0-3.827.83 9.5 9.5 0 0 0-3.28 2.419q-1.413 1.589-2.278 3.892-.866 2.304-.866 5.252 0 2.625.593 4.906.592 2.28 1.822 3.962a8.24 8.24 0 0 0 3.166 2.603q1.937.921 4.67.875 4.009 0 6.743-2.28t3.234-6.427h-.911q-.593 3.916-3.03 5.874t-6.127 1.958q-2.505 0-4.237-.876a7.7 7.7 0 0 1-2.825-2.395q-1.094-1.521-1.617-3.57-.525-2.05-.57-4.446m18.68-.921h-18.68q.137-2.488.912-4.469.774-1.98 2.027-3.386a8.5 8.5 0 0 1 2.916-2.142 8.7 8.7 0 0 1 3.576-.737q2.278 0 4.01.852a8.3 8.3 0 0 1 2.892 2.327q1.163 1.474 1.754 3.432.592 1.958.592 4.123m19.817-4.1h.911q0-3.961-2.278-5.759-2.278-1.796-6.196-1.796-2.185 0-3.69.553-1.503.552-2.46 1.428-.957.874-1.367 1.935-.41 1.059-.41 2.026 0 1.936.684 3.087.683 1.152 2.141 1.797 1.002.46 2.278.829 1.275.367 2.961.783 1.504.369 2.961.737 1.458.369 2.574.99a5.6 5.6 0 0 1 1.823 1.59q.706.968.706 2.534 0 1.52-.706 2.58a5.7 5.7 0 0 1-1.8 1.727 8 8 0 0 1-2.437.967q-1.344.3-2.62.3-4.146 0-6.355-1.866t-2.21-5.874h-.911q0 4.47 2.392 6.542t7.084 2.073q1.504 0 3.03-.346a8.4 8.4 0 0 0 2.733-1.128 6.2 6.2 0 0 0 1.959-2.027q.752-1.245.752-3.04 0-1.705-.661-2.765a5.6 5.6 0 0 0-1.731-1.75 9.1 9.1 0 0 0-2.414-1.083q-1.344-.39-2.711-.76-1.914-.507-3.349-.875a20 20 0 0 1-2.665-.876q-1.184-.506-1.89-1.45-.706-.945-.706-2.696 0-.322.182-1.151.182-.83.865-1.682.684-.852 2.096-1.52t3.872-.668q1.686 0 3.076.369 1.389.368 2.391 1.174a5.3 5.3 0 0 1 1.549 2.05q.547 1.245.547 3.04m21.093 0h.912q0-3.961-2.278-5.759-2.278-1.796-6.196-1.796-2.187 0-3.69.553-1.505.552-2.46 1.428-.957.874-1.367 1.935-.41 1.059-.41 2.026 0 1.936.683 3.087.684 1.152 2.141 1.797 1.003.46 2.278.829 1.276.367 2.962.783 1.503.369 2.961.737 1.458.369 2.574.99a5.6 5.6 0 0 1 1.822 1.59q.706.968.706 2.534 0 1.52-.706 2.58a5.7 5.7 0 0 1-1.799 1.727 8 8 0 0 1-2.438.967q-1.344.3-2.619.3-4.146 0-6.356-1.866t-2.209-5.874h-.911q0 4.47 2.391 6.542t7.085 2.073q1.503 0 3.029-.346a8.4 8.4 0 0 0 2.734-1.128 6.2 6.2 0 0 0 1.959-2.027q.751-1.245.751-3.04 0-1.705-.66-2.765a5.6 5.6 0 0 0-1.731-1.75 9.1 9.1 0 0 0-2.415-1.083q-1.343-.39-2.711-.76-1.912-.507-3.348-.875a20 20 0 0 1-2.665-.876q-1.185-.506-1.891-1.45-.706-.945-.706-2.696 0-.322.182-1.151.182-.83.866-1.682t2.095-1.52q1.413-.668 3.873-.668 1.686 0 3.075.369 1.39.368 2.392 1.174a5.35 5.35 0 0 1 1.549 2.05q.546 1.245.546 3.04"/></svg>