<svg xmlns="http://www.w3.org/2000/svg" width="38" height="36" fill="none"><path fill="#fff" fill-rule="evenodd" d="M.858 18.456C.858 8.263 9.094 0 19.25 0c10.157 0 18.39 8.263 18.39 18.456a18.45 18.45 0 0 1-12.566 17.51c-.933.181-1.264-.394-1.264-.886 0-.201.003-.554.006-1.027.006-.952.015-2.387.015-4.037 0-1.722-.587-2.845-1.247-3.418 4.095-.457 8.398-2.018 8.398-9.106 0-2.015-.714-3.661-1.893-4.954.191-.465.82-2.342-.18-4.884 0 0-1.543-.496-5.053 1.892a17.6 17.6 0 0 0-4.607-.621 17.6 17.6 0 0 0-4.603.62c-3.515-2.387-5.06-1.891-5.06-1.891-.998 2.542-.369 4.42-.178 4.884-1.176 1.293-1.895 2.939-1.895 4.954 0 7.072 4.295 8.654 8.38 9.12-.526.462-1.003 1.276-1.168 2.469-.604.27-1.741.656-2.91.397a.5.5 0 0 0-.204-.114.5.5 0 0 0-.243-.017c-.629-.234-1.248-.682-1.78-1.46a.5.5 0 0 0-.2-.316l-.015-.025s-.146-.266-.433-.6a.4.4 0 0 0-.107-.229.4.4 0 0 0-.234-.127 4 4 0 0 0-.69-.518.4.4 0 0 0-.144-.08 3.1 3.1 0 0 0-1.211-.348s-1.795-.023-.126 1.122c0 0 1.205.568 2.042 2.7 0 0 1.08 3.295 6.196 2.178.005.839.011 1.65.017 2.288v.005c.005.533.008.943.008 1.144 0 .487-.337 1.058-1.256.887A18.45 18.45 0 0 1 .858 18.456m6.908 7.536c-.117-.035-.23-.005-.265.078-.043.092.031.217.165.277.13.063.275.035.315-.056.034-.068.002-.154-.07-.219zm.834.598a.18.18 0 0 0-.144.042c-.088.083-.066.255.054.383.117.13.288.167.376.086a.19.19 0 0 0 .055-.155 5 5 0 0 0-.341-.356m.788.98c-.1-.07-.21-.087-.29-.032-.115.079-.115.276-.002.44.114.164.298.237.41.159.072-.05.1-.146.082-.25a6 6 0 0 1-.2-.316m1.981 1.777c-.108.02-.192.079-.218.166-.042.146.094.315.302.378.208.062.415-.004.46-.148.026-.09-.015-.188-.098-.265a3 3 0 0 1-.446-.131m-.813-.01c-.1.112-.315.082-.473-.07-.16-.15-.205-.36-.104-.472.102-.112.318-.08.476.07.16.15.209.362.101.472m2.9.577c.005.153-.171.279-.39.282-.22.005-.398-.119-.4-.268 0-.154.173-.28.393-.283.218-.004.397.118.397.27m1.174.284c.217-.04.37-.193.343-.342-.028-.15-.222-.24-.44-.202-.213.04-.368.192-.341.344.027.147.225.239.438.2" clip-rule="evenodd"/></svg>