<svg xmlns="http://www.w3.org/2000/svg" width="164" height="46" fill="none"><path fill="#718096" fill-rule="evenodd" d="M36.607 10.046c2.23 0 4.038 1.795 4.038 4.009 0 1.886-1.314 3.463-3.082 3.89v10.71c1.768.427 3.081 2.004 3.081 3.89 0 2.214-1.808 4.01-4.037 4.01a4.04 4.04 0 0 1-2.916-1.241l-9.34 5.354c.106.36.165.732.165 1.123 0 2.214-1.808 4.009-4.037 4.009s-4.038-1.795-4.038-4.009c0-.391.06-.768.165-1.123l-9.34-5.354a4.04 4.04 0 0 1-2.916 1.24c-2.23 0-4.037-1.795-4.037-4.009 0-1.886 1.313-3.463 3.08-3.89v-10.71c-1.767-.427-3.08-2.004-3.08-3.89 0-2.214 1.808-4.01 4.037-4.01 1.15 0 2.18.478 2.916 1.241l9.34-5.354a4 4 0 0 1-.165-1.123C16.44 2.595 18.249.8 20.479.8c2.229 0 4.037 1.795 4.037 4.01 0 .39-.06.767-.164 1.122l9.339 5.354a4.04 4.04 0 0 1 2.916-1.24m-31.295 7.9v10.709l.027.006q.072.017.142.04l12.205-21-.124-.124-9.339 5.355c.106.359.165.732.165 1.123a4.01 4.01 0 0 1-3.076 3.89m15.167 19.831c1.149 0 2.179.478 2.916 1.241l9.339-5.354a2 2 0 0 1-.046-.169H8.269l-.007.028a2 2 0 0 1-.039.14l9.34 5.355a4.04 4.04 0 0 1 2.916-1.24m-12.21-6.186h24.424a4.04 4.04 0 0 1 1.13-1.941L21.613 8.655a4 4 0 0 1-1.13.163 4 4 0 0 1-1.13-.163L7.142 29.65a3.97 3.97 0 0 1 1.126 1.941m27.212-2.896a2 2 0 0 1 .169-.045v-10.7c-1.767-.427-3.081-2.005-3.081-3.89 0-.392.06-.769.165-1.124l-9.34-5.354-.123.123zm26.634-6.39h6.121l-.014.009c.21 0 .367.059.486.172.119.114.174.273.174.482v2.5q-.001 2.272-.916 4.005a6.5 6.5 0 0 1-2.66 2.7q-1.744.962-4.148.963c-2.38 0-4.234-.681-5.548-2.045q-1.971-2.046-2.088-5.482a94 94 0 0 1-.027-2.7q0-1.848.027-2.7c.074-2.29.774-4.118 2.088-5.482q1.97-2.045 5.548-2.045 2.431 0 4.093.909c1.108.604 1.928 1.327 2.463 2.159q.833 1.22.888 2.186v.055a.46.46 0 0 1-.174.368.65.65 0 0 1-.43.141h-.627q-.255.002-.371-.114c-.078-.077-.151-.227-.229-.454-.32-1.005-.952-1.846-1.886-2.527-.916-.682-2.152-1.023-3.717-1.023q-2.664.002-4.207 1.45c-1.012.968-1.552 2.473-1.63 4.518a86 86 0 0 0-.028 2.555q0 1.703.028 2.554c.073 2.046.618 3.555 1.63 4.518q1.543 1.451 4.207 1.45 2.665.001 4.294-1.504 1.629-1.507 1.63-4.46v-1.45h-4.977a.62.62 0 0 1-.458-.172.7.7 0 0 1-.173-.482v-.4q.002-.284.173-.454a.58.58 0 0 1 .458-.2m17.511-4.232h-1.058q-2.862 0-3.89 1.959v-1.31q-.002-.284-.202-.454a.58.58 0 0 0-.458-.2h-.458a.58.58 0 0 0-.458.2.6.6 0 0 0-.174.455v13.495c0 .191.055.341.174.455a.63.63 0 0 0 .458.172h.458c.192 0 .343-.054.458-.172a.57.57 0 0 0 .201-.455V23.41q0-1.704 1.003-2.7 1.002-.995 2.72-.995h1.23c.193 0 .344-.055.458-.173a.62.62 0 0 0 .174-.455v-.4c0-.19-.055-.34-.174-.454a.63.63 0 0 0-.457-.173zm5.255.34q1.204-.627 2.949-.627v.019q3.063-.002 4.349 1.45 1.285 1.45 1.286 3.522v9.46c0 .19-.06.336-.174.454s-.265.173-.457.173h-.486a.63.63 0 0 1-.458-.173c-.119-.114-.174-.264-.174-.455V30.9c-.416.627-1.039 1.155-1.858 1.591q-1.2.654-3.205.654a5.7 5.7 0 0 1-2.545-.568c-.778-.381-1.41-.89-1.886-1.536a3.6 3.6 0 0 1-.687-2.132q0-1.875 1.515-3.068 1.545-1.198 4.148-1.536l4.523-.628v-.995c0-1.041-.32-1.836-.97-2.386-.632-.573-1.603-.855-2.921-.855-.975 0-1.772.19-2.404.568q-.912.566-1.172 1.364-.111.34-.284.482-.142.114-.402.113h-.403a.68.68 0 0 1-.458-.172.65.65 0 0 1-.174-.455q.001-.626.572-1.45.576-.852 1.776-1.477m5.494 11.7q1.346-1.361 1.346-3.918l-.005-.004v-.964l-3.69.51c-1.565.209-2.75.568-3.547 1.081-.797.514-1.2 1.155-1.2 1.932 0 .873.367 1.546 1.09 2.018.741.473 1.602.71 2.573.71q2.087 0 3.433-1.364m18.747-10.363c-.971-1.31-2.49-1.96-4.55-1.96-2.061 0-3.699.75-4.807 2.246V18.7c0-.19-.055-.34-.174-.454a.63.63 0 0 0-.458-.173h-.485c-.193 0-.344.054-.458.172a.62.62 0 0 0-.174.455v18.918c0 .191.055.341.174.455a.63.63 0 0 0 .458.172h.485c.192 0 .343-.054.458-.172a.62.62 0 0 0 .174-.455v-6.732q1.689 2.245 4.807 2.246c2.078 0 3.575-.646 4.55-1.932.993-1.31 1.515-2.91 1.575-4.8q.027-.284.027-.936 0-.656-.027-.937-.084-2.843-1.575-4.772zm-.174 6.505c-.055 1.536-.449 2.795-1.172 3.777-.705.963-1.831 1.45-3.378 1.45q-1.517 0-2.546-.71a4.5 4.5 0 0 1-1.547-1.79 5.8 5.8 0 0 1-.545-2.327l-.027-1.11.027-1.109q.084-2.017 1.232-3.495 1.146-1.506 3.406-1.505 2.519 0 3.547 1.705 1.03 1.675 1.031 4.318 0 .51-.028.796m9.389-7.9q1.119-.568 2.862-.569h.004c1.873 0 3.31.6 4.322 1.791q1.516 1.762 1.515 4.573v8.068c0 .191-.059.337-.174.455s-.265.172-.458.172h-.485a.63.63 0 0 1-.458-.172c-.119-.114-.174-.264-.174-.455v-7.927c0-1.536-.38-2.727-1.144-3.582-.742-.85-1.859-1.277-3.232-1.277q-2.061 0-3.292 1.309c-.819.85-1.231 2.036-1.231 3.55v7.927a.62.62 0 0 1-.174.455c-.115.118-.266.172-.458.172h-.485a.63.63 0 0 1-.458-.172c-.119-.114-.174-.264-.174-.455V13.3a.62.62 0 0 1 .174-.455c.114-.118.265-.172.458-.172h.485a.63.63 0 0 1 .458.172c.119.114.174.264.174.455v6.732q.86-1.111 1.945-1.677m25.774-3.691q-2.004-1.991-5.438-1.991t-5.439 1.99q-2.006 1.99-2.115 5.855a80 80 0 0 0-.027 2.387q0 1.534.027 2.386.2 7.84 7.554 7.84 2.287.002 4.006-.822l1.259 1.732q.488.655.915.655h.632a.55.55 0 0 0 .403-.173.54.54 0 0 0 .174-.4q0-.144-.087-.314l-1.831-2.554c1.295-1.269 1.991-3.26 2.087-5.964q.055-1.704.055-2.386t-.055-2.387q-.117-3.864-2.115-5.854zm.316 10.481q-.117 3.185-1.657 4.746-1.518 1.535-4.093 1.536c-1.716 0-3.09-.509-4.12-1.536q-1.519-1.562-1.63-4.745a74 74 0 0 1-.027-2.246q0-1.392.027-2.245c.078-2.123.632-3.691 1.658-4.719q1.545-1.562 4.092-1.563 2.548.002 4.093 1.563 1.546 1.535 1.657 4.719a87 87 0 0 1 .055 2.245q0 .541-.055 2.246m18.088 5.991q.315.002.485.173h-.004c.119.114.174.273.174.482v.427q-.001.285-.202.455c-.114.118-.265.172-.458.172h-11.042a.63.63 0 0 1-.457-.172c-.119-.114-.174-.264-.174-.455V13.582c0-.191.059-.337.174-.455s.265-.172.457-.172h.545a.63.63 0 0 1 .458.172c.119.114.174.264.174.455v17.554z" clip-rule="evenodd"/></svg>