<svg xmlns="http://www.w3.org/2000/svg" width="84" height="74" fill="none"><path fill="#718096" fill-rule="evenodd" d="M9.945 1.36c.441-.356 1.015-.638 1.59-.54.57.14 1.172.367 1.517.883.6.865.502 2.091-.117 2.918l-.047-.048-.06-.061.06.061c.166.208.35.399.534.59q.144.149.286.301c.745.836 1.44 1.716 2.135 2.595q.51.649 1.03 1.29.725.902 1.435 1.817l-.07.075c.184-.032.363-.087.542-.141.26-.079.52-.157.793-.169 1.025-.036 2.07.029 3.045.378.285.105.566.265.734.533.365-.027.72-.115 1.075-.203.34-.084.68-.168 1.028-.2.995-.162 2.003-.143 3.008-.123l.393.007c3.33.232 6.653 1.539 9.063 3.936.2.141.355.329.51.516.106.13.213.26.335.374.781.855 1.392 1.848 2 2.834l.078.129.086.14c1.258-.126 2.349.68 3.278 1.44.396-.265.83-.455 1.264-.646.377-.165.753-.33 1.106-.544-.098-.676.133-1.408.658-1.847a1.87 1.87 0 0 1 1.531-.482c.67.105 1.255.594 1.522 1.225.355.848.131 1.93-.603 2.493-.668.528-1.686.51-2.319-.068-.7.597-1.437 1.166-2.248 1.599.153.91.105 1.852-.207 2.723-.258.864-.69 1.802-1.533 2.201-.018.37.007.74.032 1.111.032.493.065.986-.001 1.478-.026.207-.03.416-.033.625-.005.26-.01.521-.057.779-.13.87-.504 1.671-.882 2.453-.147.316-.436.503-.717.686q-.1.063-.194.128c-.34.225-.788.431-1.182.224-.623-.361-.923-1.084-1.065-1.769-.12-.488-.116-.99-.112-1.489q.003-.225 0-.449v-.014c-.098-1.802-.197-3.617-.589-5.383-.263-1.16-.713-2.33-1.59-3.151a6.2 6.2 0 0 0-1.876-1.12c-1.023-.31-2.088-.49-3.157-.467-1.29-.03-2.56.247-3.802.578-1.255.333-2.441.879-3.612 1.439-.725.313-1.419.69-2.113 1.066l-.591.32c-.5.275-.996.565-1.447.92a38 38 0 0 1-.529.402c-.653.49-1.308.983-1.834 1.617-.67.808-1.266 1.73-1.47 2.785-.256 1.551.035 3.147.577 4.605a14.1 14.1 0 0 0 2.69 4.361c.742.95 1.715 1.662 2.677 2.365l.19.14c.56.374.927 1.036.931 1.721-.052.572-.48 1.02-.92 1.334-.476.3-1.032.494-1.595.477-1.32-.013-2.649-.173-3.9-.608a9 9 0 0 1-1.067-.477q-.225-.114-.45-.22l-.235.195c-.48.403-.96.808-1.507 1.113-.817.438-1.778.655-2.695.48-1.124-.192-2.177-.743-3.03-1.508q-.244.151-.49.298H7.73c-.267.16-.535.32-.793.495q-.226.15-.445.31a7 7 0 0 1-.855.549 3.28 3.28 0 0 1-.495 3.039c-.405.5-.9.971-1.538 1.126-.948.286-1.993-.065-2.681-.764-.82-.927-1.119-2.364-.558-3.504.44-.968 1.443-1.626 2.485-1.632.682.06 1.324.329 1.933.632.319-.522.761-.934 1.204-1.347.29-.27.579-.54.834-.84-.457-.732-.817-1.591-.734-2.475.231-1.57.737-3.124 1.656-4.419.092-.112.106-.259.118-.398l.002-.022c-.085-.254-.092-.52-.099-.786a5 5 0 0 0-.028-.473 7 7 0 0 1-.049-.822 9 9 0 0 0-.028-.648c-.051-.47-.05-.944-.048-1.417q.003-.308-.002-.615c-.019-1.323.006-2.655.205-3.966.194-1.216.684-2.358 1.239-3.444a15.3 15.3 0 0 1 2.238-3.16c.474-.558.98-1.09 1.545-1.553.23-.254.492-.474.754-.694.313-.263.627-.526.885-.847-.116-1.118.104-2.302.771-3.215.192-.32.464-.564.735-.81.14-.125.279-.25.407-.385-.18-.19-.315-.413-.449-.636l-.102-.169a91 91 0 0 1-2.684-4.636c-.155-.284-.337-.55-.518-.817a11 11 0 0 1-.477-.743c-.547.114-1.142.19-1.67-.043-.79-.332-1.402-1.123-1.47-2 .044-.725.432-1.397.926-1.902m6.095 38.533c.298.667.533 1.381.549 2.12-.016-.739-.25-1.453-.549-2.12a15 15 0 0 0-1.541-2.58c-.886-1.196-2.08-2.113-3.34-2.862 1.261.75 2.454 1.666 3.34 2.862.594.805 1.12 1.668 1.541 2.58M9.19 34.09q.126-.048.253-.073l-1.08.684.093-.092c.218-.212.443-.413.734-.52m21.75-2.114c-.832-.667-2.296-.514-2.794.505-.296.576-.291 1.238-.286 1.874l.001.178v16.245c.006.562.083 1.156.404 1.628.228.34.602.56.997.63.611.113 1.313.022 1.772-.443.477-.466.608-1.174.615-1.821q.005-1.528.003-3.056-.001-1.286.001-2.572c.016-.706.044-1.416.174-2.11.264-1.412 1.504-2.6 2.927-2.675.802-.057 1.748.127 2.21.872.522.894.598 1.971.608 2.989v2.768l.001 3.697c.004.586.067 1.207.396 1.706.698.995 2.42.908 3.032-.144.314-.523.356-1.155.347-1.753q-.003-1.757-.001-3.515l-.002-3.866c-.023-1.162-.099-2.391-.724-3.4-.63-1.15-1.786-1.95-3.047-2.198-1.206-.237-2.49-.136-3.627.347-.91.386-1.645 1.086-2.297 1.822v-.412c.003-1.797.006-3.594-.002-5.392-.006-.687-.16-1.45-.709-1.904m49.777-.154a2 2 0 0 1 1.663.327c.783.544.877 1.742.434 2.538-.626 1.038-2.211 1.145-3.038.302-.451-.444-.56-1.14-.45-1.748.13-.702.726-1.249 1.39-1.419m-27.42 5.559c-1.75-.15-3.568-.142-5.237.483-1.054.411-2.088 1.066-2.646 2.102-.314.562-.498 1.223-.408 1.872.117.716.82 1.223 1.512 1.215h.01c.335-.005.74-.01.968-.302a9 9 0 0 0 .492-.736c.312-.499.624-.998 1.096-1.357.769-.635 1.816-.685 2.762-.671.68.033 1.462.12 1.939.678.497.668.6 1.545.639 2.36-1.654.486-3.336.867-5.024 1.213q-.337.077-.675.144c-.667.135-1.336.27-1.955.563a4.3 4.3 0 0 0-1.933 1.707c-.498.842-.63 1.877-.47 2.838a4.2 4.2 0 0 0 2.018 2.886c1.229.742 2.728.816 4.11.596 1.568-.247 2.954-1.125 4.183-2.109.376.603.758 1.215 1.272 1.709.262.248.583.457.946.498.73.079 1.467-.362 1.807-1.016.22-.427.095-.9-.023-1.345l-.055-.214c-.261-.868-.494-1.758-.498-2.674q.004-.84.012-1.684c.01-1.153.021-2.306 0-3.459-.07-1.32-.27-2.757-1.165-3.78-.93-1.042-2.357-1.375-3.677-1.517m-4.956 10.101c.348-.519.929-.842 1.514-1.006a46 46 0 0 1 1.658-.383c.983-.215 1.967-.43 2.922-.76l-.004.314v.003c-.01 1.004-.02 2.042-.456 2.961-.574 1.088-1.771 1.694-2.936 1.844-.795.108-1.689.006-2.294-.58-.654-.575-.847-1.632-.404-2.393m13.74-9.701c.746-.669 2.072-.532 2.626.33.37.545.371 1.237.362 1.874.81-1.008 1.808-1.927 3.048-2.323a6.03 6.03 0 0 1 4.868.58c.993.58 1.784 1.483 2.314 2.511.77 1.45 1.011 3.131.975 4.762-.042 1.77-.49 3.572-1.504 5.029-.968 1.394-2.535 2.335-4.203 2.5-1.272.122-2.634-.054-3.704-.814-.66-.432-1.192-1.024-1.719-1.61l-.07-.078q-.007 1.47-.004 2.943.003 1.412-.003 2.825c-.014.699-.096 1.473-.583 2.01-.383.425-.989.525-1.526.465-.427-.035-.889-.209-1.106-.61-.29-.54-.347-1.17-.362-1.775l-.001-8.442-.001-8.442c.003-.617.122-1.303.593-1.735m6.17 2.548c-1.024.204-1.896.947-2.385 1.873-.576 1.127-.665 2.439-.594 3.686.075 1.243.496 2.531 1.442 3.368a3.25 3.25 0 0 0 3.17.72c.774-.251 1.424-.829 1.828-1.543.722-1.233.842-2.728.723-4.13-.113-1.233-.554-2.512-1.513-3.322-.729-.63-1.743-.855-2.671-.652m14.203-2.437c-.474-.47-1.195-.595-1.82-.433-.86.205-1.336 1.12-1.337 1.97-.01 2.224-.009 4.448-.007 6.672a2138 2138 0 0 1 0 4.233c-.006.487-.01.979.142 1.446.162.531.553 1.002 1.075 1.19.67.238 1.486.098 1.983-.438.45-.459.58-1.137.584-1.763q.003-3.986.001-7.971v-3.189c.008-.621-.156-1.286-.621-1.717" clip-rule="evenodd"/></svg>