<svg xmlns="http://www.w3.org/2000/svg" width="121" height="44" fill="none"><path fill="#718096" fill-rule="evenodd" d="M24.424.956a2.43 2.43 0 0 1 2.167.224c.497.356 1.127.869 1.094 1.638-.128.261-.423.482-.764.738-.809.605-1.875 1.403-1.58 3.387a1.3 1.3 0 0 1-.132-.245 2.4 2.4 0 0 1-.155-2.197c.061-.17.13-.3.196-.425.16-.3.3-.564.268-1.258q-.002-.1-.022-.2c-.005-.04-.014-.073-.022-.107a1 1 0 0 1-.022-.106A2.46 2.46 0 0 0 24.424.956m4.356.71a.8.8 0 0 1 .022-.23c.343.111.685.234 1.05.468.078.033.144.067.221.111a20 20 0 0 1 1.537 1.093c.1.089.199.19.287.279.177.19.343.379.509.568.155.2.299.401.442.613.133.212.255.435.376.658.11.223.221.457.31.691.07.188.134.383.197.573l.046.14c.066.246.121.491.166.748.033.246.066.49.088.747v.003c.011.177.022.354.022.532 0 .244-.022.5-.044.756v.002c-.02.226-.06.452-.1.687l-.01.06c-.056.245-.111.49-.188.725a8 8 0 0 1-.597 1.393 14 14 0 0 1-.354.591l-.033.056q-.216.3-.465.602c-.166.19-.332.379-.52.546a6 6 0 0 1-.563.502c-.2.156-.41.3-.62.445a8 8 0 0 1-.663.368 7 7 0 0 1-.696.313 8 8 0 0 1-1.46.401 8 8 0 0 1-.73.09h.012c.243.077.486.144.74.189.244.056.498.089.752.111.244.023.498.045.752.045.177 0 .354-.011.53-.022l.033-.003c.233-.022.476-.044.72-.087.243-.044.497-.1.74-.167a8 8 0 0 0 .719-.234c.233-.1.464-.2.697-.312.22-.112.442-.245.652-.38a6 6 0 0 0 .619-.434l.254-.223c.11-.09.21-.178.32-.279.178-.178.355-.356.52-.557a8.5 8.5 0 0 0 .852-1.238c.121-.223.232-.457.331-.68.1-.234.188-.479.266-.713.066-.245.133-.49.188-.736.044-.245.077-.49.11-.747v-.002c.011-.133.022-.266.022-.4q.01.01.01.013.003.004.002.01v-.01q.001-.004.01-.012c0 .016.007.026.014.04l.009.016c3.062 3.065 10.381 14.704 2.399 25.931a17.9 17.9 0 0 0-.32-5.374 17.73 17.73 0 0 1-4.655 9.477 17.5 17.5 0 0 1-2.952 2.475 17.9 17.9 0 0 0 2.974-7.169 17.7 17.7 0 0 1-10.448 8.417 18 18 0 0 1-3.77.658 17.74 17.74 0 0 0 6.866-5.652 21 21 0 0 1-3.207 1.07l-.1.028q-.049.012-.099.028-.057.009-.116.022a3 3 0 0 0-.193.04l-.078.016a2 2 0 0 1-.243.056c-.287.055-.575.111-.862.156h-.011l-.465.066h-.01l-.034-.066c.089-.056.166-.112.243-.168q.017-.016.04-.028.02-.011.038-.027c.088-.067.177-.134.265-.19a10.5 10.5 0 0 0 3.107-3.746q.007-.007.01-.017l.012-.016.033-.078c.042-.077.078-.16.113-.24l.03-.072h.012l.066-.162a10 10 0 0 0 .188-.485q.033-.083.06-.162l.062-.161.1-.335s0-.01.01-.022q.026-.115.066-.235l.023-.077v-.034a3 3 0 0 0 .083-.323l.005-.022.067-.301v-.034l.066-.312v-.022q.009-.083.022-.162t.022-.162c.011-.033.011-.067.011-.1l.017-.128.016-.128c0-.034 0-.067.011-.1q0-.07.006-.131.005-.059.005-.115c.012-.056.012-.1.012-.145q0-.058.005-.111.005-.055.006-.112v-.156q.001-.05.005-.1.005-.05.006-.1 0-.044-.006-.09-.004-.046-.005-.089v-.178c0-.123-.011-.246-.022-.368 0-.09-.011-.19-.023-.29v-.045l-.003-.03q-.013-.123-.04-.26v-.01a6 6 0 0 0-.07-.447l-.03-.178-.033-.145-.034-.145c-.73 4.95-4.743 8.707-9.64 9.053q-1.41.083-2.786-.201v-.011a36 36 0 0 1-1.792-.535 10.4 10.4 0 0 1-1.492-.747l.022-.023c.188-.144.862-.29 1.526-.412-1.758-1.148-3.295-5.117-.719-6.812q.07-.032.132-.068a2 2 0 0 1 .189-.093q.053-.026.11-.05a2 2 0 0 1 .463-.123h.002a1 1 0 0 1 .243-.034l.083-.005.083-.006a2 2 0 0 1 .243.022q.116 0 .232.034c.077.011.154.033.231.055h.001l.045.017q.019.01.044.017l.072.022q.038.014.072.023c.077.033.143.067.21.111.342.257.342.691.154 1.226-.037.052-.063.104-.09.156l-.042.079c-.034.078-.056.156-.078.234s-.044.156-.055.234v.167c0 .09 0 .167.011.245a1 1 0 0 0 .066.235c.023.078.056.155.089.234a.3.3 0 0 1 .033.06.2.2 0 0 0 .055.085c.553.769 1.603 1.282 2.654 1.204a7.2 7.2 0 0 0 1.37-2.81c.155.736.189 1.494.111 2.23.907-.658 1.47-1.717 1.802-2.542.675-.167 2.145.502 2.289 1.706-.752-7.715-7.905-13.178-15.744-11.35-.575.96-1.238 1.829-1.36 1.55-.11-.267-.066-1.17 0-1.94-.486.78-.972 1.46-1.072 1.238-.088-.2-.077-.77-.044-1.372l-.072-.016-.072-.017-.021-.009q-.014-.004-.023-.013a1.3 1.3 0 0 1-.221-.078 2 2 0 0 1-.255-.123 2 2 0 0 1-.243-.145c-.066-.044-.132-.1-.199-.156-.01 0-.022-.011-.022-.011l-.029-.025a3 3 0 0 1-.181-.165 3 3 0 0 1-.188-.211l-.166-.235c-.044-.078-.088-.156-.132-.245-.011-.01-.022-.033-.033-.055l-.045-.1q-.02-.051-.044-.101a1.5 1.5 0 0 1-.089-.268 2 2 0 0 1-.055-.267c-.01-.023-.01-.034-.01-.056a.04.04 0 0 1-.017-.006l-.017-.005-.065-.032q-.059-.026-.112-.057c-.299-.156-.387-.235-.58-.408l-.094-.083a1.6 1.6 0 0 1-.21-.178 3 3 0 0 1-.188-.179c-.055-.067-.1-.133-.144-.2s-.089-.134-.122-.201v-.011a2 2 0 0 1-.077-.2 1 1 0 0 1-.044-.213c-.011-.044-.011-.1-.011-.145 0-.07.008-.13.018-.197l.004-.026a1 1 0 0 0 .01-.104c.004-.063.01-.136.023-.197q.001-.007.005-.016.005-.009.006-.017c.01-.089.033-.178.055-.267.033-.101.067-.201.1-.29.025-.077.057-.147.09-.22l.031-.07c.045-.09.1-.179.155-.257.027-.054.063-.105.099-.156q.035-.05.067-.1.057-.078.124-.15l.064-.073c.066-.067.144-.145.221-.2.066-.068.144-.135.221-.19a2 2 0 0 1 .122-.078q.063-.037.121-.079a3 3 0 0 1 .266-.122l.265-.1.005-.002c.087-.022.174-.043.271-.065l.086-.013c.064-.01.13-.02.19-.02.252-.021.529-.1.812-.182.178-.051.359-.103.538-.142.243-.078.486-.167.718-.268q.366-.15.697-.334a8 8 0 0 0 .663-.424c.21-.145.42-.312.62-.49a7 7 0 0 0 .563-.547l.033-.033.128-.134q.06-.066.127-.134.008-.016.022-.027a.1.1 0 0 0 .022-.028 3 3 0 0 0 .188-.201l.038-.033.04-.034c.054-.067.11-.123.165-.178q.01-.001.013-.01l.01-.013c.065-.066.132-.133.198-.19l.01-.011q.003-.01.012-.01.05-.05.1-.095t.1-.095l.012-.01c.01-.009.024-.019.031-.034q.042-.035.083-.073.042-.038.083-.072l.033-.023.034-.022.165-.134.023-.022c.066-.056.143-.112.21-.156q.007-.008.016-.011l.017-.011q.063-.052.134-.097l.087-.06q.116-.083.265-.167c.089-.056.188-.111.288-.167a1 1 0 0 0 .1-.056l.066-.035q.076-.041.154-.076a5 5 0 0 1 .42-.212q.099-.054.2-.102l.11-.054q.01-.009.027-.012l.028-.01.365-.168.19-.085q.138-.066.286-.126l.497-.134c.32-.078.652-.156.995-.223h.001c.166-.034.331-.067.497-.09a21 21 0 0 1 3.471-.3c.664 0 1.316.033 1.98.1q.014 0 .027.006l.027.005c.675.067 1.35.167 2.013.301l.696.167c.431.1.851.212 1.283.335l2.543.992-.024-.045a1 1 0 0 1-.054-.111l-.044-.134-.044-.134a2 2 0 0 1-.056-.267c-.022-.1-.033-.19-.033-.279-.01-.067-.01-.134-.01-.2q0-.069.005-.14.004-.071.005-.14l.011-.066q.004-.034.011-.067l.011-.072q.004-.039.011-.073c.023-.09.045-.178.078-.279.017-.07.041-.132.067-.2l.021-.056.061-.128.06-.129c.045-.078.1-.156.156-.234a1.4 1.4 0 0 1 .153-.207l.012-.016.014-.015c.06-.072.113-.134.186-.196.066-.067.132-.123.21-.179.048-.049.102-.085.158-.123L27 4.167q.154-.104.314-.199c.146-.089.292-.177.426-.28q.076-.057.141-.118.035-.032.07-.06v-.012c.051-.037.093-.084.135-.131q.03-.036.064-.07c.055-.067.11-.145.165-.223l.067-.1.044-.067q.02-.033.044-.067.033-.065.06-.128l.062-.128c.033-.09.066-.179.088-.268a3 3 0 0 0 .078-.267q.007-.069.01-.145.004-.076.012-.145a.5.5 0 0 0 0-.093m84.432 12.612c-.669.617-1.759 1.253-3.269 1.89q-.017.416-.029.637a6 6 0 0 0-.009.23c0 .116.038.212.114.328l.249.058 1.396-.02.592.02v5.533l-.076 3.393c0 1.6.363 2.777 1.109 3.548.746.752 1.702 1.137 2.906 1.137.918 0 1.778-.192 2.581-.597.823-.405 1.453-.964 1.912-1.678l-.076-.231a4 4 0 0 0-.765-.733q-.09.067-.168.12c-.08.056-.149.103-.195.15-.383.309-.669.482-.842.56-.172.057-.42.096-.764.096a2.3 2.3 0 0 1-.975-.212 2.7 2.7 0 0 1-.459-1.022c-.077-.347-.096-1.253-.077-2.68l.038-7.404.918-.038.344.019h.995c.305.038.516.038.611.038.23 0 .536-.019.956-.077.096-.385.153-.732.153-1.04 0-.27-.057-.58-.133-.926q-.789.018-1.149.03-.23.008-.285.008c-1.129.058-1.74.077-1.798.077l-.44-.019c-.019-.231-.019-.385-.019-.443l.058-1.138q0-.249.007-.574v-.002q.01-.43.012-1.005c0-.366-.058-.713-.172-1.06h-1.09c-.765 1.388-1.472 2.41-2.161 3.027m-37.533 6.304c.344-1.099.631-1.831.899-2.178.707-1.06 1.472-1.89 2.275-2.487.823-.598 1.549-.984 2.2-1.176.86-.251 1.529-.367 2.064-.367 1.205 0 2.18.096 2.906.29.746.173 1.377.443 1.874.79a10 10 0 0 1 1.721 1.523c.44.52.784 1.137 1.052 1.832.286.694.44 1.542.478 2.525l-2.142-.038c-.593 0-1.874-.058-3.881-.174l-.708-.04h-.001a17 17 0 0 0-.867-.036l-.096.001h-.001c-.275.006-.916.017-1.922.017h-1.663l-.012.113v.001c-.014.141-.026.257-.026.35 0 .693.095 1.407.248 2.178.172.752.42 1.407.746 1.986a5.4 5.4 0 0 0 1.243 1.465 5.1 5.1 0 0 0 1.53.906l1.108.367c.994 0 1.645-.039 1.989-.097.612-.135 1.147-.289 1.606-.482.478-.212 1.032-.559 1.701-1.04h.001c.459.346.84.635 1.166.924-1.128 1.235-2.314 2.16-3.518 2.72-1.205.558-2.562.828-4.054.828-1.013 0-1.835-.077-2.486-.27a7.5 7.5 0 0 1-2.313-1.06 7.4 7.4 0 0 1-1.778-1.774 8.6 8.6 0 0 1-1.128-2.198c-.306-.983-.478-1.774-.478-2.352 0-1.138.095-2.14.267-3.047m11.167-.829a6 6 0 0 0-.421-2.082 3.2 3.2 0 0 0-1.262-1.523c-.554-.366-1.128-.56-1.702-.56-.86 0-1.625.386-2.332 1.138-.689.772-1.071 1.793-1.167 3.105l4.379.019c.287 0 .688-.02 1.185-.058a9 9 0 0 1 .803-.058c.115 0 .287 0 .517.02m7.342 5.669c.382-.077.669-.116.841-.116.096 0 .23 0 .402.02l.172.192c.707 1.234 1.147 1.967 1.376 2.237q.66.78 1.32 1.272c.286.193.745.424 1.376.637.421.154.88.23 1.358.23.803 0 1.491-.25 2.065-.77.573-.54.86-1.1.86-1.716a1.73 1.73 0 0 0-.325-1.041c-.21-.29-.65-.579-1.3-.868-.325-.135-1.128-.366-2.428-.694-1.281-.328-2.046-.54-2.314-.636a5.2 5.2 0 0 1-1.606-.964 4.4 4.4 0 0 1-1.07-1.408c-.326-.733-.498-1.369-.498-1.89 0-.983.153-1.773.42-2.41a5.3 5.3 0 0 1 1.205-1.658q.546-.55 1.664-.983a6.7 6.7 0 0 1 2.409-.443c1.224 0 2.294.077 3.212.25.918.174 1.702.425 2.333.752.088.268.177.883.311 1.815l.033.229c.134 1.08.21 1.716.21 1.909a.8.8 0 0 1-.057.289c-.344.096-.612.154-.841.154q-.127-.002-.366-.023h-.001l-.188-.015c-.09-.137-.205-.347-.344-.6l-.054-.1-.061-.11q-.917-1.735-1.893-2.43c-.65-.481-1.376-.713-2.237-.713-.88 0-1.625.27-2.218.771-.44.386-.65.887-.65 1.543 0 .424.23.848.689 1.292.44.443 1.223.79 2.332 1.022 1.683.366 2.926.752 3.71 1.118 1.147.54 1.969 1.195 2.428 1.928s.707 1.58.707 2.545c0 1.504-.573 2.757-1.701 3.76-1.109.983-2.734 1.484-4.895 1.484-.268 0-1.013-.058-2.199-.193-.535-.058-1.166-.192-1.893-.385-.191-.058-.65-.232-1.415-.56a1.1 1.1 0 0 1-.306-.27c-.038-.115-.133-.655-.248-1.619l-.014-.117v-.001m-41.4 1.718c.324-.154.63-.25.917-.308.708-.116 1.11-.212 1.224-.29a.9.9 0 0 0 .382-.424c.077-.27.115-.829.115-1.715v-1.68l.02-1.369-.058-2.043v-1.215c0-.81-.058-1.485-.191-1.986-.039-.193-.21-.386-.478-.578-.364-.27-.956-.521-1.817-.772l-.019-.925h.003c.152-.04.304-.077.437-.097.119-.017.541-.126 1.266-.312l.282-.073c.708-.25 1.167-.444 1.358-.54q.047-.024.108-.058.085-.048.217-.116a5 5 0 0 1 .43-.325l.086-.06c.383-.27.842-.752 1.377-1.408l1.013-.077-.038 2.179c-.019.212-.019.386-.019.52 0 .116 0 .405.02.887 1.07-.925 2.026-1.561 2.905-1.928 1.128-.482 2.218-.713 3.232-.713 1.204 0 2.275.308 3.174.906.918.598 1.51 1.292 1.778 2.063.287.79.42 2.39.42 4.762l-.076 6.324c0 .29.057.54.153.733.134.097.497.193 1.07.29l.938.173c.114.173.172.366.172.617 0 .154 0 .366-.02.636l-3.766-.27-1.11.039h-.879l-2.543.192h-.65c-.019-.173-.019-.289-.019-.385 0-.214.016-.444.034-.69l.004-.062c.137-.03.454-.074.933-.138h.002l.404-.055a4 4 0 0 0 .495-.098l.155-.037c.248-.096.401-.212.44-.308.095-.232.153-.637.153-1.254 0-1.099-.02-1.928-.039-2.506l.02-2.237c0-2.737-.154-4.434-.498-5.09-.497-.983-1.223-1.465-2.198-1.465-.708 0-1.454.193-2.218.56-.784.365-1.568.925-2.39 1.677l-.039.327.039 1.215-.02 1.292.077 3.104-.038.482c0 2.102.076 3.297.248 3.567s.803.559 1.912.887c.039.212.058.385.058.482 0 .142-.049.349-.116.636l-.018.077c-.402.02-.746.02-1.013.02q-.402-.001-1.262-.116l-2.046-.039a94 94 0 0 0-4.436.135 1 1 0 0 1-.077-.405c0-.096 0-.308.02-.617" clip-rule="evenodd"/></svg>