<svg xmlns="http://www.w3.org/2000/svg" width="134" height="27" fill="none"><path fill="#718096" fill-rule="evenodd" d="M27.463 26.076 6.056.3H.313v25.959h4.594V5.849l16.944 20.42h28.776v-4.146h-18.57v-6.85h14.934v-4.146H32.058v-6.67h18.569V.311H27.461v4.146h.002zM111.893.31H88.727v4.146h9.381v21.812h4.595V4.457h9.19zM62.195.32H56.18l21.539 25.96h6.03L72.98 13.31 83.734.342 77.72.35l-7.75 9.333zm3.159 14.912 3.011 3.631-6.17 7.436h-6.03zm46.71 10.539q.358.339.862.339.327-.001.598-.158.274-.15.445-.42.167-.263.171-.585a1.08 1.08 0 0 0-.367-.812 1.2 1.2 0 0 0-.847-.34 1.2 1.2 0 0 0-.862.34q-.36.338-.355.812-.005.485.355.824m8.705-10.597h2.036v7.607c-.003.7-.159 1.297-.464 1.8a3.05 3.05 0 0 1-1.283 1.157q-.819.403-1.908.405a4.5 4.5 0 0 1-1.787-.342 2.85 2.85 0 0 1-1.258-1.012q-.466-.669-.464-1.669h2.039q.006.439.203.756.196.315.541.485.351.17.803.17.493 0 .835-.2.341-.196.523-.59.178-.389.184-.96zm9.766 1.898q.572.385.648 1.077h1.974a2.74 2.74 0 0 0-.536-1.618q-.518-.707-1.429-1.104-.91-.4-2.114-.399-1.185-.002-2.129.4-.94.396-1.482 1.115-.546.719-.545 1.675-.001 1.163.809 1.862t2.208 1.044l1.289.315q.606.149 1.064.336.453.188.71.465.253.277.259.702-.004.465-.293.809-.286.347-.791.538a3.3 3.3 0 0 1-1.177.194q-.639-.001-1.158-.185a1.96 1.96 0 0 1-.837-.56 1.6 1.6 0 0 1-.364-.94h-2.018q.042 1.078.588 1.827.546.75 1.517 1.14c.644.262 1.41.392 2.288.392q1.363-.001 2.319-.404.962-.406 1.47-1.125.508-.722.507-1.672 0-.704-.277-1.225a2.75 2.75 0 0 0-.747-.893 4.4 4.4 0 0 0-1.068-.612 7.5 7.5 0 0 0-1.236-.387l-1.062-.253a8 8 0 0 1-.691-.196 3 3 0 0 1-.622-.289 1.34 1.34 0 0 1-.446-.42 1.03 1.03 0 0 1-.165-.585q.009-.406.249-.723.246-.316.704-.503.459-.183 1.099-.184.91-.001 1.485.386" clip-rule="evenodd"/></svg>