<svg xmlns="http://www.w3.org/2000/svg" width="28" height="34" fill="none"><path fill="#fff" fill-rule="evenodd" d="M19.06 28.916c.142-1.082-.145-2.433-.413-3.689-.069-.325-.137-.645-.196-.95 8.379-4.92 11.185-15.413 6.27-23.86A.81.81 0 0 0 23.999 0c-9.41.642-16.522 8.256-16.38 17.664-.361.182-.75.36-1.148.54-1.098.5-2.259 1.03-3.065 1.745-.831.737-1.425 1.936-1.977 3.049-.225.455-.443.895-.668 1.284-.433.75.397 1.48 1.123 1.15.392-.185.795-.372 1.197-.56.403-.187.807-.374 1.2-.559q.278-.129.557-.267c.297-.147.597-.295.912-.421 1.036.479 2.027 1.091 3.01 1.699.49.302.976.602 1.466.885.489.282.995.555 1.504.83 1.024.55 2.056 1.106 2.971 1.754l.002.022c.051.523.102 1.046.137 1.594.036.432.075.873.114 1.315.04.444.08.887.116 1.32.077.794 1.108 1.175 1.556.398.207-.342.455-.705.712-1.083.74-1.086 1.562-2.29 1.723-3.443M17.697 17.3a5.19 5.19 0 1 0 0-10.38 5.19 5.19 0 0 0 0 10.38" clip-rule="evenodd"/></svg>