<svg xmlns="http://www.w3.org/2000/svg" width="59" height="30" fill="none"><path fill="#fff" fill-rule="evenodd" d="M18.412 6.59c0 3.365-2.7 6.092-6.03 6.092S6.35 9.955 6.35 6.59 9.05.5 12.38.5s6.031 2.727 6.031 6.09m33.6 0c0 3.365-2.7 6.092-6.031 6.092s-6.03-2.727-6.03-6.091S42.65.5 45.98.5s6.03 2.727 6.03 6.09M41.438 29.5c.693 0 1.26-.565 1.196-1.256a13.44 13.44 0 0 0-5.219-9.435 13.3 13.3 0 0 0-8.116-2.748c-2.999 0-5.767.989-7.999 2.66a13.45 13.45 0 0 0-5.336 9.523c-.064.691.503 1.256 1.195 1.256zm4.3-2.358h11.208c.692 0 1.26-.564 1.19-1.255-.625-6.225-5.846-11.083-12.194-11.083a12.14 12.14 0 0 0-6.236 1.713 16.66 16.66 0 0 1 6.031 10.625m-26.98-10.516a12.14 12.14 0 0 0-6.416-1.823c-6.348 0-11.57 4.859-12.194 11.084-.07.69.498 1.255 1.19 1.255H12.86a16.66 16.66 0 0 1 5.898-10.516m10.58-2.844c3.655 0 6.618-2.973 6.618-6.641S32.993.5 29.338.5 22.72 3.473 22.72 7.14c0 3.669 2.963 6.642 6.618 6.642" clip-rule="evenodd"/></svg>