<svg width="1440" height="600" viewBox="0 0 1440 600" fill="none" xmlns="http://www.w3.org/2000/svg">
<g opacity="0.1">
<rect x="-29.75" y="0.25" width="49.5" height="49.5" stroke="#2DD4BF" stroke-width="0.5"/>
<rect x="20.25" y="0.25" width="49.5" height="49.5" stroke="#2DD4BF" stroke-width="0.5"/>
<rect x="70.25" y="0.25" width="49.5" height="49.5" stroke="#2DD4BF" stroke-width="0.5"/>
<rect x="120.25" y="0.25" width="49.5" height="49.5" stroke="#2DD4BF" stroke-width="0.5"/>
<rect x="170.25" y="0.25" width="49.5" height="49.5" stroke="#2DD4BF" stroke-width="0.5"/>
<rect x="220.25" y="0.25" width="49.5" height="49.5" stroke="#2DD4BF" stroke-width="0.5"/>
<rect x="270.25" y="0.25" width="49.5" height="49.5" stroke="#2DD4BF" stroke-width="0.5"/>
<rect x="320.25" y="0.25" width="49.5" height="49.5" stroke="#2DD4BF" stroke-width="0.5"/>
<rect x="370.25" y="0.25" width="49.5" height="49.5" stroke="#2DD4BF" stroke-width="0.5"/>
<rect x="420.25" y="0.25" width="49.5" height="49.5" stroke="#2DD4BF" stroke-width="0.5"/>
<rect x="470.25" y="0.25" width="49.5" height="49.5" stroke="#2DD4BF" stroke-width="0.5"/>
<rect x="520.25" y="0.25" width="49.5" height="49.5" stroke="#2DD4BF" stroke-width="0.5"/>
<rect x="570.25" y="0.25" width="49.5" height="49.5" stroke="#2DD4BF" stroke-width="0.5"/>
<rect x="620.25" y="0.25" width="49.5" height="49.5" stroke="#2DD4BF" stroke-width="0.5"/>
<rect x="670.25" y="0.25" width="49.5" height="49.5" stroke="#2DD4BF" stroke-width="0.5"/>
<rect x="720.25" y="0.25" width="49.5" height="49.5" stroke="#2DD4BF" stroke-width="0.5"/>
<rect x="770.25" y="0.25" width="49.5" height="49.5" stroke="#2DD4BF" stroke-width="0.5"/>
<rect x="820.25" y="0.25" width="49.5" height="49.5" stroke="#2DD4BF" stroke-width="0.5"/>
<rect x="870.25" y="0.25" width="49.5" height="49.5" stroke="#2DD4BF" stroke-width="0.5"/>
<rect x="920.25" y="0.25" width="49.5" height="49.5" stroke="#2DD4BF" stroke-width="0.5"/>
<rect x="970.25" y="0.25" width="49.5" height="49.5" stroke="#2DD4BF" stroke-width="0.5"/>
<rect x="1020.25" y="0.25" width="49.5" height="49.5" stroke="#2DD4BF" stroke-width="0.5"/>
<rect x="1070.25" y="0.25" width="49.5" height="49.5" stroke="#2DD4BF" stroke-width="0.5"/>
<rect x="1120.25" y="0.25" width="49.5" height="49.5" stroke="#2DD4BF" stroke-width="0.5"/>
<rect x="1170.25" y="0.25" width="49.5" height="49.5" stroke="#2DD4BF" stroke-width="0.5"/>
<rect x="1220.25" y="0.25" width="49.5" height="49.5" stroke="#2DD4BF" stroke-width="0.5"/>
<rect x="1270.25" y="0.25" width="49.5" height="49.5" stroke="#2DD4BF" stroke-width="0.5"/>
<rect x="1320.25" y="0.25" width="49.5" height="49.5" stroke="#2DD4BF" stroke-width="0.5"/>
<rect x="1370.25" y="0.25" width="49.5" height="49.5" stroke="#2DD4BF" stroke-width="0.5"/>
<rect x="1420.25" y="0.25" width="49.5" height="49.5" stroke="#2DD4BF" stroke-width="0.5"/>
<rect x="-29.75" y="50.25" width="49.5" height="49.5" stroke="#2DD4BF" stroke-width="0.5"/>
<rect x="20.25" y="50.25" width="49.5" height="49.5" stroke="#2DD4BF" stroke-width="0.5"/>
<rect x="70.25" y="50.25" width="49.5" height="49.5" stroke="#2DD4BF" stroke-width="0.5"/>
<rect x="120.25" y="50.25" width="49.5" height="49.5" stroke="#2DD4BF" stroke-width="0.5"/>
<rect x="170.25" y="50.25" width="49.5" height="49.5" stroke="#2DD4BF" stroke-width="0.5"/>
<rect x="220.25" y="50.25" width="49.5" height="49.5" stroke="#2DD4BF" stroke-width="0.5"/>
<rect x="270.25" y="50.25" width="49.5" height="49.5" stroke="#2DD4BF" stroke-width="0.5"/>
<rect x="320.25" y="50.25" width="49.5" height="49.5" stroke="#2DD4BF" stroke-width="0.5"/>
<rect x="370.25" y="50.25" width="49.5" height="49.5" stroke="#2DD4BF" stroke-width="0.5"/>
<rect x="420.25" y="50.25" width="49.5" height="49.5" stroke="#2DD4BF" stroke-width="0.5"/>
<rect x="470.25" y="50.25" width="49.5" height="49.5" stroke="#2DD4BF" stroke-width="0.5"/>
<rect x="520.25" y="50.25" width="49.5" height="49.5" stroke="#2DD4BF" stroke-width="0.5"/>
<rect x="570.25" y="50.25" width="49.5" height="49.5" stroke="#2DD4BF" stroke-width="0.5"/>
<rect x="620.25" y="50.25" width="49.5" height="49.5" stroke="#2DD4BF" stroke-width="0.5"/>
<rect x="670.25" y="50.25" width="49.5" height="49.5" stroke="#2DD4BF" stroke-width="0.5"/>
<rect x="720.25" y="50.25" width="49.5" height="49.5" stroke="#2DD4BF" stroke-width="0.5"/>
<rect x="770.25" y="50.25" width="49.5" height="49.5" stroke="#2DD4BF" stroke-width="0.5"/>
<rect x="820.25" y="50.25" width="49.5" height="49.5" stroke="#2DD4BF" stroke-width="0.5"/>
<rect x="870.25" y="50.25" width="49.5" height="49.5" stroke="#2DD4BF" stroke-width="0.5"/>
<rect x="920.25" y="50.25" width="49.5" height="49.5" stroke="#2DD4BF" stroke-width="0.5"/>
<rect x="970.25" y="50.25" width="49.5" height="49.5" stroke="#2DD4BF" stroke-width="0.5"/>
<rect x="1020.25" y="50.25" width="49.5" height="49.5" stroke="#2DD4BF" stroke-width="0.5"/>
<rect x="1070.25" y="50.25" width="49.5" height="49.5" stroke="#2DD4BF" stroke-width="0.5"/>
<rect x="1120.25" y="50.25" width="49.5" height="49.5" stroke="#2DD4BF" stroke-width="0.5"/>
<rect x="1170.25" y="50.25" width="49.5" height="49.5" stroke="#2DD4BF" stroke-width="0.5"/>
<rect x="1220.25" y="50.25" width="49.5" height="49.5" stroke="#2DD4BF" stroke-width="0.5"/>
<rect x="1270.25" y="50.25" width="49.5" height="49.5" stroke="#2DD4BF" stroke-width="0.5"/>
<rect x="1320.25" y="50.25" width="49.5" height="49.5" stroke="#2DD4BF" stroke-width="0.5"/>
<rect x="1370.25" y="50.25" width="49.5" height="49.5" stroke="#2DD4BF" stroke-width="0.5"/>
<rect x="1420.25" y="50.25" width="49.5" height="49.5" stroke="#2DD4BF" stroke-width="0.5"/>
<rect x="-29.75" y="100.25" width="49.5" height="49.5" stroke="#2DD4BF" stroke-width="0.5"/>
<rect x="20.25" y="100.25" width="49.5" height="49.5" stroke="#2DD4BF" stroke-width="0.5"/>
<rect x="70.25" y="100.25" width="49.5" height="49.5" stroke="#2DD4BF" stroke-width="0.5"/>
<rect x="120.25" y="100.25" width="49.5" height="49.5" stroke="#2DD4BF" stroke-width="0.5"/>
<rect x="170.25" y="100.25" width="49.5" height="49.5" stroke="#2DD4BF" stroke-width="0.5"/>
<rect x="220.25" y="100.25" width="49.5" height="49.5" stroke="#2DD4BF" stroke-width="0.5"/>
<rect x="270.25" y="100.25" width="49.5" height="49.5" stroke="#2DD4BF" stroke-width="0.5"/>
<rect x="320.25" y="100.25" width="49.5" height="49.5" stroke="#2DD4BF" stroke-width="0.5"/>
<rect x="370.25" y="100.25" width="49.5" height="49.5" stroke="#2DD4BF" stroke-width="0.5"/>
<rect x="420.25" y="100.25" width="49.5" height="49.5" stroke="#2DD4BF" stroke-width="0.5"/>
<rect x="470.25" y="100.25" width="49.5" height="49.5" stroke="#2DD4BF" stroke-width="0.5"/>
<rect x="520.25" y="100.25" width="49.5" height="49.5" stroke="#2DD4BF" stroke-width="0.5"/>
<rect x="570.25" y="100.25" width="49.5" height="49.5" stroke="#2DD4BF" stroke-width="0.5"/>
<rect x="620.25" y="100.25" width="49.5" height="49.5" stroke="#2DD4BF" stroke-width="0.5"/>
<rect x="670.25" y="100.25" width="49.5" height="49.5" stroke="#2DD4BF" stroke-width="0.5"/>
<rect x="720.25" y="100.25" width="49.5" height="49.5" stroke="#2DD4BF" stroke-width="0.5"/>
<rect x="770.25" y="100.25" width="49.5" height="49.5" stroke="#2DD4BF" stroke-width="0.5"/>
<rect x="820.25" y="100.25" width="49.5" height="49.5" stroke="#2DD4BF" stroke-width="0.5"/>
<rect x="870.25" y="100.25" width="49.5" height="49.5" stroke="#2DD4BF" stroke-width="0.5"/>
<rect x="920.25" y="100.25" width="49.5" height="49.5" stroke="#2DD4BF" stroke-width="0.5"/>
<rect x="970.25" y="100.25" width="49.5" height="49.5" stroke="#2DD4BF" stroke-width="0.5"/>
<rect x="1020.25" y="100.25" width="49.5" height="49.5" stroke="#2DD4BF" stroke-width="0.5"/>
<rect x="1070.25" y="100.25" width="49.5" height="49.5" stroke="#2DD4BF" stroke-width="0.5"/>
<rect x="1120.25" y="100.25" width="49.5" height="49.5" stroke="#2DD4BF" stroke-width="0.5"/>
<rect x="1170.25" y="100.25" width="49.5" height="49.5" stroke="#2DD4BF" stroke-width="0.5"/>
<rect x="1220.25" y="100.25" width="49.5" height="49.5" stroke="#2DD4BF" stroke-width="0.5"/>
<rect x="1270.25" y="100.25" width="49.5" height="49.5" stroke="#2DD4BF" stroke-width="0.5"/>
<rect x="1320.25" y="100.25" width="49.5" height="49.5" stroke="#2DD4BF" stroke-width="0.5"/>
<rect x="1370.25" y="100.25" width="49.5" height="49.5" stroke="#2DD4BF" stroke-width="0.5"/>
<rect x="1420.25" y="100.25" width="49.5" height="49.5" stroke="#2DD4BF" stroke-width="0.5"/>
<rect x="-29.75" y="150.25" width="49.5" height="49.5" stroke="#2DD4BF" stroke-width="0.5"/>
<rect x="20.25" y="150.25" width="49.5" height="49.5" stroke="#2DD4BF" stroke-width="0.5"/>
<rect x="70.25" y="150.25" width="49.5" height="49.5" stroke="#2DD4BF" stroke-width="0.5"/>
<rect x="120.25" y="150.25" width="49.5" height="49.5" stroke="#2DD4BF" stroke-width="0.5"/>
<rect x="170.25" y="150.25" width="49.5" height="49.5" stroke="#2DD4BF" stroke-width="0.5"/>
<rect x="220.25" y="150.25" width="49.5" height="49.5" stroke="#2DD4BF" stroke-width="0.5"/>
<rect x="270.25" y="150.25" width="49.5" height="49.5" stroke="#2DD4BF" stroke-width="0.5"/>
<rect x="320.25" y="150.25" width="49.5" height="49.5" stroke="#2DD4BF" stroke-width="0.5"/>
<rect x="370.25" y="150.25" width="49.5" height="49.5" stroke="#2DD4BF" stroke-width="0.5"/>
<rect x="420.25" y="150.25" width="49.5" height="49.5" stroke="#2DD4BF" stroke-width="0.5"/>
<rect x="470.25" y="150.25" width="49.5" height="49.5" stroke="#2DD4BF" stroke-width="0.5"/>
<rect x="520.25" y="150.25" width="49.5" height="49.5" stroke="#2DD4BF" stroke-width="0.5"/>
<rect x="570.25" y="150.25" width="49.5" height="49.5" stroke="#2DD4BF" stroke-width="0.5"/>
<rect x="620.25" y="150.25" width="49.5" height="49.5" stroke="#2DD4BF" stroke-width="0.5"/>
<rect x="670.25" y="150.25" width="49.5" height="49.5" stroke="#2DD4BF" stroke-width="0.5"/>
<rect x="720.25" y="150.25" width="49.5" height="49.5" stroke="#2DD4BF" stroke-width="0.5"/>
<rect x="770.25" y="150.25" width="49.5" height="49.5" stroke="#2DD4BF" stroke-width="0.5"/>
<rect x="820.25" y="150.25" width="49.5" height="49.5" stroke="#2DD4BF" stroke-width="0.5"/>
<rect x="870.25" y="150.25" width="49.5" height="49.5" stroke="#2DD4BF" stroke-width="0.5"/>
<rect x="920.25" y="150.25" width="49.5" height="49.5" stroke="#2DD4BF" stroke-width="0.5"/>
<rect x="970.25" y="150.25" width="49.5" height="49.5" stroke="#2DD4BF" stroke-width="0.5"/>
<rect x="1020.25" y="150.25" width="49.5" height="49.5" stroke="#2DD4BF" stroke-width="0.5"/>
<rect x="1070.25" y="150.25" width="49.5" height="49.5" stroke="#2DD4BF" stroke-width="0.5"/>
<rect x="1120.25" y="150.25" width="49.5" height="49.5" stroke="#2DD4BF" stroke-width="0.5"/>
<rect x="1170.25" y="150.25" width="49.5" height="49.5" stroke="#2DD4BF" stroke-width="0.5"/>
<rect x="1220.25" y="150.25" width="49.5" height="49.5" stroke="#2DD4BF" stroke-width="0.5"/>
<rect x="1270.25" y="150.25" width="49.5" height="49.5" stroke="#2DD4BF" stroke-width="0.5"/>
<rect x="1320.25" y="150.25" width="49.5" height="49.5" stroke="#2DD4BF" stroke-width="0.5"/>
<rect x="1370.25" y="150.25" width="49.5" height="49.5" stroke="#2DD4BF" stroke-width="0.5"/>
<rect x="1420.25" y="150.25" width="49.5" height="49.5" stroke="#2DD4BF" stroke-width="0.5"/>
<rect x="-29.75" y="200.25" width="49.5" height="49.5" stroke="#2DD4BF" stroke-width="0.5"/>
<rect x="20.25" y="200.25" width="49.5" height="49.5" stroke="#2DD4BF" stroke-width="0.5"/>
<rect x="70.25" y="200.25" width="49.5" height="49.5" stroke="#2DD4BF" stroke-width="0.5"/>
<rect x="120.25" y="200.25" width="49.5" height="49.5" stroke="#2DD4BF" stroke-width="0.5"/>
<rect x="170.25" y="200.25" width="49.5" height="49.5" stroke="#2DD4BF" stroke-width="0.5"/>
<rect x="220.25" y="200.25" width="49.5" height="49.5" stroke="#2DD4BF" stroke-width="0.5"/>
<rect x="270.25" y="200.25" width="49.5" height="49.5" stroke="#2DD4BF" stroke-width="0.5"/>
<rect x="320.25" y="200.25" width="49.5" height="49.5" stroke="#2DD4BF" stroke-width="0.5"/>
<rect x="370.25" y="200.25" width="49.5" height="49.5" stroke="#2DD4BF" stroke-width="0.5"/>
<rect x="420.25" y="200.25" width="49.5" height="49.5" stroke="#2DD4BF" stroke-width="0.5"/>
<rect x="470.25" y="200.25" width="49.5" height="49.5" stroke="#2DD4BF" stroke-width="0.5"/>
<rect x="520.25" y="200.25" width="49.5" height="49.5" stroke="#2DD4BF" stroke-width="0.5"/>
<rect x="570.25" y="200.25" width="49.5" height="49.5" stroke="#2DD4BF" stroke-width="0.5"/>
<rect x="620.25" y="200.25" width="49.5" height="49.5" stroke="#2DD4BF" stroke-width="0.5"/>
<rect x="670.25" y="200.25" width="49.5" height="49.5" stroke="#2DD4BF" stroke-width="0.5"/>
<rect x="720.25" y="200.25" width="49.5" height="49.5" stroke="#2DD4BF" stroke-width="0.5"/>
<rect x="770.25" y="200.25" width="49.5" height="49.5" stroke="#2DD4BF" stroke-width="0.5"/>
<rect x="820.25" y="200.25" width="49.5" height="49.5" stroke="#2DD4BF" stroke-width="0.5"/>
<rect x="870.25" y="200.25" width="49.5" height="49.5" stroke="#2DD4BF" stroke-width="0.5"/>
<rect x="920.25" y="200.25" width="49.5" height="49.5" stroke="#2DD4BF" stroke-width="0.5"/>
<rect x="970.25" y="200.25" width="49.5" height="49.5" stroke="#2DD4BF" stroke-width="0.5"/>
<rect x="1020.25" y="200.25" width="49.5" height="49.5" stroke="#2DD4BF" stroke-width="0.5"/>
<rect x="1070.25" y="200.25" width="49.5" height="49.5" stroke="#2DD4BF" stroke-width="0.5"/>
<rect x="1120.25" y="200.25" width="49.5" height="49.5" stroke="#2DD4BF" stroke-width="0.5"/>
<rect x="1170.25" y="200.25" width="49.5" height="49.5" stroke="#2DD4BF" stroke-width="0.5"/>
<rect x="1220.25" y="200.25" width="49.5" height="49.5" stroke="#2DD4BF" stroke-width="0.5"/>
<rect x="1270.25" y="200.25" width="49.5" height="49.5" stroke="#2DD4BF" stroke-width="0.5"/>
<rect x="1320.25" y="200.25" width="49.5" height="49.5" stroke="#2DD4BF" stroke-width="0.5"/>
<rect x="1370.25" y="200.25" width="49.5" height="49.5" stroke="#2DD4BF" stroke-width="0.5"/>
<rect x="1420.25" y="200.25" width="49.5" height="49.5" stroke="#2DD4BF" stroke-width="0.5"/>
<rect x="-29.75" y="250.25" width="49.5" height="49.5" stroke="#2DD4BF" stroke-width="0.5"/>
<rect x="20.25" y="250.25" width="49.5" height="49.5" stroke="#2DD4BF" stroke-width="0.5"/>
<rect x="70.25" y="250.25" width="49.5" height="49.5" stroke="#2DD4BF" stroke-width="0.5"/>
<rect x="120.25" y="250.25" width="49.5" height="49.5" stroke="#2DD4BF" stroke-width="0.5"/>
<rect x="170.25" y="250.25" width="49.5" height="49.5" stroke="#2DD4BF" stroke-width="0.5"/>
<rect x="220.25" y="250.25" width="49.5" height="49.5" stroke="#2DD4BF" stroke-width="0.5"/>
<rect x="270.25" y="250.25" width="49.5" height="49.5" stroke="#2DD4BF" stroke-width="0.5"/>
<rect x="320.25" y="250.25" width="49.5" height="49.5" stroke="#2DD4BF" stroke-width="0.5"/>
<rect x="370.25" y="250.25" width="49.5" height="49.5" stroke="#2DD4BF" stroke-width="0.5"/>
<rect x="420.25" y="250.25" width="49.5" height="49.5" stroke="#2DD4BF" stroke-width="0.5"/>
<rect x="470.25" y="250.25" width="49.5" height="49.5" stroke="#2DD4BF" stroke-width="0.5"/>
<rect x="520.25" y="250.25" width="49.5" height="49.5" stroke="#2DD4BF" stroke-width="0.5"/>
<rect x="570.25" y="250.25" width="49.5" height="49.5" stroke="#2DD4BF" stroke-width="0.5"/>
<rect x="620.25" y="250.25" width="49.5" height="49.5" stroke="#2DD4BF" stroke-width="0.5"/>
<rect x="670.25" y="250.25" width="49.5" height="49.5" stroke="#2DD4BF" stroke-width="0.5"/>
<rect x="720.25" y="250.25" width="49.5" height="49.5" stroke="#2DD4BF" stroke-width="0.5"/>
<rect x="770.25" y="250.25" width="49.5" height="49.5" stroke="#2DD4BF" stroke-width="0.5"/>
<rect x="820.25" y="250.25" width="49.5" height="49.5" stroke="#2DD4BF" stroke-width="0.5"/>
<rect x="870.25" y="250.25" width="49.5" height="49.5" stroke="#2DD4BF" stroke-width="0.5"/>
<rect x="920.25" y="250.25" width="49.5" height="49.5" stroke="#2DD4BF" stroke-width="0.5"/>
<rect x="970.25" y="250.25" width="49.5" height="49.5" stroke="#2DD4BF" stroke-width="0.5"/>
<rect x="1020.25" y="250.25" width="49.5" height="49.5" stroke="#2DD4BF" stroke-width="0.5"/>
<rect x="1070.25" y="250.25" width="49.5" height="49.5" stroke="#2DD4BF" stroke-width="0.5"/>
<rect x="1120.25" y="250.25" width="49.5" height="49.5" stroke="#2DD4BF" stroke-width="0.5"/>
<rect x="1170.25" y="250.25" width="49.5" height="49.5" stroke="#2DD4BF" stroke-width="0.5"/>
<rect x="1220.25" y="250.25" width="49.5" height="49.5" stroke="#2DD4BF" stroke-width="0.5"/>
<rect x="1270.25" y="250.25" width="49.5" height="49.5" stroke="#2DD4BF" stroke-width="0.5"/>
<rect x="1320.25" y="250.25" width="49.5" height="49.5" stroke="#2DD4BF" stroke-width="0.5"/>
<rect x="1370.25" y="250.25" width="49.5" height="49.5" stroke="#2DD4BF" stroke-width="0.5"/>
<rect x="1420.25" y="250.25" width="49.5" height="49.5" stroke="#2DD4BF" stroke-width="0.5"/>
<rect x="-29.75" y="300.25" width="49.5" height="49.5" stroke="#2DD4BF" stroke-width="0.5"/>
<rect x="20.25" y="300.25" width="49.5" height="49.5" stroke="#2DD4BF" stroke-width="0.5"/>
<rect x="70.25" y="300.25" width="49.5" height="49.5" stroke="#2DD4BF" stroke-width="0.5"/>
<rect x="120.25" y="300.25" width="49.5" height="49.5" stroke="#2DD4BF" stroke-width="0.5"/>
<rect x="170.25" y="300.25" width="49.5" height="49.5" stroke="#2DD4BF" stroke-width="0.5"/>
<rect x="220.25" y="300.25" width="49.5" height="49.5" stroke="#2DD4BF" stroke-width="0.5"/>
<rect x="270.25" y="300.25" width="49.5" height="49.5" stroke="#2DD4BF" stroke-width="0.5"/>
<rect x="320.25" y="300.25" width="49.5" height="49.5" stroke="#2DD4BF" stroke-width="0.5"/>
<rect x="370.25" y="300.25" width="49.5" height="49.5" stroke="#2DD4BF" stroke-width="0.5"/>
<rect x="420.25" y="300.25" width="49.5" height="49.5" stroke="#2DD4BF" stroke-width="0.5"/>
<rect x="470.25" y="300.25" width="49.5" height="49.5" stroke="#2DD4BF" stroke-width="0.5"/>
<rect x="520.25" y="300.25" width="49.5" height="49.5" stroke="#2DD4BF" stroke-width="0.5"/>
<rect x="570.25" y="300.25" width="49.5" height="49.5" stroke="#2DD4BF" stroke-width="0.5"/>
<rect x="620.25" y="300.25" width="49.5" height="49.5" stroke="#2DD4BF" stroke-width="0.5"/>
<rect x="670.25" y="300.25" width="49.5" height="49.5" stroke="#2DD4BF" stroke-width="0.5"/>
<rect x="720.25" y="300.25" width="49.5" height="49.5" stroke="#2DD4BF" stroke-width="0.5"/>
<rect x="770.25" y="300.25" width="49.5" height="49.5" stroke="#2DD4BF" stroke-width="0.5"/>
<rect x="820.25" y="300.25" width="49.5" height="49.5" stroke="#2DD4BF" stroke-width="0.5"/>
<rect x="870.25" y="300.25" width="49.5" height="49.5" stroke="#2DD4BF" stroke-width="0.5"/>
<rect x="920.25" y="300.25" width="49.5" height="49.5" stroke="#2DD4BF" stroke-width="0.5"/>
<rect x="970.25" y="300.25" width="49.5" height="49.5" stroke="#2DD4BF" stroke-width="0.5"/>
<rect x="1020.25" y="300.25" width="49.5" height="49.5" stroke="#2DD4BF" stroke-width="0.5"/>
<rect x="1070.25" y="300.25" width="49.5" height="49.5" stroke="#2DD4BF" stroke-width="0.5"/>
<rect x="1120.25" y="300.25" width="49.5" height="49.5" stroke="#2DD4BF" stroke-width="0.5"/>
<rect x="1170.25" y="300.25" width="49.5" height="49.5" stroke="#2DD4BF" stroke-width="0.5"/>
<rect x="1220.25" y="300.25" width="49.5" height="49.5" stroke="#2DD4BF" stroke-width="0.5"/>
<rect x="1270.25" y="300.25" width="49.5" height="49.5" stroke="#2DD4BF" stroke-width="0.5"/>
<rect x="1320.25" y="300.25" width="49.5" height="49.5" stroke="#2DD4BF" stroke-width="0.5"/>
<rect x="1370.25" y="300.25" width="49.5" height="49.5" stroke="#2DD4BF" stroke-width="0.5"/>
<rect x="1420.25" y="300.25" width="49.5" height="49.5" stroke="#2DD4BF" stroke-width="0.5"/>
<rect x="-29.75" y="350.25" width="49.5" height="49.5" stroke="#2DD4BF" stroke-width="0.5"/>
<rect x="20.25" y="350.25" width="49.5" height="49.5" stroke="#2DD4BF" stroke-width="0.5"/>
<rect x="70.25" y="350.25" width="49.5" height="49.5" stroke="#2DD4BF" stroke-width="0.5"/>
<rect x="120.25" y="350.25" width="49.5" height="49.5" stroke="#2DD4BF" stroke-width="0.5"/>
<rect x="170.25" y="350.25" width="49.5" height="49.5" stroke="#2DD4BF" stroke-width="0.5"/>
<rect x="220.25" y="350.25" width="49.5" height="49.5" stroke="#2DD4BF" stroke-width="0.5"/>
<rect x="270.25" y="350.25" width="49.5" height="49.5" stroke="#2DD4BF" stroke-width="0.5"/>
<rect x="320.25" y="350.25" width="49.5" height="49.5" stroke="#2DD4BF" stroke-width="0.5"/>
<rect x="370.25" y="350.25" width="49.5" height="49.5" stroke="#2DD4BF" stroke-width="0.5"/>
<rect x="420.25" y="350.25" width="49.5" height="49.5" stroke="#2DD4BF" stroke-width="0.5"/>
<rect x="470.25" y="350.25" width="49.5" height="49.5" stroke="#2DD4BF" stroke-width="0.5"/>
<rect x="520.25" y="350.25" width="49.5" height="49.5" stroke="#2DD4BF" stroke-width="0.5"/>
<rect x="570.25" y="350.25" width="49.5" height="49.5" stroke="#2DD4BF" stroke-width="0.5"/>
<rect x="620.25" y="350.25" width="49.5" height="49.5" stroke="#2DD4BF" stroke-width="0.5"/>
<rect x="670.25" y="350.25" width="49.5" height="49.5" stroke="#2DD4BF" stroke-width="0.5"/>
<rect x="720.25" y="350.25" width="49.5" height="49.5" stroke="#2DD4BF" stroke-width="0.5"/>
<rect x="770.25" y="350.25" width="49.5" height="49.5" stroke="#2DD4BF" stroke-width="0.5"/>
<rect x="820.25" y="350.25" width="49.5" height="49.5" stroke="#2DD4BF" stroke-width="0.5"/>
<rect x="870.25" y="350.25" width="49.5" height="49.5" stroke="#2DD4BF" stroke-width="0.5"/>
<rect x="920.25" y="350.25" width="49.5" height="49.5" stroke="#2DD4BF" stroke-width="0.5"/>
<rect x="970.25" y="350.25" width="49.5" height="49.5" stroke="#2DD4BF" stroke-width="0.5"/>
<rect x="1020.25" y="350.25" width="49.5" height="49.5" stroke="#2DD4BF" stroke-width="0.5"/>
<rect x="1070.25" y="350.25" width="49.5" height="49.5" stroke="#2DD4BF" stroke-width="0.5"/>
<rect x="1120.25" y="350.25" width="49.5" height="49.5" stroke="#2DD4BF" stroke-width="0.5"/>
<rect x="1170.25" y="350.25" width="49.5" height="49.5" stroke="#2DD4BF" stroke-width="0.5"/>
<rect x="1220.25" y="350.25" width="49.5" height="49.5" stroke="#2DD4BF" stroke-width="0.5"/>
<rect x="1270.25" y="350.25" width="49.5" height="49.5" stroke="#2DD4BF" stroke-width="0.5"/>
<rect x="1320.25" y="350.25" width="49.5" height="49.5" stroke="#2DD4BF" stroke-width="0.5"/>
<rect x="1370.25" y="350.25" width="49.5" height="49.5" stroke="#2DD4BF" stroke-width="0.5"/>
<rect x="1420.25" y="350.25" width="49.5" height="49.5" stroke="#2DD4BF" stroke-width="0.5"/>
<rect x="-29.75" y="400.25" width="49.5" height="49.5" stroke="#2DD4BF" stroke-width="0.5"/>
<rect x="20.25" y="400.25" width="49.5" height="49.5" stroke="#2DD4BF" stroke-width="0.5"/>
<rect x="70.25" y="400.25" width="49.5" height="49.5" stroke="#2DD4BF" stroke-width="0.5"/>
<rect x="120.25" y="400.25" width="49.5" height="49.5" stroke="#2DD4BF" stroke-width="0.5"/>
<rect x="170.25" y="400.25" width="49.5" height="49.5" stroke="#2DD4BF" stroke-width="0.5"/>
<rect x="220.25" y="400.25" width="49.5" height="49.5" stroke="#2DD4BF" stroke-width="0.5"/>
<rect x="270.25" y="400.25" width="49.5" height="49.5" stroke="#2DD4BF" stroke-width="0.5"/>
<rect x="320.25" y="400.25" width="49.5" height="49.5" stroke="#2DD4BF" stroke-width="0.5"/>
<rect x="370.25" y="400.25" width="49.5" height="49.5" stroke="#2DD4BF" stroke-width="0.5"/>
<rect x="420.25" y="400.25" width="49.5" height="49.5" stroke="#2DD4BF" stroke-width="0.5"/>
<rect x="470.25" y="400.25" width="49.5" height="49.5" stroke="#2DD4BF" stroke-width="0.5"/>
<rect x="520.25" y="400.25" width="49.5" height="49.5" stroke="#2DD4BF" stroke-width="0.5"/>
<rect x="570.25" y="400.25" width="49.5" height="49.5" stroke="#2DD4BF" stroke-width="0.5"/>
<rect x="620.25" y="400.25" width="49.5" height="49.5" stroke="#2DD4BF" stroke-width="0.5"/>
<rect x="670.25" y="400.25" width="49.5" height="49.5" stroke="#2DD4BF" stroke-width="0.5"/>
<rect x="720.25" y="400.25" width="49.5" height="49.5" stroke="#2DD4BF" stroke-width="0.5"/>
<rect x="770.25" y="400.25" width="49.5" height="49.5" stroke="#2DD4BF" stroke-width="0.5"/>
<rect x="820.25" y="400.25" width="49.5" height="49.5" stroke="#2DD4BF" stroke-width="0.5"/>
<rect x="870.25" y="400.25" width="49.5" height="49.5" stroke="#2DD4BF" stroke-width="0.5"/>
<rect x="920.25" y="400.25" width="49.5" height="49.5" stroke="#2DD4BF" stroke-width="0.5"/>
<rect x="970.25" y="400.25" width="49.5" height="49.5" stroke="#2DD4BF" stroke-width="0.5"/>
<rect x="1020.25" y="400.25" width="49.5" height="49.5" stroke="#2DD4BF" stroke-width="0.5"/>
<rect x="1070.25" y="400.25" width="49.5" height="49.5" stroke="#2DD4BF" stroke-width="0.5"/>
<rect x="1120.25" y="400.25" width="49.5" height="49.5" stroke="#2DD4BF" stroke-width="0.5"/>
<rect x="1170.25" y="400.25" width="49.5" height="49.5" stroke="#2DD4BF" stroke-width="0.5"/>
<rect x="1220.25" y="400.25" width="49.5" height="49.5" stroke="#2DD4BF" stroke-width="0.5"/>
<rect x="1270.25" y="400.25" width="49.5" height="49.5" stroke="#2DD4BF" stroke-width="0.5"/>
<rect x="1320.25" y="400.25" width="49.5" height="49.5" stroke="#2DD4BF" stroke-width="0.5"/>
<rect x="1370.25" y="400.25" width="49.5" height="49.5" stroke="#2DD4BF" stroke-width="0.5"/>
<rect x="1420.25" y="400.25" width="49.5" height="49.5" stroke="#2DD4BF" stroke-width="0.5"/>
<rect x="-29.75" y="450.25" width="49.5" height="49.5" stroke="#2DD4BF" stroke-width="0.5"/>
<rect x="20.25" y="450.25" width="49.5" height="49.5" stroke="#2DD4BF" stroke-width="0.5"/>
<rect x="70.25" y="450.25" width="49.5" height="49.5" stroke="#2DD4BF" stroke-width="0.5"/>
<rect x="120.25" y="450.25" width="49.5" height="49.5" stroke="#2DD4BF" stroke-width="0.5"/>
<rect x="170.25" y="450.25" width="49.5" height="49.5" stroke="#2DD4BF" stroke-width="0.5"/>
<rect x="220.25" y="450.25" width="49.5" height="49.5" stroke="#2DD4BF" stroke-width="0.5"/>
<rect x="270.25" y="450.25" width="49.5" height="49.5" stroke="#2DD4BF" stroke-width="0.5"/>
<rect x="320.25" y="450.25" width="49.5" height="49.5" stroke="#2DD4BF" stroke-width="0.5"/>
<rect x="370.25" y="450.25" width="49.5" height="49.5" stroke="#2DD4BF" stroke-width="0.5"/>
<rect x="420.25" y="450.25" width="49.5" height="49.5" stroke="#2DD4BF" stroke-width="0.5"/>
<rect x="470.25" y="450.25" width="49.5" height="49.5" stroke="#2DD4BF" stroke-width="0.5"/>
<rect x="520.25" y="450.25" width="49.5" height="49.5" stroke="#2DD4BF" stroke-width="0.5"/>
<rect x="570.25" y="450.25" width="49.5" height="49.5" stroke="#2DD4BF" stroke-width="0.5"/>
<rect x="620.25" y="450.25" width="49.5" height="49.5" stroke="#2DD4BF" stroke-width="0.5"/>
<rect x="670.25" y="450.25" width="49.5" height="49.5" stroke="#2DD4BF" stroke-width="0.5"/>
<rect x="720.25" y="450.25" width="49.5" height="49.5" stroke="#2DD4BF" stroke-width="0.5"/>
<rect x="770.25" y="450.25" width="49.5" height="49.5" stroke="#2DD4BF" stroke-width="0.5"/>
<rect x="820.25" y="450.25" width="49.5" height="49.5" stroke="#2DD4BF" stroke-width="0.5"/>
<rect x="870.25" y="450.25" width="49.5" height="49.5" stroke="#2DD4BF" stroke-width="0.5"/>
<rect x="920.25" y="450.25" width="49.5" height="49.5" stroke="#2DD4BF" stroke-width="0.5"/>
<rect x="970.25" y="450.25" width="49.5" height="49.5" stroke="#2DD4BF" stroke-width="0.5"/>
<rect x="1020.25" y="450.25" width="49.5" height="49.5" stroke="#2DD4BF" stroke-width="0.5"/>
<rect x="1070.25" y="450.25" width="49.5" height="49.5" stroke="#2DD4BF" stroke-width="0.5"/>
<rect x="1120.25" y="450.25" width="49.5" height="49.5" stroke="#2DD4BF" stroke-width="0.5"/>
<rect x="1170.25" y="450.25" width="49.5" height="49.5" stroke="#2DD4BF" stroke-width="0.5"/>
<rect x="1220.25" y="450.25" width="49.5" height="49.5" stroke="#2DD4BF" stroke-width="0.5"/>
<rect x="1270.25" y="450.25" width="49.5" height="49.5" stroke="#2DD4BF" stroke-width="0.5"/>
<rect x="1320.25" y="450.25" width="49.5" height="49.5" stroke="#2DD4BF" stroke-width="0.5"/>
<rect x="1370.25" y="450.25" width="49.5" height="49.5" stroke="#2DD4BF" stroke-width="0.5"/>
<rect x="1420.25" y="450.25" width="49.5" height="49.5" stroke="#2DD4BF" stroke-width="0.5"/>
<rect x="-29.75" y="500.25" width="49.5" height="49.5" stroke="#2DD4BF" stroke-width="0.5"/>
<rect x="20.25" y="500.25" width="49.5" height="49.5" stroke="#2DD4BF" stroke-width="0.5"/>
<rect x="70.25" y="500.25" width="49.5" height="49.5" stroke="#2DD4BF" stroke-width="0.5"/>
<rect x="120.25" y="500.25" width="49.5" height="49.5" stroke="#2DD4BF" stroke-width="0.5"/>
<rect x="170.25" y="500.25" width="49.5" height="49.5" stroke="#2DD4BF" stroke-width="0.5"/>
<rect x="220.25" y="500.25" width="49.5" height="49.5" stroke="#2DD4BF" stroke-width="0.5"/>
<rect x="270.25" y="500.25" width="49.5" height="49.5" stroke="#2DD4BF" stroke-width="0.5"/>
<rect x="320.25" y="500.25" width="49.5" height="49.5" stroke="#2DD4BF" stroke-width="0.5"/>
<rect x="370.25" y="500.25" width="49.5" height="49.5" stroke="#2DD4BF" stroke-width="0.5"/>
<rect x="420.25" y="500.25" width="49.5" height="49.5" stroke="#2DD4BF" stroke-width="0.5"/>
<rect x="470.25" y="500.25" width="49.5" height="49.5" stroke="#2DD4BF" stroke-width="0.5"/>
<rect x="520.25" y="500.25" width="49.5" height="49.5" stroke="#2DD4BF" stroke-width="0.5"/>
<rect x="570.25" y="500.25" width="49.5" height="49.5" stroke="#2DD4BF" stroke-width="0.5"/>
<rect x="620.25" y="500.25" width="49.5" height="49.5" stroke="#2DD4BF" stroke-width="0.5"/>
<rect x="670.25" y="500.25" width="49.5" height="49.5" stroke="#2DD4BF" stroke-width="0.5"/>
<rect x="720.25" y="500.25" width="49.5" height="49.5" stroke="#2DD4BF" stroke-width="0.5"/>
<rect x="770.25" y="500.25" width="49.5" height="49.5" stroke="#2DD4BF" stroke-width="0.5"/>
<rect x="820.25" y="500.25" width="49.5" height="49.5" stroke="#2DD4BF" stroke-width="0.5"/>
<rect x="870.25" y="500.25" width="49.5" height="49.5" stroke="#2DD4BF" stroke-width="0.5"/>
<rect x="920.25" y="500.25" width="49.5" height="49.5" stroke="#2DD4BF" stroke-width="0.5"/>
<rect x="970.25" y="500.25" width="49.5" height="49.5" stroke="#2DD4BF" stroke-width="0.5"/>
<rect x="1020.25" y="500.25" width="49.5" height="49.5" stroke="#2DD4BF" stroke-width="0.5"/>
<rect x="1070.25" y="500.25" width="49.5" height="49.5" stroke="#2DD4BF" stroke-width="0.5"/>
<rect x="1120.25" y="500.25" width="49.5" height="49.5" stroke="#2DD4BF" stroke-width="0.5"/>
<rect x="1170.25" y="500.25" width="49.5" height="49.5" stroke="#2DD4BF" stroke-width="0.5"/>
<rect x="1220.25" y="500.25" width="49.5" height="49.5" stroke="#2DD4BF" stroke-width="0.5"/>
<rect x="1270.25" y="500.25" width="49.5" height="49.5" stroke="#2DD4BF" stroke-width="0.5"/>
<rect x="1320.25" y="500.25" width="49.5" height="49.5" stroke="#2DD4BF" stroke-width="0.5"/>
<rect x="1370.25" y="500.25" width="49.5" height="49.5" stroke="#2DD4BF" stroke-width="0.5"/>
<rect x="1420.25" y="500.25" width="49.5" height="49.5" stroke="#2DD4BF" stroke-width="0.5"/>
<rect x="-29.75" y="550.25" width="49.5" height="49.5" stroke="#2DD4BF" stroke-width="0.5"/>
<rect x="20.25" y="550.25" width="49.5" height="49.5" stroke="#2DD4BF" stroke-width="0.5"/>
<rect x="70.25" y="550.25" width="49.5" height="49.5" stroke="#2DD4BF" stroke-width="0.5"/>
<rect x="120.25" y="550.25" width="49.5" height="49.5" stroke="#2DD4BF" stroke-width="0.5"/>
<rect x="170.25" y="550.25" width="49.5" height="49.5" stroke="#2DD4BF" stroke-width="0.5"/>
<rect x="220.25" y="550.25" width="49.5" height="49.5" stroke="#2DD4BF" stroke-width="0.5"/>
<rect x="270.25" y="550.25" width="49.5" height="49.5" stroke="#2DD4BF" stroke-width="0.5"/>
<rect x="320.25" y="550.25" width="49.5" height="49.5" stroke="#2DD4BF" stroke-width="0.5"/>
<rect x="370.25" y="550.25" width="49.5" height="49.5" stroke="#2DD4BF" stroke-width="0.5"/>
<rect x="420.25" y="550.25" width="49.5" height="49.5" stroke="#2DD4BF" stroke-width="0.5"/>
<rect x="470.25" y="550.25" width="49.5" height="49.5" stroke="#2DD4BF" stroke-width="0.5"/>
<rect x="520.25" y="550.25" width="49.5" height="49.5" stroke="#2DD4BF" stroke-width="0.5"/>
<rect x="570.25" y="550.25" width="49.5" height="49.5" stroke="#2DD4BF" stroke-width="0.5"/>
<rect x="620.25" y="550.25" width="49.5" height="49.5" stroke="#2DD4BF" stroke-width="0.5"/>
<rect x="670.25" y="550.25" width="49.5" height="49.5" stroke="#2DD4BF" stroke-width="0.5"/>
<rect x="720.25" y="550.25" width="49.5" height="49.5" stroke="#2DD4BF" stroke-width="0.5"/>
<rect x="770.25" y="550.25" width="49.5" height="49.5" stroke="#2DD4BF" stroke-width="0.5"/>
<rect x="820.25" y="550.25" width="49.5" height="49.5" stroke="#2DD4BF" stroke-width="0.5"/>
<rect x="870.25" y="550.25" width="49.5" height="49.5" stroke="#2DD4BF" stroke-width="0.5"/>
<rect x="920.25" y="550.25" width="49.5" height="49.5" stroke="#2DD4BF" stroke-width="0.5"/>
<rect x="970.25" y="550.25" width="49.5" height="49.5" stroke="#2DD4BF" stroke-width="0.5"/>
<rect x="1020.25" y="550.25" width="49.5" height="49.5" stroke="#2DD4BF" stroke-width="0.5"/>
<rect x="1070.25" y="550.25" width="49.5" height="49.5" stroke="#2DD4BF" stroke-width="0.5"/>
<rect x="1120.25" y="550.25" width="49.5" height="49.5" stroke="#2DD4BF" stroke-width="0.5"/>
<rect x="1170.25" y="550.25" width="49.5" height="49.5" stroke="#2DD4BF" stroke-width="0.5"/>
<rect x="1220.25" y="550.25" width="49.5" height="49.5" stroke="#2DD4BF" stroke-width="0.5"/>
<rect x="1270.25" y="550.25" width="49.5" height="49.5" stroke="#2DD4BF" stroke-width="0.5"/>
<rect x="1320.25" y="550.25" width="49.5" height="49.5" stroke="#2DD4BF" stroke-width="0.5"/>
<rect x="1370.25" y="550.25" width="49.5" height="49.5" stroke="#2DD4BF" stroke-width="0.5"/>
<rect x="1420.25" y="550.25" width="49.5" height="49.5" stroke="#2DD4BF" stroke-width="0.5"/>
</g>
</svg>
