<svg width="502" height="80" viewBox="0 0 502 80" fill="none" xmlns="http://www.w3.org/2000/svg">
<rect x="69" y="21" width="368" height="49" rx="5.09683" fill="#F9FAFB"/>
<path d="M89.7588 49C89.0398 49 88.4777 48.8076 88.0726 48.4227C87.6777 48.0379 87.4802 47.4961 87.4802 46.7973V41.8906H85.1256V40.6449H87.4802V38.2903H88.8474V40.6449H92.1894V41.8906H88.8474V46.7973C88.8474 47.4353 89.1512 47.7543 89.7588 47.7543H92.0375V49H89.7588ZM94.69 49V47.7543H97.6523V41.8906H95.0698V40.6449H99.0195V47.7543H101.83V49H94.69ZM98.184 39.141C97.8498 39.141 97.5865 39.0549 97.394 38.8827C97.2016 38.7105 97.1054 38.4776 97.1054 38.1839C97.1054 37.8801 97.2016 37.6421 97.394 37.4699C97.5865 37.2876 97.8498 37.1965 98.184 37.1965C98.5182 37.1965 98.7815 37.2876 98.9739 37.4699C99.1663 37.6421 99.2626 37.8801 99.2626 38.1839C99.2626 38.4776 99.1663 38.7105 98.9739 38.8827C98.7815 39.0549 98.5182 39.141 98.184 39.141ZM107.976 49C107.257 49 106.695 48.8076 106.29 48.4227C105.895 48.0379 105.698 47.4961 105.698 46.7973V41.8906H103.343V40.6449H105.698V38.2903H107.065V40.6449H110.407V41.8906H107.065V46.7973C107.065 47.4353 107.369 47.7543 107.976 47.7543H110.255V49H107.976ZM117.313 49C116.827 49 116.401 48.9038 116.037 48.7114C115.672 48.5189 115.389 48.2455 115.186 47.891C114.984 47.5366 114.882 47.1214 114.882 46.6454V39.1562H112.072V37.9105H116.25V46.6454C116.25 46.9897 116.346 47.2631 116.538 47.4657C116.731 47.6581 116.989 47.7543 117.313 47.7543H119.971V49H117.313ZM125.282 49.1519C124.624 49.1519 124.047 49.0203 123.551 48.7569C123.064 48.4936 122.685 48.124 122.411 47.648C122.148 47.1619 122.016 46.5998 122.016 45.9618V43.6831C122.016 43.035 122.148 42.4729 122.411 41.9969C122.685 41.5209 123.064 41.1513 123.551 40.8879C124.047 40.6246 124.624 40.493 125.282 40.493C125.941 40.493 126.513 40.6246 126.999 40.8879C127.495 41.1513 127.875 41.5209 128.138 41.9969C128.412 42.4729 128.548 43.035 128.548 43.6831V45.1566H123.353V45.9618C123.353 46.6201 123.52 47.1264 123.854 47.4809C124.189 47.8252 124.665 47.9974 125.282 47.9974C125.809 47.9974 126.234 47.9062 126.558 47.7239C126.882 47.5315 127.08 47.248 127.151 46.8732H128.518C128.427 47.572 128.083 48.129 127.485 48.5443C126.898 48.9494 126.163 49.1519 125.282 49.1519ZM127.212 44.2452V43.6831C127.212 43.0248 127.045 42.5185 126.71 42.164C126.386 41.8095 125.91 41.6323 125.282 41.6323C124.665 41.6323 124.189 41.8095 123.854 42.164C123.52 42.5185 123.353 43.0248 123.353 43.6831V44.1236H127.318L127.212 44.2452Z" fill="#5A67D8"/>
<path d="M134.391 42.7716C134.016 42.7716 133.713 42.6704 133.48 42.4678C133.247 42.2551 133.13 41.9766 133.13 41.6323C133.13 41.288 133.247 41.0145 133.48 40.812C133.713 40.5993 134.016 40.493 134.391 40.493C134.776 40.493 135.08 40.5993 135.303 40.812C135.535 41.0145 135.652 41.288 135.652 41.6323C135.652 41.9766 135.535 42.2551 135.303 42.4678C135.08 42.6704 134.776 42.7716 134.391 42.7716ZM134.391 49.1519C134.016 49.1519 133.713 49.0506 133.48 48.8481C133.247 48.6354 133.13 48.3569 133.13 48.0126C133.13 47.6682 133.247 47.3948 133.48 47.1923C133.713 46.9796 134.016 46.8732 134.391 46.8732C134.776 46.8732 135.08 46.9796 135.303 47.1923C135.535 47.3948 135.652 47.6682 135.652 48.0126C135.652 48.3569 135.535 48.6354 135.303 48.8481C135.08 49.0506 134.776 49.1519 134.391 49.1519Z" fill="#CBD5E0"/>
<path d="M151.925 50.671V36.3914H153.292V50.671H151.925Z" fill="#4A5568"/>
<path d="M171.066 9.26599H382.199C385.272 9.26599 387.763 11.7569 387.763 14.8295V125.462C387.763 128.535 385.272 131.026 382.199 131.026H171.066C167.994 131.026 165.503 128.535 165.503 125.462V14.8295C165.503 11.7569 167.994 9.26599 171.066 9.26599Z" fill="#F9FAFB" stroke="#4A5568" stroke-width="1.01153"/>
<path opacity="0.82" d="M164.997 14.8289C164.997 11.4766 167.714 8.75964 171.066 8.75964H382.2C385.552 8.75964 388.269 11.4766 388.269 14.8289V33.7304H164.997V14.8289Z" fill="#4A5568"/>
<path d="M186.53 23.685V18.2895C186.53 18.0538 186.467 17.8211 186.349 17.6168C186.231 17.4114 186.061 17.2415 185.856 17.1232L181.136 14.4254C180.93 14.307 180.698 14.2454 180.461 14.2454C180.224 14.2454 179.991 14.307 179.787 14.4254L175.066 17.1232C174.862 17.2415 174.691 17.4114 174.573 17.6168C174.454 17.8211 174.393 18.0538 174.392 18.2895V23.685C174.393 23.9217 174.454 24.1533 174.573 24.3587C174.691 24.563 174.862 24.7329 175.066 24.8513L179.787 27.549C179.991 27.6674 180.224 27.7291 180.461 27.7291C180.698 27.7291 180.93 27.6674 181.136 27.549L185.856 24.8513C186.061 24.7329 186.231 24.563 186.349 24.3587C186.467 24.1533 186.53 23.9217 186.53 23.685Z" stroke="#A3BFFA" stroke-width="1.5173" stroke-linecap="round" stroke-linejoin="round"/>
<path d="M174.574 17.5869L180.461 20.9927L186.348 17.5869" stroke="#A3BFFA" stroke-width="1.5173" stroke-linecap="round" stroke-linejoin="round"/>
<path d="M180.457 27.784V20.9865" stroke="#A3BFFA" stroke-width="1.5173" stroke-linecap="round" stroke-linejoin="round"/>
<path d="M197.608 26.0569C197.15 26.0569 196.765 25.9668 196.455 25.7878C196.149 25.6037 195.904 25.364 195.719 25.0686C195.53 24.7793 195.393 24.4526 195.309 24.0884C195.23 23.7202 195.19 23.349 195.19 22.9747V22.6429C195.19 22.2737 195.23 21.9076 195.309 21.5444C195.393 21.1803 195.53 20.8515 195.719 20.5561C195.91 20.2668 196.156 20.0322 196.462 19.8531C196.774 19.669 197.155 19.576 197.608 19.576C197.903 19.576 198.178 19.6266 198.43 19.7267C198.688 19.8268 198.91 19.9634 199.094 20.1374C199.278 20.3113 199.424 20.5137 199.529 20.7463C199.639 20.9729 199.697 21.2146 199.703 21.4726H201.086C201.086 21.0407 200.999 20.635 200.825 20.2557C200.651 19.8764 200.411 19.5477 200.105 19.2685C199.795 18.9943 199.426 18.7779 198.999 18.6201C198.578 18.4572 198.114 18.3753 197.608 18.3753C196.961 18.3753 196.394 18.4906 195.91 18.7232C195.424 18.9549 195.022 19.2654 194.7 19.6559C194.373 20.0504 194.128 20.5066 193.965 21.0224C193.802 21.5383 193.721 22.0785 193.721 22.6429V22.9747C193.721 23.5432 193.802 24.0864 193.965 24.6023C194.128 25.1131 194.373 25.5642 194.7 25.9537C195.022 26.3492 195.424 26.6628 195.91 26.8944C196.394 27.1261 196.961 27.2424 197.608 27.2424C198.061 27.2424 198.496 27.1655 198.912 27.0128C199.329 26.855 199.697 26.6435 200.019 26.3805C200.34 26.1226 200.595 25.8222 200.785 25.4793C200.98 25.1323 201.081 24.7682 201.086 24.3888H199.703C199.697 24.6265 199.634 24.8471 199.513 25.0524C199.396 25.2527 199.242 25.4267 199.046 25.5744C198.851 25.7271 198.628 25.8455 198.375 25.9304C198.127 26.0144 197.872 26.0569 197.608 26.0569ZM203.275 22.7299V22.9029C203.275 23.5199 203.364 24.0915 203.543 24.6185C203.723 25.1455 203.981 25.6037 204.318 25.9931C204.649 26.3836 205.055 26.6891 205.534 26.9096C206.019 27.1311 206.564 27.2424 207.17 27.2424C207.771 27.2424 208.311 27.1311 208.791 26.9096C209.27 26.6891 209.679 26.3836 210.015 25.9931C210.347 25.6037 210.603 25.1455 210.782 24.6185C210.961 24.0915 211.05 23.5199 211.05 22.9029V22.7299C211.05 22.1129 210.961 21.5414 210.782 21.0144C210.603 20.4823 210.347 20.021 210.015 19.6316C209.679 19.2421 209.267 18.9367 208.782 18.7152C208.303 18.4886 207.761 18.3753 207.155 18.3753C206.554 18.3753 206.014 18.4886 205.534 18.7152C205.055 18.9367 204.649 19.2421 204.318 19.6316C203.981 20.021 203.723 20.4823 203.543 21.0144C203.364 21.5414 203.275 22.1129 203.275 22.7299ZM204.736 22.9029V22.7299C204.736 22.3132 204.787 21.9156 204.887 21.5363C204.987 21.1519 205.14 20.8141 205.345 20.5248C205.546 20.2345 205.795 20.0059 206.096 19.8369C206.396 19.6629 206.749 19.576 207.155 19.576C207.56 19.576 207.914 19.6629 208.214 19.8369C208.519 20.0059 208.774 20.2345 208.98 20.5248C209.18 20.8141 209.331 21.1519 209.431 21.5363C209.536 21.9156 209.589 22.3132 209.589 22.7299V22.9029C209.589 23.3247 209.539 23.7283 209.439 24.1127C209.339 24.492 209.188 24.8258 208.988 25.1161C208.782 25.4054 208.528 25.6351 208.221 25.804C207.922 25.9719 207.571 26.0569 207.17 26.0569C206.764 26.0569 206.409 25.9719 206.104 25.804C205.798 25.6351 205.546 25.4054 205.345 25.1161C205.14 24.8258 204.987 24.492 204.887 24.1127C204.787 23.7283 204.736 23.3247 204.736 22.9029ZM213.405 27.0836H214.868V20.9517C214.968 20.7666 215.083 20.5986 215.216 20.4459C215.352 20.2932 215.5 20.1586 215.658 20.0423C215.853 19.9108 216.066 19.8086 216.298 19.7348C216.53 19.6559 216.78 19.6154 217.049 19.6154C217.359 19.6154 217.633 19.6529 217.871 19.7267C218.113 19.8005 218.318 19.9189 218.487 20.0817C218.65 20.2456 218.774 20.459 218.858 20.722C218.942 20.986 218.985 21.3067 218.985 21.686V27.0836H220.446V21.6547C220.446 21.0862 220.376 20.5956 220.233 20.1849C220.096 19.7681 219.899 19.4263 219.641 19.1572C219.382 18.8891 219.069 18.6909 218.701 18.5644C218.336 18.438 217.931 18.3753 217.484 18.3753C217.152 18.3803 216.835 18.4309 216.535 18.525C216.24 18.615 215.966 18.7435 215.713 18.9124C215.545 19.0237 215.384 19.1552 215.231 19.3079C215.083 19.4556 214.947 19.6184 214.82 19.7975L214.717 18.5331H213.405V27.0836ZM226.587 16.4625H225.118V18.5331H222.873V19.663H225.118V24.3099C225.118 24.8369 225.185 25.2871 225.323 25.6613C225.465 26.0306 225.657 26.33 225.9 26.5626C226.142 26.7993 226.427 26.9733 226.753 27.0836C227.085 27.1888 227.44 27.2424 227.819 27.2424C228.046 27.2424 228.273 27.2313 228.499 27.21C228.731 27.1888 228.95 27.1574 229.156 27.1159C229.361 27.0785 229.55 27.034 229.724 26.9814C229.898 26.9228 230.046 26.857 230.167 26.7831L229.962 25.7483C229.872 25.7696 229.757 25.7959 229.614 25.8272C229.476 25.8535 229.33 25.8798 229.171 25.9061C229.008 25.9324 228.842 25.9567 228.673 25.978C228.505 25.9931 228.341 26.0012 228.184 26.0012C227.967 26.0012 227.762 25.9749 227.567 25.9223C227.377 25.8697 227.209 25.7777 227.061 25.6452C226.914 25.5187 226.798 25.3478 226.714 25.1323C226.629 24.9159 226.587 24.6417 226.587 24.3099V19.663H229.843V18.5331H226.587V16.4625ZM238.465 27.0836H239.99V26.9571C239.895 26.7204 239.821 26.4433 239.769 26.1277C239.716 25.806 239.69 25.5036 239.69 25.2193V21.244C239.69 20.7645 239.603 20.3458 239.429 19.9877C239.255 19.6286 239.018 19.3291 238.718 19.0864C238.412 18.8497 238.051 18.6727 237.635 18.5574C237.219 18.436 236.769 18.3753 236.284 18.3753C235.752 18.3753 235.275 18.4491 234.854 18.5968C234.437 18.7435 234.084 18.9367 233.795 19.1734C233.499 19.4161 233.273 19.6872 233.115 19.9877C232.962 20.2881 232.883 20.5936 232.877 20.9041H234.348C234.348 20.7251 234.389 20.5541 234.474 20.3902C234.563 20.2213 234.688 20.0767 234.846 19.9553C235.003 19.8349 235.196 19.7368 235.422 19.663C235.654 19.5891 235.915 19.5527 236.205 19.5527C236.516 19.5527 236.795 19.5921 237.043 19.671C237.296 19.7499 237.509 19.8612 237.682 20.0028C237.856 20.1505 237.99 20.3275 238.086 20.5329C238.181 20.7382 238.228 20.9699 238.228 21.2278V21.8995H236.631C236.036 21.8995 235.496 21.9581 235.011 22.0734C234.532 22.1898 234.121 22.3638 233.778 22.5954C233.437 22.8321 233.171 23.1275 232.98 23.4805C232.796 23.8335 232.704 24.2442 232.704 24.7136C232.704 25.0716 232.772 25.4054 232.91 25.717C233.051 26.0225 233.251 26.2855 233.509 26.507C233.762 26.7336 234.071 26.9126 234.435 27.0441C234.803 27.1756 235.214 27.2424 235.667 27.2424C235.946 27.2424 236.21 27.2131 236.458 27.1554C236.705 27.0967 236.939 27.0178 237.161 26.9177C237.376 26.8175 237.575 26.7022 237.754 26.5697C237.938 26.4382 238.104 26.2986 238.251 26.1509C238.268 26.33 238.291 26.504 238.322 26.6729C238.36 26.8357 238.407 26.9733 238.465 27.0836ZM235.88 25.9699C235.596 25.9699 235.346 25.9324 235.13 25.8586C234.913 25.7848 234.734 25.6826 234.593 25.5511C234.45 25.4247 234.342 25.2719 234.268 25.0929C234.2 24.9128 234.166 24.7186 234.166 24.5072C234.166 24.2867 234.205 24.0884 234.284 23.9144C234.368 23.7415 234.49 23.5907 234.647 23.4643C234.869 23.2853 235.166 23.1538 235.541 23.0698C235.92 22.9798 236.363 22.9353 236.869 22.9353H238.228V24.666C238.143 24.8339 238.028 24.9978 237.88 25.1556C237.733 25.3083 237.559 25.4449 237.358 25.5663C237.153 25.6876 236.926 25.7848 236.679 25.8586C236.431 25.9324 236.165 25.9699 235.88 25.9699ZM242.795 18.5331V19.8056H245.703V25.8191H242.795V27.0836H249.955V25.8191H247.165V18.5331H242.795ZM245.514 16.2885C245.514 16.5262 245.585 16.7234 245.728 16.8812C245.874 17.04 246.096 17.119 246.391 17.119C246.681 17.119 246.899 17.04 247.047 16.8812C247.194 16.7234 247.268 16.5262 247.268 16.2885C247.268 16.157 247.247 16.0356 247.206 15.9253C247.163 15.8151 247.099 15.722 247.015 15.6492C246.947 15.5804 246.86 15.5278 246.754 15.4904C246.649 15.4489 246.528 15.4277 246.391 15.4277C246.254 15.4277 246.13 15.4489 246.02 15.4904C245.914 15.5278 245.828 15.5804 245.759 15.6492C245.674 15.7281 245.611 15.8222 245.569 15.9334C245.532 16.0437 245.514 16.162 245.514 16.2885ZM252.286 27.0836H253.748V20.9517C253.848 20.7666 253.965 20.5986 254.096 20.4459C254.233 20.2932 254.38 20.1586 254.539 20.0423C254.733 19.9108 254.947 19.8086 255.178 19.7348C255.41 19.6559 255.661 19.6154 255.93 19.6154C256.241 19.6154 256.515 19.6529 256.751 19.7267C256.994 19.8005 257.199 19.9189 257.367 20.0817C257.531 20.2456 257.655 20.459 257.74 20.722C257.824 20.986 257.866 21.3067 257.866 21.686V27.0836H259.328V21.6547C259.328 21.0862 259.257 20.5956 259.114 20.1849C258.978 19.7681 258.779 19.4263 258.522 19.1572C258.264 18.8891 257.95 18.6909 257.581 18.5644C257.218 18.438 256.812 18.3753 256.364 18.3753C256.032 18.3803 255.717 18.4309 255.416 18.525C255.121 18.615 254.847 18.7435 254.594 18.9124C254.426 19.0237 254.265 19.1552 254.112 19.3079C253.965 19.4556 253.827 19.6184 253.701 19.7975L253.598 18.5331H252.286V27.0836ZM267.689 24.8157C267.689 24.9523 267.662 25.0817 267.609 25.2031C267.557 25.3245 267.481 25.4348 267.381 25.5349C267.217 25.6978 266.99 25.8273 266.701 25.9223C266.411 26.0114 266.072 26.0569 265.681 26.0569C265.433 26.0569 265.184 26.0306 264.931 25.978C264.678 25.9244 264.448 25.8353 264.243 25.7089C264.032 25.5824 263.855 25.4166 263.714 25.2112C263.576 25.0059 263.497 24.753 263.476 24.4526H262.014C262.014 24.8157 262.096 25.1657 262.259 25.5036C262.428 25.8404 262.671 26.1358 262.986 26.3887C263.297 26.6466 263.679 26.855 264.133 27.0128C264.586 27.1655 265.102 27.2424 265.681 27.2424C266.187 27.2424 266.653 27.1817 267.08 27.0603C267.507 26.9389 267.873 26.768 268.179 26.5464C268.484 26.3249 268.721 26.0589 268.89 25.7483C269.064 25.4378 269.151 25.0929 269.151 24.7136C269.151 24.3605 269.074 24.049 268.921 23.7809C268.773 23.5119 268.558 23.2752 268.274 23.0698C267.989 22.8695 267.639 22.6976 267.223 22.556C266.806 22.4083 266.335 22.2788 265.808 22.1685C265.407 22.0896 265.075 22.0077 264.812 21.9237C264.554 21.8388 264.348 21.7447 264.195 21.6385C264.037 21.5333 263.927 21.4149 263.863 21.2834C263.801 21.1519 263.769 21.0012 263.769 20.8333C263.769 20.6694 263.809 20.5116 263.888 20.3589C263.967 20.2062 264.085 20.0716 264.243 19.9553C264.396 19.84 264.588 19.7479 264.82 19.6791C265.057 19.6103 265.331 19.576 265.642 19.576C265.942 19.576 266.211 19.6184 266.448 19.7024C266.691 19.7874 266.896 19.8976 267.064 20.0352C267.233 20.1718 267.364 20.3295 267.459 20.5086C267.555 20.6826 267.602 20.8616 267.602 21.0467H269.064C269.064 20.6725 268.982 20.3245 268.819 20.0028C268.66 19.6761 268.434 19.3919 268.139 19.1501C267.844 18.9073 267.486 18.7172 267.064 18.5806C266.643 18.444 266.169 18.3753 265.642 18.3753C265.152 18.3753 264.701 18.441 264.29 18.5725C263.885 18.704 263.535 18.8831 263.239 19.1096C262.944 19.3362 262.715 19.6023 262.552 19.9088C262.389 20.2082 262.307 20.5329 262.307 20.8798C262.307 21.2329 262.386 21.5444 262.544 21.8125C262.702 22.0765 262.926 22.3051 263.216 22.5003C263.5 22.7006 263.842 22.8716 264.243 23.0142C264.648 23.1558 265.097 23.2772 265.586 23.3773C265.987 23.4562 266.322 23.5463 266.591 23.6464C266.859 23.7415 267.075 23.8467 267.238 23.962C267.402 24.0783 267.517 24.2078 267.586 24.3494C267.655 24.487 267.689 24.6417 267.689 24.8157Z" fill="#CBD5E0"/>
<path d="M186.53 45.938V40.5425C186.53 40.3068 186.467 40.0741 186.349 39.8698C186.231 39.6644 186.061 39.4945 185.856 39.3762L181.136 36.6784C180.93 36.56 180.698 36.4984 180.461 36.4984C180.224 36.4984 179.991 36.56 179.787 36.6784L175.066 39.3762C174.862 39.4945 174.691 39.6644 174.573 39.8698C174.454 40.0741 174.393 40.3068 174.392 40.5425V45.938C174.393 46.1747 174.454 46.4063 174.573 46.6117C174.691 46.816 174.862 46.9859 175.066 47.1043L179.787 49.802C179.991 49.9204 180.224 49.9821 180.461 49.9821C180.698 49.9821 180.93 49.9204 181.136 49.802L185.856 47.1043C186.061 46.9859 186.231 46.816 186.349 46.6117C186.467 46.4063 186.53 46.1747 186.53 45.938Z" stroke="#5A67D8" stroke-width="1.5173" stroke-linecap="round" stroke-linejoin="round"/>
<path d="M174.574 39.8411L180.461 43.2469L186.348 39.8411" stroke="#5A67D8" stroke-width="1.5173" stroke-linecap="round" stroke-linejoin="round"/>
<path d="M180.457 50.0382V43.2407" stroke="#5A67D8" stroke-width="1.5173" stroke-linecap="round" stroke-linejoin="round"/>
<path d="M197.748 49.4956C198.58 49.4956 199.278 49.3287 199.842 48.9969C200.411 48.6601 200.838 48.2757 201.122 47.8438L200.229 47.1478C199.961 47.4958 199.623 47.775 199.217 47.9854C198.812 48.1968 198.349 48.302 197.827 48.302C197.432 48.302 197.071 48.2281 196.744 48.0805C196.418 47.9328 196.138 47.7305 195.907 47.4725C195.68 47.2298 195.501 46.9506 195.37 46.634C195.243 46.3184 195.161 45.9522 195.124 45.5354V45.4808H201.232V44.8243C201.232 44.2295 201.157 43.6763 201.004 43.1654C200.856 42.6536 200.63 42.2085 200.324 41.8292C200.019 41.4559 199.634 41.1636 199.17 40.9522C198.712 40.7367 198.175 40.6285 197.559 40.6285C197.068 40.6285 196.588 40.7286 196.12 40.9289C195.656 41.1292 195.243 41.4165 194.879 41.7897C194.511 42.169 194.215 42.6333 193.994 43.1806C193.772 43.7238 193.662 44.3398 193.662 45.0297V45.3625C193.662 45.9573 193.762 46.5075 193.963 47.0133C194.163 47.5191 194.442 47.957 194.8 48.3252C195.158 48.6945 195.588 48.9818 196.088 49.1871C196.594 49.3924 197.147 49.4956 197.748 49.4956ZM197.559 41.8292C197.932 41.8292 198.253 41.898 198.523 42.0355C198.797 42.1721 199.022 42.3511 199.202 42.5727C199.381 42.7942 199.521 43.0572 199.621 43.3627C199.721 43.6631 199.771 43.9453 199.771 44.2083V44.2791H195.171C195.229 43.8846 195.329 43.5366 195.472 43.2362C195.619 42.9307 195.798 42.6728 196.009 42.4614C196.22 42.256 196.457 42.1013 196.72 41.9951C196.984 41.8848 197.263 41.8292 197.559 41.8292ZM203.69 49.3368H205.152V43.2049C205.252 43.0198 205.369 42.8519 205.5 42.6991C205.638 42.5464 205.784 42.4118 205.943 42.2955C206.137 42.164 206.351 42.0618 206.582 41.988C206.815 41.9091 207.065 41.8686 207.334 41.8686C207.645 41.8686 207.919 41.9061 208.155 41.9799C208.398 42.0538 208.603 42.1721 208.772 42.3349C208.935 42.4988 209.059 42.7122 209.144 42.9752C209.228 43.2392 209.27 43.5599 209.27 43.9392V49.3368H210.732V43.9079C210.732 43.3394 210.661 42.8488 210.518 42.4381C210.382 42.0214 210.183 41.6795 209.926 41.4104C209.668 41.1423 209.354 40.9441 208.985 40.8176C208.622 40.6912 208.216 40.6285 207.768 40.6285C207.436 40.6335 207.121 40.6841 206.82 40.7782C206.525 40.8682 206.251 40.9967 205.998 41.1656C205.83 41.2769 205.669 41.4084 205.516 41.5611C205.369 41.7088 205.232 41.8717 205.106 42.0507L205.002 40.7863H203.69V49.3368ZM213.134 44.9902V45.1561C213.134 45.7681 213.216 46.3396 213.379 46.8717C213.543 47.3987 213.771 47.8569 214.067 48.2463C214.362 48.6368 214.717 48.9423 215.134 49.1628C215.555 49.3843 216.024 49.4956 216.54 49.4956C217.067 49.4956 217.528 49.4056 217.923 49.2265C218.318 49.0475 218.658 48.7835 218.942 48.4365L219.006 49.3368H220.349V37.1984H218.888V41.6319C218.608 41.3052 218.276 41.0574 217.891 40.8895C217.512 40.7155 217.067 40.6285 216.556 40.6285C216.034 40.6285 215.563 40.7367 215.141 40.9522C214.72 41.1686 214.362 41.4691 214.067 41.8535C213.766 42.2379 213.535 42.6991 213.371 43.2362C213.213 43.7683 213.134 44.353 213.134 44.9902ZM214.596 45.1561V44.9902C214.596 44.5745 214.641 44.179 214.73 43.8057C214.82 43.4264 214.96 43.0916 215.149 42.8013C215.333 42.517 215.571 42.2904 215.86 42.1215C216.156 41.9536 216.509 41.8686 216.919 41.8686C217.399 41.8686 217.799 41.9819 218.121 42.2085C218.442 42.43 218.698 42.7143 218.888 43.0622V47.0295C218.698 47.4037 218.442 47.7012 218.121 47.9227C217.799 48.1442 217.394 48.2544 216.904 48.2544C216.498 48.2544 216.151 48.1725 215.86 48.0097C215.571 47.8407 215.333 47.6141 215.149 47.3299C214.96 47.0456 214.82 46.7159 214.73 46.3416C214.641 45.9684 214.596 45.5729 214.596 45.1561ZM228.813 47.0689C228.813 47.2055 228.787 47.3349 228.734 47.4563C228.681 47.5777 228.605 47.688 228.504 47.7881C228.342 47.951 228.115 48.0805 227.825 48.1756C227.535 48.2646 227.195 48.3101 226.806 48.3101C226.558 48.3101 226.307 48.2838 226.054 48.2312C225.802 48.1776 225.573 48.0885 225.368 47.9621C225.156 47.8357 224.98 47.6698 224.838 47.4644C224.701 47.2591 224.622 47.0062 224.601 46.7058H223.139C223.139 47.0689 223.22 47.4189 223.384 47.7568C223.552 48.0936 223.795 48.389 224.111 48.6419C224.422 48.8998 224.803 49.1082 225.256 49.266C225.71 49.4187 226.226 49.4956 226.806 49.4956C227.312 49.4956 227.778 49.4349 228.204 49.3135C228.631 49.1922 228.997 49.0212 229.302 48.7997C229.608 48.5781 229.846 48.3121 230.015 48.0015C230.188 47.691 230.275 47.3461 230.275 46.9668C230.275 46.6137 230.199 46.3022 230.046 46.0341C229.898 45.7651 229.682 45.5284 229.398 45.323C229.113 45.1227 228.763 44.9508 228.347 44.8092C227.931 44.6615 227.458 44.532 226.932 44.4217C226.532 44.3428 226.2 44.2609 225.936 44.177C225.678 44.092 225.473 43.9979 225.32 43.8917C225.162 43.7865 225.051 43.6681 224.988 43.5366C224.925 43.4051 224.893 43.2544 224.893 43.0865C224.893 42.9227 224.933 42.7649 225.012 42.6121C225.09 42.4594 225.21 42.3248 225.368 42.2085C225.52 42.0932 225.713 42.0011 225.944 41.9323C226.181 41.8636 226.455 41.8292 226.767 41.8292C227.066 41.8292 227.335 41.8717 227.572 41.9556C227.815 42.0406 228.02 42.1509 228.189 42.2884C228.357 42.425 228.489 42.5828 228.583 42.7618C228.678 42.9358 228.726 43.1148 228.726 43.3H230.188C230.188 42.9257 230.107 42.5777 229.943 42.256C229.785 41.9293 229.558 41.6451 229.263 41.4033C228.969 41.1606 228.61 40.9704 228.189 40.8338C227.767 40.6973 227.293 40.6285 226.767 40.6285C226.276 40.6285 225.826 40.6942 225.415 40.8257C225.01 40.9572 224.659 41.1363 224.364 41.3629C224.069 41.5894 223.839 41.8555 223.676 42.162C223.512 42.4614 223.432 42.7861 223.432 43.133C223.432 43.4861 223.51 43.7976 223.668 44.0657C223.826 44.3297 224.051 44.5583 224.34 44.7535C224.624 44.9538 224.967 45.1248 225.368 45.2674C225.773 45.409 226.221 45.5304 226.711 45.6305C227.111 45.7094 227.445 45.7995 227.714 45.8996C227.983 45.9947 228.199 46.0999 228.363 46.2152C228.526 46.3315 228.642 46.461 228.71 46.6026C228.779 46.7402 228.813 46.8949 228.813 47.0689ZM233.452 49.3368H234.953L236.36 41.1575L236.447 40.6679L236.526 41.1504L237.925 49.3368H239.418L240.817 37.8306H239.434L238.605 45.7489L238.557 46.2233L238.47 45.757L237.071 37.8306H235.799L234.408 45.7489L234.321 46.2233L234.273 45.765L233.444 37.8306H232.053L233.452 49.3368ZM242.8 40.7863V42.0588H245.709V48.0724H242.8V49.3368H249.96V48.0724H247.17V40.7863H242.8ZM245.519 38.5417C245.519 38.7794 245.59 38.9766 245.733 39.1344C245.88 39.2933 246.101 39.3722 246.396 39.3722C246.686 39.3722 246.904 39.2933 247.052 39.1344C247.2 38.9766 247.273 38.7794 247.273 38.5417C247.273 38.4102 247.252 38.2888 247.211 38.1785C247.168 38.0683 247.104 37.9752 247.021 37.9024C246.952 37.8336 246.865 37.781 246.76 37.7436C246.654 37.7021 246.533 37.6809 246.396 37.6809C246.259 37.6809 246.135 37.7021 246.025 37.7436C245.919 37.781 245.833 37.8336 245.764 37.9024C245.679 37.9813 245.616 38.0754 245.574 38.1867C245.538 38.2969 245.519 38.4152 245.519 38.5417ZM255.753 38.7157H254.283V40.7863H252.039V41.9162H254.283V46.5631C254.283 47.0902 254.351 47.5403 254.489 47.9146C254.63 48.2838 254.823 48.5832 255.065 48.8159C255.308 49.0526 255.592 49.2265 255.919 49.3368C256.251 49.442 256.607 49.4956 256.986 49.4956C257.213 49.4956 257.438 49.4845 257.665 49.4632C257.898 49.442 258.116 49.4106 258.321 49.3692C258.527 49.3317 258.717 49.2872 258.89 49.2346C259.064 49.176 259.212 49.1102 259.333 49.0364L259.128 48.0015C259.038 48.0228 258.922 48.0491 258.78 48.0805C258.643 48.1068 258.495 48.1331 258.338 48.1594C258.174 48.1857 258.008 48.2099 257.839 48.2312C257.671 48.2464 257.507 48.2544 257.349 48.2544C257.133 48.2544 256.927 48.2282 256.733 48.1756C256.543 48.123 256.374 48.0309 256.227 47.8984C256.08 47.7719 255.963 47.601 255.88 47.3855C255.795 47.1691 255.753 46.8949 255.753 46.5631V41.9162H259.009V40.7863H255.753V38.7157ZM263.474 42.0588V37.1984H262.011V49.3368H263.474V43.126C263.579 42.957 263.698 42.8043 263.829 42.6677C263.967 42.5251 264.113 42.4007 264.272 42.2955C264.473 42.1589 264.691 42.0538 264.928 41.9799C265.165 41.9061 265.415 41.8686 265.678 41.8686C266 41.8636 266.284 41.9091 266.532 42.0032C266.78 42.0932 266.985 42.2298 267.148 42.4149C267.301 42.5828 267.417 42.7962 267.496 43.0541C267.575 43.307 267.614 43.6024 267.614 43.9392V49.3368H269.077V43.9554C269.077 43.3809 269.005 42.8862 268.864 42.4695C268.726 42.0487 268.529 41.7007 268.271 41.4266C268.013 41.1524 267.699 40.9522 267.33 40.8257C266.967 40.6942 266.561 40.6285 266.113 40.6285C265.77 40.6335 265.447 40.6841 265.141 40.7782C264.841 40.8733 264.565 41.0129 264.312 41.197C264.154 41.3082 264.003 41.4367 263.861 41.5844C263.719 41.727 263.589 41.8848 263.474 42.0588Z" fill="#CBD5E0"/>
<path d="M186.53 68.1923V62.7967C186.53 62.561 186.467 62.3284 186.349 62.124C186.231 61.9187 186.061 61.7488 185.856 61.6304L181.136 58.9327C180.93 58.8143 180.698 58.7526 180.461 58.7526C180.224 58.7526 179.991 58.8143 179.787 58.9327L175.066 61.6304C174.862 61.7488 174.691 61.9187 174.573 62.124C174.454 62.3284 174.393 62.561 174.392 62.7967V68.1923C174.393 68.429 174.454 68.6606 174.573 68.8659C174.691 69.0703 174.862 69.2402 175.066 69.3586L179.787 72.0563C179.991 72.1747 180.224 72.2364 180.461 72.2364C180.698 72.2364 180.93 72.1747 181.136 72.0563L185.856 69.3586C186.061 69.2402 186.231 69.0703 186.349 68.8659C186.467 68.6606 186.53 68.429 186.53 68.1923Z" stroke="#5A67D8" stroke-width="1.5173" stroke-linecap="round" stroke-linejoin="round"/>
<path d="M174.574 62.0941L180.461 65.5L186.348 62.0941" stroke="#5A67D8" stroke-width="1.5173" stroke-linecap="round" stroke-linejoin="round"/>
<path d="M180.457 72.2918V65.4943" stroke="#5A67D8" stroke-width="1.5173" stroke-linecap="round" stroke-linejoin="round"/>
<path d="M197.748 71.7498C198.58 71.7498 199.278 71.5828 199.842 71.2511C200.411 70.9142 200.838 70.5299 201.122 70.0979L200.229 69.402C199.961 69.7499 199.623 70.0291 199.217 70.2395C198.812 70.4509 198.349 70.5562 197.827 70.5562C197.432 70.5562 197.071 70.4823 196.744 70.3346C196.418 70.1869 196.138 69.9846 195.907 69.7267C195.68 69.4839 195.501 69.2047 195.37 68.8881C195.243 68.5725 195.161 68.2063 195.124 67.7896V67.735H201.232V67.0785C201.232 66.4837 201.157 65.9304 201.004 65.4196C200.856 64.9077 200.63 64.4626 200.324 64.0833C200.019 63.7101 199.634 63.4177 199.17 63.2063C198.712 62.9909 198.175 62.8826 197.559 62.8826C197.068 62.8826 196.588 62.9828 196.12 63.1831C195.656 63.3834 195.243 63.6706 194.879 64.0439C194.511 64.4232 194.215 64.8875 193.994 65.4347C193.772 65.9779 193.662 66.594 193.662 67.2838V67.6166C193.662 68.2114 193.762 68.7617 193.963 69.2674C194.163 69.7732 194.442 70.2112 194.8 70.5794C195.158 70.9486 195.588 71.2359 196.088 71.4412C196.594 71.6466 197.147 71.7498 197.748 71.7498ZM197.559 64.0833C197.932 64.0833 198.253 64.1521 198.523 64.2897C198.797 64.4262 199.022 64.6053 199.202 64.8268C199.381 65.0483 199.521 65.3113 199.621 65.6168C199.721 65.9172 199.771 66.1994 199.771 66.4624V66.5333H195.171C195.229 66.1388 195.329 65.7908 195.472 65.4904C195.619 65.1849 195.798 64.9269 196.009 64.7155C196.22 64.5102 196.457 64.3554 196.72 64.2492C196.984 64.139 197.263 64.0833 197.559 64.0833ZM203.421 67.2444V67.4103C203.421 68.0222 203.498 68.5938 203.651 69.1258C203.809 69.6529 204.035 70.1111 204.331 70.5005C204.626 70.8909 204.984 71.1964 205.405 71.417C205.832 71.6385 206.316 71.7498 206.86 71.7498C207.139 71.7498 207.4 71.7224 207.641 71.6698C207.884 71.6172 208.108 71.5414 208.313 71.4412C208.477 71.3674 208.627 71.2774 208.764 71.1722C208.906 71.067 209.04 70.9486 209.167 70.8171V74.8784H210.629V63.0404H209.285L209.223 63.8861C209.111 63.7596 208.993 63.6433 208.866 63.5381C208.74 63.4329 208.605 63.3408 208.464 63.2619C208.242 63.1355 207.998 63.0404 207.729 62.9777C207.466 62.914 207.181 62.8826 206.876 62.8826C206.328 62.8826 205.837 62.9909 205.405 63.2063C204.979 63.4228 204.618 63.7232 204.323 64.1076C204.027 64.492 203.804 64.9532 203.651 65.4904C203.498 66.0224 203.421 66.6071 203.421 67.2444ZM204.884 67.4103V67.2444C204.884 66.8286 204.929 66.4311 205.019 66.0518C205.113 65.6725 205.258 65.3346 205.453 65.0403C205.643 64.7499 205.884 64.5183 206.18 64.3443C206.475 64.1703 206.825 64.0833 207.231 64.0833C207.457 64.0833 207.666 64.1127 207.855 64.1703C208.05 64.2229 208.229 64.2998 208.393 64.3999C208.551 64.5001 208.692 64.6184 208.819 64.755C208.951 64.8875 209.067 65.0342 209.167 65.198V69.4182C209.062 69.5922 208.943 69.753 208.812 69.8996C208.679 70.0423 208.53 70.1637 208.361 70.2638C208.203 70.3528 208.029 70.4247 207.84 70.4773C207.65 70.5299 207.441 70.5562 207.215 70.5562C206.809 70.5562 206.459 70.4712 206.164 70.3033C205.874 70.1293 205.635 69.8976 205.444 69.6073C205.255 69.318 205.113 68.9832 205.019 68.6039C204.929 68.2245 204.884 67.827 204.884 67.4103ZM219.046 71.5909H220.373V63.0404H218.903V69.1734C218.824 69.3575 218.724 69.5284 218.602 69.6862C218.487 69.839 218.35 69.9715 218.192 70.0817C218.003 70.2183 217.778 70.3265 217.52 70.4054C217.262 70.4793 216.97 70.5167 216.643 70.5167C216.364 70.5167 216.116 70.4793 215.9 70.4054C215.689 70.3316 215.51 70.2031 215.363 70.019C215.215 69.839 215.105 69.5972 215.031 69.2917C214.957 68.9863 214.921 68.6018 214.921 68.1376V63.0404H213.458V68.1224C213.458 68.7597 213.527 69.3069 213.663 69.7661C213.806 70.2183 214.006 70.5925 214.264 70.8879C214.522 71.1833 214.834 71.4018 215.197 71.5434C215.56 71.681 215.965 71.7498 216.414 71.7498C216.972 71.7498 217.465 71.6334 217.891 71.4018C218.318 71.1641 218.674 70.8353 218.959 70.4135L219.046 71.5909ZM228.75 71.5909H230.275V71.4645C230.18 71.2278 230.107 70.9506 230.054 70.635C230 70.3134 229.974 70.0109 229.974 69.7267V65.7514C229.974 65.2719 229.888 64.8531 229.714 64.495C229.54 64.1359 229.302 63.8365 229.003 63.5937C228.697 63.357 228.336 63.18 227.92 63.0647C227.504 62.9433 227.053 62.8826 226.568 62.8826C226.036 62.8826 225.56 62.9565 225.138 63.1042C224.722 63.2508 224.369 63.444 224.079 63.6807C223.785 63.9235 223.558 64.1946 223.399 64.495C223.246 64.7955 223.168 65.1009 223.162 65.4115H224.632C224.632 65.2324 224.675 65.0615 224.759 64.8976C224.849 64.7287 224.972 64.584 225.13 64.4626C225.289 64.3423 225.481 64.2442 225.707 64.1703C225.939 64.0965 226.2 64.06 226.489 64.06C226.8 64.06 227.079 64.0995 227.327 64.1784C227.58 64.2573 227.793 64.3686 227.967 64.5102C228.141 64.6579 228.276 64.8349 228.371 65.0403C228.465 65.2456 228.512 65.4772 228.512 65.7352V66.4068H226.916C226.32 66.4068 225.781 66.4655 225.296 66.5808C224.816 66.6971 224.406 66.8711 224.064 67.1028C223.721 67.3395 223.455 67.6348 223.266 67.9879C223.081 68.3409 222.988 68.7516 222.988 69.2209C222.988 69.579 223.057 69.9128 223.194 70.2244C223.336 70.5299 223.537 70.7928 223.795 71.0143C224.048 71.2409 224.356 71.42 224.719 71.5515C225.088 71.683 225.499 71.7498 225.952 71.7498C226.231 71.7498 226.494 71.7204 226.742 71.6628C226.99 71.6041 227.225 71.5252 227.445 71.425C227.662 71.3249 227.859 71.2096 228.038 71.0771C228.223 70.9456 228.389 70.806 228.537 70.6583C228.552 70.8373 228.576 71.0113 228.608 71.1802C228.644 71.3431 228.692 71.4807 228.75 71.5909ZM226.166 70.4773C225.881 70.4773 225.631 70.4398 225.415 70.366C225.199 70.2921 225.02 70.19 224.877 70.0585C224.735 69.932 224.627 69.7793 224.553 69.6002C224.485 69.4202 224.451 69.226 224.451 69.0146C224.451 68.794 224.491 68.5958 224.57 68.4218C224.653 68.2488 224.775 68.0981 224.933 67.9717C225.154 67.7926 225.452 67.6611 225.826 67.5772C226.205 67.4871 226.647 67.4426 227.153 67.4426H228.512V69.1734C228.429 69.3413 228.312 69.5051 228.165 69.6629C228.018 69.8157 227.844 69.9522 227.644 70.0736C227.438 70.195 227.212 70.2921 226.964 70.366C226.716 70.4398 226.45 70.4773 226.166 70.4773ZM233.081 59.4525V60.725H235.989V70.3265H233.081V71.5909H240.24V70.3265H237.45V59.4525H233.081ZM248.254 69.3231C248.254 69.4596 248.227 69.5891 248.175 69.7105C248.122 69.8319 248.045 69.9421 247.945 70.0423C247.782 70.2051 247.556 70.3346 247.265 70.4297C246.976 70.5187 246.636 70.5642 246.246 70.5642C245.999 70.5642 245.748 70.5379 245.495 70.4853C245.242 70.4317 245.014 70.3427 244.808 70.2162C244.597 70.0898 244.421 69.9239 244.278 69.7186C244.142 69.5133 244.063 69.2604 244.042 68.9599H242.579C242.579 69.3231 242.661 69.6731 242.825 70.0109C242.993 70.3478 243.235 70.6431 243.551 70.896C243.862 71.154 244.244 71.3623 244.697 71.5201C245.15 71.6729 245.666 71.7498 246.246 71.7498C246.751 71.7498 247.218 71.6891 247.645 71.5677C248.071 71.4463 248.438 71.2753 248.743 71.0538C249.049 70.8323 249.286 70.5662 249.454 70.2557C249.628 69.9452 249.715 69.6002 249.715 69.2209C249.715 68.8679 249.639 68.5563 249.487 68.2883C249.339 68.0192 249.122 67.7825 248.838 67.5772C248.554 67.3769 248.203 67.2049 247.787 67.0633C247.371 66.9156 246.899 66.7861 246.372 66.6759C245.973 66.597 245.64 66.5151 245.377 66.4311C245.119 66.3461 244.913 66.2521 244.761 66.1458C244.602 66.0406 244.492 65.9223 244.429 65.7908C244.365 65.6593 244.334 65.5086 244.334 65.3407C244.334 65.1768 244.373 65.019 244.452 64.8663C244.531 64.7135 244.649 64.579 244.808 64.4626C244.961 64.3473 245.153 64.2553 245.385 64.1865C245.622 64.1177 245.896 64.0833 246.206 64.0833C246.507 64.0833 246.776 64.1258 247.012 64.2098C247.255 64.2947 247.461 64.405 247.629 64.5426C247.797 64.6791 247.929 64.8369 248.024 65.016C248.119 65.1899 248.167 65.369 248.167 65.5541H249.628C249.628 65.1798 249.546 64.8319 249.383 64.5102C249.226 64.1835 248.999 63.8992 248.704 63.6575C248.408 63.4147 248.05 63.2245 247.629 63.088C247.208 62.9514 246.733 62.8826 246.206 62.8826C245.717 62.8826 245.267 62.9484 244.855 63.0799C244.449 63.2114 244.099 63.3904 243.804 63.617C243.509 63.8436 243.28 64.1096 243.117 64.4161C242.953 64.7155 242.871 65.0402 242.871 65.3872C242.871 65.7402 242.951 66.0518 243.109 66.3198C243.267 66.5838 243.49 66.8124 243.781 67.0077C244.065 67.2079 244.408 67.3789 244.808 67.5215C245.214 67.6632 245.661 67.7845 246.152 67.8847C246.551 67.9636 246.886 68.0536 247.155 68.1538C247.423 68.2488 247.64 68.354 247.802 68.4693C247.966 68.5857 248.082 68.7151 248.15 68.8568C248.219 68.9943 248.254 69.1491 248.254 69.3231Z" fill="#CBD5E0"/>
<rect width="502" height="80" fill="url(#paint0_linear_2833_3884)" fill-opacity="0.6"/>
<defs>
</defs>
</svg>
