<svg width="455" height="79" viewBox="0 0 455 79" fill="none" xmlns="http://www.w3.org/2000/svg">
<rect y="0.321777" width="444" height="99" rx="5.09683" fill="#F9FAFB"/>
<path d="M16.3731 26.3218V25.2769H18.8578V20.3585H16.6917V19.3136H20.0046V25.2769H22.3619V26.3218H16.3731ZM19.3038 18.0522C19.0235 18.0522 18.8026 17.98 18.6412 17.8356C18.4798 17.6911 18.3991 17.4958 18.3991 17.2494C18.3991 16.9946 18.4798 16.795 18.6412 16.6505C18.8026 16.4976 19.0235 16.4212 19.3038 16.4212C19.5841 16.4212 19.805 16.4976 19.9664 16.6505C20.1278 16.795 20.2085 16.9946 20.2085 17.2494C20.2085 17.4958 20.1278 17.6911 19.9664 17.8356C19.805 17.98 19.5841 18.0522 19.3038 18.0522ZM24.1026 26.3218V19.3136H25.2494V20.6516H25.4915L25.2494 20.9191C25.2494 20.367 25.415 19.9422 25.7463 19.6449C26.0776 19.3391 26.5363 19.1862 27.1224 19.1862C27.8275 19.1862 28.3882 19.4028 28.8044 19.8361C29.2206 20.2693 29.4288 20.8597 29.4288 21.6072V26.3218H28.282V21.7346C28.282 21.2334 28.1461 20.8512 27.8742 20.5878C27.6109 20.316 27.2499 20.1801 26.7912 20.1801C26.3154 20.1801 25.9374 20.3245 25.6571 20.6133C25.3853 20.9021 25.2494 21.3184 25.2494 21.8621V26.3218H24.1026ZM35.1577 26.3218C34.5546 26.3218 34.0831 26.1604 33.7433 25.8376C33.4121 25.5148 33.2464 25.0603 33.2464 24.4742V20.3585H31.2714V19.3136H33.2464V17.3386H34.3932V19.3136H37.1965V20.3585H34.3932V24.4742C34.3932 25.0093 34.648 25.2769 35.1577 25.2769H37.069V26.3218H35.1577ZM18.896 44.4237C18.4203 44.4237 18.0041 44.3515 17.6473 44.2071C17.299 44.0542 17.0187 43.8418 16.8063 43.57C16.6025 43.2982 16.4793 42.9754 16.4368 42.6016H17.5836C17.6346 42.8479 17.7705 43.0433 17.9914 43.1877C18.2207 43.3321 18.5223 43.4043 18.896 43.4043H19.4312C19.8814 43.4043 20.217 43.3152 20.4378 43.1368C20.6587 42.9499 20.7691 42.7035 20.7691 42.3977C20.7691 42.1004 20.6672 41.8668 20.4633 41.6969C20.2679 41.5185 19.9749 41.3996 19.5841 41.3401L18.6412 41.1872C17.9531 41.0683 17.4392 40.8559 17.0994 40.5501C16.7681 40.2358 16.6025 39.7814 16.6025 39.1867C16.6025 38.5581 16.8021 38.0739 17.2014 37.7341C17.6006 37.3858 18.1995 37.2117 18.998 37.2117H19.4822C20.1533 37.2117 20.6927 37.3689 21.1004 37.6832C21.5082 37.9975 21.7545 38.4222 21.8395 38.9574H20.6927C20.6417 38.7365 20.5143 38.5624 20.3104 38.4349C20.1065 38.299 19.8305 38.2311 19.4822 38.2311H18.998C18.5648 38.2311 18.2462 38.3118 18.0423 38.4732C17.8469 38.6346 17.7493 38.8767 17.7493 39.1995C17.7493 39.4883 17.8342 39.7007 18.0041 39.8366C18.174 39.9725 18.4416 40.0702 18.8069 40.1296L19.7498 40.2825C20.5058 40.4015 21.0537 40.6223 21.3935 40.9451C21.7418 41.2679 21.9159 41.7351 21.9159 42.3468C21.9159 42.9924 21.7078 43.502 21.2916 43.8758C20.8838 44.2411 20.2637 44.4237 19.4312 44.4237H18.896ZM27.5175 44.3218C26.9143 44.3218 26.4429 44.1604 26.1031 43.8376C25.7718 43.5148 25.6061 43.0603 25.6061 42.4742V38.3585H23.6311V37.3136H25.6061V35.3386H26.7529V37.3136H29.5562V38.3585H26.7529V42.4742C26.7529 43.0093 27.0078 43.2769 27.5175 43.2769H29.4288V44.3218H27.5175ZM31.9849 44.3218V37.3136H33.1062V38.6516H33.3738L33.0043 39.4798C33.0043 38.7238 33.1657 38.1546 33.4885 37.7724C33.8198 37.3816 34.3082 37.1862 34.9538 37.1862C35.6929 37.1862 36.279 37.4198 36.7123 37.887C37.154 38.3457 37.3748 38.9701 37.3748 39.7601V40.1806H36.2281V39.8621C36.2281 39.3099 36.0921 38.8894 35.8203 38.6006C35.557 38.3033 35.179 38.1546 34.6863 38.1546C34.2021 38.1546 33.8198 38.3033 33.5395 38.6006C33.2676 38.8979 33.1317 39.3184 33.1317 39.8621V44.3218H31.9849ZM39.2939 44.3218V43.2769H41.7786V38.3585H39.6125V37.3136H42.9254V43.2769H45.2827V44.3218H39.2939ZM42.2246 36.0522C41.9443 36.0522 41.7234 35.98 41.562 35.8356C41.4006 35.6911 41.3199 35.4958 41.3199 35.2494C41.3199 34.9946 41.4006 34.795 41.562 34.6505C41.7234 34.4976 41.9443 34.4212 42.2246 34.4212C42.5049 34.4212 42.7258 34.4976 42.8872 34.6505C43.0486 34.795 43.1293 34.9946 43.1293 35.2494C43.1293 35.4958 43.0486 35.6911 42.8872 35.8356C42.7258 35.98 42.5049 36.0522 42.2246 36.0522ZM47.0234 44.3218V37.3136H48.1702V38.6516H48.4123L48.1702 38.9191C48.1702 38.367 48.3358 37.9422 48.6671 37.6449C48.9984 37.3391 49.4571 37.1862 50.0432 37.1862C50.7483 37.1862 51.309 37.4028 51.7252 37.8361C52.1414 38.2693 52.3496 38.8597 52.3496 39.6072V44.3218H51.2028V39.7346C51.2028 39.2334 51.0669 38.8512 50.795 38.5878C50.5317 38.316 50.1707 38.1801 49.712 38.1801C49.2362 38.1801 48.8582 38.3245 48.5779 38.6133C48.3061 38.9021 48.1702 39.3184 48.1702 39.8621V44.3218H47.0234ZM55.5428 46.6154V45.5705H57.7727C58.1295 45.5705 58.3886 45.4898 58.55 45.3284C58.7199 45.167 58.8048 44.9164 58.8048 44.5766V43.6847L58.8303 42.4105H58.6009L58.8176 42.2193C58.8176 42.729 58.6477 43.1325 58.3079 43.4298C57.9681 43.7271 57.5136 43.8758 56.9445 43.8758C56.2224 43.8758 55.6533 43.6422 55.237 43.175C54.8208 42.6993 54.6127 42.0622 54.6127 41.2637V39.7856C54.6127 38.9871 54.8208 38.3542 55.237 37.887C55.6533 37.4198 56.2224 37.1862 56.9445 37.1862C57.5136 37.1862 57.9681 37.3349 58.3079 37.6322C58.6477 37.9295 58.8176 38.333 58.8176 38.8427L58.6009 38.6516H58.8176V37.3136H59.9516V44.5766C59.9516 45.2052 59.7562 45.7022 59.3655 46.0674C58.9832 46.4327 58.448 46.6154 57.76 46.6154H55.5428ZM57.2885 42.8819C57.7642 42.8819 58.138 42.7333 58.4098 42.436C58.6816 42.1386 58.8176 41.7266 58.8176 41.2V39.8621C58.8176 39.3354 58.6816 38.9234 58.4098 38.6261C58.138 38.3288 57.7642 38.1801 57.2885 38.1801C56.8043 38.1801 56.4263 38.3245 56.1545 38.6133C55.8911 38.9021 55.7595 39.3184 55.7595 39.8621V41.2C55.7595 41.7436 55.8911 42.1599 56.1545 42.4487C56.4263 42.7375 56.8043 42.8819 57.2885 42.8819ZM16.3731 62.3218V61.2769H18.8578V56.3585H16.6917V55.3136H20.0046V61.2769H22.3619V62.3218H16.3731ZM19.3038 54.0522C19.0235 54.0522 18.8026 53.98 18.6412 53.8356C18.4798 53.6911 18.3991 53.4958 18.3991 53.2494C18.3991 52.9946 18.4798 52.795 18.6412 52.6505C18.8026 52.4976 19.0235 52.4212 19.3038 52.4212C19.5841 52.4212 19.805 52.4976 19.9664 52.6505C20.1278 52.795 20.2085 52.9946 20.2085 53.2494C20.2085 53.4958 20.1278 53.6911 19.9664 53.8356C19.805 53.98 19.5841 54.0522 19.3038 54.0522ZM24.1026 62.3218V55.3136H25.2494V56.6516H25.4915L25.2494 56.9191C25.2494 56.367 25.415 55.9422 25.7463 55.6449C26.0776 55.3391 26.5363 55.1862 27.1224 55.1862C27.8275 55.1862 28.3882 55.4028 28.8044 55.8361C29.2206 56.2693 29.4288 56.8597 29.4288 57.6072V62.3218H28.282V57.7346C28.282 57.2334 28.1461 56.8512 27.8742 56.5878C27.6109 56.316 27.2499 56.1801 26.7912 56.1801C26.3154 56.1801 25.9374 56.3245 25.6571 56.6133C25.3853 56.9021 25.2494 57.3184 25.2494 57.8621V62.3218H24.1026ZM35.1577 62.3218C34.5546 62.3218 34.0831 62.1604 33.7433 61.8376C33.4121 61.5148 33.2464 61.0603 33.2464 60.4742V56.3585H31.2714V55.3136H33.2464V53.3386H34.3932V55.3136H37.1965V56.3585H34.3932V60.4742C34.3932 61.0093 34.648 61.2769 35.1577 61.2769H37.069V62.3218H35.1577Z" fill="#5A67D8"/>
<path d="M47.0234 26.3218V19.3136H48.1702V20.6516H48.4123L48.1702 20.9191C48.1702 20.367 48.3358 19.9422 48.6671 19.6449C48.9984 19.3391 49.4571 19.1862 50.0432 19.1862C50.7483 19.1862 51.309 19.4028 51.7252 19.8361C52.1414 20.2693 52.3496 20.8597 52.3496 21.6072V26.3218H51.2028V21.7346C51.2028 21.2334 51.0669 20.8512 50.795 20.5878C50.5317 20.316 50.1707 20.1801 49.712 20.1801C49.2362 20.1801 48.8582 20.3245 48.5779 20.6133C48.3061 20.9021 48.1702 21.3184 48.1702 21.8621V26.3218H47.0234ZM57.3013 26.4492C56.4943 26.4492 55.8487 26.2113 55.3645 25.7356C54.8803 25.2514 54.6382 24.5974 54.6382 23.7734V19.3136H55.7849V23.7734C55.7849 24.3 55.9209 24.712 56.1927 25.0093C56.4645 25.2982 56.834 25.4426 57.3013 25.4426C57.777 25.4426 58.1507 25.2982 58.4226 25.0093C58.7029 24.712 58.843 24.3 58.843 23.7734V19.3136H59.9898V23.7734C59.9898 24.5974 59.7435 25.2514 59.2508 25.7356C58.7581 26.2113 58.1082 26.4492 57.3013 26.4492ZM61.9726 26.3218V19.3136H62.9792V20.1546H63.2086L63.0302 20.4604C63.0302 20.0697 63.1321 19.7596 63.336 19.5303C63.5484 19.3009 63.833 19.1862 64.1897 19.1862C64.5805 19.1862 64.8821 19.3306 65.0944 19.6194C65.3068 19.9083 65.413 20.316 65.413 20.8427L65.0689 20.1546H65.6041L65.362 20.4604C65.362 20.0697 65.4682 19.7596 65.6806 19.5303C65.9014 19.3009 66.1902 19.1862 66.547 19.1862C66.9887 19.1862 67.3285 19.3519 67.5664 19.6832C67.8127 20.0145 67.9359 20.4519 67.9359 20.9956V26.3218H66.8783V20.9828C66.8783 20.694 66.8146 20.4689 66.6872 20.3075C66.5683 20.1461 66.3899 20.0654 66.152 20.0654C65.9227 20.0654 65.74 20.1461 65.6041 20.3075C65.4767 20.4604 65.413 20.6813 65.413 20.9701V26.3218H64.4955V20.9828C64.4955 20.6855 64.4276 20.4604 64.2917 20.3075C64.1643 20.1461 63.9816 20.0654 63.7438 20.0654C63.5059 20.0654 63.3275 20.1461 63.2086 20.3075C63.0897 20.4604 63.0302 20.6813 63.0302 20.9701V26.3218H61.9726ZM77.4952 21.0975V20.0782H82.9743V21.0975H77.4952ZM77.4952 24.1556V23.1363H82.9743V24.1556H77.4952ZM101.499 28.3605L102.518 24.3977H104.175L102.518 28.3605H101.499ZM103.028 21.0975C102.748 21.0975 102.518 21.0083 102.34 20.8299C102.162 20.6516 102.073 20.4222 102.073 20.1419C102.073 19.87 102.162 19.6449 102.34 19.4665C102.527 19.2797 102.756 19.1862 103.028 19.1862H103.283C103.555 19.1862 103.78 19.2797 103.958 19.4665C104.145 19.6449 104.239 19.87 104.239 20.1419C104.239 20.4222 104.149 20.6516 103.971 20.8299C103.793 21.0083 103.563 21.0975 103.283 21.0975H103.028ZM72.3779 44.4237C71.9022 44.4237 71.486 44.3515 71.1292 44.2071C70.7809 44.0542 70.5006 43.8418 70.2882 43.57C70.0843 43.2982 69.9612 42.9754 69.9187 42.6016H71.0655C71.1164 42.8479 71.2524 43.0433 71.4732 43.1877C71.7026 43.3321 72.0041 43.4043 72.3779 43.4043H72.9131C73.3633 43.4043 73.6988 43.3152 73.9197 43.1368C74.1406 42.9499 74.251 42.7035 74.251 42.3977C74.251 42.1004 74.1491 41.8668 73.9452 41.6969C73.7498 41.5185 73.4567 41.3996 73.066 41.3401L72.1231 41.1872C71.435 41.0683 70.9211 40.8559 70.5813 40.5501C70.25 40.2358 70.0843 39.7814 70.0843 39.1867C70.0843 38.5581 70.284 38.0739 70.6832 37.7341C71.0825 37.3858 71.6813 37.2117 72.4798 37.2117H72.964C73.6351 37.2117 74.1745 37.3689 74.5823 37.6832C74.99 37.9975 75.2364 38.4222 75.3213 38.9574H74.1745C74.1236 38.7365 73.9962 38.5624 73.7923 38.4349C73.5884 38.299 73.3123 38.2311 72.964 38.2311H72.4798C72.0466 38.2311 71.7281 38.3118 71.5242 38.4732C71.3288 38.6346 71.2311 38.8767 71.2311 39.1995C71.2311 39.4883 71.3161 39.7007 71.486 39.8366C71.6559 39.9725 71.9234 40.0702 72.2887 40.1296L73.2316 40.2825C73.9877 40.4015 74.5356 40.6223 74.8754 40.9451C75.2236 41.2679 75.3978 41.7351 75.3978 42.3468C75.3978 42.9924 75.1897 43.502 74.7734 43.8758C74.3657 44.2411 73.7456 44.4237 72.9131 44.4237H72.3779ZM80.9993 44.3218C80.3962 44.3218 79.9247 44.1604 79.5849 43.8376C79.2537 43.5148 79.088 43.0603 79.088 42.4742V38.3585H77.113V37.3136H79.088V35.3386H80.2348V37.3136H83.038V38.3585H80.2348V42.4742C80.2348 43.0093 80.4896 43.2769 80.9993 43.2769H82.9106V44.3218H80.9993ZM85.4668 44.3218V37.3136H86.5881V38.6516H86.8557L86.4862 39.4798C86.4862 38.7238 86.6476 38.1546 86.9704 37.7724C87.3017 37.3816 87.7901 37.1862 88.4357 37.1862C89.1748 37.1862 89.7609 37.4198 90.1941 37.887C90.6358 38.3457 90.8567 38.9701 90.8567 39.7601V40.1806H89.7099V39.8621C89.7099 39.3099 89.574 38.8894 89.3022 38.6006C89.0388 38.3033 88.6608 38.1546 88.1681 38.1546C87.6839 38.1546 87.3017 38.3033 87.0213 38.6006C86.7495 38.8979 86.6136 39.3184 86.6136 39.8621V44.3218H85.4668ZM100.416 39.0975V38.0782H105.895V39.0975H100.416ZM100.416 42.1556V41.1363H105.895V42.1556H100.416ZM139.7 46.3605L140.72 42.3977H142.376L140.72 46.3605H139.7ZM141.23 39.0975C140.949 39.0975 140.72 39.0083 140.541 38.8299C140.363 38.6516 140.274 38.4222 140.274 38.1419C140.274 37.87 140.363 37.6449 140.541 37.4665C140.728 37.2797 140.958 37.1862 141.23 37.1862H141.484C141.756 37.1862 141.981 37.2797 142.16 37.4665C142.347 37.6449 142.44 37.87 142.44 38.1419C142.44 38.4222 142.351 38.6516 142.172 38.8299C141.994 39.0083 141.765 39.0975 141.484 39.0975H141.23ZM50.4383 62.3218C49.8351 62.3218 49.3637 62.1604 49.0239 61.8376C48.6926 61.5148 48.5269 61.0603 48.5269 60.4742V56.3585H46.5519V55.3136H48.5269V53.3386H49.6737V55.3136H52.477V56.3585H49.6737V60.4742C49.6737 61.0093 49.9286 61.2769 50.4383 61.2769H52.3496V62.3218H50.4383ZM57.314 62.4237C56.7533 62.4237 56.2691 62.3175 55.8614 62.1052C55.4537 61.8928 55.1351 61.587 54.9057 61.1877C54.6849 60.78 54.5744 60.3 54.5744 59.7479V57.8875C54.5744 57.3269 54.6849 56.8469 54.9057 56.4477C55.1351 56.0484 55.4537 55.7426 55.8614 55.5303C56.2691 55.3179 56.7533 55.2117 57.314 55.2117C57.8746 55.2117 58.3588 55.3179 58.7666 55.5303C59.1743 55.7426 59.4886 56.0484 59.7095 56.4477C59.9389 56.8469 60.0535 57.3226 60.0535 57.8748V59.7479C60.0535 60.3 59.9389 60.78 59.7095 61.1877C59.4886 61.587 59.1743 61.8928 58.7666 62.1052C58.3588 62.3175 57.8746 62.4237 57.314 62.4237ZM57.314 61.4043C57.8152 61.4043 58.2059 61.2642 58.4863 60.9839C58.7666 60.7035 58.9068 60.2915 58.9068 59.7479V57.8875C58.9068 57.3439 58.7666 56.9319 58.4863 56.6516C58.2059 56.3712 57.8152 56.2311 57.314 56.2311C56.8213 56.2311 56.4305 56.3712 56.1417 56.6516C55.8614 56.9319 55.7212 57.3439 55.7212 57.8875V59.7479C55.7212 60.2915 55.8614 60.7035 56.1417 60.9839C56.4305 61.2642 56.8213 61.4043 57.314 61.4043ZM65.7188 62.3218C65.1157 62.3218 64.6442 62.1604 64.3044 61.8376C63.9731 61.5148 63.8075 61.0603 63.8075 60.4742V56.3585H61.8325V55.3136H63.8075V53.3386H64.9543V55.3136H67.7575V56.3585H64.9543V60.4742C64.9543 61.0093 65.2091 61.2769 65.7188 61.2769H67.6301V62.3218H65.7188ZM71.9829 62.4492C71.2439 62.4492 70.662 62.2623 70.2372 61.8885C69.8125 61.5063 69.6001 60.9924 69.6001 60.3468C69.6001 59.6927 69.8125 59.1787 70.2372 58.805C70.662 58.4312 71.2354 58.2443 71.9574 58.2443H74.1236V57.5435C74.1236 57.1103 73.9919 56.779 73.7286 56.5496C73.4737 56.3118 73.1085 56.1928 72.6328 56.1928C72.2165 56.1928 71.8682 56.282 71.5879 56.4604C71.3076 56.6303 71.1462 56.8639 71.1037 57.1612H69.9569C70.0334 56.5581 70.3179 56.0782 70.8106 55.7214C71.3033 55.3646 71.9192 55.1862 72.6582 55.1862C73.4652 55.1862 74.1023 55.3943 74.5695 55.8106C75.0368 56.2268 75.2704 56.7917 75.2704 57.5053V62.3218H74.1491V60.9839H73.9579L74.1491 60.7927C74.1491 61.3024 73.9494 61.7059 73.5502 62.0032C73.1594 62.3005 72.637 62.4492 71.9829 62.4492ZM72.2632 61.5445C72.8069 61.5445 73.2529 61.4086 73.6011 61.1368C73.9494 60.8649 74.1236 60.5167 74.1236 60.0919V59.098H71.9829C71.6006 59.098 71.2991 59.2042 71.0782 59.4166C70.8574 59.629 70.7469 59.9178 70.7469 60.283C70.7469 60.6738 70.8786 60.9839 71.1419 61.2132C71.4138 61.4341 71.7875 61.5445 72.2632 61.5445ZM81.1904 62.3218C80.7827 62.3218 80.4259 62.2411 80.1201 62.0797C79.8143 61.9183 79.5765 61.6889 79.4066 61.3916C79.2367 61.0943 79.1517 60.746 79.1517 60.3468V54.0649H76.7944V53.0201H80.2985V60.3468C80.2985 60.6356 80.3792 60.8649 80.5406 61.0348C80.702 61.1962 80.9186 61.2769 81.1904 61.2769H83.4203V62.3218H81.1904ZM92.7758 57.0975V56.0782H98.2549V57.0975H92.7758ZM92.7758 60.1556V59.1363H98.2549V60.1556H92.7758ZM177.902 64.3605L178.921 60.3977H180.578L178.921 64.3605H177.902ZM179.431 57.0975C179.151 57.0975 178.921 57.0083 178.743 56.8299C178.564 56.6516 178.475 56.4222 178.475 56.1419C178.475 55.87 178.564 55.6449 178.743 55.4665C178.93 55.2797 179.159 55.1862 179.431 55.1862H179.686C179.957 55.1862 180.183 55.2797 180.361 55.4665C180.548 55.6449 180.641 55.87 180.641 56.1419C180.641 56.4222 180.552 56.6516 180.374 56.8299C180.195 57.0083 179.966 57.0975 179.686 57.0975H179.431Z" fill="#4A5568"/>
<path d="M95.4898 26.4492C94.7338 26.4492 94.1137 26.2538 93.6295 25.8631C93.1453 25.4723 92.8607 24.9456 92.7758 24.283H93.9226C93.965 24.6483 94.1222 24.9329 94.394 25.1368C94.6659 25.3321 95.0354 25.4298 95.5026 25.4298C96.0378 25.4298 96.437 25.2854 96.7003 24.9966C96.9722 24.7078 97.1081 24.3 97.1081 23.7734V22.8687C97.1081 22.342 96.9722 21.9343 96.7003 21.6454C96.437 21.3566 96.042 21.2122 95.5153 21.2122C95.184 21.2122 94.8952 21.3014 94.6489 21.4798C94.4025 21.6497 94.2241 21.879 94.1137 22.1679H92.9669L93.0306 17.0201H97.9236V18.0649H94.1392L94.101 21.1612H94.4577L94.101 21.4925C94.101 21.0933 94.2581 20.779 94.5724 20.5496C94.8952 20.3203 95.3242 20.2056 95.8594 20.2056C96.6154 20.1971 97.2015 20.4307 97.6178 20.9064C98.0425 21.3736 98.2549 22.0277 98.2549 22.8687V23.7734C98.2549 24.5974 98.0128 25.2514 97.5286 25.7356C97.0444 26.2113 96.3648 26.4492 95.4898 26.4492ZM118.5 38.3967L120.156 34.4339H121.176L120.156 38.3967H118.5ZM115.569 38.3967L117.226 34.4339H118.245L117.226 38.3967H115.569ZM126.051 44.4492C125.295 44.4492 124.675 44.2538 124.191 43.8631C123.706 43.4723 123.422 42.9456 123.337 42.283H124.484C124.526 42.6483 124.683 42.9329 124.955 43.1368C125.227 43.3321 125.596 43.4298 126.064 43.4298C126.599 43.4298 126.998 43.2854 127.261 42.9966C127.533 42.7078 127.669 42.3 127.669 41.7734V40.8687C127.669 40.342 127.533 39.9343 127.261 39.6454C126.998 39.3566 126.603 39.2122 126.076 39.2122C125.745 39.2122 125.456 39.3014 125.21 39.4798C124.964 39.6497 124.785 39.879 124.675 40.1679H123.528L123.592 35.0201H128.485V36.0649H124.7L124.662 39.1612H125.019L124.662 39.4925C124.662 39.0933 124.819 38.779 125.133 38.5496C125.456 38.3203 125.885 38.2056 126.42 38.2056C127.176 38.1971 127.763 38.4307 128.179 38.9064C128.604 39.3736 128.816 40.0277 128.816 40.8687V41.7734C128.816 42.5974 128.574 43.2514 128.09 43.7356C127.605 44.2113 126.926 44.4492 126.051 44.4492ZM133.908 38.3967L134.927 34.4339H136.584L134.927 38.3967H133.908ZM130.977 38.3967L131.996 34.4339H133.653L131.996 38.3967H130.977Z" fill="#E2E8F0"/>
<path d="M108.146 62.3218V55.3136H109.292V56.6516H109.534L109.292 56.9191C109.292 56.367 109.458 55.9422 109.789 55.6449C110.121 55.3391 110.579 55.1862 111.165 55.1862C111.87 55.1862 112.431 55.4028 112.847 55.8361C113.264 56.2693 113.472 56.8597 113.472 57.6072V62.3218H112.325V57.7346C112.325 57.2334 112.189 56.8512 111.917 56.5878C111.654 56.316 111.293 56.1801 110.834 56.1801C110.358 56.1801 109.98 56.3245 109.7 56.6133C109.428 56.9021 109.292 57.3184 109.292 57.8621V62.3218H108.146ZM118.423 62.4492C117.616 62.4492 116.971 62.2113 116.487 61.7356C116.002 61.2514 115.76 60.5974 115.76 59.7734V55.3136H116.907V59.7734C116.907 60.3 117.043 60.712 117.315 61.0093C117.587 61.2982 117.956 61.4426 118.423 61.4426C118.899 61.4426 119.273 61.2982 119.545 61.0093C119.825 60.712 119.965 60.3 119.965 59.7734V55.3136H121.112V59.7734C121.112 60.5974 120.866 61.2514 120.373 61.7356C119.88 62.2113 119.23 62.4492 118.423 62.4492ZM123.095 62.3218V55.3136H124.101V56.1546H124.331L124.152 56.4604C124.152 56.0697 124.254 55.7596 124.458 55.5303C124.671 55.3009 124.955 55.1862 125.312 55.1862C125.703 55.1862 126.004 55.3306 126.217 55.6194C126.429 55.9083 126.535 56.316 126.535 56.8427L126.191 56.1546H126.726L126.484 56.4604C126.484 56.0697 126.59 55.7596 126.803 55.5303C127.024 55.3009 127.312 55.1862 127.669 55.1862C128.111 55.1862 128.451 55.3519 128.689 55.6832C128.935 56.0145 129.058 56.4519 129.058 56.9956V62.3218H128V56.9828C128 56.694 127.937 56.4689 127.809 56.3075C127.69 56.1461 127.512 56.0654 127.274 56.0654C127.045 56.0654 126.862 56.1461 126.726 56.3075C126.599 56.4604 126.535 56.6813 126.535 56.9701V62.3218H125.618V56.9828C125.618 56.6855 125.55 56.4604 125.414 56.3075C125.286 56.1461 125.104 56.0654 124.866 56.0654C124.628 56.0654 124.45 56.1461 124.331 56.3075C124.212 56.4604 124.152 56.6813 124.152 56.9701V62.3218H123.095ZM140.796 61.1113V58.6266H138.363V57.6072H140.796V55.1225H141.918V57.6072H144.351V58.6266H141.918V61.1113H140.796ZM156.421 62.4237C155.945 62.4237 155.529 62.3515 155.172 62.2071C154.824 62.0542 154.544 61.8418 154.331 61.57C154.127 61.2982 154.004 60.9754 153.962 60.6016H155.108C155.159 60.8479 155.295 61.0433 155.516 61.1877C155.746 61.3321 156.047 61.4043 156.421 61.4043H156.956C157.406 61.4043 157.742 61.3152 157.963 61.1368C158.183 60.9499 158.294 60.7035 158.294 60.3977C158.294 60.1004 158.192 59.8668 157.988 59.6969C157.793 59.5185 157.5 59.3996 157.109 59.3401L156.166 59.1872C155.478 59.0683 154.964 58.8559 154.624 58.5501C154.293 58.2358 154.127 57.7814 154.127 57.1867C154.127 56.5581 154.327 56.0739 154.726 55.7341C155.125 55.3858 155.724 55.2117 156.523 55.2117H157.007C157.678 55.2117 158.217 55.3689 158.625 55.6832C159.033 55.9975 159.279 56.4222 159.364 56.9574H158.217C158.167 56.7365 158.039 56.5624 157.835 56.4349C157.631 56.299 157.355 56.2311 157.007 56.2311H156.523C156.09 56.2311 155.771 56.3118 155.567 56.4732C155.372 56.6346 155.274 56.8767 155.274 57.1995C155.274 57.4883 155.359 57.7007 155.529 57.8366C155.699 57.9725 155.966 58.0702 156.332 58.1296L157.275 58.2825C158.031 58.4015 158.578 58.6223 158.918 58.9451C159.267 59.2679 159.441 59.7351 159.441 60.3468C159.441 60.9924 159.233 61.502 158.816 61.8758C158.409 62.2411 157.788 62.4237 156.956 62.4237H156.421ZM165.042 62.3218C164.439 62.3218 163.968 62.1604 163.628 61.8376C163.297 61.5148 163.131 61.0603 163.131 60.4742V56.3585H161.156V55.3136H163.131V53.3386H164.278V55.3136H167.081V56.3585H164.278V60.4742C164.278 61.0093 164.533 61.2769 165.042 61.2769H166.954V62.3218H165.042ZM169.51 62.3218V55.3136H170.631V56.6516H170.899L170.529 57.4798C170.529 56.7238 170.691 56.1546 171.013 55.7724C171.345 55.3816 171.833 55.1862 172.479 55.1862C173.218 55.1862 173.804 55.4198 174.237 55.887C174.679 56.3457 174.9 56.9701 174.9 57.7601V58.1806H173.753V57.8621C173.753 57.3099 173.617 56.8894 173.345 56.6006C173.082 56.3033 172.704 56.1546 172.211 56.1546C171.727 56.1546 171.345 56.3033 171.064 56.6006C170.792 56.8979 170.657 57.3184 170.657 57.8621V62.3218H169.51Z" fill="#F56565"/>
<path d="M106.973 64.6153H175.741V65.2525H106.973V64.6153Z" fill="#F56565"/>
<rect y="0.321777" width="443.58" height="80" fill="url(#paint0_linear_2545_2944)" fill-opacity="0.6"/>
<rect x="200.5" y="23.8218" width="254" height="43" rx="3.5" fill="#F9FAFB"/>
<rect x="200.5" y="23.8218" width="254" height="43" rx="3.5" stroke="#2D3748"/>
<path d="M210.065 39.2536C210.065 38.3587 210.181 37.536 210.413 36.7856C210.648 36.0327 210.982 35.3402 211.415 34.7081H212.153C211.983 34.9425 211.823 35.2313 211.674 35.5746C211.527 35.9155 211.398 36.2908 211.287 36.7003C211.176 37.1075 211.088 37.5289 211.024 37.9645C210.963 38.4001 210.932 38.8298 210.932 39.2536C210.932 39.817 210.986 40.3888 211.095 40.9688C211.204 41.5488 211.351 42.0874 211.536 42.5846C211.72 43.0817 211.926 43.4866 212.153 43.7991H211.415C210.982 43.1669 210.648 42.4757 210.413 41.7252C210.181 40.9723 210.065 40.1485 210.065 39.2536ZM214.228 35.049V42.3218H213.39V35.049H214.228ZM217.979 42.4354C217.487 42.4354 217.055 42.3182 216.683 42.0839C216.314 41.8495 216.025 41.5216 215.816 41.1002C215.61 40.6788 215.507 40.1864 215.507 39.6229C215.507 39.0547 215.61 38.5588 215.816 38.135C216.025 37.7112 216.314 37.3821 216.683 37.1478C217.055 36.9134 217.487 36.7962 217.979 36.7962C218.471 36.7962 218.902 36.9134 219.272 37.1478C219.643 37.3821 219.932 37.7112 220.138 38.135C220.346 38.5588 220.451 39.0547 220.451 39.6229C220.451 40.1864 220.346 40.6788 220.138 41.1002C219.932 41.5216 219.643 41.8495 219.272 42.0839C218.902 42.3182 218.471 42.4354 217.979 42.4354ZM217.979 41.6826C218.353 41.6826 218.661 41.5867 218.902 41.3949C219.144 41.2032 219.323 40.951 219.439 40.6385C219.555 40.326 219.613 39.9875 219.613 39.6229C219.613 39.2583 219.555 38.9186 219.439 38.6037C219.323 38.2889 219.144 38.0344 218.902 37.8402C218.661 37.6461 218.353 37.549 217.979 37.549C217.605 37.549 217.297 37.6461 217.056 37.8402C216.814 38.0344 216.636 38.2889 216.52 38.6037C216.404 38.9186 216.346 39.2583 216.346 39.6229C216.346 39.9875 216.404 40.326 216.52 40.6385C216.636 40.951 216.814 41.2032 217.056 41.3949C217.297 41.5867 217.605 41.6826 217.979 41.6826ZM223.946 42.4354C223.434 42.4354 222.994 42.3147 222.625 42.0732C222.256 41.8317 221.971 41.4991 221.773 41.0753C221.574 40.6516 221.474 40.1674 221.474 39.6229C221.474 39.0689 221.576 38.5801 221.78 38.1563C221.986 37.7302 222.272 37.3975 222.639 37.1584C223.008 36.9169 223.439 36.7962 223.932 36.7962C224.315 36.7962 224.661 36.8672 224.969 37.0093C225.276 37.1513 225.528 37.3502 225.725 37.6059C225.921 37.8615 226.043 38.1598 226.091 38.5008H225.253C225.189 38.2522 225.047 38.032 224.827 37.8402C224.609 37.6461 224.315 37.549 223.946 37.549C223.619 37.549 223.333 37.6343 223.086 37.8047C222.843 37.9728 222.652 38.2107 222.515 38.5185C222.38 38.8239 222.312 39.1826 222.312 39.5945C222.312 40.0159 222.379 40.3829 222.511 40.6954C222.646 41.0079 222.836 41.2505 223.079 41.4233C223.326 41.5962 223.614 41.6826 223.946 41.6826C224.164 41.6826 224.361 41.6447 224.539 41.5689C224.716 41.4932 224.867 41.3843 224.99 41.2422C225.113 41.1002 225.201 40.9297 225.253 40.7309H226.091C226.043 41.0528 225.926 41.3428 225.739 41.6009C225.555 41.8566 225.309 42.0602 225.004 42.2117C224.701 42.3608 224.348 42.4354 223.946 42.4354ZM228.921 42.4496C228.575 42.4496 228.262 42.3845 227.98 42.2543C227.698 42.1217 227.474 41.9312 227.309 41.6826C227.143 41.4316 227.06 41.1286 227.06 40.7735C227.06 40.461 227.122 40.2077 227.245 40.0135C227.368 39.817 227.532 39.6632 227.738 39.5519C227.944 39.4406 228.172 39.3578 228.42 39.3033C228.671 39.2465 228.923 39.2015 229.177 39.1684C229.508 39.1258 229.777 39.0938 229.983 39.0725C230.191 39.0488 230.343 39.0098 230.437 38.9553C230.534 38.9008 230.583 38.8062 230.583 38.6712V38.6428C230.583 38.2924 230.487 38.0202 230.295 37.826C230.106 37.6319 229.818 37.5348 229.432 37.5348C229.032 37.5348 228.719 37.6224 228.491 37.7976C228.264 37.9728 228.104 38.1598 228.012 38.3587L227.216 38.0746C227.358 37.7432 227.548 37.4851 227.785 37.3005C228.024 37.1134 228.284 36.9832 228.566 36.9098C228.85 36.8341 229.129 36.7962 229.404 36.7962C229.579 36.7962 229.78 36.8175 230.008 36.8601C230.237 36.9004 230.459 36.9844 230.672 37.1123C230.887 37.2401 231.066 37.433 231.208 37.6911C231.35 37.9491 231.421 38.2948 231.421 38.728V42.3218H230.583V41.5831H230.54C230.483 41.7015 230.389 41.8282 230.256 41.9631C230.124 42.0981 229.947 42.2129 229.727 42.3076C229.507 42.4023 229.238 42.4496 228.921 42.4496ZM229.049 41.6968C229.38 41.6968 229.66 41.6317 229.887 41.5015C230.117 41.3713 230.289 41.2032 230.405 40.9972C230.524 40.7912 230.583 40.5746 230.583 40.3473V39.5803C230.547 39.6229 230.469 39.662 230.349 39.6975C230.23 39.7306 230.093 39.7602 229.937 39.7863C229.783 39.8099 229.632 39.8312 229.486 39.8502C229.341 39.8668 229.224 39.881 229.134 39.8928C228.916 39.9212 228.713 39.9674 228.523 40.0313C228.336 40.0928 228.185 40.1864 228.069 40.3118C227.955 40.4349 227.898 40.603 227.898 40.8161C227.898 41.1073 228.006 41.3275 228.221 41.4766C228.439 41.6234 228.715 41.6968 229.049 41.6968ZM233.789 35.049V42.3218H232.951V35.049H233.789ZM242.596 36.8672L240.579 42.3218H239.727L237.71 36.8672H238.619L240.125 41.2138H240.182L241.687 36.8672H242.596ZM245.142 42.4496C244.796 42.4496 244.482 42.3845 244.201 42.2543C243.919 42.1217 243.695 41.9312 243.529 41.6826C243.364 41.4316 243.281 41.1286 243.281 40.7735C243.281 40.461 243.342 40.2077 243.466 40.0135C243.589 39.817 243.753 39.6632 243.959 39.5519C244.165 39.4406 244.392 39.3578 244.641 39.3033C244.892 39.2465 245.144 39.2015 245.397 39.1684C245.729 39.1258 245.998 39.0938 246.203 39.0725C246.412 39.0488 246.563 39.0098 246.658 38.9553C246.755 38.9008 246.804 38.8062 246.804 38.6712V38.6428C246.804 38.2924 246.708 38.0202 246.516 37.826C246.327 37.6319 246.039 37.5348 245.653 37.5348C245.253 37.5348 244.939 37.6224 244.712 37.7976C244.485 37.9728 244.325 38.1598 244.233 38.3587L243.437 38.0746C243.579 37.7432 243.769 37.4851 244.005 37.3005C244.244 37.1134 244.505 36.9832 244.787 36.9098C245.071 36.8341 245.35 36.7962 245.625 36.7962C245.8 36.7962 246.001 36.8175 246.228 36.8601C246.458 36.9004 246.679 36.9844 246.892 37.1123C247.108 37.2401 247.287 37.433 247.429 37.6911C247.571 37.9491 247.642 38.2948 247.642 38.728V42.3218H246.804V41.5831H246.761C246.704 41.7015 246.609 41.8282 246.477 41.9631C246.344 42.0981 246.168 42.2129 245.948 42.3076C245.728 42.4023 245.459 42.4496 245.142 42.4496ZM245.27 41.6968C245.601 41.6968 245.88 41.6317 246.108 41.5015C246.337 41.3713 246.51 41.2032 246.626 40.9972C246.744 40.7912 246.804 40.5746 246.804 40.3473V39.5803C246.768 39.6229 246.69 39.662 246.569 39.6975C246.451 39.7306 246.314 39.7602 246.157 39.7863C246.003 39.8099 245.853 39.8312 245.706 39.8502C245.562 39.8668 245.445 39.881 245.355 39.8928C245.137 39.9212 244.933 39.9674 244.744 40.0313C244.557 40.0928 244.405 40.1864 244.289 40.3118C244.176 40.4349 244.119 40.603 244.119 40.8161C244.119 41.1073 244.227 41.3275 244.442 41.4766C244.66 41.6234 244.936 41.6968 245.27 41.6968ZM249.171 42.3218V36.8672H249.981V37.6911H250.038C250.137 37.4212 250.317 37.2022 250.578 37.0341C250.838 36.866 251.132 36.782 251.458 36.782C251.52 36.782 251.597 36.7832 251.689 36.7856C251.781 36.7879 251.851 36.7915 251.899 36.7962V37.6485C251.87 37.6414 251.805 37.6307 251.703 37.6165C251.604 37.5999 251.499 37.5917 251.387 37.5917C251.122 37.5917 250.885 37.6473 250.677 37.7586C250.471 37.8675 250.308 38.019 250.187 38.2131C250.069 38.4049 250.009 38.6239 250.009 38.8701V42.3218H249.171ZM252.892 42.3218V36.8672H253.73V42.3218H252.892ZM253.318 35.9581C253.155 35.9581 253.014 35.9025 252.896 35.7912C252.78 35.68 252.722 35.5462 252.722 35.39C252.722 35.2337 252.78 35.0999 252.896 34.9887C253.014 34.8774 253.155 34.8218 253.318 34.8218C253.482 34.8218 253.621 34.8774 253.737 34.9887C253.856 35.0999 253.915 35.2337 253.915 35.39C253.915 35.5462 253.856 35.68 253.737 35.7912C253.621 35.9025 253.482 35.9581 253.318 35.9581ZM256.87 42.4496C256.525 42.4496 256.211 42.3845 255.929 42.2543C255.647 42.1217 255.424 41.9312 255.258 41.6826C255.092 41.4316 255.009 41.1286 255.009 40.7735C255.009 40.461 255.071 40.2077 255.194 40.0135C255.317 39.817 255.482 39.6632 255.688 39.5519C255.894 39.4406 256.121 39.3578 256.369 39.3033C256.62 39.2465 256.873 39.2015 257.126 39.1684C257.457 39.1258 257.726 39.0938 257.932 39.0725C258.14 39.0488 258.292 39.0098 258.387 38.9553C258.484 38.9008 258.532 38.8062 258.532 38.6712V38.6428C258.532 38.2924 258.436 38.0202 258.244 37.826C258.055 37.6319 257.767 37.5348 257.382 37.5348C256.981 37.5348 256.668 37.6224 256.441 37.7976C256.213 37.9728 256.053 38.1598 255.961 38.3587L255.166 38.0746C255.308 37.7432 255.497 37.4851 255.734 37.3005C255.973 37.1134 256.233 36.9832 256.515 36.9098C256.799 36.8341 257.079 36.7962 257.353 36.7962C257.528 36.7962 257.73 36.8175 257.957 36.8601C258.186 36.9004 258.408 36.9844 258.621 37.1123C258.836 37.2401 259.015 37.433 259.157 37.6911C259.299 37.9491 259.37 38.2948 259.37 38.728V42.3218H258.532V41.5831H258.49C258.433 41.7015 258.338 41.8282 258.205 41.9631C258.073 42.0981 257.896 42.2129 257.676 42.3076C257.456 42.4023 257.187 42.4496 256.87 42.4496ZM256.998 41.6968C257.329 41.6968 257.609 41.6317 257.836 41.5015C258.066 41.3713 258.239 41.2032 258.355 40.9972C258.473 40.7912 258.532 40.5746 258.532 40.3473V39.5803C258.497 39.6229 258.419 39.662 258.298 39.6975C258.179 39.7306 258.042 39.7602 257.886 39.7863C257.732 39.8099 257.582 39.8312 257.435 39.8502C257.29 39.8668 257.173 39.881 257.083 39.8928C256.865 39.9212 256.662 39.9674 256.472 40.0313C256.285 40.0928 256.134 40.1864 256.018 40.3118C255.904 40.4349 255.847 40.603 255.847 40.8161C255.847 41.1073 255.955 41.3275 256.171 41.4766C256.388 41.6234 256.664 41.6968 256.998 41.6968ZM261.013 42.3218V35.049H261.852V37.7337H261.923C261.984 37.639 262.069 37.5183 262.178 37.3715C262.29 37.2223 262.448 37.0898 262.654 36.9738C262.862 36.8554 263.144 36.7962 263.499 36.7962C263.959 36.7962 264.363 36.911 264.714 37.1407C265.064 37.3703 265.338 37.6958 265.534 38.1172C265.731 38.5386 265.829 39.0358 265.829 39.6087C265.829 40.1864 265.731 40.6871 265.534 41.1108C265.338 41.5322 265.065 41.8589 264.717 42.091C264.369 42.3206 263.968 42.4354 263.513 42.4354C263.163 42.4354 262.883 42.3774 262.672 42.2614C262.461 42.143 262.299 42.0093 262.185 41.8601C262.072 41.7086 261.984 41.5831 261.923 41.4837H261.823V42.3218H261.013ZM261.837 39.5945C261.837 40.0064 261.898 40.3698 262.018 40.6847C262.139 40.9972 262.316 41.2422 262.548 41.4198C262.78 41.595 263.064 41.6826 263.4 41.6826C263.75 41.6826 264.043 41.5902 264.277 41.4056C264.514 41.2186 264.691 40.9676 264.81 40.6527C264.93 40.3355 264.991 39.9828 264.991 39.5945C264.991 39.211 264.932 38.8653 264.813 38.5576C264.697 38.2474 264.521 38.0024 264.284 37.8225C264.05 37.6402 263.755 37.549 263.4 37.549C263.059 37.549 262.772 37.6355 262.54 37.8083C262.308 37.9787 262.133 38.2178 262.015 38.5256C261.897 38.831 261.837 39.1873 261.837 39.5945ZM267.949 35.049V42.3218H267.111V35.049H267.949ZM271.771 42.4354C271.245 42.4354 270.792 42.3194 270.411 42.0874C270.032 41.853 269.74 41.5263 269.534 41.1073C269.33 40.6859 269.228 40.1958 269.228 39.6371C269.228 39.0784 269.33 38.586 269.534 38.1598C269.74 37.7313 270.026 37.3975 270.393 37.1584C270.762 36.9169 271.193 36.7962 271.686 36.7962C271.97 36.7962 272.25 36.8436 272.527 36.9383C272.804 37.033 273.056 37.1868 273.284 37.3999C273.511 37.6106 273.692 37.89 273.827 38.238C273.962 38.586 274.029 39.0145 274.029 39.5235V39.8786H269.825V39.1542H273.177C273.177 38.8464 273.115 38.5718 272.992 38.3303C272.872 38.0888 272.699 37.8982 272.474 37.7586C272.251 37.6189 271.989 37.549 271.686 37.549C271.352 37.549 271.063 37.6319 270.819 37.7976C270.578 37.961 270.392 38.174 270.262 38.4368C270.131 38.6996 270.066 38.9813 270.066 39.282V39.765C270.066 40.1769 270.137 40.5261 270.279 40.8125C270.424 41.0966 270.624 41.3133 270.879 41.4624C271.135 41.6092 271.432 41.6826 271.771 41.6826C271.991 41.6826 272.19 41.6518 272.367 41.5902C272.547 41.5263 272.702 41.4316 272.833 41.3062C272.963 41.1783 273.063 41.0197 273.134 40.8303L273.944 41.0576C273.859 41.3322 273.716 41.5737 273.514 41.782C273.313 41.988 273.065 42.149 272.769 42.265C272.473 42.3786 272.14 42.4354 271.771 42.4354ZM277.094 39.2536C277.094 40.1485 276.977 40.9723 276.742 41.7252C276.51 42.4757 276.178 43.1669 275.744 43.7991H275.006C275.176 43.5647 275.335 43.2758 275.482 42.9326C275.631 42.5917 275.761 42.2176 275.872 41.8104C275.984 41.4008 276.07 40.9783 276.132 40.5427C276.195 40.1047 276.227 39.675 276.227 39.2536C276.227 38.6901 276.173 38.1184 276.064 37.5384C275.955 36.9584 275.808 36.4198 275.624 35.9226C275.439 35.4255 275.233 35.0206 275.006 34.7081H275.744C276.178 35.3402 276.51 36.0327 276.742 36.7856C276.977 37.536 277.094 38.3587 277.094 39.2536ZM285.859 38.0888L285.064 38.3019C285.035 38.174 284.985 38.0509 284.914 37.9326C284.846 37.8118 284.739 37.7136 284.595 37.6378C284.453 37.5597 284.259 37.5206 284.012 37.5206C283.679 37.5206 283.389 37.5976 283.142 37.7515C282.896 37.903 282.755 38.0959 282.72 38.3303C282.684 38.5363 282.732 38.7008 282.862 38.8239C282.992 38.947 283.21 39.0476 283.515 39.1258L284.297 39.3246C284.765 39.4454 285.099 39.6265 285.298 39.8679C285.499 40.1071 285.568 40.4184 285.504 40.8019C285.452 41.1144 285.316 41.3937 285.096 41.64C284.875 41.8862 284.594 42.0803 284.25 42.2223C283.907 42.3644 283.525 42.4354 283.103 42.4354C282.542 42.4354 282.1 42.3147 281.775 42.0732C281.451 41.8294 281.278 41.4766 281.257 41.015L282.095 40.8161C282.116 41.1073 282.22 41.3275 282.407 41.4766C282.597 41.6234 282.862 41.6968 283.203 41.6968C283.593 41.6968 283.919 41.6139 284.179 41.4482C284.44 41.2801 284.588 41.0789 284.623 40.8445C284.659 40.6527 284.621 40.4929 284.51 40.3651C284.401 40.2373 284.211 40.1414 283.941 40.0775L283.075 39.8644C282.592 39.7437 282.253 39.559 282.059 39.3104C281.868 39.0618 281.804 38.7493 281.868 38.3729C281.92 38.0651 282.052 37.7929 282.265 37.5562C282.481 37.3194 282.751 37.1336 283.075 36.9986C283.402 36.8637 283.757 36.7962 284.14 36.7962C284.68 36.7962 285.084 36.9146 285.351 37.1513C285.619 37.3857 285.788 37.6982 285.859 38.0888ZM289.791 36.8672L289.677 37.5775H286.851L286.964 36.8672H289.791ZM288.001 35.5604H288.839L287.973 40.7593C287.935 40.996 287.941 41.1736 287.991 41.2919C288.043 41.408 288.121 41.4861 288.225 41.5263C288.331 41.5642 288.446 41.5831 288.569 41.5831C288.662 41.5831 288.738 41.5784 288.797 41.5689C288.856 41.5571 288.903 41.5476 288.939 41.5405L288.996 42.2934C288.932 42.3147 288.845 42.336 288.736 42.3573C288.63 42.381 288.498 42.3928 288.342 42.3928C288.105 42.3928 287.883 42.3419 287.675 42.2401C287.466 42.1383 287.306 41.9832 287.195 41.7749C287.084 41.5666 287.054 41.3038 287.106 40.9866L288.001 35.5604ZM290.143 42.3218L291.052 36.8672H291.861L291.719 37.6911H291.776C291.918 37.4212 292.135 37.2022 292.426 37.0341C292.717 36.866 293.026 36.782 293.353 36.782C293.417 36.782 293.494 36.7832 293.584 36.7856C293.674 36.7856 293.743 36.7891 293.793 36.7962L293.651 37.6485C293.623 37.6414 293.559 37.6307 293.459 37.6165C293.36 37.5999 293.253 37.5917 293.14 37.5917C292.875 37.5917 292.63 37.6473 292.405 37.7586C292.18 37.8675 291.992 38.019 291.84 38.2131C291.689 38.4049 291.591 38.6239 291.549 38.8701L290.981 42.3218H290.143ZM293.883 42.3218L294.792 36.8672H295.63L294.721 42.3218H293.883ZM295.467 35.9439C295.303 35.9439 295.162 35.8883 295.044 35.777C294.928 35.6658 294.87 35.532 294.87 35.3758C294.87 35.2195 294.928 35.0857 295.044 34.9745C295.162 34.8632 295.303 34.8076 295.467 34.8076C295.63 34.8076 295.77 34.8632 295.886 34.9745C296.004 35.0857 296.063 35.2195 296.063 35.3758C296.063 35.532 296.004 35.6658 295.886 35.777C295.77 35.8883 295.63 35.9439 295.467 35.9439ZM297.634 39.0405L297.094 42.3218H296.256L297.165 36.8672H297.975L297.833 37.7195H297.904C298.074 37.4425 298.305 37.22 298.596 37.0519C298.887 36.8814 299.239 36.7962 299.651 36.7962C300.015 36.7962 300.323 36.872 300.574 37.0235C300.827 37.1726 301.006 37.3999 301.11 37.7053C301.217 38.0083 301.232 38.3919 301.156 38.8559L300.574 42.3218H299.736L300.304 38.9127C300.375 38.4865 300.32 38.1527 300.137 37.9113C299.957 37.6698 299.672 37.549 299.281 37.549C299.012 37.549 298.762 37.6071 298.532 37.7231C298.305 37.8391 298.112 38.0083 297.953 38.2309C297.797 38.4534 297.691 38.7233 297.634 39.0405ZM303.966 44.4809C303.559 44.4809 303.218 44.4288 302.944 44.3246C302.669 44.2228 302.449 44.0879 302.283 43.9198C302.117 43.7541 301.992 43.5765 301.907 43.3871L302.659 42.9184C302.716 43.0178 302.79 43.1314 302.88 43.2593C302.97 43.3895 303.106 43.5019 303.288 43.5966C303.473 43.6937 303.732 43.7422 304.066 43.7422C304.504 43.7422 304.887 43.6357 305.216 43.4226C305.545 43.2096 305.749 42.8758 305.827 42.4212L305.998 41.3133H305.926C305.851 41.4127 305.745 41.5358 305.61 41.6826C305.475 41.827 305.294 41.956 305.067 42.0696C304.84 42.1809 304.549 42.2366 304.194 42.2366C303.751 42.2366 303.372 42.1324 303.057 41.9241C302.742 41.7157 302.516 41.4127 302.379 41.015C302.244 40.6172 302.224 40.1343 302.319 39.5661C302.411 39.0074 302.588 38.5209 302.851 38.1066C303.116 37.6899 303.443 37.3679 303.831 37.1407C304.22 36.911 304.643 36.7962 305.103 36.7962C305.458 36.7962 305.73 36.8554 305.919 36.9738C306.111 37.0898 306.251 37.2223 306.338 37.3715C306.426 37.5183 306.492 37.639 306.537 37.7337H306.623L306.765 36.8672H307.574L306.651 42.478C306.573 42.9468 306.404 43.3279 306.143 43.6215C305.883 43.9174 305.563 44.134 305.184 44.2714C304.806 44.411 304.4 44.4809 303.966 44.4809ZM304.407 41.4837C304.74 41.4837 305.038 41.4068 305.298 41.2529C305.561 41.099 305.779 40.8776 305.951 40.5888C306.124 40.3 306.244 39.9544 306.31 39.5519C306.376 39.1589 306.372 38.8121 306.296 38.5114C306.22 38.2107 306.077 37.9752 305.866 37.8047C305.658 37.6343 305.384 37.549 305.046 37.549C304.688 37.549 304.379 37.639 304.119 37.8189C303.861 37.9989 303.651 38.2403 303.49 38.5434C303.329 38.8464 303.218 39.1826 303.157 39.5519C303.095 39.9307 303.097 40.2657 303.164 40.5569C303.23 40.8457 303.365 41.073 303.569 41.2387C303.775 41.402 304.054 41.4837 304.407 41.4837ZM315.586 38.0888L314.79 38.3019C314.762 38.174 314.712 38.0509 314.641 37.9326C314.572 37.8118 314.466 37.7136 314.321 37.6378C314.179 37.5597 313.985 37.5206 313.739 37.5206C313.405 37.5206 313.115 37.5976 312.869 37.7515C312.623 37.903 312.482 38.0959 312.446 38.3303C312.411 38.5363 312.458 38.7008 312.588 38.8239C312.719 38.947 312.936 39.0476 313.242 39.1258L314.023 39.3246C314.492 39.4454 314.826 39.6265 315.025 39.8679C315.226 40.1071 315.294 40.4184 315.23 40.8019C315.178 41.1144 315.042 41.3937 314.822 41.64C314.602 41.8862 314.32 42.0803 313.977 42.2223C313.634 42.3644 313.251 42.4354 312.83 42.4354C312.269 42.4354 311.826 42.3147 311.502 42.0732C311.177 41.8294 311.005 41.4766 310.983 41.015L311.821 40.8161C311.843 41.1073 311.947 41.3275 312.134 41.4766C312.323 41.6234 312.588 41.6968 312.929 41.6968C313.32 41.6968 313.645 41.6139 313.906 41.4482C314.166 41.2801 314.314 41.0789 314.35 40.8445C314.385 40.6527 314.347 40.4929 314.236 40.3651C314.127 40.2373 313.938 40.1414 313.668 40.0775L312.801 39.8644C312.319 39.7437 311.98 39.559 311.786 39.3104C311.594 39.0618 311.53 38.7493 311.594 38.3729C311.646 38.0651 311.779 37.7929 311.992 37.5562C312.207 37.3194 312.477 37.1336 312.801 36.9986C313.128 36.8637 313.483 36.7962 313.867 36.7962C314.407 36.7962 314.81 36.9146 315.078 37.1513C315.345 37.3857 315.515 37.6982 315.586 38.0888ZM319.518 36.8672L319.404 37.5775H316.577L316.691 36.8672H319.518ZM317.728 35.5604H318.566L317.699 40.7593C317.662 40.996 317.667 41.1736 317.717 41.2919C317.769 41.408 317.847 41.4861 317.952 41.5263C318.058 41.5642 318.173 41.5831 318.296 41.5831C318.388 41.5831 318.464 41.5784 318.523 41.5689C318.582 41.5571 318.63 41.5476 318.665 41.5405L318.722 42.2934C318.658 42.3147 318.572 42.336 318.463 42.3573C318.356 42.381 318.225 42.3928 318.069 42.3928C317.832 42.3928 317.609 42.3419 317.401 42.2401C317.193 42.1383 317.033 41.9832 316.922 41.7749C316.81 41.5666 316.781 41.3038 316.833 40.9866L317.728 35.5604ZM319.869 42.3218L320.778 36.8672H321.588L321.446 37.6911H321.503C321.645 37.4212 321.861 37.2022 322.153 37.0341C322.444 36.866 322.753 36.782 323.079 36.782C323.143 36.782 323.22 36.7832 323.31 36.7856C323.4 36.7856 323.47 36.7891 323.52 36.7962L323.378 37.6485C323.349 37.6414 323.285 37.6307 323.186 37.6165C323.086 37.5999 322.98 37.5917 322.866 37.5917C322.601 37.5917 322.356 37.6473 322.131 37.7586C321.906 37.8675 321.718 38.019 321.567 38.2131C321.415 38.4049 321.318 38.6239 321.275 38.8701L320.707 42.3218H319.869Z" fill="#4A5568"/>
<path d="M209.632 56.3218V49.049H214.533V50.3168H211.17V52.0498H214.281V53.3175H211.17V55.054H214.547V56.3218H209.632ZM215.727 56.3218V50.8672H217.193V51.8189H217.25C217.35 51.4804 217.517 51.2247 217.751 51.0519C217.985 50.8767 218.255 50.7891 218.561 50.7891C218.636 50.7891 218.718 50.7938 218.806 50.8033C218.893 50.8128 218.97 50.8258 219.036 50.8424V52.1847C218.965 52.1634 218.867 52.1445 218.742 52.1279C218.616 52.1113 218.501 52.103 218.397 52.103C218.175 52.103 217.976 52.1516 217.801 52.2486C217.628 52.3433 217.49 52.4759 217.389 52.6464C217.289 52.8168 217.24 53.0133 217.24 53.2358V56.3218H215.727ZM219.819 56.3218V50.8672H221.285V51.8189H221.342C221.441 51.4804 221.608 51.2247 221.843 51.0519C222.077 50.8767 222.347 50.7891 222.652 50.7891C222.728 50.7891 222.81 50.7938 222.897 50.8033C222.985 50.8128 223.062 50.8258 223.128 50.8424V52.1847C223.057 52.1634 222.959 52.1445 222.833 52.1279C222.708 52.1113 222.593 52.103 222.489 52.103C222.266 52.103 222.068 52.1516 221.892 52.2486C221.72 52.3433 221.582 52.4759 221.48 52.6464C221.381 52.8168 221.331 53.0133 221.331 53.2358V56.3218H219.819ZM226.121 56.4283C225.569 56.4283 225.092 56.3111 224.69 56.0767C224.29 55.84 223.981 55.5109 223.763 55.0895C223.545 54.6658 223.436 54.1745 223.436 53.6158C223.436 53.0524 223.545 52.5599 223.763 52.1385C223.981 51.7148 224.29 51.3857 224.69 51.1513C225.092 50.9146 225.569 50.7962 226.121 50.7962C226.673 50.7962 227.148 50.9146 227.548 51.1513C227.951 51.3857 228.261 51.7148 228.479 52.1385C228.697 52.5599 228.806 53.0524 228.806 53.6158C228.806 54.1745 228.697 54.6658 228.479 55.0895C228.261 55.5109 227.951 55.84 227.548 56.0767C227.148 56.3111 226.673 56.4283 226.121 56.4283ZM226.128 55.2564C226.379 55.2564 226.588 55.1854 226.757 55.0434C226.925 54.899 227.051 54.7025 227.137 54.4539C227.224 54.2053 227.268 53.9224 227.268 53.6052C227.268 53.2879 227.224 53.005 227.137 52.7564C227.051 52.5079 226.925 52.3114 226.757 52.1669C226.588 52.0225 226.379 51.9503 226.128 51.9503C225.875 51.9503 225.662 52.0225 225.489 52.1669C225.318 52.3114 225.189 52.5079 225.102 52.7564C225.017 53.005 224.974 53.2879 224.974 53.6052C224.974 53.9224 225.017 54.2053 225.102 54.4539C225.189 54.7025 225.318 54.899 225.489 55.0434C225.662 55.1854 225.875 55.2564 226.128 55.2564ZM229.789 56.3218V50.8672H231.256V51.8189H231.313C231.412 51.4804 231.579 51.2247 231.813 51.0519C232.048 50.8767 232.318 50.7891 232.623 50.7891C232.699 50.7891 232.78 50.7938 232.868 50.8033C232.956 50.8128 233.033 50.8258 233.099 50.8424V52.1847C233.028 52.1634 232.93 52.1445 232.804 52.1279C232.679 52.1113 232.564 52.103 232.46 52.103C232.237 52.103 232.038 52.1516 231.863 52.2486C231.69 52.3433 231.553 52.4759 231.451 52.6464C231.352 52.8168 231.302 53.0133 231.302 53.2358V56.3218H229.789ZM234.765 56.4141C234.531 56.4141 234.33 56.3312 234.162 56.1655C233.996 55.9974 233.913 55.7962 233.913 55.5618C233.913 55.3298 233.996 55.131 234.162 54.9652C234.33 54.7995 234.531 54.7167 234.765 54.7167C234.993 54.7167 235.191 54.7995 235.362 54.9652C235.532 55.131 235.618 55.3298 235.618 55.5618C235.618 55.7181 235.577 55.8613 235.497 55.9915C235.419 56.1194 235.316 56.2223 235.188 56.3005C235.06 56.3762 234.919 56.4141 234.765 56.4141ZM234.765 52.5931C234.531 52.5931 234.33 52.5102 234.162 52.3445C233.996 52.1788 233.913 51.9776 233.913 51.7408C233.913 51.5088 233.996 51.3111 234.162 51.1478C234.33 50.9821 234.531 50.8992 234.765 50.8992C234.993 50.8992 235.191 50.9821 235.362 51.1478C235.532 51.3111 235.618 51.5088 235.618 51.7408C235.618 51.8994 235.577 52.0438 235.497 52.174C235.419 52.3019 235.316 52.4037 235.188 52.4794C235.06 52.5552 234.919 52.5931 234.765 52.5931ZM245.801 51.3218H244.921C244.869 51.0685 244.777 50.8459 244.647 50.6542C244.519 50.4624 244.363 50.3014 244.178 50.1712C243.996 50.0386 243.794 49.9392 243.571 49.8729C243.349 49.8066 243.117 49.7735 242.875 49.7735C242.435 49.7735 242.036 49.8848 241.678 50.1073C241.323 50.3298 241.04 50.6577 240.83 51.091C240.621 51.5242 240.517 52.0557 240.517 52.6854C240.517 53.3151 240.621 53.8466 240.83 54.2799C241.04 54.7131 241.323 55.041 241.678 55.2635C242.036 55.4861 242.435 55.5973 242.875 55.5973C243.117 55.5973 243.349 55.5642 243.571 55.4979C243.794 55.4316 243.996 55.3334 244.178 55.2032C244.363 55.0706 244.519 54.9084 244.647 54.7167C244.777 54.5225 244.869 54.3 244.921 54.0491H245.801C245.735 54.4207 245.614 54.7534 245.439 55.0469C245.264 55.3405 245.046 55.5902 244.786 55.7962C244.525 55.9998 244.233 56.1549 243.909 56.2614C243.587 56.3679 243.242 56.4212 242.875 56.4212C242.255 56.4212 241.703 56.2697 241.22 55.9667C240.737 55.6636 240.357 55.2328 240.08 54.6741C239.803 54.1153 239.665 53.4525 239.665 52.6854C239.665 51.9184 239.803 51.2555 240.08 50.6968C240.357 50.1381 240.737 49.7072 241.22 49.4042C241.703 49.1011 242.255 48.9496 242.875 48.9496C243.242 48.9496 243.587 49.0029 243.909 49.1094C244.233 49.216 244.525 49.3722 244.786 49.5782C245.046 49.7818 245.264 50.0303 245.439 50.3239C245.614 50.6151 245.735 50.9477 245.801 51.3218ZM248.716 56.4496C248.37 56.4496 248.057 56.3845 247.775 56.2543C247.493 56.1217 247.269 55.9312 247.104 55.6826C246.938 55.4316 246.855 55.1286 246.855 54.7735C246.855 54.461 246.917 54.2077 247.04 54.0135C247.163 53.817 247.327 53.6632 247.533 53.5519C247.739 53.4406 247.967 53.3578 248.215 53.3033C248.466 53.2465 248.718 53.2015 248.972 53.1684C249.303 53.1258 249.572 53.0938 249.778 53.0725C249.986 53.0488 250.138 53.0098 250.232 52.9553C250.329 52.9008 250.378 52.8062 250.378 52.6712V52.6428C250.378 52.2924 250.282 52.0202 250.09 51.826C249.901 51.6319 249.613 51.5348 249.227 51.5348C248.827 51.5348 248.513 51.6224 248.286 51.7976C248.059 51.9728 247.899 52.1598 247.807 52.3587L247.011 52.0746C247.153 51.7432 247.343 51.4851 247.58 51.3005C247.819 51.1134 248.079 50.9832 248.361 50.9098C248.645 50.8341 248.924 50.7962 249.199 50.7962C249.374 50.7962 249.575 50.8175 249.803 50.8601C250.032 50.9004 250.254 50.9844 250.467 51.1123C250.682 51.2401 250.861 51.433 251.003 51.6911C251.145 51.9491 251.216 52.2948 251.216 52.728V56.3218H250.378V55.5831H250.335C250.278 55.7015 250.184 55.8282 250.051 55.9631C249.919 56.0981 249.742 56.2129 249.522 56.3076C249.302 56.4023 249.033 56.4496 248.716 56.4496ZM248.844 55.6968C249.175 55.6968 249.455 55.6317 249.682 55.5015C249.911 55.3713 250.084 55.2032 250.2 54.9972C250.319 54.7912 250.378 54.5746 250.378 54.3473V53.5803C250.342 53.6229 250.264 53.662 250.143 53.6975C250.025 53.7306 249.888 53.7602 249.732 53.7863C249.578 53.8099 249.427 53.8312 249.281 53.8502C249.136 53.8668 249.019 53.881 248.929 53.8928C248.711 53.9212 248.508 53.9674 248.318 54.0313C248.131 54.0928 247.98 54.1864 247.864 54.3118C247.75 54.4349 247.693 54.603 247.693 54.8161C247.693 55.1073 247.801 55.3275 248.016 55.4766C248.234 55.6234 248.51 55.6968 248.844 55.6968ZM253.584 53.0405V56.3218H252.746V50.8672H253.555V51.7195H253.626C253.754 51.4425 253.948 51.22 254.209 51.0519C254.469 50.8814 254.805 50.7962 255.217 50.7962C255.586 50.7962 255.91 50.872 256.187 51.0235C256.464 51.1726 256.679 51.3999 256.833 51.7053C256.987 52.0083 257.064 52.3919 257.064 52.8559V56.3218H256.226V52.9127C256.226 52.4842 256.114 52.1504 255.892 51.9113C255.669 51.6698 255.364 51.549 254.976 51.549C254.708 51.549 254.469 51.6071 254.258 51.7231C254.05 51.8391 253.885 52.0083 253.765 52.2309C253.644 52.4534 253.584 52.7233 253.584 53.0405ZM259.433 53.0405V56.3218H258.595V50.8672H259.405V51.7195H259.476C259.604 51.4425 259.798 51.22 260.058 51.0519C260.319 50.8814 260.655 50.7962 261.067 50.7962C261.436 50.7962 261.759 50.872 262.036 51.0235C262.313 51.1726 262.529 51.3999 262.683 51.7053C262.836 52.0083 262.913 52.3919 262.913 52.8559V56.3218H262.075V52.9127C262.075 52.4842 261.964 52.1504 261.741 51.9113C261.519 51.6698 261.214 51.549 260.825 51.549C260.558 51.549 260.319 51.6071 260.108 51.7231C259.9 51.8391 259.735 52.0083 259.614 52.2309C259.494 52.4534 259.433 52.7233 259.433 53.0405ZM266.661 56.4354C266.168 56.4354 265.736 56.3182 265.365 56.0839C264.995 55.8495 264.706 55.5216 264.498 55.1002C264.292 54.6788 264.189 54.1864 264.189 53.6229C264.189 53.0547 264.292 52.5588 264.498 52.135C264.706 51.7112 264.995 51.3821 265.365 51.1478C265.736 50.9134 266.168 50.7962 266.661 50.7962C267.153 50.7962 267.584 50.9134 267.953 51.1478C268.325 51.3821 268.614 51.7112 268.82 52.135C269.028 52.5588 269.132 53.0547 269.132 53.6229C269.132 54.1864 269.028 54.6788 268.82 55.1002C268.614 55.5216 268.325 55.8495 267.953 56.0839C267.584 56.3182 267.153 56.4354 266.661 56.4354ZM266.661 55.6826C267.035 55.6826 267.343 55.5867 267.584 55.3949C267.825 55.2032 268.004 54.951 268.12 54.6385C268.236 54.326 268.294 53.9875 268.294 53.6229C268.294 53.2583 268.236 52.9186 268.12 52.6037C268.004 52.2889 267.825 52.0344 267.584 51.8402C267.343 51.6461 267.035 51.549 266.661 51.549C266.287 51.549 265.979 51.6461 265.737 51.8402C265.496 52.0344 265.317 52.2889 265.201 52.6037C265.085 52.9186 265.027 53.2583 265.027 53.6229C265.027 53.9875 265.085 54.326 265.201 54.6385C265.317 54.951 265.496 55.2032 265.737 55.3949C265.979 55.5867 266.287 55.6826 266.661 55.6826ZM272.784 50.8672V51.5775H269.957V50.8672H272.784ZM270.781 49.5604H271.619V54.7593C271.619 54.996 271.653 55.1736 271.722 55.2919C271.793 55.408 271.883 55.4861 271.992 55.5263C272.103 55.5642 272.22 55.5831 272.343 55.5831C272.436 55.5831 272.511 55.5784 272.571 55.5689C272.63 55.5571 272.677 55.5476 272.713 55.5405L272.883 56.2934C272.826 56.3147 272.747 56.336 272.645 56.3573C272.543 56.381 272.414 56.3928 272.258 56.3928C272.021 56.3928 271.789 56.3419 271.562 56.2401C271.337 56.1383 271.15 55.9832 271.001 55.7749C270.854 55.5666 270.781 55.3038 270.781 54.9866V49.5604ZM276.857 56.3218V50.8672H277.695V56.3218H276.857ZM277.283 49.9581C277.12 49.9581 276.979 49.9025 276.86 49.7912C276.744 49.68 276.686 49.5462 276.686 49.39C276.686 49.2337 276.744 49.0999 276.86 48.9887C276.979 48.8774 277.12 48.8218 277.283 48.8218C277.446 48.8218 277.586 48.8774 277.702 48.9887C277.82 49.0999 277.88 49.2337 277.88 49.39C277.88 49.5462 277.82 49.68 277.702 49.7912C277.586 49.9025 277.446 49.9581 277.283 49.9581ZM279.23 56.3218V50.8672H280.04V51.7195H280.111C280.224 51.4283 280.408 51.2022 280.661 51.0412C280.914 50.8779 281.219 50.7962 281.574 50.7962C281.934 50.7962 282.233 50.8779 282.472 51.0412C282.714 51.2022 282.902 51.4283 283.037 51.7195H283.094C283.233 51.4378 283.443 51.2141 283.722 51.0483C284.001 50.8803 284.336 50.7962 284.727 50.7962C285.215 50.7962 285.614 50.9489 285.924 51.2543C286.234 51.5573 286.389 52.0296 286.389 52.6712V56.3218H285.551V52.6712C285.551 52.2687 285.441 51.9811 285.221 51.8083C285.001 51.6355 284.741 51.549 284.443 51.549C284.059 51.549 283.762 51.6651 283.552 51.8971C283.341 52.1267 283.236 52.4179 283.236 52.7706V56.3218H282.383V52.586C282.383 52.2758 282.283 52.0261 282.081 51.8367C281.88 51.6449 281.621 51.549 281.304 51.549C281.086 51.549 280.882 51.6071 280.693 51.7231C280.506 51.8391 280.354 52 280.238 52.206C280.125 52.4096 280.068 52.6452 280.068 52.9127V56.3218H279.23ZM287.921 58.3672V50.8672H288.731V51.7337H288.83C288.892 51.639 288.977 51.5183 289.086 51.3715C289.197 51.2223 289.356 51.0898 289.562 50.9738C289.77 50.8554 290.052 50.7962 290.407 50.7962C290.866 50.7962 291.271 50.911 291.622 51.1407C291.972 51.3703 292.245 51.6958 292.442 52.1172C292.638 52.5386 292.737 53.0358 292.737 53.6087C292.737 54.1864 292.638 54.6871 292.442 55.1108C292.245 55.5322 291.973 55.8589 291.625 56.091C291.277 56.3206 290.876 56.4354 290.421 56.4354C290.071 56.4354 289.79 56.3774 289.58 56.2614C289.369 56.143 289.207 56.0093 289.093 55.8601C288.98 55.7086 288.892 55.5831 288.83 55.4837H288.759V58.3672H287.921ZM288.745 53.5945C288.745 54.0064 288.806 54.3698 288.926 54.6847C289.047 54.9972 289.223 55.2422 289.455 55.4198C289.687 55.595 289.972 55.6826 290.308 55.6826C290.658 55.6826 290.95 55.5902 291.185 55.4056C291.422 55.2186 291.599 54.9676 291.718 54.6527C291.838 54.3355 291.899 53.9828 291.899 53.5945C291.899 53.211 291.839 52.8653 291.721 52.5576C291.605 52.2474 291.429 52.0024 291.192 51.8225C290.958 51.6402 290.663 51.549 290.308 51.549C289.967 51.549 289.68 51.6355 289.448 51.8083C289.216 51.9787 289.041 52.2178 288.923 52.5256C288.804 52.831 288.745 53.1873 288.745 53.5945ZM294.853 49.049V56.3218H294.015V49.049H294.853ZM296.388 56.3218V50.8672H297.226V56.3218H296.388ZM296.814 49.9581C296.651 49.9581 296.51 49.9025 296.392 49.7912C296.276 49.68 296.218 49.5462 296.218 49.39C296.218 49.2337 296.276 49.0999 296.392 48.9887C296.51 48.8774 296.651 48.8218 296.814 48.8218C296.978 48.8218 297.117 48.8774 297.233 48.9887C297.352 49.0999 297.411 49.2337 297.411 49.39C297.411 49.5462 297.352 49.68 297.233 49.7912C297.117 49.9025 296.978 49.9581 296.814 49.9581ZM300.977 56.4354C300.466 56.4354 300.025 56.3147 299.656 56.0732C299.287 55.8317 299.003 55.4991 298.804 55.0753C298.605 54.6516 298.506 54.1674 298.506 53.6229C298.506 53.0689 298.607 52.5801 298.811 52.1563C299.017 51.7302 299.303 51.3975 299.67 51.1584C300.04 50.9169 300.47 50.7962 300.963 50.7962C301.346 50.7962 301.692 50.8672 302 51.0093C302.308 51.1513 302.56 51.3502 302.756 51.6059C302.953 51.8615 303.075 52.1598 303.122 52.5008H302.284C302.22 52.2522 302.078 52.032 301.858 51.8402C301.64 51.6461 301.346 51.549 300.977 51.549C300.65 51.549 300.364 51.6343 300.118 51.8047C299.874 51.9728 299.683 52.2107 299.546 52.5185C299.411 52.8239 299.344 53.1826 299.344 53.5945C299.344 54.0159 299.41 54.3829 299.542 54.6954C299.677 55.0079 299.867 55.2505 300.111 55.4233C300.357 55.5962 300.646 55.6826 300.977 55.6826C301.195 55.6826 301.393 55.6447 301.57 55.5689C301.748 55.4932 301.898 55.3843 302.021 55.2422C302.144 55.1002 302.232 54.9297 302.284 54.7309H303.122C303.075 55.0528 302.957 55.3428 302.77 55.6009C302.586 55.8566 302.341 56.0602 302.035 56.2117C301.732 56.3608 301.38 56.4354 300.977 56.4354ZM304.347 56.3218V50.8672H305.185V56.3218H304.347ZM304.773 49.9581C304.61 49.9581 304.469 49.9025 304.351 49.7912C304.235 49.68 304.177 49.5462 304.177 49.39C304.177 49.2337 304.235 49.0999 304.351 48.9887C304.469 48.8774 304.61 48.8218 304.773 48.8218C304.937 48.8218 305.076 48.8774 305.192 48.9887C305.311 49.0999 305.37 49.2337 305.37 49.39C305.37 49.5462 305.311 49.68 305.192 49.7912C305.076 49.9025 304.937 49.9581 304.773 49.9581ZM309.092 50.8672V51.5775H306.266V50.8672H309.092ZM307.089 49.5604H307.928V54.7593C307.928 54.996 307.962 55.1736 308.031 55.2919C308.102 55.408 308.192 55.4861 308.3 55.5263C308.412 55.5642 308.529 55.5831 308.652 55.5831C308.744 55.5831 308.82 55.5784 308.879 55.5689C308.938 55.5571 308.986 55.5476 309.021 55.5405L309.192 56.2934C309.135 56.3147 309.056 56.336 308.954 56.3573C308.852 56.381 308.723 56.3928 308.567 56.3928C308.33 56.3928 308.098 56.3419 307.871 56.2401C307.646 56.1383 307.459 55.9832 307.31 55.7749C307.163 55.5666 307.089 55.3038 307.089 54.9866V49.5604ZM311.308 49.049V56.3218H310.47V49.049H311.308ZM313.383 58.3672C313.241 58.3672 313.114 58.3554 313.003 58.3317C312.892 58.3104 312.815 58.2891 312.772 58.2678L312.985 57.5292C313.189 57.5812 313.369 57.6002 313.525 57.586C313.681 57.5718 313.82 57.5019 313.941 57.3765C314.064 57.2534 314.176 57.0533 314.278 56.7763L314.434 56.3502L312.417 50.8672H313.326L314.832 55.2138H314.889L316.394 50.8672H317.303L314.988 57.1172C314.884 57.399 314.755 57.6321 314.601 57.8168C314.447 58.0038 314.268 58.1423 314.065 58.2323C313.864 58.3223 313.636 58.3672 313.383 58.3672ZM323.438 56.4354C322.927 56.4354 322.486 56.3147 322.117 56.0732C321.748 55.8317 321.464 55.4991 321.265 55.0753C321.066 54.6516 320.966 54.1674 320.966 53.6229C320.966 53.0689 321.068 52.5801 321.272 52.1563C321.478 51.7302 321.764 51.3975 322.131 51.1584C322.501 50.9169 322.931 50.7962 323.424 50.7962C323.807 50.7962 324.153 50.8672 324.461 51.0093C324.769 51.1513 325.021 51.3502 325.217 51.6059C325.414 51.8615 325.536 52.1598 325.583 52.5008H324.745C324.681 52.2522 324.539 52.032 324.319 51.8402C324.101 51.6461 323.807 51.549 323.438 51.549C323.111 51.549 322.825 51.6343 322.579 51.8047C322.335 51.9728 322.144 52.2107 322.007 52.5185C321.872 52.8239 321.805 53.1826 321.805 53.5945C321.805 54.0159 321.871 54.3829 322.003 54.6954C322.138 55.0079 322.328 55.2505 322.572 55.4233C322.818 55.5962 323.107 55.6826 323.438 55.6826C323.656 55.6826 323.854 55.6447 324.031 55.5689C324.209 55.4932 324.359 55.3843 324.482 55.2422C324.605 55.1002 324.693 54.9297 324.745 54.7309H325.583C325.536 55.0528 325.418 55.3428 325.231 55.6009C325.047 55.8566 324.802 56.0602 324.496 56.2117C324.193 56.3608 323.84 56.4354 323.438 56.4354ZM329.024 56.4354C328.532 56.4354 328.099 56.3182 327.728 56.0839C327.358 55.8495 327.07 55.5216 326.861 55.1002C326.655 54.6788 326.552 54.1864 326.552 53.6229C326.552 53.0547 326.655 52.5588 326.861 52.135C327.07 51.7112 327.358 51.3821 327.728 51.1478C328.099 50.9134 328.532 50.7962 329.024 50.7962C329.516 50.7962 329.947 50.9134 330.317 51.1478C330.688 51.3821 330.977 51.7112 331.183 52.135C331.391 52.5588 331.496 53.0547 331.496 53.6229C331.496 54.1864 331.391 54.6788 331.183 55.1002C330.977 55.5216 330.688 55.8495 330.317 56.0839C329.947 56.3182 329.516 56.4354 329.024 56.4354ZM329.024 55.6826C329.398 55.6826 329.706 55.5867 329.947 55.3949C330.189 55.2032 330.367 54.951 330.483 54.6385C330.599 54.326 330.657 53.9875 330.657 53.6229C330.657 53.2583 330.599 52.9186 330.483 52.6037C330.367 52.2889 330.189 52.0344 329.947 51.8402C329.706 51.6461 329.398 51.549 329.024 51.549C328.65 51.549 328.342 51.6461 328.101 51.8402C327.859 52.0344 327.68 52.2889 327.564 52.6037C327.448 52.9186 327.39 53.2583 327.39 53.6229C327.39 53.9875 327.448 54.326 327.564 54.6385C327.68 54.951 327.859 55.2032 328.101 55.3949C328.342 55.5867 328.65 55.6826 329.024 55.6826ZM333.613 53.0405V56.3218H332.775V50.8672H333.585V51.7195H333.656C333.783 51.4425 333.978 51.22 334.238 51.0519C334.498 50.8814 334.835 50.7962 335.246 50.7962C335.616 50.7962 335.939 50.872 336.216 51.0235C336.493 51.1726 336.708 51.3999 336.862 51.7053C337.016 52.0083 337.093 52.3919 337.093 52.8559V56.3218H336.255V52.9127C336.255 52.4842 336.144 52.1504 335.921 51.9113C335.699 51.6698 335.393 51.549 335.005 51.549C334.737 51.549 334.498 51.6071 334.288 51.7231C334.079 51.8391 333.915 52.0083 333.794 52.2309C333.673 52.4534 333.613 52.7233 333.613 53.0405ZM342.889 50.8672L340.872 56.3218H340.02L338.003 50.8672H338.912L340.418 55.2138H340.475L341.98 50.8672H342.889ZM346.087 56.4354C345.562 56.4354 345.108 56.3194 344.727 56.0874C344.348 55.853 344.056 55.5263 343.85 55.1073C343.646 54.6859 343.545 54.1958 343.545 53.6371C343.545 53.0784 343.646 52.586 343.85 52.1598C344.056 51.7313 344.342 51.3975 344.709 51.1584C345.079 50.9169 345.51 50.7962 346.002 50.7962C346.286 50.7962 346.567 50.8436 346.844 50.9383C347.121 51.033 347.373 51.1868 347.6 51.3999C347.827 51.6106 348.008 51.89 348.143 52.238C348.278 52.586 348.346 53.0145 348.346 53.5235V53.8786H344.141V53.1542H347.493C347.493 52.8464 347.432 52.5718 347.309 52.3303C347.188 52.0888 347.015 51.8982 346.79 51.7586C346.568 51.6189 346.305 51.549 346.002 51.549C345.668 51.549 345.379 51.6319 345.135 51.7976C344.894 51.961 344.708 52.174 344.578 52.4368C344.448 52.6996 344.383 52.9813 344.383 53.282V53.765C344.383 54.1769 344.454 54.5261 344.596 54.8125C344.74 55.0966 344.94 55.3133 345.196 55.4624C345.452 55.6092 345.749 55.6826 346.087 55.6826C346.307 55.6826 346.506 55.6518 346.684 55.5902C346.864 55.5263 347.019 55.4316 347.149 55.3062C347.279 55.1783 347.38 55.0197 347.451 54.8303L348.26 55.0576C348.175 55.3322 348.032 55.5737 347.831 55.782C347.63 55.988 347.381 56.149 347.085 56.265C346.789 56.3786 346.456 56.4354 346.087 56.4354ZM349.621 56.3218V50.8672H350.43V51.6911H350.487C350.586 51.4212 350.766 51.2022 351.027 51.0341C351.287 50.866 351.581 50.782 351.907 50.782C351.969 50.782 352.046 50.7832 352.138 50.7856C352.231 50.7879 352.3 50.7915 352.348 50.7962V51.6485C352.319 51.6414 352.254 51.6307 352.153 51.6165C352.053 51.5999 351.948 51.5917 351.836 51.5917C351.571 51.5917 351.335 51.6473 351.126 51.7586C350.92 51.8675 350.757 52.019 350.636 52.2131C350.518 52.4049 350.459 52.6239 350.459 52.8701V56.3218H349.621ZM356.055 50.8672V51.5775H353.229V50.8672H356.055ZM354.052 49.5604H354.89V54.7593C354.89 54.996 354.925 55.1736 354.993 55.2919C355.064 55.408 355.154 55.4861 355.263 55.5263C355.375 55.5642 355.492 55.5831 355.615 55.5831C355.707 55.5831 355.783 55.5784 355.842 55.5689C355.901 55.5571 355.949 55.5476 355.984 55.5405L356.155 56.2934C356.098 56.3147 356.019 56.336 355.917 56.3573C355.815 56.381 355.686 56.3928 355.53 56.3928C355.293 56.3928 355.061 56.3419 354.834 56.2401C354.609 56.1383 354.422 55.9832 354.273 55.7749C354.126 55.5666 354.052 55.3038 354.052 54.9866V49.5604ZM362.501 50.8672V51.5775H359.674V50.8672H362.501ZM360.498 49.5604H361.336V54.7593C361.336 54.996 361.37 55.1736 361.439 55.2919C361.51 55.408 361.6 55.4861 361.709 55.5263C361.82 55.5642 361.937 55.5831 362.06 55.5831C362.153 55.5831 362.228 55.5784 362.287 55.5689C362.347 55.5571 362.394 55.5476 362.43 55.5405L362.6 56.2934C362.543 56.3147 362.464 56.336 362.362 56.3573C362.26 56.381 362.131 56.3928 361.975 56.3928C361.738 56.3928 361.506 56.3419 361.279 56.2401C361.054 56.1383 360.867 55.9832 360.718 55.7749C360.571 55.5666 360.498 55.3038 360.498 54.9866V49.5604ZM364.301 58.3672C364.159 58.3672 364.032 58.3554 363.921 58.3317C363.81 58.3104 363.733 58.2891 363.69 58.2678L363.903 57.5292C364.107 57.5812 364.287 57.6002 364.443 57.586C364.599 57.5718 364.738 57.5019 364.858 57.3765C364.982 57.2534 365.094 57.0533 365.196 56.7763L365.352 56.3502L363.335 50.8672H364.244L365.75 55.2138H365.807L367.312 50.8672H368.221L365.906 57.1172C365.802 57.399 365.673 57.6321 365.519 57.8168C365.365 58.0038 365.186 58.1423 364.983 58.2323C364.782 58.3223 364.554 58.3672 364.301 58.3672ZM369.328 58.3672V50.8672H370.137V51.7337H370.237C370.298 51.639 370.383 51.5183 370.492 51.3715C370.604 51.2223 370.762 51.0898 370.968 50.9738C371.177 50.8554 371.458 50.7962 371.813 50.7962C372.273 50.7962 372.677 50.911 373.028 51.1407C373.378 51.3703 373.652 51.6958 373.848 52.1172C374.045 52.5386 374.143 53.0358 374.143 53.6087C374.143 54.1864 374.045 54.6871 373.848 55.1108C373.652 55.5322 373.379 55.8589 373.031 56.091C372.683 56.3206 372.282 56.4354 371.828 56.4354C371.477 56.4354 371.197 56.3774 370.986 56.2614C370.775 56.143 370.613 56.0093 370.499 55.8601C370.386 55.7086 370.298 55.5831 370.237 55.4837H370.166V58.3672H369.328ZM370.151 53.5945C370.151 54.0064 370.212 54.3698 370.333 54.6847C370.453 54.9972 370.63 55.2422 370.862 55.4198C371.094 55.595 371.378 55.6826 371.714 55.6826C372.064 55.6826 372.357 55.5902 372.591 55.4056C372.828 55.2186 373.005 54.9676 373.124 54.6527C373.244 54.3355 373.305 53.9828 373.305 53.5945C373.305 53.211 373.246 52.8653 373.127 52.5576C373.011 52.2474 372.835 52.0024 372.598 51.8225C372.364 51.6402 372.069 51.549 371.714 51.549C371.373 51.549 371.087 51.6355 370.855 51.8083C370.623 51.9787 370.447 52.2178 370.329 52.5256C370.211 52.831 370.151 53.1873 370.151 53.5945ZM377.708 56.4354C377.183 56.4354 376.729 56.3194 376.348 56.0874C375.969 55.853 375.677 55.5263 375.471 55.1073C375.267 54.6859 375.166 54.1958 375.166 53.6371C375.166 53.0784 375.267 52.586 375.471 52.1598C375.677 51.7313 375.963 51.3975 376.33 51.1584C376.7 50.9169 377.131 50.7962 377.623 50.7962C377.907 50.7962 378.188 50.8436 378.465 50.9383C378.742 51.033 378.994 51.1868 379.221 51.3999C379.448 51.6106 379.629 51.89 379.764 52.238C379.899 52.586 379.967 53.0145 379.967 53.5235V53.8786H375.762V53.1542H379.115C379.115 52.8464 379.053 52.5718 378.93 52.3303C378.809 52.0888 378.636 51.8982 378.411 51.7586C378.189 51.6189 377.926 51.549 377.623 51.549C377.289 51.549 377 51.6319 376.757 51.7976C376.515 51.961 376.329 52.174 376.199 52.4368C376.069 52.6996 376.004 52.9813 376.004 53.282V53.765C376.004 54.1769 376.075 54.5261 376.217 54.8125C376.361 55.0966 376.561 55.3133 376.817 55.4624C377.073 55.6092 377.37 55.6826 377.708 55.6826C377.928 55.6826 378.127 55.6518 378.305 55.5902C378.485 55.5263 378.64 55.4316 378.77 55.3062C378.9 55.1783 379.001 55.0197 379.072 54.8303L379.882 55.0576C379.796 55.3322 379.653 55.5737 379.452 55.782C379.251 55.988 379.002 56.149 378.706 56.265C378.41 56.3786 378.078 56.4354 377.708 56.4354ZM383.77 51.3218V50.6826C383.77 50.4884 383.804 50.2825 383.873 50.0647C383.944 49.8445 384.046 49.6326 384.178 49.429C384.313 49.2231 384.476 49.0443 384.665 48.8928L385.119 49.2621C384.97 49.4752 384.84 49.6977 384.729 49.9297C384.62 50.1594 384.566 50.4056 384.566 50.6684V51.3218H383.77ZM389.91 52.0888L389.157 52.3019C389.11 52.1764 389.04 52.0545 388.948 51.9361C388.858 51.8154 388.735 51.716 388.578 51.6378C388.422 51.5597 388.222 51.5206 387.978 51.5206C387.644 51.5206 387.366 51.5976 387.144 51.7515C386.923 51.903 386.813 52.0959 386.813 52.3303C386.813 52.5386 386.889 52.7032 387.041 52.8239C387.192 52.9446 387.429 53.0453 387.751 53.1258L388.561 53.3246C389.048 53.443 389.412 53.6241 389.651 53.8679C389.89 54.1094 390.009 54.4207 390.009 54.8019C390.009 55.1144 389.919 55.3937 389.74 55.64C389.562 55.8862 389.313 56.0803 388.994 56.2223C388.674 56.3644 388.302 56.4354 387.879 56.4354C387.322 56.4354 386.862 56.3147 386.497 56.0732C386.133 55.8317 385.902 55.479 385.805 55.015L386.6 54.8161C386.676 55.1097 386.819 55.3298 387.03 55.4766C387.243 55.6234 387.521 55.6968 387.865 55.6968C388.255 55.6968 388.565 55.6139 388.795 55.4482C389.027 55.2801 389.143 55.0789 389.143 54.8445C389.143 54.6551 389.077 54.4965 388.944 54.3687C388.811 54.2384 388.608 54.1414 388.333 54.0775L387.424 53.8644C386.925 53.746 386.558 53.5625 386.323 53.314C386.091 53.063 385.975 52.7493 385.975 52.3729C385.975 52.0651 386.062 51.7929 386.235 51.5562C386.41 51.3194 386.648 51.1336 386.948 50.9986C387.251 50.8637 387.595 50.7962 387.978 50.7962C388.518 50.7962 388.942 50.9146 389.249 51.1513C389.56 51.3881 389.78 51.7006 389.91 52.0888ZM393.643 50.8672V51.5775H390.816V50.8672H393.643ZM391.64 49.5604H392.478V54.7593C392.478 54.996 392.513 55.1736 392.581 55.2919C392.652 55.408 392.742 55.4861 392.851 55.5263C392.962 55.5642 393.08 55.5831 393.203 55.5831C393.295 55.5831 393.371 55.5784 393.43 55.5689C393.489 55.5571 393.537 55.5476 393.572 55.5405L393.743 56.2934C393.686 56.3147 393.606 56.336 393.505 56.3573C393.403 56.381 393.274 56.3928 393.118 56.3928C392.881 56.3928 392.649 56.3419 392.422 56.2401C392.197 56.1383 392.01 55.9832 391.86 55.7749C391.714 55.5666 391.64 55.3038 391.64 54.9866V49.5604ZM394.904 56.3218V50.8672H395.713V51.6911H395.77C395.87 51.4212 396.05 51.2022 396.31 51.0341C396.57 50.866 396.864 50.782 397.191 50.782C397.252 50.782 397.329 50.7832 397.422 50.7856C397.514 50.7879 397.584 50.7915 397.631 50.7962V51.6485C397.603 51.6414 397.538 51.6307 397.436 51.6165C397.336 51.5999 397.231 51.5917 397.12 51.5917C396.855 51.5917 396.618 51.6473 396.409 51.7586C396.203 51.8675 396.04 52.019 395.919 52.2131C395.801 52.4049 395.742 52.6239 395.742 52.8701V56.3218H394.904ZM398.624 56.3218V50.8672H399.463V56.3218H398.624ZM399.051 49.9581C398.887 49.9581 398.746 49.9025 398.628 49.7912C398.512 49.68 398.454 49.5462 398.454 49.39C398.454 49.2337 398.512 49.0999 398.628 48.9887C398.746 48.8774 398.887 48.8218 399.051 48.8218C399.214 48.8218 399.354 48.8774 399.47 48.9887C399.588 49.0999 399.647 49.2337 399.647 49.39C399.647 49.5462 399.588 49.68 399.47 49.7912C399.354 49.9025 399.214 49.9581 399.051 49.9581ZM401.836 53.0405V56.3218H400.998V50.8672H401.807V51.7195H401.878C402.006 51.4425 402.2 51.22 402.461 51.0519C402.721 50.8814 403.057 50.7962 403.469 50.7962C403.838 50.7962 404.162 50.872 404.439 51.0235C404.716 51.1726 404.931 51.3999 405.085 51.7053C405.239 52.0083 405.316 52.3919 405.316 52.8559V56.3218H404.478V52.9127C404.478 52.4842 404.366 52.1504 404.144 51.9113C403.921 51.6698 403.616 51.549 403.228 51.549C402.96 51.549 402.721 51.6071 402.51 51.7231C402.302 51.8391 402.137 52.0083 402.017 52.2309C401.896 52.4534 401.836 52.7233 401.836 53.0405ZM409.049 58.4809C408.644 58.4809 408.296 58.4288 408.005 58.3246C407.714 58.2228 407.471 58.0879 407.277 57.9198C407.085 57.7541 406.932 57.5765 406.819 57.3871L407.486 56.9184C407.562 57.0178 407.658 57.1314 407.774 57.2593C407.89 57.3895 408.049 57.5019 408.25 57.5966C408.453 57.6937 408.72 57.7422 409.049 57.7422C409.489 57.7422 409.853 57.6357 410.139 57.4226C410.425 57.2096 410.569 56.8758 410.569 56.4212V55.3133H410.498C410.436 55.4127 410.349 55.5358 410.235 55.6826C410.124 55.827 409.963 55.956 409.752 56.0696C409.544 56.1809 409.262 56.2366 408.907 56.2366C408.466 56.2366 408.071 56.1324 407.721 55.9241C407.373 55.7157 407.097 55.4127 406.893 55.015C406.692 54.6172 406.591 54.1343 406.591 53.5661C406.591 53.0074 406.69 52.5209 406.886 52.1066C407.083 51.6899 407.356 51.3679 407.706 51.1407C408.057 50.911 408.462 50.7962 408.921 50.7962C409.276 50.7962 409.558 50.8554 409.766 50.9738C409.977 51.0898 410.138 51.2223 410.249 51.3715C410.363 51.5183 410.45 51.639 410.512 51.7337H410.597V50.8672H411.407V56.478C411.407 56.9468 411.3 57.3279 411.087 57.6215C410.876 57.9174 410.592 58.134 410.235 58.2714C409.88 58.411 409.484 58.4809 409.049 58.4809ZM409.02 55.4837C409.357 55.4837 409.641 55.4068 409.873 55.2529C410.105 55.099 410.281 54.8776 410.402 54.5888C410.523 54.3 410.583 53.9544 410.583 53.5519C410.583 53.1589 410.524 52.8121 410.405 52.5114C410.287 52.2107 410.112 51.9752 409.88 51.8047C409.648 51.6343 409.361 51.549 409.02 51.549C408.665 51.549 408.369 51.639 408.133 51.8189C407.898 51.9989 407.722 52.2403 407.604 52.5434C407.488 52.8464 407.43 53.1826 407.43 53.5519C407.43 53.9307 407.489 54.2657 407.607 54.5569C407.728 54.8457 407.905 55.073 408.14 55.2387C408.376 55.402 408.67 55.4837 409.02 55.4837ZM413.68 49.049V49.6883C413.68 49.8824 413.644 50.0895 413.573 50.3097C413.504 50.5275 413.403 50.7394 413.268 50.9454C413.135 51.149 412.974 51.3265 412.785 51.478L412.33 51.1087C412.479 50.8956 412.608 50.6743 412.717 50.4446C412.828 50.2126 412.884 49.9652 412.884 49.7025V49.049H413.68ZM419.971 50.8672V51.5775H417.145V50.8672H419.971ZM417.968 49.5604H418.806V54.7593C418.806 54.996 418.841 55.1736 418.909 55.2919C418.98 55.408 419.07 55.4861 419.179 55.5263C419.291 55.5642 419.408 55.5831 419.531 55.5831C419.623 55.5831 419.699 55.5784 419.758 55.5689C419.817 55.5571 419.865 55.5476 419.9 55.5405L420.071 56.2934C420.014 56.3147 419.935 56.336 419.833 56.3573C419.731 56.381 419.602 56.3928 419.446 56.3928C419.209 56.3928 418.977 56.3419 418.75 56.2401C418.525 56.1383 418.338 55.9832 418.189 55.7749C418.042 55.5666 417.968 55.3038 417.968 54.9866V49.5604ZM423.389 56.4354C422.897 56.4354 422.465 56.3182 422.093 56.0839C421.724 55.8495 421.435 55.5216 421.227 55.1002C421.021 54.6788 420.918 54.1864 420.918 53.6229C420.918 53.0547 421.021 52.5588 421.227 52.135C421.435 51.7112 421.724 51.3821 422.093 51.1478C422.465 50.9134 422.897 50.7962 423.389 50.7962C423.882 50.7962 424.313 50.9134 424.682 51.1478C425.054 51.3821 425.342 51.7112 425.548 52.135C425.757 52.5588 425.861 53.0547 425.861 53.6229C425.861 54.1864 425.757 54.6788 425.548 55.1002C425.342 55.5216 425.054 55.8495 424.682 56.0839C424.313 56.3182 423.882 56.4354 423.389 56.4354ZM423.389 55.6826C423.763 55.6826 424.071 55.5867 424.312 55.3949C424.554 55.2032 424.733 54.951 424.849 54.6385C424.965 54.326 425.023 53.9875 425.023 53.6229C425.023 53.2583 424.965 52.9186 424.849 52.6037C424.733 52.2889 424.554 52.0344 424.312 51.8402C424.071 51.6461 423.763 51.549 423.389 51.549C423.015 51.549 422.707 51.6461 422.466 51.8402C422.224 52.0344 422.046 52.2889 421.93 52.6037C421.814 52.9186 421.756 53.2583 421.756 53.6229C421.756 53.9875 421.814 54.326 421.93 54.6385C422.046 54.951 422.224 55.2032 422.466 55.3949C422.707 55.5867 423.015 55.6826 423.389 55.6826ZM429.669 51.3218V50.6826C429.669 50.4884 429.703 50.2825 429.771 50.0647C429.843 49.8445 429.944 49.6326 430.077 49.429C430.212 49.2231 430.374 49.0443 430.563 48.8928L431.018 49.2621C430.869 49.4752 430.739 49.6977 430.627 49.9297C430.518 50.1594 430.464 50.4056 430.464 50.6684V51.3218H429.669ZM431.945 56.3218V50.8672H432.783V56.3218H431.945ZM432.371 49.9581C432.208 49.9581 432.067 49.9025 431.948 49.7912C431.832 49.68 431.774 49.5462 431.774 49.39C431.774 49.2337 431.832 49.0999 431.948 48.9887C432.067 48.8774 432.208 48.8218 432.371 48.8218C432.534 48.8218 432.674 48.8774 432.79 48.9887C432.908 49.0999 432.968 49.2337 432.968 49.39C432.968 49.5462 432.908 49.68 432.79 49.7912C432.674 49.9025 432.534 49.9581 432.371 49.9581ZM435.156 53.0405V56.3218H434.318V50.8672H435.127V51.7195H435.199C435.326 51.4425 435.52 51.22 435.781 51.0519C436.041 50.8814 436.377 50.7962 436.789 50.7962C437.159 50.7962 437.482 50.872 437.759 51.0235C438.036 51.1726 438.251 51.3999 438.405 51.7053C438.559 52.0083 438.636 52.3919 438.636 52.8559V56.3218H437.798V52.9127C437.798 52.4842 437.687 52.1504 437.464 51.9113C437.242 51.6698 436.936 51.549 436.548 51.549C436.28 51.549 436.041 51.6071 435.831 51.7231C435.622 51.8391 435.458 52.0083 435.337 52.2309C435.216 52.4534 435.156 52.7233 435.156 53.0405ZM442.54 50.8672V51.5775H439.713V50.8672H442.54ZM440.537 49.5604H441.375V54.7593C441.375 54.996 441.409 55.1736 441.478 55.2919C441.549 55.408 441.639 55.4861 441.748 55.5263C441.859 55.5642 441.976 55.5831 442.099 55.5831C442.192 55.5831 442.267 55.5784 442.327 55.5689C442.386 55.5571 442.433 55.5476 442.469 55.5405L442.639 56.2934C442.582 56.3147 442.503 56.336 442.401 56.3573C442.299 56.381 442.17 56.3928 442.014 56.3928C441.777 56.3928 441.545 56.3419 441.318 56.2401C441.093 56.1383 440.906 55.9832 440.757 55.7749C440.61 55.5666 440.537 55.3038 440.537 54.9866V49.5604ZM444.822 49.049V49.6883C444.822 49.8824 444.787 50.0895 444.716 50.3097C444.647 50.5275 444.545 50.7394 444.41 50.9454C444.278 51.149 444.117 51.3265 443.927 51.478L443.473 51.1087C443.622 50.8956 443.751 50.6743 443.86 50.4446C443.971 50.2126 444.027 49.9652 444.027 49.7025V49.049H444.822Z" fill="#4A5568"/>
<defs>
</defs>
</svg>
