<svg width="368" height="72" viewBox="0 0 368 72" fill="none" xmlns="http://www.w3.org/2000/svg">
<rect y="12.2404" width="368" height="49" rx="5.09683" fill="#1A202C"/>
<path d="M20.7588 40.2404C20.0398 40.2404 19.4777 40.0479 19.0726 39.6631C18.6777 39.2783 18.4802 38.7364 18.4802 38.0376V33.1309H16.1256V31.8852H18.4802V29.5306H19.8474V31.8852H23.1894V33.1309H19.8474V38.0376C19.8474 38.6757 20.1512 38.9947 20.7588 38.9947H23.0375V40.2404H20.7588ZM25.69 40.2404V38.9947H28.6523V33.1309H26.0698V31.8852H30.0195V38.9947H32.8299V40.2404H25.69ZM29.184 30.3813C28.8498 30.3813 28.5865 30.2952 28.394 30.1231C28.2016 29.9509 28.1054 29.718 28.1054 29.4243C28.1054 29.1205 28.2016 28.8825 28.394 28.7103C28.5865 28.528 28.8498 28.4369 29.184 28.4369C29.5182 28.4369 29.7815 28.528 29.9739 28.7103C30.1663 28.8825 30.2626 29.1205 30.2626 29.4243C30.2626 29.718 30.1663 29.9509 29.9739 30.1231C29.7815 30.2952 29.5182 30.3813 29.184 30.3813ZM38.9763 40.2404C38.2573 40.2404 37.6952 40.0479 37.2901 39.6631C36.8951 39.2783 36.6977 38.7364 36.6977 38.0376V33.1309H34.343V31.8852H36.6977V29.5306H38.0649V31.8852H41.4069V33.1309H38.0649V38.0376C38.0649 38.6757 38.3687 38.9947 38.9763 38.9947H41.255V40.2404H38.9763ZM48.3129 40.2404C47.8268 40.2404 47.4015 40.1441 47.0369 39.9517C46.6723 39.7593 46.3887 39.4859 46.1862 39.1314C45.9836 38.7769 45.8823 38.3617 45.8823 37.8857V30.3965H43.072V29.1508H47.2495V37.8857C47.2495 38.2301 47.3458 38.5035 47.5382 38.7061C47.7306 38.8985 47.9889 38.9947 48.3129 38.9947H50.9714V40.2404H48.3129ZM56.2823 40.3923C55.624 40.3923 55.0468 40.2606 54.5505 39.9973C54.0644 39.734 53.6846 39.3643 53.4112 38.8883C53.1479 38.4022 53.0162 37.8402 53.0162 37.2021V34.9235C53.0162 34.2753 53.1479 33.7132 53.4112 33.2372C53.6846 32.7613 54.0644 32.3916 54.5505 32.1283C55.0468 31.865 55.624 31.7333 56.2823 31.7333C56.9406 31.7333 57.5128 31.865 57.9989 32.1283C58.4952 32.3916 58.8749 32.7613 59.1383 33.2372C59.4117 33.7132 59.5484 34.2753 59.5484 34.9235V36.397H54.3531V37.2021C54.3531 37.8604 54.5202 38.3668 54.8544 38.7212C55.1886 39.0656 55.6646 39.2377 56.2823 39.2377C56.809 39.2377 57.2343 39.1466 57.5584 38.9643C57.8825 38.7719 58.0799 38.4883 58.1508 38.1136H59.518C59.4269 38.8124 59.0826 39.3694 58.485 39.7846C57.8977 40.1897 57.1634 40.3923 56.2823 40.3923ZM58.2116 35.4855V34.9235C58.2116 34.2652 58.0445 33.7588 57.7103 33.4044C57.3862 33.0499 56.9102 32.8727 56.2823 32.8727C55.6646 32.8727 55.1886 33.0499 54.8544 33.4044C54.5202 33.7588 54.3531 34.2652 54.3531 34.9235V35.364H58.3179L58.2116 35.4855Z" fill="#7F9CF5"/>
<path d="M65.3911 34.012C65.0164 34.012 64.7125 33.9107 64.4796 33.7082C64.2467 33.4955 64.1302 33.217 64.1302 32.8727C64.1302 32.5283 64.2467 32.2549 64.4796 32.0523C64.7125 31.8397 65.0164 31.7333 65.3911 31.7333C65.7759 31.7333 66.0797 31.8397 66.3025 32.0523C66.5355 32.2549 66.6519 32.5283 66.6519 32.8727C66.6519 33.217 66.5355 33.4955 66.3025 33.7082C66.0797 33.9107 65.7759 34.012 65.3911 34.012ZM65.3911 40.3923C65.0164 40.3923 64.7125 40.291 64.4796 40.0884C64.2467 39.8758 64.1302 39.5973 64.1302 39.2529C64.1302 38.9086 64.2467 38.6352 64.4796 38.4326C64.7125 38.2199 65.0164 38.1136 65.3911 38.1136C65.7759 38.1136 66.0797 38.2199 66.3025 38.4326C66.5355 38.6352 66.6519 38.9086 66.6519 39.2529C66.6519 39.5973 66.5355 39.8758 66.3025 40.0884C66.0797 40.291 65.7759 40.3923 65.3911 40.3923Z" fill="#CBD5E0"/>
<path d="M82.9249 41.9114V27.6317H84.2921V41.9114H82.9249Z" fill="#A0AEC0"/>
<path d="M102.066 0.506348H313.199C316.272 0.506348 318.763 2.99722 318.763 6.06982V116.703C318.763 119.775 316.272 122.266 313.199 122.266H102.066C98.9939 122.266 96.5031 119.775 96.5029 116.703V6.06982C96.5029 2.99722 98.9938 0.506348 102.066 0.506348Z" fill="#1A202C" stroke="#4A5568" stroke-width="1.01153"/>
<path opacity="0.82" d="M95.9971 6.06921C95.9971 2.71698 98.7141 0 102.066 0H313.2C316.552 0 319.269 2.71698 319.269 6.06921V24.9707H95.9971V6.06921Z" fill="#4A5568"/>
<path d="M117.53 14.9254V9.52982C117.53 9.29413 117.467 9.06147 117.349 8.85714C117.231 8.6518 117.061 8.48188 116.856 8.36354L112.136 5.66575C111.93 5.5474 111.698 5.48572 111.461 5.48572C111.224 5.48572 110.991 5.5474 110.787 5.66575L106.066 8.36354C105.862 8.48188 105.691 8.6518 105.573 8.85714C105.454 9.06147 105.393 9.29413 105.392 9.52982V14.9254C105.393 15.1621 105.454 15.3937 105.573 15.599C105.691 15.8034 105.862 15.9733 106.066 16.0916L110.787 18.7894C110.991 18.9077 111.224 18.9695 111.461 18.9695C111.698 18.9695 111.93 18.9077 112.136 18.7894L116.856 16.0916C117.061 15.9733 117.231 15.8034 117.349 15.599C117.467 15.3937 117.53 15.1621 117.53 14.9254Z" stroke="#A3BFFA" stroke-width="1.5173" stroke-linecap="round" stroke-linejoin="round"/>
<path d="M105.574 8.82721L111.461 12.2331L117.348 8.82721" stroke="#A3BFFA" stroke-width="1.5173" stroke-linecap="round" stroke-linejoin="round"/>
<path d="M111.457 19.0244V12.2269" stroke="#A3BFFA" stroke-width="1.5173" stroke-linecap="round" stroke-linejoin="round"/>
<path d="M128.608 17.2972C128.15 17.2972 127.765 17.2072 127.455 17.0281C127.149 16.844 126.904 16.6043 126.719 16.3089C126.53 16.0196 126.393 15.6929 126.309 15.3288C126.23 14.9606 126.19 14.5894 126.19 14.2151V13.8833C126.19 13.5141 126.23 13.1479 126.309 12.7848C126.393 12.4206 126.53 12.0919 126.719 11.7965C126.91 11.5072 127.156 11.2725 127.462 11.0935C127.774 10.9094 128.155 10.8163 128.608 10.8163C128.903 10.8163 129.178 10.8669 129.43 10.9671C129.688 11.0672 129.91 11.2037 130.094 11.3777C130.278 11.5517 130.424 11.754 130.529 11.9867C130.639 12.2133 130.697 12.455 130.703 12.7129H132.086C132.086 12.281 131.999 11.8754 131.825 11.4961C131.651 11.1167 131.411 10.788 131.105 10.5088C130.795 10.2347 130.426 10.0182 129.999 9.86041C129.578 9.69755 129.114 9.61561 128.608 9.61561C127.961 9.61561 127.394 9.73095 126.91 9.96361C126.424 10.1952 126.022 10.5058 125.7 10.8962C125.373 11.2907 125.128 11.7469 124.965 12.2628C124.802 12.7787 124.721 13.3189 124.721 13.8833V14.2151C124.721 14.7836 124.802 15.3267 124.965 15.8426C125.128 16.3535 125.373 16.8046 125.7 17.194C126.022 17.5895 126.424 17.9031 126.91 18.1348C127.394 18.3664 127.961 18.4827 128.608 18.4827C129.061 18.4827 129.496 18.4059 129.912 18.2531C130.329 18.0953 130.697 17.8839 131.019 17.6209C131.34 17.363 131.595 17.0625 131.785 16.7196C131.98 16.3727 132.081 16.0085 132.086 15.6292H130.703C130.697 15.8669 130.634 16.0874 130.513 16.2928C130.396 16.4931 130.242 16.667 130.046 16.8147C129.851 16.9675 129.628 17.0858 129.375 17.1708C129.127 17.2547 128.872 17.2972 128.608 17.2972ZM134.275 13.9703V14.1433C134.275 14.7603 134.364 15.3318 134.543 15.8588C134.723 16.3858 134.981 16.844 135.318 17.2335C135.649 17.6239 136.055 17.9294 136.534 18.1499C137.019 18.3715 137.564 18.4827 138.17 18.4827C138.771 18.4827 139.311 18.3715 139.791 18.1499C140.27 17.9294 140.679 17.6239 141.015 17.2335C141.347 16.844 141.603 16.3858 141.782 15.8588C141.961 15.3318 142.05 14.7603 142.05 14.1433V13.9703C142.05 13.3533 141.961 12.7817 141.782 12.2547C141.603 11.7226 141.347 11.2614 141.015 10.8719C140.679 10.4825 140.267 10.177 139.782 9.95552C139.303 9.72893 138.761 9.61561 138.155 9.61561C137.554 9.61561 137.014 9.72893 136.534 9.95552C136.055 10.177 135.649 10.4825 135.318 10.8719C134.981 11.2614 134.723 11.7226 134.543 12.2547C134.364 12.7817 134.275 13.3533 134.275 13.9703ZM135.736 14.1433V13.9703C135.736 13.5535 135.787 13.156 135.887 12.7767C135.987 12.3923 136.14 12.0544 136.345 11.7651C136.546 11.4748 136.795 11.2462 137.096 11.0773C137.396 10.9033 137.749 10.8163 138.155 10.8163C138.56 10.8163 138.914 10.9033 139.214 11.0773C139.519 11.2462 139.774 11.4748 139.98 11.7651C140.18 12.0544 140.331 12.3923 140.431 12.7767C140.536 13.156 140.589 13.5535 140.589 13.9703V14.1433C140.589 14.5651 140.539 14.9687 140.439 15.3531C140.339 15.7324 140.188 16.0662 139.988 16.3565C139.782 16.6458 139.528 16.8754 139.221 17.0443C138.922 17.2123 138.571 17.2972 138.17 17.2972C137.764 17.2972 137.409 17.2123 137.104 17.0443C136.798 16.8754 136.546 16.6458 136.345 16.3565C136.14 16.0662 135.987 15.7324 135.887 15.3531C135.787 14.9687 135.736 14.5651 135.736 14.1433ZM144.405 18.3239H145.868V12.192C145.968 12.0069 146.083 11.839 146.216 11.6863C146.352 11.5335 146.5 11.399 146.658 11.2826C146.853 11.1511 147.066 11.049 147.298 10.9751C147.53 10.8962 147.78 10.8558 148.049 10.8558C148.359 10.8558 148.633 10.8932 148.871 10.9671C149.113 11.0409 149.318 11.1592 149.487 11.3221C149.65 11.486 149.774 11.6994 149.858 11.9624C149.942 12.2264 149.985 12.5471 149.985 12.9264V18.3239H151.446V12.895C151.446 12.3265 151.376 11.8359 151.233 11.4252C151.096 11.0085 150.899 10.6666 150.641 10.3975C150.382 10.1295 150.069 9.93122 149.701 9.80478C149.336 9.67834 148.931 9.61561 148.484 9.61561C148.152 9.62067 147.835 9.67126 147.535 9.76533C147.24 9.85536 146.966 9.98382 146.713 10.1527C146.545 10.264 146.384 10.3955 146.231 10.5483C146.083 10.696 145.947 10.8588 145.82 11.0378L145.717 9.77342H144.405V18.3239ZM157.587 7.70281H156.118V9.77342H153.873V10.9033H156.118V15.5503C156.118 16.0773 156.185 16.5274 156.323 16.9017C156.465 17.2709 156.657 17.5703 156.9 17.803C157.142 18.0397 157.427 18.2137 157.753 18.3239C158.085 18.4291 158.44 18.4827 158.819 18.4827C159.046 18.4827 159.273 18.4716 159.499 18.4504C159.731 18.4291 159.95 18.3978 160.156 18.3563C160.361 18.3189 160.55 18.2744 160.724 18.2218C160.898 18.1631 161.046 18.0973 161.167 18.0235L160.962 16.9887C160.872 17.0099 160.757 17.0362 160.614 17.0676C160.476 17.0939 160.33 17.1202 160.171 17.1465C160.008 17.1728 159.842 17.1971 159.673 17.2183C159.505 17.2335 159.341 17.2416 159.184 17.2416C158.967 17.2416 158.762 17.2153 158.567 17.1627C158.377 17.1101 158.209 17.018 158.061 16.8855C157.914 16.7591 157.798 16.5881 157.714 16.3727C157.629 16.1562 157.587 15.8821 157.587 15.5503V10.9033H160.843V9.77342H157.587V7.70281ZM169.465 18.3239H170.99V18.1975C170.895 17.9608 170.821 17.6836 170.769 17.368C170.716 17.0463 170.69 16.7439 170.69 16.4597V12.4844C170.69 12.0049 170.603 11.5861 170.429 11.228C170.255 10.8689 170.018 10.5695 169.718 10.3267C169.412 10.09 169.051 9.91303 168.635 9.79771C168.219 9.67633 167.769 9.61561 167.284 9.61561C166.752 9.61561 166.275 9.68948 165.854 9.83716C165.437 9.98384 165.084 10.177 164.795 10.4137C164.499 10.6565 164.273 10.9276 164.115 11.228C163.962 11.5284 163.883 11.8339 163.877 12.1444H165.348C165.348 11.9654 165.389 11.7945 165.474 11.6306C165.563 11.4617 165.688 11.317 165.846 11.1956C166.003 11.0753 166.196 10.9771 166.422 10.9033C166.654 10.8295 166.915 10.793 167.205 10.793C167.516 10.793 167.795 10.8325 168.043 10.9114C168.296 10.9903 168.509 11.1016 168.682 11.2432C168.856 11.3909 168.99 11.5679 169.086 11.7732C169.181 11.9786 169.228 12.2102 169.228 12.4681V13.1398H167.631C167.036 13.1398 166.496 13.1985 166.011 13.3138C165.532 13.4301 165.121 13.6041 164.778 13.8358C164.437 14.0725 164.171 14.3678 163.98 14.7209C163.796 15.0739 163.704 15.4846 163.704 15.9539C163.704 16.312 163.772 16.6458 163.91 16.9574C164.051 17.2628 164.251 17.5258 164.509 17.7473C164.762 17.9739 165.071 18.153 165.435 18.2845C165.803 18.416 166.214 18.4827 166.667 18.4827C166.946 18.4827 167.21 18.4534 167.458 18.3958C167.705 18.3371 167.939 18.2582 168.161 18.158C168.376 18.0579 168.575 17.9426 168.754 17.8101C168.938 17.6786 169.104 17.539 169.251 17.3913C169.268 17.5703 169.291 17.7443 169.322 17.9132C169.36 18.0761 169.407 18.2137 169.465 18.3239ZM166.88 17.2102C166.596 17.2102 166.346 17.1728 166.13 17.099C165.913 17.0251 165.734 16.923 165.593 16.7915C165.45 16.665 165.342 16.5123 165.268 16.3332C165.2 16.1532 165.166 15.959 165.166 15.7475C165.166 15.527 165.205 15.3288 165.284 15.1548C165.368 14.9818 165.49 14.8311 165.647 14.7046C165.869 14.5256 166.166 14.3941 166.541 14.3102C166.92 14.2201 167.363 14.1756 167.869 14.1756H169.228V15.9064C169.143 16.0743 169.028 16.2381 168.88 16.3959C168.733 16.5487 168.559 16.6852 168.358 16.8066C168.153 16.928 167.926 17.0251 167.679 17.099C167.431 17.1728 167.165 17.2102 166.88 17.2102ZM173.795 9.77342V11.0459H176.703V17.0595H173.795V18.3239H180.955V17.0595H178.165V9.77342H173.795ZM176.514 7.52883C176.514 7.76654 176.585 7.96379 176.728 8.12159C176.874 8.2804 177.096 8.35931 177.391 8.35931C177.681 8.35931 177.899 8.2804 178.047 8.12159C178.194 7.96379 178.268 7.76654 178.268 7.52883C178.268 7.39733 178.247 7.27594 178.206 7.16568C178.163 7.05542 178.099 6.96238 178.015 6.88955C177.947 6.82077 177.86 6.76815 177.754 6.73073C177.649 6.68925 177.528 6.66803 177.391 6.66803C177.254 6.66803 177.13 6.68925 177.02 6.73073C176.914 6.76815 176.828 6.82077 176.759 6.88955C176.674 6.96845 176.611 7.06253 176.569 7.1738C176.532 7.28405 176.514 7.40239 176.514 7.52883ZM183.286 18.3239H184.748V12.192C184.848 12.0069 184.965 11.839 185.096 11.6863C185.233 11.5335 185.38 11.399 185.539 11.2826C185.733 11.1511 185.947 11.049 186.178 10.9751C186.41 10.8962 186.661 10.8558 186.93 10.8558C187.241 10.8558 187.515 10.8932 187.751 10.9671C187.994 11.0409 188.199 11.1592 188.367 11.3221C188.531 11.486 188.655 11.6994 188.74 11.9624C188.824 12.2264 188.866 12.5471 188.866 12.9264V18.3239H190.328V12.895C190.328 12.3265 190.257 11.8359 190.114 11.4252C189.978 11.0085 189.779 10.6666 189.522 10.3975C189.264 10.1295 188.95 9.93122 188.581 9.80478C188.218 9.67834 187.812 9.61561 187.364 9.61561C187.032 9.62067 186.717 9.67126 186.416 9.76533C186.121 9.85536 185.847 9.98382 185.594 10.1527C185.426 10.264 185.265 10.3955 185.112 10.5483C184.965 10.696 184.827 10.8588 184.701 11.0378L184.598 9.77342H183.286V18.3239ZM198.689 16.0561C198.689 16.1926 198.662 16.3221 198.609 16.4435C198.557 16.5649 198.481 16.6751 198.381 16.7753C198.217 16.9381 197.99 17.0676 197.701 17.1627C197.411 17.2517 197.072 17.2972 196.681 17.2972C196.433 17.2972 196.184 17.2709 195.931 17.2183C195.678 17.1647 195.448 17.0757 195.243 16.9492C195.032 16.8228 194.855 16.6569 194.714 16.4516C194.576 16.2462 194.497 15.9934 194.476 15.6929H193.014C193.014 16.0561 193.096 16.4061 193.259 16.7439C193.428 17.0808 193.671 17.3761 193.986 17.629C194.297 17.887 194.679 18.0953 195.133 18.2531C195.586 18.4059 196.102 18.4827 196.681 18.4827C197.187 18.4827 197.653 18.4221 198.08 18.3007C198.507 18.1793 198.873 18.0083 199.179 17.7868C199.484 17.5653 199.721 17.2992 199.89 16.9887C200.064 16.6781 200.151 16.3332 200.151 15.9539C200.151 15.6009 200.074 15.2893 199.921 15.0213C199.773 14.7522 199.558 14.5155 199.274 14.3102C198.989 14.1099 198.639 13.9379 198.223 13.7963C197.806 13.6486 197.335 13.5191 196.808 13.4089C196.407 13.33 196.075 13.2481 195.812 13.1641C195.554 13.0791 195.348 12.985 195.195 12.8788C195.037 12.7736 194.927 12.6553 194.863 12.5238C194.801 12.3923 194.769 12.2416 194.769 12.0737C194.769 11.9098 194.809 11.752 194.888 11.5993C194.967 11.4465 195.085 11.312 195.243 11.1956C195.396 11.0803 195.588 10.9883 195.82 10.9195C196.057 10.8507 196.331 10.8163 196.642 10.8163C196.942 10.8163 197.211 10.8588 197.448 10.9428C197.691 11.0277 197.896 11.138 198.064 11.2756C198.233 11.4121 198.364 11.5699 198.459 11.7489C198.555 11.9229 198.602 12.102 198.602 12.2871H200.064C200.064 11.9128 199.982 11.5648 199.819 11.2432C199.66 10.9165 199.434 10.6322 199.139 10.3905C198.844 10.1477 198.486 9.95751 198.064 9.82096C197.643 9.6844 197.169 9.61561 196.642 9.61561C196.152 9.61561 195.701 9.68137 195.29 9.81287C194.885 9.94437 194.535 10.1234 194.239 10.35C193.944 10.5766 193.715 10.8426 193.552 11.1491C193.389 11.4485 193.307 11.7732 193.307 12.1202C193.307 12.4732 193.386 12.7848 193.544 13.0528C193.702 13.3168 193.926 13.5454 194.216 13.7407C194.5 13.9409 194.842 14.1119 195.243 14.2545C195.648 14.3962 196.097 14.5175 196.586 14.6177C196.987 14.6966 197.322 14.7866 197.591 14.8867C197.859 14.9818 198.075 15.087 198.238 15.2023C198.402 15.3187 198.517 15.4481 198.586 15.5897C198.655 15.7273 198.689 15.8821 198.689 16.0561Z" fill="#CBD5E0"/>
<path d="M117.53 37.1784V31.7828C117.53 31.5471 117.467 31.3145 117.349 31.1101C117.231 30.9048 117.061 30.7349 116.856 30.6165L112.136 27.9187C111.93 27.8004 111.698 27.7387 111.461 27.7387C111.224 27.7387 110.991 27.8004 110.787 27.9187L106.066 30.6165C105.862 30.7349 105.691 30.9048 105.573 31.1101C105.454 31.3145 105.393 31.5471 105.392 31.7828V37.1784C105.393 37.4151 105.454 37.6467 105.573 37.852C105.691 38.0563 105.862 38.2263 106.066 38.3446L110.787 41.0424C110.991 41.1607 111.224 41.2225 111.461 41.2225C111.698 41.2225 111.93 41.1607 112.136 41.0424L116.856 38.3446C117.061 38.2263 117.231 38.0563 117.349 37.852C117.467 37.6467 117.53 37.4151 117.53 37.1784Z" stroke="#5A67D8" stroke-width="1.5173" stroke-linecap="round" stroke-linejoin="round"/>
<path d="M105.574 31.0814L111.461 34.4873L117.348 31.0814" stroke="#5A67D8" stroke-width="1.5173" stroke-linecap="round" stroke-linejoin="round"/>
<path d="M111.457 41.2786V34.4811" stroke="#5A67D8" stroke-width="1.5173" stroke-linecap="round" stroke-linejoin="round"/>
<path d="M128.748 40.736C129.58 40.736 130.278 40.569 130.842 40.2373C131.411 39.9004 131.838 39.5161 132.122 39.0841L131.229 38.3882C130.961 38.7361 130.623 39.0153 130.217 39.2257C129.812 39.4371 129.349 39.5424 128.827 39.5424C128.432 39.5424 128.071 39.4685 127.744 39.3208C127.418 39.1731 127.138 38.9708 126.907 38.7129C126.68 38.4701 126.501 38.1909 126.37 37.8743C126.243 37.5587 126.161 37.1925 126.124 36.7758V36.7212H132.232V36.0647C132.232 35.4699 132.157 34.9166 132.004 34.4058C131.856 33.8939 131.63 33.4489 131.324 33.0695C131.019 32.6963 130.634 32.4039 130.17 32.1925C129.712 31.9771 129.175 31.8688 128.559 31.8688C128.068 31.8688 127.588 31.969 127.12 32.1693C126.656 32.3696 126.243 32.6568 125.879 33.0301C125.511 33.4094 125.215 33.8737 124.994 34.4209C124.772 34.9641 124.662 35.5802 124.662 36.27V36.6028C124.662 37.1976 124.762 37.7479 124.963 38.2536C125.163 38.7594 125.442 39.1974 125.8 39.5656C126.158 39.9348 126.588 40.2221 127.088 40.4275C127.594 40.6328 128.147 40.736 128.748 40.736ZM128.559 33.0695C128.932 33.0695 129.253 33.1383 129.523 33.2759C129.797 33.4125 130.022 33.5915 130.202 33.813C130.381 34.0346 130.521 34.2975 130.621 34.603C130.721 34.9034 130.771 35.1857 130.771 35.4486V35.5195H126.171C126.229 35.125 126.329 34.777 126.472 34.4766C126.619 34.1711 126.798 33.9131 127.009 33.7017C127.22 33.4964 127.457 33.3416 127.72 33.2354C127.984 33.1252 128.263 33.0695 128.559 33.0695ZM134.69 40.5771H136.152V34.4452C136.252 34.2601 136.369 34.0922 136.5 33.9395C136.638 33.7867 136.784 33.6522 136.943 33.5358C137.137 33.4043 137.351 33.3022 137.582 33.2284C137.815 33.1495 138.065 33.109 138.334 33.109C138.645 33.109 138.919 33.1464 139.155 33.2203C139.398 33.2941 139.603 33.4124 139.772 33.5753C139.935 33.7392 140.059 33.9526 140.144 34.2156C140.228 34.4796 140.27 34.8003 140.27 35.1796V40.5771H141.732V35.1482C141.732 34.5797 141.661 34.0891 141.518 33.6785C141.382 33.2617 141.183 32.9198 140.926 32.6508C140.668 32.3827 140.354 32.1844 139.985 32.058C139.622 31.9316 139.216 31.8688 138.768 31.8688C138.436 31.8739 138.121 31.9245 137.82 32.0185C137.525 32.1086 137.251 32.237 136.998 32.406C136.83 32.5172 136.669 32.6487 136.516 32.8015C136.369 32.9492 136.232 33.112 136.106 33.2911L136.002 32.0266H134.69V40.5771ZM144.134 36.2306V36.3965C144.134 37.0084 144.216 37.58 144.379 38.112C144.543 38.6391 144.771 39.0973 145.067 39.4867C145.362 39.8772 145.717 40.1826 146.134 40.4032C146.555 40.6247 147.024 40.736 147.54 40.736C148.067 40.736 148.528 40.6459 148.923 40.4669C149.318 40.2878 149.658 40.0238 149.942 39.6769L150.006 40.5771H151.349V28.4387H149.888V32.8723C149.608 32.5455 149.276 32.2977 148.891 32.1298C148.512 31.9558 148.067 31.8688 147.556 31.8688C147.034 31.8688 146.563 31.9771 146.141 32.1925C145.72 32.409 145.362 32.7094 145.067 33.0938C144.766 33.4782 144.535 33.9394 144.371 34.4766C144.213 35.0086 144.134 35.5933 144.134 36.2306ZM145.596 36.3965V36.2306C145.596 35.8148 145.641 35.4193 145.73 35.0461C145.82 34.6668 145.96 34.3319 146.149 34.0416C146.333 33.7574 146.571 33.5308 146.86 33.3619C147.156 33.194 147.509 33.109 147.919 33.109C148.399 33.109 148.799 33.2223 149.121 33.4489C149.442 33.6704 149.698 33.9546 149.888 34.3026V38.2698C149.698 38.6441 149.442 38.9415 149.121 39.163C148.799 39.3846 148.394 39.4948 147.904 39.4948C147.498 39.4948 147.151 39.4129 146.86 39.25C146.571 39.0811 146.333 38.8545 146.149 38.5702C145.96 38.286 145.82 37.9563 145.73 37.582C145.641 37.2087 145.596 36.8132 145.596 36.3965ZM159.813 38.3093C159.813 38.4458 159.787 38.5753 159.734 38.6967C159.681 38.8181 159.605 38.9283 159.504 39.0285C159.342 39.1913 159.115 39.3208 158.825 39.4159C158.535 39.5049 158.195 39.5504 157.806 39.5504C157.558 39.5504 157.307 39.5241 157.054 39.4715C156.802 39.4179 156.573 39.3289 156.368 39.2025C156.156 39.076 155.98 38.9101 155.838 38.7048C155.701 38.4995 155.622 38.2466 155.601 37.9462H154.139C154.139 38.3093 154.22 38.6593 154.384 38.9971C154.552 39.334 154.795 39.6293 155.111 39.8822C155.422 40.1402 155.803 40.3485 156.256 40.5063C156.71 40.6591 157.226 40.736 157.806 40.736C158.312 40.736 158.778 40.6753 159.204 40.5539C159.631 40.4325 159.997 40.2615 160.302 40.04C160.608 39.8185 160.846 39.5524 161.015 39.2419C161.188 38.9314 161.275 38.5865 161.275 38.2071C161.275 37.8541 161.199 37.5426 161.046 37.2745C160.898 37.0054 160.682 36.7687 160.398 36.5634C160.113 36.3631 159.763 36.1911 159.347 36.0495C158.931 35.9018 158.458 35.7723 157.932 35.6621C157.532 35.5832 157.2 35.5013 156.936 35.4173C156.678 35.3323 156.473 35.2383 156.32 35.1321C156.162 35.0269 156.051 34.9085 155.988 34.777C155.925 34.6455 155.893 34.4948 155.893 34.3269C155.893 34.163 155.933 34.0052 156.012 33.8525C156.09 33.6997 156.21 33.5652 156.368 33.4489C156.52 33.3335 156.713 33.2415 156.944 33.1727C157.181 33.1039 157.455 33.0695 157.767 33.0695C158.066 33.0695 158.335 33.112 158.572 33.196C158.815 33.2809 159.02 33.3912 159.189 33.5288C159.357 33.6653 159.489 33.8231 159.583 34.0022C159.678 34.1761 159.726 34.3552 159.726 34.5403H161.188C161.188 34.166 161.107 33.8181 160.943 33.4964C160.785 33.1697 160.558 32.8854 160.263 32.6437C159.969 32.4009 159.61 32.2107 159.189 32.0742C158.767 31.9376 158.293 31.8688 157.767 31.8688C157.276 31.8688 156.826 31.9346 156.415 32.0661C156.01 32.1976 155.659 32.3766 155.364 32.6032C155.069 32.8298 154.839 33.0958 154.676 33.4023C154.512 33.7017 154.432 34.0264 154.432 34.3734C154.432 34.7264 154.51 35.038 154.668 35.306C154.826 35.57 155.051 35.7986 155.34 35.9939C155.624 36.1942 155.967 36.3651 156.368 36.5078C156.773 36.6494 157.221 36.7707 157.711 36.8709C158.111 36.9498 158.445 37.0398 158.714 37.14C158.983 37.235 159.199 37.3402 159.363 37.4555C159.526 37.5719 159.642 37.7013 159.71 37.843C159.779 37.9805 159.813 38.1353 159.813 38.3093ZM164.452 40.5771H165.953L167.36 32.3979L167.447 31.9083L167.526 32.3908L168.925 40.5771H170.418L171.817 29.0709H170.434L169.605 36.9892L169.557 37.4636L169.47 36.9973L168.071 29.0709H166.799L165.408 36.9892L165.321 37.4636L165.273 37.0054L164.444 29.0709H163.053L164.452 40.5771ZM173.8 32.0266V33.2991H176.709V39.3127H173.8V40.5771H180.96V39.3127H178.17V32.0266H173.8ZM176.519 29.782C176.519 30.0198 176.59 30.217 176.733 30.3748C176.88 30.5336 177.101 30.6125 177.396 30.6125C177.686 30.6125 177.904 30.5336 178.052 30.3748C178.2 30.217 178.273 30.0198 178.273 29.782C178.273 29.6505 178.252 29.5291 178.211 29.4189C178.168 29.3086 178.104 29.2156 178.021 29.1428C177.952 29.074 177.865 29.0214 177.76 28.9839C177.654 28.9425 177.533 28.9212 177.396 28.9212C177.259 28.9212 177.135 28.9425 177.025 28.9839C176.919 29.0214 176.833 29.074 176.764 29.1428C176.679 29.2217 176.616 29.3157 176.574 29.427C176.538 29.5373 176.519 29.6556 176.519 29.782ZM186.753 29.956H185.283V32.0266H183.039V33.1565H185.283V37.8035C185.283 38.3305 185.351 38.7806 185.489 39.1549C185.63 39.5241 185.823 39.8236 186.065 40.0562C186.308 40.2929 186.592 40.4669 186.919 40.5771C187.251 40.6823 187.607 40.736 187.986 40.736C188.213 40.736 188.438 40.7248 188.665 40.7036C188.898 40.6823 189.116 40.651 189.321 40.6095C189.527 40.5721 189.717 40.5276 189.89 40.475C190.064 40.4163 190.212 40.3506 190.333 40.2767L190.128 39.2419C190.038 39.2631 189.922 39.2894 189.78 39.3208C189.643 39.3471 189.495 39.3734 189.338 39.3997C189.174 39.426 189.008 39.4503 188.839 39.4715C188.671 39.4867 188.507 39.4948 188.349 39.4948C188.133 39.4948 187.927 39.4685 187.733 39.4159C187.543 39.3633 187.374 39.2712 187.227 39.1387C187.08 39.0123 186.963 38.8414 186.88 38.6259C186.795 38.4094 186.753 38.1353 186.753 37.8035V33.1565H190.009V32.0266H186.753V29.956ZM194.474 33.2991V28.4387H193.011V40.5771H194.474V34.3663C194.579 34.1974 194.698 34.0447 194.829 33.9081C194.967 33.7655 195.113 33.641 195.272 33.5358C195.473 33.3993 195.691 33.2941 195.928 33.2203C196.165 33.1464 196.415 33.109 196.678 33.109C197 33.1039 197.284 33.1494 197.532 33.2435C197.78 33.3335 197.985 33.4701 198.148 33.6552C198.301 33.8231 198.417 34.0366 198.496 34.2945C198.575 34.5474 198.614 34.8427 198.614 35.1796V40.5771H200.077V35.1958C200.077 34.6212 200.005 34.1266 199.864 33.7098C199.726 33.289 199.529 32.9411 199.271 32.6669C199.013 32.3928 198.699 32.1925 198.33 32.0661C197.967 31.9346 197.561 31.8688 197.113 31.8688C196.77 31.8739 196.447 31.9245 196.141 32.0185C195.841 32.1136 195.565 32.2532 195.312 32.4373C195.154 32.5486 195.003 32.6771 194.861 32.8247C194.719 32.9674 194.589 33.1252 194.474 33.2991Z" fill="#CBD5E0"/>
<path d="M117.53 59.4326V54.0371C117.53 53.8014 117.467 53.5687 117.349 53.3644C117.231 53.1591 117.061 52.9891 116.856 52.8708L112.136 50.173C111.93 50.0547 111.698 49.993 111.461 49.993C111.224 49.993 110.991 50.0547 110.787 50.173L106.066 52.8708C105.862 52.9891 105.691 53.1591 105.573 53.3644C105.454 53.5687 105.393 53.8014 105.392 54.0371V59.4326C105.393 59.6693 105.454 59.9009 105.573 60.1063C105.691 60.3106 105.862 60.4806 106.066 60.5989L110.787 63.2967C110.991 63.415 111.224 63.4767 111.461 63.4767C111.698 63.4767 111.93 63.415 112.136 63.2967L116.856 60.5989C117.061 60.4806 117.231 60.3106 117.349 60.1063C117.467 59.9009 117.53 59.6693 117.53 59.4326Z" stroke="#5A67D8" stroke-width="1.5173" stroke-linecap="round" stroke-linejoin="round"/>
<path d="M105.574 53.3345L111.461 56.7403L117.348 53.3345" stroke="#5A67D8" stroke-width="1.5173" stroke-linecap="round" stroke-linejoin="round"/>
<path d="M111.457 63.5321V56.7346" stroke="#5A67D8" stroke-width="1.5173" stroke-linecap="round" stroke-linejoin="round"/>
<path d="M128.748 62.9901C129.58 62.9901 130.278 62.8232 130.842 62.4914C131.411 62.1546 131.838 61.7702 132.122 61.3383L131.229 60.6423C130.961 60.9903 130.623 61.2695 130.217 61.4799C129.812 61.6913 129.349 61.7965 128.827 61.7965C128.432 61.7965 128.071 61.7226 127.744 61.575C127.418 61.4273 127.138 61.225 126.907 60.967C126.68 60.7243 126.501 60.4451 126.37 60.1285C126.243 59.8129 126.161 59.4467 126.124 59.0299V58.9753H132.232V58.3188C132.232 57.7241 132.157 57.1708 132.004 56.6599C131.856 56.1481 131.63 55.703 131.324 55.3237C131.019 54.9504 130.634 54.6581 130.17 54.4467C129.712 54.2312 129.175 54.123 128.559 54.123C128.068 54.123 127.588 54.2231 127.12 54.4234C126.656 54.6237 126.243 54.911 125.879 55.2842C125.511 55.6636 125.215 56.1278 124.994 56.6751C124.772 57.2183 124.662 57.8343 124.662 58.5242V58.857C124.662 59.4518 124.762 60.002 124.963 60.5078C125.163 61.0136 125.442 61.4516 125.8 61.8198C126.158 62.189 126.588 62.4763 127.088 62.6816C127.594 62.8869 128.147 62.9901 128.748 62.9901ZM128.559 55.3237C128.932 55.3237 129.253 55.3925 129.523 55.53C129.797 55.6666 130.022 55.8456 130.202 56.0672C130.381 56.2887 130.521 56.5517 130.621 56.8572C130.721 57.1576 130.771 57.4398 130.771 57.7028V57.7736H126.171C126.229 57.3791 126.329 57.0311 126.472 56.7307C126.619 56.4252 126.798 56.1673 127.009 55.9559C127.22 55.7505 127.457 55.5958 127.72 55.4896C127.984 55.3793 128.263 55.3237 128.559 55.3237ZM134.421 58.4847V58.6506C134.421 59.2626 134.498 59.8341 134.651 60.3662C134.809 60.8932 135.035 61.3514 135.331 61.7409C135.626 62.1313 135.984 62.4368 136.405 62.6573C136.832 62.8788 137.316 62.9901 137.86 62.9901C138.139 62.9901 138.4 62.9628 138.641 62.9102C138.884 62.8576 139.108 62.7817 139.313 62.6816C139.477 62.6078 139.627 62.5177 139.764 62.4125C139.906 62.3073 140.04 62.189 140.167 62.0575V66.1188H141.629V54.2808H140.285L140.223 55.1264C140.111 55 139.993 54.8837 139.866 54.7785C139.74 54.6733 139.605 54.5812 139.464 54.5023C139.242 54.3759 138.998 54.2808 138.729 54.2181C138.466 54.1544 138.181 54.123 137.876 54.123C137.328 54.123 136.837 54.2312 136.405 54.4467C135.979 54.6631 135.618 54.9636 135.323 55.348C135.027 55.7324 134.804 56.1936 134.651 56.7307C134.498 57.2628 134.421 57.8475 134.421 58.4847ZM135.884 58.6506V58.4847C135.884 58.069 135.929 57.6715 136.019 57.2921C136.113 56.9128 136.258 56.575 136.453 56.2806C136.643 55.9903 136.884 55.7586 137.18 55.5847C137.475 55.4107 137.825 55.3237 138.231 55.3237C138.457 55.3237 138.666 55.353 138.855 55.4107C139.05 55.4633 139.229 55.5401 139.393 55.6403C139.551 55.7404 139.692 55.8588 139.819 55.9953C139.951 56.1279 140.067 56.2745 140.167 56.4384V60.6585C140.062 60.8325 139.943 60.9933 139.812 61.14C139.679 61.2826 139.53 61.404 139.361 61.5042C139.203 61.5932 139.029 61.665 138.84 61.7176C138.65 61.7702 138.441 61.7965 138.215 61.7965C137.809 61.7965 137.459 61.7115 137.164 61.5436C136.874 61.3696 136.635 61.138 136.444 60.8477C136.255 60.5584 136.113 60.2235 136.019 59.8442C135.929 59.4649 135.884 59.0674 135.884 58.6506ZM150.046 62.8313H151.373V54.2808H149.903V60.4137C149.824 60.5978 149.724 60.7688 149.602 60.9266C149.487 61.0793 149.35 61.2118 149.192 61.3221C149.003 61.4586 148.778 61.5669 148.52 61.6458C148.262 61.7196 147.97 61.7571 147.643 61.7571C147.364 61.7571 147.116 61.7196 146.9 61.6458C146.689 61.5719 146.51 61.4435 146.363 61.2594C146.215 61.0793 146.105 60.8376 146.031 60.5321C145.957 60.2266 145.921 59.8422 145.921 59.3779V54.2808H144.458V59.3628C144.458 60 144.527 60.5473 144.663 61.0065C144.806 61.4587 145.006 61.8329 145.264 62.1283C145.522 62.4236 145.834 62.6421 146.197 62.7837C146.56 62.9213 146.965 62.9901 147.414 62.9901C147.972 62.9901 148.465 62.8738 148.891 62.6422C149.318 62.4044 149.674 62.0757 149.959 61.6539L150.046 62.8313ZM159.75 62.8313H161.275V62.7048C161.18 62.4681 161.107 62.191 161.054 61.8754C161 61.5537 160.974 61.2513 160.974 60.967V56.9917C160.974 56.5123 160.888 56.0935 160.714 55.7354C160.54 55.3763 160.302 55.0769 160.003 54.8341C159.697 54.5974 159.336 54.4204 158.92 54.3051C158.504 54.1837 158.053 54.123 157.568 54.123C157.036 54.123 156.56 54.1968 156.138 54.3445C155.722 54.4912 155.369 54.6844 155.079 54.9211C154.785 55.1638 154.558 55.435 154.399 55.7354C154.246 56.0358 154.168 56.3413 154.162 56.6518H155.632C155.632 56.4728 155.675 56.3018 155.759 56.138C155.849 55.969 155.972 55.8244 156.13 55.703C156.289 55.5826 156.481 55.4845 156.707 55.4107C156.939 55.3368 157.2 55.3004 157.489 55.3004C157.8 55.3004 158.079 55.3399 158.327 55.4188C158.58 55.4977 158.793 55.6089 158.967 55.7505C159.141 55.8982 159.276 56.0753 159.371 56.2806C159.465 56.4859 159.512 56.7176 159.512 56.9755V57.6472H157.916C157.32 57.6472 156.781 57.7058 156.296 57.8212C155.816 57.9375 155.406 58.1115 155.064 58.3431C154.721 58.5798 154.455 58.8752 154.266 59.2282C154.081 59.5812 153.988 59.9919 153.988 60.4613C153.988 60.8194 154.057 61.1532 154.194 61.4647C154.336 61.7702 154.537 62.0332 154.795 62.2547C155.048 62.4813 155.356 62.6603 155.719 62.7918C156.088 62.9233 156.499 62.9901 156.952 62.9901C157.231 62.9901 157.494 62.9608 157.742 62.9031C157.99 62.8445 158.225 62.7655 158.445 62.6654C158.662 62.5653 158.859 62.4499 159.038 62.3174C159.223 62.1859 159.389 62.0463 159.537 61.8987C159.552 62.0777 159.576 62.2517 159.608 62.4206C159.644 62.5835 159.692 62.721 159.75 62.8313ZM157.166 61.7176C156.881 61.7176 156.631 61.6802 156.415 61.6063C156.199 61.5325 156.02 61.4303 155.877 61.2988C155.735 61.1724 155.627 61.0196 155.553 60.8406C155.485 60.6605 155.451 60.4663 155.451 60.2549C155.451 60.0344 155.491 59.8361 155.57 59.6622C155.653 59.4892 155.775 59.3385 155.933 59.212C156.154 59.033 156.452 58.9015 156.826 58.8175C157.205 58.7275 157.647 58.683 158.153 58.683H159.512V60.4137C159.429 60.5817 159.312 60.7455 159.165 60.9033C159.018 61.056 158.844 61.1926 158.644 61.314C158.438 61.4354 158.212 61.5325 157.964 61.6063C157.716 61.6802 157.45 61.7176 157.166 61.7176ZM164.081 50.6929V51.9654H166.989V61.5669H164.081V62.8313H171.24V61.5669H168.45V50.6929H164.081ZM179.254 60.5634C179.254 60.7 179.227 60.8295 179.175 60.9508C179.122 61.0722 179.045 61.1825 178.945 61.2826C178.782 61.4455 178.556 61.575 178.265 61.6701C177.976 61.7591 177.636 61.8046 177.246 61.8046C176.999 61.8046 176.748 61.7783 176.495 61.7257C176.242 61.6721 176.014 61.583 175.808 61.4566C175.597 61.3302 175.421 61.1643 175.278 60.959C175.142 60.7536 175.063 60.5007 175.042 60.2003H173.579C173.579 60.5634 173.661 60.9134 173.825 61.2513C173.993 61.5881 174.235 61.8835 174.551 62.1364C174.862 62.3943 175.244 62.6027 175.697 62.7605C176.15 62.9132 176.666 62.9901 177.246 62.9901C177.751 62.9901 178.218 62.9294 178.645 62.808C179.071 62.6867 179.438 62.5157 179.743 62.2942C180.049 62.0726 180.286 61.8066 180.454 61.4961C180.628 61.1855 180.715 60.8406 180.715 60.4613C180.715 60.1083 180.639 59.7967 180.487 59.5286C180.339 59.2596 180.122 59.0229 179.838 58.8175C179.554 58.6172 179.203 58.4453 178.787 58.3037C178.371 58.156 177.899 58.0265 177.372 57.9162C176.973 57.8373 176.64 57.7554 176.377 57.6715C176.119 57.5865 175.913 57.4924 175.761 57.3862C175.602 57.281 175.492 57.1626 175.429 57.0311C175.365 56.8996 175.334 56.7489 175.334 56.581C175.334 56.4172 175.373 56.2594 175.452 56.1066C175.531 55.9539 175.649 55.8193 175.808 55.703C175.961 55.5877 176.153 55.4956 176.385 55.4268C176.622 55.3581 176.896 55.3237 177.206 55.3237C177.507 55.3237 177.776 55.3662 178.012 55.4501C178.255 55.5351 178.461 55.6454 178.629 55.7829C178.797 55.9195 178.929 56.0773 179.024 56.2563C179.119 56.4303 179.167 56.6094 179.167 56.7945H180.628C180.628 56.4202 180.546 56.0722 180.383 55.7505C180.226 55.4238 179.999 55.1396 179.704 54.8978C179.408 54.6551 179.05 54.4649 178.629 54.3283C178.208 54.1918 177.733 54.123 177.206 54.123C176.717 54.123 176.267 54.1887 175.855 54.3202C175.449 54.4517 175.099 54.6308 174.804 54.8574C174.509 55.0839 174.28 55.35 174.117 55.6565C173.953 55.9559 173.871 56.2806 173.871 56.6276C173.871 56.9806 173.951 57.2921 174.109 57.5602C174.267 57.8242 174.49 58.0528 174.781 58.248C175.065 58.4483 175.408 58.6193 175.808 58.7619C176.214 58.9035 176.661 59.0249 177.152 59.125C177.551 59.2039 177.886 59.294 178.155 59.3941C178.423 59.4892 178.64 59.5944 178.802 59.7097C178.966 59.826 179.082 59.9555 179.15 60.0971C179.219 60.2347 179.254 60.3894 179.254 60.5634Z" fill="#CBD5E0"/>
<path d="M117.53 81.6857V76.2902C117.53 76.0545 117.467 75.8218 117.349 75.6175C117.231 75.4122 117.061 75.2423 116.856 75.1239L112.136 72.4261C111.93 72.3078 111.698 72.2461 111.461 72.2461C111.224 72.2461 110.991 72.3078 110.787 72.4261L106.066 75.1239C105.862 75.2423 105.691 75.4122 105.573 75.6175C105.454 75.8218 105.393 76.0545 105.392 76.2902V81.6857C105.393 81.9224 105.454 82.1541 105.573 82.3594C105.691 82.5637 105.862 82.7337 106.066 82.852L110.787 85.5498C110.991 85.6681 111.224 85.7298 111.461 85.7298C111.698 85.7298 111.93 85.6681 112.136 85.5498L116.856 82.852C117.061 82.7337 117.231 82.5637 117.349 82.3594C117.467 82.1541 117.53 81.9224 117.53 81.6857Z" stroke="#5A67D8" stroke-width="1.5173" stroke-linecap="round" stroke-linejoin="round"/>
</svg>
