<svg width="844" height="474" viewBox="0 0 844 474" fill="none" xmlns="http://www.w3.org/2000/svg">
<g clip-path="url(#clip0_252_4661)">
<rect width="844" height="474" fill="url(#paint0_linear_252_4661)"/>
<g filter="url(#filter0_ddddddf_252_4661)">
<rect x="1.78174" y="0.0311005" width="679" height="516" rx="15.5" transform="matrix(0.898794 -0.438371 0.882948 0.469472 61.1529 336.328)" fill="#030712" stroke="#818CF8" stroke-width="2"/>
<g filter="url(#filter1_f_252_4661)">
<path d="M438.996 173.673L507.866 210.291C525.525 219.681 528.015 230.168 523.315 244.161L509.358 277.972C502.845 293.751 508.867 306.115 529.175 316.913L568.024 337.57C590.981 349.776 615.862 353.843 646.199 351.648L734.53 345.471C764.867 343.276 788.865 346.874 810.056 358.141L880.692 395.699" stroke="url(#paint1_linear_252_4661)" stroke-width="6" stroke-linecap="round" stroke-linejoin="round"/>
</g>
<g opacity="0.95" filter="url(#filter2_f_252_4661)">
<path d="M507.866 210.291C523.759 218.742 544.225 220.461 571.882 218.674L661.127 211.15C691.465 208.955 717.229 213.492 737.536 224.289L974.166 350.108" stroke="url(#paint2_linear_252_4661)" stroke-width="6" stroke-linecap="round" stroke-linejoin="round"/>
</g>
<g opacity="0.92" filter="url(#filter3_f_252_4661)">
<path d="M568.024 337.57C589.215 348.837 591.642 362.955 583.284 382.334L571.203 410.729C563.791 426.946 569.781 441.126 592.738 453.332L673.969 496.524" stroke="url(#paint3_linear_252_4661)" stroke-width="6" stroke-linecap="round" stroke-linejoin="round"/>
</g>
<path opacity="0.85" d="M507.866 210.291C525.525 219.681 528.015 230.168 523.315 244.162L509.358 277.972C502.845 293.751 508.867 306.116 529.175 316.913L568.024 337.57C590.981 349.776 615.862 353.843 646.199 351.648L734.53 345.471C764.867 343.276 788.865 346.874 810.056 358.141L880.692 395.699L974.166 350.108L737.536 224.29C717.229 213.492 691.465 208.956 661.128 211.15L571.882 218.674C544.225 220.461 523.759 218.742 507.866 210.291Z" fill="url(#paint4_linear_252_4661)"/>
<g filter="url(#filter4_f_252_4661)">
<path d="M445.177 176.959C448.651 175.264 448.701 172.419 445.288 170.604C441.874 168.789 436.29 168.691 432.815 170.386C429.341 172.081 429.291 174.926 432.705 176.741C436.118 178.556 441.702 178.654 445.177 176.959Z" fill="#CFFAFE"/>
<path d="M445.177 176.959C448.651 175.264 448.701 172.419 445.288 170.604C441.874 168.789 436.29 168.691 432.815 170.386C429.341 172.081 429.291 174.926 432.705 176.741C436.118 178.556 441.702 178.654 445.177 176.959Z" stroke="#E6FFFB" stroke-width="2"/>
</g>
<g filter="url(#filter5_f_252_4661)">
<path d="M514.047 213.578C517.521 211.883 517.571 209.038 514.158 207.223C510.744 205.408 505.16 205.31 501.685 207.005C498.211 208.7 498.161 211.545 501.574 213.36C504.988 215.175 510.572 215.272 514.047 213.578Z" fill="#CFFAFE"/>
<path d="M514.047 213.578C517.521 211.883 517.571 209.038 514.158 207.223C510.744 205.408 505.16 205.31 501.685 207.005C498.211 208.7 498.161 211.545 501.574 213.36C504.988 215.175 510.572 215.272 514.047 213.578Z" stroke="#E6FFFB" stroke-width="2"/>
</g>
<g filter="url(#filter6_f_252_4661)">
<path d="M515.539 281.259C519.013 279.564 519.063 276.719 515.65 274.904C512.236 273.089 506.652 272.991 503.177 274.686C499.703 276.381 499.653 279.226 503.066 281.041C506.48 282.856 512.064 282.953 515.539 281.259Z" fill="#CFFAFE"/>
<path d="M515.539 281.259C519.013 279.564 519.063 276.719 515.65 274.904C512.236 273.089 506.652 272.991 503.177 274.686C499.703 276.381 499.653 279.226 503.066 281.041C506.48 282.856 512.064 282.953 515.539 281.259Z" stroke="#E6FFFB" stroke-width="2"/>
</g>
<g filter="url(#filter7_f_252_4661)">
<path d="M574.205 340.856C577.68 339.162 577.729 336.316 574.316 334.501C570.902 332.686 565.318 332.589 561.844 334.284C558.369 335.978 558.319 338.824 561.733 340.639C565.146 342.454 570.73 342.551 574.205 340.856Z" fill="#CFFAFE"/>
<path d="M574.205 340.856C577.68 339.162 577.729 336.316 574.316 334.501C570.902 332.686 565.318 332.589 561.844 334.284C558.369 335.978 558.319 338.824 561.733 340.639C565.146 342.454 570.73 342.551 574.205 340.856Z" stroke="#E6FFFB" stroke-width="2"/>
</g>
<g filter="url(#filter8_f_252_4661)">
<path d="M740.711 348.757C744.185 347.063 744.235 344.217 740.822 342.403C737.408 340.588 731.824 340.49 728.349 342.185C724.875 343.88 724.825 346.725 728.238 348.54C731.652 350.355 737.236 350.452 740.711 348.757Z" fill="#CFFAFE"/>
<path d="M740.711 348.757C744.185 347.063 744.235 344.217 740.822 342.403C737.408 340.588 731.824 340.49 728.349 342.185C724.875 343.88 724.825 346.725 728.238 348.54C731.652 350.355 737.236 350.452 740.711 348.757Z" stroke="#E6FFFB" stroke-width="2"/>
</g>
<g filter="url(#filter9_f_252_4661)">
<path d="M667.308 214.437C670.783 212.742 670.832 209.897 667.419 208.082C664.006 206.267 658.422 206.169 654.947 207.864C651.472 209.559 651.422 212.404 654.836 214.219C658.249 216.034 663.833 216.131 667.308 214.437Z" fill="#CFFAFE"/>
<path d="M667.308 214.437C670.783 212.742 670.832 209.897 667.419 208.082C664.006 206.267 658.422 206.169 654.947 207.864C651.472 209.559 651.422 212.404 654.836 214.219C658.249 216.034 663.833 216.131 667.308 214.437Z" stroke="#E6FFFB" stroke-width="2"/>
</g>
<g filter="url(#filter10_f_252_4661)">
<path d="M577.384 414.015C580.858 412.321 580.908 409.476 577.495 407.661C574.081 405.846 568.497 405.748 565.022 407.443C561.548 409.138 561.498 411.983 564.911 413.798C568.325 415.613 573.909 415.71 577.384 414.015Z" fill="#CFFAFE"/>
<path d="M577.384 414.015C580.858 412.321 580.908 409.476 577.495 407.661C574.081 405.846 568.497 405.748 565.022 407.443C561.548 409.138 561.498 411.983 564.911 413.798C568.325 415.613 573.909 415.71 577.384 414.015Z" stroke="#E6FFFB" stroke-width="2"/>
</g>
</g>
<g filter="url(#filter11_dddddd_252_4661)">
<path d="M65.1949 133C64.4881 133 64.0259 132.701 63.8084 132.103L54.8368 111.387C54.7281 111.169 54.5649 111.06 54.3474 111.06H50.9219C50.6501 111.06 50.5141 111.196 50.5141 111.468V131.777C50.5141 132.157 50.4054 132.456 50.1879 132.674C49.9704 132.891 49.6713 133 49.2907 133H36.4042C36.0236 133 35.7246 132.891 35.5071 132.674C35.2896 132.456 35.1808 132.157 35.1808 131.777V77.1314C35.1808 76.7508 35.2896 76.4517 35.5071 76.2342C35.7246 76.0167 36.0236 75.908 36.4042 75.908H61.1169C64.8143 75.908 68.0495 76.6692 70.8226 78.1917C73.65 79.7141 75.8249 81.8619 77.3474 84.6349C78.9242 87.3536 79.7126 90.5072 79.7126 94.0959C79.7126 97.6845 78.8154 100.838 77.0211 103.557C75.2812 106.221 72.8616 108.179 69.7623 109.429C69.4904 109.538 69.4089 109.728 69.5176 110L79.8757 131.532C79.9845 131.858 80.0388 132.048 80.0388 132.103C80.0388 132.375 79.9301 132.592 79.7126 132.755C79.4951 132.918 79.2232 133 78.897 133H65.1949ZM50.9219 89.0392C50.6501 89.0392 50.5141 89.1751 50.5141 89.447V98.9895C50.5141 99.2613 50.6501 99.3973 50.9219 99.3973H58.5886C60.3285 99.3973 61.7422 98.9351 62.8297 98.0108C63.9171 97.032 64.4609 95.7815 64.4609 94.259C64.4609 92.6822 63.9171 91.4316 62.8297 90.5072C61.7422 89.5285 60.3285 89.0392 58.5886 89.0392H50.9219ZM124.772 108.777C124.935 109.973 125.017 111.196 125.017 112.447C125.017 113.317 124.989 113.997 124.935 114.486C124.935 115.247 124.527 115.628 123.712 115.628H99.2437C99.0262 115.628 98.9174 115.736 98.9174 115.954C98.9174 116.443 99.1349 117.014 99.5699 117.667C100.114 118.591 101.065 119.379 102.425 120.032C103.838 120.63 105.415 120.929 107.155 120.929C108.623 120.929 109.982 120.712 111.233 120.277C112.484 119.842 113.544 119.216 114.414 118.401C114.686 118.183 114.958 118.075 115.229 118.075C115.61 118.075 115.909 118.238 116.127 118.564L122.325 126.475C122.543 126.747 122.651 127.046 122.651 127.372C122.651 127.699 122.515 127.97 122.244 128.188C120.341 130.037 117.975 131.423 115.148 132.348C112.32 133.217 109.276 133.652 106.013 133.652C100.956 133.652 96.6338 132.592 93.0451 130.472C89.4565 128.351 86.8466 125.333 85.2154 121.418C84.0191 118.591 83.421 115.546 83.421 112.284C83.421 108.858 83.9104 105.813 84.8891 103.149C86.3572 99.0167 88.7768 95.7815 92.148 93.4434C95.5191 91.1053 99.4884 89.9363 104.056 89.9363C107.536 89.9363 110.744 90.7519 113.68 92.3831C116.67 94.0143 119.117 96.2708 121.02 99.1526C122.978 101.98 124.228 105.188 124.772 108.777ZM103.974 103.067C101.745 103.067 100.195 104.155 99.3252 106.33L98.999 107.227C98.9446 107.39 98.9718 107.526 99.0806 107.635C99.1893 107.689 99.298 107.716 99.4068 107.716H108.705C108.922 107.716 109.031 107.608 109.031 107.39C109.031 107.173 108.949 106.819 108.786 106.33C108.514 105.297 107.943 104.508 107.073 103.965C106.258 103.367 105.225 103.067 103.974 103.067ZM155.611 101.599C155.611 101.98 155.502 102.279 155.284 102.497C155.067 102.714 154.768 102.823 154.387 102.823H147.618C147.346 102.823 147.21 102.959 147.21 103.231V116.036C147.21 118.754 148.189 120.114 150.146 120.114H153.164C153.544 120.114 153.843 120.222 154.061 120.44C154.278 120.657 154.387 120.956 154.387 121.337V131.777C154.387 132.538 153.979 132.973 153.164 133.082C151.043 133.245 149.004 133.326 147.047 133.326C142.099 133.326 138.456 132.565 136.118 131.043C133.78 129.52 132.583 126.638 132.529 122.397V103.231C132.529 102.959 132.393 102.823 132.121 102.823H127.717C127.336 102.823 127.037 102.714 126.82 102.497C126.602 102.279 126.494 101.98 126.494 101.599V91.8122C126.494 91.4316 126.602 91.1325 126.82 90.915C127.037 90.6975 127.336 90.5888 127.717 90.5888H132.121C132.393 90.5888 132.529 90.4529 132.529 90.181V80.3938C132.529 80.0132 132.638 79.7141 132.855 79.4966C133.073 79.2791 133.372 79.1704 133.752 79.1704H145.986C146.367 79.1704 146.666 79.2791 146.884 79.4966C147.101 79.7141 147.21 80.0132 147.21 80.3938V90.181C147.21 90.4529 147.346 90.5888 147.618 90.5888H154.387C154.768 90.5888 155.067 90.6975 155.284 90.915C155.502 91.1325 155.611 91.4316 155.611 91.8122V101.599ZM185.186 89.9363C187.905 89.9363 190.352 90.5344 192.527 91.7306C194.702 92.9269 196.414 94.694 197.665 97.032C198.97 99.3157 199.622 102.034 199.622 105.188V131.777C199.622 132.157 199.514 132.456 199.296 132.674C199.079 132.891 198.78 133 198.399 133H185.512C185.132 133 184.833 132.891 184.615 132.674C184.398 132.456 184.289 132.157 184.289 131.777V108.532C184.289 106.901 183.854 105.596 182.984 104.617C182.169 103.584 181.081 103.067 179.722 103.067C178.308 103.067 177.166 103.584 176.296 104.617C175.481 105.596 175.073 106.901 175.073 108.532V131.777C175.073 132.157 174.964 132.456 174.747 132.674C174.529 132.891 174.23 133 173.849 133H160.963C160.582 133 160.283 132.891 160.066 132.674C159.848 132.456 159.74 132.157 159.74 131.777V77.1314C159.74 76.7508 159.848 76.4517 160.066 76.2342C160.283 76.0167 160.582 75.908 160.963 75.908H173.849C174.23 75.908 174.529 76.0167 174.747 76.2342C174.964 76.4517 175.073 76.7508 175.073 77.1314V94.7484C175.073 94.9659 175.127 95.1018 175.236 95.1562C175.345 95.2105 175.426 95.1562 175.481 94.993C177.547 91.6219 180.782 89.9363 185.186 89.9363ZM212.489 87.7342C210.26 87.7342 208.411 87.0273 206.943 85.6136C205.529 84.1456 204.822 82.2969 204.822 80.0676C204.822 77.7839 205.529 75.9352 206.943 74.5215C208.411 73.1078 210.26 72.4009 212.489 72.4009C214.718 72.4009 216.54 73.1078 217.954 74.5215C219.422 75.9352 220.156 77.7839 220.156 80.0676C220.156 82.2425 219.422 84.064 217.954 85.5321C216.54 87.0002 214.718 87.7342 212.489 87.7342ZM205.964 133C205.584 133 205.285 132.891 205.067 132.674C204.85 132.456 204.741 132.157 204.741 131.777V91.8122C204.741 91.4316 204.85 91.1325 205.067 90.915C205.285 90.6975 205.584 90.5888 205.964 90.5888H218.851C219.231 90.5888 219.53 90.6975 219.748 90.915C219.965 91.1325 220.074 91.4316 220.074 91.8122V131.777C220.074 132.157 219.965 132.456 219.748 132.674C219.53 132.891 219.231 133 218.851 133H205.964ZM250.896 89.9363C253.615 89.9363 256.062 90.5344 258.237 91.7306C260.412 92.9269 262.124 94.694 263.375 97.032C264.68 99.3157 265.332 102.034 265.332 105.188V131.777C265.332 132.157 265.224 132.456 265.006 132.674C264.789 132.891 264.49 133 264.109 133H251.222C250.842 133 250.543 132.891 250.325 132.674C250.108 132.456 249.999 132.157 249.999 131.777V108.532C249.999 106.901 249.564 105.596 248.694 104.617C247.878 103.584 246.791 103.067 245.432 103.067C244.018 103.067 242.876 103.584 242.006 104.617C241.191 105.596 240.783 106.901 240.783 108.532V131.777C240.783 132.157 240.674 132.456 240.457 132.674C240.239 132.891 239.94 133 239.559 133H226.673C226.292 133 225.993 132.891 225.776 132.674C225.558 132.456 225.449 132.157 225.449 131.777V91.8122C225.449 91.4316 225.558 91.1325 225.776 90.915C225.993 90.6975 226.292 90.5888 226.673 90.5888H239.559C239.94 90.5888 240.239 90.6975 240.457 90.915C240.674 91.1325 240.783 91.4316 240.783 91.8122V94.7484C240.783 94.9659 240.837 95.1018 240.946 95.1562C241.055 95.2105 241.136 95.1562 241.191 94.993C243.257 91.6219 246.492 89.9363 250.896 89.9363ZM271.674 133C271.294 133 270.995 132.891 270.777 132.674C270.56 132.456 270.451 132.157 270.451 131.777V77.1314C270.451 76.7508 270.56 76.4517 270.777 76.2342C270.995 76.0167 271.294 75.908 271.674 75.908H284.561C284.941 75.908 285.24 76.0167 285.458 76.2342C285.675 76.4517 285.784 76.7508 285.784 77.1314V100.539C285.784 100.702 285.839 100.811 285.947 100.865C286.056 100.92 286.165 100.865 286.273 100.702L293.206 91.3228C293.532 90.8335 294.022 90.5888 294.674 90.5888H309.355C309.681 90.5888 309.926 90.6704 310.089 90.8335C310.307 90.9422 310.415 91.1053 310.415 91.3228C310.415 91.5403 310.334 91.785 310.171 92.0569L299.649 106.248C299.541 106.411 299.541 106.602 299.649 106.819L311.639 131.532L311.802 132.184C311.802 132.728 311.448 133 310.741 133H297.284C296.577 133 296.088 132.674 295.816 132.021L289.21 116.362C289.155 116.253 289.047 116.199 288.883 116.199C288.775 116.144 288.693 116.171 288.639 116.28L285.947 120.848C285.839 121.065 285.784 121.228 285.784 121.337V131.777C285.784 132.157 285.675 132.456 285.458 132.674C285.24 132.891 284.941 133 284.561 133H271.674ZM323.439 87.7342C321.21 87.7342 319.361 87.0273 317.893 85.6136C316.48 84.1456 315.773 82.2969 315.773 80.0676C315.773 77.7839 316.48 75.9352 317.893 74.5215C319.361 73.1078 321.21 72.4009 323.439 72.4009C325.669 72.4009 327.49 73.1078 328.904 74.5215C330.372 75.9352 331.106 77.7839 331.106 80.0676C331.106 82.2425 330.372 84.064 328.904 85.5321C327.49 87.0002 325.669 87.7342 323.439 87.7342ZM316.915 133C316.534 133 316.235 132.891 316.017 132.674C315.8 132.456 315.691 132.157 315.691 131.777V91.8122C315.691 91.4316 315.8 91.1325 316.017 90.915C316.235 90.6975 316.534 90.5888 316.915 90.5888H329.801C330.182 90.5888 330.481 90.6975 330.698 90.915C330.916 91.1325 331.024 91.4316 331.024 91.8122V131.777C331.024 132.157 330.916 132.456 330.698 132.674C330.481 132.891 330.182 133 329.801 133H316.915ZM361.846 89.9363C364.565 89.9363 367.012 90.5344 369.187 91.7306C371.362 92.9269 373.075 94.694 374.325 97.032C375.63 99.3157 376.283 102.034 376.283 105.188V131.777C376.283 132.157 376.174 132.456 375.956 132.674C375.739 132.891 375.44 133 375.059 133H362.173C361.792 133 361.493 132.891 361.276 132.674C361.058 132.456 360.949 132.157 360.949 131.777V108.532C360.949 106.901 360.514 105.596 359.644 104.617C358.829 103.584 357.741 103.067 356.382 103.067C354.968 103.067 353.826 103.584 352.956 104.617C352.141 105.596 351.733 106.901 351.733 108.532V131.777C351.733 132.157 351.624 132.456 351.407 132.674C351.189 132.891 350.89 133 350.51 133H337.623C337.243 133 336.943 132.891 336.726 132.674C336.509 132.456 336.4 132.157 336.4 131.777V91.8122C336.4 91.4316 336.509 91.1325 336.726 90.915C336.943 90.6975 337.243 90.5888 337.623 90.5888H350.51C350.89 90.5888 351.189 90.6975 351.407 90.915C351.624 91.1325 351.733 91.4316 351.733 91.8122V94.7484C351.733 94.9659 351.787 95.1018 351.896 95.1562C352.005 95.2105 352.086 95.1562 352.141 94.993C354.207 91.6219 357.442 89.9363 361.846 89.9363ZM407.093 91.8122C407.093 91.4316 407.201 91.1325 407.419 90.915C407.636 90.6975 407.935 90.5888 408.316 90.5888H421.202C421.583 90.5888 421.882 90.6975 422.1 90.915C422.317 91.1325 422.426 91.4316 422.426 91.8122V127.454C422.426 135.229 420.169 140.748 415.656 144.011C411.198 147.327 405.57 148.986 398.773 148.986C395.729 148.986 392.874 148.741 390.21 148.252C389.503 148.089 389.149 147.626 389.149 146.865L389.639 135.855C389.639 134.93 390.128 134.604 391.107 134.876C393.39 135.474 395.538 135.773 397.55 135.773C400.16 135.773 402.308 135.229 403.993 134.142C405.679 133.054 406.685 131.396 407.011 129.167C407.065 128.949 407.011 128.813 406.848 128.759C406.739 128.705 406.603 128.759 406.44 128.922C404.591 130.662 401.927 131.532 398.447 131.532C389.747 131.532 384.201 127.998 381.809 120.929C380.885 118.21 380.422 115.03 380.422 111.387C380.422 107.363 380.993 103.937 382.135 101.11C383.44 97.6845 385.479 94.9659 388.252 92.954C391.08 90.9422 394.315 89.9363 397.958 89.9363C401.71 89.9363 404.591 91.0782 406.603 93.3618C406.712 93.4706 406.821 93.525 406.929 93.525C407.038 93.4706 407.093 93.3618 407.093 93.1987V91.8122ZM406.277 116.933C406.821 115.519 407.093 113.643 407.093 111.305C407.093 109.13 406.793 107.363 406.195 106.004C405.271 104.046 403.721 103.067 401.546 103.067C399.643 103.067 398.202 104.019 397.224 105.922C396.354 107.445 395.919 109.32 395.919 111.55C395.919 113.725 396.272 115.492 396.979 116.851C397.958 118.754 399.535 119.706 401.71 119.706C403.885 119.706 405.407 118.781 406.277 116.933ZM36.4042 212C36.0236 212 35.7246 211.891 35.5071 211.674C35.2896 211.456 35.1808 211.157 35.1808 210.777V156.131C35.1808 155.751 35.2896 155.452 35.5071 155.234C35.7246 155.017 36.0236 154.908 36.4042 154.908H57.3652C61.7694 154.908 65.6571 155.669 69.0282 157.192C72.4538 158.714 75.0909 160.862 76.9396 163.635C78.7883 166.408 79.7126 169.616 79.7126 173.259V193.649C79.7126 197.292 78.7883 200.5 76.9396 203.273C75.0909 206.046 72.4538 208.194 69.0282 209.716C65.6571 211.239 61.7694 212 57.3652 212H36.4042ZM50.5141 198.461C50.5141 198.733 50.6501 198.869 50.9219 198.869H57.9361C59.7848 198.869 61.3072 198.162 62.5034 196.748C63.6997 195.28 64.3249 193.377 64.3793 191.039V175.869C64.3793 173.531 63.7812 171.655 62.585 170.241C61.3888 168.773 59.812 168.039 57.8545 168.039H50.9219C50.6501 168.039 50.5141 168.175 50.5141 168.447V198.461ZM103.541 168.936C107.239 168.936 110.637 169.562 113.736 170.812C116.836 172.063 119.283 173.776 121.077 175.95C122.871 178.125 123.768 180.491 123.768 183.046V210.777C123.768 211.157 123.66 211.456 123.442 211.674C123.225 211.891 122.926 212 122.545 212H109.658C109.278 212 108.979 211.891 108.761 211.674C108.544 211.456 108.435 211.157 108.435 210.777V207.922C108.435 207.705 108.381 207.596 108.272 207.596C108.218 207.541 108.136 207.596 108.027 207.759C107.103 209.444 105.825 210.695 104.194 211.511C102.563 212.272 100.415 212.652 97.7507 212.652C93.2921 212.652 89.785 211.647 87.2295 209.635C84.674 207.569 83.3962 204.578 83.3962 200.663C83.3962 196.531 84.8371 193.35 87.7189 191.121C90.655 188.891 94.8961 187.777 100.442 187.777H108.027C108.299 187.777 108.435 187.641 108.435 187.369V185.901C108.435 184.759 108 183.835 107.13 183.128C106.315 182.421 105.2 182.067 103.786 182.067C102.807 182.067 101.937 182.231 101.176 182.557C100.415 182.883 99.8713 183.318 99.5451 183.862C99.3276 184.242 99.1101 184.514 98.8926 184.677C98.7295 184.786 98.4848 184.813 98.1585 184.759L85.0274 183.128C84.2662 183.019 83.8855 182.693 83.8855 182.149C84.103 179.702 85.0818 177.473 86.8217 175.461C88.5616 173.449 90.8725 171.872 93.7543 170.731C96.6905 169.534 99.9529 168.936 103.541 168.936ZM102.481 202.05C104.221 202.05 105.635 201.588 106.722 200.663C107.864 199.739 108.435 198.488 108.435 196.911V195.851C108.435 195.579 108.299 195.443 108.027 195.443H103.949C100.524 195.443 98.811 196.558 98.811 198.787C98.811 199.766 99.1101 200.554 99.7082 201.153C100.361 201.751 101.285 202.05 102.481 202.05ZM155.69 180.599C155.69 180.98 155.581 181.279 155.364 181.497C155.146 181.714 154.847 181.823 154.467 181.823H147.697C147.425 181.823 147.29 181.959 147.29 182.231V195.036C147.29 197.754 148.268 199.114 150.226 199.114H153.243C153.624 199.114 153.923 199.222 154.141 199.44C154.358 199.657 154.467 199.956 154.467 200.337V210.777C154.467 211.538 154.059 211.973 153.243 212.082C151.123 212.245 149.084 212.326 147.126 212.326C142.178 212.326 138.535 211.565 136.197 210.043C133.859 208.52 132.663 205.638 132.609 201.397V182.231C132.609 181.959 132.473 181.823 132.201 181.823H127.797C127.416 181.823 127.117 181.714 126.9 181.497C126.682 181.279 126.573 180.98 126.573 180.599V170.812C126.573 170.432 126.682 170.133 126.9 169.915C127.117 169.698 127.416 169.589 127.797 169.589H132.201C132.473 169.589 132.609 169.453 132.609 169.181V159.394C132.609 159.013 132.717 158.714 132.935 158.497C133.152 158.279 133.451 158.17 133.832 158.17H146.066C146.447 158.17 146.746 158.279 146.963 158.497C147.181 158.714 147.29 159.013 147.29 159.394V169.181C147.29 169.453 147.425 169.589 147.697 169.589H154.467C154.847 169.589 155.146 169.698 155.364 169.915C155.581 170.133 155.69 170.432 155.69 170.812V180.599ZM178.252 168.936C181.949 168.936 185.347 169.562 188.447 170.812C191.546 172.063 193.993 173.776 195.787 175.95C197.581 178.125 198.479 180.491 198.479 183.046V210.777C198.479 211.157 198.37 211.456 198.152 211.674C197.935 211.891 197.636 212 197.255 212H184.369C183.988 212 183.689 211.891 183.472 211.674C183.254 211.456 183.145 211.157 183.145 210.777V207.922C183.145 207.705 183.091 207.596 182.982 207.596C182.928 207.541 182.846 207.596 182.738 207.759C181.813 209.444 180.535 210.695 178.904 211.511C177.273 212.272 175.125 212.652 172.461 212.652C168.002 212.652 164.495 211.647 161.94 209.635C159.384 207.569 158.106 204.578 158.106 200.663C158.106 196.531 159.547 193.35 162.429 191.121C165.365 188.891 169.606 187.777 175.152 187.777H182.738C183.009 187.777 183.145 187.641 183.145 187.369V185.901C183.145 184.759 182.71 183.835 181.84 183.128C181.025 182.421 179.91 182.067 178.496 182.067C177.518 182.067 176.648 182.231 175.886 182.557C175.125 182.883 174.582 183.318 174.255 183.862C174.038 184.242 173.82 184.514 173.603 184.677C173.44 184.786 173.195 184.813 172.869 184.759L159.738 183.128C158.976 183.019 158.596 182.693 158.596 182.149C158.813 179.702 159.792 177.473 161.532 175.461C163.272 173.449 165.583 171.872 168.465 170.731C171.401 169.534 174.663 168.936 178.252 168.936ZM177.191 202.05C178.931 202.05 180.345 201.588 181.433 200.663C182.574 199.739 183.145 198.488 183.145 196.911V195.851C183.145 195.579 183.009 195.443 182.738 195.443H178.66C175.234 195.443 173.521 196.558 173.521 198.787C173.521 199.766 173.82 200.554 174.418 201.153C175.071 201.751 175.995 202.05 177.191 202.05ZM244.808 180.192C246.004 183.237 246.602 186.716 246.602 190.631C246.602 194.002 246.194 197.047 245.379 199.766C244.183 203.735 242.116 206.889 239.18 209.227C236.298 211.511 233.036 212.652 229.393 212.652C225.098 212.652 221.944 211.157 219.932 208.167C219.823 208.004 219.715 207.949 219.606 208.004C219.497 208.058 219.443 208.167 219.443 208.33V210.777C219.443 211.157 219.334 211.456 219.116 211.674C218.899 211.891 218.6 212 218.219 212H205.333C204.952 212 204.653 211.891 204.436 211.674C204.218 211.456 204.109 211.157 204.109 210.777V156.131C204.109 155.751 204.218 155.452 204.436 155.234C204.653 155.017 204.952 154.908 205.333 154.908H218.219C218.6 154.908 218.899 155.017 219.116 155.234C219.334 155.452 219.443 155.751 219.443 156.131V172.525C219.443 172.688 219.497 172.797 219.606 172.851C219.715 172.851 219.823 172.797 219.932 172.688C221.835 170.187 224.771 168.936 228.741 168.936C232.601 168.936 235.918 169.997 238.691 172.117C241.464 174.183 243.503 176.875 244.808 180.192ZM229.311 196.83C230.127 195.253 230.535 193.268 230.535 190.876C230.535 188.32 230.127 186.281 229.311 184.759C228.387 182.965 226.946 182.067 224.989 182.067C223.14 182.067 221.726 182.91 220.748 184.596C219.878 186.173 219.443 188.266 219.443 190.876C219.443 193.268 219.851 195.226 220.666 196.748C221.645 198.597 223.086 199.521 224.989 199.521C226.892 199.521 228.333 198.624 229.311 196.83ZM269.529 168.936C273.226 168.936 276.625 169.562 279.724 170.812C282.823 172.063 285.27 173.776 287.064 175.95C288.859 178.125 289.756 180.491 289.756 183.046V210.777C289.756 211.157 289.647 211.456 289.429 211.674C289.212 211.891 288.913 212 288.532 212H275.646C275.265 212 274.966 211.891 274.749 211.674C274.531 211.456 274.422 211.157 274.422 210.777V207.922C274.422 207.705 274.368 207.596 274.259 207.596C274.205 207.541 274.123 207.596 274.015 207.759C273.09 209.444 271.813 210.695 270.181 211.511C268.55 212.272 266.402 212.652 263.738 212.652C259.279 212.652 255.772 211.647 253.217 209.635C250.661 207.569 249.384 204.578 249.384 200.663C249.384 196.531 250.824 193.35 253.706 191.121C256.642 188.891 260.883 187.777 266.43 187.777H274.015C274.287 187.777 274.422 187.641 274.422 187.369V185.901C274.422 184.759 273.987 183.835 273.117 183.128C272.302 182.421 271.187 182.067 269.774 182.067C268.795 182.067 267.925 182.231 267.164 182.557C266.402 182.883 265.859 183.318 265.532 183.862C265.315 184.242 265.097 184.514 264.88 184.677C264.717 184.786 264.472 184.813 264.146 184.759L251.015 183.128C250.253 183.019 249.873 182.693 249.873 182.149C250.09 179.702 251.069 177.473 252.809 175.461C254.549 173.449 256.86 171.872 259.742 170.731C262.678 169.534 265.94 168.936 269.529 168.936ZM268.469 202.05C270.209 202.05 271.622 201.588 272.71 200.663C273.852 199.739 274.422 198.488 274.422 196.911V195.851C274.422 195.579 274.287 195.443 274.015 195.443H269.937C266.511 195.443 264.798 196.558 264.798 198.787C264.798 199.766 265.097 200.554 265.696 201.153C266.348 201.751 267.272 202.05 268.469 202.05ZM314.145 212.652C308.001 212.652 303.135 211.456 299.546 209.064C296.012 206.671 294.245 203.491 294.245 199.521V198.787C294.245 198.407 294.353 198.108 294.571 197.89C294.788 197.673 295.087 197.564 295.468 197.564H307.702C308.518 197.564 308.925 197.863 308.925 198.461C308.925 199.331 309.388 200.038 310.312 200.582C311.291 201.125 312.541 201.397 314.064 201.397C315.26 201.397 316.212 201.234 316.918 200.908C317.68 200.527 318.06 200.011 318.06 199.358C318.06 198.597 317.625 198.08 316.755 197.809C315.885 197.482 314.336 197.129 312.106 196.748C310.04 196.476 308.191 196.15 306.56 195.77C304.929 195.389 303.352 194.818 301.83 194.057C297.154 191.773 294.816 188.184 294.816 183.291C294.816 178.887 296.528 175.407 299.954 172.851C303.379 170.241 307.892 168.936 313.493 168.936C317.299 168.936 320.616 169.562 323.443 170.812C326.325 172.008 328.554 173.721 330.131 175.95C331.708 178.18 332.496 180.763 332.496 183.699C332.496 184.297 332.089 184.596 331.273 184.596H319.447C318.631 184.596 318.223 184.297 318.223 183.699C318.223 182.774 317.816 182.067 317 181.578C316.184 181.034 315.097 180.763 313.738 180.763C312.487 180.763 311.454 180.98 310.638 181.415C309.877 181.796 309.496 182.339 309.496 183.046C309.496 183.916 310.013 184.514 311.046 184.841C312.079 185.167 313.738 185.493 316.021 185.819C316.293 185.874 317.326 186.037 319.12 186.309C320.969 186.58 322.736 187.015 324.422 187.614C327.358 188.647 329.587 190.088 331.11 191.936C332.687 193.731 333.475 196.096 333.475 199.032C333.475 203.491 331.735 206.889 328.255 209.227C324.775 211.511 320.072 212.652 314.145 212.652ZM378.054 187.777C378.217 188.973 378.299 190.196 378.299 191.447C378.299 192.317 378.271 192.997 378.217 193.486C378.217 194.247 377.809 194.628 376.994 194.628H352.526C352.308 194.628 352.199 194.736 352.199 194.954C352.199 195.443 352.417 196.014 352.852 196.667C353.396 197.591 354.347 198.379 355.707 199.032C357.12 199.63 358.697 199.929 360.437 199.929C361.905 199.929 363.264 199.712 364.515 199.277C365.766 198.842 366.826 198.216 367.696 197.401C367.968 197.183 368.24 197.075 368.511 197.075C368.892 197.075 369.191 197.238 369.409 197.564L375.607 205.475C375.825 205.747 375.933 206.046 375.933 206.372C375.933 206.699 375.797 206.97 375.526 207.188C373.623 209.037 371.257 210.423 368.43 211.348C365.602 212.217 362.558 212.652 359.295 212.652C354.238 212.652 349.916 211.592 346.327 209.472C342.739 207.351 340.129 204.333 338.497 200.418C337.301 197.591 336.703 194.546 336.703 191.284C336.703 187.858 337.192 184.813 338.171 182.149C339.639 178.017 342.059 174.781 345.43 172.443C348.801 170.105 352.77 168.936 357.338 168.936C360.818 168.936 364.026 169.752 366.962 171.383C369.952 173.014 372.399 175.271 374.302 178.153C376.26 180.98 377.51 184.188 378.054 187.777ZM357.256 182.067C355.027 182.067 353.477 183.155 352.607 185.33L352.281 186.227C352.227 186.39 352.254 186.526 352.363 186.635C352.471 186.689 352.58 186.716 352.689 186.716H361.987C362.204 186.716 362.313 186.608 362.313 186.39C362.313 186.173 362.231 185.819 362.068 185.33C361.796 184.297 361.225 183.508 360.355 182.965C359.54 182.367 358.507 182.067 357.256 182.067ZM71.6382 234.724C71.9644 234.18 72.4538 233.908 73.1062 233.908H85.8296C86.2102 233.908 86.5093 234.017 86.7268 234.234C86.9443 234.452 87.053 234.751 87.053 235.131V289.777C87.053 290.157 86.9443 290.456 86.7268 290.674C86.5093 290.891 86.2102 291 85.8296 291H72.9431C72.5625 291 72.2635 290.891 72.046 290.674C71.8285 290.456 71.7197 290.157 71.7197 289.777V260.17C71.7197 259.953 71.6653 259.844 71.5566 259.844C71.4479 259.79 71.3391 259.844 71.2304 260.007L65.6843 269.06C65.358 269.604 64.8687 269.876 64.2162 269.876H58.0176C57.3652 269.876 56.8758 269.604 56.5496 269.06L51.0035 260.007C50.8947 259.844 50.786 259.79 50.6772 259.844C50.5685 259.844 50.5141 259.953 50.5141 260.17V289.777C50.5141 290.157 50.4054 290.456 50.1879 290.674C49.9704 290.891 49.6713 291 49.2907 291H36.4042C36.0236 291 35.7246 290.891 35.5071 290.674C35.2896 290.456 35.1808 290.157 35.1808 289.777V235.131C35.1808 234.751 35.2896 234.452 35.5071 234.234C35.7246 234.017 36.0236 233.908 36.4042 233.908H49.1276C49.7801 233.908 50.2694 234.18 50.5957 234.724L60.8722 251.28C61.0354 251.607 61.1985 251.607 61.3616 251.28L71.6382 234.724ZM100.663 245.734C98.4334 245.734 96.5847 245.027 95.1166 243.614C93.7029 242.146 92.996 240.297 92.996 238.068C92.996 235.784 93.7029 233.935 95.1166 232.521C96.5847 231.108 98.4334 230.401 100.663 230.401C102.892 230.401 104.714 231.108 106.127 232.521C107.595 233.935 108.329 235.784 108.329 238.068C108.329 240.242 107.595 242.064 106.127 243.532C104.714 245 102.892 245.734 100.663 245.734ZM94.1379 291C93.7573 291 93.4582 290.891 93.2407 290.674C93.0232 290.456 92.9145 290.157 92.9145 289.777V249.812C92.9145 249.432 93.0232 249.133 93.2407 248.915C93.4582 248.698 93.7573 248.589 94.1379 248.589H107.024C107.405 248.589 107.704 248.698 107.922 248.915C108.139 249.133 108.248 249.432 108.248 249.812V289.777C108.248 290.157 108.139 290.456 107.922 290.674C107.704 290.891 107.405 291 107.024 291H94.1379ZM139.314 249.812C139.314 249.432 139.423 249.133 139.641 248.915C139.858 248.698 140.157 248.589 140.538 248.589H153.424C153.805 248.589 154.104 248.698 154.322 248.915C154.539 249.133 154.648 249.432 154.648 249.812V285.454C154.648 293.229 152.391 298.748 147.878 302.011C143.42 305.327 137.792 306.986 130.995 306.986C127.95 306.986 125.096 306.741 122.432 306.252C121.725 306.089 121.371 305.626 121.371 304.865L121.861 293.855C121.861 292.93 122.35 292.604 123.329 292.876C125.612 293.474 127.76 293.773 129.772 293.773C132.382 293.773 134.53 293.229 136.215 292.142C137.901 291.054 138.907 289.396 139.233 287.167C139.287 286.949 139.233 286.813 139.07 286.759C138.961 286.705 138.825 286.759 138.662 286.922C136.813 288.662 134.149 289.532 130.669 289.532C121.969 289.532 116.423 285.998 114.031 278.929C113.107 276.21 112.644 273.03 112.644 269.387C112.644 265.363 113.215 261.937 114.357 259.11C115.662 255.685 117.701 252.966 120.474 250.954C123.302 248.942 126.537 247.936 130.18 247.936C133.932 247.936 136.813 249.078 138.825 251.362C138.934 251.471 139.043 251.525 139.151 251.525C139.26 251.471 139.314 251.362 139.314 251.199V249.812ZM138.499 274.933C139.043 273.519 139.314 271.643 139.314 269.305C139.314 267.13 139.015 265.363 138.417 264.004C137.493 262.046 135.943 261.067 133.768 261.067C131.865 261.067 130.424 262.019 129.446 263.922C128.576 265.445 128.141 267.32 128.141 269.55C128.141 271.725 128.494 273.492 129.201 274.851C130.18 276.754 131.757 277.706 133.932 277.706C136.106 277.706 137.629 276.781 138.499 274.933ZM183.874 248.018C185.722 248.018 187.19 248.371 188.278 249.078C188.767 249.35 188.958 249.867 188.849 250.628L186.891 263.188C186.837 263.623 186.674 263.895 186.402 264.004C186.185 264.112 185.858 264.112 185.423 264.004C184.445 263.786 183.575 263.677 182.813 263.677C181.998 263.677 181.237 263.759 180.53 263.922C179.116 264.194 177.893 264.792 176.859 265.716C175.881 266.586 175.391 267.783 175.391 269.305V289.777C175.391 290.157 175.283 290.456 175.065 290.674C174.848 290.891 174.549 291 174.168 291H161.282C160.901 291 160.602 290.891 160.384 290.674C160.167 290.456 160.058 290.157 160.058 289.777V249.812C160.058 249.432 160.167 249.133 160.384 248.915C160.602 248.698 160.901 248.589 161.282 248.589H174.168C174.549 248.589 174.848 248.698 175.065 248.915C175.283 249.133 175.391 249.432 175.391 249.812V251.77C175.391 251.933 175.446 252.042 175.555 252.096C175.663 252.15 175.745 252.123 175.799 252.014C177.865 249.35 180.557 248.018 183.874 248.018ZM210.191 247.936C213.888 247.936 217.286 248.562 220.386 249.812C223.485 251.063 225.932 252.776 227.726 254.95C229.52 257.125 230.418 259.491 230.418 262.046V289.777C230.418 290.157 230.309 290.456 230.091 290.674C229.874 290.891 229.575 291 229.194 291H216.308C215.927 291 215.628 290.891 215.411 290.674C215.193 290.456 215.084 290.157 215.084 289.777V286.922C215.084 286.705 215.03 286.596 214.921 286.596C214.867 286.541 214.785 286.596 214.677 286.759C213.752 288.444 212.474 289.695 210.843 290.511C209.212 291.272 207.064 291.652 204.4 291.652C199.941 291.652 196.434 290.647 193.879 288.635C191.323 286.569 190.045 283.578 190.045 279.663C190.045 275.531 191.486 272.35 194.368 270.121C197.304 267.891 201.545 266.777 207.091 266.777H214.677C214.948 266.777 215.084 266.641 215.084 266.369V264.901C215.084 263.759 214.649 262.835 213.779 262.128C212.964 261.421 211.849 261.067 210.435 261.067C209.457 261.067 208.587 261.231 207.826 261.557C207.064 261.883 206.521 262.318 206.194 262.862C205.977 263.242 205.759 263.514 205.542 263.677C205.379 263.786 205.134 263.813 204.808 263.759L191.677 262.128C190.915 262.019 190.535 261.693 190.535 261.149C190.752 258.702 191.731 256.473 193.471 254.461C195.211 252.449 197.522 250.872 200.404 249.731C203.34 248.534 206.602 247.936 210.191 247.936ZM209.13 281.05C210.87 281.05 212.284 280.588 213.372 279.663C214.513 278.739 215.084 277.488 215.084 275.911V274.851C215.084 274.579 214.948 274.443 214.677 274.443H210.599C207.173 274.443 205.46 275.558 205.46 277.787C205.46 278.766 205.759 279.554 206.357 280.153C207.01 280.751 207.934 281.05 209.13 281.05ZM262.339 259.599C262.339 259.98 262.231 260.279 262.013 260.497C261.796 260.714 261.497 260.823 261.116 260.823H254.347C254.075 260.823 253.939 260.959 253.939 261.231V274.036C253.939 276.754 254.917 278.114 256.875 278.114H259.893C260.273 278.114 260.572 278.222 260.79 278.44C261.007 278.657 261.116 278.956 261.116 279.337V289.777C261.116 290.538 260.708 290.973 259.893 291.082C257.772 291.245 255.733 291.326 253.776 291.326C248.828 291.326 245.185 290.565 242.847 289.043C240.509 287.52 239.312 284.638 239.258 280.397V261.231C239.258 260.959 239.122 260.823 238.85 260.823H234.446C234.065 260.823 233.766 260.714 233.549 260.497C233.331 260.279 233.223 259.98 233.223 259.599V249.812C233.223 249.432 233.331 249.133 233.549 248.915C233.766 248.698 234.065 248.589 234.446 248.589H238.85C239.122 248.589 239.258 248.453 239.258 248.181V238.394C239.258 238.013 239.367 237.714 239.584 237.497C239.802 237.279 240.101 237.17 240.481 237.17H252.715C253.096 237.17 253.395 237.279 253.613 237.497C253.83 237.714 253.939 238.013 253.939 238.394V248.181C253.939 248.453 254.075 248.589 254.347 248.589H261.116C261.497 248.589 261.796 248.698 262.013 248.915C262.231 249.133 262.339 249.432 262.339 249.812V259.599ZM274.217 245.734C271.987 245.734 270.139 245.027 268.671 243.614C267.257 242.146 266.55 240.297 266.55 238.068C266.55 235.784 267.257 233.935 268.671 232.521C270.139 231.108 271.987 230.401 274.217 230.401C276.446 230.401 278.267 231.108 279.681 232.521C281.149 233.935 281.883 235.784 281.883 238.068C281.883 240.242 281.149 242.064 279.681 243.532C278.267 245 276.446 245.734 274.217 245.734ZM267.692 291C267.311 291 267.012 290.891 266.795 290.674C266.577 290.456 266.468 290.157 266.468 289.777V249.812C266.468 249.432 266.577 249.133 266.795 248.915C267.012 248.698 267.311 248.589 267.692 248.589H280.578C280.959 248.589 281.258 248.698 281.475 248.915C281.693 249.133 281.802 249.432 281.802 249.812V289.777C281.802 290.157 281.693 290.456 281.475 290.674C281.258 290.891 280.959 291 280.578 291H267.692ZM307.241 291.652C302.075 291.652 297.698 290.266 294.11 287.493C290.575 284.72 288.237 280.968 287.095 276.238C286.552 274.28 286.28 272.105 286.28 269.713C286.28 267.049 286.606 264.629 287.259 262.454C288.564 257.941 290.956 254.407 294.436 251.851C297.97 249.241 302.266 247.936 307.322 247.936C312.379 247.936 316.62 249.241 320.046 251.851C323.526 254.407 325.918 257.887 327.223 262.291C327.875 264.575 328.202 266.994 328.202 269.55C328.202 271.616 327.984 273.682 327.549 275.748C326.407 280.642 324.042 284.53 320.453 287.411C316.919 290.239 312.515 291.652 307.241 291.652ZM307.241 278.521C308.654 278.521 309.796 278.059 310.666 277.135C311.536 276.156 312.134 274.878 312.461 273.301C312.678 272.268 312.787 271.045 312.787 269.631C312.787 268.381 312.651 267.13 312.379 265.88C311.563 262.671 309.851 261.067 307.241 261.067C304.522 261.067 302.809 262.671 302.102 265.88C301.831 266.804 301.695 268.054 301.695 269.631C301.695 271.045 301.803 272.268 302.021 273.301C302.837 276.781 304.576 278.521 307.241 278.521ZM358.103 247.936C360.822 247.936 363.268 248.534 365.443 249.731C367.618 250.927 369.331 252.694 370.582 255.032C371.887 257.316 372.539 260.034 372.539 263.188V289.777C372.539 290.157 372.43 290.456 372.213 290.674C371.995 290.891 371.696 291 371.316 291H358.429C358.049 291 357.75 290.891 357.532 290.674C357.315 290.456 357.206 290.157 357.206 289.777V266.532C357.206 264.901 356.771 263.596 355.901 262.617C355.085 261.584 353.998 261.067 352.638 261.067C351.225 261.067 350.083 261.584 349.213 262.617C348.397 263.596 347.99 264.901 347.99 266.532V289.777C347.99 290.157 347.881 290.456 347.663 290.674C347.446 290.891 347.147 291 346.766 291H333.88C333.499 291 333.2 290.891 332.983 290.674C332.765 290.456 332.656 290.157 332.656 289.777V249.812C332.656 249.432 332.765 249.133 332.983 248.915C333.2 248.698 333.499 248.589 333.88 248.589H346.766C347.147 248.589 347.446 248.698 347.663 248.915C347.881 249.133 347.99 249.432 347.99 249.812V252.748C347.99 252.966 348.044 253.102 348.153 253.156C348.261 253.211 348.343 253.156 348.397 252.993C350.464 249.622 353.699 247.936 358.103 247.936ZM396.661 291.652C390.517 291.652 385.651 290.456 382.062 288.064C378.528 285.671 376.76 282.491 376.76 278.521V277.787C376.76 277.407 376.869 277.108 377.087 276.89C377.304 276.673 377.603 276.564 377.984 276.564H390.218C391.033 276.564 391.441 276.863 391.441 277.461C391.441 278.331 391.903 279.038 392.828 279.582C393.807 280.125 395.057 280.397 396.58 280.397C397.776 280.397 398.727 280.234 399.434 279.908C400.195 279.527 400.576 279.011 400.576 278.358C400.576 277.597 400.141 277.08 399.271 276.809C398.401 276.482 396.851 276.129 394.622 275.748C392.556 275.476 390.707 275.15 389.076 274.77C387.445 274.389 385.868 273.818 384.346 273.057C379.669 270.773 377.331 267.184 377.331 262.291C377.331 257.887 379.044 254.407 382.47 251.851C385.895 249.241 390.408 247.936 396.009 247.936C399.815 247.936 403.132 248.562 405.959 249.812C408.841 251.008 411.07 252.721 412.647 254.95C414.224 257.18 415.012 259.763 415.012 262.699C415.012 263.297 414.604 263.596 413.789 263.596H401.963C401.147 263.596 400.739 263.297 400.739 262.699C400.739 261.774 400.331 261.067 399.516 260.578C398.7 260.034 397.613 259.763 396.253 259.763C395.003 259.763 393.97 259.98 393.154 260.415C392.393 260.796 392.012 261.339 392.012 262.046C392.012 262.916 392.529 263.514 393.562 263.841C394.595 264.167 396.253 264.493 398.537 264.819C398.809 264.874 399.842 265.037 401.636 265.309C403.485 265.58 405.252 266.015 406.938 266.614C409.874 267.647 412.103 269.088 413.626 270.936C415.202 272.731 415.991 275.096 415.991 278.032C415.991 282.491 414.251 285.889 410.771 288.227C407.291 290.511 402.588 291.652 396.661 291.652Z" fill="#F9FAFB"/>
</g>
</g>
<defs>
<filter id="filter0_ddddddf_252_4661" x="-50.3901" y="32.5811" width="1292.23" height="811.755" filterUnits="userSpaceOnUse" color-interpolation-filters="sRGB">
<feFlood flood-opacity="0" result="BackgroundImageFix"/>
<feColorMatrix in="SourceAlpha" type="matrix" values="0 0 0 0 0 0 0 0 0 0 0 0 0 0 0 0 0 0 127 0" result="hardAlpha"/>
<feOffset dy="4.15088"/>
<feGaussianBlur stdDeviation="1.66035"/>
<feColorMatrix type="matrix" values="0 0 0 0 0 0 0 0 0 0 0 0 0 0 0 0 0 0 0.0787208 0"/>
<feBlend mode="normal" in2="BackgroundImageFix" result="effect1_dropShadow_252_4661"/>
<feColorMatrix in="SourceAlpha" type="matrix" values="0 0 0 0 0 0 0 0 0 0 0 0 0 0 0 0 0 0 127 0" result="hardAlpha"/>
<feOffset dy="9.97515"/>
<feGaussianBlur stdDeviation="3.99006"/>
<feColorMatrix type="matrix" values="0 0 0 0 0 0 0 0 0 0 0 0 0 0 0 0 0 0 0.11309 0"/>
<feBlend mode="normal" in2="effect1_dropShadow_252_4661" result="effect2_dropShadow_252_4661"/>
<feColorMatrix in="SourceAlpha" type="matrix" values="0 0 0 0 0 0 0 0 0 0 0 0 0 0 0 0 0 0 127 0" result="hardAlpha"/>
<feOffset dy="18.7823"/>
<feGaussianBlur stdDeviation="7.51293"/>
<feColorMatrix type="matrix" values="0 0 0 0 0 0 0 0 0 0 0 0 0 0 0 0 0 0 0.14 0"/>
<feBlend mode="normal" in2="effect2_dropShadow_252_4661" result="effect3_dropShadow_252_4661"/>
<feColorMatrix in="SourceAlpha" type="matrix" values="0 0 0 0 0 0 0 0 0 0 0 0 0 0 0 0 0 0 127 0" result="hardAlpha"/>
<feOffset dy="33.5045"/>
<feGaussianBlur stdDeviation="13.4018"/>
<feColorMatrix type="matrix" values="0 0 0 0 0 0 0 0 0 0 0 0 0 0 0 0 0 0 0.16691 0"/>
<feBlend mode="normal" in2="effect3_dropShadow_252_4661" result="effect4_dropShadow_252_4661"/>
<feColorMatrix in="SourceAlpha" type="matrix" values="0 0 0 0 0 0 0 0 0 0 0 0 0 0 0 0 0 0 127 0" result="hardAlpha"/>
<feOffset dy="62.6664"/>
<feGaussianBlur stdDeviation="25.0666"/>
<feColorMatrix type="matrix" values="0 0 0 0 0 0 0 0 0 0 0 0 0 0 0 0 0 0 0.201279 0"/>
<feBlend mode="normal" in2="effect4_dropShadow_252_4661" result="effect5_dropShadow_252_4661"/>
<feColorMatrix in="SourceAlpha" type="matrix" values="0 0 0 0 0 0 0 0 0 0 0 0 0 0 0 0 0 0 127 0" result="hardAlpha"/>
<feOffset dy="150"/>
<feGaussianBlur stdDeviation="60"/>
<feColorMatrix type="matrix" values="0 0 0 0 0 0 0 0 0 0 0 0 0 0 0 0 0 0 0.28 0"/>
<feBlend mode="normal" in2="effect5_dropShadow_252_4661" result="effect6_dropShadow_252_4661"/>
<feBlend mode="normal" in="SourceGraphic" in2="effect6_dropShadow_252_4661" result="shape"/>
<feGaussianBlur stdDeviation="4.4" result="effect7_foregroundBlur_252_4661"/>
</filter>
<filter id="filter1_f_252_4661" x="419.616" y="156.146" width="480.455" height="257.08" filterUnits="userSpaceOnUse" color-interpolation-filters="sRGB">
<feFlood flood-opacity="0" result="BackgroundImageFix"/>
<feBlend mode="normal" in="SourceGraphic" in2="BackgroundImageFix" result="shape"/>
<feGaussianBlur stdDeviation="7.8" result="effect1_foregroundBlur_252_4661"/>
</filter>
<filter id="filter2_f_252_4661" x="488.486" y="192.764" width="505.06" height="174.871" filterUnits="userSpaceOnUse" color-interpolation-filters="sRGB">
<feFlood flood-opacity="0" result="BackgroundImageFix"/>
<feBlend mode="normal" in="SourceGraphic" in2="BackgroundImageFix" result="shape"/>
<feGaussianBlur stdDeviation="7.8" result="effect1_foregroundBlur_252_4661"/>
</filter>
<filter id="filter3_f_252_4661" x="548.645" y="320.043" width="144.704" height="194.008" filterUnits="userSpaceOnUse" color-interpolation-filters="sRGB">
<feFlood flood-opacity="0" result="BackgroundImageFix"/>
<feBlend mode="normal" in="SourceGraphic" in2="BackgroundImageFix" result="shape"/>
<feGaussianBlur stdDeviation="7.8" result="effect1_foregroundBlur_252_4661"/>
</filter>
<filter id="filter4_f_252_4661" x="423.917" y="163.534" width="30.1589" height="20.2771" filterUnits="userSpaceOnUse" color-interpolation-filters="sRGB">
<feFlood flood-opacity="0" result="BackgroundImageFix"/>
<feBlend mode="normal" in="SourceGraphic" in2="BackgroundImageFix" result="shape"/>
<feGaussianBlur stdDeviation="2.5" result="effect1_foregroundBlur_252_4661"/>
</filter>
<filter id="filter5_f_252_4661" x="492.786" y="200.153" width="30.1589" height="20.2771" filterUnits="userSpaceOnUse" color-interpolation-filters="sRGB">
<feFlood flood-opacity="0" result="BackgroundImageFix"/>
<feBlend mode="normal" in="SourceGraphic" in2="BackgroundImageFix" result="shape"/>
<feGaussianBlur stdDeviation="2.5" result="effect1_foregroundBlur_252_4661"/>
</filter>
<filter id="filter6_f_252_4661" x="494.279" y="267.834" width="30.1589" height="20.2771" filterUnits="userSpaceOnUse" color-interpolation-filters="sRGB">
<feFlood flood-opacity="0" result="BackgroundImageFix"/>
<feBlend mode="normal" in="SourceGraphic" in2="BackgroundImageFix" result="shape"/>
<feGaussianBlur stdDeviation="2.5" result="effect1_foregroundBlur_252_4661"/>
</filter>
<filter id="filter7_f_252_4661" x="552.945" y="327.431" width="30.1589" height="20.2771" filterUnits="userSpaceOnUse" color-interpolation-filters="sRGB">
<feFlood flood-opacity="0" result="BackgroundImageFix"/>
<feBlend mode="normal" in="SourceGraphic" in2="BackgroundImageFix" result="shape"/>
<feGaussianBlur stdDeviation="2.5" result="effect1_foregroundBlur_252_4661"/>
</filter>
<filter id="filter8_f_252_4661" x="719.451" y="335.333" width="30.1589" height="20.2771" filterUnits="userSpaceOnUse" color-interpolation-filters="sRGB">
<feFlood flood-opacity="0" result="BackgroundImageFix"/>
<feBlend mode="normal" in="SourceGraphic" in2="BackgroundImageFix" result="shape"/>
<feGaussianBlur stdDeviation="2.5" result="effect1_foregroundBlur_252_4661"/>
</filter>
<filter id="filter9_f_252_4661" x="646.048" y="201.012" width="30.1589" height="20.2771" filterUnits="userSpaceOnUse" color-interpolation-filters="sRGB">
<feFlood flood-opacity="0" result="BackgroundImageFix"/>
<feBlend mode="normal" in="SourceGraphic" in2="BackgroundImageFix" result="shape"/>
<feGaussianBlur stdDeviation="2.5" result="effect1_foregroundBlur_252_4661"/>
</filter>
<filter id="filter10_f_252_4661" x="556.124" y="400.591" width="30.1589" height="20.2771" filterUnits="userSpaceOnUse" color-interpolation-filters="sRGB">
<feFlood flood-opacity="0" result="BackgroundImageFix"/>
<feBlend mode="normal" in="SourceGraphic" in2="BackgroundImageFix" result="shape"/>
<feGaussianBlur stdDeviation="2.5" result="effect1_foregroundBlur_252_4661"/>
</filter>
<filter id="filter11_dddddd_252_4661" x="-56.874" y="72.4009" width="571.355" height="441.708" filterUnits="userSpaceOnUse" color-interpolation-filters="sRGB">
<feFlood flood-opacity="0" result="BackgroundImageFix"/>
<feColorMatrix in="SourceAlpha" type="matrix" values="0 0 0 0 0 0 0 0 0 0 0 0 0 0 0 0 0 0 127 0" result="hardAlpha"/>
<feOffset dy="3.18424"/>
<feGaussianBlur stdDeviation="1.2737"/>
<feColorMatrix type="matrix" values="0 0 0 0 0 0 0 0 0 0 0 0 0 0 0 0 0 0 0.163064 0"/>
<feBlend mode="normal" in2="BackgroundImageFix" result="effect1_dropShadow_252_4661"/>
<feColorMatrix in="SourceAlpha" type="matrix" values="0 0 0 0 0 0 0 0 0 0 0 0 0 0 0 0 0 0 127 0" result="hardAlpha"/>
<feOffset dy="7.65217"/>
<feGaussianBlur stdDeviation="3.06087"/>
<feColorMatrix type="matrix" values="0 0 0 0 0 0 0 0 0 0 0 0 0 0 0 0 0 0 0.234258 0"/>
<feBlend mode="normal" in2="effect1_dropShadow_252_4661" result="effect2_dropShadow_252_4661"/>
<feColorMatrix in="SourceAlpha" type="matrix" values="0 0 0 0 0 0 0 0 0 0 0 0 0 0 0 0 0 0 127 0" result="hardAlpha"/>
<feOffset dy="14.4084"/>
<feGaussianBlur stdDeviation="5.76334"/>
<feColorMatrix type="matrix" values="0 0 0 0 0 0 0 0 0 0 0 0 0 0 0 0 0 0 0.29 0"/>
<feBlend mode="normal" in2="effect2_dropShadow_252_4661" result="effect3_dropShadow_252_4661"/>
<feColorMatrix in="SourceAlpha" type="matrix" values="0 0 0 0 0 0 0 0 0 0 0 0 0 0 0 0 0 0 127 0" result="hardAlpha"/>
<feOffset dy="25.7021"/>
<feGaussianBlur stdDeviation="10.2808"/>
<feColorMatrix type="matrix" values="0 0 0 0 0 0 0 0 0 0 0 0 0 0 0 0 0 0 0.345742 0"/>
<feBlend mode="normal" in2="effect3_dropShadow_252_4661" result="effect4_dropShadow_252_4661"/>
<feColorMatrix in="SourceAlpha" type="matrix" values="0 0 0 0 0 0 0 0 0 0 0 0 0 0 0 0 0 0 127 0" result="hardAlpha"/>
<feOffset dy="48.0729"/>
<feGaussianBlur stdDeviation="19.2291"/>
<feColorMatrix type="matrix" values="0 0 0 0 0 0 0 0 0 0 0 0 0 0 0 0 0 0 0.416936 0"/>
<feBlend mode="normal" in2="effect4_dropShadow_252_4661" result="effect5_dropShadow_252_4661"/>
<feColorMatrix in="SourceAlpha" type="matrix" values="0 0 0 0 0 0 0 0 0 0 0 0 0 0 0 0 0 0 127 0" result="hardAlpha"/>
<feOffset dy="115.068"/>
<feGaussianBlur stdDeviation="46.0274"/>
<feColorMatrix type="matrix" values="0 0 0 0 0 0 0 0 0 0 0 0 0 0 0 0 0 0 0.58 0"/>
<feBlend mode="normal" in2="effect5_dropShadow_252_4661" result="effect6_dropShadow_252_4661"/>
<feBlend mode="normal" in="SourceGraphic" in2="effect6_dropShadow_252_4661" result="shape"/>
</filter>
<linearGradient id="paint0_linear_252_4661" x1="422" y1="0" x2="422" y2="474" gradientUnits="userSpaceOnUse">
<stop stop-color="#6366F1"/>
<stop offset="1" stop-color="#030712"/>
</linearGradient>
<linearGradient id="paint1_linear_252_4661" x1="314.962" y1="234.168" x2="845.473" y2="562.259" gradientUnits="userSpaceOnUse">
<stop stop-color="#45F2E1"/>
<stop offset="1" stop-color="#22C7D6"/>
</linearGradient>
<linearGradient id="paint2_linear_252_4661" x1="314.962" y1="234.168" x2="845.473" y2="562.259" gradientUnits="userSpaceOnUse">
<stop stop-color="#45F2E1"/>
<stop offset="1" stop-color="#22C7D6"/>
</linearGradient>
<linearGradient id="paint3_linear_252_4661" x1="314.963" y1="234.168" x2="845.473" y2="562.259" gradientUnits="userSpaceOnUse">
<stop stop-color="#45F2E1"/>
<stop offset="1" stop-color="#22C7D6"/>
</linearGradient>
<linearGradient id="paint4_linear_252_4661" x1="269.864" y1="265.165" x2="889.561" y2="534.794" gradientUnits="userSpaceOnUse">
<stop stop-color="#0B2331" stop-opacity="0.04"/>
<stop offset="1" stop-color="#1CC7B7" stop-opacity="0.18"/>
</linearGradient>
<clipPath id="clip0_252_4661">
<rect width="844" height="474" fill="white"/>
</clipPath>
</defs>
</svg>
