<svg width="844" height="474" viewBox="0 0 844 474" fill="none" xmlns="http://www.w3.org/2000/svg">
<g clip-path="url(#clip0_263_4661)">
<rect width="844" height="474" fill="url(#paint0_linear_263_4661)"/>
<path d="M737.715 219H102.507C96.152 219 91 224.152 91 230.507V608.54C91 614.895 96.152 620.047 102.507 620.047H737.715C744.07 620.047 749.222 614.895 749.222 608.54V230.507C749.222 224.152 744.07 219 737.715 219Z" fill="#1A202C"/>
<path d="M737.715 219H102.507C96.152 219 91 224.152 91 230.507V608.54C91 614.895 96.152 620.047 102.507 620.047H737.715C744.07 620.047 749.222 614.895 749.222 608.54V230.507C749.222 224.152 744.07 219 737.715 219Z" stroke="#2D3748" stroke-width="1.3"/>
<path d="M134.588 278.789L132.562 275.456L132.967 275.64C132.918 275.64 132.856 275.64 132.783 275.64C132.722 275.653 132.654 275.659 132.58 275.659C131.721 275.659 130.973 275.494 130.334 275.162C129.696 274.83 129.199 274.364 128.842 273.762C128.487 273.149 128.309 272.443 128.309 271.645V265.864C128.309 265.041 128.487 264.336 128.842 263.747C129.199 263.145 129.696 262.679 130.334 262.347C130.973 262.015 131.721 261.85 132.58 261.85C133.439 261.85 134.189 262.015 134.826 262.347C135.465 262.679 135.961 263.145 136.318 263.747C136.674 264.348 136.851 265.053 136.851 265.864V271.645C136.851 272.456 136.674 273.167 136.318 273.781C135.974 274.382 135.483 274.842 134.845 275.162L137.073 278.789H134.588ZM132.58 273.634C133.219 273.634 133.704 273.461 134.035 273.118C134.379 272.763 134.55 272.272 134.55 271.645V265.864C134.55 265.226 134.373 264.735 134.016 264.391C133.673 264.035 133.194 263.857 132.58 263.857C131.966 263.857 131.481 264.035 131.126 264.391C130.783 264.735 130.61 265.226 130.61 265.864V271.645C130.61 272.272 130.783 272.763 131.126 273.118C131.469 273.461 131.954 273.634 132.58 273.634ZM143.252 275.659C141.963 275.659 140.95 275.303 140.214 274.591C139.477 273.867 139.109 272.885 139.109 271.645V265.348H141.411V271.627C141.411 272.278 141.57 272.78 141.89 273.137C142.208 273.48 142.663 273.653 143.252 273.653C143.829 273.653 144.277 273.48 144.596 273.137C144.928 272.78 145.093 272.278 145.093 271.627V265.348H147.394V271.645C147.394 272.885 147.02 273.867 146.272 274.591C145.523 275.303 144.516 275.659 143.252 275.659ZM153.942 275.659C153.083 275.659 152.334 275.494 151.695 275.162C151.058 274.83 150.56 274.37 150.205 273.781C149.861 273.179 149.689 272.479 149.689 271.682V269.142C149.689 268.344 149.861 267.65 150.205 267.061C150.56 266.459 151.058 265.993 151.695 265.661C152.334 265.329 153.083 265.164 153.942 265.164C154.789 265.164 155.525 265.329 156.152 265.661C156.789 265.993 157.28 266.459 157.625 267.061C157.98 267.65 158.158 268.344 158.158 269.142V270.964H151.917V271.682C151.917 272.394 152.088 272.934 152.432 273.302C152.776 273.658 153.285 273.837 153.96 273.837C154.476 273.837 154.894 273.751 155.212 273.578C155.531 273.394 155.734 273.131 155.82 272.786H158.085C157.913 273.658 157.447 274.358 156.685 274.886C155.937 275.402 155.022 275.659 153.942 275.659ZM155.93 269.675V269.123C155.93 268.423 155.765 267.889 155.433 267.521C155.101 267.14 154.605 266.95 153.942 266.95C153.279 266.95 152.776 267.14 152.432 267.521C152.088 267.901 151.917 268.442 151.917 269.142V269.528L156.096 269.491L155.93 269.675ZM160.802 275.475V265.348H162.975V267.282H163.546L162.865 268.459C162.865 267.368 163.111 266.545 163.602 265.993C164.093 265.44 164.816 265.164 165.773 265.164C166.866 265.164 167.725 265.502 168.351 266.177C168.978 266.852 169.29 267.784 169.29 268.975V269.712H166.878V269.142C166.878 268.49 166.707 267.987 166.363 267.631C166.032 267.276 165.571 267.097 164.982 267.097C164.381 267.097 163.914 267.276 163.583 267.631C163.264 267.987 163.104 268.49 163.104 269.142V275.475H160.802ZM172.799 278.789L174.218 274.922L170.443 265.348H172.966L174.843 270.523C174.941 270.805 175.039 271.148 175.138 271.553C175.236 271.946 175.31 272.272 175.359 272.529C175.421 272.272 175.5 271.946 175.599 271.553C175.697 271.148 175.795 270.805 175.893 270.523L177.661 265.348H180.091L175.212 278.789H172.799Z" fill="#4A5568"/>
<path d="M391.613 275.475V259.967H394.269V273.011H400.854V275.475H391.613ZM406.816 275.687C405.612 275.687 404.663 275.369 403.969 274.731C403.275 274.094 402.928 273.237 402.928 272.161C402.928 271.014 403.31 270.128 404.075 269.505C404.84 268.882 405.923 268.571 407.326 268.571H410.236V267.572C410.236 267.006 410.052 266.566 409.684 266.255C409.316 265.929 408.813 265.766 408.175 265.766C407.595 265.766 407.113 265.894 406.731 266.149C406.348 266.404 406.122 266.751 406.051 267.19H403.459C403.587 266.085 404.082 265.207 404.946 264.555C405.81 263.904 406.915 263.578 408.26 263.578C409.691 263.578 410.817 263.939 411.638 264.662C412.474 265.37 412.892 266.333 412.892 267.551V275.475H410.321V273.436H409.896L410.321 272.862C410.321 273.726 410.002 274.413 409.365 274.923C408.728 275.432 407.878 275.687 406.816 275.687ZM407.687 273.69C408.437 273.69 409.046 273.499 409.514 273.117C409.995 272.734 410.236 272.239 410.236 271.63V270.206H407.368C406.83 270.206 406.398 270.362 406.072 270.674C405.746 270.985 405.584 271.396 405.584 271.906C405.584 272.458 405.768 272.897 406.136 273.223C406.518 273.535 407.035 273.69 407.687 273.69ZM421.7 275.475C420.581 275.475 419.703 275.163 419.066 274.54C418.442 273.917 418.131 273.06 418.131 271.97V266.191H414.965V263.791H418.131V260.498H420.808V263.791H425.29V266.191H420.808V271.97C420.808 272.706 421.169 273.074 421.891 273.074H425.078V275.475H421.7ZM432.76 275.687C431.769 275.687 430.905 275.496 430.168 275.114C429.432 274.731 428.858 274.2 428.447 273.52C428.051 272.826 427.852 272.019 427.852 271.099V268.167C427.852 267.246 428.051 266.446 428.447 265.766C428.858 265.072 429.432 264.534 430.168 264.152C430.905 263.769 431.769 263.578 432.76 263.578C433.737 263.578 434.587 263.769 435.309 264.152C436.046 264.534 436.612 265.072 437.009 265.766C437.419 266.446 437.625 267.246 437.625 268.167V270.27H430.423V271.099C430.423 271.92 430.621 272.543 431.018 272.968C431.414 273.379 432.002 273.584 432.781 273.584C433.376 273.584 433.858 273.485 434.226 273.287C434.594 273.074 434.828 272.77 434.927 272.373H437.54C437.342 273.379 436.803 274.186 435.925 274.795C435.061 275.39 434.006 275.687 432.76 275.687ZM435.054 268.783V268.146C435.054 267.338 434.863 266.722 434.481 266.297C434.098 265.858 433.525 265.639 432.76 265.639C431.995 265.639 431.414 265.858 431.018 266.297C430.621 266.736 430.423 267.36 430.423 268.167V268.613L435.245 268.571L435.054 268.783ZM440.315 275.475V263.791H442.906V266.021H443.629L442.906 266.637C442.906 265.674 443.183 264.924 443.735 264.385C444.301 263.847 445.073 263.578 446.051 263.578C447.198 263.578 448.111 263.96 448.791 264.725C449.485 265.49 449.832 266.517 449.832 267.806V275.475H447.177V268.082C447.177 267.374 446.992 266.829 446.624 266.446C446.256 266.064 445.739 265.872 445.073 265.872C444.422 265.872 443.905 266.071 443.523 266.467C443.154 266.864 442.97 267.43 442.97 268.167V275.475H440.315ZM457.429 275.687C456.438 275.687 455.567 275.503 454.816 275.135C454.08 274.753 453.506 274.222 453.096 273.542C452.685 272.848 452.479 272.033 452.479 271.099V268.167C452.479 267.218 452.685 266.404 453.096 265.724C453.506 265.044 454.08 264.52 454.816 264.152C455.567 263.769 456.438 263.578 457.429 263.578C458.902 263.578 460.078 263.96 460.956 264.725C461.834 265.476 462.294 266.503 462.337 267.806H459.681C459.639 267.197 459.419 266.729 459.023 266.404C458.64 266.064 458.109 265.894 457.429 265.894C456.721 265.894 456.162 266.092 455.751 266.489C455.34 266.871 455.135 267.423 455.135 268.146V271.099C455.135 271.821 455.34 272.38 455.751 272.777C456.162 273.173 456.721 273.372 457.429 273.372C458.109 273.372 458.64 273.209 459.023 272.883C459.419 272.543 459.639 272.069 459.681 271.46H462.337C462.294 272.763 461.834 273.797 460.956 274.561C460.078 275.312 458.902 275.687 457.429 275.687ZM466.832 279.299L468.468 274.838L464.113 263.791H467.024L469.191 269.76C469.304 270.086 469.417 270.483 469.53 270.95C469.644 271.403 469.729 271.778 469.785 272.076C469.856 271.778 469.948 271.403 470.062 270.95C470.175 270.483 470.288 270.086 470.401 269.76L472.441 263.791H475.245L469.615 279.299H466.832Z" fill="white"/>
<path d="M499.982 275.623V262.182H508.046V264.188H502.247V267.687H507.402V269.675H502.247V273.616H508.046V275.623H499.982ZM510.765 275.623V265.496H512.936V267.429H513.507L512.826 268.607C512.826 267.515 513.072 266.693 513.563 266.14C514.054 265.588 514.777 265.312 515.736 265.312C516.827 265.312 517.687 265.649 518.313 266.325C518.939 267 519.252 267.932 519.252 269.123V269.859H516.84V269.289C516.84 268.638 516.668 268.135 516.325 267.779C515.993 267.423 515.533 267.245 514.944 267.245C514.342 267.245 513.876 267.423 513.544 267.779C513.225 268.135 513.066 268.638 513.066 269.289V275.623H510.765ZM521.436 275.623V265.496H523.608V267.429H524.179L523.498 268.607C523.498 267.515 523.744 266.693 524.235 266.14C524.726 265.588 525.449 265.312 526.407 265.312C527.499 265.312 528.358 265.649 528.985 266.325C529.611 267 529.923 267.932 529.923 269.123V269.859H527.512V269.289C527.512 268.638 527.34 268.135 526.996 267.779C526.665 267.423 526.204 267.245 525.616 267.245C525.014 267.245 524.547 267.423 524.216 267.779C523.897 268.135 523.738 268.638 523.738 269.289V275.623H521.436ZM535.9 275.788C535.041 275.788 534.293 275.628 533.654 275.31C533.027 274.978 532.537 274.518 532.181 273.929C531.838 273.327 531.665 272.621 531.665 271.811V269.307C531.665 268.497 531.838 267.797 532.181 267.209C532.537 266.607 533.027 266.146 533.654 265.828C534.293 265.496 535.041 265.331 535.9 265.331C536.771 265.331 537.521 265.496 538.146 265.828C538.773 266.146 539.257 266.607 539.601 267.209C539.957 267.797 540.135 268.491 540.135 269.289V271.811C540.135 272.621 539.957 273.327 539.601 273.929C539.257 274.518 538.773 274.978 538.146 275.31C537.521 275.628 536.771 275.788 535.9 275.788ZM535.9 273.781C536.514 273.781 536.986 273.616 537.318 273.284C537.661 272.941 537.833 272.45 537.833 271.811V269.307C537.833 268.657 537.661 268.166 537.318 267.834C536.986 267.502 536.514 267.337 535.9 267.337C535.298 267.337 534.826 267.502 534.483 267.834C534.139 268.166 533.967 268.657 533.967 269.307V271.811C533.967 272.45 534.139 272.941 534.483 273.284C534.826 273.616 535.298 273.781 535.9 273.781ZM542.779 275.623V265.496H544.952V267.429H545.523L544.842 268.607C544.842 267.515 545.087 266.693 545.578 266.14C546.069 265.588 546.793 265.312 547.75 265.312C548.843 265.312 549.702 265.649 550.328 266.325C550.954 267 551.267 267.932 551.267 269.123V269.859H548.855V269.289C548.855 268.638 548.683 268.135 548.34 267.779C548.008 267.423 547.548 267.245 546.959 267.245C546.357 267.245 545.891 267.423 545.559 267.779C545.241 268.135 545.08 268.638 545.08 269.289V275.623H542.779Z" fill="#4A5568"/>
<path d="M361.807 306.281H136.262C131.178 306.281 127.056 310.403 127.056 315.487C127.056 320.572 131.178 324.693 136.262 324.693H361.807C366.891 324.693 371.013 320.572 371.013 315.487C371.013 310.403 366.891 306.281 361.807 306.281Z" fill="#2D3748"/>
<path d="M473.812 306.281H435.454C430.37 306.281 426.248 310.403 426.248 315.487C426.248 320.572 430.37 324.693 435.454 324.693H473.812C478.896 324.693 483.018 320.572 483.018 315.487C483.018 310.403 478.896 306.281 473.812 306.281Z" fill="#1A202C"/>
<path d="M407.837 306.281H403.234C398.149 306.281 394.028 310.403 394.028 315.487C394.028 320.572 398.149 324.693 403.234 324.693H407.837C412.921 324.693 417.043 320.572 417.043 315.487C417.043 310.403 412.921 306.281 407.837 306.281Z" fill="#ED8936"/>
<path d="M550.528 306.281H515.239C510.155 306.281 506.033 310.403 506.033 315.487C506.033 320.572 510.155 324.693 515.239 324.693H550.528C555.612 324.693 559.734 320.572 559.734 315.487C559.734 310.403 555.612 306.281 550.528 306.281Z" fill="#2D3748"/>
<path d="M703.96 306.281H591.955C586.871 306.281 582.749 310.403 582.749 315.487C582.749 320.572 586.871 324.693 591.955 324.693H703.96C709.044 324.693 713.166 320.572 713.166 315.487C713.166 310.403 709.044 306.281 703.96 306.281Z" fill="#2D3748"/>
<path d="M361.807 343.109H136.262C131.178 343.109 127.056 347.23 127.056 352.315C127.056 357.399 131.178 361.52 136.262 361.52H361.807C366.891 361.52 371.013 357.399 371.013 352.315C371.013 347.23 366.891 343.109 361.807 343.109Z" fill="#2D3748"/>
<path d="M473.812 343.109H435.454C430.37 343.109 426.248 347.23 426.248 352.315C426.248 357.399 430.37 361.52 435.454 361.52H473.812C478.896 361.52 483.018 357.399 483.018 352.315C483.018 347.23 478.896 343.109 473.812 343.109Z" fill="#2D3748"/>
<path d="M407.837 343.109H403.234C398.149 343.109 394.028 347.23 394.028 352.315C394.028 357.399 398.149 361.52 403.234 361.52H407.837C412.921 361.52 417.043 357.399 417.043 352.315C417.043 347.23 412.921 343.109 407.837 343.109Z" fill="#4A5568"/>
<path d="M550.528 343.109H515.239C510.155 343.109 506.033 347.23 506.033 352.315C506.033 357.399 510.155 361.52 515.239 361.52H550.528C555.612 361.52 559.734 357.399 559.734 352.315C559.734 347.23 555.612 343.109 550.528 343.109Z" fill="#2D3748"/>
<path d="M703.96 343.109H591.955C586.871 343.109 582.749 347.23 582.749 352.315C582.749 357.399 586.871 361.52 591.955 361.52H703.96C709.044 361.52 713.166 357.399 713.166 352.315C713.166 347.23 709.044 343.109 703.96 343.109Z" fill="#2D3748"/>
<path d="M361.807 379.927H136.262C131.178 379.927 127.056 384.048 127.056 389.132C127.056 394.217 131.178 398.338 136.262 398.338H361.807C366.891 398.338 371.013 394.217 371.013 389.132C371.013 384.048 366.891 379.927 361.807 379.927Z" fill="#2D3748"/>
<path d="M473.812 379.927H435.454C430.37 379.927 426.248 384.048 426.248 389.132C426.248 394.217 430.37 398.338 435.454 398.338H473.812C478.896 398.338 483.018 394.217 483.018 389.132C483.018 384.048 478.896 379.927 473.812 379.927Z" fill="#2D3748"/>
<path d="M407.837 379.927H403.234C398.149 379.927 394.028 384.048 394.028 389.132C394.028 394.217 398.149 398.338 403.234 398.338H407.837C412.921 398.338 417.043 394.217 417.043 389.132C417.043 384.048 412.921 379.927 407.837 379.927Z" fill="#4A5568"/>
<path d="M550.528 379.927H515.239C510.155 379.927 506.033 384.048 506.033 389.132C506.033 394.217 510.155 398.338 515.239 398.338H550.528C555.612 398.338 559.734 394.217 559.734 389.132C559.734 384.048 555.612 379.927 550.528 379.927Z" fill="#2D3748"/>
<path d="M703.96 379.927H591.955C586.871 379.927 582.749 384.048 582.749 389.132C582.749 394.217 586.871 398.338 591.955 398.338H703.96C709.044 398.338 713.166 394.217 713.166 389.132C713.166 384.048 709.044 379.927 703.96 379.927Z" fill="#2D3748"/>
<path d="M361.807 416.754H136.262C131.178 416.754 127.056 420.875 127.056 425.96C127.056 431.044 131.178 435.165 136.262 435.165H361.807C366.891 435.165 371.013 431.044 371.013 425.96C371.013 420.875 366.891 416.754 361.807 416.754Z" fill="#2D3748"/>
<path d="M473.812 416.754H435.454C430.37 416.754 426.248 420.875 426.248 425.96C426.248 431.044 430.37 435.165 435.454 435.165H473.812C478.896 435.165 483.018 431.044 483.018 425.96C483.018 420.875 478.896 416.754 473.812 416.754Z" fill="#2D3748"/>
<path d="M407.837 416.754H403.234C398.149 416.754 394.028 420.875 394.028 425.96C394.028 431.044 398.149 435.165 403.234 435.165H407.837C412.921 435.165 417.043 431.044 417.043 425.96C417.043 420.875 412.921 416.754 407.837 416.754Z" fill="#4A5568"/>
<path d="M550.528 416.754H515.239C510.155 416.754 506.033 420.875 506.033 425.96C506.033 431.044 510.155 435.165 515.239 435.165H550.528C555.612 435.165 559.734 431.044 559.734 425.96C559.734 420.875 555.612 416.754 550.528 416.754Z" fill="#2D3748"/>
<path d="M703.96 416.754H591.955C586.871 416.754 582.749 420.875 582.749 425.96C582.749 431.044 586.871 435.165 591.955 435.165H703.96C709.044 435.165 713.166 431.044 713.166 425.96C713.166 420.875 709.044 416.754 703.96 416.754Z" fill="#2D3748"/>
<path d="M361.807 453.571H136.262C131.178 453.571 127.056 457.693 127.056 462.777C127.056 467.861 131.178 471.983 136.262 471.983H361.807C366.891 471.983 371.013 467.861 371.013 462.777C371.013 457.693 366.891 453.571 361.807 453.571Z" fill="#2D3748"/>
<path d="M473.812 453.571H435.454C430.37 453.571 426.248 457.693 426.248 462.777C426.248 467.861 430.37 471.983 435.454 471.983H473.812C478.896 471.983 483.018 467.861 483.018 462.777C483.018 457.693 478.896 453.571 473.812 453.571Z" fill="#2D3748"/>
<path d="M407.837 453.571H403.234C398.149 453.571 394.028 457.693 394.028 462.777C394.028 467.861 398.149 471.983 403.234 471.983H407.837C412.921 471.983 417.043 467.861 417.043 462.777C417.043 457.693 412.921 453.571 407.837 453.571Z" fill="#4A5568"/>
<path d="M550.528 453.571H515.239C510.155 453.571 506.033 457.693 506.033 462.777C506.033 467.861 510.155 471.983 515.239 471.983H550.528C555.612 471.983 559.734 467.861 559.734 462.777C559.734 457.693 555.612 453.571 550.528 453.571Z" fill="#2D3748"/>
<path d="M703.96 453.571H591.955C586.871 453.571 582.749 457.693 582.749 462.777C582.749 467.861 586.871 471.983 591.955 471.983H703.96C709.044 471.983 713.166 467.861 713.166 462.777C713.166 457.693 709.044 453.571 703.96 453.571Z" fill="#2D3748"/>
<path d="M752.35 291.408H91.4131V637.22H752.35V291.408Z" fill="url(#paint1_linear_263_4661)"/>
<path d="M430.252 319.291V317.603H433.167V309.794L430.236 311.973V309.947L432.814 308.091H435.085V317.603H437.432V319.291H430.252ZM439.068 319.291V317.435L442.566 313.921C443.057 313.419 443.421 312.97 443.656 312.571C443.891 312.161 444.009 311.742 444.009 311.313C444.009 310.791 443.866 310.387 443.579 310.101C443.292 309.804 442.904 309.656 442.413 309.656C441.871 309.656 441.446 309.814 441.14 310.131C440.833 310.438 440.679 310.868 440.679 311.42H438.761C438.772 310.704 438.925 310.09 439.222 309.579C439.528 309.057 439.958 308.654 440.51 308.367C441.063 308.08 441.707 307.937 442.444 307.937C443.149 307.937 443.763 308.071 444.285 308.336C444.807 308.602 445.21 308.976 445.497 309.456C445.784 309.937 445.927 310.51 445.927 311.175C445.927 311.86 445.747 312.53 445.39 313.185C445.041 313.829 444.48 314.524 443.702 315.271L441.37 317.557H446.065V319.291H439.068ZM449.327 319.291L452.641 314.075L452.549 314.013C452.345 314.331 452.069 314.57 451.72 314.734C451.372 314.898 450.984 314.98 450.554 314.98C449.961 314.98 449.439 314.837 448.989 314.55C448.549 314.263 448.207 313.864 447.961 313.353C447.716 312.842 447.593 312.244 447.593 311.558C447.593 310.822 447.747 310.188 448.053 309.656C448.371 309.114 448.81 308.694 449.373 308.398C449.936 308.091 450.59 307.937 451.337 307.937C452.104 307.937 452.768 308.095 453.331 308.413C453.894 308.72 454.329 309.154 454.636 309.717C454.953 310.28 455.111 310.94 455.111 311.696C455.111 312.218 455.024 312.775 454.85 313.369C454.677 313.952 454.426 314.499 454.099 315.01L451.46 319.291H449.327ZM451.352 313.522C451.915 313.522 452.37 313.343 452.718 312.985C453.066 312.617 453.239 312.131 453.239 311.528C453.239 310.945 453.066 310.474 452.718 310.116C452.37 309.748 451.915 309.564 451.352 309.564C450.789 309.564 450.335 309.748 449.987 310.116C449.638 310.474 449.465 310.945 449.465 311.528C449.465 312.131 449.638 312.617 449.987 312.985C450.335 313.343 450.789 313.522 451.352 313.522ZM456.44 319.291V310.852H458.005V311.988H458.327L458.067 312.264C458.067 311.793 458.199 311.415 458.466 311.129C458.731 310.842 459.073 310.699 459.494 310.699C459.943 310.699 460.291 310.883 460.537 311.251C460.792 311.62 460.92 312.115 460.92 312.74L460.583 311.988H461.105L460.905 312.264C460.905 311.793 461.037 311.415 461.304 311.129C461.57 310.842 461.922 310.699 462.363 310.699C462.884 310.699 463.299 310.894 463.605 311.282C463.912 311.67 464.066 312.198 464.066 312.862V319.291H462.378V312.939C462.378 312.663 462.317 312.448 462.194 312.295C462.071 312.131 461.892 312.049 461.657 312.049C461.431 312.049 461.252 312.126 461.12 312.279C460.997 312.433 460.936 312.652 460.936 312.939V319.291H459.555V312.939C459.555 312.652 459.494 312.433 459.371 312.279C459.248 312.126 459.069 312.049 458.834 312.049C458.598 312.049 458.42 312.126 458.297 312.279C458.183 312.433 458.128 312.652 458.128 312.939V319.291H456.44ZM468.816 319.429C468.172 319.429 467.609 319.327 467.129 319.122C466.647 318.918 466.269 318.636 465.993 318.279C465.726 317.91 465.584 317.481 465.564 316.99H467.481C467.501 317.255 467.629 317.47 467.865 317.634C468.11 317.798 468.427 317.88 468.816 317.88H469.491C469.961 317.88 470.314 317.788 470.55 317.603C470.785 317.419 470.903 317.169 470.903 316.852C470.903 316.555 470.796 316.325 470.581 316.161C470.375 315.988 470.053 315.874 469.614 315.824L468.571 315.67C467.609 315.537 466.903 315.282 466.453 314.903C466.003 314.524 465.778 313.957 465.778 313.2C465.778 312.413 466.044 311.804 466.576 311.374C467.107 310.934 467.89 310.714 468.924 310.714H469.507C470.447 310.714 471.199 310.924 471.762 311.343C472.324 311.762 472.626 312.325 472.667 313.031H470.75C470.719 312.806 470.59 312.622 470.366 312.479C470.151 312.336 469.864 312.264 469.507 312.264H468.924C468.483 312.264 468.161 312.345 467.957 312.51C467.762 312.663 467.666 312.893 467.666 313.2C467.666 313.487 467.752 313.702 467.926 313.844C468.1 313.978 468.381 314.075 468.77 314.136L469.86 314.289C470.862 314.432 471.598 314.704 472.069 315.103C472.549 315.491 472.79 316.069 472.79 316.836C472.79 317.654 472.508 318.294 471.946 318.754C471.394 319.204 470.575 319.429 469.491 319.429H468.816Z" fill="#4A5568"/>
<path d="M737.715 219H102.507C96.152 219 91 224.152 91 230.507V608.54C91 614.895 96.152 620.047 102.507 620.047H737.715C744.07 620.047 749.222 614.895 749.222 608.54V230.507C749.222 224.152 744.07 219 737.715 219Z" fill="#1A202C"/>
<path d="M737.715 219H102.507C96.152 219 91 224.152 91 230.507V608.54C91 614.895 96.152 620.047 102.507 620.047H737.715C744.07 620.047 749.222 614.895 749.222 608.54V230.507C749.222 224.152 744.07 219 737.715 219Z" stroke="#2D3748" stroke-width="1.3"/>
<path d="M134.588 278.789L132.562 275.456L132.967 275.64C132.918 275.64 132.856 275.64 132.783 275.64C132.722 275.653 132.654 275.659 132.58 275.659C131.721 275.659 130.973 275.494 130.334 275.162C129.696 274.83 129.199 274.364 128.842 273.762C128.487 273.149 128.309 272.443 128.309 271.645V265.864C128.309 265.041 128.487 264.336 128.842 263.747C129.199 263.145 129.696 262.679 130.334 262.347C130.973 262.015 131.721 261.85 132.58 261.85C133.439 261.85 134.189 262.015 134.826 262.347C135.465 262.679 135.961 263.145 136.318 263.747C136.674 264.348 136.851 265.053 136.851 265.864V271.645C136.851 272.456 136.674 273.167 136.318 273.781C135.974 274.382 135.483 274.842 134.845 275.162L137.073 278.789H134.588ZM132.58 273.634C133.219 273.634 133.704 273.461 134.035 273.118C134.379 272.763 134.55 272.272 134.55 271.645V265.864C134.55 265.226 134.373 264.735 134.016 264.391C133.673 264.035 133.194 263.857 132.58 263.857C131.966 263.857 131.481 264.035 131.126 264.391C130.783 264.735 130.61 265.226 130.61 265.864V271.645C130.61 272.272 130.783 272.763 131.126 273.118C131.469 273.461 131.954 273.634 132.58 273.634ZM143.252 275.659C141.963 275.659 140.95 275.303 140.214 274.591C139.477 273.867 139.109 272.885 139.109 271.645V265.348H141.411V271.627C141.411 272.278 141.57 272.78 141.89 273.137C142.208 273.48 142.663 273.653 143.252 273.653C143.829 273.653 144.277 273.48 144.596 273.137C144.928 272.78 145.093 272.278 145.093 271.627V265.348H147.394V271.645C147.394 272.885 147.02 273.867 146.272 274.591C145.523 275.303 144.516 275.659 143.252 275.659ZM153.942 275.659C153.083 275.659 152.334 275.494 151.695 275.162C151.058 274.83 150.56 274.37 150.205 273.781C149.861 273.179 149.689 272.479 149.689 271.682V269.142C149.689 268.344 149.861 267.65 150.205 267.061C150.56 266.459 151.058 265.993 151.695 265.661C152.334 265.329 153.083 265.164 153.942 265.164C154.789 265.164 155.525 265.329 156.152 265.661C156.789 265.993 157.28 266.459 157.625 267.061C157.98 267.65 158.158 268.344 158.158 269.142V270.964H151.917V271.682C151.917 272.394 152.088 272.934 152.432 273.302C152.776 273.658 153.285 273.837 153.96 273.837C154.476 273.837 154.894 273.751 155.212 273.578C155.531 273.394 155.734 273.131 155.82 272.786H158.085C157.913 273.658 157.447 274.358 156.685 274.886C155.937 275.402 155.022 275.659 153.942 275.659ZM155.93 269.675V269.123C155.93 268.423 155.765 267.889 155.433 267.521C155.101 267.14 154.605 266.95 153.942 266.95C153.279 266.95 152.776 267.14 152.432 267.521C152.088 267.901 151.917 268.442 151.917 269.142V269.528L156.096 269.491L155.93 269.675ZM160.802 275.475V265.348H162.975V267.282H163.546L162.865 268.459C162.865 267.368 163.111 266.545 163.602 265.993C164.093 265.44 164.816 265.164 165.773 265.164C166.866 265.164 167.725 265.502 168.351 266.177C168.978 266.852 169.29 267.784 169.29 268.975V269.712H166.878V269.142C166.878 268.49 166.707 267.987 166.363 267.631C166.032 267.276 165.571 267.097 164.982 267.097C164.381 267.097 163.914 267.276 163.583 267.631C163.264 267.987 163.104 268.49 163.104 269.142V275.475H160.802ZM172.799 278.789L174.218 274.922L170.443 265.348H172.966L174.843 270.523C174.941 270.805 175.039 271.148 175.138 271.553C175.236 271.946 175.31 272.272 175.359 272.529C175.421 272.272 175.5 271.946 175.599 271.553C175.697 271.148 175.795 270.805 175.893 270.523L177.661 265.348H180.091L175.212 278.789H172.799Z" fill="#4A5568"/>
<path d="M391.613 275.475V259.967H394.269V273.011H400.854V275.475H391.613ZM406.816 275.687C405.612 275.687 404.663 275.369 403.969 274.731C403.275 274.094 402.928 273.237 402.928 272.161C402.928 271.014 403.31 270.128 404.075 269.505C404.84 268.882 405.923 268.571 407.326 268.571H410.236V267.572C410.236 267.006 410.052 266.566 409.684 266.255C409.316 265.929 408.813 265.766 408.175 265.766C407.595 265.766 407.113 265.894 406.731 266.149C406.348 266.404 406.122 266.751 406.051 267.19H403.459C403.587 266.085 404.082 265.207 404.946 264.555C405.81 263.904 406.915 263.578 408.26 263.578C409.691 263.578 410.817 263.939 411.638 264.662C412.474 265.37 412.892 266.333 412.892 267.551V275.475H410.321V273.436H409.896L410.321 272.862C410.321 273.726 410.002 274.413 409.365 274.923C408.728 275.432 407.878 275.687 406.816 275.687ZM407.687 273.69C408.437 273.69 409.046 273.499 409.514 273.117C409.995 272.734 410.236 272.239 410.236 271.63V270.206H407.368C406.83 270.206 406.398 270.362 406.072 270.674C405.746 270.985 405.584 271.396 405.584 271.906C405.584 272.458 405.768 272.897 406.136 273.223C406.518 273.535 407.035 273.69 407.687 273.69ZM421.7 275.475C420.581 275.475 419.703 275.163 419.066 274.54C418.442 273.917 418.131 273.06 418.131 271.97V266.191H414.965V263.791H418.131V260.498H420.808V263.791H425.29V266.191H420.808V271.97C420.808 272.706 421.169 273.074 421.891 273.074H425.078V275.475H421.7ZM432.76 275.687C431.769 275.687 430.905 275.496 430.168 275.114C429.432 274.731 428.858 274.2 428.447 273.52C428.051 272.826 427.852 272.019 427.852 271.099V268.167C427.852 267.246 428.051 266.446 428.447 265.766C428.858 265.072 429.432 264.534 430.168 264.152C430.905 263.769 431.769 263.578 432.76 263.578C433.737 263.578 434.587 263.769 435.309 264.152C436.046 264.534 436.612 265.072 437.009 265.766C437.419 266.446 437.625 267.246 437.625 268.167V270.27H430.423V271.099C430.423 271.92 430.621 272.543 431.018 272.968C431.414 273.379 432.002 273.584 432.781 273.584C433.376 273.584 433.858 273.485 434.226 273.287C434.594 273.074 434.828 272.77 434.927 272.373H437.54C437.342 273.379 436.803 274.186 435.925 274.795C435.061 275.39 434.006 275.687 432.76 275.687ZM435.054 268.783V268.146C435.054 267.338 434.863 266.722 434.481 266.297C434.098 265.858 433.525 265.639 432.76 265.639C431.995 265.639 431.414 265.858 431.018 266.297C430.621 266.736 430.423 267.36 430.423 268.167V268.613L435.245 268.571L435.054 268.783ZM440.315 275.475V263.791H442.906V266.021H443.629L442.906 266.637C442.906 265.674 443.183 264.924 443.735 264.385C444.301 263.847 445.073 263.578 446.051 263.578C447.198 263.578 448.111 263.96 448.791 264.725C449.485 265.49 449.832 266.517 449.832 267.806V275.475H447.177V268.082C447.177 267.374 446.992 266.829 446.624 266.446C446.256 266.064 445.739 265.872 445.073 265.872C444.422 265.872 443.905 266.071 443.523 266.467C443.154 266.864 442.97 267.43 442.97 268.167V275.475H440.315ZM457.429 275.687C456.438 275.687 455.567 275.503 454.816 275.135C454.08 274.753 453.506 274.222 453.096 273.542C452.685 272.848 452.479 272.033 452.479 271.099V268.167C452.479 267.218 452.685 266.404 453.096 265.724C453.506 265.044 454.08 264.52 454.816 264.152C455.567 263.769 456.438 263.578 457.429 263.578C458.902 263.578 460.078 263.96 460.956 264.725C461.834 265.476 462.294 266.503 462.337 267.806H459.681C459.639 267.197 459.419 266.729 459.023 266.404C458.64 266.064 458.109 265.894 457.429 265.894C456.721 265.894 456.162 266.092 455.751 266.489C455.34 266.871 455.135 267.423 455.135 268.146V271.099C455.135 271.821 455.34 272.38 455.751 272.777C456.162 273.173 456.721 273.372 457.429 273.372C458.109 273.372 458.64 273.209 459.023 272.883C459.419 272.543 459.639 272.069 459.681 271.46H462.337C462.294 272.763 461.834 273.797 460.956 274.561C460.078 275.312 458.902 275.687 457.429 275.687ZM466.832 279.299L468.468 274.838L464.113 263.791H467.024L469.191 269.76C469.304 270.086 469.417 270.483 469.53 270.95C469.644 271.403 469.729 271.778 469.785 272.076C469.856 271.778 469.948 271.403 470.062 270.95C470.175 270.483 470.288 270.086 470.401 269.76L472.441 263.791H475.245L469.615 279.299H466.832Z" fill="white"/>
<path d="M499.982 275.623V262.182H508.046V264.188H502.247V267.687H507.402V269.675H502.247V273.616H508.046V275.623H499.982ZM510.765 275.623V265.496H512.936V267.429H513.507L512.826 268.607C512.826 267.515 513.072 266.693 513.563 266.14C514.054 265.588 514.777 265.312 515.736 265.312C516.827 265.312 517.687 265.649 518.313 266.325C518.939 267 519.252 267.932 519.252 269.123V269.859H516.84V269.289C516.84 268.638 516.668 268.135 516.325 267.779C515.993 267.423 515.533 267.245 514.944 267.245C514.342 267.245 513.876 267.423 513.544 267.779C513.225 268.135 513.066 268.638 513.066 269.289V275.623H510.765ZM521.436 275.623V265.496H523.608V267.429H524.179L523.498 268.607C523.498 267.515 523.744 266.693 524.235 266.14C524.726 265.588 525.449 265.312 526.407 265.312C527.499 265.312 528.358 265.649 528.985 266.325C529.611 267 529.923 267.932 529.923 269.123V269.859H527.512V269.289C527.512 268.638 527.34 268.135 526.996 267.779C526.665 267.423 526.204 267.245 525.616 267.245C525.014 267.245 524.547 267.423 524.216 267.779C523.897 268.135 523.738 268.638 523.738 269.289V275.623H521.436ZM535.9 275.788C535.041 275.788 534.293 275.628 533.654 275.31C533.027 274.978 532.537 274.518 532.181 273.929C531.838 273.327 531.665 272.621 531.665 271.811V269.307C531.665 268.497 531.838 267.797 532.181 267.209C532.537 266.607 533.027 266.146 533.654 265.828C534.293 265.496 535.041 265.331 535.9 265.331C536.771 265.331 537.521 265.496 538.146 265.828C538.773 266.146 539.257 266.607 539.601 267.209C539.957 267.797 540.135 268.491 540.135 269.289V271.811C540.135 272.621 539.957 273.327 539.601 273.929C539.257 274.518 538.773 274.978 538.146 275.31C537.521 275.628 536.771 275.788 535.9 275.788ZM535.9 273.781C536.514 273.781 536.986 273.616 537.318 273.284C537.661 272.941 537.833 272.45 537.833 271.811V269.307C537.833 268.657 537.661 268.166 537.318 267.834C536.986 267.502 536.514 267.337 535.9 267.337C535.298 267.337 534.826 267.502 534.483 267.834C534.139 268.166 533.967 268.657 533.967 269.307V271.811C533.967 272.45 534.139 272.941 534.483 273.284C534.826 273.616 535.298 273.781 535.9 273.781ZM542.779 275.623V265.496H544.952V267.429H545.523L544.842 268.607C544.842 267.515 545.087 266.693 545.578 266.14C546.069 265.588 546.793 265.312 547.75 265.312C548.843 265.312 549.702 265.649 550.328 266.325C550.954 267 551.267 267.932 551.267 269.123V269.859H548.855V269.289C548.855 268.638 548.683 268.135 548.34 267.779C548.008 267.423 547.548 267.245 546.959 267.245C546.357 267.245 545.891 267.423 545.559 267.779C545.241 268.135 545.08 268.638 545.08 269.289V275.623H542.779Z" fill="#4A5568"/>
<path d="M361.807 306.281H136.262C131.178 306.281 127.056 310.403 127.056 315.487C127.056 320.572 131.178 324.693 136.262 324.693H361.807C366.891 324.693 371.013 320.572 371.013 315.487C371.013 310.403 366.891 306.281 361.807 306.281Z" fill="#2D3748"/>
<path d="M473.812 306.281H435.454C430.37 306.281 426.248 310.403 426.248 315.487C426.248 320.572 430.37 324.693 435.454 324.693H473.812C478.896 324.693 483.018 320.572 483.018 315.487C483.018 310.403 478.896 306.281 473.812 306.281Z" fill="#1A202C"/>
<path d="M407.837 306.281H403.234C398.149 306.281 394.028 310.403 394.028 315.487C394.028 320.572 398.149 324.693 403.234 324.693H407.837C412.921 324.693 417.043 320.572 417.043 315.487C417.043 310.403 412.921 306.281 407.837 306.281Z" fill="#ED8936"/>
<path d="M550.528 306.281H515.239C510.155 306.281 506.033 310.403 506.033 315.487C506.033 320.572 510.155 324.693 515.239 324.693H550.528C555.612 324.693 559.734 320.572 559.734 315.487C559.734 310.403 555.612 306.281 550.528 306.281Z" fill="#2D3748"/>
<path d="M703.96 306.281H591.955C586.871 306.281 582.749 310.403 582.749 315.487C582.749 320.572 586.871 324.693 591.955 324.693H703.96C709.044 324.693 713.166 320.572 713.166 315.487C713.166 310.403 709.044 306.281 703.96 306.281Z" fill="#2D3748"/>
<path d="M361.807 343.109H136.262C131.178 343.109 127.056 347.23 127.056 352.315C127.056 357.399 131.178 361.52 136.262 361.52H361.807C366.891 361.52 371.013 357.399 371.013 352.315C371.013 347.23 366.891 343.109 361.807 343.109Z" fill="#2D3748"/>
<path d="M473.812 343.109H435.454C430.37 343.109 426.248 347.23 426.248 352.315C426.248 357.399 430.37 361.52 435.454 361.52H473.812C478.896 361.52 483.018 357.399 483.018 352.315C483.018 347.23 478.896 343.109 473.812 343.109Z" fill="#2D3748"/>
<path d="M407.837 343.109H403.234C398.149 343.109 394.028 347.23 394.028 352.315C394.028 357.399 398.149 361.52 403.234 361.52H407.837C412.921 361.52 417.043 357.399 417.043 352.315C417.043 347.23 412.921 343.109 407.837 343.109Z" fill="#4A5568"/>
<path d="M550.528 343.109H515.239C510.155 343.109 506.033 347.23 506.033 352.315C506.033 357.399 510.155 361.52 515.239 361.52H550.528C555.612 361.52 559.734 357.399 559.734 352.315C559.734 347.23 555.612 343.109 550.528 343.109Z" fill="#2D3748"/>
<path d="M703.96 343.109H591.955C586.871 343.109 582.749 347.23 582.749 352.315C582.749 357.399 586.871 361.52 591.955 361.52H703.96C709.044 361.52 713.166 357.399 713.166 352.315C713.166 347.23 709.044 343.109 703.96 343.109Z" fill="#2D3748"/>
<path d="M361.807 379.927H136.262C131.178 379.927 127.056 384.048 127.056 389.132C127.056 394.217 131.178 398.338 136.262 398.338H361.807C366.891 398.338 371.013 394.217 371.013 389.132C371.013 384.048 366.891 379.927 361.807 379.927Z" fill="#2D3748"/>
<path d="M473.812 379.927H435.454C430.37 379.927 426.248 384.048 426.248 389.132C426.248 394.217 430.37 398.338 435.454 398.338H473.812C478.896 398.338 483.018 394.217 483.018 389.132C483.018 384.048 478.896 379.927 473.812 379.927Z" fill="#2D3748"/>
<path d="M407.837 379.927H403.234C398.149 379.927 394.028 384.048 394.028 389.132C394.028 394.217 398.149 398.338 403.234 398.338H407.837C412.921 398.338 417.043 394.217 417.043 389.132C417.043 384.048 412.921 379.927 407.837 379.927Z" fill="#4A5568"/>
<path d="M550.528 379.927H515.239C510.155 379.927 506.033 384.048 506.033 389.132C506.033 394.217 510.155 398.338 515.239 398.338H550.528C555.612 398.338 559.734 394.217 559.734 389.132C559.734 384.048 555.612 379.927 550.528 379.927Z" fill="#2D3748"/>
<path d="M703.96 379.927H591.955C586.871 379.927 582.749 384.048 582.749 389.132C582.749 394.217 586.871 398.338 591.955 398.338H703.96C709.044 398.338 713.166 394.217 713.166 389.132C713.166 384.048 709.044 379.927 703.96 379.927Z" fill="#2D3748"/>
<path d="M361.807 416.754H136.262C131.178 416.754 127.056 420.875 127.056 425.96C127.056 431.044 131.178 435.165 136.262 435.165H361.807C366.891 435.165 371.013 431.044 371.013 425.96C371.013 420.875 366.891 416.754 361.807 416.754Z" fill="#2D3748"/>
<path d="M473.812 416.754H435.454C430.37 416.754 426.248 420.875 426.248 425.96C426.248 431.044 430.37 435.165 435.454 435.165H473.812C478.896 435.165 483.018 431.044 483.018 425.96C483.018 420.875 478.896 416.754 473.812 416.754Z" fill="#2D3748"/>
<path d="M407.837 416.754H403.234C398.149 416.754 394.028 420.875 394.028 425.96C394.028 431.044 398.149 435.165 403.234 435.165H407.837C412.921 435.165 417.043 431.044 417.043 425.96C417.043 420.875 412.921 416.754 407.837 416.754Z" fill="#4A5568"/>
<path d="M550.528 416.754H515.239C510.155 416.754 506.033 420.875 506.033 425.96C506.033 431.044 510.155 435.165 515.239 435.165H550.528C555.612 435.165 559.734 431.044 559.734 425.96C559.734 420.875 555.612 416.754 550.528 416.754Z" fill="#2D3748"/>
<path d="M703.96 416.754H591.955C586.871 416.754 582.749 420.875 582.749 425.96C582.749 431.044 586.871 435.165 591.955 435.165H703.96C709.044 435.165 713.166 431.044 713.166 425.96C713.166 420.875 709.044 416.754 703.96 416.754Z" fill="#2D3748"/>
<path d="M361.807 453.571H136.262C131.178 453.571 127.056 457.693 127.056 462.777C127.056 467.861 131.178 471.983 136.262 471.983H361.807C366.891 471.983 371.013 467.861 371.013 462.777C371.013 457.693 366.891 453.571 361.807 453.571Z" fill="#2D3748"/>
<path d="M473.812 453.571H435.454C430.37 453.571 426.248 457.693 426.248 462.777C426.248 467.861 430.37 471.983 435.454 471.983H473.812C478.896 471.983 483.018 467.861 483.018 462.777C483.018 457.693 478.896 453.571 473.812 453.571Z" fill="#2D3748"/>
<path d="M407.837 453.571H403.234C398.149 453.571 394.028 457.693 394.028 462.777C394.028 467.861 398.149 471.983 403.234 471.983H407.837C412.921 471.983 417.043 467.861 417.043 462.777C417.043 457.693 412.921 453.571 407.837 453.571Z" fill="#4A5568"/>
<path d="M550.528 453.571H515.239C510.155 453.571 506.033 457.693 506.033 462.777C506.033 467.861 510.155 471.983 515.239 471.983H550.528C555.612 471.983 559.734 467.861 559.734 462.777C559.734 457.693 555.612 453.571 550.528 453.571Z" fill="#2D3748"/>
<path d="M703.96 453.571H591.955C586.871 453.571 582.749 457.693 582.749 462.777C582.749 467.861 586.871 471.983 591.955 471.983H703.96C709.044 471.983 713.166 467.861 713.166 462.777C713.166 457.693 709.044 453.571 703.96 453.571Z" fill="#2D3748"/>
<path d="M752.35 291.408H91.4131V637.22H752.35V291.408Z" fill="url(#paint2_linear_263_4661)"/>
<path d="M430.252 319.291V317.603H433.167V309.794L430.236 311.973V309.947L432.814 308.091H435.085V317.603H437.432V319.291H430.252ZM439.068 319.291V317.435L442.566 313.921C443.057 313.419 443.421 312.97 443.656 312.571C443.891 312.161 444.009 311.742 444.009 311.313C444.009 310.791 443.866 310.387 443.579 310.101C443.292 309.804 442.904 309.656 442.413 309.656C441.871 309.656 441.446 309.814 441.14 310.131C440.833 310.438 440.679 310.868 440.679 311.42H438.761C438.772 310.704 438.925 310.09 439.222 309.579C439.528 309.057 439.958 308.654 440.51 308.367C441.063 308.08 441.707 307.937 442.444 307.937C443.149 307.937 443.763 308.071 444.285 308.336C444.807 308.602 445.21 308.976 445.497 309.456C445.784 309.937 445.927 310.51 445.927 311.175C445.927 311.86 445.747 312.53 445.39 313.185C445.041 313.829 444.48 314.524 443.702 315.271L441.37 317.557H446.065V319.291H439.068ZM449.327 319.291L452.641 314.075L452.549 314.013C452.345 314.331 452.069 314.57 451.72 314.734C451.372 314.898 450.984 314.98 450.554 314.98C449.961 314.98 449.439 314.837 448.989 314.55C448.549 314.263 448.207 313.864 447.961 313.353C447.716 312.842 447.593 312.244 447.593 311.558C447.593 310.822 447.747 310.188 448.053 309.656C448.371 309.114 448.81 308.694 449.373 308.398C449.936 308.091 450.59 307.937 451.337 307.937C452.104 307.937 452.768 308.095 453.331 308.413C453.894 308.72 454.329 309.154 454.636 309.717C454.953 310.28 455.111 310.94 455.111 311.696C455.111 312.218 455.024 312.775 454.85 313.369C454.677 313.952 454.426 314.499 454.099 315.01L451.46 319.291H449.327ZM451.352 313.522C451.915 313.522 452.37 313.343 452.718 312.985C453.066 312.617 453.239 312.131 453.239 311.528C453.239 310.945 453.066 310.474 452.718 310.116C452.37 309.748 451.915 309.564 451.352 309.564C450.789 309.564 450.335 309.748 449.987 310.116C449.638 310.474 449.465 310.945 449.465 311.528C449.465 312.131 449.638 312.617 449.987 312.985C450.335 313.343 450.789 313.522 451.352 313.522ZM456.44 319.291V310.852H458.005V311.988H458.327L458.067 312.264C458.067 311.793 458.199 311.415 458.466 311.129C458.731 310.842 459.073 310.699 459.494 310.699C459.943 310.699 460.291 310.883 460.537 311.251C460.792 311.62 460.92 312.115 460.92 312.74L460.583 311.988H461.105L460.905 312.264C460.905 311.793 461.037 311.415 461.304 311.129C461.57 310.842 461.922 310.699 462.363 310.699C462.884 310.699 463.299 310.894 463.605 311.282C463.912 311.67 464.066 312.198 464.066 312.862V319.291H462.378V312.939C462.378 312.663 462.317 312.448 462.194 312.295C462.071 312.131 461.892 312.049 461.657 312.049C461.431 312.049 461.252 312.126 461.12 312.279C460.997 312.433 460.936 312.652 460.936 312.939V319.291H459.555V312.939C459.555 312.652 459.494 312.433 459.371 312.279C459.248 312.126 459.069 312.049 458.834 312.049C458.598 312.049 458.42 312.126 458.297 312.279C458.183 312.433 458.128 312.652 458.128 312.939V319.291H456.44ZM468.816 319.429C468.172 319.429 467.609 319.327 467.129 319.122C466.647 318.918 466.269 318.636 465.993 318.279C465.726 317.91 465.584 317.481 465.564 316.99H467.481C467.501 317.255 467.629 317.47 467.865 317.634C468.11 317.798 468.427 317.88 468.816 317.88H469.491C469.961 317.88 470.314 317.788 470.55 317.603C470.785 317.419 470.903 317.169 470.903 316.852C470.903 316.555 470.796 316.325 470.581 316.161C470.375 315.988 470.053 315.874 469.614 315.824L468.571 315.67C467.609 315.537 466.903 315.282 466.453 314.903C466.003 314.524 465.778 313.957 465.778 313.2C465.778 312.413 466.044 311.804 466.576 311.374C467.107 310.934 467.89 310.714 468.924 310.714H469.507C470.447 310.714 471.199 310.924 471.762 311.343C472.324 311.762 472.626 312.325 472.667 313.031H470.75C470.719 312.806 470.59 312.622 470.366 312.479C470.151 312.336 469.864 312.264 469.507 312.264H468.924C468.483 312.264 468.161 312.345 467.957 312.51C467.762 312.663 467.666 312.893 467.666 313.2C467.666 313.487 467.752 313.702 467.926 313.844C468.1 313.978 468.381 314.075 468.77 314.136L469.86 314.289C470.862 314.432 471.598 314.704 472.069 315.103C472.549 315.491 472.79 316.069 472.79 316.836C472.79 317.654 472.508 318.294 471.946 318.754C471.394 319.204 470.575 319.429 469.491 319.429H468.816Z" fill="#4A5568"/>
<path opacity="0.24" d="M844 0H0V474H844V0Z" fill="url(#paint3_linear_263_4661)"/>
<g opacity="0.42" filter="url(#filter0_f_263_4661)">
<path d="M422 586C576.64 586 702 533.17 702 468C702 402.83 576.64 350 422 350C267.36 350 142 402.83 142 468C142 533.17 267.36 586 422 586Z" fill="url(#paint4_radial_263_4661)"/>
</g>
<g opacity="0.38" filter="url(#filter1_f_263_4661)">
<path d="M422 510C489.379 510 544 486.719 544 458C544 429.281 489.379 406 422 406C354.621 406 300 429.281 300 458C300 486.719 354.621 510 422 510Z" fill="#FF9C55"/>
</g>
<path opacity="0.24" d="M820.611 151H30.3892C17.4717 151 7 159.795 7 170.645V479.355C7 490.205 17.4717 499 30.3892 499H820.611C833.528 499 844 490.205 844 479.355V170.645C844 159.795 833.528 151 820.611 151Z" fill="url(#paint5_linear_263_4661)"/>
<g filter="url(#filter2_dddddd_263_4661)">
<path d="M151.654 101.908C155.514 101.908 158.913 102.696 161.849 104.273C164.785 105.796 167.041 107.998 168.618 110.88C170.249 113.707 171.065 116.969 171.065 120.667C171.065 124.31 170.222 127.518 168.537 130.291C166.851 133.064 164.486 135.212 161.441 136.734C158.396 138.257 154.889 139.018 150.92 139.018H142.274C142.003 139.018 141.867 139.154 141.867 139.426V157.777C141.867 158.157 141.758 158.456 141.54 158.674C141.323 158.891 141.024 159 140.643 159H127.757C127.376 159 127.077 158.891 126.86 158.674C126.642 158.456 126.533 158.157 126.533 157.777V103.131C126.533 102.751 126.642 102.452 126.86 102.234C127.077 102.017 127.376 101.908 127.757 101.908H151.654ZM149.125 126.784C151.137 126.784 152.741 126.267 153.937 125.234C155.188 124.147 155.813 122.733 155.813 120.993C155.813 119.199 155.188 117.758 153.937 116.67C152.741 115.583 151.137 115.039 149.125 115.039H142.274C142.003 115.039 141.867 115.175 141.867 115.447V126.376C141.867 126.648 142.003 126.784 142.274 126.784H149.125ZM199.008 116.018C200.857 116.018 202.325 116.371 203.413 117.078C203.902 117.35 204.092 117.867 203.983 118.628L202.026 131.188C201.972 131.623 201.809 131.895 201.537 132.004C201.319 132.112 200.993 132.112 200.558 132.004C199.579 131.786 198.709 131.677 197.948 131.677C197.132 131.677 196.371 131.759 195.664 131.922C194.251 132.194 193.027 132.792 191.994 133.716C191.015 134.586 190.526 135.783 190.526 137.305V157.777C190.526 158.157 190.417 158.456 190.2 158.674C189.982 158.891 189.683 159 189.303 159H176.416C176.036 159 175.736 158.891 175.519 158.674C175.302 158.456 175.193 158.157 175.193 157.777V117.812C175.193 117.432 175.302 117.133 175.519 116.915C175.736 116.698 176.036 116.589 176.416 116.589H189.303C189.683 116.589 189.982 116.698 190.2 116.915C190.417 117.133 190.526 117.432 190.526 117.812V119.77C190.526 119.933 190.58 120.042 190.689 120.096C190.798 120.15 190.879 120.123 190.934 120.014C193 117.35 195.692 116.018 199.008 116.018ZM215.278 113.734C213.049 113.734 211.2 113.027 209.732 111.614C208.318 110.146 207.612 108.297 207.612 106.068C207.612 103.784 208.318 101.935 209.732 100.521C211.2 99.1078 213.049 98.4009 215.278 98.4009C217.508 98.4009 219.329 99.1078 220.743 100.521C222.211 101.935 222.945 103.784 222.945 106.068C222.945 108.242 222.211 110.064 220.743 111.532C219.329 113 217.508 113.734 215.278 113.734ZM208.753 159C208.373 159 208.074 158.891 207.856 158.674C207.639 158.456 207.53 158.157 207.53 157.777V117.812C207.53 117.432 207.639 117.133 207.856 116.915C208.074 116.698 208.373 116.589 208.753 116.589H221.64C222.021 116.589 222.32 116.698 222.537 116.915C222.755 117.133 222.863 117.432 222.863 117.812V157.777C222.863 158.157 222.755 158.456 222.537 158.674C222.32 158.891 222.021 159 221.64 159H208.753ZM247.242 159.652C241.098 159.652 236.231 158.456 232.643 156.064C229.109 153.671 227.341 150.491 227.341 146.521V145.787C227.341 145.407 227.45 145.108 227.668 144.89C227.885 144.673 228.184 144.564 228.565 144.564H240.799C241.614 144.564 242.022 144.863 242.022 145.461C242.022 146.331 242.484 147.038 243.409 147.582C244.387 148.125 245.638 148.397 247.161 148.397C248.357 148.397 249.308 148.234 250.015 147.908C250.776 147.527 251.157 147.011 251.157 146.358C251.157 145.597 250.722 145.08 249.852 144.809C248.982 144.482 247.432 144.129 245.203 143.748C243.137 143.476 241.288 143.15 239.657 142.77C238.026 142.389 236.449 141.818 234.927 141.057C230.25 138.773 227.912 135.184 227.912 130.291C227.912 125.887 229.625 122.407 233.051 119.851C236.476 117.241 240.989 115.936 246.59 115.936C250.396 115.936 253.713 116.562 256.54 117.812C259.422 119.008 261.651 120.721 263.228 122.95C264.805 125.18 265.593 127.763 265.593 130.699C265.593 131.297 265.185 131.596 264.37 131.596H252.543C251.728 131.596 251.32 131.297 251.32 130.699C251.32 129.774 250.912 129.067 250.097 128.578C249.281 128.034 248.194 127.763 246.834 127.763C245.584 127.763 244.551 127.98 243.735 128.415C242.974 128.796 242.593 129.339 242.593 130.046C242.593 130.916 243.11 131.514 244.143 131.841C245.176 132.167 246.834 132.493 249.118 132.819C249.39 132.874 250.423 133.037 252.217 133.309C254.066 133.58 255.833 134.015 257.519 134.614C260.455 135.647 262.684 137.088 264.207 138.936C265.783 140.731 266.572 143.096 266.572 146.032C266.572 150.491 264.832 153.889 261.352 156.227C257.872 158.511 253.169 159.652 247.242 159.652ZM320.612 115.936C324.907 115.936 328.251 117.268 330.644 119.933C333.036 122.597 334.232 126.349 334.232 131.188V157.777C334.232 158.157 334.123 158.456 333.906 158.674C333.688 158.891 333.389 159 333.009 159H320.122C319.742 159 319.443 158.891 319.225 158.674C319.008 158.456 318.899 158.157 318.899 157.777V134.532C318.899 132.901 318.491 131.596 317.676 130.617C316.914 129.584 315.908 129.067 314.658 129.067C313.353 129.067 312.293 129.584 311.477 130.617C310.661 131.596 310.254 132.901 310.254 134.532V157.777C310.254 158.157 310.145 158.456 309.927 158.674C309.71 158.891 309.411 159 309.03 159H296.144C295.763 159 295.464 158.891 295.247 158.674C295.029 158.456 294.92 158.157 294.92 157.777V134.532C294.92 132.901 294.485 131.596 293.615 130.617C292.8 129.584 291.712 129.067 290.353 129.067C289.157 129.067 288.151 129.448 287.335 130.209C286.574 130.916 286.085 131.895 285.867 133.145C285.813 133.254 285.786 133.417 285.786 133.635V157.777C285.786 158.157 285.677 158.456 285.459 158.674C285.242 158.891 284.943 159 284.562 159H271.676C271.295 159 270.996 158.891 270.779 158.674C270.561 158.456 270.452 158.157 270.452 157.777V117.812C270.452 117.432 270.561 117.133 270.779 116.915C270.996 116.698 271.295 116.589 271.676 116.589H284.562C284.943 116.589 285.242 116.698 285.459 116.915C285.677 117.133 285.786 117.432 285.786 117.812V121.89C285.786 122.108 285.84 122.216 285.949 122.216C286.057 122.216 286.166 122.135 286.275 121.972C288.341 117.948 291.821 115.936 296.715 115.936C299.488 115.936 301.907 116.589 303.973 117.894C306.094 119.144 307.698 120.966 308.785 123.358C308.949 123.63 309.112 123.603 309.275 123.277C310.362 120.83 311.858 119.008 313.761 117.812C315.718 116.562 318.002 115.936 320.612 115.936ZM357.781 115.936C361.478 115.936 364.876 116.562 367.976 117.812C371.075 119.063 373.522 120.776 375.316 122.95C377.11 125.125 378.008 127.491 378.008 130.046V157.777C378.008 158.157 377.899 158.456 377.681 158.674C377.464 158.891 377.165 159 376.784 159H363.898C363.517 159 363.218 158.891 363.001 158.674C362.783 158.456 362.674 158.157 362.674 157.777V154.922C362.674 154.705 362.62 154.596 362.511 154.596C362.457 154.541 362.375 154.596 362.267 154.759C361.342 156.444 360.064 157.695 358.433 158.511C356.802 159.272 354.654 159.652 351.99 159.652C347.531 159.652 344.024 158.647 341.469 156.635C338.913 154.569 337.635 151.578 337.635 147.663C337.635 143.531 339.076 140.35 341.958 138.121C344.894 135.891 349.135 134.777 354.681 134.777H362.267C362.538 134.777 362.674 134.641 362.674 134.369V132.901C362.674 131.759 362.239 130.835 361.369 130.128C360.554 129.421 359.439 129.067 358.025 129.067C357.047 129.067 356.177 129.231 355.416 129.557C354.654 129.883 354.111 130.318 353.784 130.862C353.567 131.242 353.349 131.514 353.132 131.677C352.969 131.786 352.724 131.813 352.398 131.759L339.267 130.128C338.505 130.019 338.125 129.693 338.125 129.149C338.342 126.702 339.321 124.473 341.061 122.461C342.801 120.449 345.112 118.872 347.994 117.731C350.93 116.534 354.192 115.936 357.781 115.936ZM356.72 149.05C358.46 149.05 359.874 148.588 360.962 147.663C362.103 146.739 362.674 145.488 362.674 143.911V142.851C362.674 142.579 362.538 142.443 362.267 142.443H358.189C354.763 142.443 353.05 143.558 353.05 145.787C353.05 146.766 353.349 147.554 353.947 148.153C354.6 148.751 355.524 149.05 356.72 149.05ZM422.314 159.979C417.801 159.979 413.804 159.082 410.324 157.287C406.899 155.439 404.235 152.883 402.332 149.621C400.429 146.304 399.477 142.471 399.477 138.121V122.787C399.477 118.546 400.429 114.794 402.332 111.532C404.235 108.27 406.899 105.741 410.324 103.947C413.804 102.153 417.801 101.256 422.314 101.256C426.881 101.256 430.878 102.153 434.303 103.947C437.783 105.741 440.475 108.27 442.378 111.532C444.281 114.794 445.232 118.546 445.232 122.787V138.121C445.232 142.471 444.281 146.304 442.378 149.621C440.475 152.883 437.783 155.439 434.303 157.287C430.878 159.082 426.881 159.979 422.314 159.979ZM422.314 146.848C424.597 146.848 426.419 146.114 427.778 144.645C429.192 143.123 429.899 141.111 429.899 138.61V122.624C429.899 120.123 429.192 118.138 427.778 116.67C426.419 115.148 424.597 114.387 422.314 114.387C420.085 114.387 418.263 115.148 416.849 116.67C415.49 118.138 414.81 120.123 414.81 122.624V138.61C414.81 141.111 415.49 143.123 416.849 144.645C418.263 146.114 420.085 146.848 422.314 146.848ZM491.892 128.823C492.708 131.541 493.116 134.586 493.116 137.958C493.116 141.872 492.517 145.352 491.321 148.397C490.016 151.714 487.977 154.433 485.204 156.553C482.431 158.619 479.114 159.652 475.254 159.652C471.285 159.652 468.348 158.402 466.445 155.901C466.337 155.792 466.228 155.765 466.119 155.819C466.01 155.819 465.956 155.901 465.956 156.064V172.457C465.956 172.838 465.847 173.137 465.63 173.355C465.412 173.572 465.113 173.681 464.733 173.681H451.846C451.466 173.681 451.167 173.572 450.949 173.355C450.732 173.137 450.623 172.838 450.623 172.457V117.812C450.623 117.432 450.732 117.133 450.949 116.915C451.167 116.698 451.466 116.589 451.846 116.589H464.733C465.113 116.589 465.412 116.698 465.63 116.915C465.847 117.133 465.956 117.432 465.956 117.812V120.259C465.956 120.422 466.01 120.531 466.119 120.585C466.228 120.64 466.337 120.585 466.445 120.422C468.457 117.432 471.611 115.936 475.906 115.936C479.549 115.936 482.812 117.105 485.694 119.443C488.63 121.727 490.696 124.854 491.892 128.823ZM475.825 143.83C476.64 142.253 477.048 140.214 477.048 137.713C477.048 135.266 476.64 133.281 475.825 131.759C474.846 129.965 473.405 129.067 471.502 129.067C469.599 129.067 468.158 129.992 467.179 131.841C466.364 133.363 465.956 135.32 465.956 137.713C465.956 140.323 466.391 142.416 467.261 143.993C468.24 145.679 469.653 146.521 471.502 146.521C473.46 146.521 474.9 145.624 475.825 143.83ZM525.34 127.599C525.34 127.98 525.231 128.279 525.014 128.497C524.796 128.714 524.497 128.823 524.117 128.823H517.347C517.075 128.823 516.939 128.959 516.939 129.231V142.036C516.939 144.754 517.918 146.114 519.876 146.114H522.893C523.274 146.114 523.573 146.222 523.79 146.44C524.008 146.657 524.117 146.956 524.117 147.337V157.777C524.117 158.538 523.709 158.973 522.893 159.082C520.773 159.245 518.734 159.326 516.776 159.326C511.828 159.326 508.185 158.565 505.847 157.043C503.509 155.52 502.313 152.638 502.259 148.397V129.231C502.259 128.959 502.123 128.823 501.851 128.823H497.447C497.066 128.823 496.767 128.714 496.549 128.497C496.332 128.279 496.223 127.98 496.223 127.599V117.812C496.223 117.432 496.332 117.133 496.549 116.915C496.767 116.698 497.066 116.589 497.447 116.589H501.851C502.123 116.589 502.259 116.453 502.259 116.181V106.394C502.259 106.013 502.367 105.714 502.585 105.497C502.802 105.279 503.101 105.17 503.482 105.17H515.716C516.097 105.17 516.396 105.279 516.613 105.497C516.831 105.714 516.939 106.013 516.939 106.394V116.181C516.939 116.453 517.075 116.589 517.347 116.589H524.117C524.497 116.589 524.796 116.698 525.014 116.915C525.231 117.133 525.34 117.432 525.34 117.812V127.599ZM537.217 113.734C534.988 113.734 533.139 113.027 531.671 111.614C530.257 110.146 529.551 108.297 529.551 106.068C529.551 103.784 530.257 101.935 531.671 100.521C533.139 99.1078 534.988 98.4009 537.217 98.4009C539.447 98.4009 541.268 99.1078 542.682 100.521C544.15 101.935 544.884 103.784 544.884 106.068C544.884 108.242 544.15 110.064 542.682 111.532C541.268 113 539.447 113.734 537.217 113.734ZM530.692 159C530.312 159 530.013 158.891 529.795 158.674C529.578 158.456 529.469 158.157 529.469 157.777V117.812C529.469 117.432 529.578 117.133 529.795 116.915C530.013 116.698 530.312 116.589 530.692 116.589H543.579C543.96 116.589 544.259 116.698 544.476 116.915C544.694 117.133 544.802 117.432 544.802 117.812V157.777C544.802 158.157 544.694 158.456 544.476 158.674C544.259 158.891 543.96 159 543.579 159H530.692ZM600.337 115.936C604.632 115.936 607.976 117.268 610.369 119.933C612.761 122.597 613.958 126.349 613.958 131.188V157.777C613.958 158.157 613.849 158.456 613.631 158.674C613.414 158.891 613.115 159 612.734 159H599.848C599.467 159 599.168 158.891 598.95 158.674C598.733 158.456 598.624 158.157 598.624 157.777V134.532C598.624 132.901 598.216 131.596 597.401 130.617C596.64 129.584 595.634 129.067 594.383 129.067C593.078 129.067 592.018 129.584 591.202 130.617C590.387 131.596 589.979 132.901 589.979 134.532V157.777C589.979 158.157 589.87 158.456 589.653 158.674C589.435 158.891 589.136 159 588.755 159H575.869C575.488 159 575.189 158.891 574.972 158.674C574.754 158.456 574.646 158.157 574.646 157.777V134.532C574.646 132.901 574.211 131.596 573.341 130.617C572.525 129.584 571.438 129.067 570.078 129.067C568.882 129.067 567.876 129.448 567.061 130.209C566.299 130.916 565.81 131.895 565.592 133.145C565.538 133.254 565.511 133.417 565.511 133.635V157.777C565.511 158.157 565.402 158.456 565.185 158.674C564.967 158.891 564.668 159 564.287 159H551.401C551.02 159 550.721 158.891 550.504 158.674C550.286 158.456 550.178 158.157 550.178 157.777V117.812C550.178 117.432 550.286 117.133 550.504 116.915C550.721 116.698 551.02 116.589 551.401 116.589H564.287C564.668 116.589 564.967 116.698 565.185 116.915C565.402 117.133 565.511 117.432 565.511 117.812V121.89C565.511 122.108 565.565 122.216 565.674 122.216C565.783 122.216 565.891 122.135 566 121.972C568.066 117.948 571.546 115.936 576.44 115.936C579.213 115.936 581.633 116.589 583.699 117.894C585.819 119.144 587.423 120.966 588.511 123.358C588.674 123.63 588.837 123.603 589 123.277C590.088 120.83 591.583 119.008 593.486 117.812C595.443 116.562 597.727 115.936 600.337 115.936ZM626.822 113.734C624.592 113.734 622.744 113.027 621.276 111.614C619.862 110.146 619.155 108.297 619.155 106.068C619.155 103.784 619.862 101.935 621.276 100.521C622.744 99.1078 624.592 98.4009 626.822 98.4009C629.051 98.4009 630.873 99.1078 632.286 100.521C633.754 101.935 634.488 103.784 634.488 106.068C634.488 108.242 633.754 110.064 632.286 111.532C630.873 113 629.051 113.734 626.822 113.734ZM620.297 159C619.916 159 619.617 158.891 619.4 158.674C619.182 158.456 619.073 158.157 619.073 157.777V117.812C619.073 117.432 619.182 117.133 619.4 116.915C619.617 116.698 619.916 116.589 620.297 116.589H633.183C633.564 116.589 633.863 116.698 634.081 116.915C634.298 117.133 634.407 117.432 634.407 117.812V157.777C634.407 158.157 634.298 158.456 634.081 158.674C633.863 158.891 633.564 159 633.183 159H620.297ZM639.782 159C639.401 159 639.102 158.891 638.885 158.674C638.667 158.456 638.559 158.157 638.559 157.777V146.032C638.559 145.434 638.776 144.944 639.211 144.564L654.3 130.943C654.408 130.835 654.436 130.726 654.381 130.617C654.381 130.508 654.3 130.454 654.137 130.454H640.353C639.972 130.454 639.673 130.345 639.456 130.128C639.238 129.91 639.13 129.611 639.13 129.231V117.812C639.13 117.432 639.238 117.133 639.456 116.915C639.673 116.698 639.972 116.589 640.353 116.589H671.835C672.216 116.589 672.515 116.698 672.732 116.915C672.95 117.133 673.059 117.432 673.059 117.812V129.557C673.059 130.155 672.841 130.644 672.406 131.025L656.583 144.645C656.475 144.754 656.42 144.863 656.42 144.972C656.475 145.08 656.583 145.135 656.747 145.135H672.488C672.868 145.135 673.167 145.244 673.385 145.461C673.602 145.679 673.711 145.978 673.711 146.358V157.777C673.711 158.157 673.602 158.456 673.385 158.674C673.167 158.891 672.868 159 672.488 159H639.782ZM718.791 134.777C718.955 135.973 719.036 137.196 719.036 138.447C719.036 139.317 719.009 139.997 718.955 140.486C718.955 141.247 718.547 141.628 717.731 141.628H693.263C693.046 141.628 692.937 141.736 692.937 141.954C692.937 142.443 693.154 143.014 693.589 143.667C694.133 144.591 695.085 145.379 696.444 146.032C697.858 146.63 699.435 146.929 701.174 146.929C702.643 146.929 704.002 146.712 705.252 146.277C706.503 145.842 707.563 145.216 708.433 144.401C708.705 144.183 708.977 144.075 709.249 144.075C709.63 144.075 709.929 144.238 710.146 144.564L716.345 152.475C716.562 152.747 716.671 153.046 716.671 153.372C716.671 153.699 716.535 153.97 716.263 154.188C714.36 156.037 711.995 157.423 709.167 158.348C706.34 159.217 703.295 159.652 700.033 159.652C694.976 159.652 690.653 158.592 687.065 156.472C683.476 154.351 680.866 151.333 679.235 147.418C678.039 144.591 677.44 141.546 677.44 138.284C677.44 134.858 677.93 131.813 678.909 129.149C680.377 125.017 682.796 121.781 686.167 119.443C689.539 117.105 693.508 115.936 698.075 115.936C701.555 115.936 704.763 116.752 707.699 118.383C710.69 120.014 713.137 122.271 715.04 125.153C716.997 127.98 718.248 131.188 718.791 134.777ZM697.994 129.067C695.764 129.067 694.215 130.155 693.345 132.33L693.018 133.227C692.964 133.39 692.991 133.526 693.1 133.635C693.209 133.689 693.318 133.716 693.426 133.716H702.724C702.942 133.716 703.05 133.608 703.05 133.39C703.05 133.173 702.969 132.819 702.806 132.33C702.534 131.297 701.963 130.508 701.093 129.965C700.277 129.367 699.244 129.067 697.994 129.067Z" fill="#F9FAFB"/>
</g>
<path d="M758.278 61H681.722C673.591 61 667 67.5914 667 75.7222C667 83.8531 673.591 90.4444 681.722 90.4444H758.278C766.409 90.4444 773 83.8531 773 75.7222C773 67.5914 766.409 61 758.278 61Z" fill="#0F1322" fill-opacity="0.92" stroke="#FFB067" stroke-width="1.47222"/>
<path d="M685.204 73.961C685.168 73.6025 685.016 73.324 684.746 73.1256C684.477 72.9271 684.111 72.8278 683.649 72.8278C683.334 72.8278 683.069 72.8723 682.853 72.9611C682.637 73.047 682.471 73.167 682.355 73.3211C682.243 73.4751 682.186 73.6499 682.186 73.8455C682.181 74.0084 682.215 74.1506 682.289 74.2721C682.366 74.3935 682.471 74.4987 682.604 74.5876C682.738 74.6735 682.892 74.749 683.066 74.8142C683.241 74.8764 683.428 74.9298 683.626 74.9742L684.444 75.1697C684.841 75.2586 685.205 75.3771 685.537 75.5252C685.869 75.6734 686.156 75.8556 686.399 76.0718C686.642 76.2881 686.83 76.5429 686.964 76.8362C687.1 77.1295 687.17 77.4657 687.172 77.8449C687.17 78.4019 687.027 78.8848 686.746 79.2936C686.467 79.6995 686.064 80.015 685.537 80.2402C685.013 80.4624 684.38 80.5735 683.64 80.5735C682.905 80.5735 682.265 80.4609 681.72 80.2357C681.178 80.0106 680.754 79.6773 680.449 79.2359C680.147 78.7915 679.988 78.2419 679.973 77.5872H681.835C681.856 77.8923 681.944 78.1471 682.098 78.3515C682.255 78.553 682.463 78.7056 682.724 78.8092C682.988 78.91 683.286 78.9603 683.617 78.9603C683.943 78.9603 684.226 78.9129 684.466 78.8181C684.709 78.7233 684.897 78.5915 685.031 78.4226C685.164 78.2538 685.231 78.0597 685.231 77.8405C685.231 77.6361 685.17 77.4642 685.048 77.325C684.93 77.1858 684.755 77.0673 684.524 76.9695C684.296 76.8717 684.016 76.7828 683.684 76.7029L682.693 76.454C681.926 76.2674 681.32 75.9755 680.876 75.5786C680.431 75.1816 680.21 74.6468 680.213 73.9743C680.21 73.4233 680.357 72.9419 680.653 72.5301C680.953 72.1183 681.363 71.7968 681.884 71.5658C682.406 71.3347 682.998 71.2191 683.662 71.2191C684.337 71.2191 684.927 71.3347 685.43 71.5658C685.937 71.7968 686.331 72.1183 686.613 72.5301C686.894 72.9419 687.039 73.4188 687.048 73.961H685.204ZM694.088 71.3436H696.012V77.2539C696.012 77.9175 695.854 78.4982 695.537 78.9959C695.223 79.4936 694.783 79.8817 694.217 80.1602C693.651 80.4357 692.992 80.5735 692.24 80.5735C691.484 80.5735 690.823 80.4357 690.258 80.1602C689.692 79.8817 689.252 79.4936 688.938 78.9959C688.624 78.4982 688.467 77.9175 688.467 77.2539V71.3436H690.391V77.0895C690.391 77.4361 690.466 77.7442 690.618 78.0138C690.772 78.2834 690.988 78.4952 691.266 78.6493C691.545 78.8033 691.869 78.8803 692.24 78.8803C692.613 78.8803 692.937 78.8033 693.213 78.6493C693.491 78.4952 693.706 78.2834 693.857 78.0138C694.011 77.7442 694.088 77.4361 694.088 77.0895V71.3436ZM705.208 71.3436V80.4446H703.546L699.586 74.7165H699.52V80.4446H697.596V71.3436H699.284L703.213 77.0673H703.293V71.3436H705.208ZM711.735 73.961C711.699 73.6025 711.547 73.324 711.277 73.1256C711.007 72.9271 710.642 72.8278 710.179 72.8278C709.865 72.8278 709.6 72.8723 709.384 72.9611C709.168 73.047 709.002 73.167 708.886 73.3211C708.774 73.4751 708.717 73.6499 708.717 73.8455C708.711 74.0084 708.746 74.1506 708.82 74.2721C708.897 74.3935 709.002 74.4987 709.135 74.5876C709.268 74.6735 709.422 74.749 709.597 74.8142C709.772 74.8764 709.959 74.9298 710.157 74.9742L710.975 75.1697C711.372 75.2586 711.736 75.3771 712.068 75.5252C712.4 75.6734 712.687 75.8556 712.93 76.0718C713.173 76.2881 713.361 76.5429 713.495 76.8362C713.631 77.1295 713.7 77.4657 713.703 77.8449C713.7 78.4019 713.558 78.8848 713.277 79.2936C712.998 79.6995 712.595 80.015 712.068 80.2402C711.544 80.4624 710.911 80.5735 710.171 80.5735C709.436 80.5735 708.796 80.4609 708.251 80.2357C707.709 80.0106 707.285 79.6773 706.98 79.2359C706.678 78.7915 706.519 78.2419 706.504 77.5872H708.366C708.387 77.8923 708.474 78.1471 708.629 78.3515C708.786 78.553 708.994 78.7056 709.255 78.8092C709.519 78.91 709.817 78.9603 710.148 78.9603C710.474 78.9603 710.757 78.9129 710.997 78.8181C711.24 78.7233 711.428 78.5915 711.561 78.4226C711.695 78.2538 711.761 78.0597 711.761 77.8405C711.761 77.6361 711.701 77.4642 711.579 77.325C711.461 77.1858 711.286 77.0673 711.055 76.9695C710.827 76.8717 710.547 76.7828 710.215 76.7029L709.224 76.454C708.457 76.2674 707.851 75.9755 707.406 75.5786C706.962 75.1816 706.741 74.6468 706.744 73.9743C706.741 73.4233 706.888 72.9419 707.184 72.5301C707.483 72.1183 707.894 71.7968 708.415 71.5658C708.937 71.3347 709.529 71.2191 710.193 71.2191C710.868 71.2191 711.458 71.3347 711.961 71.5658C712.468 71.7968 712.862 72.1183 713.143 72.5301C713.425 72.9419 713.57 73.4188 713.579 73.961H711.735ZM714.998 80.4446V71.3436H721.13V72.93H716.922V75.0986H720.815V76.6851H716.922V78.8581H721.148V80.4446H714.998ZM722.313 72.93V71.3436H729.788V72.93H727.002V80.4446H725.1V72.93H722.313ZM730.672 72.93V71.3436H738.147V72.93H735.361V80.4446H733.459V72.93H730.672ZM741.302 71.3436V80.4446H739.378V71.3436H741.302ZM750.497 71.3436V80.4446H748.835L744.876 74.7165H744.809V80.4446H742.885V71.3436H744.574L748.502 77.0673H748.582V71.3436H750.497ZM758.122 74.2854C758.06 74.0691 757.972 73.878 757.86 73.7121C757.747 73.5433 757.609 73.4011 757.446 73.2855C757.286 73.167 757.103 73.0767 756.895 73.0145C756.691 72.9522 756.464 72.9211 756.216 72.9211C755.75 72.9211 755.342 73.0367 754.989 73.2678C754.639 73.4988 754.367 73.8351 754.171 74.2765C753.976 74.715 753.878 75.2512 753.878 75.8852C753.878 76.5192 753.974 77.0584 754.167 77.5027C754.359 77.9471 754.632 78.2863 754.985 78.5204C755.337 78.7515 755.753 78.867 756.233 78.867C756.669 78.867 757.041 78.79 757.349 78.6359C757.66 78.4789 757.897 78.2582 758.06 77.9738C758.226 77.6894 758.309 77.3531 758.309 76.965L758.7 77.0228H756.353V75.5741H760.162V76.7206C760.162 77.5205 759.993 78.2078 759.655 78.7826C759.317 79.3544 758.852 79.7958 758.26 80.1068C757.667 80.415 756.989 80.569 756.224 80.569C755.371 80.569 754.622 80.3809 753.976 80.0046C753.33 79.6254 752.826 79.0877 752.465 78.3915C752.106 77.6924 751.927 76.8628 751.927 75.903C751.927 75.1653 752.034 74.5076 752.247 73.9299C752.463 73.3492 752.766 72.8574 753.154 72.4545C753.542 72.0516 753.994 71.745 754.509 71.5347C755.025 71.3243 755.583 71.2191 756.184 71.2191C756.7 71.2191 757.18 71.2947 757.624 71.4458C758.069 71.5939 758.463 71.8042 758.806 72.0768C759.153 72.3494 759.436 72.6738 759.655 73.05C759.874 73.4233 760.015 73.8351 760.077 74.2854H758.122Z" fill="#FFC98A"/>
</g>
<defs>
<filter id="filter0_f_263_4661" x="62" y="270" width="720" height="396" filterUnits="userSpaceOnUse" color-interpolation-filters="sRGB">
<feFlood flood-opacity="0" result="BackgroundImageFix"/>
<feBlend mode="normal" in="SourceGraphic" in2="BackgroundImageFix" result="shape"/>
<feGaussianBlur stdDeviation="40" result="effect1_foregroundBlur_263_4661"/>
</filter>
<filter id="filter1_f_263_4661" x="264" y="370" width="316" height="176" filterUnits="userSpaceOnUse" color-interpolation-filters="sRGB">
<feFlood flood-opacity="0" result="BackgroundImageFix"/>
<feBlend mode="normal" in="SourceGraphic" in2="BackgroundImageFix" result="shape"/>
<feGaussianBlur stdDeviation="18" result="effect1_foregroundBlur_263_4661"/>
</filter>
<filter id="filter2_dddddd_263_4661" x="34.4785" y="98.4009" width="776.612" height="282.403" filterUnits="userSpaceOnUse" color-interpolation-filters="sRGB">
<feFlood flood-opacity="0" result="BackgroundImageFix"/>
<feColorMatrix in="SourceAlpha" type="matrix" values="0 0 0 0 0 0 0 0 0 0 0 0 0 0 0 0 0 0 127 0" result="hardAlpha"/>
<feOffset dy="3.18424"/>
<feGaussianBlur stdDeviation="1.2737"/>
<feColorMatrix type="matrix" values="0 0 0 0 0 0 0 0 0 0 0 0 0 0 0 0 0 0 0.163064 0"/>
<feBlend mode="normal" in2="BackgroundImageFix" result="effect1_dropShadow_263_4661"/>
<feColorMatrix in="SourceAlpha" type="matrix" values="0 0 0 0 0 0 0 0 0 0 0 0 0 0 0 0 0 0 127 0" result="hardAlpha"/>
<feOffset dy="7.65217"/>
<feGaussianBlur stdDeviation="3.06087"/>
<feColorMatrix type="matrix" values="0 0 0 0 0 0 0 0 0 0 0 0 0 0 0 0 0 0 0.234258 0"/>
<feBlend mode="normal" in2="effect1_dropShadow_263_4661" result="effect2_dropShadow_263_4661"/>
<feColorMatrix in="SourceAlpha" type="matrix" values="0 0 0 0 0 0 0 0 0 0 0 0 0 0 0 0 0 0 127 0" result="hardAlpha"/>
<feOffset dy="14.4084"/>
<feGaussianBlur stdDeviation="5.76334"/>
<feColorMatrix type="matrix" values="0 0 0 0 0 0 0 0 0 0 0 0 0 0 0 0 0 0 0.29 0"/>
<feBlend mode="normal" in2="effect2_dropShadow_263_4661" result="effect3_dropShadow_263_4661"/>
<feColorMatrix in="SourceAlpha" type="matrix" values="0 0 0 0 0 0 0 0 0 0 0 0 0 0 0 0 0 0 127 0" result="hardAlpha"/>
<feOffset dy="25.7021"/>
<feGaussianBlur stdDeviation="10.2808"/>
<feColorMatrix type="matrix" values="0 0 0 0 0 0 0 0 0 0 0 0 0 0 0 0 0 0 0.345742 0"/>
<feBlend mode="normal" in2="effect3_dropShadow_263_4661" result="effect4_dropShadow_263_4661"/>
<feColorMatrix in="SourceAlpha" type="matrix" values="0 0 0 0 0 0 0 0 0 0 0 0 0 0 0 0 0 0 127 0" result="hardAlpha"/>
<feOffset dy="48.0729"/>
<feGaussianBlur stdDeviation="19.2291"/>
<feColorMatrix type="matrix" values="0 0 0 0 0 0 0 0 0 0 0 0 0 0 0 0 0 0 0.416936 0"/>
<feBlend mode="normal" in2="effect4_dropShadow_263_4661" result="effect5_dropShadow_263_4661"/>
<feColorMatrix in="SourceAlpha" type="matrix" values="0 0 0 0 0 0 0 0 0 0 0 0 0 0 0 0 0 0 127 0" result="hardAlpha"/>
<feOffset dy="115.068"/>
<feGaussianBlur stdDeviation="46.0274"/>
<feColorMatrix type="matrix" values="0 0 0 0 0 0 0 0 0 0 0 0 0 0 0 0 0 0 0.58 0"/>
<feBlend mode="normal" in2="effect5_dropShadow_263_4661" result="effect6_dropShadow_263_4661"/>
<feBlend mode="normal" in="SourceGraphic" in2="effect6_dropShadow_263_4661" result="shape"/>
</filter>
<linearGradient id="paint0_linear_263_4661" x1="422" y1="0" x2="422" y2="474" gradientUnits="userSpaceOnUse">
<stop stop-color="#030712"/>
<stop offset="1" stop-color="#042F2E"/>
</linearGradient>
<linearGradient id="paint1_linear_263_4661" x1="421.882" y1="291.408" x2="421.882" y2="637.22" gradientUnits="userSpaceOnUse">
<stop stop-color="#090A15" stop-opacity="0"/>
<stop offset="1" stop-color="#090A15"/>
</linearGradient>
<linearGradient id="paint2_linear_263_4661" x1="421.882" y1="291.408" x2="421.882" y2="637.22" gradientUnits="userSpaceOnUse">
<stop stop-color="#090A15" stop-opacity="0"/>
<stop offset="1" stop-color="#090A15"/>
</linearGradient>
<linearGradient id="paint3_linear_263_4661" x1="422" y1="0" x2="422" y2="474" gradientUnits="userSpaceOnUse">
<stop stop-color="#311A4A"/>
<stop offset="0.48" stop-color="#6B2D4D"/>
<stop offset="0.78" stop-color="#C15D45"/>
<stop offset="1" stop-color="#FF9C55"/>
</linearGradient>
<radialGradient id="paint4_radial_263_4661" cx="0" cy="0" r="1" gradientUnits="userSpaceOnUse" gradientTransform="translate(422 450) rotate(90) scale(150 320)">
<stop stop-color="#FFB46A"/>
<stop offset="0.5" stop-color="#FF7A59" stop-opacity="0.72"/>
<stop offset="1" stop-color="#FF7A59" stop-opacity="0"/>
</radialGradient>
<linearGradient id="paint5_linear_263_4661" x1="424.665" y1="151" x2="424.665" y2="499" gradientUnits="userSpaceOnUse">
<stop stop-color="#0D1120" stop-opacity="0"/>
<stop offset="0.55" stop-color="#201321" stop-opacity="0.35"/>
<stop offset="1" stop-color="#3A1C24" stop-opacity="0.8"/>
</linearGradient>
<clipPath id="clip0_263_4661">
<rect width="844" height="474" fill="white"/>
</clipPath>
</defs>
</svg>
