<svg xmlns="http://www.w3.org/2000/svg" width="1910" height="712" fill="none"><path fill="#030712" d="M0 0h1909.11v711.826H0z"/><mask id="b" width="1909" height="712" x="0" y="0" maskUnits="userSpaceOnUse" style="mask-type:alpha"><path fill="url(#a)" d="M0 0h1909v712H0z"/></mask><g stroke="#6366F1" stroke-miterlimit="10" stroke-width="5.455" mask="url(#b)"><path d="M-146.355 667.239c-66.588-94.402-161.14-164.486-244.92-243.862C-529.723 292.04-643.874 123.767-665.879-65.84s67.161-399.517 241.253-477.631S-7.677-518.58 22.465-330.005c8.023 50.24 1.948 102.546 15.587 151.525S95.815-82.243 145.9-90.846c57.992-9.979 83.206-84.193 138.104-105.643 57.878-22.597 123.434 26.612 142.116 85.914 18.681 59.303 4.126 123.308-9.513 183.872-13.753 60.564-26.36 125.487-4.47 183.643 28.423 75.361 105.67 118.031 167.903 169.075 62.348 51.044 116.214 137.531 77.705 208.419-51.688 95.09-204.348 59.761-288.815 127.322-52.033 41.638-66.932 112.87-84.124 177.219-17.191 64.345-47.334 135.005-110.254 156.685C121.488 1114.02.346 983.481-11.115 966.505c-49.855-73.641-67.161-202.913-135.01-299.266z"/><path d="M-133.744 632.71c-60.858-86.372-147.388-150.378-224.062-222.986-126.643-120.096-230.938-273.916-251.109-447.35-20.171-173.433 61.431-365.335 220.623-436.796C-229.099-545.883-6.986-451.71 20.52-279.309c7.335 45.882 1.72 93.714 14.212 138.564C47.224-96.01 87.567-52.766 133.41-60.681c53.065-9.062 76.101-76.967 126.185-96.582 52.835-20.647 112.891 24.318 129.853 78.573 17.077 54.256 3.782 112.755-8.71 168.158s-24.068 114.705-4.012 167.928c26.017 68.937 96.616 107.937 153.577 154.622s106.243 125.831 71.058 190.525c-47.219 86.946-186.928 54.714-264.175 116.426-47.563 38.082-61.201 103.234-77.017 162.078-15.702 58.843-43.323 123.423-100.742 143.383C110.947 1041.17.12 921.882-10.424 906.282-56.04 838.95-71.74 720.689-133.86 632.596z"/><path d="M-121.138 598.19c-55.127-78.229-133.634-136.27-203.088-202.111C-439.064 287.224-533.617 147.743-551.84-9.403c-18.223-157.145 55.7-331.153 199.993-395.961 144.294-64.808 345.662 20.647 370.533 176.875 6.647 41.638 1.604 84.996 12.836 125.602 11.346 40.606 47.907 79.72 89.395 72.608 48.136-8.259 68.995-69.741 114.381-87.52 47.906-18.811 102.346 22.138 117.704 71.232 15.472 49.094 3.438 102.202-7.909 152.443s-21.89 103.923-3.667 152.213c23.495 62.515 87.562 97.844 139.136 140.17 51.689 42.326 96.386 114.017 64.41 172.746-42.864 78.802-169.392 49.552-239.419 105.528-43.093 34.526-55.471 93.599-69.797 146.937-14.212 53.338-39.196 111.838-91.344 129.961-44.01 15.256-144.408-93.026-153.92-107.02-41.26-61.023-55.586-168.272-111.859-247.992z"/><path d="M-108.636 563.659c-49.512-70.2-119.767-122.276-182.115-181.349-102.919-97.614-187.73-222.642-204.119-363.614-16.389-140.973 49.969-296.972 179.364-355.127 129.394-58.041 309.904 18.467 332.367 158.637 5.96 37.279 1.375 76.164 11.575 112.64C38.637-28.792 71.416 6.307 108.664 0c43.093-7.342 61.889-62.515 102.576-78.459 42.978-16.861 91.802 19.844 105.555 63.891 13.868 44.047 3.094 91.65-7.106 136.728s-19.598 93.256-3.324 136.499c21.088 56.091 78.508 87.75 124.81 125.717s86.416 102.317 57.763 154.852c-38.394 70.658-151.972 44.505-214.778 94.631-38.623 30.971-49.74 83.964-62.577 131.796s-35.185 100.367-81.945 116.54C90.211 895.844.127 798.804-8.468 786.186c-37.019-54.714-49.855-150.837-100.283-222.412z"/><path d="M-96.049 529.137C-139.83 467.081-202.063 420.97-257.19 368.664c-91.114-86.372-166.183-197.063-180.624-321.862-14.556-124.799 44.239-262.789 158.734-314.176S-4.82-250.972 15.008-126.976c5.272 33.035 1.26 67.447 10.2 99.679s38.05 63.317 70.943 57.582c38.165-6.538 54.784-55.403 90.771-69.511 38.05-14.912 81.143 17.55 93.407 56.55s2.75 81.096-6.304 120.898c-9.054 39.918-17.306 82.473-2.865 120.785 18.681 49.552 69.453 77.655 110.484 111.263s76.444 90.502 51.115 137.073c-34.039 62.514-134.437 39.344-190.022 83.734-34.269 27.415-44.01 74.214-55.357 116.655-11.346 42.326-31.173 88.782-72.547 103.12C79.877 822.896.223 737.097-7.341 725.856c-32.778-48.406-44.125-133.517-88.822-196.834z"/><path d="M-83.437 494.608c-38.051-54.027-92.261-94.059-140.168-139.596C-302.8 279.88-368.127 183.528-380.734 75.017S-342.34-153.59-242.63-198.325c99.596-44.735 238.617 14.223 255.808 122.16 4.585 28.677 1.032 58.615 8.94 86.718C29.911 38.54 55.24 65.61 83.893 60.678c33.236-5.736 47.677-48.177 78.965-60.45 33.123-12.962 70.6 15.256 81.259 49.209 10.658 33.952 2.406 70.543-5.502 105.184-7.793 34.641-15.128 71.805-2.521 105.07 16.274 43.129 60.399 67.561 96.043 96.811 35.643 29.249 66.473 78.687 44.468 119.293-29.569 54.37-117.016 34.182-165.267 72.837-29.798 23.859-38.279 64.579-48.136 101.4-9.856 36.82-27.048 77.196-63.035 89.699-30.371 10.553-99.71-64.235-106.243-73.87-28.538-42.097-38.394-116.196-77.247-171.254z"/><path d="M-70.832 460.081c-32.435-45.996-78.393-80.064-119.194-118.719-67.39-63.891-122.976-145.79-133.635-238.128-10.773-92.337 32.664-194.425 117.475-232.507C-121.49-167.24-3.213-117.114 11.457-25.35c3.897 24.432.917 49.897 7.565 73.755 6.647 23.859 28.079 46.8 52.49 42.67 28.195-4.817 40.458-40.95 67.162-51.387 28.194-11.012 60.055 12.961 69.109 41.867s2.063 59.991-4.699 89.47c-6.647 29.479-12.836 61.023-2.177 89.355 13.868 36.706 51.46 57.467 81.716 82.358 30.372 24.891 56.617 66.988 37.821 101.399-25.099 46.226-99.48 29.135-140.625 62.056-25.329 20.302-32.549 54.943-40.916 86.258s-23.036 65.726-53.637 76.279c-25.787 8.947-84.811-54.6-90.427-62.859-24.297-35.788-32.664-98.761-65.671-145.675z"/><path d="M-58.34 425.553c-26.705-37.852-64.641-65.955-98.221-97.843-55.586-52.65-101.315-120.211-110.14-196.26-8.825-76.05 26.933-160.243 96.73-191.672 69.798-31.315 167.216 9.98 179.364 85.57 3.21 20.188.803 41.064 6.19 60.793 5.5 19.615 23.15 38.541 43.322 35.1 23.265-4.015 33.35-33.723 55.356-42.326 23.151-9.062 49.511 10.667 56.961 34.526 7.449 23.744 1.719 49.438-3.782 73.755-5.502 24.318-10.544 50.356-1.834 73.641 11.346 30.282 42.405 47.373 67.39 67.905s46.646 55.173 31.174 83.62c-20.744 38.197-81.946 23.974-115.87 51.044-20.859 16.747-26.819 45.308-33.81 71.117-6.877 25.809-19.025 54.141-44.24 62.858-21.316 7.341-69.91-44.964-74.494-51.846-19.942-29.48-26.933-81.441-54.096-120.096z"/><path d="M-45.72 391.032c-20.974-29.824-50.887-51.847-77.362-76.967-43.667-41.409-79.768-94.517-86.645-154.393-6.991-59.876 21.203-126.06 76.101-150.722S-2.055 16.75 7.458 76.28c2.521 15.83.573 32.347 4.928 47.832s18.223 30.397 34.04 27.644c18.337-3.097 26.245-26.611 43.55-33.379 18.224-7.112 38.968 8.374 44.813 27.07 5.845 18.697 1.261 38.885-2.98 58.041-4.355 19.156-8.366 39.573-1.375 57.926 8.939 23.744 33.351 37.279 52.949 53.338 19.713 16.173 36.675 43.473 24.527 65.726-16.275 30.053-64.525 18.926-91.229 40.147-16.389 13.191-21.088 35.673-26.59 55.976-5.386 20.302-14.899 42.555-34.841 49.438-16.733 5.849-55.013-35.444-58.565-40.721-15.702-23.285-21.203-64.005-42.635-94.402z"/><path d="M-33.114 356.615c-15.358-21.679-37.134-37.853-56.388-56.091-31.862-30.167-58.107-68.937-63.15-112.525s15.472-91.879 55.47-109.888c40-18.008 95.929 5.736 102.92 49.094 1.834 11.585.459 23.629 3.553 34.87 3.095 11.241 13.295 22.138 24.87 20.188 13.295-2.294 19.14-19.385 31.747-24.317 13.295-5.162 28.423 6.079 32.664 19.729 4.24 13.65.917 28.332-2.178 42.326s-6.074 28.906-1.031 42.212c6.532 17.32 24.297 27.185 38.623 38.885s26.704 31.658 17.879 47.946c-11.919 21.909-46.99 13.765-66.473 29.365-11.92 9.52-15.358 25.923-19.37 40.835-4.01 14.797-10.887 31.085-25.328 36.017-12.263 4.244-40.113-25.808-42.75-29.708-11.46-16.977-15.472-46.685-31.058-68.823zM1761.17-139.601c-66.59 94.402-161.14 164.486-244.92 243.862-138.45 131.337-252.6 299.61-274.61 489.217-22 189.607 67.17 399.517 241.26 477.632 174.09 78.11 416.95-24.89 447.09-213.467 8.02-50.24 1.95-102.546 15.59-151.525 13.63-48.979 57.76-96.237 107.84-87.634 58 9.979 83.21 84.193 138.11 105.643 57.88 22.597 123.43-26.612 142.11-85.914s4.13-123.308-9.51-183.872c-13.75-60.564-26.36-125.487-4.47-183.643 28.42-75.361 105.67-118.031 167.9-169.075 62.35-51.044 116.22-137.531 77.71-208.419-51.69-95.09-204.35-59.761-288.82-127.322-52.03-41.638-66.93-112.87-84.12-177.219-17.19-64.35-47.33-135.008-110.25-156.687-53.07-18.353-174.21 112.181-185.67 129.157-49.86 73.641-67.16 202.913-135.01 299.266z"/><path d="M1773.78-105.072c-60.86 86.372-147.39 150.378-224.06 222.986-126.65 120.096-230.94 273.916-251.11 447.349-20.17 173.434 61.43 365.336 220.62 436.797 159.19 71.46 381.31-22.712 408.81-195.113 7.34-45.882 1.72-93.714 14.22-138.564 12.49-44.735 52.83-87.979 98.67-80.064 53.07 9.062 76.1 76.967 126.19 96.582 52.83 20.647 112.89-24.318 129.85-78.573 17.08-54.256 3.78-112.755-8.71-168.158s-24.07-114.705-4.01-167.928c26.02-68.937 96.62-107.937 153.58-154.622s106.24-125.831 71.05-190.525c-47.21-86.946-186.92-54.714-264.17-116.426-47.56-38.082-61.2-103.234-77.02-162.078-15.7-58.843-43.32-123.422-100.74-143.381-48.48-16.747-159.31 102.546-169.85 118.146-45.62 67.332-61.32 185.593-123.44 273.686z"/><path d="M1786.39-70.552c-55.13 78.23-133.64 136.27-203.09 202.111-114.84 108.855-209.39 248.336-227.62 405.482-18.22 157.145 55.7 331.153 200 395.961 144.29 64.808 345.66-20.647 370.53-176.875 6.65-41.638 1.6-84.996 12.84-125.602 11.34-40.605 47.9-79.72 89.39-72.608 48.14 8.259 69 69.741 114.38 87.52 47.91 18.811 102.35-22.138 117.71-71.232 15.47-49.094 3.43-102.202-7.91-152.443-11.35-50.241-21.89-103.923-3.67-152.213 23.49-62.515 87.56-97.844 139.14-140.17 51.68-42.326 96.38-114.016 64.41-172.745-42.87-78.803-169.4-49.553-239.42-105.529-43.1-34.526-55.47-93.599-69.8-146.937-14.21-53.338-39.2-111.838-91.34-129.961-44.01-15.256-144.41 93.026-153.92 107.02-41.26 61.023-55.59 168.272-111.86 247.992z"/><path d="M1798.89-36.02c-49.51 70.199-119.77 122.275-182.12 181.348-102.92 97.614-187.73 222.642-204.12 363.614-16.39 140.973 49.97 296.972 179.37 355.127 129.39 58.041 309.9-18.467 332.36-158.637 5.96-37.279 1.38-76.164 11.58-112.64 10.2-36.362 42.98-71.461 80.23-65.153 43.09 7.341 61.89 62.515 102.57 78.459 42.98 16.861 91.8-19.844 105.56-63.891 13.87-44.047 3.09-91.649-7.11-136.728s-19.6-93.256-3.32-136.499c21.09-56.091 78.51-87.75 124.81-125.717s86.41-102.317 57.76-154.852c-38.39-70.658-151.97-44.505-214.78-94.631-38.62-30.971-49.74-83.964-62.57-131.796-12.84-47.832-35.19-100.367-81.95-116.541-39.43-13.649-129.51 83.391-138.1 96.008-37.02 54.715-49.86 150.837-100.29 222.413z"/><path d="M1811.47-1.499c-43.78 62.056-106.01 108.167-161.14 160.473-91.11 86.372-166.18 197.063-180.62 321.862-14.56 124.799 44.24 262.789 158.73 314.176 114.5 51.388 274.26-16.402 294.09-140.398 5.27-33.035 1.26-67.447 10.2-99.679s38.05-63.317 70.94-57.582c38.17 6.538 54.79 55.403 90.78 69.511 38.05 14.912 81.14-17.55 93.4-56.549 12.27-39 2.75-81.097-6.3-120.899-9.06-39.918-17.31-82.473-2.87-120.785 18.68-49.552 69.46-77.655 110.49-111.263s76.44-90.502 51.11-137.073c-34.04-62.514-134.43-39.344-190.02-83.734-34.27-27.415-44.01-74.214-55.36-116.655-11.34-42.326-31.17-88.782-72.54-103.12-34.96-12.044-114.61 73.755-122.18 84.996-32.78 48.406-44.12 133.517-88.82 196.834z"/><path d="M1824.09 33.03c-38.05 54.027-92.26 94.059-140.17 139.596-79.2 75.132-144.52 171.484-157.13 279.995s38.39 228.607 138.1 273.342c99.6 44.735 238.62-14.223 255.81-122.161 4.59-28.676 1.03-58.614 8.94-86.717 7.79-27.988 33.12-55.058 61.78-50.126 33.23 5.736 47.67 48.176 78.96 60.45 33.12 12.962 70.6-15.256 81.26-49.209 10.66-33.952 2.41-70.543-5.5-105.184-7.79-34.641-15.13-71.805-2.52-105.07 16.27-43.129 60.4-67.561 96.04-96.811 35.64-29.249 66.47-78.687 44.47-119.293-29.57-54.37-117.02-34.182-165.27-72.837-29.8-23.86-38.28-64.58-48.13-101.4-9.86-36.82-27.05-77.196-63.04-89.699-30.37-10.553-99.71 64.235-106.24 73.87-28.54 42.097-38.4 116.196-77.25 171.255z"/><path d="M1836.69 67.557c-32.43 45.996-78.39 80.064-119.19 118.719-67.39 63.891-122.98 145.79-133.64 238.128-10.77 92.337 32.67 194.425 117.48 232.507 84.69 37.967 202.97-12.159 217.64-103.923 3.9-24.432.92-49.896 7.57-73.755 6.64-23.859 28.07-46.8 52.49-42.67 28.19 4.817 40.45 40.949 67.16 51.387 28.19 11.012 60.05-12.961 69.11-41.867 9.05-28.905 2.06-59.991-4.7-89.47-6.65-29.479-12.84-61.023-2.18-89.355 13.87-36.706 51.46-57.467 81.72-82.358 30.37-24.891 56.61-66.988 37.82-101.4-25.1-46.225-99.48-29.134-140.63-62.055-25.33-20.302-32.55-54.943-40.91-86.258-8.37-31.314-23.04-65.726-53.64-76.279-25.79-8.947-84.81 54.6-90.43 62.859-24.29 35.788-32.66 98.76-65.67 145.675z"/><path d="M1849.18 102.085c-26.7 37.852-64.64 65.955-98.22 97.843-55.58 52.65-101.31 120.211-110.14 196.26-8.82 76.05 26.94 160.243 96.73 191.672 69.8 31.315 167.22-9.979 179.37-85.57 3.21-20.188.8-41.064 6.19-60.793 5.5-19.615 23.15-38.541 43.32-35.1 23.26 4.015 33.35 33.723 55.35 42.326 23.16 9.062 49.52-10.667 56.97-34.526 7.44-23.744 1.71-49.438-3.79-73.755-5.5-24.318-10.54-50.356-1.83-73.641 11.35-30.282 42.41-47.373 67.39-67.905s46.65-55.173 31.17-83.62c-20.74-38.197-81.94-23.974-115.87-51.044-20.86-16.747-26.82-45.308-33.81-71.117-6.87-25.809-19.02-54.14-44.24-62.858-21.31-7.341-69.91 44.964-74.49 51.846-19.94 29.48-26.93 81.44-54.1 120.096z"/><path d="M1861.8 136.606c-20.97 29.824-50.88 51.847-77.36 76.967-43.67 41.409-79.77 94.517-86.64 154.393-6.99 59.876 21.2 126.061 76.1 150.722 54.89 24.662 131.57-7.799 141.08-67.331 2.52-15.83.57-32.347 4.93-47.832 4.35-15.485 18.22-30.397 34.04-27.644 18.34 3.097 26.24 26.611 43.55 33.379 18.22 7.112 38.97-8.373 44.81-27.07 5.85-18.697 1.26-38.885-2.98-58.041-4.35-19.156-8.36-39.573-1.37-57.926 8.94-23.744 33.35-37.279 52.95-53.338 19.71-16.173 36.67-43.473 24.52-65.726-16.27-30.052-64.52-18.926-91.23-40.147-16.39-13.19-21.08-35.673-26.59-55.976-5.38-20.302-14.89-42.555-34.84-49.437-16.73-5.85-55.01 35.444-58.56 40.72-15.7 23.285-21.2 64.005-42.64 94.402z"/><path d="M1874.41 171.023c-15.36 21.679-37.13 37.853-56.39 56.091-31.86 30.167-58.11 68.937-63.15 112.525s15.47 91.879 55.47 109.888c40 18.008 95.93-5.736 102.92-49.094 1.84-11.585.46-23.629 3.55-34.87 3.1-11.241 13.3-22.138 24.87-20.188 13.3 2.294 19.14 19.385 31.75 24.317 13.3 5.162 28.42-6.079 32.67-19.729 4.24-13.65.91-28.332-2.18-42.326-3.1-13.994-6.08-28.906-1.03-42.212 6.53-17.32 24.29-27.185 38.62-38.885s26.7-31.658 17.88-47.946c-11.92-21.909-46.99-13.765-66.47-29.365-11.92-9.52-15.36-25.923-19.37-40.835-4.02-14.797-10.89-31.085-25.33-36.017-12.27-4.244-40.12 25.808-42.75 29.708-11.46 16.977-15.47 46.685-31.06 68.823z"/></g><path fill="url(#c)" d="M0 0h1909.11v456.744H0z" transform="matrix(1 0 0 -1 0 711.826)"/><defs><radialGradient id="a" cx="0" cy="0" r="1" gradientTransform="scale(929.956 636.293)rotate(90 .319 .708)" gradientUnits="userSpaceOnUse"><stop stop-color="#fff" stop-opacity=".63"/><stop offset="1" stop-color="#fff" stop-opacity="0"/></radialGradient><linearGradient id="c" x1="954.557" x2="954.557" y1="0" y2="456.744" gradientUnits="userSpaceOnUse"><stop offset=".057" stop-color="#6366F1"/><stop offset=".692" stop-color="#6366F1" stop-opacity="0"/><stop offset="1" stop-color="#6366F1" stop-opacity="0"/></linearGradient></defs></svg>
