<svg xmlns="http://www.w3.org/2000/svg" width="400" height="463" fill="none"><path fill="#ffffff" d="M-154 .333h757v462h-757z"/><mask id="b" width="757" height="463" x="-154" y="0" maskUnits="userSpaceOnUse" style="mask-type:alpha"><path fill="url(#a)" d="M-154 .333h757v462h-757z"/></mask><g stroke="#4f46e5" stroke-miterlimit="10" stroke-width="2.165" mask="url(#b)"><path d="M-213.159 354.873c-26.431-37.471-63.961-65.289-97.216-96.796-54.954-52.131-100.263-118.923-108.998-194.184s26.658-158.58 95.76-189.585c69.102-31.006 165.499 9.88 177.463 84.73 3.185 19.943.774 40.704 6.187 60.145s22.928 38.2 42.808 34.785c23.019-3.961 33.027-33.419 54.817-41.933 22.974-8.97 48.995 10.563 56.41 34.102s1.638 48.944-3.776 72.984C4.837 143.16-.167 168.93 8.522 192.014c11.282 29.913 41.943 46.85 66.645 67.11 24.748 20.261 46.129 54.59 30.844 82.727-20.517 37.745-81.112 23.721-114.64 50.538-20.653 16.528-26.567 44.801-33.39 70.344s-18.788 53.588-43.763 62.193c-21.063 7.285-69.148-44.528-73.697-51.266-19.789-29.23-26.658-80.542-53.589-118.787z"/><path d="M-208.153 341.167c-24.156-34.283-58.502-59.689-88.936-88.509-50.268-47.67-91.666-108.725-99.672-177.566-8.007-68.84 24.383-145.011 87.571-173.376s151.351 9.015 162.269 77.446c2.912 18.211.683 37.197 5.641 55 4.959 17.756 20.972 34.92 39.168 31.779 21.063-3.597 30.207-30.55 50.087-38.336 20.972-8.195 44.81 9.652 51.542 31.188 6.778 21.535 1.501 44.755-3.457 66.746-4.96 21.991-9.554 45.53-1.593 66.656 10.327 27.363 38.35 42.843 60.96 61.373 22.609 18.531 42.17 49.946 28.204 75.625-18.743 34.512-74.197 21.718-104.858 46.213-18.88 15.116-24.293 40.976-30.57 64.333-6.233 23.357-17.197 48.99-39.988 56.912-19.243 6.647-63.233-40.703-67.419-46.895-18.105-26.726-24.338-73.667-48.994-108.634z"/><path d="M-203.148 327.465c-21.882-31.051-53.044-54.089-80.612-80.223-45.582-43.208-83.113-98.572-90.346-160.947s22.109-131.444 79.383-157.168S-157.52-62.678-147.649-.667c2.639 16.528.637 33.738 5.096 49.855 4.503 16.118 19.015 31.643 35.483 28.82 19.107-3.278 27.386-27.682 45.4-34.739 19.016-7.466 40.625 8.788 46.72 28.274 6.142 19.487 1.365 40.567-3.138 60.509s-8.69 41.25-1.456 60.418c9.326 24.813 34.756 38.837 55.227 55.637 20.517 16.8 38.259 45.256 25.566 68.568-17.013 31.278-67.236 19.668-95.032 41.887-17.105 13.704-22.018 37.152-27.704 58.323-5.641 21.171-15.559 44.392-36.257 51.585-17.469 6.056-57.32-36.924-61.095-42.479-16.377-24.222-22.064-66.792-44.4-98.435z"/><path d="M-198.188 313.759c-19.652-27.864-47.539-48.535-72.286-71.982-40.852-38.746-74.515-88.373-81.021-144.33C-358 41.493-331.66-20.427-280.3-43.511c51.36-23.038 123.009 7.33 131.926 62.968 2.365 14.797.546 30.231 4.594 44.71 4.049 14.433 17.06 28.365 31.845 25.86 17.104-2.913 24.565-24.813 40.715-31.142 17.059-6.693 36.438 7.877 41.897 25.36 5.505 17.484 1.229 36.378-2.82 54.271s-7.78 37.016-1.32 54.181c8.371 22.264 31.162 34.83 49.541 49.9s34.3 40.613 22.928 61.465c-15.24 28.046-60.322 17.666-85.251 37.562-15.331 12.293-19.744 33.328-24.839 52.314s-13.966 39.838-32.526 46.258c-15.65 5.418-51.406-33.1-54.818-38.109-14.694-21.717-19.789-59.871-39.805-88.282z"/><path d="M-193.192 300.056c-17.378-24.631-42.08-42.934-63.961-63.696-36.166-34.284-65.963-78.22-71.695-127.756-5.777-49.536 17.56-104.308 63.006-124.705C-220.396-36.5-156.98-9.591-149.11 39.627c2.092 13.112.5 26.771 4.048 39.565s15.104 25.132 28.16 22.856c15.149-2.595 21.745-21.99 36.03-27.591 15.102-5.919 32.207 6.966 37.075 22.446s1.092 32.19-2.502 47.988c-3.594 15.845-6.87 32.736-1.137 47.943 7.415 19.669 27.568 30.823 43.854 44.164 16.286 13.34 30.343 35.922 20.289 54.407-13.511 24.814-53.362 15.617-75.425 33.237-13.602 10.882-17.47 29.458-21.973 46.304-4.504 16.8-12.374 35.24-28.796 40.931-13.875 4.78-45.492-29.276-48.494-33.738-13.011-19.213-17.515-52.996-35.256-78.128zM543.993 34.615c-26.43 37.471-63.961 65.29-97.215 96.796-54.954 52.132-100.264 118.923-108.998 194.184s26.658 158.579 95.76 189.585c69.101 31.006 165.498-9.88 177.463-84.73 3.184-19.942.773-40.704 6.187-60.145 5.413-19.441 22.927-38.199 42.807-34.785 23.019 3.961 33.027 33.419 54.818 41.933 22.973 8.969 48.994-10.563 56.409-34.102 7.416-23.538 1.638-48.944-3.775-72.983-5.459-24.04-10.463-49.81-1.775-72.893 11.282-29.913 41.944-46.85 66.646-67.111 24.747-20.261 46.128-54.59 30.843-82.727-20.517-37.744-81.112-23.721-114.639-50.538-20.653-16.527-26.567-44.801-33.391-70.343s-18.788-53.589-43.763-62.194c-21.062-7.285-69.147 44.528-73.696 51.266-19.789 29.23-26.658 80.542-53.59 118.787z"/><path d="M549 48.32c-24.156 34.285-58.503 59.69-88.937 88.51-50.268 47.67-91.665 108.725-99.672 177.566s24.384 145.012 87.572 173.377c63.188 28.364 151.35-9.015 162.268-77.446 2.912-18.212.683-37.198 5.641-55 4.959-17.757 20.972-34.921 39.169-31.78 21.062 3.597 30.206 30.551 50.086 38.336 20.972 8.195 44.809-9.652 51.542-31.188 6.778-21.535 1.501-44.755-3.457-66.746s-9.553-45.53-1.592-66.655c10.326-27.364 38.349-42.844 60.959-61.374 22.609-18.531 42.17-49.946 28.204-75.625-18.742-34.511-74.197-21.717-104.858-46.213-18.879-15.115-24.293-40.976-30.57-64.333-6.233-23.356-17.196-48.99-39.988-56.912-19.243-6.647-63.233 40.704-67.418 46.896-18.106 26.726-24.338 73.667-48.995 108.633z"/><path d="M554.004 62.023c-21.882 31.051-53.043 54.089-80.611 80.223-45.583 43.208-83.114 98.572-90.347 160.947s22.109 131.444 79.383 157.169c57.274 25.724 137.203-8.196 147.075-70.207 2.638-16.527.637-33.738 5.095-49.855 4.504-16.117 19.015-31.643 35.483-28.82 19.107 3.278 27.386 27.682 45.401 34.739 19.016 7.467 40.624-8.787 46.72-28.274 6.141-19.487 1.365-40.567-3.139-60.509s-8.689-41.25-1.456-60.418c9.326-24.813 34.756-38.836 55.227-55.637 20.517-16.8 38.259-45.256 25.567-68.567-17.014-31.28-67.237-19.67-95.032-41.888-17.105-13.704-22.018-37.152-27.705-58.323-5.641-21.171-15.558-44.391-36.257-51.585-17.469-6.055-57.319 36.924-61.095 42.479-16.377 24.222-22.064 66.792-44.4 98.435z"/><path d="M558.965 75.73c-19.653 27.863-47.539 48.534-72.287 71.982-40.851 38.745-74.515 88.373-81.02 144.328-6.506 55.956 19.834 117.877 71.194 140.96 51.36 23.038 123.01-7.33 131.926-62.967 2.366-14.797.546-30.232 4.595-44.71 4.048-14.433 17.059-28.365 31.844-25.861 17.105 2.914 24.565 24.813 40.715 31.142 17.059 6.693 36.439-7.877 41.898-25.36 5.504-17.483 1.228-36.378-2.821-54.271-4.048-17.893-7.779-37.016-1.319-54.18 8.371-22.264 31.162-34.831 49.54-49.901 18.379-15.07 34.301-40.612 22.928-61.465-15.239-28.046-60.322-17.665-85.251-37.562-15.331-12.293-19.744-33.327-24.839-52.313s-13.966-39.839-32.526-46.258c-15.649-5.418-51.406 33.1-54.818 38.108-14.693 21.717-19.788 59.871-39.805 88.282z"/></g><defs><radialGradient id="a" cx="0" cy="0" r="1" gradientTransform="matrix(0 412.875 -368.767 0 224.948 161.021)" gradientUnits="userSpaceOnUse"><stop stop-color="#ffffff" stop-opacity=".63"/><stop offset="1" stop-color="#ffffff" stop-opacity="0"/></radialGradient></defs></svg>
