<svg width="444" height="45" viewBox="0 0 444 45" fill="none" xmlns="http://www.w3.org/2000/svg">
<rect width="443.581" height="45" rx="5.09683" fill="#1A202C"/>
<path d="M16.4628 26V18.9919H17.6096V20.3298H17.8517L17.6096 20.5974C17.6096 20.0452 17.7752 19.6205 18.1065 19.3232C18.4378 19.0173 18.8965 18.8644 19.4827 18.8644C20.1877 18.8644 20.7484 19.0811 21.1646 19.5143C21.5809 19.9475 21.789 20.5379 21.789 21.2854V26H20.6422V21.4129C20.6422 20.9117 20.5063 20.5294 20.2345 20.2661C19.9711 19.9942 19.6101 19.8583 19.1514 19.8583C18.6757 19.8583 18.2977 20.0027 18.0173 20.2916C17.7455 20.5804 17.6096 20.9966 17.6096 21.5403V26H16.4628ZM24.1031 28.2936V18.9919H25.2499V20.3298H25.4792L25.2499 20.5974C25.2499 20.0622 25.424 19.6417 25.7723 19.3359C26.1291 19.0216 26.5963 18.8644 27.1739 18.8644C27.879 18.8644 28.4396 19.098 28.8559 19.5653C29.2806 20.024 29.493 20.6568 29.493 21.4638V23.5153C29.493 24.0505 29.3953 24.5134 29.1999 24.9042C29.013 25.2949 28.7454 25.5965 28.3971 25.8089C28.0574 26.0212 27.6496 26.1274 27.1739 26.1274C26.6048 26.1274 26.1418 25.9703 25.785 25.656C25.4282 25.3417 25.2499 24.9212 25.2499 24.3945L25.4792 24.6621H25.2244L25.2499 26.2548V28.2936H24.1031ZM26.7916 25.1335C27.2758 25.1335 27.6539 24.9891 27.9257 24.7003C28.206 24.4115 28.3462 23.9952 28.3462 23.4516V21.5403C28.3462 20.9966 28.206 20.5804 27.9257 20.2916C27.6539 20.0027 27.2758 19.8583 26.7916 19.8583C26.3244 19.8583 25.9507 20.007 25.6703 20.3043C25.39 20.6016 25.2499 21.0136 25.2499 21.5403V23.4516C25.2499 23.9783 25.39 24.3903 25.6703 24.6876C25.9507 24.9849 26.3244 25.1335 26.7916 25.1335ZM31.2082 26L33.6929 22.394L31.3611 18.9919H32.7117L34.1006 21.158C34.1601 21.2515 34.2153 21.3534 34.2663 21.4638C34.3257 21.5743 34.3724 21.6634 34.4064 21.7314C34.4319 21.6634 34.4701 21.5743 34.5211 21.4638C34.5806 21.3534 34.64 21.2515 34.6995 21.158L36.1011 18.9919H37.439L35.1072 22.4067L37.5792 26H36.2285L34.725 23.7064C34.6655 23.613 34.6061 23.5068 34.5466 23.3879C34.4956 23.2605 34.4489 23.1585 34.4064 23.0821C34.3724 23.1585 34.3215 23.2605 34.2535 23.3879C34.1941 23.5068 34.1303 23.613 34.0624 23.7064L32.5461 26H31.2082ZM47.0239 28.2936V18.9919H48.1707V20.3298H48.4L48.1707 20.5974C48.1707 20.0622 48.3448 19.6417 48.6931 19.3359C49.0499 19.0216 49.5171 18.8644 50.0947 18.8644C50.7998 18.8644 51.3604 19.098 51.7767 19.5653C52.2014 20.024 52.4138 20.6568 52.4138 21.4638V23.5153C52.4138 24.0505 52.3161 24.5134 52.1207 24.9042C51.9338 25.2949 51.6662 25.5965 51.3179 25.8089C50.9782 26.0212 50.5704 26.1274 50.0947 26.1274C49.5256 26.1274 49.0626 25.9703 48.7058 25.656C48.349 25.3417 48.1707 24.9212 48.1707 24.3945L48.4 24.6621H48.1452L48.1707 26.2548V28.2936H47.0239ZM49.7124 25.1335C50.1966 25.1335 50.5747 24.9891 50.8465 24.7003C51.1268 24.4115 51.267 23.9952 51.267 23.4516V21.5403C51.267 20.9966 51.1268 20.5804 50.8465 20.2916C50.5747 20.0027 50.1966 19.8583 49.7124 19.8583C49.2452 19.8583 48.8715 20.007 48.5911 20.3043C48.3108 20.6016 48.1707 21.0136 48.1707 21.5403V23.4516C48.1707 23.9783 48.3108 24.3903 48.5911 24.6876C48.8715 24.9849 49.2452 25.1335 49.7124 25.1335ZM54.9062 26V18.9919H56.0275V20.3298H56.2951L55.9256 21.158C55.9256 20.402 56.087 19.8328 56.4098 19.4506C56.7411 19.0598 57.2295 18.8644 57.8751 18.8644C58.6142 18.8644 59.2003 19.098 59.6335 19.5653C60.0753 20.024 60.2961 20.6483 60.2961 21.4383V21.8588H59.1493V21.5403C59.1493 20.9881 59.0134 20.5676 58.7416 20.2788C58.4783 19.9815 58.1002 19.8328 57.6075 19.8328C57.1234 19.8328 56.7411 19.9815 56.4608 20.2788C56.1889 20.5761 56.053 20.9966 56.053 21.5403V26H54.9062ZM62.2152 26V24.9551H64.6999V20.0367H62.5338V18.9919H65.8467V24.9551H68.204V26H62.2152ZM65.1459 17.7304C64.8656 17.7304 64.6447 17.6582 64.4833 17.5138C64.3219 17.3694 64.2412 17.174 64.2412 16.9276C64.2412 16.6728 64.3219 16.4732 64.4833 16.3288C64.6447 16.1759 64.8656 16.0994 65.1459 16.0994C65.4262 16.0994 65.6471 16.1759 65.8085 16.3288C65.9699 16.4732 66.0506 16.6728 66.0506 16.9276C66.0506 17.174 65.9699 17.3694 65.8085 17.5138C65.6471 17.6582 65.4262 17.7304 65.1459 17.7304ZM72.3784 26.1019C71.9027 26.1019 71.4865 26.0297 71.1297 25.8853C70.7814 25.7324 70.5011 25.52 70.2887 25.2482C70.0848 24.9764 69.9617 24.6536 69.9192 24.2798H71.066C71.1169 24.5262 71.2528 24.7215 71.4737 24.866C71.7031 25.0104 72.0046 25.0826 72.3784 25.0826H72.9136C73.3638 25.0826 73.6993 24.9934 73.9202 24.815C74.1411 24.6281 74.2515 24.3818 74.2515 24.0759C74.2515 23.7786 74.1495 23.545 73.9457 23.3751C73.7503 23.1967 73.4572 23.0778 73.0665 23.0184L72.1236 22.8654C71.4355 22.7465 70.9216 22.5342 70.5818 22.2283C70.2505 21.914 70.0848 21.4596 70.0848 20.8649C70.0848 20.2363 70.2845 19.7521 70.6837 19.4123C71.083 19.0641 71.6818 18.8899 72.4803 18.8899H72.9645C73.6356 18.8899 74.175 19.0471 74.5828 19.3614C74.9905 19.6757 75.2369 20.1004 75.3218 20.6356H74.175C74.1241 20.4147 73.9966 20.2406 73.7928 20.1132C73.5889 19.9772 73.3128 19.9093 72.9645 19.9093H72.4803C72.0471 19.9093 71.7286 19.99 71.5247 20.1514C71.3293 20.3128 71.2316 20.5549 71.2316 20.8777C71.2316 21.1665 71.3166 21.3789 71.4865 21.5148C71.6563 21.6507 71.9239 21.7484 72.2892 21.8079L73.2321 21.9608C73.9881 22.0797 74.5361 22.3006 74.8758 22.6234C75.2241 22.9461 75.3983 23.4134 75.3983 24.025C75.3983 24.6706 75.1902 25.1803 74.7739 25.554C74.3662 25.9193 73.746 26.1019 72.9136 26.1019H72.3784ZM77.2536 26V18.9919H78.2603V19.8328H78.4896L78.3112 20.1386C78.3112 19.7479 78.4132 19.4378 78.617 19.2085C78.8294 18.9791 79.114 18.8644 79.4708 18.8644C79.8615 18.8644 80.1631 19.0088 80.3754 19.2977C80.5878 19.5865 80.694 19.9942 80.694 20.5209L80.35 19.8328H80.8851L80.643 20.1386C80.643 19.7479 80.7492 19.4378 80.9616 19.2085C81.1824 18.9791 81.4713 18.8644 81.828 18.8644C82.2698 18.8644 82.6096 19.0301 82.8474 19.3614C83.0938 19.6927 83.2169 20.1302 83.2169 20.6738V26H82.1593V20.6611C82.1593 20.3723 82.0956 20.1471 81.9682 19.9857C81.8493 19.8243 81.6709 19.7436 81.433 19.7436C81.2037 19.7436 81.021 19.8243 80.8851 19.9857C80.7577 20.1386 80.694 20.3595 80.694 20.6483V26H79.7766V20.6611C79.7766 20.3638 79.7086 20.1386 79.5727 19.9857C79.4453 19.8243 79.2626 19.7436 79.0248 19.7436C78.7869 19.7436 78.6085 19.8243 78.4896 19.9857C78.3707 20.1386 78.3112 20.3595 78.3112 20.6483V26H77.2536ZM87.2639 26.1274C86.5249 26.1274 85.943 25.9405 85.5183 25.5668C85.0935 25.1845 84.8812 24.6706 84.8812 24.025C84.8812 23.3709 85.0935 22.857 85.5183 22.4832C85.943 22.1094 86.5164 21.9225 87.2384 21.9225H89.4046V21.2217C89.4046 20.7885 89.2729 20.4572 89.0096 20.2278C88.7548 19.99 88.3895 19.8711 87.9138 19.8711C87.4975 19.8711 87.1492 19.9603 86.8689 20.1386C86.5886 20.3085 86.4272 20.5421 86.3847 20.8395H85.2379C85.3144 20.2363 85.599 19.7564 86.0917 19.3996C86.5844 19.0428 87.2002 18.8644 87.9393 18.8644C88.7463 18.8644 89.3834 19.0726 89.8506 19.4888C90.3178 19.905 90.5514 20.4699 90.5514 21.1835V26H89.4301V24.6621H89.2389L89.4301 24.471C89.4301 24.9806 89.2305 25.3841 88.8312 25.6814C88.4404 25.9788 87.918 26.1274 87.2639 26.1274ZM87.5443 25.2227C88.0879 25.2227 88.5339 25.0868 88.8822 24.815C89.2305 24.5432 89.4046 24.1949 89.4046 23.7701V22.7763H87.2639C86.8817 22.7763 86.5801 22.8824 86.3592 23.0948C86.1384 23.3072 86.0279 23.596 86.0279 23.9613C86.0279 24.352 86.1596 24.6621 86.423 24.8914C86.6948 25.1123 87.0685 25.2227 87.5443 25.2227ZM100.506 28.2936V18.9919H101.653V20.3298H101.882L101.653 20.5974C101.653 20.0622 101.827 19.6417 102.175 19.3359C102.532 19.0216 102.999 18.8644 103.577 18.8644C104.282 18.8644 104.842 19.098 105.259 19.5653C105.683 20.024 105.896 20.6568 105.896 21.4638V23.5153C105.896 24.0505 105.798 24.5134 105.603 24.9042C105.416 25.2949 105.148 25.5965 104.8 25.8089C104.46 26.0212 104.052 26.1274 103.577 26.1274C103.007 26.1274 102.544 25.9703 102.188 25.656C101.831 25.3417 101.653 24.9212 101.653 24.3945L101.882 24.6621H101.627L101.653 26.2548V28.2936H100.506ZM103.194 25.1335C103.679 25.1335 104.057 24.9891 104.328 24.7003C104.609 24.4115 104.749 23.9952 104.749 23.4516V21.5403C104.749 20.9966 104.609 20.5804 104.328 20.2916C104.057 20.0027 103.679 19.8583 103.194 19.8583C102.727 19.8583 102.353 20.007 102.073 20.3043C101.793 20.6016 101.653 21.0136 101.653 21.5403V23.4516C101.653 23.9783 101.793 24.3903 102.073 24.6876C102.353 24.9849 102.727 25.1335 103.194 25.1335ZM111.752 26C111.344 26 110.987 25.9193 110.682 25.7579C110.376 25.5965 110.138 25.3671 109.968 25.0698C109.798 24.7725 109.713 24.4242 109.713 24.025V17.7431H107.356V16.6983H110.86V24.025C110.86 24.3138 110.941 24.5432 111.102 24.7131C111.264 24.8745 111.48 24.9551 111.752 24.9551H113.982V26H111.752ZM117.825 26.1274C117.086 26.1274 116.504 25.9405 116.079 25.5668C115.655 25.1845 115.442 24.6706 115.442 24.025C115.442 23.3709 115.655 22.857 116.079 22.4832C116.504 22.1094 117.077 21.9225 117.8 21.9225H119.966V21.2217C119.966 20.7885 119.834 20.4572 119.571 20.2278C119.316 19.99 118.951 19.8711 118.475 19.8711C118.059 19.8711 117.71 19.9603 117.43 20.1386C117.15 20.3085 116.988 20.5421 116.946 20.8395H115.799C115.875 20.2363 116.16 19.7564 116.653 19.3996C117.145 19.0428 117.761 18.8644 118.5 18.8644C119.307 18.8644 119.944 19.0726 120.412 19.4888C120.879 19.905 121.112 20.4699 121.112 21.1835V26H119.991V24.6621H119.8L119.991 24.471C119.991 24.9806 119.792 25.3841 119.392 25.6814C119.002 25.9788 118.479 26.1274 117.825 26.1274ZM118.105 25.2227C118.649 25.2227 119.095 25.0868 119.443 24.815C119.792 24.5432 119.966 24.1949 119.966 23.7701V22.7763H117.825C117.443 22.7763 117.141 22.8824 116.92 23.0948C116.699 23.3072 116.589 23.596 116.589 23.9613C116.589 24.352 116.721 24.6621 116.984 24.8914C117.256 25.1123 117.63 25.2227 118.105 25.2227ZM126.841 26C126.238 26 125.767 25.8386 125.427 25.5158C125.096 25.193 124.93 24.7385 124.93 24.1524V20.0367H122.955V18.9919H124.93V17.0168H126.077V18.9919H128.88V20.0367H126.077V24.1524C126.077 24.6876 126.332 24.9551 126.841 24.9551H128.753V26H126.841ZM132.698 26V20.7375H130.659V19.6927H132.698V18.4822C132.698 17.93 132.872 17.4968 133.22 17.1825C133.568 16.8597 134.048 16.6983 134.66 16.6983H136.712V17.7431H134.66C134.397 17.7431 134.193 17.8068 134.048 17.9343C133.913 18.0532 133.845 18.2358 133.845 18.4822V19.6927H136.712V20.7375H133.845V26H132.698ZM141.357 26.1019C140.797 26.1019 140.313 25.9958 139.905 25.7834C139.497 25.571 139.179 25.2652 138.949 24.866C138.728 24.4582 138.618 23.9783 138.618 23.4261V21.5658C138.618 21.0051 138.728 20.5252 138.949 20.1259C139.179 19.7267 139.497 19.4208 139.905 19.2085C140.313 18.9961 140.797 18.8899 141.357 18.8899C141.918 18.8899 142.402 18.9961 142.81 19.2085C143.218 19.4208 143.532 19.7267 143.753 20.1259C143.982 20.5252 144.097 21.0009 144.097 21.553V23.4261C144.097 23.9783 143.982 24.4582 143.753 24.866C143.532 25.2652 143.218 25.571 142.81 25.7834C142.402 25.9958 141.918 26.1019 141.357 26.1019ZM141.357 25.0826C141.859 25.0826 142.249 24.9424 142.53 24.6621C142.81 24.3818 142.95 23.9698 142.95 23.4261V21.5658C142.95 21.0221 142.81 20.6101 142.53 20.3298C142.249 20.0495 141.859 19.9093 141.357 19.9093C140.865 19.9093 140.474 20.0495 140.185 20.3298C139.905 20.6101 139.765 21.0221 139.765 21.5658V23.4261C139.765 23.9698 139.905 24.3818 140.185 24.6621C140.474 24.9424 140.865 25.0826 141.357 25.0826ZM146.589 26V18.9919H147.711V20.3298H147.978L147.609 21.158C147.609 20.402 147.77 19.8328 148.093 19.4506C148.424 19.0598 148.913 18.8644 149.558 18.8644C150.297 18.8644 150.883 19.098 151.317 19.5653C151.758 20.024 151.979 20.6483 151.979 21.4383V21.8588H150.833V21.5403C150.833 20.9881 150.697 20.5676 150.425 20.2788C150.161 19.9815 149.783 19.8328 149.291 19.8328C148.807 19.8328 148.424 19.9815 148.144 20.2788C147.872 20.5761 147.736 20.9966 147.736 21.5403V26H146.589ZM153.656 26V18.9919H154.663V19.8328H154.892L154.714 20.1386C154.714 19.7479 154.816 19.4378 155.02 19.2085C155.232 18.9791 155.517 18.8644 155.873 18.8644C156.264 18.8644 156.566 19.0088 156.778 19.2977C156.99 19.5865 157.097 19.9942 157.097 20.5209L156.753 19.8328H157.288L157.046 20.1386C157.046 19.7479 157.152 19.4378 157.364 19.2085C157.585 18.9791 157.874 18.8644 158.231 18.8644C158.672 18.8644 159.012 19.0301 159.25 19.3614C159.496 19.6927 159.62 20.1302 159.62 20.6738V26H158.562V20.6611C158.562 20.3723 158.498 20.1471 158.371 19.9857C158.252 19.8243 158.074 19.7436 157.836 19.7436C157.606 19.7436 157.424 19.8243 157.288 19.9857C157.16 20.1386 157.097 20.3595 157.097 20.6483V26H156.179V20.6611C156.179 20.3638 156.111 20.1386 155.975 19.9857C155.848 19.8243 155.665 19.7436 155.427 19.7436C155.19 19.7436 155.011 19.8243 154.892 19.9857C154.773 20.1386 154.714 20.3595 154.714 20.6483V26H153.656Z" fill="#A0AEC0"/>
<path d="M170.708 27.4016V15.4241H173.83V16.4434H171.855V26.3823H173.83V27.4016H170.708ZM179.61 26.1274C179.049 26.1274 178.556 26.0212 178.132 25.8089C177.715 25.5965 177.393 25.2907 177.163 24.8914C176.934 24.4837 176.819 24.0037 176.819 23.4516V21.5403C176.819 20.9796 176.934 20.4997 177.163 20.1004C177.393 19.7012 177.715 19.3954 178.132 19.183C178.556 18.9706 179.049 18.8644 179.61 18.8644C180.417 18.8644 181.067 19.0811 181.559 19.5143C182.052 19.9475 182.311 20.5379 182.337 21.2854H181.19C181.164 20.8352 181.011 20.4912 180.731 20.2533C180.459 20.007 180.085 19.8838 179.61 19.8838C179.109 19.8838 178.709 20.0282 178.412 20.317C178.115 20.5974 177.966 21.0009 177.966 21.5275V23.4516C177.966 23.9783 178.115 24.386 178.412 24.6748C178.709 24.9636 179.109 25.1081 179.61 25.1081C180.085 25.1081 180.459 24.9849 180.731 24.7385C181.011 24.4922 181.164 24.1482 181.19 23.7064H182.337C182.311 24.454 182.052 25.0443 181.559 25.4776C181.067 25.9108 180.417 26.1274 179.61 26.1274ZM187.199 26.1019C186.638 26.1019 186.154 25.9958 185.746 25.7834C185.339 25.571 185.02 25.2652 184.791 24.866C184.57 24.4582 184.459 23.9783 184.459 23.4261V21.5658C184.459 21.0051 184.57 20.5252 184.791 20.1259C185.02 19.7267 185.339 19.4208 185.746 19.2085C186.154 18.9961 186.638 18.8899 187.199 18.8899C187.76 18.8899 188.244 18.9961 188.652 19.2085C189.059 19.4208 189.374 19.7267 189.595 20.1259C189.824 20.5252 189.939 21.0009 189.939 21.553V23.4261C189.939 23.9783 189.824 24.4582 189.595 24.866C189.374 25.2652 189.059 25.571 188.652 25.7834C188.244 25.9958 187.76 26.1019 187.199 26.1019ZM187.199 25.0826C187.7 25.0826 188.091 24.9424 188.371 24.6621C188.652 24.3818 188.792 23.9698 188.792 23.4261V21.5658C188.792 21.0221 188.652 20.6101 188.371 20.3298C188.091 20.0495 187.7 19.9093 187.199 19.9093C186.706 19.9093 186.316 20.0495 186.027 20.3298C185.746 20.6101 185.606 21.0221 185.606 21.5658V23.4261C185.606 23.9698 185.746 24.3818 186.027 24.6621C186.316 24.9424 186.706 25.0826 187.199 25.0826ZM191.858 26V18.9919H192.864V19.8328H193.094L192.915 20.1386C192.915 19.7479 193.017 19.4378 193.221 19.2085C193.433 18.9791 193.718 18.8644 194.075 18.8644C194.466 18.8644 194.767 19.0088 194.979 19.2977C195.192 19.5865 195.298 19.9942 195.298 20.5209L194.954 19.8328H195.489L195.247 20.1386C195.247 19.7479 195.353 19.4378 195.566 19.2085C195.786 18.9791 196.075 18.8644 196.432 18.8644C196.874 18.8644 197.214 19.0301 197.451 19.3614C197.698 19.6927 197.821 20.1302 197.821 20.6738V26H196.763V20.6611C196.763 20.3723 196.7 20.1471 196.572 19.9857C196.453 19.8243 196.275 19.7436 196.037 19.7436C195.808 19.7436 195.625 19.8243 195.489 19.9857C195.362 20.1386 195.298 20.3595 195.298 20.6483V26H194.381V20.6611C194.381 20.3638 194.313 20.1386 194.177 19.9857C194.049 19.8243 193.867 19.7436 193.629 19.7436C193.391 19.7436 193.213 19.8243 193.094 19.9857C192.975 20.1386 192.915 20.3595 192.915 20.6483V26H191.858ZM199.498 26V18.9919H200.505V19.8328H200.734L200.555 20.1386C200.555 19.7479 200.657 19.4378 200.861 19.2085C201.074 18.9791 201.358 18.8644 201.715 18.8644C202.106 18.8644 202.407 19.0088 202.62 19.2977C202.832 19.5865 202.938 19.9942 202.938 20.5209L202.594 19.8328H203.129L202.887 20.1386C202.887 19.7479 202.993 19.4378 203.206 19.2085C203.427 18.9791 203.716 18.8644 204.072 18.8644C204.514 18.8644 204.854 19.0301 205.092 19.3614C205.338 19.6927 205.461 20.1302 205.461 20.6738V26H204.404V20.6611C204.404 20.3723 204.34 20.1471 204.212 19.9857C204.094 19.8243 203.915 19.7436 203.677 19.7436C203.448 19.7436 203.265 19.8243 203.129 19.9857C203.002 20.1386 202.938 20.3595 202.938 20.6483V26H202.021V20.6611C202.021 20.3638 201.953 20.1386 201.817 19.9857C201.69 19.8243 201.507 19.7436 201.269 19.7436C201.031 19.7436 200.853 19.8243 200.734 19.9857C200.615 20.1386 200.555 20.3595 200.555 20.6483V26H199.498ZM209.508 26.1274C208.769 26.1274 208.187 25.9405 207.763 25.5668C207.338 25.1845 207.125 24.6706 207.125 24.025C207.125 23.3709 207.338 22.857 207.763 22.4832C208.187 22.1094 208.761 21.9225 209.483 21.9225H211.649V21.2217C211.649 20.7885 211.517 20.4572 211.254 20.2278C210.999 19.99 210.634 19.8711 210.158 19.8711C209.742 19.8711 209.394 19.9603 209.113 20.1386C208.833 20.3085 208.671 20.5421 208.629 20.8395H207.482C207.559 20.2363 207.843 19.7564 208.336 19.3996C208.829 19.0428 209.444 18.8644 210.184 18.8644C210.991 18.8644 211.628 19.0726 212.095 19.4888C212.562 19.905 212.796 20.4699 212.796 21.1835V26H211.674V24.6621H211.483L211.674 24.471C211.674 24.9806 211.475 25.3841 211.075 25.6814C210.685 25.9788 210.162 26.1274 209.508 26.1274ZM209.789 25.2227C210.332 25.2227 210.778 25.0868 211.126 24.815C211.475 24.5432 211.649 24.1949 211.649 23.7701V22.7763H209.508C209.126 22.7763 208.824 22.8824 208.603 23.0948C208.383 23.3072 208.272 23.596 208.272 23.9613C208.272 24.352 208.404 24.6621 208.667 24.8914C208.939 25.1123 209.313 25.2227 209.789 25.2227ZM215.11 26V18.9919H216.257V20.3298H216.499L216.257 20.5974C216.257 20.0452 216.422 19.6205 216.753 19.3232C217.085 19.0173 217.543 18.8644 218.13 18.8644C218.835 18.8644 219.395 19.0811 219.812 19.5143C220.228 19.9475 220.436 20.5379 220.436 21.2854V26H219.289V21.4129C219.289 20.9117 219.153 20.5294 218.881 20.2661C218.618 19.9942 218.257 19.8583 217.798 19.8583C217.323 19.8583 216.945 20.0027 216.664 20.2916C216.392 20.5804 216.257 20.9966 216.257 21.5403V26H215.11ZM224.993 26.1274C224.296 26.1274 223.731 25.8938 223.298 25.4266C222.873 24.9594 222.661 24.3265 222.661 23.528V21.4766C222.661 20.6696 222.873 20.0325 223.298 19.5653C223.723 19.098 224.288 18.8644 224.993 18.8644C225.57 18.8644 226.033 19.0216 226.381 19.3359C226.73 19.6502 226.904 20.0707 226.904 20.5974L226.675 20.3298H226.929L226.904 18.737V16.6983H228.051V26H226.904V24.6621H226.675L226.904 24.3945C226.904 24.9297 226.73 25.3544 226.381 25.6687C226.033 25.9745 225.57 26.1274 224.993 26.1274ZM225.375 25.1335C225.851 25.1335 226.224 24.9849 226.496 24.6876C226.768 24.3903 226.904 23.9783 226.904 23.4516V21.5403C226.904 21.0136 226.768 20.6016 226.496 20.3043C226.224 20.007 225.851 19.8583 225.375 19.8583C224.891 19.8583 224.508 20.0027 224.228 20.2916C223.948 20.5804 223.808 20.9966 223.808 21.5403V23.4516C223.808 23.9952 223.948 24.4115 224.228 24.7003C224.508 24.9891 224.891 25.1335 225.375 25.1335ZM231.129 27.4016V26.3823H233.104V16.4434H231.129V15.4241H234.251V27.4016H231.129ZM247.111 27.4016V15.4241H250.232V16.4434H248.257V26.3823H250.232V27.4016H247.111ZM255.961 26.1019C255.401 26.1019 254.917 25.9958 254.509 25.7834C254.101 25.571 253.783 25.2652 253.553 24.866C253.332 24.4582 253.222 23.9783 253.222 23.4261V21.5658C253.222 21.0051 253.332 20.5252 253.553 20.1259C253.783 19.7267 254.101 19.4208 254.509 19.2085C254.917 18.9961 255.401 18.8899 255.961 18.8899C256.522 18.8899 257.006 18.9961 257.414 19.2085C257.822 19.4208 258.136 19.7267 258.357 20.1259C258.586 20.5252 258.701 21.0009 258.701 21.553V23.4261C258.701 23.9783 258.586 24.4582 258.357 24.866C258.136 25.2652 257.822 25.571 257.414 25.7834C257.006 25.9958 256.522 26.1019 255.961 26.1019ZM255.961 25.0826C256.463 25.0826 256.853 24.9424 257.134 24.6621C257.414 24.3818 257.554 23.9698 257.554 23.4261V21.5658C257.554 21.0221 257.414 20.6101 257.134 20.3298C256.853 20.0495 256.463 19.9093 255.961 19.9093C255.469 19.9093 255.078 20.0495 254.789 20.3298C254.509 20.6101 254.369 21.0221 254.369 21.5658V23.4261C254.369 23.9698 254.509 24.3818 254.789 24.6621C255.078 24.9424 255.469 25.0826 255.961 25.0826ZM260.951 28.2936V18.9919H262.098V20.3298H262.327L262.098 20.5974C262.098 20.0622 262.272 19.6417 262.621 19.3359C262.977 19.0216 263.445 18.8644 264.022 18.8644C264.727 18.8644 265.288 19.098 265.704 19.5653C266.129 20.024 266.341 20.6568 266.341 21.4638V23.5153C266.341 24.0505 266.244 24.5134 266.048 24.9042C265.861 25.2949 265.594 25.5965 265.245 25.8089C264.906 26.0212 264.498 26.1274 264.022 26.1274C263.453 26.1274 262.99 25.9703 262.633 25.656C262.276 25.3417 262.098 24.9212 262.098 24.3945L262.327 24.6621H262.073L262.098 26.2548V28.2936H260.951ZM263.64 25.1335C264.124 25.1335 264.502 24.9891 264.774 24.7003C265.054 24.4115 265.194 23.9952 265.194 23.4516V21.5403C265.194 20.9966 265.054 20.5804 264.774 20.2916C264.502 20.0027 264.124 19.8583 263.64 19.8583C263.173 19.8583 262.799 20.007 262.519 20.3043C262.238 20.6016 262.098 21.0136 262.098 21.5403V23.4516C262.098 23.9783 262.238 24.3903 262.519 24.6876C262.799 24.9849 263.173 25.1335 263.64 25.1335ZM272.006 26C271.403 26 270.932 25.8386 270.592 25.5158C270.261 25.193 270.095 24.7385 270.095 24.1524V20.0367H268.12V18.9919H270.095V17.0168H271.242V18.9919H274.045V20.0367H271.242V24.1524C271.242 24.6876 271.497 24.9551 272.006 24.9551H273.918V26H272.006ZM276.143 26V24.9551H278.627V20.0367H276.461V18.9919H279.774V24.9551H282.131V26H276.143ZM279.073 17.7304C278.793 17.7304 278.572 17.6582 278.411 17.5138C278.249 17.3694 278.169 17.174 278.169 16.9276C278.169 16.6728 278.249 16.4732 278.411 16.3288C278.572 16.1759 278.793 16.0994 279.073 16.0994C279.354 16.0994 279.575 16.1759 279.736 16.3288C279.897 16.4732 279.978 16.6728 279.978 16.9276C279.978 17.174 279.897 17.3694 279.736 17.5138C279.575 17.6582 279.354 17.7304 279.073 17.7304ZM286.522 26.1019C285.962 26.1019 285.478 25.9958 285.07 25.7834C284.662 25.571 284.344 25.2652 284.114 24.866C283.893 24.4582 283.783 23.9783 283.783 23.4261V21.5658C283.783 21.0051 283.893 20.5252 284.114 20.1259C284.344 19.7267 284.662 19.4208 285.07 19.2085C285.478 18.9961 285.962 18.8899 286.522 18.8899C287.083 18.8899 287.567 18.9961 287.975 19.2085C288.383 19.4208 288.697 19.7267 288.918 20.1259C289.147 20.5252 289.262 21.0009 289.262 21.553V23.4261C289.262 23.9783 289.147 24.4582 288.918 24.866C288.697 25.2652 288.383 25.571 287.975 25.7834C287.567 25.9958 287.083 26.1019 286.522 26.1019ZM286.522 25.0826C287.024 25.0826 287.414 24.9424 287.695 24.6621C287.975 24.3818 288.115 23.9698 288.115 23.4261V21.5658C288.115 21.0221 287.975 20.6101 287.695 20.3298C287.414 20.0495 287.024 19.9093 286.522 19.9093C286.03 19.9093 285.639 20.0495 285.35 20.3298C285.07 20.6101 284.93 21.0221 284.93 21.5658V23.4261C284.93 23.9698 285.07 24.3818 285.35 24.6621C285.639 24.9424 286.03 25.0826 286.522 25.0826ZM291.512 26V18.9919H292.659V20.3298H292.901L292.659 20.5974C292.659 20.0452 292.825 19.6205 293.156 19.3232C293.487 19.0173 293.946 18.8644 294.532 18.8644C295.237 18.8644 295.798 19.0811 296.214 19.5143C296.63 19.9475 296.839 20.5379 296.839 21.2854V26H295.692V21.4129C295.692 20.9117 295.556 20.5294 295.284 20.2661C295.021 19.9942 294.66 19.8583 294.201 19.8583C293.725 19.8583 293.347 20.0027 293.067 20.2916C292.795 20.5804 292.659 20.9966 292.659 21.5403V26H291.512ZM301.586 26.1019C301.111 26.1019 300.694 26.0297 300.338 25.8853C299.989 25.7324 299.709 25.52 299.497 25.2482C299.293 24.9764 299.17 24.6536 299.127 24.2798H300.274C300.325 24.5262 300.461 24.7215 300.682 24.866C300.911 25.0104 301.213 25.0826 301.586 25.0826H302.122C302.572 25.0826 302.907 24.9934 303.128 24.815C303.349 24.6281 303.459 24.3818 303.459 24.0759C303.459 23.7786 303.358 23.545 303.154 23.3751C302.958 23.1967 302.665 23.0778 302.274 23.0184L301.332 22.8654C300.643 22.7465 300.13 22.5342 299.79 22.2283C299.458 21.914 299.293 21.4596 299.293 20.8649C299.293 20.2363 299.492 19.7521 299.892 19.4123C300.291 19.0641 300.89 18.8899 301.688 18.8899H302.173C302.844 18.8899 303.383 19.0471 303.791 19.3614C304.199 19.6757 304.445 20.1004 304.53 20.6356H303.383C303.332 20.4147 303.205 20.2406 303.001 20.1132C302.797 19.9772 302.521 19.9093 302.173 19.9093H301.688C301.255 19.9093 300.937 19.99 300.733 20.1514C300.537 20.3128 300.44 20.5549 300.44 20.8777C300.44 21.1665 300.525 21.3789 300.694 21.5148C300.864 21.6507 301.132 21.7484 301.497 21.8079L302.44 21.9608C303.196 22.0797 303.744 22.3006 304.084 22.6234C304.432 22.9461 304.606 23.4134 304.606 24.025C304.606 24.6706 304.398 25.1803 303.982 25.554C303.574 25.9193 302.954 26.1019 302.122 26.1019H301.586ZM307.532 27.4016V26.3823H309.507V16.4434H307.532V15.4241H310.654V27.4016H307.532Z" fill="#7F9CF5"/>
<path d="M329.115 22.3048V21.2854H334.403V22.3048H329.115ZM322.68 22.3048V21.2854H327.968V22.3048H322.68ZM340.004 26.1274C339.452 26.1274 338.968 26.017 338.552 25.7961C338.144 25.5753 337.825 25.2652 337.596 24.866C337.375 24.4582 337.265 23.9868 337.265 23.4516V21.5403C337.265 20.9966 337.375 20.5252 337.596 20.1259C337.825 19.7267 338.144 19.4166 338.552 19.1957C338.968 18.9749 339.452 18.8644 340.004 18.8644C340.556 18.8644 341.036 18.9749 341.444 19.1957C341.86 19.4166 342.179 19.7267 342.4 20.1259C342.629 20.5252 342.744 20.9966 342.744 21.5403V22.7763H338.386V23.4516C338.386 24.0037 338.526 24.4285 338.807 24.7258C339.087 25.0146 339.486 25.159 340.004 25.159C340.446 25.159 340.803 25.0826 341.075 24.9297C341.346 24.7683 341.512 24.5304 341.572 24.2161H342.718C342.642 24.8022 342.353 25.2695 341.852 25.6177C341.359 25.9575 340.743 26.1274 340.004 26.1274ZM341.623 22.0117V21.5403C341.623 20.9881 341.482 20.5634 341.202 20.2661C340.93 19.9688 340.531 19.8201 340.004 19.8201C339.486 19.8201 339.087 19.9688 338.807 20.2661C338.526 20.5634 338.386 20.9881 338.386 21.5403V21.9098H341.712L341.623 22.0117ZM347.033 26.1274C346.294 26.1274 345.712 25.9405 345.287 25.5668C344.863 25.1845 344.65 24.6706 344.65 24.025C344.65 23.3709 344.863 22.857 345.287 22.4832C345.712 22.1094 346.285 21.9225 347.008 21.9225H349.174V21.2217C349.174 20.7885 349.042 20.4572 348.779 20.2278C348.524 19.99 348.159 19.8711 347.683 19.8711C347.267 19.8711 346.918 19.9603 346.638 20.1386C346.358 20.3085 346.196 20.5421 346.154 20.8395H345.007C345.083 20.2363 345.368 19.7564 345.861 19.3996C346.353 19.0428 346.969 18.8644 347.708 18.8644C348.515 18.8644 349.152 19.0726 349.62 19.4888C350.087 19.905 350.32 20.4699 350.32 21.1835V26H349.199V24.6621H349.008L349.199 24.471C349.199 24.9806 349 25.3841 348.6 25.6814C348.21 25.9788 347.687 26.1274 347.033 26.1274ZM347.313 25.2227C347.857 25.2227 348.303 25.0868 348.651 24.815C349 24.5432 349.174 24.1949 349.174 23.7701V22.7763H347.033C346.651 22.7763 346.349 22.8824 346.128 23.0948C345.907 23.3072 345.797 23.596 345.797 23.9613C345.797 24.352 345.929 24.6621 346.192 24.8914C346.464 25.1123 346.838 25.2227 347.313 25.2227ZM352.877 26V18.9919H353.998V20.3298H354.266L353.896 21.158C353.896 20.402 354.057 19.8328 354.38 19.4506C354.711 19.0598 355.2 18.8644 355.846 18.8644C356.585 18.8644 357.171 19.098 357.604 19.5653C358.046 20.024 358.267 20.6483 358.267 21.4383V21.8588H357.12V21.5403C357.12 20.9881 356.984 20.5676 356.712 20.2788C356.449 19.9815 356.071 19.8328 355.578 19.8328C355.094 19.8328 354.711 19.9815 354.431 20.2788C354.159 20.5761 354.023 20.9966 354.023 21.5403V26H352.877ZM363.881 26C363.473 26 363.116 25.9193 362.81 25.7579C362.505 25.5965 362.267 25.3671 362.097 25.0698C361.927 24.7725 361.842 24.4242 361.842 24.025V17.7431H359.485V16.6983H362.989V24.025C362.989 24.3138 363.07 24.5432 363.231 24.7131C363.392 24.8745 363.609 24.9551 363.881 24.9551H366.111V26H363.881ZM369.011 28.2936L370.043 25.5668L367.444 18.9919H368.718L370.349 23.3242C370.408 23.4686 370.463 23.6427 370.514 23.8466C370.565 24.042 370.608 24.2076 370.642 24.3435C370.676 24.2076 370.718 24.042 370.769 23.8466C370.82 23.6427 370.871 23.4686 370.922 23.3242L372.451 18.9919H373.687L370.234 28.2936H369.011ZM376.167 22.3048V21.2854H380.244V22.3048H376.167ZM385.234 26.1274C384.495 26.1274 383.913 25.9405 383.489 25.5668C383.064 25.1845 382.852 24.6706 382.852 24.025C382.852 23.3709 383.064 22.857 383.489 22.4832C383.913 22.1094 384.487 21.9225 385.209 21.9225H387.375V21.2217C387.375 20.7885 387.243 20.4572 386.98 20.2278C386.725 19.99 386.36 19.8711 385.884 19.8711C385.468 19.8711 385.12 19.9603 384.839 20.1386C384.559 20.3085 384.398 20.5421 384.355 20.8395H383.208C383.285 20.2363 383.569 19.7564 384.062 19.3996C384.555 19.0428 385.171 18.8644 385.91 18.8644C386.717 18.8644 387.354 19.0726 387.821 19.4888C388.288 19.905 388.522 20.4699 388.522 21.1835V26H387.4V24.6621H387.209L387.4 24.471C387.4 24.9806 387.201 25.3841 386.802 25.6814C386.411 25.9788 385.888 26.1274 385.234 26.1274ZM385.515 25.2227C386.058 25.2227 386.504 25.0868 386.853 24.815C387.201 24.5432 387.375 24.1949 387.375 23.7701V22.7763H385.234C384.852 22.7763 384.55 22.8824 384.33 23.0948C384.109 23.3072 383.998 23.596 383.998 23.9613C383.998 24.352 384.13 24.6621 384.393 24.8914C384.665 25.1123 385.039 25.2227 385.515 25.2227ZM393.537 26.1274C392.977 26.1274 392.484 26.0212 392.059 25.8089C391.643 25.5965 391.32 25.2907 391.091 24.8914C390.861 24.4837 390.747 24.0037 390.747 23.4516V21.5403C390.747 20.9796 390.861 20.4997 391.091 20.1004C391.32 19.7012 391.643 19.3954 392.059 19.183C392.484 18.9706 392.977 18.8644 393.537 18.8644C394.344 18.8644 394.994 19.0811 395.487 19.5143C395.979 19.9475 396.238 20.5379 396.264 21.2854H395.117C395.092 20.8352 394.939 20.4912 394.658 20.2533C394.387 20.007 394.013 19.8838 393.537 19.8838C393.036 19.8838 392.637 20.0282 392.339 20.317C392.042 20.5974 391.893 21.0009 391.893 21.5275V23.4516C391.893 23.9783 392.042 24.386 392.339 24.6748C392.637 24.9636 393.036 25.1081 393.537 25.1081C394.013 25.1081 394.387 24.9849 394.658 24.7385C394.939 24.4922 395.092 24.1482 395.117 23.7064H396.264C396.238 24.454 395.979 25.0443 395.487 25.4776C394.994 25.9108 394.344 26.1274 393.537 26.1274ZM401.177 26.1274C400.617 26.1274 400.124 26.0212 399.699 25.8089C399.283 25.5965 398.96 25.2907 398.731 24.8914C398.502 24.4837 398.387 24.0037 398.387 23.4516V21.5403C398.387 20.9796 398.502 20.4997 398.731 20.1004C398.96 19.7012 399.283 19.3954 399.699 19.183C400.124 18.9706 400.617 18.8644 401.177 18.8644C401.984 18.8644 402.634 19.0811 403.127 19.5143C403.62 19.9475 403.879 20.5379 403.904 21.2854H402.757C402.732 20.8352 402.579 20.4912 402.299 20.2533C402.027 20.007 401.653 19.8838 401.177 19.8838C400.676 19.8838 400.277 20.0282 399.98 20.317C399.682 20.5974 399.534 21.0009 399.534 21.5275V23.4516C399.534 23.9783 399.682 24.386 399.98 24.6748C400.277 24.9636 400.676 25.1081 401.177 25.1081C401.653 25.1081 402.027 24.9849 402.299 24.7385C402.579 24.4922 402.732 24.1482 402.757 23.7064H403.904C403.879 24.454 403.62 25.0443 403.127 25.4776C402.634 25.9108 401.984 26.1274 401.177 26.1274ZM408.767 26.1274C408.215 26.1274 407.73 26.017 407.314 25.7961C406.906 25.5753 406.588 25.2652 406.358 24.866C406.138 24.4582 406.027 23.9868 406.027 23.4516V21.5403C406.027 20.9966 406.138 20.5252 406.358 20.1259C406.588 19.7267 406.906 19.4166 407.314 19.1957C407.73 18.9749 408.215 18.8644 408.767 18.8644C409.319 18.8644 409.799 18.9749 410.207 19.1957C410.623 19.4166 410.941 19.7267 411.162 20.1259C411.392 20.5252 411.506 20.9966 411.506 21.5403V22.7763H407.149V23.4516C407.149 24.0037 407.289 24.4285 407.569 24.7258C407.849 25.0146 408.249 25.159 408.767 25.159C409.208 25.159 409.565 25.0826 409.837 24.9297C410.109 24.7683 410.275 24.5304 410.334 24.2161H411.481C411.404 24.8022 411.116 25.2695 410.614 25.6177C410.122 25.9575 409.506 26.1274 408.767 26.1274ZM410.385 22.0117V21.5403C410.385 20.9881 410.245 20.5634 409.964 20.2661C409.693 19.9688 409.293 19.8201 408.767 19.8201C408.249 19.8201 407.849 19.9688 407.569 20.2661C407.289 20.5634 407.149 20.9881 407.149 21.5403V21.9098H410.474L410.385 22.0117ZM416.19 26.1019C415.715 26.1019 415.298 26.0297 414.942 25.8853C414.593 25.7324 414.313 25.52 414.101 25.2482C413.897 24.9764 413.774 24.6536 413.731 24.2798H414.878C414.929 24.5262 415.065 24.7215 415.286 24.866C415.515 25.0104 415.817 25.0826 416.19 25.0826H416.726C417.176 25.0826 417.511 24.9934 417.732 24.815C417.953 24.6281 418.063 24.3818 418.063 24.0759C418.063 23.7786 417.962 23.545 417.758 23.3751C417.562 23.1967 417.269 23.0778 416.878 23.0184L415.936 22.8654C415.247 22.7465 414.734 22.5342 414.394 22.2283C414.062 21.914 413.897 21.4596 413.897 20.8649C413.897 20.2363 414.096 19.7521 414.496 19.4123C414.895 19.0641 415.494 18.8899 416.292 18.8899H416.777C417.448 18.8899 417.987 19.0471 418.395 19.3614C418.803 19.6757 419.049 20.1004 419.134 20.6356H417.987C417.936 20.4147 417.809 20.2406 417.605 20.1132C417.401 19.9772 417.125 19.9093 416.777 19.9093H416.292C415.859 19.9093 415.541 19.99 415.337 20.1514C415.141 20.3128 415.044 20.5549 415.044 20.8777C415.044 21.1665 415.129 21.3789 415.298 21.5148C415.468 21.6507 415.736 21.7484 416.101 21.8079L417.044 21.9608C417.8 22.0797 418.348 22.3006 418.688 22.6234C419.036 22.9461 419.21 23.4134 419.21 24.025C419.21 24.6706 419.002 25.1803 418.586 25.554C418.178 25.9193 417.558 26.1019 416.726 26.1019H416.19ZM423.831 26.1019C423.355 26.1019 422.939 26.0297 422.582 25.8853C422.234 25.7324 421.953 25.52 421.741 25.2482C421.537 24.9764 421.414 24.6536 421.371 24.2798H422.518C422.569 24.5262 422.705 24.7215 422.926 24.866C423.155 25.0104 423.457 25.0826 423.831 25.0826H424.366C424.816 25.0826 425.152 24.9934 425.372 24.815C425.593 24.6281 425.704 24.3818 425.704 24.0759C425.704 23.7786 425.602 23.545 425.398 23.3751C425.203 23.1967 424.909 23.0778 424.519 23.0184L423.576 22.8654C422.888 22.7465 422.374 22.5342 422.034 22.2283C421.703 21.914 421.537 21.4596 421.537 20.8649C421.537 20.2363 421.737 19.7521 422.136 19.4123C422.535 19.0641 423.134 18.8899 423.933 18.8899H424.417C425.088 18.8899 425.627 19.0471 426.035 19.3614C426.443 19.6757 426.689 20.1004 426.774 20.6356H425.627C425.576 20.4147 425.449 20.2406 425.245 20.1132C425.041 19.9772 424.765 19.9093 424.417 19.9093H423.933C423.499 19.9093 423.181 19.99 422.977 20.1514C422.782 20.3128 422.684 20.5549 422.684 20.8777C422.684 21.1665 422.769 21.3789 422.939 21.5148C423.109 21.6507 423.376 21.7484 423.741 21.8079L424.684 21.9608C425.44 22.0797 425.988 22.3006 426.328 22.6234C426.676 22.9461 426.851 23.4134 426.851 24.025C426.851 24.6706 426.642 25.1803 426.226 25.554C425.818 25.9193 425.198 26.1019 424.366 26.1019H423.831Z" fill="#F6AD55"/>
</svg>
