<svg xmlns="http://www.w3.org/2000/svg" width="122" height="20" fill="none"><rect width="122" height="20" fill="url(#a)" rx="4"/><path fill="#fff" d="M13.95 7.08a.16.16 0 0 1 .14-.08h.92q.05 0 .08.04.041.03.04.08v6.76a.12.12 0 0 1-.04.09.1.1 0 0 1-.08.03h-.92a.15.15 0 0 1-.09-.03.15.15 0 0 1-.03-.09V9.11q0-.03-.03-.04-.018-.01-.03.02l-1.25 1.92a.16.16 0 0 1-.14.08h-.46a.16.16 0 0 1-.14-.08L10.66 9.1q-.01-.03-.04-.02-.019.01-.02.04v4.76a.12.12 0 0 1-.04.09.1.1 0 0 1-.08.03h-.92a.15.15 0 0 1-.09-.03.15.15 0 0 1-.03-.09V7.12q0-.05.03-.08A.12.12 0 0 1 9.56 7h.92q.091 0 .14.08l1.63 2.47q.021.02.04.02.021 0 .03-.02zM21.93 14q-.1 0-.13-.1l-.33-1.07q-.02-.04-.05-.04h-2.64q-.03 0-.05.04l-.33 1.07q-.03.1-.13.1h-1q-.06 0-.09-.03-.03-.04-.01-.11l2.17-6.76q.03-.1.13-.1h1.25q.1 0 .13.1l2.18 6.76q.01.02.01.05 0 .09-.11.09zm-2.89-2.18q-.01.06.04.06h2.03q.06 0 .04-.06l-1.03-3.35q-.01-.04-.03-.04-.021 0-.03.04zM25.193 14a.15.15 0 0 1-.09-.03.15.15 0 0 1-.03-.09V7.12q0-.05.03-.08a.12.12 0 0 1 .09-.04h2.44q.71 0 1.25.25t.83.72q.3.46.3 1.08v2.9q0 .62-.3 1.09-.29.46-.83.71t-1.25.25zm1.04-1.05q0 .05.05.05h1.4q.53 0 .84-.33.32-.34.33-.9V9.24q0-.57-.32-.9-.32-.34-.86-.34h-1.39q-.05 0-.05.05zm10.761-5.07a.12.12 0 0 1-.04.09.1.1 0 0 1-.08.03h-3.41q-.05 0-.05.05v1.87q0 .05.05.05h2.29q.05 0 .08.04.04.03.04.08v.76a.12.12 0 0 1-.04.09.1.1 0 0 1-.08.03h-2.29q-.05 0-.05.05v1.93q0 .05.05.05h3.41q.05 0 .08.04.04.03.04.08v.76a.12.12 0 0 1-.04.09.1.1 0 0 1-.08.03h-4.5a.15.15 0 0 1-.09-.03.15.15 0 0 1-.03-.09V7.12q0-.05.03-.08a.12.12 0 0 1 .09-.04h4.5q.05 0 .08.04.04.03.04.08zm6.67 6.12q-.11 0-.14-.1l-1.82-6.77-.01-.04q0-.09.11-.09h.98q.11 0 .14.1l1.14 4.56q.01.03.03.03.021 0 .03-.03l1.09-4.56q.03-.1.13-.1h.96q.11 0 .14.1l1.16 4.57q.01.03.03.03.021 0 .03-.03l1.12-4.57q.03-.1.14-.1h.93q.14 0 .11.13l-1.73 6.77q-.03.1-.14.1h-.93q-.11 0-.14-.1l-1.17-4.77q-.009-.03-.03-.03-.02-.01-.03.03l-1.12 4.77q-.03.1-.13.1zm8.41 0a.15.15 0 0 1-.09-.03.15.15 0 0 1-.03-.09V7.12q0-.05.03-.08a.12.12 0 0 1 .09-.04h.92q.05 0 .08.04.04.03.04.08v6.76a.12.12 0 0 1-.04.09.1.1 0 0 1-.08.03zm8.097-7q.05 0 .08.04.04.03.04.08v.77a.12.12 0 0 1-.04.09.1.1 0 0 1-.08.03h-1.84q-.05 0-.05.05v5.82a.12.12 0 0 1-.04.09.1.1 0 0 1-.08.03h-.92a.15.15 0 0 1-.09-.03.15.15 0 0 1-.03-.09V8.06q0-.05-.05-.05h-1.77a.15.15 0 0 1-.09-.03.15.15 0 0 1-.03-.09v-.77q0-.05.03-.08a.12.12 0 0 1 .09-.04zm6 .12q0-.05.03-.08a.12.12 0 0 1 .09-.04h.92q.05 0 .08.04.041.03.04.08v6.76a.12.12 0 0 1-.04.09.1.1 0 0 1-.08.03h-.92a.15.15 0 0 1-.09-.03.15.15 0 0 1-.03-.09v-2.86q0-.05-.05-.05h-2.55q-.05 0-.05.05v2.86a.12.12 0 0 1-.04.09.1.1 0 0 1-.08.03h-.92a.15.15 0 0 1-.09-.03.15.15 0 0 1-.03-.09V7.12q0-.05.03-.08a.12.12 0 0 1 .09-.04h.92q.05 0 .08.04.041.03.04.08v2.8q0 .05.05.05h2.55q.05 0 .05-.05z"/><path fill="#fff" fill-rule="evenodd" d="M76.088 11.608a.6.6 0 0 0 .005.633l2.214 3.493c.144.227.421.33.678.253l6.39-1.917a.6.6 0 0 0 .372-.824l-4.108-8.91a.599.599 0 0 0-1.054-.063zm5.442-5.235a.225.225 0 0 0-.427.045l-1.58 7.874a.224.224 0 0 0 .284.259l4.414-1.318a.225.225 0 0 0 .142-.304zM89.653 10.035h.397q.556 0 .832-.22t.276-.64q0-.423-.231-.626-.233-.202-.726-.202h-.548zm2.722-.902q0 .918-.574 1.403-.573.486-1.631.486h-.517v2.022h-1.206V7.36h1.816q1.035 0 1.573.445.54.445.539 1.329M95.57 8.615q.24 0 .4.035l-.089 1.112a1.4 1.4 0 0 0-.35-.039q-.567 0-.885.292-.315.292-.316.817v2.212h-1.186V8.697h.898l.175.73h.058q.202-.365.547-.588.343-.224.748-.224M96.6 13.045h1.187V8.697H96.6zm-.05-5.472q0-.58.645-.58t.646.58q0 .276-.161.43-.162.153-.485.153-.645 0-.645-.583M101.962 11.753q0 .669-.465 1.02-.465.349-1.39.35-.474 0-.809-.065a3 3 0 0 1-.626-.189v-.98q.33.155.745.261.414.105.729.105.645 0 .646-.373a.31.31 0 0 0-.086-.228 1.3 1.3 0 0 0-.296-.198 7 7 0 0 0-.56-.259q-.502-.21-.736-.389a1.1 1.1 0 0 1-.343-.41 1.35 1.35 0 0 1-.107-.57q0-.58.45-.896.448-.317 1.273-.317.786 0 1.528.342l-.357.856a7 7 0 0 0-.611-.23 2 2 0 0 0-.579-.089q-.525 0-.525.284 0 .159.169.276.17.117.741.346.509.206.746.385t.35.412.113.556M106.66 13.044h-1.186v-2.539q0-.47-.157-.706-.158-.235-.496-.235-.455 0-.661.334-.207.335-.206 1.101v2.045h-1.186V8.697h.906l.159.556h.066q.176-.3.506-.469t.758-.169q.977 0 1.322.638h.105q.175-.304.516-.47.339-.168.768-.168.738 0 1.118.38.378.378.379 1.215v2.834h-1.19v-2.539q0-.47-.158-.706-.157-.235-.496-.235-.435 0-.651.311-.216.312-.216.988zM112.822 11.03l-.459.016q-.518.015-.77.187-.253.17-.253.52 0 .502.576.502.411 0 .659-.237.246-.237.247-.63zm.35 2.015-.23-.592h-.031q-.3.378-.616.523-.317.147-.826.146-.627 0-.986-.357-.36-.359-.36-1.02 0-.69.484-1.02.485-.329 1.46-.364l.755-.023v-.19q0-.662-.677-.662-.521 0-1.225.315l-.393-.8a3.54 3.54 0 0 1 1.665-.394q.874 0 1.341.382.467.381.467 1.158v2.897z" clip-rule="evenodd"/><defs><linearGradient id="a" x1="61" x2="61" y1="0" y2="20" gradientUnits="userSpaceOnUse"><stop stop-color="#171937"/><stop offset="1" stop-color="#090A15"/></linearGradient></defs></svg>
