<svg xmlns="http://www.w3.org/2000/svg" width="146.21" height="19.303" viewBox="0 0 146.21 19.303"><g id="Gruppe_684" data-name="Gruppe 684" transform="translate(-3548 24404.063)"><g id="Gruppe_342" data-name="Gruppe 342" transform="translate(3548 -24399.828)"><path id="Schnittmenge_1" data-name="Schnittmenge 1" d="M0,4.37a14.055,14.055,0,0,1,19.846-.523L18.185,5.508A11.693,11.693,0,0,0,1.661,6.03Z" transform="translate(0 0)" fill="#4dc709"></path></g><path id="Pfad_328" data-name="Pfad 328" d="M8.02.22A7.514,7.514,0,0,1,5.125-.335a7.215,7.215,0,0,1-2.35-1.55A7.211,7.211,0,0,1,1.2-4.2,7.227,7.227,0,0,1,.64-7.07a7.055,7.055,0,0,1,.58-2.87,7.175,7.175,0,0,1,1.61-2.31,7.4,7.4,0,0,1,2.405-1.54,7.882,7.882,0,0,1,2.955-.55,8.12,8.12,0,0,1,3.315.66,6.611,6.611,0,0,1,2.465,1.83L11.84-9.72a4.519,4.519,0,0,0-1.6-1.315,4.717,4.717,0,0,0-2.08-.445,4.45,4.45,0,0,0-2.225.55A3.951,3.951,0,0,0,4.4-9.39,4.646,4.646,0,0,0,3.85-7.08a4.808,4.808,0,0,0,.54,2.32A3.972,3.972,0,0,0,5.87-3.2a4.139,4.139,0,0,0,2.16.56,4.455,4.455,0,0,0,2.115-.465,3.143,3.143,0,0,0,1.34-1.36A4.647,4.647,0,0,0,11.95-6.63l2.09,1.39-6.3-.1V-7.99h7.41v.46a9.068,9.068,0,0,1-.91,4.26A6.159,6.159,0,0,1,11.725-.66,7.582,7.582,0,0,1,8.02.22ZM22.04,0,16.6-14.12h3.37L24.11-2.7H22.73l4.19-11.42h3.32L24.74,0ZM39.1.24a7.635,7.635,0,0,1-2.945-.56,7.37,7.37,0,0,1-2.37-1.555,7.105,7.105,0,0,1-1.58-2.33A7.3,7.3,0,0,1,31.64-7.08a7.273,7.273,0,0,1,.56-2.87,7.159,7.159,0,0,1,1.565-2.315A7.136,7.136,0,0,1,36.12-13.81a7.719,7.719,0,0,1,2.94-.55,7.719,7.719,0,0,1,2.94.55,7.192,7.192,0,0,1,2.36,1.545A7.092,7.092,0,0,1,45.93-9.94a7.346,7.346,0,0,1,.56,2.88,7.32,7.32,0,0,1-.56,2.87,7.13,7.13,0,0,1-1.565,2.325,7.215,7.215,0,0,1-2.35,1.55A7.567,7.567,0,0,1,39.1.24Zm-.04-2.86a4.264,4.264,0,0,0,2.215-.56,3.85,3.85,0,0,0,1.47-1.565A4.973,4.973,0,0,0,43.27-7.08a5.15,5.15,0,0,0-.3-1.8,4.05,4.05,0,0,0-.86-1.4,3.788,3.788,0,0,0-1.33-.9,4.5,4.5,0,0,0-1.72-.315,4.3,4.3,0,0,0-2.205.55,3.8,3.8,0,0,0-1.47,1.545A4.912,4.912,0,0,0,34.86-7.08a5.307,5.307,0,0,0,.3,1.825,4.011,4.011,0,0,0,.855,1.41,3.817,3.817,0,0,0,1.33.9A4.452,4.452,0,0,0,39.06-2.62ZM49.52,0V-14.12h3.15V0Zm2.42,0V-2.75h6.99V0ZM66.993.22a6.169,6.169,0,0,1-3.066-.745,5.414,5.414,0,0,1-2.083-2.051A5.843,5.843,0,0,1,61.09-5.55v-8.57h3.15v8.74A2.827,2.827,0,0,0,64.6-3.914a2.463,2.463,0,0,0,.99.945,2.955,2.955,0,0,0,1.4.329,2.871,2.871,0,0,0,1.393-.329,2.413,2.413,0,0,0,.955-.939,2.869,2.869,0,0,0,.35-1.452v-8.76h3.16v8.59a5.848,5.848,0,0,1-.744,2.965,5.392,5.392,0,0,1-2.06,2.04A6.093,6.093,0,0,1,66.993.22ZM79.75,0V-13.92H82.9V0ZM75.34-11.37v-2.75H87.32v2.75ZM90.11,0V-14.12h3.15V0Zm13.63.24a7.635,7.635,0,0,1-2.945-.56,7.37,7.37,0,0,1-2.37-1.555,7.105,7.105,0,0,1-1.58-2.33A7.3,7.3,0,0,1,96.28-7.08a7.272,7.272,0,0,1,.56-2.87A7.159,7.159,0,0,1,98.4-12.265a7.136,7.136,0,0,1,2.355-1.545,7.719,7.719,0,0,1,2.94-.55,7.719,7.719,0,0,1,2.94.55A7.192,7.192,0,0,1,109-12.265a7.092,7.092,0,0,1,1.57,2.325,7.345,7.345,0,0,1,.56,2.88,7.32,7.32,0,0,1-.56,2.87,7.13,7.13,0,0,1-1.565,2.325,7.215,7.215,0,0,1-2.35,1.55A7.567,7.567,0,0,1,103.74.24Zm-.04-2.86a4.264,4.264,0,0,0,2.215-.56,3.85,3.85,0,0,0,1.47-1.565,4.973,4.973,0,0,0,.525-2.335,5.149,5.149,0,0,0-.3-1.8,4.05,4.05,0,0,0-.86-1.4,3.788,3.788,0,0,0-1.33-.9,4.5,4.5,0,0,0-1.72-.315,4.3,4.3,0,0,0-2.205.55,3.8,3.8,0,0,0-1.47,1.545A4.912,4.912,0,0,0,99.5-7.08a5.307,5.307,0,0,0,.3,1.825,4.011,4.011,0,0,0,.855,1.41,3.817,3.817,0,0,0,1.33.9A4.452,4.452,0,0,0,103.7-2.62ZM114.16,0V-14.12h2.2l.95,2.82V0Zm9.75,0-8.32-10.66.77-3.46,8.32,10.66Zm0,0-.85-2.81V-14.12h3.15V0Z" transform="translate(3568 -24385)" fill="#fff"></path><path id="Pfad_329" data-name="Pfad 329" d="M.405,0,7.951-19.062h3.834L19.264,0H14.783L9.072-15.822h1.539L4.806,0ZM4.7-3.442V-6.9H15.08v3.456Z" transform="translate(3548 -24385)" fill="#fff"></path><g id="Gruppe_343" data-name="Gruppe 343" transform="translate(3550.639 -24395.811)"><path id="Schnittmenge_2" data-name="Schnittmenge 2" d="M0,3.154A10.494,10.494,0,0,1,14.6,2.77L12.943,4.431a8.136,8.136,0,0,0-11.284.383Z" transform="translate(0 0)" fill="#4dc709"></path></g></g></svg>