<svg xmlns="http://www.w3.org/2000/svg" width="820" height="227" fill="none"><path fill="#3d5868" d="M526.7.161h-30.157v171.272H526.7zm56.913 44.783h-30.157v126.489h30.157zm0-44.2h-30.157V28.55h30.157zM79.977 3.589H52.994L0 171.433h30.157zm15.711.873-.291-.873h-7.839L75.994 42.034l20.86 65.314H56.398l-8.52 28.259h58.015l11.467 35.826h31.064zm235.979 50.149c-7.547-8.471-18.464-12.771-32.392-12.771a47.8 47.8 0 0 0-23.128 5.658 43.25 43.25 0 0 0-14.674 12.934 38 38 0 0 0-12.342-12.514 44.3 44.3 0 0 0-23.937-6.11 48.66 48.66 0 0 0-23.453 5.722c-.907.485-1.749 1.035-2.623 1.585V76.76q.378-.523.809-1.002a20.15 20.15 0 0 1 7.314-5.268 20.2 20.2 0 0 1 8.883-1.555c3.038-.14 6.069.401 8.872 1.581a20.4 20.4 0 0 1 7.324 5.242 28.52 28.52 0 0 1 6.025 19.4V171.4h30.06V93.8a29.05 29.05 0 0 1 2.948-13.516 20.73 20.73 0 0 1 7.936-8.471 22.7 22.7 0 0 1 11.369-2.878 20.4 20.4 0 0 1 8.866 1.546 20.3 20.3 0 0 1 7.33 5.212 28.1 28.1 0 0 1 6.026 19.142V171.4h30.157V87.85a48.45 48.45 0 0 0-11.37-33.24M191.7 44.944h-28.408v126.489H191.7zm196.459 0h-26.918v181.618h26.918zm84.965 29.1a59.1 59.1 0 0 0-20.505-23.798 55.8 55.8 0 0 0-31.226-8.762 53.6 53.6 0 0 0-25.913 6.014v31.655a25.7 25.7 0 0 1 5.247-5.497 26.47 26.47 0 0 1 16.52-4.85 28.77 28.77 0 0 1 17.686 5.206 30.75 30.75 0 0 1 10.269 14.162 56.5 56.5 0 0 1 3.239 20.079 58.7 58.7 0 0 1-3.239 20.209 30.83 30.83 0 0 1-10.01 14.097 27.5 27.5 0 0 1-17.103 5.141 28.25 28.25 0 0 1-17.265-4.882 25.1 25.1 0 0 1-5.442-5.465v31.396a55.6 55.6 0 0 0 26.951 6.241 53.6 53.6 0 0 0 30.578-8.827 58.5 58.5 0 0 0 20.213-23.895 83.94 83.94 0 0 0 0-68.095zm209.224-29.1h-22.74v24.12h22.74z"/><path fill="#3d5868" d="M665.567.162c-3.013 0-6.479 0-10.528.258a43 43 0 0 0-12.503 2.62 30.6 30.6 0 0 0-11.92 8.406 26.3 26.3 0 0 0-6.123 10.702 53 53 0 0 0-2.008 11.576c-.227 3.783-.356 7.307-.356 10.476v.744H602.11v24.12h20.019v102.369h30.157V38.219a12.92 12.92 0 0 1 3.531-9.7 14.65 14.65 0 0 1 10.916-3.59h15.581V0zm124.082 44.782-32.943 86.622-.032-.097-18.755 49.276-16.715 45.817h28.57l69.579-179.97.648-1.648zm-36.929 76.437L723.146 45.72l-.291-.776h-31.518l46.807 114.784z"/></svg>