<svg xmlns="http://www.w3.org/2000/svg" width="225" height="55" fill="none"><g clip-path="url(#a)"><path fill="#DA2C2C" d="M66.546 23.953v1.893a6.1 6.1 0 0 0-4.795-2.29c-4.52 0-7.972 3.602-7.972 8 0 4.213 3.573 8.151 7.972 8.151 2.168 0 3.818-1.038 4.795-2.259v1.862h5.559V23.954zm.244 8.182c-.336 1.832-1.74 2.993-3.573 2.993-2.321 0-3.695-1.588-3.695-3.573 0-2.167 1.252-3.42 3.695-3.42 1.832 0 3.237 1.192 3.573 3.023zm18.591-8.277a6.2 6.2 0 0 0-4.825 2.26v-1.863h-5.407v15.358h5.559V31.43c.305-1.832 1.375-2.992 2.993-2.992 1.803 0 2.291.733 2.291 2.84v8.335h5.559v-8.336c0-4.732-1.833-7.42-6.17-7.42m15.88 4.403h4.43v-4.427h-4.43v-6.015h-5.558v6.015h-2.688v4.427h2.688v10.931h5.558zm12.131.09c0-.459.337-.672 1.802-.672 1.405 0 2.75.335 4.063 1.099l1.802-3.634c-1.772-1.068-3.604-1.587-6.232-1.587-3.786 0-7.085 1.16-7.085 4.824 0 2.626 2.047 3.786 4.337 4.61 2.565.916 3.36 1.252 3.36 1.924 0 .427-.428.641-1.954.641-1.253 0-3.33-.61-4.765-1.435l-1.68 3.878c1.954 1.099 4.031 1.71 6.994 1.71 3.97 0 7.055-1.038 7.055-4.916 0-2.779-1.955-3.878-4.764-4.824-2.444-.825-2.933-1.039-2.933-1.619m17.255-.148h4.429v-4.427h-4.429v-6.015h-5.559v6.015H122.4V28.2h2.688v10.931h5.559zm18.43-4.248v1.893a6.1 6.1 0 0 0-4.795-2.29c-4.52 0-7.972 3.602-7.972 8 0 4.213 3.573 8.151 7.972 8.151 2.168 0 3.817-1.038 4.795-2.259v1.862h5.558V23.954zm.244 8.182c-.336 1.832-1.74 2.993-3.573 2.993-2.322 0-3.696-1.588-3.696-3.573 0-2.167 1.252-3.42 3.696-3.42 1.833 0 3.237 1.192 3.573 3.023zm17.002 2.993c-2.016 0-3.512-1.344-3.512-3.542.03-2.29 1.161-3.45 3.298-3.45 1.314 0 2.841.274 4.216.854v-4.64c-1.405-.52-2.536-.794-4.216-.794-4.764 0-9.04 3.175-9.04 8.03 0 4.763 4.246 8.121 9.04 8.121 1.498 0 2.964-.213 4.216-.64v-4.672c-1.649.61-2.841.733-4.002.733m23.641 4.004-8.766-8.854 8.308-6.504h-6.994l-4.093 3.206V13.454h-5.498v25.678h5.498v-4.794l4.642 4.794zm5.086-25.762q1.422 0 2.549.655a4.5 4.5 0 0 1 1.764 1.771q.637 1.116.637 2.523 0 1.406-.637 2.546a4.7 4.7 0 0 1-1.764 1.795q-1.127.63-2.549.63-1.445 0-2.572-.63a4.67 4.67 0 0 1-1.764-1.795q-.637-1.14-.637-2.546 0-1.408.637-2.523a4.5 4.5 0 0 1 1.764-1.77q1.127-.655 2.572-.655m0 8.95q1.765 0 2.843-1.115 1.103-1.116 1.103-2.886t-1.103-2.887q-1.078-1.116-2.843-1.116-1.788 0-2.866 1.116-1.054 1.116-1.054 2.887t1.054 2.886q1.078 1.116 2.866 1.116m2.206-5.02q0 .582-.319.994-.293.389-.833.558l1.373 2.013-1.544.025-1.176-1.94h-.417v1.94h-1.274v-5.215h2.352q.834 0 1.323.436.515.437.515 1.189m-2.916.606h1.005a.66.66 0 0 0 .441-.145.49.49 0 0 0 .196-.413q0-.267-.196-.388a.66.66 0 0 0-.441-.145h-1.005z"/><path fill="#082D59" fill-rule="evenodd" d="M22.223 55.835c-1.418.023-3.453-1.128-3.453-1.128-4.263-2.134-12.595-10.43-13.62-20.944-.994-10.2 4.296-20.151 16.942-20.195h.082c12.647.043 17.936 9.995 16.942 20.195-1.025 10.515-9.356 18.81-13.62 20.944 0 0-1.92 1.106-3.273 1.128" clip-rule="evenodd"/><path fill="#082D59" fill-rule="evenodd" d="M33.667 7.477a156 156 0 0 1 5.668-3.26c.943-.51 1.808-.955 2.5-1.273q.524-.241.886-.37c.254-.091.399-.121.457-.123.605-.02.925-.407 1.055-.748a1.42 1.42 0 0 0-.05-1.13 1.03 1.03 0 0 0-.447-.446 1.3 1.3 0 0 0-.807-.105c-.29.048-.59.178-.9.38a6 6 0 0 0-1.021.882c-2.268 2.386-5.795 4.2-7.266 4.805l-.055.022-.04.036a3 3 0 0 1-.325.247 1.6 1.6 0 0 0-.593-.061c-.3.019-.617.098-.896.207-.278.108-.544.257-.726.432-.179.172-.31.409-.183.658l.002.007.005.02.007.07q.003.09-.018.237a6 6 0 0 1-.177.746 27 27 0 0 1-.778 2.182 90 90 0 0 1-2.06 4.726l-.212.451 2.3-.516-.322-.28c-.086-.074-.12-.226-.055-.457.062-.217.194-.436.295-.568l.03-.04.009-.043c.205-1.025 1.105-3.627 3.04-5.762.33-.363.55-.67.677-.926m-23.008.026a156 156 0 0 0-5.668-3.26 45 45 0 0 0-2.5-1.274c-.348-.16-.646-.285-.886-.37-.254-.09-.4-.12-.457-.122a1.13 1.13 0 0 1-1.055-.748 1.42 1.42 0 0 1 .05-1.13C.234.43.376.263.59.152a1.3 1.3 0 0 1 .807-.105q.435.075.9.38c.312.204.652.493 1.021.882 2.268 2.386 5.795 4.201 7.266 4.805l.055.023.04.035c.078.07.19.158.325.247a1.6 1.6 0 0 1 .593-.06c.3.018.617.097.896.206.278.109.545.258.726.432.179.173.309.41.183.659l-.001.002-.001.004-.005.02-.007.07q-.003.091.018.237c.028.195.089.447.176.746.175.597.453 1.36.779 2.183a90 90 0 0 0 2.06 4.726l.212.45-2.3-.516.322-.28c.086-.074.12-.225.055-.457a1.9 1.9 0 0 0-.295-.568l-.03-.038-.009-.044c-.205-1.025-1.105-3.627-3.04-5.762-.33-.363-.55-.67-.677-.926m3.188 40.321c.84.759 1.71 1.545 2.516 2.315.371.356.836.813 1.183 1.23l.045.047c.051.05.106.105.085.165-.005.016-.023.022-.04.027l-.021.008c-.067.03-.115.05-.154.066-.11.045-.153.063-.381.243-.963.76-1.619 1.793-2.143 2.892q-.044.093-.08.189a3 3 0 0 1-.118.258l-.002.005c-.022.04-.052.096-.096.091-.086-.01-.147-.245-.187-.395a1 1 0 0 0-.031-.108c-.078-.199-.091-.071-.105.059l-.005.05c-.103.881-.142 1.778.02 2.656.085.455.273.925.496 1.333.036.066.028.079-.072.028-.704-.356-1.2-1.17-1.553-1.843-.53-1.013-.726-2.076-.795-3.21-.088-1.452-.097-2.962.109-4.404.1-.7.353-1.294.643-1.922q.02-.046.04-.099a1 1 0 0 1 .087-.186zm16.69 0c-.84.758-1.712 1.545-2.516 2.315-.372.356-.836.813-1.183 1.23q-.02.022-.046.047c-.05.05-.105.105-.085.165.005.016.023.022.041.027l.02.008.154.066c.11.045.153.063.381.243.963.76 1.619 1.793 2.143 2.892q.044.093.081.189c.036.088.072.176.117.258l.002.005c.022.04.053.096.096.091.086-.01.148-.245.187-.395.013-.048.023-.087.031-.108.078-.199.091-.07.105.059l.005.05c.104.881.142 1.778-.02 2.656a4.6 4.6 0 0 1-.495 1.333c-.036.066-.028.079.072.028.703-.356 1.2-1.17 1.553-1.843.529-1.013.725-2.076.794-3.21.088-1.452.097-2.962-.108-4.403-.1-.7-.354-1.294-.644-1.923l-.04-.099c-.026-.066-.052-.134-.087-.186z" clip-rule="evenodd"/><path fill="#DA2C2C" d="M18.5 31.42c0 5.835-3.763 10.566-8.406 10.566-4.642 0-8.406-4.73-8.406-10.567s3.764-10.567 8.406-10.567 8.407 4.731 8.407 10.567"/><path fill="#082D59" fill-rule="evenodd" d="M10.094 40.645c3.634 0 7.066-3.83 7.066-9.226s-3.432-9.226-7.066-9.226-7.066 3.83-7.066 9.226 3.433 9.226 7.066 9.226m0 1.341c4.643 0 8.407-4.73 8.407-10.567s-3.764-10.567-8.407-10.567c-4.642 0-8.406 4.731-8.406 10.567s3.764 10.567 8.406 10.567" clip-rule="evenodd"/><path fill="#DA2C2C" d="M42.807 31.405c0 5.836-3.764 10.567-8.406 10.567s-8.407-4.73-8.407-10.567 3.764-10.567 8.407-10.567c4.642 0 8.406 4.731 8.406 10.567"/><path fill="#082D59" fill-rule="evenodd" d="M34.4 40.645c3.634 0 7.066-3.83 7.066-9.226s-3.432-9.226-7.065-9.226-7.067 3.83-7.067 9.226 3.433 9.226 7.067 9.226m0 1.341c4.643 0 8.407-4.73 8.407-10.567S39.043 20.852 34.4 20.852s-8.407 4.731-8.407 10.567 3.764 10.567 8.407 10.567" clip-rule="evenodd"/></g><defs><clipPath id="a"><path fill="#fff" d="M0 0h225v55H0z"/></clipPath></defs></svg>
