<svg width="241" height="64" viewBox="0 0 241 64" fill="none" xmlns="http://www.w3.org/2000/svg">
<path fill-rule="evenodd" clip-rule="evenodd" d="M37.295 8.25172C39.1327 7.17877 41.4782 5.84768 43.5153 4.77561C44.5494 4.2314 45.4986 3.75671 46.2592 3.41681C46.6401 3.24665 46.9673 3.11311 47.2305 3.0219C47.5094 2.92523 47.6686 2.89353 47.7318 2.89155C48.3957 2.87072 48.747 2.45698 48.8897 2.09406C49.0392 1.71363 49.0282 1.25028 48.834 0.889127C48.7362 0.70717 48.5805 0.53066 48.3439 0.412696C48.0956 0.288861 47.7908 0.246241 47.4589 0.300477C47.1407 0.352489 46.8117 0.490492 46.4715 0.706221C46.1288 0.923512 45.7558 1.23169 45.3504 1.64647C42.8622 4.19132 38.9915 6.12667 37.3771 6.77096L37.3168 6.79498L37.273 6.83294C37.187 6.90739 37.0637 7.0015 36.9161 7.09661C36.7076 7.02978 36.4727 7.01831 36.265 7.03126C35.9369 7.05163 35.5883 7.13606 35.2823 7.25212C34.977 7.36789 34.6845 7.52647 34.4859 7.71272C34.2894 7.89691 34.1465 8.1493 34.2845 8.41495L34.2849 8.41584C34.2853 8.41683 34.2861 8.4188 34.2871 8.42187C34.2888 8.42671 34.2907 8.43353 34.2925 8.44273C34.2962 8.46131 34.2991 8.48623 34.3001 8.51826C34.302 8.58292 34.2958 8.66695 34.2802 8.77085C34.2489 8.97866 34.1828 9.24767 34.0866 9.5664C33.8947 10.2029 33.5899 11.0166 33.2325 11.8938C32.7067 13.1843 32.0704 14.603 31.5208 15.7794C29.509 15.1216 27.2321 14.7565 24.6828 14.748L24.6384 14.7481H24.6131L24.5916 14.7482C22.0619 14.7566 19.8005 15.1161 17.8001 15.7644C17.2551 14.5965 16.6277 13.1962 16.1081 11.9211C15.7507 11.0439 15.4459 10.2302 15.254 9.59369C15.1578 9.27496 15.0917 9.00595 15.0604 8.79814C15.0448 8.69424 15.0386 8.6102 15.0405 8.54555C15.0415 8.51351 15.0444 8.4886 15.0481 8.47001C15.0499 8.46082 15.0518 8.454 15.0534 8.44915C15.0539 8.44773 15.0543 8.44658 15.0547 8.4456L15.0549 8.4451C15.0551 8.44449 15.0553 8.44402 15.0555 8.44363L15.0557 8.44312L15.0561 8.44223C15.1941 8.17659 15.0512 7.92419 14.8547 7.74001C14.6561 7.55375 14.3635 7.39518 14.0583 7.27941C13.7523 7.16334 13.4037 7.07891 13.0755 7.05855C12.8679 7.0456 12.633 7.05706 12.4245 7.1239C12.2769 7.02879 12.1536 6.93467 12.0676 6.86013L12.0238 6.82227L11.9635 6.79814C10.3491 6.15395 6.4784 4.2186 3.99022 1.67374C3.58474 1.25896 3.21176 0.950797 2.8691 0.733497C2.5289 0.517768 2.19992 0.379765 1.88169 0.327754C1.54982 0.273517 1.24494 0.316137 0.996646 0.439973C0.760118 0.557936 0.604422 0.734446 0.506564 0.916403C0.312353 1.27756 0.301405 1.74092 0.450921 2.12133C0.593566 2.48426 0.944897 2.89799 1.60882 2.91883C1.67203 2.92081 1.83123 2.95251 2.11013 3.04917C2.37331 3.14038 2.70054 3.27393 3.08133 3.44409C3.84202 3.78399 4.79122 4.25865 5.8253 4.80289C7.86236 5.87496 10.2079 7.20605 12.0456 8.27901C12.1852 8.55276 12.4269 8.87941 12.7882 9.26675C14.9118 11.5438 15.8999 14.319 16.1252 15.4119L16.135 15.4588L16.1676 15.5003C16.2786 15.6409 16.423 15.8746 16.4909 16.106C16.5041 16.1511 16.5137 16.1933 16.5199 16.2327C12.9894 17.678 10.3684 20.0871 8.61013 23.0505C4.89239 24.5047 2.20091 28.7613 2.20091 33.7859C2.20091 38.6375 4.71034 42.773 8.23003 44.3611C9.77002 47.7567 11.8978 50.7329 14.0823 53.1105C13.8582 54.6449 13.8688 56.251 13.9652 57.7948C14.0407 59.0047 14.2558 60.1384 14.837 61.2187C15.224 61.938 15.7688 62.805 16.5411 63.185C16.6511 63.2391 16.6598 63.2255 16.6204 63.1552C16.3757 62.7201 16.1693 62.2184 16.0768 61.733C15.8985 60.7969 15.9407 59.8404 16.0542 58.8996C16.0561 58.8836 16.0579 58.867 16.0597 58.8504L16.0601 58.847C16.0749 58.7085 16.0896 58.5722 16.1749 58.7844C16.1839 58.8066 16.1953 58.8486 16.209 58.8996C16.2524 59.0601 16.3202 59.3105 16.4146 59.321C16.4621 59.3263 16.4953 59.267 16.5192 59.2243L16.5193 59.224L16.5207 59.2216L16.5222 59.2189C16.5719 59.1303 16.6111 59.0366 16.6503 58.9429C16.6786 58.8752 16.707 58.8075 16.7392 58.7417C17.0891 58.028 17.4926 57.3409 17.9929 56.7297C19.0765 57.5654 20.0867 58.2052 20.9463 58.6232C20.9463 58.6232 23.1794 59.8513 24.7361 59.8268C26.2196 59.8036 28.3281 58.6232 28.3281 58.6232C29.208 58.1954 30.2458 57.535 31.3584 56.6702C31.8816 57.2961 32.3 58.0048 32.6614 58.7418C32.6936 58.8075 32.7219 58.8752 32.7503 58.9429L32.7512 58.9451C32.7902 59.0381 32.8291 59.131 32.8784 59.2189L32.8812 59.224L32.8814 59.2243C32.9052 59.267 32.9385 59.3263 32.9859 59.321C33.0805 59.3105 33.1482 59.0601 33.1916 58.8996C33.2053 58.8487 33.2167 58.8067 33.2256 58.7845C33.311 58.5722 33.3256 58.7086 33.3405 58.847C33.3424 58.8648 33.3443 58.8825 33.3464 58.8996C33.4598 59.8404 33.5021 60.7969 33.3237 61.733C33.2312 62.2185 33.0249 62.7201 32.7803 63.1553C32.7407 63.2256 32.7495 63.2391 32.8595 63.185C33.6317 62.805 34.1765 61.938 34.5636 61.2187C35.1448 60.1385 35.3599 59.0047 35.4355 57.7948C35.532 56.2473 35.5424 54.6369 35.3165 53.0991C35.3113 53.0634 35.3057 53.028 35.2997 52.9928C37.4176 50.6666 39.4738 47.7796 40.9831 44.4953C44.6661 43.0164 47.3253 38.7809 47.3253 33.7866C47.3253 28.6181 44.4774 24.2622 40.5941 22.9332C38.8467 20.0401 36.2681 17.6858 32.8143 16.2571C32.819 16.2036 32.8305 16.1441 32.8497 16.0787C32.9176 15.8474 33.062 15.6137 33.173 15.473L33.2056 15.4315L33.2154 15.3846C33.4407 14.2918 34.4287 11.5165 36.5524 9.23946C36.9137 8.85212 37.1554 8.52558 37.295 8.25172Z" fill="#042582"/>
<path fill-rule="evenodd" clip-rule="evenodd" d="M11.2913 43.7024C15.2788 43.7024 19.0457 39.6186 19.0457 33.863C19.0457 28.1074 15.2788 24.0234 11.2913 24.0234C7.30393 24.0234 3.53711 28.1074 3.53711 33.863C3.53711 39.6186 7.30393 43.7024 11.2913 43.7024ZM37.9657 43.7031C41.9531 43.7031 45.7199 39.6193 45.7199 33.8637C45.7199 28.108 41.9531 24.0242 37.9657 24.0242C33.9782 24.0242 30.2113 28.108 30.2113 33.8637C30.2113 39.6193 33.9782 43.7031 37.9657 43.7031Z" fill="white"/>
<path d="M234.382 19.4414C235.524 19.4414 236.548 19.6972 237.454 20.2088C238.36 20.7014 239.069 21.3929 239.581 22.2834C240.093 23.155 240.349 24.1402 240.349 25.2391C240.349 26.338 240.093 27.3327 239.581 28.2232C239.069 29.1137 238.36 29.8148 237.454 30.3263C236.548 30.8189 235.524 31.0652 234.382 31.0652C233.22 31.0652 232.186 30.8189 231.28 30.3263C230.374 29.8148 229.665 29.1137 229.153 28.2232C228.641 27.3327 228.385 26.338 228.385 25.2391C228.385 24.1402 228.641 23.155 229.153 22.2834C229.665 21.3929 230.374 20.7014 231.28 20.2088C232.186 19.6972 233.22 19.4414 234.382 19.4414ZM234.382 29.9284C235.8 29.9284 236.942 29.4927 237.808 28.6211C238.695 27.7496 239.138 26.6222 239.138 25.2391C239.138 23.856 238.695 22.7287 237.808 21.8571C236.942 20.9856 235.8 20.5498 234.382 20.5498C232.944 20.5498 231.792 20.9856 230.925 21.8571C230.078 22.7287 229.655 23.856 229.655 25.2391C229.655 26.6222 230.078 27.7496 230.925 28.6211C231.792 29.4927 232.944 29.9284 234.382 29.9284ZM237.04 24.0455C237.04 24.5002 236.912 24.8886 236.656 25.2107C236.42 25.5139 236.085 25.7317 235.652 25.8644L237.307 28.2232L235.445 28.2517L234.027 25.978H233.525V28.2517H231.989V22.1413H234.825C235.495 22.1413 236.026 22.3119 236.42 22.6529C236.834 22.9939 237.04 23.4581 237.04 24.0455ZM233.525 24.756H234.736C234.953 24.756 235.13 24.6991 235.268 24.5854C235.425 24.4718 235.504 24.3107 235.504 24.1023C235.504 23.8939 235.425 23.7423 235.268 23.6476C235.13 23.5339 234.953 23.477 234.736 23.477H233.525V24.756Z" fill="#042582"/>
<path d="M77.3442 22.0921L86.5192 46.6867H78.9141L77.5884 42.605H69.5996L68.2739 46.6867H60.7734L69.9135 22.0921H77.3442ZM76.193 37.3721L73.6114 29.1391L71.0299 37.3721H76.193Z" fill="#042582"/>
<path d="M100.193 28.6856C105.147 28.6856 107.24 31.7555 107.24 37.1628V46.6867H100.891V37.1628C100.891 34.7557 100.332 33.9184 98.2741 33.9184C96.4252 33.9184 95.2042 35.2441 94.8553 37.3373V46.6867H88.5061V29.1391H94.6809V31.2671C95.8321 29.8717 97.7159 28.6856 100.193 28.6856Z" fill="#042582"/>
<path d="M118.78 34.1975V46.6867H112.431V34.1975H109.361V29.1391H112.431V22.2666H118.78V29.1391H123.839V34.1975H118.78Z" fill="#042582"/>
<path d="M133.443 29.174C133.443 30.1857 134.525 30.6043 138.676 31.7904C144.781 33.4998 146.561 35.8721 146.561 39.57C146.561 45.1866 141.816 47.1402 135.571 47.1402C131.455 47.1402 127.897 46.1634 125.071 44.3842L127.443 39.0118C129.78 40.3374 132.257 41.2096 135.223 41.2096C138.293 41.2096 139.339 40.8607 139.339 39.849C139.339 38.6978 138.467 38.1396 133.443 36.7093C128.141 35.2092 126.222 32.8021 126.222 29.1391C126.222 24.4644 129.746 21.813 136.444 21.813C139.897 21.813 142.828 22.5108 145.863 24.3946L143.211 29.3484C141.083 28.1972 139.2 27.6041 136.758 27.6041C134.246 27.6041 133.443 28.0576 133.443 29.174Z" fill="#042582"/>
<path d="M157.448 34.1975V46.6867H151.099V34.1975H148.029V29.1391H151.099V22.2666H157.448V29.1391H162.506V34.1975H157.448Z" fill="#042582"/>
<path d="M178.499 29.1391H184.848V46.6867H178.499V44.5586C177.383 45.9541 175.499 47.1402 173.022 47.1402C167.998 47.1402 163.917 42.6399 163.917 37.8257C163.917 32.8021 167.859 28.6856 173.022 28.6856C175.499 28.6856 177.383 29.9066 178.499 31.302V29.1391ZM178.778 38.4885V37.3721C178.394 35.279 176.79 33.9184 174.697 33.9184C171.906 33.9184 170.475 35.3488 170.475 37.8257C170.475 40.0932 172.045 41.9073 174.697 41.9073C176.79 41.9073 178.394 40.5816 178.778 38.4885Z" fill="#042582"/>
<path d="M198.199 41.9073C199.524 41.9073 200.885 41.7678 202.769 41.07V46.4076C201.338 46.896 199.664 47.1402 197.954 47.1402C192.477 47.1402 187.628 43.3027 187.628 37.8605C187.628 32.3137 192.512 28.6856 197.954 28.6856C199.873 28.6856 201.164 28.9995 202.769 29.5926V34.8952C201.199 34.2324 199.455 33.9184 197.954 33.9184C195.512 33.9184 194.222 35.2441 194.187 37.8605C194.187 40.3723 195.896 41.9073 198.199 41.9073Z" fill="#042582"/>
<path d="M225.201 46.6867H217.317L212.014 41.2096V46.6867H205.735V17.3477H212.014V32.8021L216.689 29.1391H224.678L215.189 36.5698L225.201 46.6867Z" fill="#042582"/>
</svg>
