<svg width="48" height="48" viewBox="0 0 48 48" fill="none" xmlns="http://www.w3.org/2000/svg">
<path d="M32.7984 29.5976L31.8701 26.9592L30.6474 23.4851L29.7631 20.971L28.6052 17.6806L27.2602 13.8589H20.7365L19.6952 16.8182L18.7668 19.4566L14.1558 32.5598H18.4583L19.8081 28.7351H26.333L25.1752 25.4447H20.9611L21.8456 22.9305L23.693 17.6806L23.9984 16.8117L24.3037 17.6806L29.5371 32.5569L29.5383 32.5598H33.8409L32.7984 29.5976Z" fill="white"/>
<path d="M41.0124 14.4266C42.66 17.3479 43.5232 20.6461 43.5179 24C43.5179 34.7794 34.7793 43.518 23.9999 43.518C13.2206 43.518 4.48193 34.7794 4.48193 24C4.48193 13.2206 13.2206 4.48205 23.9999 4.48205C27.5015 4.47647 30.9395 5.41752 33.9502 7.20557" stroke="white" stroke-width="1.65969" stroke-miterlimit="10" stroke-linecap="round"/>
<circle cx="33.798" cy="7.42042" r="2.26087" fill="white"/>
</svg>
