<svg xmlns="http://www.w3.org/2000/svg" width="225" height="55" fill="none"><path fill="#1A4875" fill-rule="evenodd" d="m23.682 22.266-7.017 11.855H30.7zM13.603 39.298 9.044 47h29.263l-4.555-7.702zM17.7 7 0 36.9l4.447 7.511L26.589 7zm13.492 2.58-4.445 7.51 16.176 27.352 4.453-7.522zm38.298 3.885h2.954l11.248 25.806H80.03l-2.69-6.341H64.11l-2.728 6.342h-3.55zm1.421 3.937h-.075l-5.493 12.684h10.8zM92.359 39.27h-3.215l-7.138-17.057h3.401l5.457 13.377h.074l5.195-13.377h3.14zm24.139-3.804q-1.384 2.093-3.174 3.033t-4.246 1.154q-2.047.179-3.75-.385t-2.948-1.661a8.4 8.4 0 0 1-2.009-2.674 9.8 9.8 0 0 1-.934-3.424q-.18-1.956.34-3.663.517-1.707 1.601-2.988a8.4 8.4 0 0 1 2.661-2.076q1.578-.795 3.513-.962 1.824-.159 3.405.306a7.35 7.35 0 0 1 2.785 1.51q1.202 1.047 1.949 2.643.748 1.597.94 3.698l.084.905-14.071 1.224q.174 1.08.731 2.037a6.1 6.1 0 0 0 1.37 1.633q.811.678 1.857 1.025a5.5 5.5 0 0 0 2.236.244q1.899-.165 3.142-.93t2.168-2.125zm-3.13-6.703q-.274-2.168-1.771-3.351-1.497-1.184-3.917-.974t-3.788 1.644q-1.37 1.434-1.468 3.633zm60.77 6.703q-1.385 2.093-3.174 3.033-1.79.94-4.246 1.154-2.047.179-3.75-.385t-2.948-1.661a8.4 8.4 0 0 1-2.009-2.674 9.9 9.9 0 0 1-.934-3.424q-.178-1.956.339-3.663a8.3 8.3 0 0 1 1.602-2.988 8.4 8.4 0 0 1 2.661-2.076q1.578-.795 3.514-.962 1.823-.159 3.405.306a7.35 7.35 0 0 1 2.784 1.51q1.202 1.047 1.95 2.643.746 1.597.94 3.698l.083.905-14.071 1.224q.174 1.08.731 2.037a6.1 6.1 0 0 0 1.37 1.633 5.7 5.7 0 0 0 1.857 1.025 5.5 5.5 0 0 0 2.236.244q1.899-.165 3.142-.93t2.168-2.125zm-3.13-6.703q-.274-2.168-1.771-3.351-1.497-1.184-3.916-.974-2.421.21-3.789 1.644-1.37 1.434-1.467 3.633zm-51.357-2.504q0-1.166-.075-2.187t-.075-1.859h2.766q0 .693.038 1.385.037.693.037 1.422h.075q.298-.62.84-1.203a6 6 0 0 1 1.29-1.039 7 7 0 0 1 1.682-.729 7.2 7.2 0 0 1 2.018-.273q1.718 0 2.971.51 1.251.51 2.074 1.421.822.912 1.214 2.206.393 1.294.393 2.825v10.534h-2.915V29.029q0-2.15-.972-3.39-.972-1.238-3.027-1.239-1.42 0-2.448.474a4.3 4.3 0 0 0-1.681 1.349q-.656.874-.972 2.077-.318 1.204-.318 2.661v8.31h-2.915zm34.367 8.967q0 1.167.075 2.187.074 1.02.074 1.859h-2.765q0-.692-.038-1.385a26 26 0 0 1-.037-1.422h-.075q-.299.621-.841 1.203a6 6 0 0 1-1.289 1.039 7 7 0 0 1-1.682.729 7.2 7.2 0 0 1-2.018.273q-1.72 0-2.971-.51-1.253-.51-2.074-1.422-.822-.91-1.215-2.205-.392-1.293-.392-2.825V22.214h2.915v10.242q0 2.151.972 3.39.97 1.239 3.027 1.239 1.419 0 2.448-.474a4.3 4.3 0 0 0 1.681-1.349q.654-.874.972-2.077t.318-2.66v-8.311h2.915z" clip-rule="evenodd"/></svg>