<svg xmlns="http://www.w3.org/2000/svg" width="25" height="15" fill="none"><g clip-path="url(#a)"><path fill="#252F3E" d="M6.921 5.247c0 .302.04.543.08.724.06.18.141.362.262.583q.06.09.06.18c0 .081-.04.162-.16.242l-.503.342c-.08.04-.141.08-.202.08q-.12 0-.241-.12a1.7 1.7 0 0 1-.282-.382 3.6 3.6 0 0 1-.241-.483C5.07 7.157 4.286 7.52 3.32 7.52c-.684 0-1.207-.201-1.61-.583-.401-.382-.603-.905-.603-1.548 0-.684.242-1.246.725-1.648.482-.403 1.146-.624 1.971-.624q.422 0 .845.06c.302.04.603.101.925.182v-.583c0-.604-.12-1.046-.382-1.287-.261-.241-.684-.362-1.308-.362-.281 0-.563.04-.865.1a6 6 0 0 0-.865.282c-.12.04-.22.08-.281.1-.06 0-.1.02-.12.02-.122 0-.162-.08-.162-.24V.984c0-.12.02-.22.06-.281.04-.06.121-.12.222-.16A5.2 5.2 0 0 1 2.878.18c.402-.1.804-.16 1.247-.16.965 0 1.65.22 2.112.643.443.442.664 1.085.664 1.99zM3.662 6.474c.262 0 .543-.04.825-.141s.543-.282.764-.523c.121-.16.222-.322.282-.523.04-.2.08-.422.08-.703v-.342c-.24-.06-.482-.1-.744-.14-.261-.04-.503-.04-.764-.04-.543 0-.926.1-1.207.32-.262.222-.403.524-.403.926q0 .573.302.844c.201.241.483.322.865.322m6.458.884c-.141 0-.242-.02-.302-.08-.06-.04-.12-.161-.161-.322L7.766.724c-.04-.16-.08-.261-.08-.322 0-.12.06-.2.2-.2h.785c.161 0 .262.02.322.08.06.04.12.16.16.321l1.349 5.328L11.749.603c.04-.16.08-.26.16-.321a.63.63 0 0 1 .323-.08h.644c.16 0 .261.02.321.08.06.04.121.16.161.321l1.268 5.388L16.014.603c.04-.16.1-.26.16-.321a.57.57 0 0 1 .322-.08h.745c.12 0 .2.06.2.2 0 .04 0 .08-.02.121 0 .04-.02.12-.06.201l-1.95 6.232a.7.7 0 0 1-.162.322c-.06.04-.16.08-.302.08h-.683c-.161 0-.262-.02-.322-.08a.7.7 0 0 1-.161-.322l-1.248-5.187-1.247 5.187c-.04.16-.08.261-.16.322-.061.06-.182.08-.322.08zm10.36.201c-.423 0-.845-.04-1.248-.14-.402-.101-.724-.202-.925-.322-.12-.08-.221-.161-.241-.221s-.06-.161-.06-.222v-.402q0-.24.18-.24c.04 0 .1 0 .141.02s.12.04.201.08c.282.12.563.22.885.281.322.06.644.1.966.1.503 0 .905-.08 1.167-.26a.87.87 0 0 0 .422-.765.83.83 0 0 0-.221-.562c-.141-.161-.423-.282-.805-.423l-1.167-.362c-.583-.18-1.026-.462-1.287-.824-.262-.362-.402-.744-.402-1.166 0-.341.08-.643.22-.884.142-.241.343-.483.584-.664q.363-.27.845-.422c.322-.1.664-.14 1.006-.14.181 0 .362 0 .543.04.181.02.362.06.523.08.161.04.322.08.463.12.14.04.261.101.342.141.12.06.2.121.241.201.04.06.08.161.08.262v.382c0 .16-.06.261-.18.261-.06 0-.161-.04-.302-.1a3.8 3.8 0 0 0-1.55-.322c-.462 0-.824.08-1.065.221-.242.14-.383.382-.383.724 0 .22.081.422.242.563.16.16.463.301.885.442l1.147.362c.583.18 1.006.442 1.247.764.241.321.362.703.362 1.125 0 .342-.08.664-.201.925a2 2 0 0 1-.584.704c-.241.2-.543.342-.885.442-.402.16-.784.201-1.187.201"/><path fill="#F90" fill-rule="evenodd" d="M22.011 11.48c-2.655 1.95-6.517 2.995-9.816 2.995-4.647 0-8.832-1.709-11.99-4.564-.241-.22-.02-.522.282-.361 3.42 1.99 7.624 3.176 11.99 3.176 2.936 0 6.175-.603 9.152-1.87.422-.18.805.302.382.624" clip-rule="evenodd"/><path fill="#F90" fill-rule="evenodd" d="M23.1 10.233c-.342-.442-2.233-.201-3.098-.1-.262.04-.302-.201-.06-.362 1.508-1.066 4.003-.764 4.284-.402.282.361-.08 2.854-1.488 4.04-.222.181-.423.08-.322-.16.322-.805 1.026-2.594.684-3.016" clip-rule="evenodd"/><path fill="#fff" d="M6.921 5.247c0 .302.04.543.08.724.06.18.141.362.262.583q.06.09.06.18c0 .081-.04.162-.16.242l-.503.342c-.08.04-.141.08-.202.08q-.12 0-.241-.12a1.7 1.7 0 0 1-.282-.382 3.6 3.6 0 0 1-.241-.483C5.07 7.157 4.286 7.52 3.32 7.52c-.684 0-1.207-.201-1.61-.583-.401-.382-.603-.905-.603-1.548 0-.684.242-1.246.725-1.648.482-.403 1.146-.624 1.971-.624q.422 0 .845.06c.302.04.603.101.925.182v-.583c0-.604-.12-1.046-.382-1.287-.261-.241-.684-.362-1.308-.362-.281 0-.563.04-.865.1a6 6 0 0 0-.865.282c-.12.04-.22.08-.281.1-.06 0-.1.02-.12.02-.122 0-.162-.08-.162-.24V.984c0-.12.02-.22.06-.281.04-.06.121-.12.222-.16A5.2 5.2 0 0 1 2.878.18c.402-.1.804-.16 1.247-.16.965 0 1.65.22 2.112.643.443.442.664 1.085.664 1.99zM3.662 6.474c.262 0 .543-.04.825-.141s.543-.282.764-.523c.121-.16.222-.322.282-.523.04-.2.08-.422.08-.703v-.342c-.24-.06-.482-.1-.744-.14-.261-.04-.503-.04-.764-.04-.543 0-.926.1-1.207.32-.262.222-.403.524-.403.926q0 .573.302.844c.201.241.483.322.865.322m6.458.884c-.141 0-.242-.02-.302-.08-.06-.04-.12-.161-.161-.322L7.766.724c-.04-.16-.08-.261-.08-.322 0-.12.06-.2.2-.2h.785c.161 0 .262.02.322.08.06.04.12.16.16.321l1.349 5.328L11.749.603c.04-.16.08-.26.16-.321a.63.63 0 0 1 .323-.08h.644c.16 0 .261.02.321.08.06.04.121.16.161.321l1.268 5.388L16.014.603c.04-.16.1-.26.16-.321a.57.57 0 0 1 .322-.08h.745c.12 0 .2.06.2.2 0 .04 0 .08-.02.121 0 .04-.02.12-.06.201l-1.95 6.232a.7.7 0 0 1-.162.322c-.06.04-.16.08-.302.08h-.683c-.161 0-.262-.02-.322-.08a.7.7 0 0 1-.161-.322l-1.248-5.187-1.247 5.187c-.04.16-.08.261-.16.322-.061.06-.182.08-.322.08zm10.36.201c-.423 0-.845-.04-1.248-.14-.402-.101-.724-.202-.925-.322-.12-.08-.221-.161-.241-.221s-.06-.161-.06-.222v-.402q0-.24.18-.24c.04 0 .1 0 .141.02s.12.04.201.08c.282.12.563.22.885.281.322.06.644.1.966.1.503 0 .905-.08 1.167-.26a.87.87 0 0 0 .422-.765.83.83 0 0 0-.221-.562c-.141-.161-.423-.282-.805-.423l-1.167-.362c-.583-.18-1.026-.462-1.287-.824-.262-.362-.402-.744-.402-1.166 0-.341.08-.643.22-.884.142-.241.343-.483.584-.664q.363-.27.845-.422c.322-.1.664-.14 1.006-.14.181 0 .362 0 .543.04.181.02.362.06.523.08.161.04.322.08.463.12.14.04.261.101.342.141.12.06.2.121.241.201.04.06.08.161.08.262v.382c0 .16-.06.261-.18.261-.06 0-.161-.04-.302-.1a3.8 3.8 0 0 0-1.55-.322c-.462 0-.824.08-1.065.221-.242.14-.383.382-.383.724 0 .22.081.422.242.563.16.16.463.301.885.442l1.147.362c.583.18 1.006.442 1.247.764.241.321.362.703.362 1.125 0 .342-.08.664-.201.925a2 2 0 0 1-.584.704c-.241.2-.543.342-.885.442-.402.16-.784.201-1.187.201"/><path fill="#F90" fill-rule="evenodd" d="M22.011 11.48c-2.655 1.95-6.517 2.995-9.816 2.995-4.647 0-8.832-1.709-11.99-4.564-.241-.22-.02-.522.282-.361 3.42 1.99 7.624 3.176 11.99 3.176 2.936 0 6.175-.603 9.152-1.87.422-.18.805.302.382.624" clip-rule="evenodd"/><path fill="#F90" fill-rule="evenodd" d="M23.1 10.233c-.342-.442-2.233-.201-3.098-.1-.262.04-.302-.201-.06-.362 1.508-1.066 4.003-.764 4.284-.402.282.361-.08 2.854-1.488 4.04-.222.181-.423.08-.322-.16.322-.805 1.026-2.594.684-3.016" clip-rule="evenodd"/></g><defs><clipPath id="a"><path fill="#fff" d="M.1 0h24.22v14.474H.1z"/></clipPath></defs></svg>