<svg xmlns="http://www.w3.org/2000/svg" width="196" height="29" fill="none"><path fill="#706D6E" fill-rule="evenodd" d="M68.442 10.246c.53.002 1.058.058 1.576.167.539.114.98.263 1.3.442l.043.021v2.718l-.12-.086c-.854-.62-1.756-.932-2.682-.932-1.08 0-1.969.364-2.635 1.087-.679.726-1.013 1.706-1.013 2.922 0 1.203.326 2.162.968 2.842.64.683 1.528 1.026 2.635 1.026.398 0 .851-.085 1.348-.26a5.4 5.4 0 0 0 1.38-.718l.119-.086v2.58l-.043.021c-.918.526-2.053.793-3.39.793-1.15 0-2.181-.253-3.078-.75a5.27 5.27 0 0 1-2.107-2.126c-.496-.915-.754-1.95-.754-3.078 0-1.294.263-2.45.778-3.44a5.55 5.55 0 0 1 2.255-2.319c.982-.547 2.133-.824 3.42-.824m-22.915 8.222.782-2.192 4.293-10.472h3.927v16.69h-2.874V11.89c.005-.628.056-1.635.113-2.753l.012-.244h-.058c-.109.49-.234 1.036-.342 1.314l-4.983 12.287h-1.886L39.493 10.32a15 15 0 0 1-.382-1.427h-.061q.009.153.028.345c.02.206.043.446.05.721.026.876.042 1.643.042 2.274v10.262h-2.7V5.805h4.086L44.75 16.3c.364.926.597 1.652.735 2.168zm14.53 4.026H57.24V10.535h2.818zM58.679 5.452c-.464 0-.87.156-1.199.47a1.55 1.55 0 0 0-.501 1.17q.001.691.496 1.153c.329.304.735.457 1.204.457q.71 0 1.213-.457a1.52 1.52 0 0 0 .499-1.152q-.001-.674-.49-1.16-.486-.48-1.221-.481m20.61 4.875a2.87 2.87 0 0 0-1.88.673c-.478.394-.82.933-1.083 1.603h-.029v-2.068h-2.812v11.96h2.812v-6.117c0-1.045.233-1.896.7-2.542.454-.638 1.07-.962 1.82-.962q.379 0 .844.126c.305.081.526.172.655.265l.12.085v-2.837l-.043-.021c-.262-.11-.636-.165-1.103-.165m7.514 10.126c1.04 0 1.836-.336 2.367-.998.53-.667.801-1.668.801-2.963 0-1.285-.29-2.268-.854-2.928-.563-.657-1.35-.988-2.338-.988-1.019 0-1.825.346-2.396 1.033-.583.69-.875 1.682-.875 2.951 0 1.227.292 2.196.875 2.877.57.675 1.388 1.016 2.42 1.016m-4.526-8.489c1.117-1.14 2.682-1.72 4.648-1.72 1.863 0 3.338.552 4.383 1.646 1.051 1.089 1.58 2.607 1.58 4.509 0 1.926-.569 3.486-1.68 4.641-1.117 1.159-2.659 1.742-4.566 1.742-1.834 0-3.32-.556-4.407-1.653-1.088-1.098-1.643-2.604-1.643-4.477 0-1.971.568-3.552 1.685-4.688m16.85 3.511c-.888-.355-1.456-.652-1.69-.878q-.339-.331-.34-.92c0-.348.14-.624.436-.853.292-.227.698-.341 1.207-.341.477 0 .966.073 1.446.221.478.148.907.341 1.261.585l.114.078v-2.601l-.048-.017c-.319-.142-.754-.262-1.274-.36a8 8 0 0 0-1.403-.143c-1.345 0-2.455.343-3.298 1.019-.855.68-1.29 1.573-1.29 2.654 0 .563.096 1.059.279 1.482.186.425.472.8.854 1.115.371.31.953.635 1.728.967q.975.4 1.44.67.452.26.634.52.177.255.178.677c0 .806-.602 1.197-1.839 1.197-.461 0-.987-.096-1.56-.284a6 6 0 0 1-1.594-.809l-.12-.086v2.742l.043.021q.61.282 1.515.463a8 8 0 0 0 1.607.188c1.463 0 2.635-.346 3.484-1.025.865-.686 1.3-1.6 1.3-2.718 0-.806-.236-1.497-.698-2.055-.464-.555-1.26-1.06-2.371-1.509m10.51 4.978c1.037 0 1.833-.336 2.364-.998.53-.667.801-1.668.801-2.963 0-1.285-.286-2.268-.854-2.928q-.846-.987-2.338-.988c-1.018 0-1.825.346-2.398 1.033-.581.69-.873 1.682-.873 2.951 0 1.227.292 2.196.873 2.877.573.675 1.39 1.016 2.425 1.016m-4.529-8.489c1.117-1.14 2.682-1.72 4.653-1.72h.001c1.857 0 3.332.552 4.378 1.646 1.05 1.089 1.578 2.607 1.578 4.509 0 1.926-.563 3.486-1.68 4.641-1.116 1.159-2.653 1.742-4.568 1.742-1.831 0-3.317-.556-4.405-1.653-1.087-1.098-1.642-2.604-1.642-4.477 0-1.971.568-3.552 1.685-4.688m25.614.864v-2.293h-2.85V6.967l-.095.029-2.677.818-.053.016v2.705h-4.222V9.028c0-.702.159-1.238.465-1.596q.467-.53 1.308-.532c.4 0 .82.093 1.236.282l.104.045V4.81l-.048-.016c-.39-.143-.921-.212-1.584-.212-.83 0-1.584.179-2.242.538a3.8 3.8 0 0 0-1.544 1.523c-.361.649-.544 1.401-.544 2.234v1.657h-1.985v2.293h1.985v9.666h2.849v-9.666h4.222v6.143c0 2.527 1.194 3.811 3.544 3.811a6 6 0 0 0 1.213-.132c.422-.092.711-.182.878-.28l.04-.021V20.03l-.114.079c-.154.1-.35.186-.573.247a2.2 2.2 0 0 1-.566.096c-.551 0-.957-.148-1.209-.44-.26-.296-.388-.812-.388-1.538v-5.647zm43.716 9.68h-2.656v-1.855h-.046q-1.156 2.13-3.594 2.13-4.155 0-4.155-4.992v-7.005h2.655v6.73q0 3.16 2.439 3.16 1.178 0 1.94-.87t.761-2.278v-6.742h2.656zm-18.317-2.072 6.33-8.54v-1.11h-9.433v2.072h5.85l-6.468 8.654v.996h10.028v-2.072zM144.843 9.56l2.279 6.548h-5.026l2.255-6.548q.125-.378.23-1.03h.046q.114.71.216 1.03m4.476 12.948h2.988l-6.101-16.416h-3.067l-6.148 16.416h2.976l1.419-4.18h6.457zm33.521-9.57q.903 0 1.384.377v-2.518q-.377-.217-1.099-.217-.995 0-1.802.693-.808.691-1.197 1.928h-.045v-2.415h-2.656v11.722h2.656v-5.61q0-1.83.79-2.895.789-1.065 1.969-1.065m9.947 2.553q-.012-1.432-.675-2.227-.664-.795-1.832-.796-1.145 0-1.94.836-.795.835-.978 2.187zm2.565 1.877h-7.99q.044 1.625 1.001 2.507t2.627.881q1.878 0 3.446-1.121v2.14q-1.604 1.007-4.235 1.008-2.588 0-4.059-1.598-1.471-1.596-1.471-4.493 0-2.736 1.62-4.458 1.62-1.724 4.024-1.723t3.721 1.545q1.316 1.546 1.316 4.293z" clip-rule="evenodd"/><path fill="#F1511B" d="M13.512 13.543H.351V.383h13.16z"/><path fill="#80CC28" d="M28.35 13.543H15.19V.383h13.16z"/><path fill="#00ADEF" d="M13.512 28.383H.351v-13.16h13.16z"/><path fill="#FBBC09" d="M28.35 28.383H15.19v-13.16h13.16z"/></svg>