<svg xmlns="http://www.w3.org/2000/svg" width="1485" height="374" viewBox="0 0 1485 374" fill="none"><path d="M123.324 101.414C143.284 101.414 160.12 109.056 174.723 124.792L216.362 82.9576C191.048 54.592 160.055 40.667 123.263 40.667C88.6993 40.667 59.3661 52.3246 35.4653 75.3159C12.0035 98.241 0 126.669 0 160.865C0 195.121 12.0035 223.424 35.5167 246.411C59.4312 269.399 88.7644 280.67 123.314 280.67C160.11 280.67 191.1 266.682 216.417 238.254L174.723 196.416C160.12 212.219 143.284 219.86 123.324 219.86C91.316 219.86 66.1258 195.131 66.1258 160.799C66.1258 126.669 90.9319 101.414 123.324 101.414Z" fill="#206FB7"></path><path d="M473.613 195.132V47.8013H407.553V77.5252C400.916 57.7104 374.707 43.7227 341.043 43.7227C309.604 43.7227 282.887 54.9902 261.648 77.9815C240.799 100.516 230.096 128.429 230.096 161.326C230.096 194.679 240.727 222.592 261.648 245.58C282.887 268.115 309.539 279.337 341.043 279.337C376.114 279.337 400.474 268.523 415.074 246.44C418.197 255.896 424.85 263.99 435.034 270.724C444.345 276.164 456.716 278.822 471.387 278.822C484.269 278.822 494.023 277.526 501.101 275.255V219.353C497.15 219.806 493.213 220.259 490.072 220.259C478.14 220.388 473.613 213.07 473.613 195.132ZM394.283 201.868C383.192 212.666 369.35 218.057 353.026 218.057C337.085 218.057 323.758 212.746 312.663 201.868C301.633 190.597 296.276 177.139 296.276 161.326C296.276 145.513 301.633 132.069 312.663 121.24C323.758 109.973 337.085 104.522 353.026 104.522C369.416 104.522 383.206 109.962 394.283 121.24C405.766 132.055 411.565 145.524 411.565 161.326C411.565 177.129 405.831 190.597 394.283 201.868Z" fill="#206FB7"></path><path d="M596.477 78.9411V47.8553H530.416V274.843H596.477V164.048C596.477 126.683 618.666 104.987 656.354 104.987C663.805 105 671.238 105.759 678.543 107.254V44.1634C671.468 43.3205 665.665 42.8677 661.265 42.8677C630.594 42.8677 606.693 55.9498 596.477 78.9411Z" fill="#206FB7"></path><path d="M868.386 77.5252C861.688 57.7104 835.548 43.7227 801.811 43.7227C770.372 43.7227 743.783 54.9902 722.423 77.9815C701.633 100.516 690.984 128.429 690.984 161.326C690.984 193.77 701.616 221.234 722.423 243.25C743.721 265.395 770.31 276.147 801.811 276.147C834.207 276.147 860.858 264.946 870.169 248.69V253.608C870.169 277.509 863.537 294.154 850.659 303.22C839.561 310.859 824.001 314.864 804.939 314.864C781.47 314.864 758.832 307.675 736.193 293.301L704.758 341.868C734.471 363.044 770.821 373.911 814.247 373.911C846.639 373.911 873.678 365.298 895.421 347.75C925.969 323.85 934.447 289.661 934.447 236.942V47.8013H868.386V77.5252ZM855.059 200.97C843.961 211.783 830.23 217.202 813.866 217.225C797.86 217.225 784.529 211.784 773.5 200.97C762.402 190.155 757.038 177.139 757.038 161.337C757.038 145.534 762.392 132.079 773.5 121.251C784.529 109.983 797.85 104.532 813.866 104.532C830.249 104.532 843.961 109.973 855.059 121.251C866.534 132.066 872.337 145.534 872.337 161.337C872.337 177.139 866.534 190.082 855.059 200.97Z" fill="#206FB7"></path><path d="M1481.23 218.035H1476.78C1465.74 218.035 1462.17 211.765 1462.17 194.204V137.031C1462.17 77.9694 1431.18 42.8677 1377.55 42.8677C1347.39 42.8677 1322.52 56.3399 1313.21 76.2209V47.8553H1247.15V274.843H1313.22V147.33C1313.22 120.779 1331.46 102.323 1356.26 102.323C1382.47 102.323 1396.18 118.578 1396.18 145.129V212.737C1396.18 255.926 1415.69 277.563 1455.17 277.563C1468.94 277.563 1478.7 276.657 1484.06 274.386V217.659L1481.23 218.035Z" fill="#206FB7"></path><path d="M1166.9 40.5996L1136.61 93.5761C1144.39 100.34 1150.62 108.734 1154.89 118.181C1159.17 127.628 1161.37 137.902 1161.36 148.298C1161.36 188.126 1129.6 220.507 1090.39 220.507C1051.17 220.507 1019.41 188.188 1019.41 148.298C1019.39 137.98 1021.56 127.779 1025.78 118.391C1029.99 109.003 1036.15 100.649 1043.84 93.9L1013.66 40.7285C980.817 64.8866 959.52 104.001 959.52 148.298C959.52 221.737 1018.12 281.188 1090.37 281.188C1162.62 281.188 1221.16 221.67 1221.16 148.298C1221.17 104.001 1199.74 64.7577 1166.9 40.5996Z" fill="#206FB7"></path><path d="M1115.65 137.927C1115.57 144.66 1112.88 151.09 1108.17 155.823C1103.45 160.557 1097.09 163.211 1090.46 163.211C1083.83 163.211 1077.47 160.557 1072.75 155.823C1068.03 151.09 1065.35 144.66 1065.27 137.927V25.708C1065.26 11.5287 1076.55 0 1090.45 0C1093.77 0.00410284 1097.05 0.672724 1100.11 1.96758C1103.18 3.26244 1105.96 5.15811 1108.3 7.54606C1110.64 9.93401 1112.49 12.7673 1113.75 15.8838C1115.01 19.0003 1115.66 22.3388 1115.65 25.708V137.927Z" fill="#6EC05D"></path></svg>