<svg xmlns="http://www.w3.org/2000/svg" width="225" height="55" fill="none"><path fill="#1F6FB9" d="M14.334 17.236c2.297 0 4.295.9 5.993 2.797l4.795-5.044q-4.42-5.094-10.788-5.094c-3.995 0-7.442 1.398-10.189 4.195C1.398 16.837 0 20.233 0 24.378s1.398 7.542 4.145 10.289c2.797 2.747 6.194 4.145 10.19 4.145 4.294 0 7.89-1.698 10.837-5.094l-4.845-5.044c-1.698 1.898-3.646 2.846-5.993 2.846-3.696 0-6.643-2.996-6.643-7.092 0-4.195 2.897-7.192 6.643-7.192m40.705 11.288v-17.78h-7.692v3.596c-.749-2.398-3.796-4.096-7.741-4.096-3.646 0-6.743 1.349-9.24 4.146-2.397 2.697-3.646 6.093-3.646 10.038 0 3.996 1.249 7.392 3.646 10.14 2.447 2.696 5.544 4.045 9.24 4.045 4.095 0 6.892-1.299 8.59-3.946.35 1.149 1.15 2.098 2.298 2.947 1.099.649 2.497.999 4.245.999q2.247 0 3.446-.45v-6.742c-.45.05-.899.1-1.298.1-1.349 0-1.848-.85-1.848-2.997m-9.24.799q-1.947 1.948-4.795 1.948c-1.848 0-3.396-.65-4.694-1.948-1.299-1.349-1.898-2.997-1.898-4.895s.599-3.546 1.898-4.844c1.298-1.349 2.846-1.998 4.694-1.998 1.898 0 3.497.65 4.795 1.998 1.349 1.298 1.998 2.947 1.998 4.844.05 1.898-.65 3.546-1.998 4.895m23.524-14.834v-3.746H61.63v27.32h7.692V24.778c0-4.495 2.597-7.093 6.942-7.093.949 0 1.798.1 2.597.25v-7.591c-.799-.1-1.498-.15-1.998-.15-3.596-.05-6.392 1.548-7.541 4.295m31.566-.149c-.799-2.398-3.796-4.096-7.742-4.096-3.645 0-6.742 1.349-9.24 4.146-2.397 2.697-3.645 6.093-3.645 10.038 0 3.896 1.248 7.192 3.646 9.89 2.497 2.647 5.544 3.945 9.24 3.945 3.745 0 6.842-1.349 7.941-3.296v.599q0 4.346-2.248 5.993c-1.299.9-3.097 1.399-5.294 1.399-2.747 0-5.344-.85-7.991-2.597l-3.646 5.793C85.355 48.701 89.6 50 94.645 50q5.619 0 9.439-3.147c3.546-2.896 4.545-6.992 4.545-13.335V10.744h-7.741zm-1.549 14.883q-1.947 1.948-4.794 1.948c-1.848 0-3.396-.65-4.695-1.948-1.298-1.299-1.898-2.847-1.898-4.795 0-1.898.6-3.546 1.898-4.844 1.299-1.349 2.847-1.998 4.695-1.998 1.898 0 3.496.65 4.794 1.998 1.349 1.298 1.998 2.947 1.998 4.844.05 1.898-.649 3.447-1.998 4.795m72.77 2.047h-.5c-1.298 0-1.698-.748-1.698-2.846v-6.942c0-7.093-3.596-11.338-9.839-11.338-3.496 0-6.393 1.598-7.491 3.996v-3.397h-7.692v27.32h7.692V22.73c0-3.196 2.097-5.444 4.994-5.444 3.047 0 4.645 1.948 4.645 5.144v8.142c0 5.194 2.247 7.79 6.842 7.79 1.599 0 2.747-.1 3.347-.399v-6.742zm-36.51-21.375-3.496 6.392A8.92 8.92 0 0 1 135 22.88c0 4.795-3.696 8.69-8.241 8.69s-8.241-3.895-8.241-8.69c0-2.597 1.099-4.944 2.847-6.543l-3.496-6.393c-3.796 2.897-6.293 7.642-6.293 12.936 0 8.84 6.793 15.982 15.183 15.982s15.183-7.192 15.183-15.982c-.05-5.344-2.547-10.089-6.343-12.985"/><path fill="#6EC05D" d="M129.656 21.632c0 1.698-1.299 3.096-2.947 3.096-1.598 0-2.947-1.398-2.947-3.097V8.097c0-1.699 1.299-3.097 2.947-3.097 1.598 0 2.947 1.398 2.947 3.097z"/></svg>