<svg xmlns="http://www.w3.org/2000/svg" xml:space="preserve" viewBox="0 0 1239.333 310.125"><path d="m311.127 229.961 1.746-6.041c2.081-7.188 1.307-13.833-2.186-18.715-3.213-4.498-8.567-7.145-15.069-7.452l-123.166-1.571c-.829-.044-1.516-.417-1.938-1.032-.428-.631-.527-1.444-.264-2.224.406-1.214 1.609-2.131 2.861-2.186l124.309-1.576c14.745-.675 30.709-12.642 36.3-27.233l7.09-18.523a4.3 4.3 0 0 0 .28-1.575 4 4 0 0 0-.087-.875c-8.056-36.206-40.364-63.28-78.997-63.28-35.597 0-65.823 22.977-76.663 54.911-6.996-5.25-15.948-8.04-25.569-7.079-17.079 1.697-30.803 15.448-32.499 32.527a36.7 36.7 0 0 0 .939 12.73c-27.898.813-50.27 23.669-50.27 51.764 0 2.543.192 5.041.549 7.485.176 1.186 1.175 2.076 2.372 2.076l227.387.027c.022 0 .042-.01.065-.011a2.99 2.99 0 0 0 2.81-2.147m41.031-85.197c-1.142 0-2.279.033-3.41.088-.187.01-.364.055-.534.115a1.96 1.96 0 0 0-1.24 1.308l-4.844 16.728c-2.081 7.188-1.307 13.828 2.186 18.71 3.213 4.503 8.567 7.145 15.069 7.452l26.256 1.576c.774.038 1.455.412 1.873 1.016.439.637.538 1.455.275 2.235-.412 1.214-1.609 2.131-2.856 2.186l-27.282 1.576c-14.811.681-30.775 12.642-36.366 27.233l-1.972 5.151c-.359.932.309 1.925 1.295 1.973.025.001.047.009.073.009h93.874c1.12 0 2.12-.73 2.422-1.807a67.2 67.2 0 0 0 2.499-18.232c-.001-37.179-30.139-67.317-67.318-67.317m806.337 42.912a6.07 6.07 0 0 1-6.074-6.068c0-3.339 2.718-6.052 6.074-6.052 3.35 0 6.068 2.713 6.068 6.052a6.066 6.066 0 0 1-6.068 6.068m0-11c-2.685 0-4.865 2.213-4.865 4.931 0 2.735 2.18 4.948 4.865 4.948 2.68 0 4.86-2.213 4.86-4.948 0-2.718-2.18-4.931-4.86-4.931m3.064 8.133h-1.439l-1.208-2.328h-1.626v2.312h-1.258v-6.672h3.202c1.406 0 2.295.857 2.295 2.18 0 .956-.555 1.724-1.389 2.026zm-2.311-3.487c.521 0 1.038-.269 1.038-1.021 0-.758-.401-1.021-1.038-1.021h-1.961v2.043h1.961zm-636.235-6.388h15.547v42.472h27.167v13.619h-42.714zm58.815 28.207v-.159c0-16.107 12.982-29.172 30.292-29.172s30.127 12.905 30.127 29.012v.159c0 16.107-12.982 29.166-30.286 29.166-17.31.001-30.133-12.899-30.133-29.006m44.554 0v-.159c0-8.095-5.849-15.146-14.421-15.146-8.496 0-14.185 6.892-14.185 14.987v.159c0 8.095 5.849 15.146 14.344 15.146 8.572 0 14.262-6.892 14.262-14.987m34.893 3.285v-31.494h15.788v31.176c0 8.095 4.086 11.939 10.335 11.939s10.335-3.685 10.335-11.538v-31.577h15.788v31.094c0 18.111-10.335 26.041-26.283 26.041-15.946 0-25.963-8.09-25.963-25.641m76.039-31.489h21.637c20.033 0 31.654 11.538 31.654 27.722v.165c0 16.184-11.78 28.205-31.972 28.205h-21.318v-56.092zm21.878 42.307c9.297 0 15.464-5.129 15.464-14.185v-.159c0-8.973-6.167-14.185-15.464-14.185h-6.332v28.529zm54.006-42.31h44.872v13.625h-29.325v9.533h26.525v12.9h-26.525v20.033h-15.547zm66.505 0h15.547v42.472h27.167v13.619h-42.714zm83.338-.401h14.981l23.883 56.492h-16.667l-4.091-10.017H959.51l-4.003 10.017h-16.349zm13.62 34.378-6.25-15.948-6.332 15.948zm45.268-33.978h26.525c8.578 0 14.503 2.246 18.271 6.09 3.289 3.207 4.97 7.535 4.97 13.065v.159c0 8.572-4.569 14.262-11.538 17.227l13.383 19.556h-17.952l-11.296-16.991h-6.815v16.991h-15.547zm25.805 26.925c5.288 0 8.336-2.565 8.336-6.65v-.159c0-4.41-3.207-6.65-8.419-6.65h-10.176v13.46h10.259zm46.391-26.924h45.114v13.224h-29.726v8.49h26.925v12.263h-26.925v8.896h30.127v13.218h-45.515zm-605.15 34.783c-2.175 4.91-6.76 8.408-12.845 8.408-8.496 0-14.344-7.051-14.344-15.146v-.159c0-8.095 5.689-14.987 14.185-14.987 6.403 0 11.28 3.937 13.339 9.297h16.387c-2.625-13.35-14.355-23.318-29.567-23.318-17.31 0-30.286 13.059-30.286 29.166v.159c0 16.107 12.817 29.012 30.127 29.012 14.805 0 26.376-9.588 29.43-22.433h-16.426z" style="fill:#fff"/></svg>