<svg xmlns="http://www.w3.org/2000/svg" width="186" height="37" fill="none"><path fill="#F78100" d="m40.752 26.398.302-1.047c.359-1.246.226-2.395-.378-3.242-.565-.78-1.486-1.237-2.613-1.291l-21.329-.271a.414.414 0 0 1-.381-.565.565.565 0 0 1 .494-.378l21.536-.283c2.541-.116 5.32-2.188 6.289-4.719l1.225-3.208a.76.76 0 0 0 .034-.434 14.027 14.027 0 0 0-26.966-1.452 6.311 6.311 0 0 0-9.884 6.614 8.96 8.96 0 0 0-8.63 10.285.415.415 0 0 0 .41.358h39.391a.52.52 0 0 0 .5-.367"/><path fill="#FCAD32" d="M54.664 11.615q-.283 0-.593.017a.3.3 0 0 0-.09.02.33.33 0 0 0-.215.225l-.847 2.898c-.362 1.245-.23 2.394.378 3.242a3.29 3.29 0 0 0 2.61 1.29l4.549.283a.406.406 0 0 1 .393.362.4.4 0 0 1-.023.2.56.56 0 0 1-.495.378l-4.724.282c-2.567.119-5.332 2.189-6.3 4.716l-.342.893a.255.255 0 0 0 .223.344h16.275a.44.44 0 0 0 .435-.33 11.676 11.676 0 0 0-11.229-14.82z"/><path fill="#000" d="M76.801 22.868a2.38 2.38 0 0 1-2.225 1.457c-1.474 0-2.485-1.222-2.485-2.623v-.028c0-1.412.986-2.598 2.457-2.598a2.44 2.44 0 0 1 2.31 1.612h2.824c-.44-2.313-2.471-4.032-5.106-4.032-2.999 0-5.247 2.259-5.247 5.054v.029c0 2.79 2.22 5.026 5.219 5.026 2.564 0 4.569-1.66 5.097-3.885zm5.881-5.82h2.691v7.36h4.708v2.357h-7.399zm10.398 4.691v-.026c0-2.79 2.26-5.055 5.248-5.055 2.987 0 5.218 2.237 5.218 5.027v.028c0 2.79-2.259 5.052-5.247 5.052s-5.218-2.245-5.218-5.026m7.718 0v-.026c0-1.412-1.013-2.623-2.499-2.623-1.485 0-2.457 1.192-2.457 2.595v.028c0 1.412 1.014 2.624 2.486 2.624 1.47 0 2.47-1.195 2.47-2.598m5.747.584v-5.461h2.737v5.4c0 1.411.706 2.07 1.79 2.07s1.791-.64 1.791-2v-5.47h2.733v5.385c0 3.137-1.79 4.518-4.552 4.518s-4.499-1.412-4.499-4.442m12.051-5.273h3.748c3.47 0 5.484 2 5.484 4.802v.028c0 2.804-2.042 4.885-5.538 4.885h-3.694zm3.79 7.343c1.61 0 2.68-.89 2.68-2.46v-.025c0-1.556-1.07-2.46-2.68-2.46h-1.104v4.934zm8.442-7.345h7.772v2.36h-5.078v1.653h4.595v2.234h-4.595v3.47h-2.694zm10.772 0h2.691v7.36h4.707v2.357h-7.398zm14.538-.068h2.595l4.126 9.785h-2.886l-.709-1.734h-3.75l-.692 1.734h-2.824zm2.358 5.953-1.082-2.762-1.107 2.762zm7.363-5.885h4.595c1.488 0 2.513.39 3.166 1.056a3 3 0 0 1 .861 2.26v.028a3.07 3.07 0 0 1-1.999 2.985l2.318 3.388h-3.106l-1.96-2.942h-1.181v2.942h-2.694zm4.471 4.665c.917 0 1.446-.446 1.446-1.152v-.028c0-.765-.565-1.152-1.46-1.152h-1.763v2.332zm7.47-4.665h7.817v2.29h-5.151v1.472h4.665v2.123h-4.665v1.542h5.218v2.29h-7.884z"/></svg>