<svg xmlns="http://www.w3.org/2000/svg" width="183" height="29" fill="none"><path fill="#fff" fill-rule="evenodd" d="M.898 1.887a14.8 14.8 0 0 1 10.016 1.564l-.175.18a15.7 15.7 0 0 0-4.964 7.133 15.44 15.44 0 0 0-.375 8.629c.938 3.928 3.388 7.349 6.836 9.546a.25.25 0 0 0 .327 0 15.4 15.4 0 0 0 2.853-2.345 15.4 15.4 0 0 0 3.89-6.658c.706-2.505.758-5.144.15-7.674a15.18 15.18 0 0 0-5.379-8.6l-.207-.188a14.84 14.84 0 0 1 10.015-1.563l.383-1.564A.2.2 0 0 0 24.156.3 16.7 16.7 0 0 0 19.17.105a16 16 0 0 0-6.582 2.243.31.31 0 0 1-.366 0q-.271-.142-.532-.286h-.002a20 20 0 0 0-1.06-.55A16.44 16.44 0 0 0 1.193.198a3 3 0 0 0-.26.055C.796.288.653.323.5.323zm14.374 10.024a13.8 13.8 0 0 1-2.908 2.822v.024a13.2 13.2 0 0 1-3.004-3.01 3.81 3.81 0 0 1 .128-4.52 14.8 14.8 0 0 1 2.677-2.666.3.3 0 0 1 .219-.1.3.3 0 0 1 .22.1 14.4 14.4 0 0 1 2.668 2.658c.531.671.82 1.497.82 2.346a3.78 3.78 0 0 1-.82 2.346m2.324 7.697c-.772 2.64-2.313 5-4.435 6.79v-8.373a3.7 3.7 0 0 1 .315-1.58c.22-.498.548-.943.96-1.305a16.5 16.5 0 0 0 2.988-3.51l.08-.087a13.8 13.8 0 0 1 .092 8.065m-6.084 6.603v.187l.031.047a14.1 14.1 0 0 1-4.47-6.872 13.7 13.7 0 0 1 .08-7.99q.289.365.57.736c.359.468.717.937 1.103 1.382q.667.75 1.41 1.423c.401.356.721.79.941 1.275s.334 1.01.335 1.54zm170.941-7.345.047-.278v-.782a1 1 0 0 1-.04-.133 4.03 4.03 0 0 0-.694-1.969 4.14 4.14 0 0 0-1.593-1.378 9 9 0 0 0-.402-.188h-.002l-.001-.001-.002-.001h-.002l-.316-.146a4.1 4.1 0 0 0 1.49-1.047 3.92 3.92 0 0 0 .909-3.167 3.8 3.8 0 0 0-.665-1.9 3.9 3.9 0 0 0-1.55-1.313 6.4 6.4 0 0 0-2.869-.61h-7.697v17.06h8.056q.703.002 1.394-.125a4.6 4.6 0 0 0 2.431-1.102 4.45 4.45 0 0 0 1.378-2.252c.056-.22.092-.445.128-.668m-6.064 2.185h-4.884v-5.943h4.939a4.6 4.6 0 0 1 1.69.29c.639.22 1.178.654 1.522 1.226s.471 1.246.358 1.901a2.74 2.74 0 0 1-.831 1.666 2.84 2.84 0 0 1-1.719.774 7 7 0 0 1-1.075.085m-2.781-7.944h-2.103l.031-5.145h.096q.83-.001 1.656-.01c1.102-.01 2.203-.021 3.308.01a4.5 4.5 0 0 1 1.506.313c.486.195.887.55 1.135 1.003.249.454.329.978.227 1.483a2.44 2.44 0 0 1-.804 1.652c-.475.429-1.1.66-1.745.647-1.099.047-2.197.047-3.303.047zm-21.568 9.89V5.945h6.557a7.27 7.27 0 0 1 4.718 1.492 7.02 7.02 0 0 1 2.605 4.137 11.2 11.2 0 0 1-.51 7.256 6.63 6.63 0 0 1-2.254 2.839 6.8 6.8 0 0 1-3.435 1.258 10 10 0 0 1-1.259.07zm2.462-2.048h4.071a4.84 4.84 0 0 0 2.845-.848 4.7 4.7 0 0 0 1.785-2.334 9.03 9.03 0 0 0 .175-6.005 4.86 4.86 0 0 0-1.771-2.707 5 5 0 0 0-3.106-1.03c-.86-.037-1.72-.025-2.581-.012q-.645.01-1.291.012h-.127zm-42.843-9.101v2.205l.239-.141q.323-.215.642-.437c.461-.318.92-.635 1.405-.908a5.9 5.9 0 0 1 3.873-.836c.428.032.841.17 1.202.399.36.23.656.543.861.914.109.194.169.41.175.632a1.37 1.37 0 0 1-.571 1.142 1.4 1.4 0 0 1-.616.251q-.503.095-1.006.186c-.692.127-1.382.253-2.069.4a8.7 8.7 0 0 0-3.06 1.165 3.5 3.5 0 0 0-1.387 1.591 3.42 3.42 0 0 0-.206 2.084c.092.633.376 1.224.815 1.697a3.27 3.27 0 0 0 1.647.954 7.25 7.25 0 0 0 3.274.234 4.8 4.8 0 0 0 3.068-1.563l.279-.329v1.51h2.088a1 1 0 0 0 0-.118v-8.952a3.7 3.7 0 0 0-.457-1.854 3.76 3.76 0 0 0-1.328-1.391 6.3 6.3 0 0 0-3.379-.9 8.7 8.7 0 0 0-5.386 1.87.26.26 0 0 0-.103.195m8.183 4.714q.15-.053.318-.109-.017.4-.025.795v.005c-.013.568-.026 1.127-.102 1.67a2.74 2.74 0 0 1-.507 1.176c-.26.348-.6.63-.991.826a4.95 4.95 0 0 1-3.833.462 1.68 1.68 0 0 1-.917-.497 1.63 1.63 0 0 1-.437-.934 1.8 1.8 0 0 1 .155-1.052c.156-.328.407-.604.721-.794a6.2 6.2 0 0 1 2.16-.781q.722-.154 1.452-.296h.001q.695-.136 1.391-.283a5 5 0 0 0 .614-.188m17.744-10.594h2.271v5.614l.342-.375a5 5 0 0 1 1.83-1.148 5 5 0 0 1 2.154-.268 5.1 5.1 0 0 1 1.897.391 4 4 0 0 1 1.689 1.297c.434.574.7 1.253.773 1.964q.053.444.047.891v8.663h-2.294v-7.819a6.8 6.8 0 0 0-.136-1.438 2.5 2.5 0 0 0-.863-1.437 2.6 2.6 0 0 0-1.591-.588 3.4 3.4 0 0 0-2.393.593 3.28 3.28 0 0 0-1.328 2.042q-.078.386-.079.782v7.818h-2.279zM42.498 8.37A8.7 8.7 0 0 1 45 9.933c0-.884.008-1.705.016-2.502a.37.37 0 0 0-.16-.211 8.7 8.7 0 0 0-3.47-1.441 8.7 8.7 0 0 0-3.765.158 7.6 7.6 0 0 0-3.31 1.583 7.4 7.4 0 0 0-2.155 2.929 10.5 10.5 0 0 0 .159 8.358c.34.903.872 1.726 1.558 2.414a7 7 0 0 0 2.426 1.581 8.7 8.7 0 0 0 4.27.58 8.64 8.64 0 0 0 4.016-1.542c.295-.21.486-.406.415-.782a2.7 2.7 0 0 1 0-.508v-1.626l-.223.164-.255.186v.001l-.002.001c-.233.17-.464.339-.692.516a6.7 6.7 0 0 1-2.362 1.19 6.8 6.8 0 0 1-2.65.194 4.9 4.9 0 0 1-2.54-.854 4.8 4.8 0 0 1-1.69-2.047 8.96 8.96 0 0 1-.231-6.95 4.8 4.8 0 0 1 1.258-1.966 4.94 4.94 0 0 1 2.048-1.162 7.24 7.24 0 0 1 4.837.172m43.919 14.628H84.09a.38.38 0 0 1-.374-.203q-1.944-2.892-3.913-5.778l-.12-.164q-.091.083-.18.168h-.001q-.149.142-.304.27l-.511.425h-.001c-.433.36-.865.72-1.305 1.068a.57.57 0 0 0-.27.508v3.691h-2.28V5.945h2.271V16.11l.215-.172a19.4 19.4 0 0 0 4.39-5.52.5.5 0 0 1 .216-.25.53.53 0 0 1 .326-.07h2.144l-.104.234a21.3 21.3 0 0 1-2.988 4.692.28.28 0 0 0-.092.207.28.28 0 0 0 .092.207q2.478 3.612 4.94 7.232.098.16.176.328m-27.8-1.806a7.23 7.23 0 0 0 1.593-4.597 27 27 0 0 1-.05-.469 11 11 0 0 0-.157-1.157 6.12 6.12 0 0 0-2.344-3.906A6.34 6.34 0 0 0 53.222 9.8a6.2 6.2 0 0 0-3.505 1.216 6 6 0 0 0-2.144 2.982 8 8 0 0 0-.103 4.856 6 6 0 0 0 2.677 3.588 6.64 6.64 0 0 0 3.888.938 6.1 6.1 0 0 0 2.537-.598 6 6 0 0 0 2.045-1.59m-1.171-6.833c.255.672.382 1.385.374 2.103h-.008a5.83 5.83 0 0 1-.805 3.253 3.87 3.87 0 0 1-1.46 1.35 3.96 3.96 0 0 1-3.877-.1 3.86 3.86 0 0 1-1.388-1.422 5.95 5.95 0 0 1-.072-5.786 3.6 3.6 0 0 1 1.542-1.633 3.7 3.7 0 0 1 2.227-.423 3.83 3.83 0 0 1 2.167.784 3.7 3.7 0 0 1 1.3 1.874m51.647 2.228a7.28 7.28 0 0 1-1.323 4.285 6 6 0 0 1-2.086 1.81 6.1 6.1 0 0 1-2.694.691 6.56 6.56 0 0 1-3.745-.836 6 6 0 0 1-1.803-1.574 5.9 5.9 0 0 1-1.034-2.14 7.7 7.7 0 0 1 .486-5.7 5.87 5.87 0 0 1 2.068-2.332 6 6 0 0 1 2.992-.967 6.35 6.35 0 0 1 4.616 1.218 6.13 6.13 0 0 1 2.396 4.06c.032.28.054.566.075.854v.002q.023.314.052.629m-10.677 0c-.011.89.17 1.772.534 2.588.27.673.736 1.255 1.339 1.671a3.83 3.83 0 0 0 2.055.674 3.7 3.7 0 0 0 2.121-.408 3.6 3.6 0 0 0 1.505-1.523 6.06 6.06 0 0 0 .103-5.747 3.6 3.6 0 0 0-1.41-1.59 3.7 3.7 0 0 0-2.08-.528 3.8 3.8 0 0 0-2.054.516 3.7 3.7 0 0 0-1.435 1.532 6 6 0 0 0-.678 2.807zm-26.841-4.1.365.143c0-.579 0-1.22.04-1.798a.28.28 0 0 0-.04-.18.3.3 0 0 0-.144-.117 7 7 0 0 0-3.57-.782 6.05 6.05 0 0 0-3.353 1.085 5.9 5.9 0 0 0-2.144 2.754 7.75 7.75 0 0 0-.502 4.034 6.8 6.8 0 0 0 1.123 3.19c1.865 2.697 5.753 3.245 8.486 1.728a.35.35 0 0 0 .136-.274v-2.048l-.232.125a6.6 6.6 0 0 1-2.55.922 3.62 3.62 0 0 1-2.29-.274 3.53 3.53 0 0 1-1.638-1.594 5.81 5.81 0 0 1 0-5.747 3.4 3.4 0 0 1 1.175-1.271 3.46 3.46 0 0 1 1.662-.535 6.35 6.35 0 0 1 2.621.328c.3.089.57.197.855.31m63.143 7.736v2.103a.38.38 0 0 1-.175.242 6.1 6.1 0 0 1-2.391.782 6.6 6.6 0 0 1-2.592-.146 6.5 6.5 0 0 1-2.324-1.136 5.74 5.74 0 0 1-2.103-3.456 7.97 7.97 0 0 1 .398-5.144 5.87 5.87 0 0 1 2.137-2.64 6.04 6.04 0 0 1 3.265-1.043 7.07 7.07 0 0 1 3.594.782.3.3 0 0 1 .153.123.3.3 0 0 1 .046.19V12.7l-.223-.094a7.8 7.8 0 0 0-2.94-.735 3.75 3.75 0 0 0-2.347.577 3.63 3.63 0 0 0-1.478 1.879 5.86 5.86 0 0 0 .279 5.136 3.56 3.56 0 0 0 1.635 1.582 3.66 3.66 0 0 0 2.277.287 6.7 6.7 0 0 0 2.526-.907zm-46.484 2.775h2.294l.016-.289v-6.583q.005-.666.128-1.321c.097-.617.35-1.2.733-1.697a2.83 2.83 0 0 1 1.306-.94 2.9 2.9 0 0 1 1.618-.084q.278.047.56.106.226.046.46.09v-1.783a.28.28 0 0 0-.052-.212.3.3 0 0 0-.187-.117 3.7 3.7 0 0 0-2.57-.057 3.63 3.63 0 0 0-1.972 1.62l-.127.212h-.048v-1.767h-2.16z" clip-rule="evenodd"/></svg>