<svg xmlns="http://www.w3.org/2000/svg" width="386" height="95" fill="none"><path fill="#fff" d="M45.054 64.233c12.28 0 19.719-6.41 19.719-17.036 0-10.594-7.439-16.97-19.6-16.97H30.766v34.006zm-5.766-6.16V36.388h5.432c7.557 0 11.551 3.254 11.551 10.809 0 7.588-3.995 10.876-11.571 10.876zM0 26.989h10.796v41.023H0zm84.205 0h10.796v41.023H84.205zM26.99 10.795V0h41.022v10.796zM26.989 95V84.204h41.023V95z"/><path fill="#fff" d="M0 76.648h95v7.557H0zm0-65.852h95v7.557H0z"/><path fill="#fff" d="M10.795 0h7.557v95h-7.557zm65.853 0h7.557v95h-7.557zm41.419 76.05 2.056-6.1h9.997l2.056 6.1h6.276l-9.55-26.755h-7.548L111.79 76.05zm3.544-10.516 3.409-10.125h.216l3.409 10.125zm27.881 10.516c8.441 0 13.554-5.043 13.554-13.404 0-8.334-5.113-13.351-13.473-13.351h-9.902V76.05zm-3.964-4.847V54.142h3.734c5.194 0 7.94 2.56 7.94 8.504 0 5.97-2.746 8.557-7.954 8.557zm23.183-21.908h-6.506l9.563 26.755h7.549l9.55-26.755h-6.493l-6.71 20.328h-.257zm27.232 0h-5.858V76.05h5.858zm17.731 7.695h5.614c-.081-4.769-4.139-8.06-10.308-8.06-6.073 0-10.524 3.239-10.497 8.099-.013 3.945 2.868 6.205 7.548 7.29l3.017.731c3.017.706 4.694 1.542 4.707 3.345-.013 1.96-1.934 3.292-4.91 3.292-3.044 0-5.235-1.359-5.424-4.037h-5.668c.148 5.787 4.437 8.78 11.16 8.78 6.763 0 10.74-3.123 10.754-8.022-.014-4.455-3.49-6.82-8.306-7.865l-2.489-.575c-2.408-.535-4.423-1.398-4.383-3.318 0-1.724 1.583-2.992 4.451-2.992 2.8 0 4.518 1.228 4.734 3.332m33.275 5.683c0-8.753-5.627-13.744-12.973-13.744-7.386 0-12.973 4.99-12.973 13.744 0 8.713 5.587 13.743 12.973 13.743 7.346 0 12.973-4.99 12.973-13.743m-5.939 0c0 5.67-2.786 8.74-7.034 8.74-4.261 0-7.034-3.07-7.034-8.74s2.773-8.74 7.034-8.74c4.248 0 7.034 3.07 7.034 8.74m8.162 13.377h5.857v-9.484h4.275l5.248 9.484h6.466l-5.884-10.399c3.152-1.306 4.897-3.958 4.897-7.616 0-5.317-3.639-8.74-9.929-8.74h-10.93zm5.857-14.03v-8.1h3.95c3.382 0 5.019 1.45 5.019 4.115 0 2.652-1.637 3.984-4.992 3.984zm14.248-12.725 10.105 17.297v9.458h5.817v-9.458l10.105-17.297h-6.561l-6.317 11.523h-.271l-6.317-11.523zm-144.048-6.333c8.441 0 13.554-5.184 13.554-13.777 0-8.567-5.113-13.723-13.473-13.723h-9.902v27.5zm-3.964-4.982V20.443h3.734c5.194 0 7.94 2.632 7.94 8.742 0 6.136-2.746 8.795-7.954 8.795zm19.741 4.982h18.721v-4.794h-12.864v-6.566h11.85v-4.794h-11.85v-6.553h12.81v-4.793h-18.667zm21.208 0h11.836c6.223 0 9.537-3.223 9.537-7.6 0-4.07-2.935-6.526-6.087-6.674v-.269c2.881-.644 5.005-2.672 5.005-5.908 0-4.122-3.084-7.05-9.199-7.05h-11.092zm5.857-4.754v-7.305h4.911c2.813 0 4.558 1.612 4.558 3.881 0 2.068-1.42 3.424-4.694 3.424zm0-11.239v-6.808h4.451c2.597 0 4.071 1.33 4.071 3.317 0 2.175-1.785 3.491-4.18 3.491zm17.211 15.993h5.857v-9.749h4.275l5.249 9.749h6.466l-5.885-10.689c3.152-1.343 4.897-4.069 4.897-7.828 0-5.465-3.639-8.984-9.929-8.984h-10.93zm5.857-14.422v-8.325h3.95c3.382 0 5.019 1.49 5.019 4.23 0 2.726-1.637 4.095-4.991 4.095zm22.883-13.078h-5.858v27.5h5.858zm2.703 27.5h18.721v-4.794h-12.864v-6.566h11.85v-4.794h-11.85v-6.553h12.81v-4.793h-18.667z"/></svg>