<svg xmlns="http://www.w3.org/2000/svg" width="225" height="55" fill="none"><path fill="url(#a)" d="M15.207 9.577C6.225 10.976 0 19.085 0 27.89c0 3.983 1.25 7.674 3.383 10.7a15 15 0 0 1-.224-.356c1.81 2.953 4.448 5.402 7.872 6.857 2.92 1.31 6.87 1.963 10.134.819-8.48-1.072-13.64-10.369-12.162-18.205 1.113-5.895 6.899-11.682 13.26-10.935 6.449.701 10.159 7.119 8.174 11.49-1.146 2.525-3.378 3.515-5.43 3.433-1.53-.093-3.204-1.003-3.844-2.469-.346-.792-.465-1.91.06-2.655.34-.481.98-.527.992-.24.005.15-.044.342-.044.517a2.538 2.538 0 0 0 4.892.947c.801-1.99.075-3.872-1.363-4.998-2.35-1.841-6.035-1.651-8.186.467-1.942 1.911-2.853 5.132-2.446 8.222.09.835.496 1.948.837 2.685 2.467 5.328 8.674 7.23 13.874 4.322 4.33-2.422 7.274-7.782 7.16-12.7-.24-10.38-8.851-16.583-17.921-16.583-1.27 0-2.546.12-3.81.369"/><path fill="#444" d="M60.721 32.844c-.843 1.684-2.738 3.075-5.393 3.075-2.99 0-5.14-1.77-6.192-4.634l10.194-3.75c1.306-.463 2.149-1.348 2.149-2.949 0-2.948-2.443-6.192-7.878-6.192-5.56 0-10.068 4.339-10.068 10.363 0 6.529 4.34 10.7 9.984 10.7 5.35 0 8.173-3.707 8.551-6.193.085-.842-.884-1.01-1.347-.42M52.76 19.995c2.444 0 4.002 3.033 4.002 4.76 0 .843-.337 1.432-1.095 1.77l-6.993 3.033a13.6 13.6 0 0 1-.253-2.697c0-4.044 1.684-6.866 4.339-6.866"/><path fill="#444" d="M72.75 39.477c5.182 0 8.004-3.285 8.425-6.57.127-.886-.927-1.012-1.347-.38-.928 1.812-2.697 3.454-5.435 3.454-4.508 0-7.498-3.707-7.498-9.478 0-3.623 1.895-6.487 4.844-6.487 4.213 0 4.086 5.602 7.118 5.771 1.56.042 2.15-.843 2.15-1.812 0-2.823-3.75-5.603-8.468-5.56-5.728.042-10.616 4.044-10.616 10.446 0 5.899 4.719 10.616 10.827 10.616m17.961-.062c5.434 0 8.847-2.57 8.847-5.855 0-8.341-12.258-4.677-12.258-10.406 0-1.81 1.474-3.243 3.537-3.243 4.424 0 3.287 5.308 6.236 5.308 1.095 0 1.937-.759 1.937-1.812 0-2.443-3.16-5.013-8.425-5.013-4.844 0-8.257 2.57-8.257 5.983 0 8.424 12.259 4.675 12.259 10.362 0 2.148-1.643 3.244-3.876 3.244-4.928 0-3.538-5.35-6.698-5.35-1.221 0-2.106.632-2.106 1.938 0 2.316 3.286 4.844 8.804 4.844m17.853.042c3.791 0 5.939-2.823 5.939-5.645 0-.758-1.01-.885-1.39-.21-.252 1.22-1.221 2.19-2.99 2.19-1.39 0-2.402-1.096-2.402-3.117V20.879h5.308c.422 0 .758-.295.758-.716v-.59a.754.754 0 0 0-.758-.757h-5.308l-.042-4.087c0-.59-.253-.926-.8-.926h-.632c-.422 0-.758.336-.843.926-.337 2.444-1.642 4.087-3.833 4.087h-1.306c-.463 0-.717.295-.717.757v.59c0 .421.295.716.717.716h2.4v11.754c0 4.549 2.36 6.824 5.899 6.824m34.568 0c3.791 0 5.94-2.823 5.94-5.645 0-.758-1.012-.885-1.39-.21-.253 1.22-1.222 2.19-2.992 2.19-1.39 0-2.401-1.096-2.401-3.117V20.879h5.308c.421 0 .758-.295.758-.716v-.59a.755.755 0 0 0-.758-.757h-5.308l-.041-4.087c0-.59-.254-.926-.801-.926h-.631c-.422 0-.759.336-.844.926-.337 2.444-1.642 4.087-3.833 4.087h-1.306c-.463 0-.716.295-.716.757v.59c0 .421.295.716.716.716h2.401v11.754c0 4.549 2.36 6.824 5.898 6.824m10.397-24.137c2.064 0 3.411-1.307 3.411-3.16 0-1.812-1.347-3.16-3.411-3.16-2.107 0-3.497 1.348-3.497 3.16 0 1.853 1.39 3.16 3.497 3.16m-3.117 23.716h6.402c.548 0 .927-.253.927-.632v-.168c0-.927-1.727-1.096-1.727-2.738v-16.22c0-.673-.547-1.179-1.516-.715l-4.213 2.106c-.463.253-.759.422-.759.76v.125c0 .758 1.559 1.18 1.559 2.906v11.038c0 1.642-1.559 1.81-1.559 2.738v.168c0 .38.338.632.886.632m18.805.441c5.181 0 8.004-3.285 8.424-6.57.127-.886-.926-1.012-1.347-.38-.927 1.812-2.697 3.454-5.434 3.454-4.507 0-7.499-3.707-7.499-9.478 0-3.623 1.896-6.487 4.845-6.487 4.212 0 4.085 5.602 7.119 5.771 1.558.042 2.149-.843 2.149-1.812 0-2.823-3.75-5.603-8.468-5.56-5.728.042-10.615 4.044-10.615 10.446 0 5.899 4.718 10.616 10.826 10.616M124.614 28.59c2.896-.52 4.311 1.206 4.311 3.921 0 2.763-1.068 4.61-3.316 5.07-5.287 1.082-6.268-8.042-.995-8.99m4.546 8.513c.513 1.419 1.038 2.108 2.447 2.217 1.392.107 6.569-.383 3.159-2.289-.663-.37-.825-.73-.823-4.165.003-2.252.124-4.816-.064-7.032-.336-3.996-2.658-6.475-6.612-7.259-3.964-.786-8.775 1.08-9.745 3.885-.871 2.523 1.756 3.567 3.208 1.976 1.293-1.418 2.297-5.282 5.98-4.051 1.783.596 2.139 3.02 2.215 4.76.231 5.242-.051.858-6.122 1.721-7.392 1.05-8.732 8.696-4.214 11.472 1.42.874 3.687 1.2 5.832 1.036 2.279-.173 3.578-1.232 4.739-2.271"/><defs><linearGradient id="a" x1="7.383" x2="30.339" y1="39.748" y2="14.113" gradientUnits="userSpaceOnUse"><stop stop-color="#520085"/><stop offset="1" stop-color="#6A007A"/></linearGradient></defs></svg>