<svg xmlns="http://www.w3.org/2000/svg" viewBox="0 0 2618.75 585.2"><path d="M342.87 585.2c-15.25 0-31.68-8.15-51.71-25.64-9.68-8.46-17.65-16.89-20.29-19.74-120.21-113.17-194-193.21-232.16-251.83C2.85 232.89 0 200.58 0 164.06S18.05 85.93 48.29 53.94C80.66 19.7 123.08.03 164.67 0h.13c124.3 0 200.77 144.46 203.97 150.61.18.35 16.65 31.74 44.79 62.16 34.45 37.24 69.69 56.12 104.77 56.12h.98c28.11-.28 54.46-11.26 74.19-30.91 19.7-19.62 30.55-45.74 30.55-73.53 0-57.58-46.85-104.43-104.45-104.44h-.04c-27.55 0-60.13 5.08-92.96 42.71-10.89 12.49-29.84 13.78-42.33 2.89s-13.78-29.84-2.89-42.33C430.85 6.58 483.93 0 519.57 0h.05c90.67.02 164.43 73.79 164.43 164.44 0 43.86-17.12 85.07-48.21 116.04-30.89 30.77-72.06 47.96-115.93 48.4h-1.59c-123.06.01-198.89-143.08-202.78-150.59-.51-.97-16.93-31.78-44.77-61.77C246.83 90.73 209.02 60 164.79 60h-.08c-25.18.02-51.73 12.84-72.83 35.16-19.67 20.81-31.89 47.21-31.89 68.9 0 25.03 0 46.64 29 91.19 35.08 53.89 108.29 132.93 223.8 241.63.6.56 1.17 1.15 1.72 1.76 7.85 8.67 18.2 17.99 25.4 23.17 10.12-8.27 29.55-25.8 61.73-57.92 29.93-29.88 63.73-65.3 82.2-86.14 10.99-12.4 29.95-13.54 42.35-2.55s13.54 29.95 2.55 42.35c-17.98 20.29-55.35 59.78-91.96 96.01-19.26 19.06-35.43 34.36-48.06 45.47-23.06 20.3-33.35 26.17-45.86 26.17Z" style="fill:#009681"/><path d="M1038.53 356.2H865.02c8.47 29.53 36.13 44.92 70.92 44.92 22.75 0 42.82-5.82 59.77-19.55l27.21 27.04c-19.18 22.46-52.63 38.27-93.67 38.27-63.79 0-120.88-40.35-120.88-112.31s57.99-112.31 117.31-112.31 125.78 38.68 112.85 133.94m-174.4-40.76h121.32c-3.57-30.78-31.22-46.17-59.32-46.17s-54.42 14.97-62 46.17m172.93-89.02h61.11l64.23 150.16 63.78-150.16h61.55l-97.68 216.3h-55.76l-97.24-216.3ZM1514.1 356.2h-173.51c8.47 29.53 36.13 44.92 70.92 44.92 22.75 0 42.82-5.82 59.77-19.55l27.21 27.04c-19.18 22.46-52.63 38.27-93.67 38.27-63.79 0-120.88-40.35-120.88-112.31s57.99-112.31 117.31-112.31 125.78 38.68 112.85 133.94m-174.4-40.76h121.32c-3.57-30.78-31.22-46.17-59.32-46.17s-54.42 14.97-62 46.17m351.79-91.52v53.24c-5.35-.83-9.81-1.25-15.17-1.25-45.05 0-73.15 29.12-73.15 72.38v94.42h-59.77V226.42h59.77v56.15c8.03-33.28 30.78-60.31 72.71-60.31 5.35 0 10.26.42 15.61 1.66m103.07-5.4v7.9h59.77v44.51h-59.77v171.79h-59.77V270.93h-29.44v-44.51h29.44v-14.14c0-63.64 47.28-74.04 78.06-74.04 12.04 0 28.55 1.25 41.48 8.32v43.67c-11.15-4.99-21.86-4.58-25.87-4.58-22.75 0-33.9 11.65-33.9 32.86Zm301.43 7.9v216.3h-59.77v-29.53c-12.93 19.13-36.58 33.69-71.37 33.69-47.28 0-87.42-27.45-87.42-93.17V226.43h59.77v118.13c0 31.61 18.29 52.41 49.51 52.41s49.51-20.8 49.51-52.41V226.43h59.77Zm260.26 89.01v127.28h-59.77V324.58c0-31.61-18.29-52.41-49.51-52.41s-49.51 20.8-49.51 52.41v118.13h-59.77V226.42h59.77v29.53c12.94-19.13 36.13-33.69 70.92-33.69 47.73 0 87.87 27.45 87.87 93.17m262.5-168.04v295.32h-59.77v-29.12h-1.34c-5.8 12.06-32.56 33.28-74.04 33.28-53.97 0-111.51-37.44-111.51-112.31s57.54-112.31 111.51-112.31c41.48 0 68.25 21.21 74.04 33.28h.89V147.38h60.22Zm-58.43 187.18c0-40.76-31.22-62.39-64.68-62.39s-64.68 22.04-64.68 62.39 31.22 62.39 64.68 62.39 64.68-21.63 64.68-62.39" style="fill:#33373a"/></svg>