<svg xmlns="http://www.w3.org/2000/svg" width="225" height="55" fill="none"><path fill="#000" d="M53.92 38.33q-2.738 0-4.727-1.08a7.47 7.47 0 0 1-3.045-3.102q-1.057-2.023-1.057-4.807 0-2.705 1.068-4.727 1.068-2.034 3.011-3.16 1.944-1.136 4.58-1.136 1.864 0 3.409.58 1.545.579 2.67 1.716 1.126 1.136 1.75 2.807.625 1.659.625 3.806v1.387h-15.17v-3.228h10a3.13 3.13 0 0 0-.42-1.58 2.86 2.86 0 0 0-1.125-1.079q-.705-.398-1.625-.398-.932 0-1.67.421a3.1 3.1 0 0 0-1.171 1.125 3.16 3.16 0 0 0-.455 1.602v3.284q0 1.07.42 1.875.42.796 1.194 1.239.772.443 1.84.443.74 0 1.342-.204a2.9 2.9 0 0 0 1.034-.603q.43-.397.647-.977l5.103.148q-.319 1.716-1.398 2.988-1.068 1.262-2.807 1.966-1.739.694-4.023.694m25.666-17.784L73.596 38h-6.363l-5.977-17.454h5.852l3.216 12.022h.182l3.227-12.022zm7.807 17.784q-2.74 0-4.727-1.08a7.47 7.47 0 0 1-3.046-3.102q-1.056-2.023-1.057-4.807 0-2.705 1.069-4.727 1.068-2.034 3.01-3.16 1.944-1.136 4.58-1.136 1.865 0 3.41.58 1.545.579 2.67 1.716 1.125 1.136 1.75 2.807.625 1.659.625 3.806v1.387h-15.17v-3.228h10a3.13 3.13 0 0 0-.421-1.58 2.86 2.86 0 0 0-1.125-1.079q-.704-.398-1.625-.398-.932 0-1.67.421a3.1 3.1 0 0 0-1.17 1.125 3.16 3.16 0 0 0-.455 1.602v3.284q0 1.07.42 1.875.42.796 1.193 1.239t1.841.443q.74 0 1.341-.204a2.9 2.9 0 0 0 1.034-.603q.432-.397.648-.977l5.102.148q-.318 1.716-1.398 2.988-1.068 1.262-2.806 1.966-1.74.694-4.023.694m9.202-.33V20.546h5.398v3.181h.182q.477-1.727 1.556-2.568 1.08-.852 2.512-.852.386 0 .795.057.41.046.762.147v4.83a5.3 5.3 0 0 0-1.046-.216 9 9 0 0 0-1.136-.08q-.989 0-1.784.444a3.2 3.2 0 0 0-1.239 1.215q-.443.774-.443 1.819V38zm12.189 0V20.546h5.557V38zm2.795-19.489q-1.182 0-2.022-.772-.841-.785-.841-1.887 0-1.09.841-1.863a2.85 2.85 0 0 1 2.011-.784q1.182 0 2.011.784.841.772.841 1.863 0 1.102-.841 1.887-.829.772-2 .772m14.939 2.035v4.09h-11.227v-4.09zM117.632 38V19.66q0-2.024.761-3.353a4.8 4.8 0 0 1 2.114-2q1.352-.67 3.125-.67 1.159 0 2.182.181 1.033.17 1.534.307l-.887 4.068a4.6 4.6 0 0 0-.75-.17 5 5 0 0 0-.818-.068q-.977 0-1.341.431-.363.432-.363 1.182V38zm13.677 6.523q-1 0-1.886-.16a7.6 7.6 0 0 1-1.523-.397l1.227-4.034q1.228.397 2.068.273.853-.114 1.307-1.046l.216-.523-6.204-18.09h5.818L135.548 33h.182l3.261-12.454 5.852.01-6.579 19.114a8.1 8.1 0 0 1-1.353 2.5q-.863 1.102-2.238 1.728-1.364.625-3.364.625"/><path fill="#DC2626" d="M22.807 10 38 46 0 29.556 7.614 46z"/></svg>
