<svg xmlns="http://www.w3.org/2000/svg" width="240" height="56" fill="none"><path fill="#000" fill-rule="evenodd" d="M75.988 13.518h23.473v3.705H79.675v10.865h16.099v3.687H79.675v14.57h-3.687zm33.254 0h3.595V42.64h17.922v3.704h-21.517zm32.801 18.15V13.763h3.64v17.679c0 6.827 3.687 10.67 9.863 10.67 5.944 0 9.723-3.526 9.723-10.445V13.764h3.641v17.633c0 9.224-5.392 14.017-13.457 14.017-7.972 0-13.41-4.793-13.41-13.745" clip-rule="evenodd"/><mask id="a" width="30" height="33" x="179" y="13" maskUnits="userSpaceOnUse" style="mask-type:alpha"><path fill="#fff" d="M179.141 13.764h29.17v31.65h-29.17z"/></mask><g mask="url(#a)"><path fill="#000" fill-rule="evenodd" d="m191.538 29.272-11.936-15.508h4.286l9.908 12.93 9.815-12.93h4.24l-11.936 15.463 12.396 16.187h-4.332l-10.322-13.61-10.323 13.61h-4.193z" clip-rule="evenodd"/></g><path fill="#50C8E8" fill-rule="evenodd" d="M32.728 31.748a5.71 5.71 0 0 1 0-8.186l22.02-21.604c2.304-2.26 6.039-2.26 8.342 0a5.71 5.71 0 0 1 0 8.184L41.07 31.748a5.94 5.94 0 0 1-4.171 1.695 5.94 5.94 0 0 1-4.172-1.695M43.74 42.552a5.71 5.71 0 0 1 0-8.186l11.007-10.8c2.303-2.26 6.039-2.26 8.343 0a5.71 5.71 0 0 1 0 8.185l-11.008 10.8a5.94 5.94 0 0 1-4.171 1.696 5.94 5.94 0 0 1-4.172-1.695" clip-rule="evenodd" opacity=".3"/><mask id="b" width="12" height="13" x="53" y="43" maskUnits="userSpaceOnUse" style="mask-type:alpha"><path fill="#fff" d="M53.025 43.483h11.791v11.569h-11.79z"/></mask><g mask="url(#b)"><path fill="#50C8E8" fill-rule="evenodd" d="M64.816 49.268c0 3.194-2.64 5.784-5.895 5.784-3.256 0-5.896-2.59-5.896-5.785 0-3.193 2.64-5.784 5.896-5.784s5.895 2.59 5.895 5.785" clip-rule="evenodd"/></g><path fill="#50C8E8" fill-rule="evenodd" d="M64.816 6.048c0 3.195-2.64 5.784-5.895 5.784-3.256 0-5.896-2.59-5.896-5.784S55.665.264 58.921.264s5.895 2.589 5.895 5.784m0 21.609c0 3.195-2.64 5.784-5.895 5.784-3.256 0-5.896-2.589-5.896-5.784s2.64-5.784 5.896-5.784 5.895 2.59 5.895 5.784" clip-rule="evenodd"/></svg>