<svg xmlns="http://www.w3.org/2000/svg" width="92" height="20" fill="none"><path fill="#fff" d="M31.229.518h3.04v14.756h-3.04Zm-2.397 2.384c-.47 0-.845.134-1.127.401-.282.256-.424.67-.424 1.244v.559h2.136v2.263h-2.136v7.897h-3.04V7.369h-1.912V5.106h1.912v-.64c0-1.282.331-2.277.991-2.987C25.893.77 26.847.416 28.096.417c.698 0 1.275.087 1.731.261v2.364a4.42 4.42 0 0 0-.991-.14h-.003Zm17.985 2.204-4.714 10.705c-.576 1.298-1.307 2.246-2.193 2.845-.875.617-1.949 1.011-3.223 1.185l-.703-2.326c.938-.201 1.643-.454 2.113-.761a3.04 3.04 0 0 0 1.128-1.344l.301-.66-4.206-9.642h3.183l2.617 6.597 2.697-6.595Zm5.638 10.32c-1.664 0-2.972-.468-3.926-1.403-.94-.936-1.41-2.212-1.409-3.829 0-1.055.229-1.984.684-2.786a4.696 4.696 0 0 1 1.913-1.884c.831-.454 1.791-.682 2.88-.682a6.916 6.916 0 0 1 2.154.341c.697.227 1.254.534 1.671.921l-.806 2.106a4.673 4.673 0 0 0-1.323-.742 3.888 3.888 0 0 0-1.409-.28c-.832 0-1.483.253-1.952.761-.457.495-.686 1.223-.686 2.185 0 .975.229 1.717.685 2.225.457.495 1.107.742 1.953.741.479-.004.954-.09 1.404-.256a4.98 4.98 0 0 0 1.322-.762l.806 2.105a4.825 4.825 0 0 1-1.732.923 7.823 7.823 0 0 1-2.229.316Zm10.282-2.302c.753 0 1.323-.247 1.713-.741.403-.495.604-1.243.603-2.245 0-.988-.201-1.73-.603-2.224-.39-.508-.961-.762-1.713-.762-.764 0-1.348.254-1.751.762-.402.494-.603 1.236-.603 2.224 0 1.991.784 2.986 2.354 2.986Zm0 2.306c-1.086 0-2.038-.213-2.858-.641a4.544 4.544 0 0 1-1.872-1.844c-.429-.802-.644-1.738-.644-2.807 0-1.07.215-2.005.644-2.805a4.536 4.536 0 0 1 1.872-1.846c.82-.426 1.772-.639 2.858-.641 1.086 0 2.026.214 2.819.642a4.405 4.405 0 0 1 1.855 1.844c.44.803.661 1.739.661 2.806s-.221 2.003-.661 2.807a4.397 4.397 0 0 1-1.855 1.843c-.803.424-1.743.636-2.819.636Zm12.172-2.306c.752 0 1.329-.253 1.732-.76.404-.521.606-1.263.605-2.225 0-.949-.209-1.678-.625-2.186-.403-.521-.974-.781-1.712-.781-.752 0-1.336.254-1.752.761-.415.508-.623 1.23-.623 2.167 0 .961.208 1.709.623 2.244.418.521 1.002.781 1.752.78ZM80.246.518v14.756h-3.004v-1.503a3.217 3.217 0 0 1-1.309 1.222 4.075 4.075 0 0 1-1.913.441 4.243 4.243 0 0 1-2.336-.661 4.625 4.625 0 0 1-1.606-1.886 6.599 6.599 0 0 1-.563-2.787c0-1.043.188-1.96.564-2.748a4.428 4.428 0 0 1 1.592-1.845 4.275 4.275 0 0 1 2.355-.661 3.997 3.997 0 0 1 1.873.441c.542.259.999.67 1.313 1.182V.523ZM87.29 6.97c-.577 0-1.047.167-1.409.501-.351.335-.579.823-.686 1.463h4.047c-.164-1.309-.815-1.964-1.952-1.964Zm4.571 3.469h-6.726c.053.947.301 1.641.746 2.083.44.428 1.097.642 1.972.642a5.056 5.056 0 0 0 3.015-1.018l.806 2.044a5.517 5.517 0 0 1-1.811.923 7.529 7.529 0 0 1-2.155.321c-1.719 0-3.067-.468-4.047-1.403-.978-.952-1.466-2.241-1.465-3.868-.019-.955.195-1.9.624-2.753a4.595 4.595 0 0 1 1.79-1.884 5.004 5.004 0 0 1 2.599-.682c1.436 0 2.57.468 3.403 1.404.831.922 1.247 2.173 1.247 3.754ZM15.579 7.811a7.98 7.98 0 0 0-2.775 1.65l-.001.004.001.004a12.287 12.287 0 0 0 2.373 1.857l.004-.001a7.157 7.157 0 0 1 2.424-2.483 6.888 6.888 0 0 1 3.183-1.009l.004-.002.001-.003-.001-.004-.004-.001a6.87 6.87 0 0 1-3.183-1.014 7.138 7.138 0 0 1-2.413-2.505 12.355 12.355 0 0 0-2.365 1.845v.004a7.984 7.984 0 0 0 2.75 1.659"/><path fill="#fff" d="M10.117 15.06h4.044l.003-.002.002-.004c0-1.309.347-2.595 1.006-3.726v-.002l-.001-.002a12.122 12.122 0 0 1-2.372-1.857 8.387 8.387 0 0 0-2.685 5.593m2.71-8.912a12.137 12.137 0 0 1 2.362-1.847v-.004A7.396 7.396 0 0 1 14.182.559l-.004-.001h-4.039l-.002.001-.001.002v.003a8.384 8.384 0 0 0 2.687 5.587l.001-.003Z"/><path fill="transparent" d="M10 12V2H0v10Z"/><path fill="#fff" d="m4.5 7.275-.436 1.6-.435-1.6c-.11-.402-.165-.603-.272-.769a1.254 1.254 0 0 0-.365-.364c-.164-.107-.365-.162-.768-.272l-1.6-.435 1.6-.436c.402-.109.602-.164.768-.272.146-.095.27-.219.365-.364.107-.165.162-.366.272-.769l.435-1.6.436 1.6c.109.402.164.603.272.769.095.145.219.269.364.364.165.108.366.162.769.272l1.6.436-1.6.435c-.402.11-.603.165-.769.272a1.262 1.262 0 0 0-.364.364c-.108.165-.162.366-.272.769Zm3.825 3.288c-.106.152-.165.339-.285.712l-.226.7-.227-.7c-.119-.372-.179-.558-.285-.712a1.26 1.26 0 0 0-.35-.34c-.156-.1-.344-.154-.719-.261l-.607-.173.607-.173c.376-.108.564-.161.719-.261.138-.089.257-.205.35-.34.106-.152.165-.339.285-.712l.227-.7.226.7c.119.372.179.558.285.712.093.135.212.25.351.34.155.1.343.154.718.261l.607.173-.607.173c-.375.108-.563.161-.718.261a1.25 1.25 0 0 0-.351.34Z"/></svg>
