<svg xmlns="http://www.w3.org/2000/svg" width="240" height="56" fill="none" viewBox="0 0 1311 250"><path fill="#EFFF8B" d="M218.3 0H31.34C22.69 0 14.85 3.51 9.18 9.18S0 22.69 0 31.34V218.3c0 8.65 3.51 16.49 9.18 22.16s13.51 9.18 22.16 9.18H218.3c8.65 0 16.49-3.51 22.16-9.18s9.18-13.51 9.18-22.16V31.34c0-8.65-3.51-16.49-9.18-22.16S226.95 0 218.3 0"/><path fill="#000" d="M46.81 85.81h117.02v39.01l39.01-39.01V66.43c0-5.42-2.2-10.33-5.75-13.88a19.58 19.58 0 0 0-13.88-5.75h-97.4L46.8 85.81zm0 78.01h78.01v39.01l39-39.01v-39H85.81zm616.18 29.41h16.22c15.76 0 23.26-6.43 29.53-24.79l27.08-79.42h-24.94l-10.25 33.36c-2.45 7.65-4.59 18.06-4.59 18.06h-.31s-2.45-10.41-4.9-18.06l-10.56-33.36h-26.32l23.11 60.29c3.21 8.26 4.74 12.85 4.74 16.22 0 5.36-2.91 8.26-10.25 8.26h-8.57v19.43zm-51.15-39.78c-6.12 0-10.71-2.45-10.71-8.72s3.98-8.42 13.62-10.56c5.05-1.22 9.64-2.45 12.85-4.13v9.33c0 8.42-6.43 14.08-15.76 14.08m-7.96 15.91c11.78 0 18.67-4.13 23.26-10.71h.31c.61 3.98 1.38 7.04 2.6 8.72h24.18v-1.07c-2.14-1.38-2.75-4.9-2.75-11.17v-39.48c0-9.79-3.21-17.44-9.95-22.34-5.66-4.28-13.62-6.43-25.4-6.43-23.72 0-34.89 12.39-35.5 26.93h22.95c.77-6.58 4.74-10.1 12.7-10.1 7.5 0 10.71 3.37 10.71 8.42 0 5.36-5.2 6.89-19.89 8.72-16.22 2.14-29.99 7.34-29.99 24.64 0 15.45 11.17 23.87 26.78 23.87zm-75.33-19.28c-9.64 0-15.45-8.57-15.45-22.19s5.81-22.34 15.76-22.34c10.86 0 16.22 9.49 16.22 22.65s-6.12 21.88-16.53 21.88m-6.43 19.74c10.25 0 18.36-4.9 23.11-13.01h.31v10.56h23.87V57.97h-24.94v39.94h-.46c-4.59-6.58-10.86-11.17-21.88-11.17-20.2 0-34.28 16.98-34.28 41.47 0 26.17 14.23 41.62 34.28 41.62zm-67.11-2.45h24.94V89.03h-24.94zm-58.02 0h24.94v-35.19c0-16.98 9.79-24.48 25.09-22.34h.61V88.42c-1.07-.46-2.6-.61-4.9-.61-9.49 0-15.91 4.13-21.42 13.47h-.46V89.04h-23.87v78.34zm-84.95 0h27.08v-42.54h45.45v-21.88h-45.45V80.76h54.32v-22.8h-81.4zM480.88 70.1c0 7.4-6 13.4-13.4 13.4s-13.4-6-13.4-13.4 6-13.4 13.4-13.4 13.4 6 13.4 13.4m773.55 49.68c1.68-9.33 6.58-15.3 16.07-15.3 8.11 0 13.92 5.97 14.84 15.3zm17.14 49.88c9.95 0 17.9-2.6 24.48-7.19 6.89-4.74 11.48-11.48 13.16-18.51h-24.33c-2.14 4.9-6.43 7.8-13.01 7.8-10.25 0-16.07-6.58-17.6-17.14h56.31c.15-15.91-4.44-29.53-13.77-38.1-6.73-6.12-15.61-9.79-26.78-9.79-23.87 0-40.24 17.9-40.24 41.31s15.91 41.62 41.77 41.62zm-83.96.15c22.19 0 36.57-14.08 37.18-32.13h-23.87c-1.07 8.87-5.81 13.47-13.62 13.47-10.71 0-16.07-8.87-16.07-22.8s5.36-23.11 16.07-23.11c7.04 0 11.32 4.59 12.85 11.63h24.02c-2.3-17.6-15.91-29.99-37.18-29.99-24.79 0-41.01 17.9-41.01 41.47s16.37 41.47 41.62 41.47zm-124.81-2.45h24.94v-43.3c0-9.64 5.51-16.53 13.77-16.53s12.24 5.66 12.24 13.92v45.9h24.94V116.4c0-17.44-10.1-29.69-27.24-29.69-10.86 0-18.36 4.59-24.18 13.01h-.46V89.01h-24.02v78.34zm-50.04-13.92c-6.12 0-10.71-2.45-10.71-8.72s3.98-8.42 13.62-10.56c5.05-1.22 9.64-2.45 12.85-4.13v9.33c0 8.42-6.43 14.08-15.76 14.08m-7.96 15.91c11.78 0 18.67-4.13 23.26-10.71h.31c.61 3.98 1.38 7.04 2.6 8.72h24.18v-1.07c-2.14-1.38-2.75-4.9-2.75-11.17v-39.48c0-9.79-3.21-17.44-9.95-22.34-5.66-4.28-13.62-6.43-25.4-6.43-23.72 0-34.89 12.39-35.5 26.93h22.95c.77-6.58 4.74-10.1 12.7-10.1 7.5 0 10.71 3.37 10.71 8.42 0 5.36-5.2 6.89-19.89 8.72-16.22 2.14-29.99 7.34-29.99 24.64 0 15.45 11.17 23.87 26.78 23.87zm-109.82-1.99h24.94v-43.3c0-9.64 5.51-16.53 13.77-16.53s12.24 5.66 12.24 13.92v45.9h24.94V116.4c0-17.44-10.1-29.69-27.24-29.69-10.86 0-18.36 4.59-24.18 13.01h-.46V89.01h-24.02v78.34zm-35.23 0h24.94V89.03h-24.94v78.34zm-88.84 0h27.08v-42.54h45.45v-21.88h-45.45V80.75h54.32v-22.8h-81.4zm114.71-97.57c0 7.4-6 13.4-13.4 13.4s-13.4-6-13.4-13.4 6-13.4 13.4-13.4 13.4 6 13.4 13.4"/></svg>