<svg xmlns="http://www.w3.org/2000/svg" xmlns:xlink="http://www.w3.org/1999/xlink" viewBox="0 0 652.23 196.7"><defs><linearGradient id="c" x1="118.92" x2="-45.11" y1="942.04" y2="592.2" gradientTransform="matrix(1 0 0 -1 0 902.22)" gradientUnits="userSpaceOnUse"><stop offset=".15" stop-color="#2b0aff"/><stop offset=".59" stop-color="#e40df2"/><stop offset=".78" stop-color="#f99b52"/></linearGradient><linearGradient id="a" x1="128.69" x2="-29.54" y1="921.71" y2="731.55" gradientTransform="matrix(1 0 0 -1 0 902.22)" gradientUnits="userSpaceOnUse"><stop offset="0" stop-color="#f99b52"/><stop offset=".52" stop-color="#ff5b8a"/><stop offset="1" stop-color="#2b0aff"/></linearGradient><linearGradient xlink:href="#a" id="d" x1="149.61" x2="127.83" y1="750.49" y2="814.36"/><linearGradient xlink:href="#a" id="e" x1="24.3" x2="146" y1="758.22" y2="758.22"/><linearGradient id="f" x1="161.19" x2="107.48" y1="915.79" y2="696.6" gradientTransform="matrix(1 0 0 -1 0 902.22)" gradientUnits="userSpaceOnUse"><stop offset=".15" stop-color="#2b0aff"/><stop offset=".59" stop-color="#e40df2"/><stop offset=".78" stop-color="#f6846d"/></linearGradient><linearGradient id="g" x1="83.25" x2="261.8" y1="812.67" y2="938.96" gradientTransform="matrix(1 0 0 -1 0 902.22)" gradientUnits="userSpaceOnUse"><stop offset="0" stop-color="#2b0aff"/><stop offset=".45" stop-color="#e93abf"/><stop offset="1" stop-color="#ff6c98"/></linearGradient><clipPath id="b"><path d="M0 0h170.3v196.7H0z" style="fill:none"/></clipPath></defs><g data-name="Layer 2"><g data-name="Grad Mark"><g style="clip-path:url(#b)"><path d="M24.3 63.2 109.5 14 85.2 0 0 49.2v98.3l85.2 49.2v-28.1l-60.9-35.2Z" style="fill-rule:evenodd;fill:url(#c)"/><path d="M85.2 98.3v28.1L146 91.3v42.1l-60.8 35.1v28.1l85.2-49.2V49.2Z" style="fill:#666"/><path d="M24.3 63.2v70.2l24.4-14V77.3l60.8-35.2V14Z" style="fill-rule:evenodd;fill:url(#a)"/><path d="M121.6 105.4v14l24.4 14V91.3Z" style="fill-rule:evenodd;fill:url(#d)"/><path d="M60.8 84.3v28.1l24.3 14V98.3Z" style="fill:#f99b52"/><path d="m24.3 133.4 60.9 35.2 60.8-35.2-24.4-14-36.4 21.1-36.5-21.1Z" style="fill-rule:evenodd;fill:url(#e)"/><path d="M85.2 98.3v28.1L146 91.3v42.1l-60.8 35.2v28.1l85.1-49.2V49.2Z" style="fill:url(#f)"/><path d="m60.8 84.3 24.3 14 85.2-49.2-24.3-14Z" style="fill:url(#g)"/></g><path d="M256.27 147.54a48.74 48.74 0 0 1-24.7-6.4A46.6 46.6 0 0 1 214 123.47a50.2 50.2 0 0 1-6.4-25.21A51 51 0 0 1 213.9 73a45.3 45.3 0 0 1 17.16-17.5 48.3 48.3 0 0 1 24.7-6.4 47.4 47.4 0 0 1 18.31 3.46 41.1 41.1 0 0 1 14.2 9.09 34.56 34.56 0 0 1 8.32 12.93L279.06 83a23.53 23.53 0 0 0-8.71-11.52A24.12 24.12 0 0 0 255.76 67a28.06 28.06 0 0 0-14.85 4 26.1 26.1 0 0 0-10 11 36.35 36.35 0 0 0-3.46 16.26 36.14 36.14 0 0 0 3.59 16.38 27.76 27.76 0 0 0 10.24 11 28.7 28.7 0 0 0 15 4 29.4 29.4 0 0 0 12.29-2.56 22.5 22.5 0 0 0 9.22-7.3 19 19 0 0 0 3.45-11.26v-.26h-25.48l-9.26-14.74h54.57v8.19q0 14.85-6.4 25.22A40.8 40.8 0 0 1 278 142.42a48 48 0 0 1-21.73 5.12m70.38 0q-11.4 0-17.92-5.38c-4.35-3.58-6-8.53-6-14.85 0-6 1.55-10.84 5.64-14.59s10.41-6.44 18.69-7.81l19.33-3.07v-1.92a8.38 8.38 0 0 0-3.2-6.66 12.7 12.7 0 0 0-8.45-2.68 15.3 15.3 0 0 0-9.09 2.81 15.5 15.5 0 0 0-5.63 7.43l-15.36-7.3A26.16 26.16 0 0 1 316 79.7a37 37 0 0 1 19.59-5.12 35.84 35.84 0 0 1 15.49 3.2 24.55 24.55 0 0 1 10.62 9 23.2 23.2 0 0 1 3.84 13.18V146h-17.9v-6.53a27.3 27.3 0 0 1-9.22 6.15 33.4 33.4 0 0 1-11.77 1.92M322 126.67a6 6 0 0 0 2.3 5 10.05 10.05 0 0 0 6.15 1.8 15.38 15.38 0 0 0 11.39-4.36 14.93 14.93 0 0 0 4.48-11v-2.18l-15.87 2.82a13 13 0 0 0-6.4 2.68 6.83 6.83 0 0 0-2.05 5.24m47.24-50.56h17.92v8.58a16.08 16.08 0 0 1 7.68-7.55 26.2 26.2 0 0 1 11.9-2.56 26.7 26.7 0 0 1 12.55 2.94A20.23 20.23 0 0 1 428 85.2q7.42-10.62 21.63-10.62a26.23 26.23 0 0 1 13.32 3.32 23.73 23.73 0 0 1 9.21 9.35 28.07 28.07 0 0 1 3.33 13.82V146h-19.2v-40.83q0-6.15-3.33-9.73t-8.83-3.58a11.64 11.64 0 0 0-9 3.58Q432 99 432 105.17V146h-19.2v-40.83q0-6.15-3.33-9.73t-8.83-3.58a11.64 11.64 0 0 0-9 3.58q-3.19 3.59-3.2 9.73V146h-19.2Zm109.98 0h17.92v8.58a16 16 0 0 1 7.68-7.55 26.2 26.2 0 0 1 11.9-2.56 26.66 26.66 0 0 1 12.54 2.94A20.26 20.26 0 0 1 538 85.2q7.42-10.62 21.63-10.62a26.2 26.2 0 0 1 13.31 3.32 23.7 23.7 0 0 1 9.22 9.35 28.07 28.07 0 0 1 3.33 13.82V146h-19.2v-40.83q0-6.15-3.33-9.73a11.24 11.24 0 0 0-8.83-3.58 11.61 11.61 0 0 0-9 3.58q-3.21 3.59-3.2 9.73V146h-19.2v-40.83q0-6.15-3.33-9.73a11.24 11.24 0 0 0-8.83-3.58 11.61 11.61 0 0 0-9 3.58q-3.21 3.59-3.2 9.73V146h-19.2Zm134.1 71.43q-11.39 0-17.92-5.38t-6.52-14.85a18.86 18.86 0 0 1 6.12-14.59q6.27-5.76 18.69-7.81l19.31-3.07v-1.92a8.37 8.37 0 0 0-3.19-6.66 12.72 12.72 0 0 0-8.45-2.68 15.27 15.27 0 0 0-9.09 2.81 15.45 15.45 0 0 0-5.63 7.43l-15.36-7.3A26.07 26.07 0 0 1 602.7 79.7a37 37 0 0 1 19.58-5.12 35.8 35.8 0 0 1 15.49 3.2 24.5 24.5 0 0 1 10.63 9 23.2 23.2 0 0 1 3.83 13.18V146h-17.91v-6.53a27.5 27.5 0 0 1-9.22 6.15 33.5 33.5 0 0 1-11.78 1.92m-4.6-20.87a6 6 0 0 0 2.3 5 10 10 0 0 0 6.14 1.8 15.36 15.36 0 0 0 11.39-4.36 14.93 14.93 0 0 0 4.48-11v-2.18l-15.87 2.82a13.1 13.1 0 0 0-6.4 2.68 6.86 6.86 0 0 0-2.04 5.24"/></g></g></svg>