<svg xmlns="http://www.w3.org/2000/svg" width="512" height="512" fill="none"><path fill="#010101" d="M0 0h512v512H0z"/><path fill="#fff" d="M267.695 201.902h-12.494a3.25 3.25 0 0 0-2.984 1.957l-7.07 16.297c-11.554 25.902-37.543 43.932-67.722 43.932-42.682 0-76.931-36.034-73.982-79.337 2.544-37.094 32.939-66.911 70.05-68.843 31.412-1.621 58.841 16.314 71.128 42.725.543 1.173 1.699 1.923 2.966 1.923h12.925a.308.308 0 0 0 .294-.405c-12.443-34.999-46.166-59.901-85.614-59.134-46.769.906-85.347 38.716-87.114 85.459-1.923 50.692 38.62 92.417 88.89 92.417 36.06 0 67.127-21.453 81.07-52.314l10.088-24.048a.465.465 0 0 0-.431-.647z"/><path fill="#fff" d="M220.667 173.05c-1.19 0-2.233-.715-2.716-1.793-7.105-15.521-22.789-26.308-40.983-26.308-24.885 0-45.053 20.168-45.01 45.07.017 23.92 19.203 43.933 43.104 44.916 21.376.896 39.578-13.098 45.157-32.439a.468.468 0 0 0-.448-.595h-54.349a.468.468 0 0 1-.431-.646l5.019-12.037a3.26 3.26 0 0 1 3-2.001h117.517c.337 0 .561.336.432.647l-19.565 46.639c-.078.19.078.406.284.406h12.865a2.98 2.98 0 0 0 2.751-1.828l24.014-57.642.733-1.759a.465.465 0 0 0-.431-.647h-90.943zm-96.694 188.068c-3.414 2.509-8.355 4.216-14.486 4.216-13.615 0-21.487-8.2-21.487-22.505s7.924-22.384 27.29-22.384c9.822 0 15.461 1.655 18.444 3.13v9.398c-3.259-1.138-9.114-2.845-18.012-2.845-12.426 0-17.254 4.673-17.254 12.934s4.501 13.106 14.106 13.106c4.717 0 8.244-.914 10.684-1.992v-5.699h-10.037v-8.433h20.505v24.497h-9.77v-3.415zm27.274-4.096-2.82 7.519h-10.959l17.573-43.294h13.563l17.521 43.294h-11.442l-2.88-7.519h-20.565zm17.521-8.149-7.217-18.918-7.269 18.918zm44.984 1.596h-13.236v14.072h-10.468v-43.294h26.317c9.872 0 15.9 3.871 15.9 14.296 0 7.295-2.984 11.511-8.192 13.503l9.226 15.495h-12.365l-7.165-14.072zm7.976-14.642c0-3.19-2.009-5.466-5.855-5.466h-15.357v11.226h15.624c3.475 0 5.588-2.509 5.588-5.751zm27.954 21.195-2.819 7.519h-10.96l17.573-43.294h13.563l17.522 43.294h-11.443l-2.88-7.519h-20.564zm17.521-8.149-7.217-18.918-7.269 18.918zm53.391 12.245c-3.414 2.509-8.355 4.216-14.486 4.216-13.615 0-21.487-8.2-21.487-22.505s7.924-22.384 27.29-22.384c9.822 0 15.461 1.655 18.444 3.13v9.398c-3.259-1.138-9.114-2.845-18.012-2.845-12.426 0-17.254 4.673-17.254 12.934s4.501 13.106 14.106 13.106c4.717 0 8.252-.914 10.692-1.992v-5.699h-10.036v-8.433h20.504v24.497h-9.769v-3.415zm56.866-30.757h-28.54v7.579h25.609v9.002H348.92v8.829h28.972v8.77h-39.44v-43.294h39.008zm5.864 4.44c0-9.053 5.587-14.356 20.996-14.356 9.114 0 15.133 1.655 17.737 3.302v9.287c-2.984-1.311-10.201-3.303-18.229-3.303-5.854 0-10.148 1.251-10.148 4.726s2.276 3.931 9.381 4.388c15.245.914 20.185 3.76 20.185 12.589 0 10.201-7.32 13.9-21.047 13.9-7.485 0-14.978-1.423-18.392-3.251v-9.002c3.095 1.363 9.821 3.191 17.685 3.191s11.338-1.423 11.338-4.674c0-2.509-1.414-3.414-10.088-4.044-13.891-.914-19.418-3.759-19.418-12.761zm-110.602 41.924v33.74h-5.588c.069-9.106.138-18.211.216-27.437-.129.215-.207.327-.267.448a22857 22857 0 0 0-13.469 24.945c-.181.337-.371.449-.75.44a212 212 0 0 0-5.225 0c-.362 0-.552-.103-.716-.422-4.475-8.278-8.959-16.547-13.443-24.816a1.3 1.3 0 0 0-.327-.431c.103 9.079.207 18.159.319 27.273h-5.665v-33.749h7.484c.319 0 .466.104.612.379 4.751 8.856 9.52 17.711 14.279 26.567.078.138.147.276.25.457.095-.164.173-.294.25-.423 4.691-8.829 9.373-17.659 14.055-26.497.19-.362.397-.483.811-.483 2.224.026 4.449.009 6.674.009h.517zm-148.421 33.774c-1.535 0-3.052 0-4.561-.008-.138 0-.302-.138-.406-.25-2.81-3.01-5.613-6.028-8.415-9.037-4.975-5.346-9.951-10.683-14.917-16.029-.078-.087-.138-.173-.216-.259l-.12.034.224 25.532h-5.717v-33.723c.13 0 .267-.026.397-.026h3.992a.8.8 0 0 1 .655.285c7.433 7.984 14.874 15.96 22.307 23.936.405.431.81.871 1.319 1.293l-.207-25.488h5.665v33.749zm62.747-15.046c-.095-1.328-.086-2.604-.293-3.855-.242-1.431-1.328-2.216-2.604-2.724-1.346-.526-2.768-.673-4.2-.768-4.742-.327-9.338.423-13.813 1.949a4 4 0 0 1-.328.095c-.026 0-.051 0-.103-.017 0-.087-.026-.182-.026-.276v-4.113c0-.259.086-.363.319-.449 2.216-.862 4.535-1.293 6.889-1.595a42.5 42.5 0 0 1 9.244-.172c1.983.181 3.923.534 5.751 1.371 2.673 1.215 4.148 3.319 4.527 6.199.103.768.129 1.552.138 2.328.009 5.502 0 10.994 0 16.495v.569h-5.294v-3.259c-.156.078-.25.121-.337.173-4.104 2.448-8.536 3.742-13.339 3.569-1.759-.06-3.492-.336-5.139-1.026-2.949-1.241-4.639-3.432-4.897-6.648-.13-1.638 0-3.251.801-4.742.88-1.63 2.285-2.613 3.967-3.268 1.578-.612 3.225-.845 4.889-.992 2.371-.207 4.76-.258 7.122.026 2.078.25 4.13.673 6.191 1.018.138.025.276.06.535.112m-.181 3.268c-.112-.035-.19-.069-.276-.078a52.5 52.5 0 0 0-10.528-.767c-1.371.043-2.742.172-4.062.586-.94.293-1.767.75-2.302 1.621-.405.664-.526 1.405-.543 2.156-.035 1.293.345 2.414 1.431 3.224.914.682 1.975.975 3.07 1.147 1.974.302 3.949.19 5.906-.181 2.156-.405 4.208-1.086 6.114-2.207.793-.466 1.353-.957 1.216-2.044-.13-1-.026-2.035-.026-3.052v-.414zm-27.869.414h-23.677c.207 2.897 1.405 5.078 4.147 6.26 1.544.664 3.173.948 4.829 1.017 3.725.155 7.407-.164 11.045-1.017.906-.216 1.785-.518 2.717-.785 0 .095.017.207.017.31 0 1.199-.009 2.406.008 3.605 0 .31-.112.439-.379.552-1.5.612-3.078.948-4.665 1.233-3.164.56-6.337.827-9.554.62-2.552-.163-5.027-.62-7.346-1.733-2.949-1.414-4.967-3.647-5.907-6.794-.983-3.286-1.008-6.614-.224-9.925.802-3.389 2.777-5.915 5.976-7.433 2.069-.983 4.259-1.414 6.518-1.586 2.535-.19 5.07-.13 7.562.414 1.958.431 3.777 1.198 5.303 2.526 1.595 1.388 2.578 3.156 3.096 5.2.629 2.466.724 4.958.543 7.544zm-5.509-4.027c-.061-.526-.087-1.035-.173-1.535-.483-2.742-2.009-4.553-4.768-5.225-2.423-.587-4.855-.543-7.295-.13-1.224.216-2.388.604-3.38 1.38-1.785 1.388-2.423 3.328-2.613 5.493h18.22zm153.904 4.009h-23.634c.138 2.768 1.293 5.001 3.983 6.208 1.578.707 3.242 1.009 4.95 1.078a41.4 41.4 0 0 0 11.088-1.017c.759-.173 1.492-.449 2.234-.673.146-.043.293-.095.465-.155 0 1.397 0 2.759-.017 4.113 0 .129-.181.319-.31.362-1.259.379-2.51.811-3.786 1.078-3.466.716-6.967 1.035-10.511.802-2.517-.164-4.966-.638-7.269-1.716-3-1.414-5.001-3.691-5.949-6.855-.974-3.259-.992-6.562-.216-9.847.914-3.889 3.32-6.545 7.079-7.941 3.027-1.121 6.183-1.294 9.373-1.156 1.561.069 3.096.276 4.605.724 4.044 1.199 6.596 3.803 7.527 7.933.518 2.302.604 4.639.405 7.062zm-23.669-4.009h18.134c0-.078.017-.13.008-.182-.052-.491-.06-.991-.155-1.474-.5-2.587-1.923-4.372-4.536-5.036a16.64 16.64 0 0 0-8.726.113c-3.112.879-4.621 3.543-4.725 6.579m-67.273-11.761v4.673c0 .276-.19.276-.371.276-.888.035-1.785.043-2.673.104-2.983.215-5.812 1-8.511 2.285-.37.172-.465.396-.465.776.008 6.13 0 12.27 0 18.4v.587c-.173.017-.311.034-.449.034-1.56 0-3.112-.009-4.673.009-.388 0-.474-.13-.474-.492.008-8.562.008-17.133 0-25.695 0-.38.112-.483.483-.474 1.474.017 2.949.017 4.414 0 .337 0 .449.103.44.431-.017.715 0 1.431 0 2.25a25.3 25.3 0 0 1 5.915-2.466c2.061-.56 4.165-.741 6.355-.715z"/></svg>