<svg xmlns="http://www.w3.org/2000/svg" width="225" height="55" fill="none"><path fill="#1A1A1A" d="M58.108 28.33c-.339.371-.644.75-.984 1.097-.734.752-1.545 1.39-2.574 1.694-2.29.673-4.847-.512-5.566-3.003-.415-1.442-.369-2.874.058-4.304.016-.052.07-.113.02-.157-.05-.046-.108.013-.159.032-.536.2-1.078.369-1.652.421-.1.01-.128.063-.151.143-.385 1.376-1.155 2.542-2.06 3.615-.992 1.178-2.178 2.118-3.608 2.718-.535.22-1.1.357-1.676.407-1.209.115-2.2-.308-2.984-1.228-.726-.854-1.12-1.86-1.327-2.945a7.4 7.4 0 0 1-.023-2.621c.007-.042.039-.095-.012-.123-.05-.027-.083.019-.122.039-.566.292-1.146.545-1.781.647-.095.015-.193.046-.286.034-.218-.025-.277.093-.33.276-.72 2.541-2.292 4.403-4.582 5.676-.66.367-1.367.629-2.125.698-1.802.167-3.143-.584-4.028-2.132-.628-1.098-.722-2.291-.471-3.523.207-1.017.664-1.92 1.22-2.783.903-1.399 1.94-2.678 3.28-3.69.958-.726 2.011-1.194 3.23-1.251 1.912-.092 3.137 1.246 3.477 2.736.117.514.115 1.032.036 1.55-.025.162.018.187.166.162.65-.109 1.196-.444 1.742-.781.934-.578 1.649-1.376 2.272-2.265.144-.205.28-.415.43-.616.285-.383.663-.557 1.14-.479.11.018.185-.023.263-.084.626-.486 1.317-.851 2.096-1.009 2.409-.485 4.479.467 5.617 2.508.217.388.34.821.36 1.266.012.257.188.445.237.684.022.106.136.035.2.018a5.2 5.2 0 0 0 1.846-.878c.809-.602 1.576-1.253 2.35-1.9.215-.18.438-.354.657-.531s.453-.291.732-.309c.134-.008.241-.08.353-.141.635-.351 1.303-.605 2.03-.677.969-.095 1.861.125 2.66.682.468.32.877.717 1.212 1.174.032.043.053.103.13.119q.258-1.12.628-2.21c.354-1.023.685-2.054 1.099-3.056.087-.213.082-.214-.152-.218-2.08-.03-4.151-.187-6.221-.38-2.234-.208-4.434-.6-6.636-1.006a69 69 0 0 0-3.612-.556 78 78 0 0 0-9.054-.635 23 23 0 0 0-5.304.57 22 22 0 0 0-6.107 2.369c-.434.247-.84.541-1.265.805a1.08 1.08 0 0 1-1.067.077 1.128 1.128 0 0 1-.18-1.968q.919-.654 1.906-1.194c1.418-.76 2.9-1.362 4.43-1.853.983-.317 1.999-.51 3.012-.704 2.22-.424 4.463-.43 6.71-.327 1.448.067 2.895.152 4.339.283a75 75 0 0 1 5.738.748c1.904.322 3.804.721 5.726.952q2.398.287 4.81.429c.91.052 1.818.112 2.73.115.385 0 .77-.014 1.155-.013.134 0 .206-.045.26-.171a37 37 0 0 1 2.125-4.244c.992-1.713 2.28-3.175 3.941-4.277.836-.554 1.755-.88 2.773-.826 1.167.061 2.11.53 2.667 1.602.332.638.356 1.328.251 2.028-.196 1.32-.803 2.446-1.624 3.476-1.147 1.437-2.576 2.501-4.222 3.302-1.103.535-2.234.968-3.446 1.172q-.398.067-.799.113c-.11.013-.172.054-.211.158-.658 1.78-1.276 3.572-1.733 5.416-.273 1.108-.552 2.214-.82 3.322-.385 1.59-.641 3.205-.868 4.824-.116.82-.248 1.634-.298 2.462-.04.68-.59 1.087-1.213.963a1 1 0 0 1-.794-.882c-.047-.442-.025-.886 0-1.326zm-7.125-2.378q-.016.528.08 1.049c.08.416.182.827.452 1.172a2.23 2.23 0 0 0 2.665.657c.549-.246.98-.647 1.39-1.076.928-.972 1.512-2.153 2.04-3.369a.32.32 0 0 0 .014-.206c-.052-.212-.016-.42.022-.63.108-.598.2-1.197.173-1.812-.033-.75-.334-1.34-.935-1.788-.366-.274-.77-.402-1.223-.355-.564.057-1.062.294-1.508.627-1.21.906-2.065 2.086-2.637 3.479-.31.746-.54 1.507-.535 2.252zm-8.626-6.505c-.867-.023-1.48.235-2.037.662-.706.539-1.204 1.258-1.672 1.995-.847 1.336-1.245 2.778-.945 4.363.124.655.36 1.268.785 1.797.306.38.695.52 1.177.444a4.3 4.3 0 0 0 1.532-.54c1.203-.706 2.15-1.671 2.898-2.84.154-.242.16-.239-.118-.29a.99.99 0 0 1-.822-.895c-.04-.437.213-.886.636-1.015.313-.095.509-.293.655-.552.5-.895.448-1.681-.334-2.41-.547-.507-1.18-.736-1.757-.719zM29.863 26.31h-.226a.997.997 0 0 1-.975-1.185c.072-.395.251-.721.582-.961.479-.35.87-.806 1.142-1.332.228-.43.342-.882.3-1.37-.064-.752-.586-1.177-1.328-1.102-.64.064-1.196.324-1.7.705-1.484 1.119-2.578 2.563-3.406 4.208-.365.727-.535 1.514-.332 2.332.162.65.494 1.186 1.137 1.46.478.204.966.146 1.447-.016 1.03-.346 1.864-.98 2.601-1.759.277-.292.54-.596.758-.98M71.884 5.134c.008-.583-.196-.804-.681-.843l-.115-.006c-.582-.024-1.073.219-1.535.531-1.008.68-1.796 1.582-2.521 2.542-.587.776-.99 1.66-1.441 2.515-.213.402-.417.809-.622 1.214-.019.037-.061.083-.019.12.021.018.072.007.109.002a1 1 0 0 0 .112-.027c1.031-.252 1.96-.742 2.888-1.24 1.247-.672 2.234-1.625 3.04-2.773.446-.64.745-1.343.785-2.035"/><path fill="#1A1A1A" d="M72.972 33.568c-.116.02-.165.082-.223.13-1.322 1.08-2.366 2.395-3.226 3.862-.679 1.155-1.387 2.292-2.263 3.315-.742.864-1.6 1.572-2.65 2.026-1.262.545-2.542.172-3.32-.959a3.65 3.65 0 0 1-.633-1.533c-.006-.048.01-.119-.042-.137-.067-.024-.093.053-.127.093-.652.764-1.348 1.485-2.183 2.048-1.089.734-2.25 1.28-3.588 1.428-1.602.177-2.615-.652-3.235-2.002-.097-.214-.084-.217-.233-.042-.922 1.087-1.99 1.99-3.34 2.491-.958.355-1.951.45-2.94.105-.983-.343-1.635-1.053-2.088-1.965-.575-1.159-.616-2.378-.406-3.626q.1-.578.25-1.145c.014-.054.038-.11.007-.19-.239.132-.465.275-.71.385-.598.268-1.204.51-1.866.566-.13.01-.133.094-.145.184-.149 1.144-.523 2.212-1.161 3.17-1.16 1.741-2.685 3.042-4.713 3.672-1.049.324-2.098.326-3.108-.18-.93-.468-1.527-1.24-1.929-2.168-.701-1.617-.723-3.27-.08-4.905.896-2.276 2.338-4.145 4.346-5.552.924-.648 1.958-.962 3.105-.838 1.63.179 3.112 1.507 3.45 3.11.063.314.078.637.045.956-.026.299-.019.309.28.222a4.9 4.9 0 0 0 1.686-.855c.866-.677 1.54-1.516 2.143-2.426.155-.235.322-.462.488-.691.463-.634 1.795-.503 2.093.171.103.233.143.466.086.71-.157.664-.432 1.288-.664 1.926-.428 1.173-.904 2.33-1.203 3.546-.151.611-.261 1.233-.223 1.865.038.624.227 1.194.678 1.65.213.217.474.316.777.325.858.025 1.563-.344 2.216-.847 1.153-.888 1.974-2.041 2.614-3.33.644-1.296 1.051-2.682 1.448-4.069.13-.455.243-.917.42-1.357a1.133 1.133 0 0 1 2.15.13c.093.336 0 .662-.085.984-.286 1.044-.588 2.083-.83 3.14-.245 1.081-.482 2.164-.517 3.279-.014.411.013.806.32 1.131a.6.6 0 0 0 .491.204c.775-.022 1.456-.325 2.118-.689 1.026-.563 1.807-1.402 2.542-2.29 1.026-1.24 1.927-2.566 2.649-4.002.572-1.139 1.03-2.331 1.47-3.529.698-1.892 1.419-3.779 2.11-5.673.554-1.516 1.08-3.042 1.62-4.564q.07-.2.154-.394c.255-.559.838-.825 1.401-.643.558.181.89.73.753 1.324-.126.549-.298 1.088-.456 1.627a78 78 0 0 1-1.891 5.69c-.72 1.9-1.456 3.792-2.304 5.64-.5 1.09-.83 2.247-1.163 3.397-.21.727-.385 1.464-.43 2.222-.023.375.068.71.298 1.008.108.14.237.184.405.134.44-.133.798-.405 1.15-.683.596-.47 1.04-1.078 1.488-1.68.631-.851 1.129-1.788 1.69-2.683.992-1.58 2.183-2.991 3.695-4.086 1.245-.902 2.632-1.538 4.177-1.76.924-.133 1.83-.047 2.698.317.548.231.834.765.716 1.339-.103.5-.614.913-1.177.851-.624-.068-1.1.165-1.528.566-.675.633-1.32 1.29-1.749 2.127-.749 1.464-.826 2.95-.231 4.482.281.724.512 1.466.561 2.248.127 2.02-.684 3.62-2.203 4.905-1.695 1.434-3.671 2.249-5.838 2.63-2.144.38-4.304.455-6.479.367-2.263-.091-4.521-.255-6.778-.423-2.44-.182-4.88-.259-7.325-.148a52 52 0 0 0-5.15.486c-1.938.276-3.846.699-5.75 1.146-1.27.3-2.552.575-3.796.977-1.59.515-3.188 1.012-4.754 1.6-.198.075-.385.173-.578.262-.527.244-1.097.088-1.36-.374-.279-.49-.129-1.063.372-1.39.557-.361 1.175-.6 1.779-.865 2.417-1.058 4.939-1.78 7.51-2.36 1.318-.297 2.633-.616 3.961-.872a51 51 0 0 1 4.49-.655 56 56 0 0 1 7.836-.254c1.199.044 2.394.139 3.59.22 2.061.141 4.12.304 6.185.372 1.38.045 2.757.045 4.132-.1 1.47-.154 2.923-.39 4.29-.998.945-.42 1.806-.967 2.547-1.694 1.015-.999 1.27-2.187.872-3.533-.169-.57-.382-1.127-.544-1.701-.389-1.383-.322-2.746.109-4.11.197-.618.45-1.218.754-1.791m-35.504 5.865c-.09-.039-.14.042-.2.077-.357.21-.732.37-1.15.408-.567.054-1.049-.275-1.153-.793-.108-.535.205-1.025.762-1.184q.207-.051.385-.168a4.8 4.8 0 0 0 1.147-1.1c.216-.298.393-.622.43-.994.06-.598-.503-1.339-1.132-1.533-.669-.206-1.264-.027-1.83.325-.83.515-1.488 1.212-2.083 1.975-.678.868-1.27 1.782-1.594 2.852s-.264 2.118.253 3.115c.406.785.955 1.062 1.795.937a3.5 3.5 0 0 0 1.04-.331 7.1 7.1 0 0 0 2.664-2.272c.288-.402.522-.836.66-1.316l.02-.02h-.023zm-18.584-8.989-.067.208c-.154.27-.275.553-.325.862l-.058.177c-.128.097-.127.256-.174.387-.13.364-.308.712-.38 1.096l-.027.094c-.103.085-.116.206-.13.325l-.036.097c-.146.176-.185.403-.265.607-.11.277-.275.535-.313.838l-.017.06c-.162.269-.308.546-.372.858l-.06.14c-.099.044-.111.146-.14.23-.022.065-.115.142-.033.201s.186.073.27-.02l.076-.006c.15.044.31.042.46-.005.103-.03.231.049.308-.077l.077-.007c.05.05.107.029.163.021q1.085-.139 2.136-.443a13.6 13.6 0 0 0 2.221-.838c.154-.077.341-.116.447-.275a.03.03 0 0 1 .014-.01q.007-.004.017-.003c.096-.02.192-.038.238-.145a.02.02 0 0 1 .024-.014c.05.011.083-.006.091-.061a.023.023 0 0 1 .026-.015.067.067 0 0 0 .09-.062.02.02 0 0 1 .008-.012.02.02 0 0 1 .015-.004c.077.014.115-.025.132-.096a.025.025 0 0 1 .026-.017.1.1 0 0 0 .087-.02.1.1 0 0 0 .041-.078.025.025 0 0 1 .025-.017.4.4 0 0 0 .283-.215l.302-.243a.107.107 0 0 0 .122-.102l.108-.09a.164.164 0 0 0 .16-.14l.108-.092q.114-.001.121-.112a.174.174 0 0 0 .156-.147c.25-.251.49-.512.761-.742.085.007.122-.062.17-.11.361-.353.804-.41 1.245-.247.39.145.63.463.64.911a.26.26 0 0 0 .056.178l-.007.116c-.073.027-.054.093-.06.147a.9.9 0 0 1-.11.36c-.309.557-.687 1.078-.933 1.67-.141.339-.309.67-.367 1.04l-.024.094c-.068.01-.067.07-.08.115-.07.243-.15.483-.2.73-.026.12-.078.242-.04.371l-.01.094a.106.106 0 0 0-.026.138l-.014.132c-.116.25-.093.508-.053.768v.077c-.087.127-.087.534 0 .66v.077c-.063.16-.02.327-.024.49-.018.813.034 1.626-.032 2.439-.018.22-.082.442-.034.667l-.009.095c-.056.049-.049.11-.031.172l-.011.098c-.047.084-.111.165-.046.27l-.009.074c-.08.036-.075.092-.035.154l-.012.075c-.052.02-.047.068-.056.111q-.18.84-.478 1.647c-.095.254-.241.49-.277.766l-.057.134c-.174.209-.282.452-.371.706a.024.024 0 0 1-.01.026c-.108.045-.133.139-.146.24l-.09.144a.9.9 0 0 0-.302.449.03.03 0 0 1-.015.01.11.11 0 0 0-.092.085.1.1 0 0 0-.001.044.03.03 0 0 1-.018.026.11.11 0 0 0-.099.126l-.051.067c-.088.022-.14.072-.139.168l-.053.064a.16.16 0 0 0-.143.16c-.095.012-.15.062-.15.162q-.115.15-.266.264c-.1 0-.149.056-.163.15a.165.165 0 0 0-.16.14l-.066.055a.11.11 0 0 0-.114.057.1.1 0 0 0-.012.044l-.109.089a.066.066 0 0 0-.084.063.02.02 0 0 1-.008.014.02.02 0 0 1-.016.005q-.08-.017-.09.066l-.066.048c-.109.02-.199.065-.243.175a.03.03 0 0 1-.012.012.03.03 0 0 1-.017.004c-.074.003-.14.02-.162.104l-.146.088c-.116.005-.2.077-.296.125-.44.217-.892.407-1.375.51-.215.047-.442.04-.646.137l-.13.01a3.3 3.3 0 0 0-.777 0l-.13-.01c-.023-.037-.061-.04-.1-.046-.394-.063-.787-.129-1.167-.267-.226-.081-.43-.215-.668-.266a.03.03 0 0 1-.016-.002.02.02 0 0 1-.01-.01c-.026-.085-.09-.107-.17-.102l-.098-.064a.38.38 0 0 0-.284-.206l-.064-.05a.11.11 0 0 0-.124-.107 2.3 2.3 0 0 1-.46-.46.42.42 0 0 0-.22-.277l-.091-.14c.012-.05-.005-.084-.06-.092a.03.03 0 0 1-.011-.012.03.03 0 0 1-.003-.017c.008-.077-.041-.132-.072-.193a5 5 0 0 1-.44-1.131c-.023-.101-.032-.214-.105-.3l-.009-.056c.018-.066.035-.13-.034-.179l-.015-.115c.051-.11.027-.227.012-.337-.065-.487.006-.963.097-1.438.074-.39.253-.744.371-1.117a.03.03 0 0 1 .01-.027c.108-.045.13-.141.145-.241a.024.024 0 0 1 .014-.027c.054-.008.07-.041.06-.092q0-.008.004-.015a.02.02 0 0 1 .011-.009.23.23 0 0 0 .144-.2l.053-.068a.1.1 0 0 0 .078-.039.1.1 0 0 0 .024-.084q.178-.241.417-.423a.16.16 0 0 0 .166-.14l.069-.05c.049.007.077-.01.085-.062a.025.025 0 0 1 .027-.018.07.07 0 0 0 .06-.009.07.07 0 0 0 .027-.055.02.02 0 0 1 .01-.012.02.02 0 0 1 .015-.003c.116 0 .201-.077.283-.137.146-.107.351-.108.462-.27l.058-.02a3.4 3.4 0 0 0 .867-.318l.125-.038c.157.016.3-.05.45-.077a1.022 1.022 0 0 1 1.202.975c.01.27-.136.473-.198.71l-.055.066c-.023.009-.052.012-.068.028-.251.261-.565.403-.906.511-.287.092-.592.159-.827.37l-.103.062c-.05-.01-.082.008-.088.062l-.071.05a.107.107 0 0 0-.122.102l-.16.162q-.11.018-.1.129a.024.024 0 0 1-.016.025c-.077.016-.112.06-.09.14l-.035.05a.07.07 0 0 0-.055.066q0 .015.006.03l-.024.06c-.158.14-.147.335-.166.52l-.01.06c-.033.022-.046.046-.008.077l-.01.074c-.083.032-.053.106-.057.165-.03.34.034.672.121.997.052.193.103.389.25.54q.067.11.131.219a.07.07 0 0 0 .01.061.07.07 0 0 0 .056.027l.232.238a.11.11 0 0 0 .08.1.1.1 0 0 0 .045.003l.068.05a.066.066 0 0 0 .06.062q.017 0 .031-.005.01-.001.017.004a.03.03 0 0 1 .01.013c.01.053.043.068.092.058q.008-.001.014.001a.02.02 0 0 1 .011.01c.097.148.256.154.407.174l.056.014c.056.048.11.108.193.045l.074.01c.049.093.12.07.193.038l.077.008a.78.78 0 0 0 .625 0l.077-.008c.072.031.143.055.192-.037l.075-.01a1.14 1.14 0 0 0 .707-.242.03.03 0 0 1 .016 0 .065.065 0 0 0 .09-.042l.088-.047q.082.032.1-.054l.145-.088c.078 0 .142-.02.163-.105l.07-.048c.107-.024.199-.067.239-.18l.07-.05a.07.07 0 0 0 .059-.012.07.07 0 0 0 .026-.054l.146-.127c.093-.005.143-.059.16-.146l.236-.234a.163.163 0 0 0 .146-.158l.126-.148a.068.068 0 0 0 .067-.082l.087-.11a.07.07 0 0 0 .054-.027.07.07 0 0 0 .011-.059q0-.01.006-.018a.03.03 0 0 1 .016-.01.11.11 0 0 0 .09-.13.03.03 0 0 1 .018-.026.064.064 0 0 0 .065-.057.1.1 0 0 0-.004-.03.026.026 0 0 1 .018-.029.07.07 0 0 0 .05-.03.07.07 0 0 0 .008-.058q0-.01.003-.017a.03.03 0 0 1 .012-.01c.055-.008.072-.04.06-.093q-.002-.008.003-.014a.02.02 0 0 1 .013-.01c.082-.025.1-.09.101-.165l.002-.016a.03.03 0 0 1 .01-.012.1.1 0 0 0 .083-.07c.127-.264.266-.523.378-.793.342-.81.57-1.665.675-2.539.017-.145.09-.295.018-.446l.007-.076c.11-.133.068-.28.034-.423l.004-.077c.095-.036.06-.119.06-.182q-.007-.622-.02-1.243c-.02-.778-.058-1.558.018-2.336.01-.104.035-.215-.017-.319l.007-.075c.108-.081.043-.203.069-.303q.08-.326.134-.658c.01-.06.045-.193-.094-.137a1.6 1.6 0 0 0-.52.305l-.139.064a2.9 2.9 0 0 0-.822.365l-.064.02c-.35.058-.664.228-1.001.333-.008.002-.01.022-.014.033l-.095.023c-.197.024-.394.048-.558.174l-.094.022a2 2 0 0 0-.714.181l-.057.01c-.051-.019-.099-.018-.136.03l-.055.01c-.27.01-.54.038-.791.144l-.059.007c-.062-.02-.122-.027-.172.03l-.096.01c-.231-.01-.46-.012-.677.087l-.077.007c-.262-.061-.516-.005-.77.057l-.195.01c-.415-.048-.831-.011-1.247-.014a.07.07 0 0 0-.061.062l-.004.004q-.082.01-.064.09l-.059.103c-.12.054-.148.166-.173.28a.03.03 0 0 1-.014.029c-.128.05-.15.165-.18.277l-.045.071c-.113.058-.163.158-.184.277a.03.03 0 0 1-.018.028c-.108.045-.153.135-.174.243l-.046.067a.22.22 0 0 0-.145.204q0 .008-.004.015a.03.03 0 0 1-.012.01q-.112.02-.098.132l-.131.177q-.079.009-.065.087a.03.03 0 0 1-.02.027c-.08.027-.134.077-.132.169a.03.03 0 0 1-.02.024.11.11 0 0 0-.095.08.1.1 0 0 0-.003.045l-.051.068a.1.1 0 0 0-.08.04.1.1 0 0 0-.022.087l-.053.065a.16.16 0 0 0-.14.164l-.125.145a.068.068 0 0 0-.071.08l-.035.038q-.119.008-.112.126 0 .009-.005.016a.02.02 0 0 1-.014.007.113.113 0 0 0-.106.116c-.126.056-.224.138-.262.278q-.21.251-.46.46c-.126.026-.197.11-.24.223l-.143.125a.66.66 0 0 0-.355.305l-.142.121a.52.52 0 0 0-.322.257l-.067.048a.07.07 0 0 0-.08.036.1.1 0 0 0-.007.03q0 .008-.006.013a.72.72 0 0 0-.429.304.02.02 0 0 1-.016.003 1.5 1.5 0 0 0-.6.383.03.03 0 0 1-.017.002c-.098.015-.195.035-.24.14a.03.03 0 0 1-.028.014c-.15.037-.296.083-.397.212l-.059.023c-.135.03-.277.044-.364.175l-.056.02a.65.65 0 0 0-.407.167l-.093.026a3.5 3.5 0 0 0-.87.27l-.075.015c-.052-.05-.106-.017-.16-.005-.213.044-.424.083-.637.127-.082.017-.183-.038-.244.061l-.077.007a6.3 6.3 0 0 0-1.226 0l-.077-.007c-.017-.054-.063-.053-.108-.056q-.34-.03-.669-.12c-.157-.039-.308-.107-.477-.1l-.094-.023c-.122-.122-.283-.142-.441-.172l-.06-.02c-.085-.129-.223-.15-.359-.176h-.015a.03.03 0 0 1-.012-.01c-.07-.124-.193-.154-.318-.183a.03.03 0 0 1-.016-.002.03.03 0 0 1-.012-.012.066.066 0 0 0-.092-.06q-.008 0-.014-.003a.02.02 0 0 1-.01-.012c-.021-.083-.086-.102-.16-.106l-.069-.05a.104.104 0 0 0-.13-.099.02.02 0 0 1-.023-.018 2.7 2.7 0 0 0-.578-.53l-.088-.103q.014-.113-.1-.128l-.05-.07c-.083-.248-.26-.444-.363-.681-.048-.11-.046-.25-.165-.326l-.016-.063c-.02-.165-.033-.332-.125-.478l-.01-.077c.04-.318.04-.64-.003-.958l.007-.075c.097-.135.089-.29.087-.446l.011-.057c.168-.377.284-.774.421-1.162a.03.03 0 0 1 .012-.03c.123-.07.15-.196.18-.319a.03.03 0 0 1 .012-.027c.105-.044.126-.14.145-.236l.045-.072a.22.22 0 0 0 .142-.207q-.001-.007.002-.015a.02.02 0 0 1 .012-.009c.113-.041.16-.13.181-.24l.05-.068a.1.1 0 0 0 .082-.038.1.1 0 0 0 .022-.087.03.03 0 0 1 .021-.026c.104-.052.193-.118.21-.243q.125-.166.283-.298a.11.11 0 0 0 .102-.066.1.1 0 0 0 .008-.042q.134-.158.3-.282c.092-.006.141-.059.162-.145l.105-.088a.1.1 0 0 0 .086-.021.1.1 0 0 0 .04-.08l.069-.05a.07.07 0 0 0 .058-.011.07.07 0 0 0 .027-.053.02.02 0 0 1 .009-.014.02.02 0 0 1 .016-.004.06.06 0 0 0 .062-.007.07.07 0 0 0 .027-.056l.069-.05c.119-.02.219-.07.278-.182a.02.02 0 0 1 .025-.013c.116-.02.231-.046.285-.17l.131-.066c.02 0 .041.01.056 0 .582-.282 1.181-.51 1.82-.623.013-.003.022-.03.032-.045l.075-.008c.064.045.12.051.154-.034l.077-.008c.023.01.047.03.068.025.533-.094 1.073-.063 1.61-.07.217-.004.435.027.652-.012l.091.005c.116.088.243.045.368.036l.057.008c.025.035.064.036.101.042l1 .163c.17.028.33.13.514.082l.075.013c.42.137.847.236 1.294.23l.057.008c.061.064.136.049.21.033l.211.025c.05.096.12.074.193.033l.075.008c.016.018.03.048.05.051l1.155.163c.135.02.212-.036.266-.16.104-.24.233-.47.329-.713.1-.255.27-.481.308-.76l.018-.057c.178-.26.304-.554.37-.863l.02-.06a.08.08 0 0 0 .065-.06q.327-.845.651-1.692c.018-.046.067-.1.014-.157-.203.092-.203.092-.283.2a.03.03 0 0 1-.028.017 2 2 0 0 0-.676.384.03.03 0 0 1-.017 0c-.105.02-.218.025-.28.136l-.169.067c-.074-.017-.137.018-.201.043a5 5 0 0 1-.94.246c-.203.038-.415.012-.612.091l-.267-.002c-.163-.051-.327-.102-.5-.05l-.075-.008c-.013-.057-.059-.056-.103-.064a2.7 2.7 0 0 1-.662-.178.8.8 0 0 0-.33-.083l-.06-.019a.47.47 0 0 0-.372-.181.03.03 0 0 1-.012-.013c-.049-.127-.165-.149-.277-.178l-.07-.049a.066.066 0 0 0-.086-.065.03.03 0 0 1-.028-.02c-.142-.203-.341-.343-.536-.487a1 1 0 0 1-.208-.253c.016-.058-.023-.095-.052-.136-.167-.231-.292-.49-.419-.746-.137-.28-.188-.591-.336-.865l-.01-.052a3.6 3.6 0 0 0-.147-.91q-.001-.03-.004-.056a8 8 0 0 0 0-1.116l.006-.096c.062-.06.062-.124.015-.192l.008-.075c.08-.039.072-.095.028-.157l.008-.074c.111-.158.113-.342.126-.524l.01-.056c.038-.02.044-.06.055-.097a15 15 0 0 1 .683-1.812c.077-.172.201-.328.226-.524l.052-.103q.341-.452.566-.972A.025.025 0 0 1 9.91 23c.109-.06.157-.16.18-.277a.03.03 0 0 1 .018-.03c.098-.03.125-.11.136-.2l.047-.072c.056-.006.074-.038.063-.09a.02.02 0 0 1 .017-.024.065.065 0 0 0 .063-.088l.047-.068a.07.07 0 0 0 .07-.055.1.1 0 0 0-.003-.033q0-.008.005-.016a.03.03 0 0 1 .014-.01q.074-.009.061-.084l.048-.07q.115-.016.101-.13 0-.008.005-.015a.49.49 0 0 0 .267-.329l.051-.065c.089-.02.14-.07.141-.166l.054-.064a.165.165 0 0 0 .141-.162l.24-.263a.17.17 0 0 0 .147-.157.16.16 0 0 0 .154-.158l.036-.036a.157.157 0 0 0 .154-.157l.039-.036c.226-.14.424-.322.582-.536a.5.5 0 0 0 .321-.27.03.03 0 0 1 .017-.005.07.07 0 0 0 .062-.011.07.07 0 0 0 .025-.058l.11-.082c.11-.016.198-.063.24-.175a.03.03 0 0 1 .01-.014.03.03 0 0 1 .017-.004c.096-.006.173-.039.202-.141a.03.03 0 0 1 .011-.012.03.03 0 0 1 .016-.002.066.066 0 0 0 .09-.059.03.03 0 0 1 .027-.017c.078 0 .141-.02.163-.105l.145-.088c.048.01.08-.005.088-.056l.105-.06c.12-.034.248-.056.316-.183l.011-.01.015-.001c.056.014.1-.019.145-.039q.655-.3 1.35-.484c.098-.026.206-.018.288-.09l.058-.008c.077.016.154.039.215-.036l.116-.013c.368.034.74.034 1.108 0l.077.01c.06.076.14.052.217.038l.056.008c.097.082.22.103.335.129.238.053.429.224.672.258q.01 0 .018.003.008.004.013.013c.05.096.14.125.24.138q.01-.001.017.004.009.005.011.013a.07.07 0 0 0 .032.05.07.07 0 0 0 .06.007.03.03 0 0 1 .026.01c.041.108.14.125.231.15l.112.087a.27.27 0 0 0 .192.185l.193.198a.18.18 0 0 0 .145.15l.092.108a.067.067 0 0 0 .066.083.02.02 0 0 1 .013.007.02.02 0 0 1 .005.015c-.013.077.025.119.099.131a.024.024 0 0 1 .014.025.22.22 0 0 0 .14.207l.048.07c.03.122.064.242.179.315l.022.057a.2.2 0 0 0 0 .057c.16.412.27.835.262 1.282 0 .046.004.09.06.106v.146c-.116.132-.06.28-.039.424l-.009.077c-.094.06-.051.164-.069.245-.065.308-.186.606-.206.924l-.022.1c-.185.33-.262.698-.361 1.057l-.024.06c-.123.09-.151.224-.169.363l-.025.098c-.08.022-.073.1-.091.154-.145.448-.294.895-.421 1.348-.077.274-.216.53-.235.82l-.03.1c-.152.153-.15.373-.226.559-.121.3-.27.593-.322.918l-.057.18c-.166.265-.254.56-.325.863q-.03.086-.057.176c-.116.085-.125.209-.135.332m-8.511-2.163c-.004.428.058.853.182 1.262.37 1.201 1.461 1.508 2.303 1.401.808-.103 1.493-.5 2.087-1.037 1.247-1.127 2.013-2.574 2.665-4.092.046-.107.024-.154-.088-.198a.97.97 0 0 1-.624-.77c-.052-.29.03-.546.182-.785.286-.45.586-.89.86-1.345.318-.527.617-1.067.744-1.679.137-.666-.231-1.141-.914-1.198a3.1 3.1 0 0 0-1.05.091c-.904.236-1.662.74-2.359 1.33-1.478 1.25-2.588 2.786-3.377 4.549-.357.794-.642 1.612-.613 2.47zm-5.04 15.623c1.009.002 2.206-.375 3.262-1.024 1.681-1.035 2.967-2.465 4.074-4.075.07-.1.058-.134-.069-.152-.774-.107-1.55-.197-2.314-.367-.96-.215-1.922-.378-2.91-.376-1.506.004-2.8.482-3.838 1.599-.54.58-.99 1.205-1.18 1.993-.172.714.074 1.258.65 1.67.693.498 1.474.73 2.325.732"/><path fill="#49494A" d="M22.644 34.975c-.106.16-.293.199-.447.274-.713.35-1.458.616-2.221.839q-1.052.302-2.136.441c-.056.007-.115.03-.163-.02.508-.107 1.025-.155 1.531-.276 1.14-.273 2.24-.645 3.279-1.194.051-.024.105-.042.157-.064m.935 3.148c.052.104.027.215.017.32-.077.777-.039 1.557-.019 2.335q.014.622.02 1.243c0 .063.036.146-.059.182.015-1.299-.106-2.597 0-3.896.005-.062 0-.129.04-.184m2.118 5.327c-.048-.224.016-.446.034-.666.066-.813.014-1.626.032-2.438.003-.164-.039-.33.024-.49.038.702.062 1.406.047 2.11-.01.429-.055.856-.087 1.285-.005.068.004.142-.05.2m-2.202-.673c.072.151 0 .302-.018.447a9.4 9.4 0 0 1-.675 2.539c-.112.27-.251.53-.378.793a.1.1 0 0 1-.084.07c.223-.466.45-.93.623-1.418.267-.76.406-1.545.511-2.338a1 1 0 0 1 .021-.093m2.739-6.179c.058-.37.226-.7.367-1.04.246-.592.623-1.112.933-1.67a.9.9 0 0 0 .11-.36c.007-.054-.013-.12.06-.147.008.252-.064.499-.207.706-.505.768-.93 1.575-1.222 2.45a.3.3 0 0 1-.041.06m-7.397 7.342c.062-.237.208-.442.198-.71a1.022 1.022 0 0 0-1.203-.976c-.15.028-.292.094-.449.077.605-.278 1.17-.17 1.524.29.3.39.267 1.007-.07 1.32M27.71 33.27a.26.26 0 0 1-.056-.179c-.01-.45-.249-.766-.64-.91-.44-.163-.883-.107-1.245.246-.048.048-.085.116-.17.11.334-.432.832-.614 1.3-.476a1.15 1.15 0 0 1 .83 1.022c.004.062.02.128-.019.186m-12.971 1.678c-.039.278-.208.505-.308.76-.096.242-.225.472-.33.712-.053.125-.13.18-.266.16-.385-.055-.77-.106-1.155-.162-.019-.003-.033-.034-.05-.051.39.004.77.099 1.156.143.157.017.226-.03.287-.17.181-.414.377-.822.57-1.232.026-.056.035-.124.096-.16m-.572 9.744c-.118.375-.297.729-.371 1.117-.091.475-.162.951-.097 1.438.014.11.038.226-.012.336-.081-.206-.067-.423-.07-.64a4.9 4.9 0 0 1 .433-2.061c.03-.067.048-.145.117-.19m10.567 2.221c.036-.275.182-.512.277-.766q.297-.805.476-1.645c.009-.043.004-.092.056-.112-.073.575-.248 1.122-.442 1.664-.105.293-.2.592-.367.86m-5.789 4.759c.204-.098.43-.09.646-.136.483-.104.934-.293 1.375-.51.096-.048.182-.12.296-.126-.437.302-.925.49-1.433.629-.288.079-.578.163-.884.143M8.383 35.682c-.217.038-.435.008-.652.011-.54.008-1.078-.023-1.61.072-.02.003-.046-.017-.068-.026.257-.081.526-.086.792-.1q.668-.04 1.336.005c.068.002.141-.012.202.038m.895-11.58c-.025.196-.147.352-.226.524q-.399.886-.679 1.815c-.01.039-.016.077-.055.097.026-.282.144-.54.231-.8q.265-.77.631-1.497c.027-.05.042-.11.098-.14m10.753 3.217c.019-.29.158-.547.235-.821.127-.453.276-.9.42-1.348.018-.055.012-.133.092-.154-.208.763-.462 1.512-.704 2.264a.2.2 0 0 1-.043.06m-4.437 4.939c.08-.108.08-.108.283-.2.052.057.003.11-.014.157q-.324.847-.652 1.692a.08.08 0 0 1-.065.06l.584-1.556c.026-.07.071-.136.057-.217-.082-.022-.12.07-.193.064m.379 18.837c.237.051.442.185.668.267.38.137.773.203 1.168.266.038.007.076.01.1.045-.573-.005-1.106-.175-1.625-.399-.11-.047-.227-.086-.311-.179m1.006-6.18c.236-.212.54-.28.828-.37.34-.109.654-.25.906-.512.015-.016.045-.019.067-.028-.126.2-.314.353-.534.437-.42.163-.855.29-1.267.473M5.748 35.787c-.01.016-.019.043-.031.045-.64.116-1.24.342-1.82.624-.015.007-.039 0-.057 0 .385-.255.82-.399 1.258-.528.212-.064.423-.139.65-.14m2.529-5.943c.149.274.2.585.336.865.127.256.252.513.42.746.028.04.068.077.05.136-.356-.399-.543-.887-.716-1.38-.042-.117-.1-.235-.09-.367m8.284-12.203c-.082.073-.19.065-.287.09a8.3 8.3 0 0 0-1.35.485c-.046.021-.09.053-.145.039.395-.254.838-.388 1.282-.519.162-.046.325-.107.5-.095m-3.891 15.6c.198-.08.41-.053.614-.091a5 5 0 0 0 .938-.246c.064-.025.128-.06.202-.043-.556.256-1.136.406-1.754.38m10.506 4.013c.15-.141.333-.231.52-.306.139-.054.104.078.094.138-.038.22-.08.441-.135.657-.026.101.039.223-.068.304-.021-.26.067-.505.105-.757.013-.086.052-.171.025-.27-.2.038-.348.19-.541.234m-6.933 11.028c-.148-.15-.2-.347-.251-.54-.088-.325-.152-.654-.122-.997.005-.059-.026-.133.058-.165-.055.598.084 1.158.314 1.702m-5.728-12.267c-.184.047-.344-.054-.515-.082L9 35.772c-.038-.007-.077-.007-.102-.043.555.009 1.086.15 1.616.287m3.23 11.916c.073.087.082.2.106.3.093.4.255.77.44 1.132.03.06.08.115.072.192a3.9 3.9 0 0 1-.618-1.624m3.364-12.797c.039-.304.204-.562.313-.838.08-.205.119-.431.265-.608q-.225.749-.578 1.446m2.345-6.24c.054-.325.2-.619.322-.919.077-.186.074-.404.225-.56-.134.511-.334.998-.547 1.479m2.25-7.395c-.056-.016-.06-.06-.06-.107.007-.446-.102-.87-.262-1.282a.2.2 0 0 1 0-.056c.248.45.318.94.322 1.444M15.285 38.92a.07.07 0 0 1 .061-.062c.416.003.832-.034 1.247.013-.287.063-.58.026-.87.039-.146.007-.292.007-.438.01m2.595-5.746c.072-.385.25-.732.38-1.096.047-.132.046-.29.175-.387-.171.5-.336 1.001-.554 1.483M4.708 46.15q.613-.06 1.226 0c-.406.067-.82.067-1.226 0m-1.331-.282c.168-.008.32.059.478.099q.33.09.669.12c.045.003.09 0 .108.057a3.6 3.6 0 0 1-1.255-.276m8.506-9.608c-.446.005-.874-.094-1.295-.232.436.064.868.129 1.295.232M.581 39.768c-.137.389-.253.785-.42 1.162.064-.41.207-.805.42-1.162m17.476-22.181q-.555.051-1.108 0a2.7 2.7 0 0 1 1.108 0m-7.324 15.27a.8.8 0 0 1 .33.082q.32.13.662.179c.045.008.09.007.104.064-.384-.046-.754-.137-1.096-.325M25.89 37.91c-.04-.129.013-.252.038-.372.051-.246.13-.487.2-.729.014-.045.012-.105.08-.115q-.158.607-.319 1.216m-6.475-19.881c-.244-.034-.435-.205-.673-.259-.116-.025-.238-.046-.335-.128.371.038.701.182 1.008.387M8.117 27.71q.037.559 0 1.117c-.06-.37-.06-.747 0-1.117m13.261-4.394c.02-.32.141-.616.207-.924.017-.081-.025-.184.069-.245-.037.4-.13.794-.276 1.169M.21 43.082c.118.077.115.216.164.327.104.236.28.433.364.68a2.5 2.5 0 0 1-.529-1.007m9.687-20.055c-.149.345-.34.672-.566.972q.226-.519.566-.972M6.01 46.145c.06-.1.161-.044.243-.061.212-.044.424-.083.637-.127.055-.012.108-.044.16.005-.334.118-.686.18-1.04.183M.055 41.509c.043.317.044.64.004.957a2.04 2.04 0 0 1-.004-.958m20.941-17.033c.099-.36.176-.727.361-1.057-.09.36-.188.721-.361 1.057m.141 13.595c.005-.012.007-.031.014-.034.335-.105.65-.275 1.001-.334-.322.17-.668.271-1.015.367M8.12 28.882q.13.446.146.91a2.6 2.6 0 0 1-.146-.91m7.007 5.144a2.4 2.4 0 0 1-.37.862 5 5 0 0 1 .37-.862m2.13 8.345a3.4 3.4 0 0 1-.867.319c.269-.161.568-.24.867-.319m4.958-4.687a2.9 2.9 0 0 1 .822-.365 3.5 3.5 0 0 1-.822.365m-5.495-1.632c.064-.312.21-.588.373-.858a4.4 4.4 0 0 1-.373.858m-.389 6.658c-.111.161-.316.163-.462.269-.081.06-.167.136-.283.137.22-.182.473-.32.745-.407M.976 44.392q.327.222.577.529a1.8 1.8 0 0 1-.577-.53m6.149 1.556c.277-.128.57-.218.87-.27a3 3 0 0 1-.87.27m9.664-7.085c.253-.062.507-.118.77-.057a2.7 2.7 0 0 1-.77.057m8.997.179c-.039-.26-.062-.518.052-.767.009.258-.026.512-.052.767M12.787 19.609a2.1 2.1 0 0 1-.582.537q.247-.315.582-.537m5.705 11.904a2.6 2.6 0 0 1 .325-.862 5.4 5.4 0 0 1-.325.862m-9.201.332c.195.144.394.284.536.486a1.6 1.6 0 0 1-.536-.486m8.311 4.671c-.077.125-.206.046-.308.077a.8.8 0 0 1-.46.006c.252-.066.512-.058.768-.083m.436 15.169q.388-.045.776 0a1.85 1.85 0 0 1-.776 0m.6-13.021c.253-.104.52-.134.79-.144a2.6 2.6 0 0 1-.79.144m-3.735-6.015c.192-.174.423-.284.663-.374a2.1 2.1 0 0 1-.663.374m4.17-2.712c.07-.302.158-.597.324-.863a5.4 5.4 0 0 1-.324.863m5.231 17.816c.089-.254.197-.498.37-.706-.085.253-.21.492-.37.706m-7.547-11.15c-.084.093-.193.077-.27.02s.012-.136.034-.2c.028-.085.04-.186.14-.231-.015.047-.028.096-.047.142-.099.233-.1.233.142.269m9.029 3.175c-.087-.126-.087-.533 0-.66q.03.33 0 .66m-6.108-1.308c.225-.112.466-.159.714-.181a2.2 2.2 0 0 1-.714.18m-2.043.329c.216-.1.446-.097.676-.088a1.8 1.8 0 0 1-.676.088m-7.967 6.088c.165-.168.366-.296.589-.371a2.4 2.4 0 0 1-.589.37m9.053 4.535a.78.78 0 0 1-.625-.003zm1.036-.288c-.2.152-.443.234-.693.233zm.728-10.864c.165-.127.361-.151.558-.175-.172.103-.364.141-.558.174M8.309 26.593c-.013.182-.015.366-.126.524.016-.18.03-.36.126-.524m3.594 6.597c.174-.052.338 0 .501.05a1 1 0 0 1-.5-.05m11.857 15.404a.9.9 0 0 1 .296-.432q-.102.248-.296.432m-7.805-2.221c.018-.185.007-.38.166-.521zm-5.673-1.875a.72.72 0 0 1 .405-.286 1.3 1.3 0 0 1-.405.286M.068 42.542c.093.146.105.313.126.478-.093-.146-.117-.31-.126-.478m11.258 1.161a.66.66 0 0 1 .354-.306c-.095.127-.216.23-.354.306m12.21-1.425c.033.145.076.291-.035.424a1.2 1.2 0 0 1 .034-.424M21.663 22.07c-.02-.145-.074-.292.038-.424.012.143.022.287-.038.424M.15 40.988c0 .154.01.31-.088.446a.9.9 0 0 1 .087-.446m8.825 4.277c.101-.129.247-.175.397-.212a1 1 0 0 1-.397.212m4.126-25.91a.5.5 0 0 1-.313.254.8.8 0 0 1 .313-.254M10.861 44.08a.5.5 0 0 1 .321-.257.85.85 0 0 1-.32.257m.188-22.67a.5.5 0 0 1-.254.32.9.9 0 0 1 .254-.32m-.731 11.25c.142.012.266.06.354.178-.129-.038-.256-.08-.354-.179M8.551 45.464c.087-.131.231-.146.365-.175a.8.8 0 0 1-.365.175m-6.127.013c.135.026.274.046.359.175-.13-.035-.259-.077-.359-.175m15.08 3.828c-.151-.022-.308-.027-.406-.175.135.058.282.09.406.175M8.088 45.65a.64.64 0 0 1 .407-.167c-.118.098-.265.127-.407.167m-5.245.022c.157.03.319.05.44.172-.154-.042-.308-.072-.44-.172m9.679-3.081c.038-.14.136-.221.262-.278a.8.8 0 0 1-.262.278m-3.68-6.871c-.125.009-.253.052-.368-.036a.6.6 0 0 1 .368.036m11.961-10.823c.018-.14.045-.275.169-.365-.045.127-.082.258-.169.364m2.957 9.309a.4.4 0 0 1-.282.215.7.7 0 0 1 .283-.215m-9.233 15.612a.42.42 0 0 1 .22.278.6.6 0 0 1-.22-.278m.867.893a.38.38 0 0 1 .284.207.6.6 0 0 1-.284-.206M2.08 45.283c.124.029.247.06.316.183a.8.8 0 0 1-.317-.183M21.36 19.998c-.115-.074-.15-.193-.179-.315.087.087.15.195.18.315M10.012 32.466c.112.03.229.051.277.178a.55.55 0 0 1-.277-.178M.772 39.42c-.03.123-.056.248-.18.319a.7.7 0 0 1 .18-.32m11.051 3.853c.044-.113.116-.197.24-.222a.56.56 0 0 1-.24.222m2.929-25.004c-.067.126-.195.15-.316.183a.73.73 0 0 1 .316-.183M1.698 38.152c-.02.124-.107.19-.21.242a.5.5 0 0 1 .21-.242m2.009-1.632c-.055.123-.168.148-.285.17a.6.6 0 0 1 .285-.17m6.384-13.797c-.022.116-.07.216-.18.277a.6.6 0 0 1 .18-.277m8.793 7.721c.01-.123.019-.246.13-.33-.033.114-.047.236-.13.33M3.399 36.703c-.06.112-.159.162-.278.182a.6.6 0 0 1 .278-.182m11.587 2.694c.024-.115.051-.226.173-.28a.64.64 0 0 1-.173.28m-.194.306c.028-.112.052-.228.179-.277a.7.7 0 0 1-.179.277m-.23.347c.022-.118.072-.218.184-.276a.6.6 0 0 1-.184.277m-13.25-1.439c-.02.11-.068.2-.181.241a.5.5 0 0 1 .181-.24m12.249-19.604c-.04.111-.128.16-.24.175a.5.5 0 0 1 .24-.175m7.119 29.549c-.038.113-.131.157-.239.18a.53.53 0 0 1 .24-.18m.919 2.134c.043-.11.133-.154.242-.174a.5.5 0 0 1-.243.174m-7.228-10.37c.02-.108.066-.198.174-.243a.5.5 0 0 1-.174.243m3.354-6.729c.014-.12.027-.24.13-.325-.031.114-.053.23-.13.325m7.874 10.491c-.066-.103 0-.184.046-.27a.42.42 0 0 1-.046.27m-5.232-25.396a.27.27 0 0 1-.193-.184.34.34 0 0 1 .193.184m-5.774 14.106c.062-.111.174-.116.28-.136a.5.5 0 0 1-.28.136m5.09-14.611c-.1-.013-.188-.043-.24-.139.093.02.177.068.24.139m.38.234c-.094-.025-.192-.042-.231-.15a.38.38 0 0 1 .231.15M.93 39.156c-.02.096-.038.193-.145.236a.45.45 0 0 1 .145-.236m21.983-4.339c-.044.106-.142.124-.238.145a.5.5 0 0 1 .238-.145m-8.592 9.607c-.015.1-.038.196-.143.241a.5.5 0 0 1 .143-.241m9.826 3.594c.014-.1.039-.195.146-.24a.5.5 0 0 1-.146.24M9.398 45.04c.046-.106.143-.126.242-.141a.45.45 0 0 1-.242.14m4.393-26.189c-.029.102-.106.134-.202.14.048-.07.12-.12.202-.14m-3.546 3.643c-.011.09-.038.17-.136.2a.34.34 0 0 1 .136-.2M1.117 38.878a.22.22 0 0 1-.141.207.36.36 0 0 1 .14-.207m13.438 5.202a.23.23 0 0 1-.143.2.3.3 0 0 1 .143-.2m6.579-24.468a.22.22 0 0 1-.14-.205.34.34 0 0 1 .14.205M14.18 40.593a.22.22 0 0 1 .144-.204.35.35 0 0 1-.145.204m7.345 7.184a.164.164 0 0 1-.147.159.28.28 0 0 1 .147-.159M13.72 41.21c-.003-.093.051-.142.132-.17a.26.26 0 0 1-.132.17m-.466.573a.16.16 0 0 1 .14-.164.28.28 0 0 1-.14.164m11.585-8.503a.17.17 0 0 1-.156.146.27.27 0 0 1 .156-.147M21.142 48.17c-.018.087-.067.14-.16.146a.3.3 0 0 1 .16-.147m-4.307-30.57c-.061.077-.14.052-.215.036a.24.24 0 0 1 .214-.036m7.62 16.031a.164.164 0 0 1-.161.14.26.26 0 0 1 .16-.14M12.169 20.181a.156.156 0 0 1-.154.157.28.28 0 0 1 .154-.157m11.172 28.957c-.002-.096.05-.146.139-.168a.26.26 0 0 1-.139.168M8.138 27.424c.047.068.048.132-.014.192a.22.22 0 0 1 .014-.192m10.212-9.791c-.077.016-.154.041-.217-.038a.23.23 0 0 1 .217.038m4.057 32.443a.166.166 0 0 1 .16-.14.24.24 0 0 1-.16.14M11.243 21.178c0 .095-.053.146-.141.166a.26.26 0 0 1 .14-.166m11.903 28.184a.16.16 0 0 1 .143-.16.26.26 0 0 1-.143.16m-2.441-30.326a.18.18 0 0 1-.144-.15.23.23 0 0 1 .144.15m-2.952 30.327c-.082.064-.135.003-.192-.045a.24.24 0 0 1 .192.045m-6.314-28.411a.165.165 0 0 1-.142.162.27.27 0 0 1 .142-.162m3.855 22.373a.16.16 0 0 1-.166.14.26.26 0 0 1 .166-.14M2.552 37.319c-.02.086-.07.139-.162.144a.28.28 0 0 1 .162-.144"/><path fill="#49494A" d="M22.566 49.937c.014-.094.063-.15.163-.15a.28.28 0 0 1-.163.15m-4.546-.527c-.074.033-.145.056-.193-.038a.26.26 0 0 1 .192.038m.97-.035c-.05.092-.12.068-.193.037a.27.27 0 0 1 .193-.037m4.006.148c0-.1.055-.15.15-.162a.27.27 0 0 1-.15.162m-11.17-28.99a.17.17 0 0 1-.148.156.26.26 0 0 1 .148-.157"/><path fill="#49494A" d="M11.977 20.375a.16.16 0 0 1-.154.158.27.27 0 0 1 .154-.158m.578 15.983c-.073.039-.144.062-.192-.033a.34.34 0 0 1 .192.033m-.405-.058c-.074.016-.149.03-.21-.033.074-.015.147-.02.21.033m13.404 8.014c-.038-.064-.045-.12.036-.154a.17.17 0 0 1-.036.154M5.98 35.746c-.037.085-.092.077-.155.033a.2.2 0 0 1 .154-.033m19.677 7.971c-.018-.062-.025-.122.031-.171.016.062.019.121-.032.171M8.174 27.193c.045.061.052.115-.028.156a.2.2 0 0 1 .028-.157m13.234 23.62c.023-.083.088-.1.162-.104a.22.22 0 0 1-.162.104M18.407 38.7c.049-.056.11-.048.171-.03a.17.17 0 0 1-.171.03m-2.629 12.281c.08-.005.143.017.168.102a.26.26 0 0 1-.168-.102m6.55-4.327c0 .077-.019.14-.101.166a.23.23 0 0 1 .1-.166m-8.229-28c-.022.085-.086.104-.163.105a.25.25 0 0 1 .163-.105m-.396 29.043c.069.049.052.113.034.178a.17.17 0 0 1-.034-.178M1.775 45.088c.074.004.139.023.16.106a.2.2 0 0 1-.16-.106m18.597 3.698c-.022.085-.086.105-.163.106a.23.23 0 0 1 .163-.106m-6.925-7.232a.105.105 0 0 1 .056-.116.1.1 0 0 1 .045-.01.15.15 0 0 1-.101.126m3.148 3.636a.107.107 0 0 1 .122-.102.17.17 0 0 1-.122.102m8.087-11.763c-.007.073-.045.113-.121.11a.18.18 0 0 1 .121-.11M1.575 44.939a.105.105 0 0 1 .119.055q.01.022.01.046a.17.17 0 0 1-.129-.101m22.61-11.079a.107.107 0 0 1-.122.103.15.15 0 0 1 .122-.102m-7.85 11.619c-.005-.072.025-.117.1-.128a.18.18 0 0 1-.1.129m-5.557-23.728q.013.115-.101.13a.17.17 0 0 1 .101-.13m12.675 12.685a.106.106 0 0 1-.128.098.16.16 0 0 1 .128-.098m-7.224 11.208c-.021-.08.014-.124.09-.14a.23.23 0 0 1-.09.14M.788 44.16q.113.014.1.128a.16.16 0 0 1-.1-.128M23.3 34.552c-.016.072-.056.11-.133.096a.2.2 0 0 1 .132-.096m-8.092 16.002a.11.11 0 0 1 .113.062q.01.022.01.045a.17.17 0 0 1-.123-.107m7.008-.321a.11.11 0 0 1 .126-.102.16.16 0 0 1-.126.102m-7.505-6.344a.1.1 0 0 1-.024.084.1.1 0 0 1-.079.039.16.16 0 0 1 .103-.123m6.27-24.508c-.075-.013-.113-.053-.1-.132a.18.18 0 0 1 .1.132M2.783 37.13a.107.107 0 0 1-.126.1.16.16 0 0 1 .126-.1m-.693.616a.107.107 0 0 1-.11.108.15.15 0 0 1 .11-.108m10.695 4.566a.11.11 0 0 1 .106-.116.14.14 0 0 1-.106.116M1.466 38.42a.105.105 0 0 1-.104.126.17.17 0 0 1 .104-.126m11.444 3.754q-.007-.12.112-.126a.18.18 0 0 1-.111.125m3.885 6.758a.11.11 0 0 1-.125-.103.17.17 0 0 1 .125.103m5.186-1.738a.11.11 0 0 1-.09.13.16.16 0 0 1 .09-.13m1.548 1.71a.11.11 0 0 1 .1-.126.16.16 0 0 1-.1.126m.117-.153a.11.11 0 0 1 .094-.128.15.15 0 0 1-.094.129m-9.581-8.001q-.014-.113.098-.131a.17.17 0 0 1-.098.13m-.466.61a.11.11 0 0 1 .056-.112.1.1 0 0 1 .042-.013.16.16 0 0 1-.099.125m12.254-3.217a.105.105 0 0 1 .026-.138.12.12 0 0 1-.026.138m-6.369.368c.038-.048.084-.049.136-.03a.115.115 0 0 1-.136.03m-5.614 2.504c-.008-.05.01-.082.064-.087a.084.084 0 0 1-.064.087M10.356 22.33c.01.053-.008.085-.063.091a.1.1 0 0 1 .063-.09m2.701 19.677a.07.07 0 0 1 .016-.058.07.07 0 0 1 .056-.022.086.086 0 0 1-.072.08m.851-23.232a.067.067 0 0 1-.09.058.08.08 0 0 1 .09-.058m6.928 29.666a.07.07 0 0 1-.026.054.07.07 0 0 1-.06.012.09.09 0 0 1 .086-.066m-4.396.148a.067.067 0 0 1-.067-.088.1.1 0 0 1 .067.088m-.993-5.376c-.006.05-.038.068-.085.06a.077.077 0 0 1 .085-.06m6.27 4.334a.068.068 0 0 1-.067.082.09.09 0 0 1 .067-.082m-6.499-8.534q-.018-.08.063-.09a.1.1 0 0 1-.063.09m6.651 8.336a.066.066 0 0 1-.066.086.084.084 0 0 1 .066-.085m.191-.271q.006.015.004.032a.06.06 0 0 1-.035.05.1.1 0 0 1-.03.006.085.085 0 0 1 .061-.087m-5.105 1.964a.07.07 0 0 1-.083-.032.1.1 0 0 1-.007-.032.09.09 0 0 1 .09.064m3.11-.065q-.02.084-.1.054a.1.1 0 0 1 .1-.055M10.55 22.063a.067.067 0 0 1-.068.088.1.1 0 0 1 .067-.088m6.523 27.057c-.05.01-.082-.006-.092-.058a.09.09 0 0 1 .092.057m2.804-.039a.07.07 0 0 1-.036.042.07.07 0 0 1-.054 0 .073.073 0 0 1 .09-.041m2.26-2.118a.07.07 0 0 1-.008.059.07.07 0 0 1-.05.03.084.084 0 0 1 .058-.089m.074-.119c.013.052-.004.084-.06.092a.1.1 0 0 1 .06-.092M14.331 18.51q-.012.074-.088.056a.09.09 0 0 1 .088-.056m1.607 27.999c-.039-.03-.025-.055.008-.077a.056.056 0 0 1-.008.077m-.377-3.379a.07.07 0 0 1-.027.056.07.07 0 0 1-.06.01.09.09 0 0 1 .087-.065M2.937 37.015a.067.067 0 0 1-.085.064.08.08 0 0 1 .085-.064m.115-.081a.065.065 0 0 1-.09.064.09.09 0 0 1 .09-.064m17.81-17.706a.066.066 0 0 1-.067-.053.1.1 0 0 1 .001-.03.09.09 0 0 1 .066.083m-6.485 30.356c.054.008.07.04.058.092a.1.1 0 0 1-.059-.092m-1.164-30.318a.07.07 0 0 1-.025.058.07.07 0 0 1-.062.011.09.09 0 0 1 .087-.07m3.576 25.775c.006-.054.039-.072.089-.062a.09.09 0 0 1-.089.062M9.856 32.352a.07.07 0 0 1 .06.01.07.07 0 0 1 .026.055.09.09 0 0 1-.086-.065m.774-10.399c.007.049-.011.077-.062.085a.084.084 0 0 1 .062-.085m11.392 28.431a.07.07 0 0 1 .026-.052.07.07 0 0 1 .058-.01.08.08 0 0 1-.084.062m-.114.086q.009-.082.09-.066a.09.09 0 0 1-.09.066m1.121-15.729c-.009.055-.041.072-.093.062a.1.1 0 0 1 .093-.062m-6.883 11.051a.07.07 0 0 1 .001-.06.07.07 0 0 1 .048-.035.08.08 0 0 1-.05.095m6.999-11.127a.067.067 0 0 1-.09.062.09.09 0 0 1 .09-.062m-12.436 9.53a.07.07 0 0 1 .054-.069.1.1 0 0 1 .032.002.09.09 0 0 1-.086.067m3.688.109c.01.05-.007.083-.06.092a.1.1 0 0 1 .06-.092m5.408-26.047a.068.068 0 0 1-.091-.057.084.084 0 0 1 .091.057M1.959 45.21a.066.066 0 0 1 .092.06.1.1 0 0 1-.092-.06m8.476-22.99a.065.065 0 0 1-.032.08.1.1 0 0 1-.031.007.08.08 0 0 1 .063-.088"/><path fill="#F7F7F7" d="m37.467 39.433-.008-.025h.023l-.02.02z"/></svg>