<svg xmlns="http://www.w3.org/2000/svg" width="148" height="27" fill="none"><g clip-path="url(#a)"><path fill="#5F6368" d="M96.087 20.558q-3.956 0-6.62-2.663-2.637-2.663-2.637-6.644t2.638-6.618q2.637-2.688 6.618-2.688 4.031 0 6.545 2.911l-1.643 1.593q-1.916-2.314-4.901-2.314-2.962 0-4.952 1.99-1.966 1.967-1.966 5.126t1.966 5.128q1.99 1.99 4.951 1.99 3.111 0 5.4-2.612l1.667 1.617a8.64 8.64 0 0 1-3.11 2.351 9.5 9.5 0 0 1-3.957.832M106.94 2.343V20.16h-2.289V2.343zm1.654 11.72q0-2.811 1.767-4.653 1.791-1.841 4.504-1.841t4.479 1.841q1.791 1.84 1.791 4.653 0 2.836-1.791 4.653-1.767 1.842-4.479 1.842t-4.504-1.843q-1.767-1.84-1.767-4.652m2.29 0q0 1.966 1.144 3.185 1.145 1.22 2.837 1.219t2.837-1.219 1.144-3.185q0-1.94-1.144-3.16-1.169-1.244-2.837-1.244t-2.837 1.244q-1.144 1.22-1.144 3.16m22.586 6.096h-2.19v-1.692h-.101q-.523.896-1.605 1.493a4.6 4.6 0 0 1-2.252.598q-2.24 0-3.446-1.282-1.207-1.283-1.207-3.645V7.967h2.289v7.515q.075 2.986 3.011 2.986 1.368 0 2.289-1.107.921-1.108.921-2.65V7.967h2.289zm7.437.399q-2.387 0-4.106-1.892-1.692-1.915-1.692-4.603.001-2.688 1.692-4.603 1.718-1.89 4.106-1.891 1.344 0 2.451.572 1.108.572 1.704 1.518h.102l-.102-1.692V2.343h2.29V20.16h-2.19v-1.692h-.102q-.594.947-1.703 1.517-1.107.57-2.45.573m.373-2.09q1.692 0 2.762-1.22 1.12-1.219 1.12-3.184 0-1.915-1.12-3.16-1.094-1.244-2.762-1.245-1.642 0-2.762 1.244-1.119 1.245-1.119 3.16 0 1.941 1.119 3.16 1.12 1.245 2.762 1.244"/><path fill="#4285F4" d="M10.382 12.346V9.59h9.222a9 9 0 0 1 .149 1.69c0 2.066-.566 4.624-2.387 6.444-1.77 1.845-4.033 2.829-7.033 2.829-5.558 0-10.23-4.526-10.23-10.085S4.776.383 10.334.383c3.075 0 5.263 1.205 6.91 2.78l-1.942 1.942C14.119 4 12.522 3.138 10.333 3.138c-4.057 0-7.23 3.27-7.23 7.33 0 4.059 3.173 7.333 7.23 7.333 2.632 0 4.132-1.058 5.09-2.017.782-.782 1.297-1.903 1.497-3.436z"/><path fill="#EA4335" d="M33.804 14.06c0 3.74-2.927 6.493-6.516 6.493s-6.517-2.752-6.517-6.494c0-3.763 2.927-6.494 6.518-6.494s6.515 2.73 6.515 6.494m-2.852 0c0-2.337-1.697-3.937-3.664-3.937s-3.665 1.6-3.665 3.936c0 2.312 1.697 3.936 3.665 3.936s3.664-1.624 3.664-3.936"/><path fill="#FBBC04" d="M48.02 14.06c0 3.74-2.924 6.493-6.516 6.493s-6.517-2.752-6.517-6.494c0-3.763 2.926-6.494 6.517-6.494 3.59 0 6.516 2.73 6.516 6.494m-2.852 0c0-2.337-1.697-3.937-3.664-3.937s-3.664 1.6-3.664 3.936c0 2.312 1.696 3.936 3.664 3.936s3.664-1.624 3.664-3.936"/><path fill="#4285F4" d="M61.647 7.959v11.66c0 4.796-2.828 6.764-6.172 6.764-3.149 0-5.042-2.116-5.755-3.837l2.485-1.034c.443 1.058 1.524 2.312 3.271 2.312 2.14 0 3.467-1.328 3.467-3.812v-.935h-.098c-.64.787-1.869 1.476-3.418 1.476-3.247 0-6.222-2.829-6.222-6.469 0-3.665 2.975-6.519 6.222-6.519 1.55 0 2.779.689 3.418 1.452h.098V7.959zm-2.509 6.125c0-2.288-1.523-3.961-3.467-3.961-1.967 0-3.615 1.673-3.615 3.961 0 2.263 1.648 3.91 3.615 3.91 1.943 0 3.467-1.647 3.467-3.91"/><path fill="#34A853" d="M66.478 1.135V20.16h-2.852V1.135z"/><path fill="#EA4335" d="m77.494 16.199 2.213 1.476c-.71 1.058-2.434 2.878-5.41 2.878-3.689 0-6.443-2.853-6.443-6.494 0-3.86 2.78-6.494 6.123-6.494 3.37 0 5.017 2.681 5.558 4.133l.295.738-8.683 3.59c.664 1.304 1.697 1.969 3.148 1.969s2.462-.713 3.2-1.796m-6.812-2.336 5.804-2.41c-.32-.812-1.279-1.377-2.41-1.377-1.451-.002-3.468 1.275-3.394 3.787"/></g><defs><clipPath id="a"><path fill="#fff" d="M.104.383h147.248v26H.104z"/></clipPath></defs></svg>