<svg xmlns="http://www.w3.org/2000/svg" width="97" height="26" fill="none"><path fill="#E93756" d="M51.663 9.359V6.955c0-.135-.135-.27-.27-.237-1.93.068-3.081.914-3.725 1.625-1.625 1.76-1.523 4.198-1.523 4.808v5.315c0 .135.101.237.237.237h2.404a.23.23 0 0 0 .236-.237v-5.45s-.101-1.761.745-2.709c.373-.406.914-.643 1.625-.677a.29.29 0 0 0 .271-.271m44.552 0V6.955c0-.135-.136-.27-.271-.237-1.93.068-3.08.914-3.724 1.625-1.625 1.76-1.523 4.198-1.523 4.808v5.315c0 .135.101.237.237.237h2.403a.23.23 0 0 0 .237-.237v-5.45s-.101-1.761.745-2.709c.372-.406.914-.643 1.625-.677.17 0 .27-.136.27-.271M13.442 20.362c-4.333 0-7.82-3.521-7.82-7.82s3.52-7.855 7.82-7.855c4.333 0 7.82 3.521 7.82 7.82s-3.487 7.855-7.82 7.855M25.088 5.534c-.305-1.151-.813-2.235-1.591-3.047-.813-.779-1.896-1.253-3.047-1.591-3.013-.847-6.5-.78-9.547-.102-3.08.71-5.315 2.708-7.143 5.214C2.067 8.343.476 11.22.24 14.132c-.238 3.047 1.286 5.993 3.486 8.125 2.133 2.2 5.044 3.724 8.125 3.487 2.911-.237 5.789-1.828 8.125-3.52 2.505-1.829 4.503-4.03 5.213-7.11.677-3.08.745-6.567-.101-9.58m49.528 1.421-3.927 8.6-3.96-8.6a.37.37 0 0 0-.34-.203h-2.301c-.17 0-.305.203-.237.339l5.247 11.476c.034.102.135.136.237.136h2.674a.28.28 0 0 0 .237-.136l5.248-11.476c.067-.17-.034-.339-.237-.339h-2.302a.28.28 0 0 0-.339.203m5.247 4.3.034-.068c.61-1.252 1.896-2.099 3.284-2.099s2.708.813 3.284 2.1l.034.067zm2.98-4.807c-3.217.169-5.79 2.776-5.959 5.958-.203 3.622 2.709 6.67 6.297 6.67a6.35 6.35 0 0 0 5.078-2.54c.102-.102.068-.27-.067-.372l-1.829-1.185c-.101-.068-.237-.034-.338.068A3.65 3.65 0 0 1 83.18 16.4c-1.591 0-2.979-1.016-3.487-2.54l-.034-.067h9.547a.23.23 0 0 0 .237-.237c.034-.27.068-.542.068-.813 0-3.588-3.013-6.5-6.67-6.296m-24.714 9.919a3.626 3.626 0 0 1-3.622-3.623 3.626 3.626 0 0 1 3.622-3.622 3.626 3.626 0 0 1 3.623 3.622c.033 1.998-1.625 3.623-3.623 3.623m0-9.953c-3.487 0-6.33 2.843-6.33 6.33s2.843 6.331 6.33 6.331 6.33-2.844 6.33-6.33c0-3.488-2.843-6.331-6.33-6.331M37.14 4.687a7.86 7.86 0 0 0-7.853 7.854 7.86 7.86 0 0 0 7.854 7.854 7.86 7.86 0 0 0 7.854-7.854 8 8 0 0 0-.102-1.252c-.034-.136-.135-.203-.237-.203h-6.94a.23.23 0 0 0-.237.237v2.403c0 .136.102.237.237.237h4.198l-.034.068c-.677 2.099-2.606 3.487-4.84 3.453-2.709-.068-4.91-2.336-4.842-5.078a4.98 4.98 0 0 1 4.977-4.841c1.59 0 3.08.745 3.994 2.031a.26.26 0 0 0 .339.068l1.997-1.287c.136-.067.136-.237.068-.338-1.49-2.1-3.86-3.352-6.432-3.352"/></svg>