<svg xmlns="http://www.w3.org/2000/svg" width="225" height="55" fill="none"><path fill="#244C91" d="M65.134 41.195c1.434.182 1.912.85 1.912 1.51 0 1.071-.899 1.827-4.236 1.827a10.3 10.3 0 0 1-3.632-.478 1.72 1.72 0 0 1-1.138-1.607H45.182c0 6.606 9.005 7.553 17.208 7.553 12.007 0 17.38-2.581 17.38-8.05 0-3.824-3.336-5.889-8.709-6.549l-12.744-1.567c-1.061-.125-1.405-.536-1.405-1.167 0-.956 1.1-1.606 4.283-1.606 1.127-.03 2.252.129 3.327.469.956.315 1.635.889 1.635 1.797h12.428c-.383-4.78-5.335-7.361-17.371-7.361-8.786 0-15.631 1.577-15.631 7.39 0 3.145 2.151 5.669 7.38 6.328zm41.529 8.097h13.059l2.649-5.229h10.095l2.658 5.23h13.059L134.952 26.73h-15.057zm24.197-8.728h-6.845l3.365-7.008h.086zM0 14.685a9.685 9.685 0 1 1 9.684 9.684A9.675 9.675 0 0 1 0 14.685m16.51 34.607h2.62V34.694l9.512 14.598H41.33V26.797H27.868v13.93l-9.493-13.93H16.51zm-2.543-22.523H5.143v22.533h8.824z"/><path fill="#244C91" d="M89.044 49.292h13.489V30.25h11.52v-3.5H77.619v3.5l11.425-.01z"/></svg>