<svg xmlns="http://www.w3.org/2000/svg" width="225" height="55" fill="none"><path fill="#000" d="m45.788 21.342-2.66 21.18h6.963l2.66-21.18zm-.046-7.186c0 2.232 1.79 3.99 4.062 3.99s4.062-1.758 4.062-3.99-1.79-3.988-4.062-3.988-4.062 1.757-4.062 3.988M56.3 21.342l-2.66 21.18h6.963l1.258-10.448c.145-1.14.435-3.182 1.692-4.464.87-.855 1.935-1.14 3.144-1.14.725 0 1.789.143 2.563.903.725.76.87 1.757.87 2.564 0 .332 0 1.235-.29 3.42l-1.16 9.164h6.963l1.306-10.874c.29-2.28.338-3.325.338-4.037 0-1.282-.145-3.419-1.838-5.034-1.644-1.567-3.82-1.804-5.61-1.804-1.498 0-2.707.095-4.255.902a10.2 10.2 0 0 0-2.66 1.995l.339-2.327zm40.734 1.425c-2.95-1.995-5.513-2.137-7.11-2.137-1.547 0-4.884.142-7.108 2.28-1.16 1.14-2.031 2.896-2.031 4.938s.919 3.23 1.45 3.8c1.016.996 2.467 1.566 3.628 1.899l1.547.474c.58.19 1.257.333 1.693.618.338.237.677.617.677 1.33 0 .664-.29 1.044-.87 1.377s-1.258.474-2.129.474c-1.499 0-2.756-.57-2.998-.664-.87-.38-1.886-1.045-2.66-1.757l-3.334 4.606c1.016.902 2.512 1.662 3.721 2.184 1.935.855 3.772 1.045 5.61 1.045 1.886 0 5.271-.285 7.592-2.66.92-.901 2.031-2.611 2.031-5.223 0-1.662-.483-2.944-1.595-4.036-1.21-1.235-2.66-1.71-3.724-1.995l-1.596-.427c-1.209-.333-1.547-.475-1.692-.57-.532-.332-.677-.76-.677-1.14s.193-.807.483-1.044c.484-.428 1.403-.57 2.08-.57 1.692 0 3.094.712 4.062 1.424zm15.938 4.083.677-5.508h-4.255l.87-6.838h-6.963l-.871 6.838h-2.515l-.676 5.509h2.514L99.77 42.52h6.964l1.983-15.67zm19.287-2.943c-.967-1.33-2.128-2.09-2.95-2.47-1.402-.665-2.949-.807-4.207-.807-2.998 0-5.706.855-7.931 3.087-2.079 2.09-3.482 5.223-3.482 9.117 0 3.657 1.306 6.126 2.902 7.788 1.886 1.947 4.014 2.612 6.674 2.612.822 0 2.514-.095 4.013-.76 1.161-.522 2.273-1.472 3.047-2.374l-.532 2.422h6.964l2.659-21.18h-6.963zm-5.658 2.611c1.886 0 2.999.618 3.627 1.188.919.807 1.499 2.137 1.499 3.656 0 1.567-.58 3.372-1.837 4.559-.726.665-1.983 1.425-3.966 1.425-1.402 0-2.659-.38-3.675-1.425-.677-.712-1.402-1.852-1.402-3.61 0-1.756.677-3.276 1.644-4.225 1.064-1.045 2.369-1.568 4.11-1.568m29.241.332.677-5.508h-4.256l.871-6.838h-6.964l-.87 6.838h-2.515l-.677 5.509h2.514l-1.982 15.67h6.964l1.982-15.67zm18.271-5.508-1.354 11.112c-.29 2.517-1.112 3.514-1.402 3.8-.774.807-2.08 1.187-3.192 1.187-1.016 0-2.225-.333-2.853-.903-.484-.427-.919-1.187-.919-2.327 0-.522.097-.997.242-2.326l1.257-10.543h-6.964l-1.305 10.78c-.097.665-.242 2.137-.242 2.992 0 2.232.87 4.369 2.321 5.698 2.418 2.28 6.238 2.422 8.415 2.422 2.466 0 5.899-.285 8.462-2.707 2.418-2.28 2.853-5.223 3.144-7.74l1.354-11.445zM200 22.767c-2.95-1.995-5.513-2.137-7.109-2.137-1.547 0-4.884.142-7.108 2.28-1.161 1.14-2.031 2.896-2.031 4.938s.919 3.23 1.45 3.8c1.016.996 2.467 1.566 3.627 1.899l1.548.474c.58.19 1.257.333 1.692.618.339.237.677.617.677 1.33 0 .664-.29 1.044-.87 1.377s-1.257.474-2.128.474c-1.499 0-2.756-.57-2.998-.664-.871-.38-1.886-1.045-2.66-1.757l-2.95 4.606c1.016.902 2.128 1.662 3.337 2.184 1.934.855 3.772 1.045 5.609 1.045 1.887 0 5.272-.285 7.593-2.66.919-.901 2.031-2.611 2.031-5.223 0-1.662-.483-2.944-1.596-4.036-1.209-1.235-2.66-1.71-3.724-1.995l-1.595-.427c-1.209-.333-1.548-.475-1.693-.57-.532-.332-.677-.76-.677-1.14s.194-.807.484-1.044c.483-.428 1.402-.57 2.079-.57 1.693 0 3.095.712 4.062 1.424z"/><path fill="#000" fill-rule="evenodd" d="M2.951 38.159C.69 41.228-1.059 45.75.752 47.113c2.557 1.922 14.182-3.397 23.47-14.858s12.362-23.28 8.232-25.097c-1.904-.838-5.882 1.827-8.166 4.04l.986.53c2.248-1.439 5.995-2.926 2.53 3.334l-.05.09c-4.905-3.725-11.722-4.492-17.514-1.406-7.935 4.23-10.94 14.09-6.711 22.026a16.2 16.2 0 0 0 3.823 4.753c-6.005 4.639-4.54.606-3.7-1.378zm22.602 4.324c6.048-3.223 9.232-9.718 8.532-16.138a63 63 0 0 0-6.532 6.227c-3.485 3.83-6.324 7.857-8.43 11.781a16.2 16.2 0 0 0 6.43-1.87" clip-rule="evenodd"/></svg>