<svg xmlns="http://www.w3.org/2000/svg" width="182" height="36" fill="none" viewBox="0.5 0 182 36"><path fill="#0C0114" fill-rule="evenodd" d="M17.982 1.021c-8.857 0-16.086 7.36-16.086 16.5s7.23 16.5 16.086 16.5 16.085-7.36 16.085-16.5-7.23-16.5-16.085-16.5M.896 17.521c0-9.67 7.655-17.5 17.086-17.5s17.085 7.83 17.085 17.5-7.655 17.5-17.085 17.5S.896 27.193.896 17.522m44.791 7.175h-2.16V8.87h2.16zm21.158 0h-2.171L56.427 12.5v12.196h-2.171V8.87h2.171l8.27 12.25V8.87h2.148zm13.868-2.772 4.68-13.054h2.362L81.68 24.696h-1.913L73.703 8.87h2.352zm16.173 2.772h-2.16V8.87h2.16zm13.395-7.055q-2.78-.771-4.05-1.89-1.26-1.131-1.26-2.783 0-1.87 1.541-3.087 1.553-1.23 4.028-1.229 1.687 0 3.004.63 1.327.63 2.047 1.74a4.3 4.3 0 0 1 .731 2.424h-2.171q0-1.435-.945-2.25-.945-.825-2.666-.826-1.598 0-2.498.685-.888.674-.889 1.88 0 .967.844 1.641.855.663 2.892 1.218 2.046.555 3.195 1.228 1.158.663 1.71 1.554.562.892.562 2.098 0 1.925-1.552 3.087-1.552 1.152-4.152 1.152a8 8 0 0 1-3.15-.62q-1.463-.63-2.261-1.717a4.1 4.1 0 0 1-.788-2.467h2.172q0 1.435 1.091 2.271 1.103.827 2.936.827 1.71 0 2.622-.674.91-.675.911-1.837 0-1.163-.844-1.794-.844-.641-3.06-1.26m15.78 7.055h-2.16V8.87h2.16zm8.568 0V8.87h5.355q2.668 0 4.005 1.065 1.351 1.064 1.351 3.152a3.17 3.17 0 0 1-.652 1.967q-.653.848-1.778 1.316 1.327.358 2.091 1.37.777 1 .777 2.39.001 2.13-1.429 3.348-1.428 1.218-4.039 1.218zm2.161-7.402v5.695h3.566q1.507 0 2.373-.75.878-.76.878-2.087 0-2.858-3.217-2.858zm0-1.674h3.261q1.42 0 2.262-.685.856-.685.856-1.859 0-1.305-.789-1.891-.786-.598-2.396-.598h-3.194zm18.975 7.37h7.761v1.706h-9.934V8.87h2.173zm24.094-5.61h-7.1v5.61h8.247v1.706H170.6V8.87h10.294v1.717h-8.135v5.087h7.1zM7.172 5.935h-.5v23.174h22.62V5.934zm.5 22.174V6.934h20.62v21.174z" clip-rule="evenodd"/></svg>