<svg width="48" height="48" viewBox="0 0 48 48" fill="none" xmlns="http://www.w3.org/2000/svg">
<mask id="mask0_5816_27409" style="mask-type:alpha" maskUnits="userSpaceOnUse" x="4" y="4" width="40" height="40">
<path fill-rule="evenodd" clip-rule="evenodd" d="M16.1347 4C22.6518 4 27.9374 9.29762 27.9374 15.8347V20.3327H31.8657C38.3827 20.3327 43.6684 25.6303 43.6684 32.1673C43.6684 38.7044 38.3847 44 31.8657 44H4.33203V15.8327C4.33203 9.29962 9.61566 4 16.1347 4Z" fill="url(#paint0_linear_5816_27409)"/>
</mask>
<g mask="url(#mask0_5816_27409)">
<g filter="url(#filter0_f_5816_27409)">
<path d="M21.588 51.9804C36.2943 51.9804 48.216 40.0587 48.216 25.3524C48.216 10.6461 36.2943 -1.27563 21.588 -1.27563C6.88174 -1.27563 -5.04004 10.6461 -5.04004 25.3524C-5.04004 40.0587 6.88174 51.9804 21.588 51.9804Z" fill="#4B73FF"/>
</g>
<g filter="url(#filter1_f_5816_27409)">
<path d="M24.5133 37.367C43.3477 37.367 58.616 25.4452 58.616 10.739C58.616 -3.96729 43.3477 -15.8891 24.5133 -15.8891C5.67893 -15.8891 -9.58936 -3.96729 -9.58936 10.739C-9.58936 25.4452 5.67893 37.367 24.5133 37.367Z" fill="#FF66F4"/>
</g>
<g filter="url(#filter2_f_5816_27409)">
<path d="M30.0748 29.1147C44.7811 29.1147 56.7029 18.6447 56.7029 5.72921C56.7029 -7.18624 44.7811 -17.6563 30.0748 -17.6563C15.3686 -17.6563 3.44678 -7.18624 3.44678 5.72921C3.44678 18.6447 15.3686 29.1147 30.0748 29.1147Z" fill="#FF0105"/>
</g>
<g filter="url(#filter3_f_5816_27409)">
<path d="M24.9875 26.7478C33.8322 26.7478 41.0023 19.5777 41.0023 10.733C41.0023 1.88824 33.8322 -5.28183 24.9875 -5.28183C16.1427 -5.28183 8.97266 1.88824 8.97266 10.733C8.97266 19.5777 16.1427 26.7478 24.9875 26.7478Z" fill="#FE7B02"/>
</g>
</g>
<defs>
<filter id="filter0_f_5816_27409" x="-16.9747" y="-13.2103" width="77.1251" height="77.1253" filterUnits="userSpaceOnUse" color-interpolation-filters="sRGB">
<feFlood flood-opacity="0" result="BackgroundImageFix"/>
<feBlend mode="normal" in="SourceGraphic" in2="BackgroundImageFix" result="shape"/>
<feGaussianBlur stdDeviation="5.96732" result="effect1_foregroundBlur_5816_27409"/>
</filter>
<filter id="filter1_f_5816_27409" x="-21.524" y="-27.8237" width="92.0748" height="77.1253" filterUnits="userSpaceOnUse" color-interpolation-filters="sRGB">
<feFlood flood-opacity="0" result="BackgroundImageFix"/>
<feBlend mode="normal" in="SourceGraphic" in2="BackgroundImageFix" result="shape"/>
<feGaussianBlur stdDeviation="5.96732" result="effect1_foregroundBlur_5816_27409"/>
</filter>
<filter id="filter2_f_5816_27409" x="-8.48786" y="-29.5909" width="77.1251" height="70.6403" filterUnits="userSpaceOnUse" color-interpolation-filters="sRGB">
<feFlood flood-opacity="0" result="BackgroundImageFix"/>
<feBlend mode="normal" in="SourceGraphic" in2="BackgroundImageFix" result="shape"/>
<feGaussianBlur stdDeviation="5.96732" result="effect1_foregroundBlur_5816_27409"/>
</filter>
<filter id="filter3_f_5816_27409" x="-2.96198" y="-17.2165" width="55.8991" height="55.8989" filterUnits="userSpaceOnUse" color-interpolation-filters="sRGB">
<feFlood flood-opacity="0" result="BackgroundImageFix"/>
<feBlend mode="normal" in="SourceGraphic" in2="BackgroundImageFix" result="shape"/>
<feGaussianBlur stdDeviation="5.96732" result="effect1_foregroundBlur_5816_27409"/>
</filter>
<linearGradient id="paint0_linear_5816_27409" x1="17.5701" y1="11.0288" x2="29.5547" y2="43.984" gradientUnits="userSpaceOnUse">
<stop offset="0.025" stop-color="#FF8E63"/>
<stop offset="0.56" stop-color="#FF7EB0"/>
<stop offset="0.95" stop-color="#4B73FF"/>
</linearGradient>
</defs>
</svg>
