<svg xmlns="http://www.w3.org/2000/svg" width="225" height="55" fill="none"><mask id="a" width="19" height="23" x="34" y="22" maskUnits="userSpaceOnUse" style="mask-type:alpha"><path fill="#fff" d="m45.613 22.53 6.294 14.152a5.68 5.68 0 0 1-2.873 7.494 5.67 5.67 0 0 1-7.486-2.877l-5.089-11.44-2.242 5.289V22.53z"/></mask><g mask="url(#a)"><path fill="#2AA8FF" d="m45.613 22.53 6.294 14.152a5.68 5.68 0 0 1-2.873 7.494 5.67 5.67 0 0 1-7.486-2.877l-5.089-11.44-2.242 5.288V22.532z"/></g><mask id="b" width="13" height="9" x="35" y="24" maskUnits="userSpaceOnUse" style="mask-type:alpha"><path fill="#fff" d="m46.295 24.064 1.302 2.928a7.644 7.644 0 0 0-9.962 5.512l-1.176-2.645-1.247 2.94v-8.735z"/></mask><g mask="url(#b)"><path fill="#393939" fill-opacity=".2" d="m46.295 24.064 1.302 2.928a7.644 7.644 0 0 0-9.962 5.512l-1.176-2.645-1.247 2.94v-8.735z"/></g><mask id="c" width="25" height="23" x="3" y="10" maskUnits="userSpaceOnUse" style="mask-type:alpha"><path fill="#fff" d="M27.352 22.282v10.02H16.866L15.78 29.86l-1.036 2.444h-11.6v-1.7l7.27-17.143A5.67 5.67 0 0 1 15.655 10a5.67 5.67 0 0 1 5.203 3.369l5.26 11.824z"/></mask><g mask="url(#c)"><path fill="#017ACE" d="M27.352 22.282v10.02H16.866L15.78 29.86l-1.036 2.444h-11.6v-1.7l7.27-17.143A5.67 5.67 0 0 1 15.655 10a5.67 5.67 0 0 1 5.203 3.369l5.26 11.824z"/></g><mask id="d" width="33" height="35" x="15" y="10" maskUnits="userSpaceOnUse" style="mask-type:alpha"><path fill="#fff" d="m26.11 25.176.008.017 4.975-11.733A5.67 5.67 0 0 1 36.335 10a5.67 5.67 0 0 1 5.203 3.369l6.054 13.611a6.94 6.94 0 0 0-4.551-1.694 6.97 6.97 0 0 0-6.56 4.621l-.022-.048-4.888 11.526a5.668 5.668 0 0 1-8.236 2.59 5.65 5.65 0 0 1-2.468-2.676L15.8 29.903a8.71 8.71 0 0 0 10.311-4.727"/></mask><g mask="url(#d)"><path fill="#AEDEFF" d="m26.11 25.176.008.017 4.975-11.733A5.67 5.67 0 0 1 36.335 10a5.67 5.67 0 0 1 5.203 3.369l6.054 13.611a6.94 6.94 0 0 0-4.551-1.694 6.97 6.97 0 0 0-6.56 4.621l-.022-.048-4.888 11.526a5.668 5.668 0 0 1-8.236 2.59 5.65 5.65 0 0 1-2.468-2.676L15.8 29.903a8.71 8.71 0 0 0 10.311-4.727"/></g><mask id="e" width="14" height="15" x="2" y="25" maskUnits="userSpaceOnUse" style="mask-type:alpha"><path fill="#fff" d="m15.748 29.933-3.65 8.608a7 7 0 0 1-2.928.637c-3.668 0-6.675-2.803-6.949-6.4l2.505-5.906a6.972 6.972 0 0 1 11.022 3.062"/></mask><g mask="url(#e)"><path fill="#000" d="m15.748 29.933-3.65 8.608a7 7 0 0 1-2.928.637c-3.668 0-6.675-2.803-6.949-6.4l2.505-5.906a6.972 6.972 0 0 1 11.022 3.062"/></g><mask id="f" width="15" height="19" x="0" y="26" maskUnits="userSpaceOnUse" style="mask-type:alpha"><path fill="#fff" d="m14.676 32.459-3.785 8.926a5.67 5.67 0 0 1-7.435 3.007 5.68 5.68 0 0 1-3.004-7.443l4.203-9.911a7.2 7.2 0 0 1 2.909-.613c3.573 0 6.539 2.61 7.112 6.034"/></mask><g mask="url(#f)"><path fill="#393939" d="m14.676 32.46-3.785 8.925a5.67 5.67 0 0 1-7.435 3.007 5.68 5.68 0 0 1-3.004-7.443l4.203-9.91a7.2 7.2 0 0 1 2.909-.614c3.573 0 6.539 2.61 7.112 6.034"/></g><path fill="#fff" d="M84.043 18.737v17.438a.486.486 0 0 1-.486.486H80.16a.486.486 0 0 1-.486-.486v-10.1a.486.486 0 0 0-.885-.276l-3.145 4.556a.49.49 0 0 1-.399.21h-1.673a.49.49 0 0 1-.401-.213l-3.046-4.482a.485.485 0 0 0-.887.274v10.03a.486.486 0 0 1-.486.487h-3.397a.486.486 0 0 1-.486-.486V18.737c0-.268.218-.486.486-.486h4.303c.162 0 .314.081.404.216l3.99 5.98a.485.485 0 0 0 .808 0l3.99-5.98a.49.49 0 0 1 .404-.216h4.304c.268 0 .485.218.485.486m5.956 12.362q.267 1.165 1.104 1.821.838.657 2.464.656.946 0 1.808-.23.469-.126 1.493-.574a.485.485 0 0 1 .655.29l.784 2.338a.486.486 0 0 1-.257.596q-1.38.635-2.105.798-1.238.28-2.96.28-2.404 0-4.09-.911-1.687-.91-2.56-2.562-.874-1.652-.874-3.838 0-2.283.898-3.922.897-1.64 2.427-2.477 1.529-.838 3.422-.838 3.033 0 4.757 1.76t1.723 5.137v1.19a.486.486 0 0 1-.485.486zm2.209-5.076q-.874 0-1.42.437-.396.363-.592.833a.486.486 0 0 0 .448.673h3.032a.486.486 0 0 0 .47-.611q-.152-.564-.494-.87c-.369-.305-.813-.462-1.444-.462m24.563-3.4q2.622 0 3.92 1.384t1.299 4.396v7.772a.486.486 0 0 1-.486.486h-3.252a.485.485 0 0 1-.485-.486v-7.772q0-.996-.437-1.518t-1.505-.522q-1.311 0-2.67 1.166.024.267.024.874v7.772a.485.485 0 0 1-.485.486h-3.252a.486.486 0 0 1-.486-.486v-7.772q0-.996-.437-1.518-.436-.522-1.504-.522-1.287 0-2.646 1.117v8.695a.485.485 0 0 1-.485.486h-3.252a.485.485 0 0 1-.486-.486V23.4c0-.268.217-.486.486-.486h3.252c.268 0 .485.218.485.486v.583q.85-.705 1.711-1.032a5.3 5.3 0 0 1 1.881-.328q3.228 0 4.417 2.064 1.093-1.068 2.124-1.566a5.15 5.15 0 0 1 2.269-.498m14.808-.097q1.845 0 3.264.813 1.42.814 2.233 2.453.813 1.64.813 3.996 0 2.38-.813 4.019t-2.233 2.453-3.264.814q-1.966 0-3.689-1.312v.413a.485.485 0 0 1-.485.486h-3.253a.485.485 0 0 1-.485-.486V16.6c0-.269.217-.486.485-.486h3.253c.268 0 .485.217.485.486v7.237q1.723-1.311 3.689-1.311m-.922 10.807q1.407 0 2.123-.898.717-.9.716-2.648 0-1.724-.716-2.622-.716-.9-2.123-.9-1.383 0-2.767.997v5.076q1.384.995 2.767.995m12.582-2.234q.267 1.165 1.104 1.821.838.657 2.464.656.946 0 1.808-.23.47-.126 1.493-.574a.485.485 0 0 1 .655.29l.784 2.338a.486.486 0 0 1-.257.596q-1.38.635-2.105.798-1.238.28-2.961.28-2.403 0-4.089-.911-1.687-.91-2.561-2.562t-.874-3.838q0-2.283.898-3.922.899-1.64 2.427-2.477 1.53-.838 3.423-.838 3.033 0 4.757 1.76t1.723 5.137v1.19a.486.486 0 0 1-.486.486zm2.209-5.076q-.874 0-1.42.437-.397.363-.592.833a.485.485 0 0 0 .448.673h3.032a.486.486 0 0 0 .469-.611q-.15-.564-.493-.87c-.369-.305-.813-.462-1.444-.462m16.495-2.914v2.768a.485.485 0 0 1-.485.486h-.073a5 5 0 0 0-.394.015q-1.672.126-3.343 1.32v8.477a.486.486 0 0 1-.486.486h-3.252a.486.486 0 0 1-.486-.486V23.4c0-.268.218-.486.486-.486h3.252c.268 0 .486.218.486.486v.729q.897-.753 1.808-1.13a5 5 0 0 1 1.929-.376h.073c.268 0 .485.217.485.486m6.555 13.965q-1.723 0-3.046-.28a11 11 0 0 1-1.634-.482q-.294-.11-.831-.348a.49.49 0 0 1-.29-.444v-2.606a.486.486 0 0 1 .7-.436q.272.134.456.212.815.348 1.635.546 1.408.34 3.01.34 1.578 0 1.578-.947 0-.388-.219-.583-.218-.195-.704-.316l-2.354-.485q-2.062-.413-3.01-1.409-.946-.995-.946-2.72 0-2.332 1.444-3.46 1.444-1.13 4.381-1.13 1.213 0 2.536.243.757.138 1.471.325.26.069.696.2a.49.49 0 0 1 .345.465v2.514a.485.485 0 0 1-.657.454 7 7 0 0 0-.324-.114 12 12 0 0 0-1.264-.323 13 13 0 0 0-2.585-.267q-.994 0-1.383.194-.388.194-.388.608 0 .315.194.449t.655.23l2.354.486q2.136.438 3.083 1.433.946.996.946 2.963 0 2.356-1.577 3.522-1.578 1.166-4.272 1.166m12.598-9.448v4.153q0 .8.267 1.13.267.327.971.327.462 0 .869-.065h.001a.486.486 0 0 1 .562.48v2.587a.486.486 0 0 1-.392.477l-.059.011q-.537.105-.945.165-.57.085-1.226.085-2.16 0-3.215-.947-1.056-.947-1.056-2.72v-5.683a.486.486 0 0 0-.486-.486h-.922a.485.485 0 0 1-.485-.486v-2.768c0-.268.217-.486.485-.486h.922a.486.486 0 0 0 .486-.486v-3.643c0-.268.217-.485.485-.485h3.252c.269 0 .486.217.486.485v3.643c0 .269.217.486.485.486h2.136c.268 0 .486.218.486.486v2.768a.486.486 0 0 1-.486.486h-2.136a.485.485 0 0 0-.485.486m10.016-4.712q2.67 0 4.066.717 1.395.716 1.856 1.906.462 1.191.461 3.036v7.602a.485.485 0 0 1-.485.486h-3.252a.486.486 0 0 1-.486-.486v-.632q-.849.778-1.674 1.105a4.9 4.9 0 0 1-1.821.328q-2.33 0-3.652-1.226-1.323-1.227-1.323-3.412 0-2.21 1.347-3.4t3.75-1.19q1.99 0 3.373.728-.024-.68-.206-1.08-.182-.402-.728-.62-.546-.219-1.59-.219h-2.281a.486.486 0 0 1-.486-.485V23.4c0-.268.218-.486.486-.486zm-1.065 10.808q1.237 0 2.597-1.117v-1.287q-1.165-.56-2.355-.56-.873 0-1.359.377-.485.377-.485 1.154 0 .801.412 1.117.413.316 1.19.316m15.589 3.352q-3.397-.025-5.193-1.931-1.797-1.907-1.797-5.38 0-3.449 1.797-5.33 1.796-1.883 5.193-1.907 1.238 0 2.112.145a8 8 0 0 1 1.505.414c.19.071.315.252.315.455v2.76a.485.485 0 0 1-.666.45l-.087-.034a6.5 6.5 0 0 0-.934-.28 8.4 8.4 0 0 0-1.759-.17q-1.626.024-2.354.899-.729.873-.729 2.574 0 1.749.704 2.671.705.923 2.257.923.874 0 1.687-.267a6.6 6.6 0 0 0 1.181-.527.485.485 0 0 1 .698.267l.867 2.548a.486.486 0 0 1-.228.583q-.294.161-.478.247-1.892.89-4.091.89m11.215-5.004-1.117 1.19v2.915a.485.485 0 0 1-.485.486h-3.252a.486.486 0 0 1-.486-.486V16.6c0-.269.218-.486.486-.486h3.252c.268 0 .485.217.485.486v11.39l4.152-4.436a.5.5 0 0 1 .355-.154h3.711a.485.485 0 0 1 .352.82l-4.686 4.96 5.277 6.694a.486.486 0 0 1-.381.787h-3.811a.49.49 0 0 1-.382-.185z"/></svg>
