<svg xmlns="http://www.w3.org/2000/svg" width="163" height="44" fill="none"><path fill="#fff" d="M158.968 33.89a2.44 2.44 0 0 1-1.345-.403 2.41 2.41 0 0 1-1.04-2.463c.09-.466.318-.896.654-1.234a2.43 2.43 0 0 1 2.632-.545 2.42 2.42 0 0 1 1.355 3.14 2.38 2.38 0 0 1-1.318 1.327 2.4 2.4 0 0 1-.941.178zm-.003-4.601a2.2 2.2 0 0 0-1.231.36 2.19 2.19 0 0 0-.955 2.248 2.19 2.19 0 0 0 1.727 1.734 2.22 2.22 0 0 0 2.273-.925 2.2 2.2 0 0 0 .377-1.218 2.15 2.15 0 0 0-1.344-2.037 2.2 2.2 0 0 0-.847-.162m.593 3.715-.627-1.34h-.505v1.34h-.367v-3.047h.906c.675 0 .954.298.954.853 0 .447-.212.726-.607.811l.647 1.381zm-1.132-1.658h.531c.43 0 .593-.145.593-.534s-.156-.522-.639-.522h-.485zm-35.559.348c.658.522 1.969.737 3.126.737 1.498 0 2.966-.276 4.402-1.564 1.469-1.32 2.468-3.345 2.468-6.565 0-3.098-1.187-5.614-3.623-7.086-1.375-.859-3.154-1.197-5.185-1.197-.593 0-1.188.03-1.531.185a.8.8 0 0 0-.28.435c-.063.553-.063 4.755-.063 7.24 0 2.545 0 6.103.063 6.527.03.368.219 1.015.623 1.288m-6.233-17.054c.53 0 2.548.091 3.486.091 1.753 0 2.966-.091 6.247-.091 2.749 0 5.061.737 6.718 2.147 2 1.717 3.067 4.11 3.067 7.025 0 4.14-1.898 6.527-3.81 7.882-1.899 1.411-4.374 2.209-7.903 2.209-1.874 0-5.092-.061-7.779-.092h-.037c-.124-.246.231-1.202.45-1.227.731-.082.923-.11 1.261-.248.566-.232.701-.52.764-1.531.093-1.902.062-4.172.062-6.748 0-1.841.031-5.43-.032-6.565-.093-.95-.498-1.195-1.314-1.38a17 17 0 0 0-1.753-.277c-.063-.184.418-1.015.574-1.195m27.258 1.557c-.124.03-.282.337-.282.491-.03 1.104-.061 3.988-.061 5.98a.2.2 0 0 0 .156.154c.406.03 1.405.063 2.248.063 1.188 0 1.876-.155 2.249-.34 1.001-.49 1.461-1.563 1.461-2.728 0-2.669-1.874-3.681-4.653-3.681a8.5 8.5 0 0 0-1.125.06zm7.084 12.27c0-2.7-1.999-4.233-5.655-4.233-.155 0-1.315-.032-1.592.03-.094.03-.187.092-.187.154 0 1.932-.032 5.03.061 6.257.063.521.438 1.258.907 1.473.5.275 1.624.336 2.406.336 2.154 0 4.06-1.195 4.06-4.018m-12.726-13.773c.282 0 1.113.091 3.237.091 1.999 0 3.623-.06 5.56-.06 2.406 0 5.717.86 5.717 4.416 0 1.75-1.25 3.16-2.875 3.835-.093.03-.093.091 0 .122 2.312.58 4.343 1.994 4.343 4.694 0 2.637-1.655 4.295-4.061 5.336-1.469.646-3.28.859-5.123.859-1.405 0-5.172-.152-7.265-.122-.219-.091.2-1.073.387-1.227.479-.015.955-.09 1.417-.22.749-.183.838-.424.931-1.528.063-.951.063-4.351.063-6.78 0-3.312.031-5.55 0-6.656-.032-.859-.343-1.136-.937-1.288-.468-.093-1.249-.184-1.873-.276-.158-.153.324-1.074.479-1.196M26.218 33.89a1.3 1.3 0 0 1-.096-.62.8.8 0 0 1 .096-.414q.607-.088 1.2-.242c.552-.137.759-.436.793-1.136.09-1.654.095-4.757.062-6.938v-.064c0-.235 0-.554-.292-.78a6.3 6.3 0 0 0-1.656-.726c-.263-.076-.407-.213-.399-.372.009-.16.174-.347.51-.405.904-.093 3.276-.654 4.206-1.082.097.124.142.28.126.435 0 .096-.015.197-.025.302-.026.309-.055.658-.055 1.007a.23.23 0 0 0 .154.186.23.23 0 0 0 .237-.055c1.775-1.38 3.36-1.874 4.177-1.874 1.341 0 2.385.637 3.193 1.947a.22.22 0 0 0 .183.106.2.2 0 0 0 .168-.09c1.631-1.229 3.248-1.963 4.327-1.963 2.558 0 4.09 1.902 4.09 5.086 0 .915-.01 2.074-.018 3.158-.007.948-.014 1.839-.014 2.455 0 .145.201.563.503.646.374.181.915.274 1.597.39h.026c.053.183-.055.892-.16 1.037-.17 0-.404-.013-.696-.027-.53-.026-1.259-.064-2.106-.064-1.698 0-2.586.033-3.435.088-.063-.21-.086-.89-.007-1.031a9 9 0 0 0 1.035-.242c.54-.177.697-.421.73-1.135.014-.507.111-4.972-.062-6.032-.161-1.098-.993-2.385-2.818-2.385-.676 0-1.769.28-2.811 1.065a.4.4 0 0 0-.101.262v.022c.123.572.123 1.239.123 2.25 0 .58 0 1.185-.008 1.791-.007 1.232-.013 2.393.008 3.271 0 .6.363.743.657.857.159.035.292.066.412.095.245.06.5.12.876.18.056.254.051.519-.015.771a.6.6 0 0 1-.11.264 90 90 0 0 0-3.312-.06c-.423 0-1.116.018-1.728.034-.493.013-.963.026-1.23.028a1.2 1.2 0 0 1-.084-.524.9.9 0 0 1 .098-.499l.375-.068c.327-.058.61-.108.877-.174.463-.145.636-.396.671-.98.091-1.366.161-5.298-.033-6.283-.332-1.58-1.237-2.382-2.693-2.382-.853 0-1.93.408-2.809 1.064a.85.85 0 0 0-.26.63v1.625c0 1.974-.013 4.433.035 5.497.03.327.146.716.765.86.136.038.37.076.641.121.158.026.33.054.504.086.057.347.028.704-.083 1.038-.272 0-.606-.017-.989-.035-.584-.024-1.314-.058-2.142-.058-.977 0-1.656.034-2.203.058-.366.02-.683.034-1 .035m31.349-11.479a2.7 2.7 0 0 0-1.487.416c-1.084.656-1.637 1.963-1.637 3.884 0 3.6 1.815 6.113 4.412 6.113a2.8 2.8 0 0 0 1.899-.669c.797-.647 1.22-1.968 1.22-3.817 0-3.546-1.772-5.927-4.411-5.927zm.496 11.749c-4.69-.002-6.365-3.416-6.365-6.619 0-2.235.92-3.983 2.735-5.194a8.4 8.4 0 0 1 4.223-1.242c3.582 0 6.084 2.559 6.084 6.222 0 2.489-1 4.454-2.89 5.683-.908.552-2.484 1.148-3.786 1.148m47.283-11.747a2.7 2.7 0 0 0-1.495.416c-1.084.656-1.638 1.962-1.638 3.884 0 3.599 1.814 6.113 4.413 6.113a2.8 2.8 0 0 0 1.91-.67c.798-.646 1.221-1.967 1.221-3.817 0-3.545-1.773-5.927-4.411-5.927m.5 11.749c-4.694 0-6.365-3.42-6.365-6.618 0-2.236.92-3.983 2.735-5.194a8.37 8.37 0 0 1 4.223-1.242c3.581 0 6.083 2.56 6.083 6.22 0 2.492-1.001 4.456-2.89 5.683-.907.555-2.483 1.15-3.786 1.15m-16.3-11.871c-1.447 0-2.382 1.135-2.382 2.891s.805 3.843 3.067 3.843c.39 0 1.096-.173 1.445-.555.525-.48.869-1.473.869-2.52 0-2.29-1.122-3.659-3-3.659zm-.19 12.116a2.4 2.4 0 0 0-1.168.29c-1.145.726-1.675 1.458-1.675 2.297 0 .79.31 1.418.972 1.977.805.676 1.889 1.005 3.314 1.005 2.806 0 4.064-1.498 4.064-2.982 0-1.035-.523-1.727-1.597-2.118-.828-.302-2.211-.467-3.904-.467zm.195 7.12c-1.686 0-2.9-.355-3.937-1.146-1.007-.774-1.46-1.92-1.46-2.713.01-.51.207-1 .552-1.38.292-.331.974-.95 2.544-2.03a.13.13 0 0 0 .084-.123.13.13 0 0 0-.1-.128c-1.295-.492-1.685-1.305-1.802-1.74 0-.017-.008-.041-.013-.069-.038-.172-.073-.333.162-.502.18-.127.472-.298.781-.48q.658-.361 1.255-.812a.2.2 0 0 0 .054-.173.2.2 0 0 0-.105-.145c-1.916-.638-2.88-2.052-2.88-4.206a4.16 4.16 0 0 1 .46-1.938c.307-.6.756-1.118 1.308-1.509.771-.604 2.705-1.331 3.958-1.331h.073c1.288.03 2.016.299 3.02.668a4.8 4.8 0 0 0 1.787.29c1.066 0 1.532-.336 1.932-.725q.098.266.102.549c.025.448-.098.891-.351 1.263-.22.3-.73.52-1.201.52-.05 0-.095 0-.146-.008q-.37-.03-.73-.12l-.12.04c-.038.057-.013.118.017.196q.01.022.018.047.127.581.174 1.176c0 2.258-.896 3.242-1.865 3.97a6.4 6.4 0 0 1-3.224 1.237c-.025 0-.146.012-.372.032-.146.013-.338.03-.365.03h-.028c-.21.059-.761.318-.761.8 0 .402.25.9 1.437.99l.768.053c1.569.108 3.526.243 4.448.554.61.213 1.138.613 1.507 1.141a3.04 3.04 0 0 1 .55 1.802c0 2.03-1.45 3.93-3.879 5.094a8.5 8.5 0 0 1-3.667.82m-7.167-8.715c-.688-.091-1.189-.184-1.78-.46a.8.8 0 0 1-.22-.435c-.062-.952-.062-3.712-.062-5.522 0-1.472-.25-2.756-.877-3.68-.749-1.043-1.81-1.657-3.185-1.657-1.218 0-2.842.827-4.186 1.963-.032.03-.238.225-.232-.077s.05-.915.079-1.305a.66.66 0 0 0-.205-.569c-.876.435-3.337 1.015-4.247 1.104-.665.128-.833.763-.124.982h.01c.57.155 1.113.392 1.614.702.28.215.248.522.248.767.03 2.056.03 5.215-.061 6.934-.032.674-.22.92-.72 1.043l.046-.016q-.571.141-1.156.214c-.156.153-.156 1.043 0 1.227.312 0 1.906-.091 3.213-.091 1.811 0 2.749.091 3.213.091.189-.214.25-1.043.124-1.227a6.6 6.6 0 0 1-1.28-.184c-.5-.122-.624-.368-.655-.92-.063-1.441-.063-4.51-.063-6.595 0-.58.155-.859.344-1.015.625-.553 1.654-.92 2.561-.92.877 0 1.468.276 1.9.644.593.49.811 1.195.875 1.717.126 1.16.094 3.498.094 5.521 0 1.105-.094 1.382-.5 1.504-.187.092-.688.184-1.28.245-.187.185-.126 1.043 0 1.228.811 0 1.752-.092 3.124-.092 1.717 0 2.81.092 3.248.092.187-.215.25-1.016.125-1.228M19.234 17.477C17.007 7.715 11.743 4.505 11.177 3.28 10.556 2.412 9.933.87 9.933.87 9.92.846 9.904.8 9.885.754c-.064.863-.098 1.2-.92 2.073-1.28.997-7.823 6.448-8.356 17.54-.497 10.34 7.525 16.505 8.617 17.291l.123.086c.007.05.345 2.465.584 5.014h.849q.301-2.708.896-5.367l.066-.043q.728-.52 1.385-1.126l.05-.045a19.8 19.8 0 0 0 4.788-6.73 19.7 19.7 0 0 0 1.622-8.081 23.5 23.5 0 0 0-.355-3.889M9.832 31.818s0-14.505.49-14.505c.375 0 .863 18.712.863 18.712-.67-.078-1.353-3.078-1.353-4.207"/></svg>