<svg xmlns="http://www.w3.org/2000/svg" width="225" height="55" fill="none"><path fill="#2861F0" d="M7.294 37.415a5.833 5.833 0 0 1-5.814-5.808V19.304a5.823 5.823 0 0 1 5.814-5.824H19.35a5.843 5.843 0 0 1 5.819 5.824v12.303a5.823 5.823 0 0 1-5.819 5.808z"/><path fill="#2861F0" d="M19.35 14.961a4.363 4.363 0 0 1 4.338 4.343v12.303a4.35 4.35 0 0 1-4.338 4.328H7.294a4.35 4.35 0 0 1-4.333-4.328V19.304a4.35 4.35 0 0 1 4.333-4.343zm0-2.961H7.294A7.304 7.304 0 0 0 0 19.304v12.303a7.31 7.31 0 0 0 7.294 7.289H19.35a7.306 7.306 0 0 0 7.3-7.297V19.304A7.324 7.324 0 0 0 19.35 12"/><path fill="#2861F0" d="M9.144 40.394c-.363 0-1.118 0-3.983-2.586-3.015-2.714-3.015-3.716-3.015-4.195a1.74 1.74 0 0 1 .726-1.434c.25-.178.54-.294.843-.335v-10.62a5.824 5.824 0 0 1 5.816-5.816h10.781q.054-.087.116-.168a1.73 1.73 0 0 1 1.357-.65c.962 0 1.893.707 3.615 2.288.158.146.294.272.402.365 1.913 1.678 3.127 2.88 2.613 4.242a1.73 1.73 0 0 1-1.011 1.014v11.028a5.82 5.82 0 0 1-5.816 5.816H10.612q-.027.073-.059.148a1.55 1.55 0 0 1-1.409.903"/><path fill="#2861F0" d="M21.786 16.071c.66 0 2.38 1.705 3.04 2.285 2.96 2.611 2.506 2.87 1.216 2.87h-.119v12.3a4.347 4.347 0 0 1-4.335 4.336H9.532c-.304 0-.96-.247-1.15-.247-.06 0-.072.028 0 .097.77.866.952 1.214.772 1.214-.73-.013-7.289-5.629-5.068-5.626.378.021.751.098 1.108.227V21.224a4.35 4.35 0 0 1 4.338-4.336h12.056c-.143-.59-.044-.817.197-.817m0-2.96a3.2 3.2 0 0 0-2.155.816H9.53a7.307 7.307 0 0 0-7.296 7.297v9.6A3.2 3.2 0 0 0 1.1 31.988c-.365.632-.829 1.944.15 3.645.74 1.263 2.266 2.726 3.428 3.73 2.692 2.33 3.615 2.52 4.466 2.52a3.03 3.03 0 0 0 2.298-1.051h10.146a7.304 7.304 0 0 0 7.297-7.304V23.314c.41-.352.725-.8.915-1.306.466-1.233.17-2.504-.878-3.773a20 20 0 0 0-2.135-2.104l-.377-.343c-1.77-1.617-3.043-2.678-4.625-2.678"/><path fill="#fff" d="M11.57 41.408a5.836 5.836 0 0 1-5.816-5.816V23.29a5.82 5.82 0 0 1 5.816-5.816h12.056a5.84 5.84 0 0 1 5.816 5.816v12.303a5.826 5.826 0 0 1-5.816 5.816z"/><path fill="#2861F0" d="M23.626 18.954a4.36 4.36 0 0 1 4.336 4.335v12.304a4.35 4.35 0 0 1-4.336 4.335H11.57a4.35 4.35 0 0 1-4.335-4.335V23.289a4.35 4.35 0 0 1 4.335-4.335zm0-2.961H11.57a7.304 7.304 0 0 0-7.297 7.296v12.304a7.324 7.324 0 0 0 7.297 7.296h12.056a7.306 7.306 0 0 0 7.297-7.297V23.29a7.32 7.32 0 0 0-7.297-7.296"/><path fill="#2861F0" d="m10.717 33.22-.398 1.48h3.504l.395-1.48zm10.61-9.23-3.314 3.75-1.283-3.763h-3.533l-1.933 7.193h3.5l.493-1.794 1.438 3.81h.062l3.474-3.81-1.42 5.308h3.562l2.877-10.707z"/><path fill="#fff" d="m52.292 32.602-6.663-9.109v15.754h-4.116V16.765H45.1l7.754 10.398 7.786-10.398h3.603v22.482h-4.116v-15.72L53.4 32.601zm16.217-1.852a8.9 8.9 0 0 1 .694-3.504 8.8 8.8 0 0 1 1.934-2.877 9.3 9.3 0 0 1 2.976-1.934q1.72-.71 3.752-.71 2.05 0 3.77.71 1.734.711 2.975 1.934a8.6 8.6 0 0 1 1.95 2.877q.711 1.636.711 3.504 0 1.885-.694 3.522a8.7 8.7 0 0 1-1.95 2.86q-1.256 1.223-2.993 1.934-1.72.694-3.785.694-2.034 0-3.753-.694a9.2 9.2 0 0 1-2.943-1.935 9 9 0 0 1-1.95-2.86 9 9 0 0 1-.695-3.52m4.017-.016q0 1.223.413 2.248a5.6 5.6 0 0 0 1.157 1.752 5.3 5.3 0 0 0 3.802 1.554q1.125 0 2.1-.396A5.3 5.3 0 0 0 81.7 34.75a5.4 5.4 0 0 0 1.141-1.769q.43-1.025.43-2.248 0-1.207-.43-2.215a5.2 5.2 0 0 0-1.14-1.753 5.3 5.3 0 0 0-1.72-1.14 5.3 5.3 0 0 0-2.083-.414q-1.124 0-2.1.414a5 5 0 0 0-1.702 1.14 5.4 5.4 0 0 0-1.157 1.753 5.8 5.8 0 0 0-.413 2.215m21.06-13.323 2.943-.017v4.844h5.422v3.471h-5.439v6.96q0 1.024.232 1.703.248.66.644 1.058.414.38.96.545.545.15 1.156.149h2.91l-.033 3.306h-3.257q-1.371 0-2.579-.28a5 5 0 0 1-2.1-1.026q-.891-.76-1.42-2.066-.513-1.306-.513-3.356v-6.993h-2.844v-3.107l2.745-.761zm12.994 4.827h4.05v17.01h-4.05zm-.447-4.81q0-.465.182-.86.183-.414.496-.711.331-.315.794-.496.462-.182 1.025-.182.561 0 1.025.182a2.4 2.4 0 0 1 .81.496q.33.297.512.71.182.398.182.86 0 .463-.182.876a2.3 2.3 0 0 1-.512.711 2.6 2.6 0 0 1-.81.48q-.464.165-1.025.165-.563 0-1.025-.165a2.6 2.6 0 0 1-.777-.48 2.3 2.3 0 0 1-.513-.71 2.2 2.2 0 0 1-.182-.877m9.258 13.324q0-1.868.694-3.504a8.8 8.8 0 0 1 1.934-2.877 9.3 9.3 0 0 1 2.976-1.934q1.719-.71 3.753-.71 2.049 0 3.769.71 1.736.711 2.975 1.934a8.6 8.6 0 0 1 1.951 2.877 8.7 8.7 0 0 1 .711 3.504 8.9 8.9 0 0 1-.695 3.522 8.7 8.7 0 0 1-1.95 2.86q-1.257 1.223-2.992 1.934-1.72.694-3.786.694-2.033 0-3.753-.694a9.2 9.2 0 0 1-2.942-1.935 9 9 0 0 1-1.951-2.86 9 9 0 0 1-.694-3.52m4.017-.016q0 1.223.413 2.248a5.7 5.7 0 0 0 1.157 1.752 5.32 5.32 0 0 0 3.803 1.554q1.124 0 2.099-.396a5.3 5.3 0 0 0 1.703-1.141 5.4 5.4 0 0 0 1.14-1.769q.43-1.025.43-2.248 0-1.207-.43-2.215a5.2 5.2 0 0 0-1.14-1.753 5.3 5.3 0 0 0-1.719-1.14 5.3 5.3 0 0 0-2.083-.414q-1.125 0-2.1.414a5 5 0 0 0-1.703 1.14 5.4 5.4 0 0 0-1.157 1.753 5.8 5.8 0 0 0-.413 2.215m36.17 8.512h-4.05v-9.075q0-1.356-.298-2.298-.297-.942-.843-1.537a3.1 3.1 0 0 0-1.339-.86q-.777-.264-1.752-.265a4.75 4.75 0 0 0-1.951.397 4.4 4.4 0 0 0-1.521 1.091 5 5 0 0 0-1.008 1.67 6.2 6.2 0 0 0-.347 2.116v8.761h-4.017v-17.01h3.273l.298 1.719a8 8 0 0 1 1.19-.86 9 9 0 0 1 1.405-.71 8.5 8.5 0 0 1 1.587-.48 7.8 7.8 0 0 1 1.67-.182q1.983 0 3.438.562 1.455.546 2.397 1.62.959 1.059 1.405 2.629.463 1.554.463 3.554zm23.491-8.497q0 1.869-.661 3.522a8.8 8.8 0 0 1-1.852 2.86q-1.19 1.223-2.876 1.934-1.67.71-3.703.71a8.3 8.3 0 0 1-1.835-.198 8.4 8.4 0 0 1-1.62-.513 9 9 0 0 1-1.405-.76 10 10 0 0 1-1.125-.926l-.231 1.868h-3.455V15.955h4.017v7.918q1.008-.926 2.447-1.537 1.439-.628 3.273-.628 2.05 0 3.703.71 1.67.712 2.843 1.951a8.5 8.5 0 0 1 1.835 2.877q.645 1.636.645 3.504m-4.017-.016q0-1.207-.43-2.215a5.1 5.1 0 0 0-1.157-1.753 4.9 4.9 0 0 0-1.719-1.14 5.5 5.5 0 0 0-2.133-.414 5.5 5.5 0 0 0-3.868 1.554 5.3 5.3 0 0 0-1.174 1.753 5.6 5.6 0 0 0-.43 2.215q0 1.239.43 2.265a5.7 5.7 0 0 0 1.157 1.752 5.5 5.5 0 0 0 1.736 1.14 5.7 5.7 0 0 0 2.133.397q1.123 0 2.116-.396a5.5 5.5 0 0 0 1.735-1.141 5.5 5.5 0 0 0 1.174-1.769q.43-1.025.43-2.248m7.356.016q0-1.868.694-3.504a8.8 8.8 0 0 1 1.935-2.877 9.3 9.3 0 0 1 2.975-1.934q1.719-.71 3.753-.71 2.05 0 3.769.71 1.736.711 2.976 1.934a8.65 8.65 0 0 1 1.95 2.877 8.7 8.7 0 0 1 .711 3.504 8.9 8.9 0 0 1-.694 3.522 8.7 8.7 0 0 1-1.951 2.86q-1.257 1.223-2.992 1.934-1.719.694-3.786.694-2.033 0-3.752-.694a9.2 9.2 0 0 1-2.943-1.935 9 9 0 0 1-1.951-2.86 9 9 0 0 1-.694-3.52m4.017-.016q0 1.223.414 2.248a5.6 5.6 0 0 0 1.157 1.752 5.3 5.3 0 0 0 3.802 1.554q1.124 0 2.099-.396a5.3 5.3 0 0 0 1.703-1.141 5.4 5.4 0 0 0 1.141-1.769 5.8 5.8 0 0 0 .429-2.248q0-1.207-.429-2.215a5.2 5.2 0 0 0-1.141-1.753 5.3 5.3 0 0 0-1.719-1.14 5.3 5.3 0 0 0-2.083-.414q-1.124 0-2.1.414a5 5 0 0 0-1.702 1.14 5.4 5.4 0 0 0-1.157 1.753 5.8 5.8 0 0 0-.414 2.215m21.077-8.498 3.736 5.521 3.753-5.521h4.744l-5.752 8.232L220 39.247h-4.811l-3.984-5.918-4.017 5.918h-4.711l6.017-8.778-5.769-8.232z"/></svg>