<svg xmlns="http://www.w3.org/2000/svg" width="225" height="55" fill="none"><path fill="url(#a)" d="m30.34 12.954-3.671 14.291a.835.835 0 0 1-1.355.424l-6.08-5.243-.01.021-1.965-10.444a.79.79 0 0 1 .682.29l6.825 8.396z"/><path fill="url(#b)" d="M13.453 37.896a.76.76 0 0 1-.713-.269l-6.618-8.004a.723.723 0 0 0-1.158.052L0 36.77l3.692-14.756a.706.706 0 0 1 1.137-.373l6.567 5.47z"/><path fill="#00759A" d="m19.224 22.447-5.15 14.922a.78.78 0 0 1-.63.527l-2.069-10.785 5.191-14.58a.8.8 0 0 1 .683-.528z"/><path fill="#1476A4" d="M40.815 38.744v-18.83c0-.61.217-1.128.641-1.562s.951-.662 1.561-.703h2.327l8.562 14.487V17.65h4.281v21.095H53.72l-8.624-14.487v14.487zm30.05-.672a7.7 7.7 0 0 1-2.72.827c-.961.103-1.799.155-2.533.155-1.468 0-2.75-.393-3.847-1.189s-1.654-2.11-1.654-3.94c0-1.716.496-2.936 1.5-3.67 1.002-.735 2.274-1.22 3.825-1.47.207 0 .445-.03.734-.092.29-.062.61-.114.983-.155 1.789-.248 2.688-.776 2.688-1.593 0-.61-.32-1.013-.95-1.189q-.947-.28-1.738-.28c-.569 0-1.076.084-1.53.249a1.7 1.7 0 0 0-.983.92h-4.095c.166-1.261.734-2.306 1.717-3.123 1.096-.94 2.668-1.406 4.705-1.406 2.285 0 3.991.393 5.14 1.158 1.178.817 1.767 1.955 1.767 3.423v5.563c0 1.634-.3 2.906-.889 3.826-.6.92-1.303 1.583-2.12 1.986m-.972-7.518c-.569.29-1.365.548-2.389.796l-1.406.31c-.734.207-1.261.466-1.592.797-.29.444-.424.9-.424 1.344 0 .61.186 1.096.548 1.468.362.331.9.486 1.592.486q1.709-.002 2.689-.982c.651-.651.982-1.55.982-2.688zm17.331 3.186h3.061c-.444 1.716-1.303 3.019-2.564 3.908-1.262.94-2.854 1.406-4.767 1.406-2.327 0-4.137-.755-5.44-2.264q-1.953-2.203-1.954-6.298 0-3.909 1.892-6.111c1.303-1.51 3.123-2.265 5.44-2.265 2.44 0 4.343.734 5.687 2.203.734.9 1.262 1.933 1.593 3.123H85.88c-.207-.404-.403-.714-.61-.92q-.79-.857-2.265-.859c-.9 0-1.633.29-2.202.858-.734.817-1.096 2.162-1.096 4.033s.362 3.195 1.096 3.971c.527.651 1.323.982 2.389.982q1.038-.002 1.768-.424a.9.9 0 0 0 .341-.217l.341-.341c.083-.124.249-.29.486-.486.248-.207.61-.3 1.096-.3m15.387-6.669c-.61-.859-1.448-1.283-2.502-1.283-1.138 0-2.017.403-2.627 1.22s-.92 1.934-.92 3.361v8.376h-4.168V17.711h2.079a2.03 2.03 0 0 1 1.468.61c.404.403.61.9.61 1.468v4.83c.735-1.22 1.769-1.996 3.123-2.327q2.017-.496 3.847.248 1.709.73 2.875 2.327c.775 1.065 1.158 2.523 1.158 4.405v9.472h-4.095v-8.438c0-.61-.052-1.169-.155-1.686-.093-.496-.331-1.023-.693-1.55m9.141 10.206c-.858-.735-1.468-1.717-1.83-2.968a13.8 13.8 0 0 1-.548-3.878c0-1.096.155-2.203.455-3.299s.786-2.016 1.437-2.75q1.582-1.83 4.095-2.172c1.676-.227 3.175-.093 4.53.393 1.551.61 2.688 1.675 3.422 3.175.693 1.344 1.045 2.916 1.045 4.705 0 1.303-.145 2.43-.424 3.36-.29.941-.652 1.738-1.096 2.39-.983 1.343-2.224 2.181-3.733 2.502a8.44 8.44 0 0 1-4.064.093c-1.386-.29-2.472-.817-3.289-1.551m2.937-10.755c-.858.941-1.241 2.337-1.158 4.188s.424 3.144 1.044 3.878c.249.33.673.6 1.283.827q.915.341 1.861.062c.631-.186 1.189-.64 1.686-1.375.486-.734.754-1.913.796-3.547 0-1.468-.238-2.564-.703-3.299-.466-.734-1.014-1.2-1.624-1.406a2.9 2.9 0 0 0-1.83-.03c-.621.185-1.076.413-1.355.702m11.768 12.223v-18.83c0-.61.217-1.128.641-1.562s.952-.662 1.562-.703h2.326l8.562 14.487V17.65h4.281v21.095h-4.467l-8.624-14.487v14.487zm30.05-.672a7.7 7.7 0 0 1-2.719.827c-.962.103-1.8.155-2.534.155-1.468 0-2.75-.393-3.847-1.189s-1.654-2.11-1.654-3.94c0-1.716.496-2.936 1.499-3.67 1.003-.735 2.275-1.22 3.826-1.47.207 0 .445-.03.735-.092.289-.062.61-.114.982-.155 1.789-.248 2.689-.776 2.689-1.593 0-.61-.321-1.013-.952-1.189q-.946-.28-1.737-.28c-.569 0-1.075.084-1.53.249a1.7 1.7 0 0 0-.983.92h-4.095c.166-1.261.734-2.306 1.717-3.123 1.096-.94 2.668-1.406 4.705-1.406 2.285 0 3.991.393 5.139 1.158 1.179.817 1.768 1.955 1.768 3.423v5.563c0 1.634-.299 2.906-.889 3.826-.6.92-1.303 1.583-2.12 1.986m-.972-7.518c-.568.29-1.365.548-2.388.796l-1.407.31c-.734.207-1.261.466-1.592.797-.29.444-.424.9-.424 1.344 0 .61.186 1.096.548 1.468.362.331.899.486 1.592.486q1.709-.002 2.689-.982c.651-.651.982-1.55.982-2.688zm17.332 3.186h3.06c-.444 1.716-1.303 3.019-2.564 3.908-1.262.94-2.854 1.406-4.767 1.406-2.327 0-4.137-.755-5.439-2.264q-1.955-2.203-1.955-6.298 0-3.909 1.892-6.111c1.303-1.51 3.123-2.265 5.44-2.265 2.44 0 4.343.734 5.687 2.203.734.9 1.262 1.933 1.593 3.123h-4.281c-.207-.404-.404-.714-.611-.92q-.79-.857-2.264-.859c-.9 0-1.634.29-2.203.858-.734.817-1.096 2.162-1.096 4.033s.362 3.195 1.096 3.971c.528.651 1.324.982 2.389.982q1.04-.002 1.768-.424a.9.9 0 0 0 .341-.217l.342-.341c.082-.124.248-.29.486-.486.238-.207.599-.3 1.086-.3m15.386-6.669c-.61-.859-1.448-1.283-2.502-1.283-1.138 0-2.017.403-2.627 1.22s-.92 1.934-.92 3.361v8.376h-4.157V17.711h2.078c.569 0 1.055.207 1.469.61.403.403.61.9.61 1.468v4.83c.734-1.22 1.768-1.996 3.123-2.327q2.016-.496 3.847.248c1.137.486 2.099 1.262 2.874 2.327.776 1.065 1.158 2.523 1.158 4.405v9.472h-4.095v-8.438c0-.61-.051-1.169-.155-1.686-.103-.496-.341-1.023-.703-1.55m9.141 10.206c-.858-.735-1.468-1.717-1.83-2.968a13.8 13.8 0 0 1-.548-3.878c0-1.096.155-2.203.455-3.299s.786-2.016 1.437-2.75q1.583-1.83 4.095-2.172c1.676-.227 3.175-.093 4.53.393 1.551.61 2.688 1.675 3.422 3.175.693 1.344 1.045 2.916 1.045 4.705 0 1.303-.145 2.43-.424 3.36-.29.941-.652 1.738-1.096 2.39-.983 1.343-2.223 2.181-3.733 2.502a8.44 8.44 0 0 1-4.064.093c-1.386-.29-2.472-.817-3.289-1.551m2.937-10.755c-.858.941-1.241 2.337-1.158 4.188s.424 3.144 1.045 3.878c.248.33.672.6 1.282.827q.915.341 1.861.062c.631-.186 1.189-.64 1.686-1.375.486-.734.755-1.913.796-3.547 0-1.468-.238-2.564-.703-3.299-.466-.734-1.014-1.2-1.624-1.406a2.9 2.9 0 0 0-1.83-.03c-.621.185-1.076.413-1.355.702"/><path fill="#858580" d="M17.951 41.64a2.5 2.5 0 0 1-.372.186c-1.437.579-2.864.868-4.302.868h-.01c-1.437 0-2.864-.29-4.302-.868-.124-.052-.248-.124-.372-.187-.682-.393-.693-.744.01-1.127 1.324-.724 2.761-.992 4.664-1.044h.01c1.903.052 3.34.32 4.664 1.044.693.383.693.734.01 1.127" opacity=".5"/><defs><linearGradient id="a" x1="20.263" x2="28.928" y1="20.412" y2="19.039" gradientUnits="userSpaceOnUse"><stop offset=".081" stop-color="#016382"/><stop offset=".15" stop-color="#016B8E"/><stop offset=".247" stop-color="#00749B"/><stop offset=".595" stop-color="#0283BB"/><stop offset=".889" stop-color="#1E8CCC"/><stop offset="1" stop-color="#4192CF"/></linearGradient><linearGradient id="b" x1="-.011" x2="11.691" y1="29.686" y2="29.686" gradientUnits="userSpaceOnUse"><stop stop-color="#5393CF"/><stop offset=".239" stop-color="#3190CE"/><stop offset=".638" stop-color="#0378A2"/><stop offset=".818" stop-color="#046889"/><stop offset="1" stop-color="#015C7A"/></linearGradient></defs></svg>