<svg xmlns="http://www.w3.org/2000/svg" width="120" height="33" fill="none"><g fill="#fff" clip-path="url(#a)"><path fill-rule="evenodd" d="m43.977 11.128.099 1.771q1.696-2.054 4.452-2.054 4.776 0 4.86 5.483v10.127h-3.432v-9.93q0-1.458-.629-2.16-.628-.7-2.056-.7-2.078 0-3.095 1.883v10.907h-3.434V11.128zm19.644 15.61q-3.263 0-5.292-2.06t-2.028-5.489v-.425q0-2.295.883-4.1.884-1.806 2.48-2.813 1.597-1.005 3.563-1.005 3.122 0 4.825 1.997t1.703 5.652v1.389h-9.992q.156 1.898 1.265 3.002 1.11 1.105 2.792 1.105 2.36 0 3.843-1.912l1.852 1.771a6.2 6.2 0 0 1-2.452 2.131q-1.535.758-3.44.758zm-.409-13.13q-1.414 0-2.282.992-.87.991-1.11 2.762h6.544v-.255q-.114-1.729-.919-2.614t-2.233-.884m13.51-6.204v3.725h2.7v2.55h-2.7v8.555q0 .878.346 1.268t1.237.39a5.3 5.3 0 0 0 1.201-.143v2.664a8.4 8.4 0 0 1-2.261.325q-3.957 0-3.957-4.376v-8.684h-2.517v-2.55h2.516V7.403h3.435m8.975 19.052h-3.435V4.698h3.435zm7.39 0h-3.434V11.129h3.435zM89.442 7.148q0-.792.501-1.317.504-.523 1.435-.523.933 0 1.442.523.508.526.508 1.318 0 .778-.508 1.296-.51.517-1.442.517t-1.435-.517q-.5-.517-.5-1.296m8.593 19.308V13.678h-2.332v-2.55h2.332V9.726q0-2.55 1.412-3.938t3.956-1.388q.905 0 1.923.255l-.085 2.691a6.7 6.7 0 0 0-1.314-.112q-2.46 0-2.459 2.535v1.36h3.108v2.549h-3.108v12.777zm14.4-4.93 3.109-10.397h3.66l-6.076 17.65q-1.4 3.867-4.749 3.868-.748 0-1.653-.256v-2.663l.65.042q1.3 0 1.957-.474.658-.474 1.039-1.593l.494-1.318-5.37-15.256h3.703z" clip-rule="evenodd"/><path d="m23.441 12.06-.01-.004-.02-.01a.09.09 0 0 1-.022-.076l.623-3.808 2.921 2.922-3.038 1.292-.026.005h-.012l-.017-.013a1.4 1.4 0 0 0-.399-.308m4.238-.232 3.123 3.124c.649.65.973.973 1.092 1.349q.027.083.043.168l-7.464-3.161-.012-.005c-.03-.012-.065-.026-.065-.056s.036-.045.066-.057l.01-.005zm4.131 5.644c-.161.303-.475.617-1.007 1.15l-3.522 3.52-4.554-.948-.024-.005c-.04-.006-.084-.014-.084-.05a1.38 1.38 0 0 0-.527-.961c-.019-.019-.014-.048-.008-.074l.001-.012.857-5.259.003-.017c.005-.04.012-.087.048-.087a1.4 1.4 0 0 0 .935-.536q.009-.013.022-.022c.026-.012.056 0 .083.011zm-5.339 5.48-5.79 5.791.99-6.092.002-.008.005-.024c.008-.019.03-.027.05-.035l.01-.004a1.5 1.5 0 0 0 .56-.417c.019-.022.042-.044.072-.048h.023zm-7.016 7.017-.653.652-7.216-10.429-.008-.011c-.011-.015-.023-.03-.021-.048 0-.013.009-.025.018-.034l.008-.01.06-.1.016-.028.003-.002c.011-.02.021-.038.04-.049.018-.008.041-.005.06 0l7.994 1.648a.13.13 0 0 1 .062.027c.01.01.012.021.015.034a1.42 1.42 0 0 0 .828.947c.023.012.013.037.003.063l-.012.036c-.101.613-.965 5.881-1.197 7.304m-1.363 1.362c-.482.477-.765.729-1.086.83-.316.1-.656.1-.972 0-.375-.119-.7-.443-1.349-1.092l-7.247-7.247 1.893-2.936a.1.1 0 0 1 .032-.038c.02-.014.05-.008.074 0 .434.131.9.108 1.32-.067.021-.008.043-.013.06.002l.023.026zM6.739 23.123l-1.662-1.662 3.283-1.4.027-.007c.027 0 .043.028.058.053q.05.075.105.148l.01.013c.01.014.003.027-.006.04L6.74 23.123zM4.34 20.725l-2.104-2.103c-.357-.358-.617-.618-.797-.84l6.395 1.326.024.004c.04.006.083.013.083.05 0 .04-.048.06-.088.075l-.018.008zM1.074 16.7q.01-.204.072-.4c.12-.375.444-.699 1.093-1.348l2.692-2.692q1.858 2.698 3.727 5.389c.022.029.046.061.021.085a2.2 2.2 0 0 0-.318.426.13.13 0 0 1-.04.05q-.015.007-.034.002h-.002l-7.212-1.513m4.577-5.16L9.268 7.92c.341.149 1.58.672 2.686 1.14.838.354 1.602.676 1.842.781.024.01.046.02.057.044.006.014.003.033 0 .048a1.61 1.61 0 0 0 .421 1.473c.024.024 0 .059-.02.089l-.012.017-3.675 5.691a.1.1 0 0 1-.034.04c-.02.013-.047.007-.07.001a1.8 1.8 0 0 0-.437-.06 2.4 2.4 0 0 0-.421.051c-.017.003-.031.006-.044-.004a.2.2 0 0 1-.037-.04zM10 7.189l4.685-4.685c.649-.649.973-.974 1.349-1.092.316-.1.656-.1.972 0 .375.118.7.443 1.349 1.092L19.37 3.52l-3.333 5.16a.1.1 0 0 1-.033.039c-.02.013-.048.008-.072 0a1.69 1.69 0 0 0-1.548.298c-.021.022-.053.01-.08-.003-.436-.189-3.82-1.62-4.305-1.825zm10.078-2.962 3.076 3.076-.741 4.592v.012q0 .016-.006.03c-.009.017-.025.02-.04.025a1.5 1.5 0 0 0-.458.234c-.01.01-.018.018-.033.02a.1.1 0 0 1-.034-.006l-4.689-1.992-.009-.004c-.03-.012-.065-.026-.065-.057a1.8 1.8 0 0 0-.25-.737c-.022-.037-.047-.076-.028-.114zm-3.17 6.934 4.395 1.861c.024.012.05.022.06.047a.1.1 0 0 1 0 .046 1 1 0 0 0-.023.212v.123c0 .031-.032.044-.06.056l-.01.003c-.696.298-9.775 4.169-9.788 4.169-.014 0-.028 0-.042-.014-.024-.024 0-.058.022-.088l.011-.017 3.612-5.592.006-.01c.021-.034.045-.072.084-.072l.036.006c.082.011.155.022.228.022.548 0 1.056-.267 1.362-.723a.1.1 0 0 1 .028-.032c.021-.016.054-.008.079.003m-5.034 7.402 9.896-4.22s.014 0 .028.013c.054.054.1.09.144.124l.022.014c.02.011.04.024.042.045l-.002.02-.846 5.208-.004.021c-.005.04-.011.087-.049.087a1.39 1.39 0 0 0-1.106.682l-.004.006c-.012.02-.022.037-.04.046-.017.009-.04.005-.057.001l-7.892-1.628c-.008-.001-.122-.418-.13-.419z"/></g><defs><clipPath id="a"><path fill="#fff" d="M.97.67h118.457v32.233H.97z"/></clipPath></defs></svg>