<svg width="48" height="48" viewBox="0 0 48 48" fill="none" xmlns="http://www.w3.org/2000/svg">
<g clip-path="url(#clip0_5141_27817)">
<mask id="mask0_5141_27817" style="mask-type:luminance" maskUnits="userSpaceOnUse" x="1" y="3" width="47" height="42">
<path d="M47.6001 3H1V44.0063H47.6001V3Z" fill="white"/>
</mask>
<g mask="url(#mask0_5141_27817)">
<path d="M13.5944 37.2404H13.1544L10.958 35.0441V34.6041L14.3157 31.2464H16.6419L16.9521 31.5565V33.8828L13.5944 37.2404Z" fill="#05BDBA"/>
<path d="M10.958 12.3986V11.9586L13.1544 9.76224H13.5944L16.9521 13.1199V15.4461L16.6419 15.7563H14.3157L10.958 12.3986Z" fill="#05BDBA"/>
<path d="M30.2924 30.1608H27.0971L26.8302 29.8939V22.414C26.8302 21.0832 26.3072 20.0517 24.7023 20.0156C23.8764 19.994 22.9315 20.0156 21.9217 20.0553L21.7702 20.2104V29.8903L21.5033 30.1572H18.3079L18.041 29.8903V17.1124L18.3079 16.8455H25.4994C28.2944 16.8455 30.5593 19.1104 30.5593 21.9054V29.8939L30.2924 30.1608Z" fill="#014847"/>
<path d="M14.0485 25.3714H1.26688L1 25.1045V21.9019L1.26688 21.635H14.0485L14.3154 21.9019V25.1045L14.0485 25.3714Z" fill="#05BDBA"/>
<path d="M47.3366 25.3714H34.555L34.2881 25.1045V21.9019L34.555 21.635H47.3366L47.6035 21.9019V25.1045L47.3366 25.3714Z" fill="#05BDBA"/>
<path d="M22.459 12.8531V3.26685L22.7259 2.99997H25.9285L26.1954 3.26685V12.8531L25.9285 13.1199H22.7259L22.459 12.8531Z" fill="#05BDBA"/>
<path d="M22.459 43.7394V34.1533L22.7259 33.8864H25.9285L26.1954 34.1533V43.7394L25.9285 44.0063H22.7259L22.459 43.7394Z" fill="#05BDBA"/>
</g>
</g>
<defs>
<clipPath id="clip0_5141_27817">
<rect width="46.6001" height="41.1391" fill="white" transform="translate(1 3)"/>
</clipPath>
</defs>
</svg>
