<svg xmlns="http://www.w3.org/2000/svg" width="91" height="25" fill="none"><path fill="#0E1E25" fill-rule="evenodd" d="m33.45 8.016.075 1.32q1.295-1.53 3.4-1.53 3.647 0 3.712 4.082v7.54h-2.622v-7.393q0-1.086-.48-1.608t-1.57-.522q-1.587 0-2.363 1.402v8.121h-2.623V8.016zm15 11.624q-2.494 0-4.041-1.535-1.55-1.534-1.55-4.087v-.316q0-1.709.675-3.053.675-1.345 1.895-2.094 1.218-.749 2.72-.749 2.384 0 3.684 1.487 1.302 1.487 1.301 4.209v1.034h-7.63q.119 1.412.966 2.235t2.131.823q1.803 0 2.936-1.424l1.413 1.319a4.7 4.7 0 0 1-1.872 1.587q-1.17.564-2.627.564zm-.313-9.777q-1.08 0-1.742.738-.665.738-.848 2.057h4.997v-.19q-.086-1.287-.701-1.946-.615-.66-1.706-.659m10.317-4.62v2.774h2.062v1.898h-2.062v6.37q0 .653.265.945.264.29.944.29.466-.003.917-.106v1.983a6.6 6.6 0 0 1-1.726.242q-3.021 0-3.022-3.258V9.915H53.91V8.016h1.92V5.243zM65.31 19.43h-2.623V3.23h2.623zm5.644 0H68.33V8.017h2.623zM68.168 5.053q0-.59.383-.98.384-.39 1.096-.39t1.101.39.388.98q0 .58-.388.965-.39.386-1.101.386-.712 0-1.096-.386a1.3 1.3 0 0 1-.383-.964M74.73 19.43V9.915h-1.78V8.016h1.78V6.972q0-1.898 1.08-2.932 1.08-1.033 3.02-1.033.692 0 1.469.19L80.234 5.2a5.3 5.3 0 0 0-1.003-.084q-1.879 0-1.878 1.887v1.012h2.374v1.899h-2.374v9.514zm10.997-3.67 2.374-7.742h2.796l-4.64 13.142q-1.07 2.88-3.627 2.88-.572 0-1.263-.19v-1.984l.497.032q.992 0 1.495-.353.502-.354.793-1.187l.377-.98-4.1-11.36h2.827z" clip-rule="evenodd"/><path fill="url(#a)" d="m17.767 8.71-.008-.003q-.008-.003-.014-.008a.07.07 0 0 1-.017-.056l.475-2.835 2.23 2.175-2.32.963-.02.003h-.009l-.012-.01a1 1 0 0 0-.305-.228m3.236-.172 2.385 2.326c.496.483.744.724.834 1.004q.021.062.033.125l-5.7-2.354-.01-.003c-.022-.01-.048-.02-.048-.042s.027-.034.05-.043l.007-.003zm3.155 4.202c-.123.225-.363.46-.77.856l-2.688 2.62-3.479-.706-.018-.003c-.03-.005-.063-.01-.063-.038a1 1 0 0 0-.403-.716c-.014-.013-.01-.035-.006-.055v-.008l.655-3.916.002-.013c.004-.03.01-.065.037-.065a1.08 1.08 0 0 0 .714-.399q.008-.01.017-.016c.02-.009.043 0 .063.008zm-4.077 4.08-4.422 4.312.757-4.536.001-.006q0-.01.004-.017c.006-.015.022-.02.038-.027l.007-.003c.166-.069.312-.175.427-.31.015-.017.033-.033.056-.036h.018zm-5.358 5.224-.498.486-5.511-7.765-.006-.008c-.009-.011-.018-.023-.016-.036q.001-.015.013-.025l.006-.008q.024-.035.047-.074l.012-.02.002-.003q.01-.023.031-.036c.013-.006.03-.003.045 0l6.105 1.227q.026.005.047.02.01.011.012.026c.042.157.121.302.231.425.11.122.247.218.401.28.018.008.01.027.002.047l-.01.027zm-1.041 1.015c-.367.355-.584.543-.83.618-.24.075-.5.075-.741 0-.287-.089-.535-.33-1.03-.814l-5.535-5.395 1.446-2.186a.1.1 0 0 1 .025-.028c.015-.011.037-.006.056 0 .331.097.688.08 1.008-.05.016-.006.033-.01.046.001l.017.02zm-8.67-6.111L3.744 15.71l2.507-1.043.02-.004c.022 0 .034.02.045.039q.038.056.08.11l.008.01q.009.015-.005.03l-1.384 2.096zm-1.83-1.786-1.607-1.566a9 9 0 0 1-.609-.626l4.884.988.018.003c.03.005.064.01.064.037 0 .03-.037.044-.067.056l-.015.006zM.686 12.165q.008-.151.055-.297c.091-.28.338-.52.834-1.005L3.631 8.86q1.419 2.01 2.847 4.013c.016.021.035.045.016.063a1.7 1.7 0 0 0-.244.317.1.1 0 0 1-.03.037q-.012.006-.026.002h-.001zM4.18 8.323l2.762-2.695c.26.111 1.207.5 2.051.849.64.264 1.224.504 1.407.582.019.007.035.014.043.032q.006.018 0 .036a1.17 1.17 0 0 0 .322 1.097c.019.018 0 .044-.016.066l-.008.013-2.807 4.237a.1.1 0 0 1-.026.03c-.015.01-.036.005-.053.001a1.4 1.4 0 0 0-.334-.044c-.101 0-.21.018-.321.038-.012.001-.023.004-.033-.003a.1.1 0 0 1-.028-.031zm3.322-3.239 3.578-3.488c.495-.483.743-.725 1.03-.813.241-.075.5-.075.742 0 .287.088.535.33 1.03.813l.776.756-2.545 3.842a.1.1 0 0 1-.025.03c-.016.01-.037.005-.056 0a1.32 1.32 0 0 0-1.181.221c-.017.017-.042.007-.062-.002-.333-.14-2.917-1.206-3.287-1.359m7.696-2.205 2.35 2.29-.567 3.42v.008l-.005.023c-.006.012-.018.014-.03.018a1.1 1.1 0 0 0-.35.174q-.01.012-.025.015l-.026-.004-3.58-1.483-.007-.003c-.023-.01-.05-.02-.05-.043a1.3 1.3 0 0 0-.19-.549c-.018-.028-.037-.056-.022-.085zm-2.42 5.163 3.356 1.386c.019.009.04.016.047.035a.1.1 0 0 1 0 .034 1 1 0 0 0-.018.158v.092c0 .023-.024.032-.047.041l-.006.003c-.532.221-7.465 3.104-7.475 3.104s-.022 0-.032-.01c-.019-.019 0-.044.016-.067l.009-.012 2.758-4.164.005-.007c.016-.025.035-.053.064-.053l.028.004c.063.008.118.016.174.016.418 0 .806-.199 1.04-.538a.1.1 0 0 1 .02-.024c.017-.012.042-.006.061.002m-3.844 5.511 7.557-3.142s.011 0 .022.01c.041.04.076.068.11.093l.017.01c.015.008.03.018.032.034q0 .008-.002.014l-.647 3.878-.003.015c-.004.03-.008.065-.037.065-.173.01-.34.063-.487.152a1.05 1.05 0 0 0-.358.356l-.003.005q-.012.021-.03.034c-.014.006-.03.003-.044 0l-6.026-1.212c-.006 0-.094-.311-.1-.312"/><defs><radialGradient id="a" cx="0" cy="0" r="1" gradientTransform="matrix(0 22.9806 -27.2122 0 -.106 11.905)" gradientUnits="userSpaceOnUse"><stop stop-color="#20C6B7"/><stop offset="1" stop-color="#4D9ABF"/></radialGradient></defs></svg>