<svg xmlns="http://www.w3.org/2000/svg" width="512" height="512" fill="none"><path fill="url(#a)" d="M256 512c141.385 0 256-114.615 256-256S397.385 0 256 0 0 114.615 0 256s114.615 256 256 256"/><mask id="c" width="512" height="512" x="0" y="0" maskUnits="userSpaceOnUse" style="mask-type:alpha"><path fill="url(#b)" d="M256 512c141.385 0 256-114.615 256-256S397.385 0 256 0 0 114.615 0 256s114.615 256 256 256"/></mask><g mask="url(#c)"><path fill="#fff" fill-rule="evenodd" d="M187.518 182.591V85.128s-21.263 0-33.751 34.157a175.9 175.9 0 0 0-11.251 63.306c-.625 7.597-3.127 37.974 3.754 50.636 6.88 12.661 14.049 22.152 18.284 24.051l2.146 2.733a29 29 0 0 0-6.669 11.814c-.833 5.465-2.502 18.563.418 23.227a37.8 37.8 0 0 1 4.109 8.863 11.47 11.47 0 0 0-4.993 3.596 11.67 11.67 0 0 0-2.45 5.686c-.419 6.749 3.334 7.596 3.334 7.596a36.5 36.5 0 0 1 2.624 10.475c.657 6.208-4.847 3.106-6.957 12.68-2.111 9.573 4.329 11.44 4.329 17.347s-1.728 15.553 4.109 18.086 12.195 6.458 10.885 16.281c-1.309 9.824 9.365 6.203 10.855 17.28 1.489 11.076-8.402 12.51-9.545 22.07s9.954 11.108 5.225 17.407-18.613 20.276-7.354 27.868c0 0 3.754 5.465.419 7.597 0 0-13.761 10.971 3.335 18.568l-9.271 15.28c28.688 17.454 61.481 26.791 94.953 27.034 54.272-.25 86.993-21.255 86.993-21.255s-9.671-13.048-2.174-16.423c0 0 10.422-1.685 5.4-17.306 0 0-.418-4.218-15.845-11.386a7.1 7.1 0 0 1-1.895-2.252 7.22 7.22 0 0 1-.455-5.769 7.15 7.15 0 0 1 1.518-2.527 20.77 20.77 0 0 0 3.753-13.08c-.563-7.501-10.841-7.784-5.994-16.929s-7.606-9.25-8.722-14.902 2.453-3.124 5.778-12.005c3.326-8.881-8.01-9.405.599-14.333a33.9 33.9 0 0 0 11.673-6.936c6.242-5.656 0-10.899 7.088-13.854a13.2 13.2 0 0 0 4.87-3.885 13.4 13.4 0 0 0 2.569-5.711 13.66 13.66 0 0 0-.767-7.886 13.46 13.46 0 0 0-5.007-6.092s-6.669-3.379.419-9.282a17.54 17.54 0 0 0 4.7-8.904 17.7 17.7 0 0 0-.947-10.051 66.6 66.6 0 0 0-12.925-22.817s-3.753-2.109.833-6.331 6.255-7.173 6.255-16.878c0 0-1.251-14.346-10.841-21.52 0 0 27.1-20.676 24.598-55.276-2.502-34.599 1.251-103.384-45.451-120.044v98.948c.022 1.681-54.596-37.988-132.561-1.489" clip-rule="evenodd"/><path fill="#E6E6E6" fill-rule="evenodd" d="M262.558 289.559s33.143-.036 43.777 38.43c0 0 7.988 45.575-39.088 46.058h-1.251c-48.467-.314-55.032-31.329-53.156-40.188.014.005 4.716-42.401 49.718-44.3" clip-rule="evenodd"/><path fill="#231F20" d="M245.605 350.862s2.283.285 5.722.429c.857.012 1.783.046 2.759.032.977-.014 2.005.001 3.067-.074 1.063-.074 2.154-.126 3.256-.223s2.212-.259 3.318-.399 2.17-.453 3.256-.682c1.036-.34 2.062-.611 3.041-.888s1.927-.517 2.804-.775l1.295-.414c.42-.125.857-.202 1.234-.351.752-.299 1.477-.536 2.13-.755q.454-.13.875-.344l.761-.32a22 22 0 0 1 1.537-.569.2.2 0 0 1 .147.005c.047.021.084.06.103.108a.2.2 0 0 1 .006.082.2.2 0 0 1-.027.078q-.451.712-.977 1.369a10.3 10.3 0 0 1-1.293 1.462 41 41 0 0 1-1.967 1.606 26 26 0 0 1-2.584 1.473c-.998.468-2.031.854-3.09 1.155a30 30 0 0 1-3.444.572c-1.182.046-2.37.193-3.544.218s-2.365.091-3.524.027c-1.159-.063-2.296-.087-3.389-.201a57 57 0 0 1-5.907-.872c-1.714-.348-3.13-.657-4.107-.943s-1.535-.452-1.535-.452a.2.2 0 0 1-.106-.08.2.2 0 0 1-.028-.13.2.2 0 0 1 .078-.112.2.2 0 0 1 .133-.032"/><path fill="#231F20" d="M278.064 339.642a16 16 0 0 1 1.658 1.685 19 19 0 0 1 1.51 1.931 17 17 0 0 1 1.427 2.488c.492.88.873 1.819 1.135 2.795.115.924 0 1.863-.334 2.731a8.5 8.5 0 0 1-.541 1.017 3.6 3.6 0 0 1-.601.682q-.292.282-.643.488a.25.25 0 0 1-.341-.109s-.144-.299-.304-.72c-.092-.216-.139-.447-.261-.716a6 6 0 0 1-.301-.839 7 7 0 0 1-.307-.926 4.2 4.2 0 0 1-.224-1.013 6.5 6.5 0 0 1-.028-1.159q0-.63-.093-1.254a25 25 0 0 0-.583-2.506 48 48 0 0 0-.659-2.196c-.458-1.288-.812-2.141-.812-2.141a.2.2 0 0 1 .004-.15.2.2 0 0 1 .108-.104.2.2 0 0 1 .097-.018.2.2 0 0 1 .093.034"/><path fill="#231F20" fill-rule="evenodd" d="M267.571 316.562s3.6-20.517 16.417-8.198c0 0 4.689 6.964-7.2 4.272a6 6 0 0 0-4.769.728 6.1 6.1 0 0 0-1.78 1.722 6.2 6.2 0 0 0-.958 2.296s-2.448 2.113-1.71-.82m-15.795 0s-3.6-20.517-16.416-8.198c0 0-4.689 6.964 7.2 4.272a6 6 0 0 1 4.769.728 6.1 6.1 0 0 1 1.78 1.722 6.2 6.2 0 0 1 .958 2.296s2.447 2.113 1.709-.82m30.77-44.728a29.2 29.2 0 0 1 11.508-9.827 28.83 28.83 0 0 1 14.82-2.7s7.351-.033 16.834 11.843c0 0 2.273 4.313 4.468 4.177 2.194-.135 7.551-2.562 6.776-3.049 0 0-.438 7.591-7.167 7.789 0 0-2.216 1.703-8.637-7.269a21.38 21.38 0 0 0-12.688-7.621 26 26 0 0 0-10.576.496 26.1 26.1 0 0 0-9.524 4.68s-4.477 5.79-5.841 3.061c0 0-1.157.057.027-1.58m-51.885 2.591a29.2 29.2 0 0 0-11.869-9.372 28.8 28.8 0 0 0-14.907-2.123s-7.344.255-16.385 12.488c0 0-2.11 4.395-4.302 4.363s-7.65-2.277-6.885-2.783c0 0 .729 7.565 7.457 7.506 0 0 2.281 1.617 8.352-7.597a21.4 21.4 0 0 1 12.394-8.143 26 26 0 0 1 10.589.095 26.1 26.1 0 0 1 9.693 4.318s4.689 5.602 5.949 2.838c.004-.009 1.161 0-.086-1.59" clip-rule="evenodd"/><path fill="#F2B8A4" fill-rule="evenodd" d="m332.302 104.748 5.63 88.883s6.565 2.277 4.05 22.508c0 0-1.877 3.165 3.438 2.846 0 0 6.566-2.532-3.438 22.467 0 0 0 3.165 3.128 0 3.127-3.166 15.948-33.543 9.382-59.813 0 0-3.438-3.798-2.812-15.189 0 0 1.251-16.773-.626-21.2a258 258 0 0 0-13.122-36.084c-5.94-11.063-5.769-9.792-5.63-4.418m-156.654-2.532s-2.376 80.721-4.797 97.786c0 0-10.738 9.496 0 15.822 0 0 4.797 3.166-6.458 6.012 0 0-3.128.314 0 6.331 0 0 .315 10.406 6.566 14.697 0 0 .625 3.643-4.379 0 0 0-19.702-19.762-14.698-44.446a55.4 55.4 0 0 1 4.586-15.718s-3.96-64.029 19.18-80.484" clip-rule="evenodd"/><path fill="#558FA7" fill-rule="evenodd" d="M213.628 231.022c-19.211-2.227-12.875-15.129-12.875-15.129s1.66-4.291 5.161-3.73c0 0-22.833-5.197-9.661-17.139 0 0-9.136-6.594-1.35-11.927 0 0-5.077-3.484-4.172-8.103a24.7 24.7 0 0 1 3.749-10.83c2.767-4.5 5.31 1.294 7.708-4.919 0 0 1.674-16.227 15.512-6.986 0 0-1.107-19.406 8.852-21.46s14.752 6.904 16.043 8.772c1.292 1.867 7.2-15.677 17.335-16.05 10.134-.373 14.751 1.867 17.888 4.664a58.4 58.4 0 0 1 8.852 21.46s14.935-3.543 20.097 5.037 2.214 13.622 2.214 13.622a8.3 8.3 0 0 1 3.631 1.021 8.4 8.4 0 0 1 2.823 2.527 11.2 11.2 0 0 1 .978 4.572c0 1.578-.333 3.137-.978 4.573 0 0-3.502 6.158-13.091.911l-6.823 7.091a12.35 12.35 0 0 1-6.441 4.06 12.22 12.22 0 0 1-7.572-.512s.553 18.104-5.351 22.207a9.4 9.4 0 0 1-5.715 2.614s-1.476 1.494 2.214 2.988a4.05 4.05 0 0 1 1.963 1.409 4.14 4.14 0 0 1 .224 4.646 4.06 4.06 0 0 1-1.818 1.596 38 38 0 0 1-7.929 2.241s-2.948 2.241 2.029 3.917 18.622 4.663 5.9 16.236-32.824 2.801-35.038.911a16.76 16.76 0 0 1-7.2-9.892c-1.661-6.158.922-.187-3.15.56-4.073.747-7.201-.187-11.251-5.784a17.5 17.5 0 0 1-3.042-5.998" clip-rule="evenodd"/></g><defs><radialGradient id="a" cx="0" cy="0" r="1" gradientTransform="translate(256 256)scale(401.92)" gradientUnits="userSpaceOnUse"><stop stop-color="#F3D2B5"/><stop offset="1" stop-color="#F28C8F"/></radialGradient><radialGradient id="b" cx="0" cy="0" r="1" gradientTransform="translate(256 256)scale(401.92)" gradientUnits="userSpaceOnUse"><stop stop-color="#F3D2B5"/><stop offset="1" stop-color="#F28C8F"/></radialGradient></defs></svg>