<svg xmlns="http://www.w3.org/2000/svg" width="225" height="55" fill="none"><path fill="#000" d="M179.395 32.35c.057-2.26-.45-4.5-1.475-6.516a10.27 10.27 0 0 0-4.107-4.227 12.3 12.3 0 0 0-6.109-1.475 12.56 12.56 0 0 0-6.624 1.716 11.6 11.6 0 0 0-4.393 4.674 14.3 14.3 0 0 0-1.536 6.677c0 .5 0 .994.06 1.475 0 .194.04.367.067.554a12.8 12.8 0 0 0 1.629 4.74 12.3 12.3 0 0 0 4.674 4.628 13.1 13.1 0 0 0 6.463 1.643 12.62 12.62 0 0 0 9.388-3.967l-4.594-4.293c-.08.094-.146.187-.233.294a6.25 6.25 0 0 1-9.121 0 6.6 6.6 0 0 1-1.556-3.025h17.233c.168-.956.247-1.926.234-2.898m-17.634-1.782a6.7 6.7 0 0 1 1.93-3.94 5.44 5.44 0 0 1 3.819-1.375 5.25 5.25 0 0 1 3.793 1.375 6.05 6.05 0 0 1 1.662 3.94zM55.619 46.252q-5.51 0-8.433-2.845-2.925-2.844-2.925-8.119V20.886h6.717v14.256q0 5.167 4.674 5.167 4.547 0 4.54-5.167V20.886h6.717v14.402q0 5.341-2.924 8.14-2.925 2.797-8.366 2.824m20.578-19.804h-4.754v-5.562h4.78V14.21h6.718v6.677h5.849v5.562h-5.85v19.036h-6.743zm16.793-5.562h6.496l.053 4.06a7.97 7.97 0 0 1 2.724-3.339 6.93 6.93 0 0 1 4.007-1.148 7.4 7.4 0 0 1 2.851.527l-.575 6.33a8.2 8.2 0 0 0-2.997-.574 5.07 5.07 0 0 0-4.274 2.003q-1.522 2.003-1.522 5.555v11.19h-6.764zm27.081 0h-6.717v24.591h6.717zm15.891 25.366a10.8 10.8 0 0 1-5.822-1.596 11.1 11.1 0 0 1-4.087-4.567 15 15 0 0 1-1.502-6.837 14.6 14.6 0 0 1 1.476-6.543 12.1 12.1 0 0 1 4.173-4.781 10.7 10.7 0 0 1 6.089-1.816 10 10 0 0 1 4.42.961 8.14 8.14 0 0 1 3.212 2.704V8.881h6.723v36.603h-6.423l-.093-3.145a8 8 0 0 1-3.339 2.925 11.1 11.1 0 0 1-4.827.988m1.836-6.01a6.13 6.13 0 0 0 4.674-2.002 7.26 7.26 0 0 0 1.836-5.128 7.22 7.22 0 0 0-1.816-5.068 6.6 6.6 0 0 0-4.707-1.984 6.57 6.57 0 0 0-4.708 1.984 7.23 7.23 0 0 0-1.816 5.068 7.26 7.26 0 0 0 1.837 5.128 6.11 6.11 0 0 0 4.7 2.023zm46.091-19.356h6.476l.047 4.06a8 8 0 0 1 2.731-3.339 6.93 6.93 0 0 1 4.006-1.148 7.5 7.5 0 0 1 2.851.527l-.574 6.33a8.2 8.2 0 0 0-2.998-.574 5.06 5.06 0 0 0-4.273 2.003q-1.523 2.003-1.523 5.555v11.19h-6.743zm-67.203-2.87a3.9 3.9 0 0 1-2.885-1.136 3.8 3.8 0 0 1-1.135-2.777 3.7 3.7 0 0 1 1.135-2.764 4.276 4.276 0 0 1 5.749 0 3.68 3.68 0 0 1 1.135 2.75 3.74 3.74 0 0 1-1.135 2.805 3.94 3.94 0 0 1-2.864 1.122M21.16 8H0l2.237 6.55h18.922a12.573 12.573 0 1 1-7.972 2.851H4.674A19.116 19.116 0 1 0 21.159 8"/></svg>