<svg xmlns="http://www.w3.org/2000/svg" width="225" height="55" fill="none"><path fill="#2F2E2E" d="M182.902 49.751c-9.444 0-17.1-7.656-17.1-17.099s7.656-17.098 17.1-17.098c9.443 0 17.098 7.655 17.098 17.098-.023 9.443-7.655 17.075-17.098 17.1m0-28.353a11.224 11.224 0 0 0-11.23 11.23c0 6.207 5.023 11.23 11.23 11.23 6.206 0 11.23-5.023 11.23-11.23 0-6.182-5.024-11.206-11.23-11.23M102.624 49.75c-9.443 0-17.099-7.655-17.099-17.098s7.656-17.099 17.099-17.099 17.099 7.656 17.099 17.1c0 9.442-7.656 17.098-17.099 17.098m0-28.352c-6.207 0-11.254 5.023-11.254 11.23s5.023 11.23 11.254 11.23c6.207 0 11.23-5.023 11.23-11.23 0-6.183-5.023-11.206-11.23-11.23"/><path fill="#2F2E2E" fill-rule="evenodd" d="M0 32.652c0 9.443 7.656 17.099 17.099 17.099 9.42 0 17.062-7.62 17.098-17.032.036 9.412 7.678 17.032 17.099 17.032 9.443 0 17.099-7.656 17.099-17.099s-7.656-17.099-17.099-17.099c-9.42 0-17.063 7.62-17.099 17.032-.036-9.412-7.678-17.032-17.098-17.032C7.656 15.553 0 23.21 0 32.653" clip-rule="evenodd"/><path fill="#2F2E2E" d="m135.807 37.513-8.815 12.052h-7.269l12.461-16.978-12.123-16.713h7.487l8.428 11.593 8.477-11.593h7.269l-12.147 16.592 12.461 17.099h-7.487zm19.707-21.615h6.4v33.69h-6.4zm3.188-3.604a3.647 3.647 0 1 0 0-7.294 3.647 3.647 0 0 0 0 7.294"/></svg>