<svg xmlns="http://www.w3.org/2000/svg" fill="none" viewBox="0 0 1201 269" height="269" width="1201">
<path fill="#2F2E2E" d="M1098.31 268.507C1041.65 268.507 995.715 222.572 995.715 165.914C995.715 109.257 1041.65 63.3218 1098.31 63.3218C1154.97 63.3218 1200.9 109.257 1200.9 165.914C1200.76 222.572 1154.97 268.362 1098.31 268.507ZM1098.31 98.3887C1061.07 98.3887 1030.93 128.529 1030.93 165.769C1030.93 203.01 1061.07 233.15 1098.31 233.15C1135.55 233.15 1165.69 203.01 1165.69 165.769C1165.69 128.674 1135.55 98.5336 1098.31 98.3887Z"></path>
<path fill="#2F2E2E" d="M616.643 268.505C559.986 268.505 514.051 222.571 514.051 165.913C514.051 109.255 559.986 63.3203 616.643 63.3203C673.301 63.3203 719.236 109.255 719.236 165.913C719.236 222.571 673.301 268.505 616.643 268.505ZM616.643 98.3873C579.403 98.3873 549.118 128.527 549.118 165.768C549.118 203.008 579.258 233.149 616.643 233.149C653.884 233.149 684.024 203.008 684.024 165.768C684.024 128.672 653.884 98.5322 616.643 98.3873Z"></path>
<path fill="#2F2E2E" d="M0.898438 165.913C0.898438 222.571 46.8333 268.505 103.491 268.505C160.015 268.505 205.866 222.788 206.083 166.315C206.299 222.788 252.151 268.505 308.675 268.505C365.332 268.505 411.267 222.571 411.267 165.913C411.267 109.255 365.332 63.3203 308.675 63.3203C252.151 63.3203 206.299 109.038 206.083 165.511C205.866 109.038 160.015 63.3203 103.491 63.3203C46.8333 63.3203 0.898438 109.255 0.898438 165.913Z" clip-rule="evenodd" fill-rule="evenodd"></path>
<path fill="#2F2E2E" d="M815.741 195.079L762.851 267.387H719.234L794.005 165.519L721.263 65.2446H766.184L816.755 134.799L867.617 65.2446H911.233L838.346 164.794L913.117 267.387H868.196L815.741 195.079Z"></path>
<path fill="#2F2E2E" d="M933.984 65.3892H972.384V267.531H933.984V65.3892Z"></path>
<path fill="#2F2E2E" d="M953.111 43.7612C965.195 43.7612 974.992 33.965 974.992 21.8806C974.992 9.79629 965.195 0 953.111 0C941.027 0 931.23 9.79629 931.23 21.8806C931.23 33.965 941.027 43.7612 953.111 43.7612Z"></path>
</svg>
