<svg xmlns="http://www.w3.org/2000/svg" width="225" height="55" fill="none"><path fill="#FF6B6B" d="M0 6.719v37.656h8.594V31.563h7.031c8.75 0 12.656-6.094 12.656-12.344s-3.906-12.5-12.656-12.5zm8.594 17.344v-9.844h6.562c3.281 0 4.531 2.5 4.531 5 0 2.343-1.25 4.843-4.53 4.843zm42.187-2.188a10.16 10.16 0 0 0-8.125-3.594c-7.187 0-12.187 5.313-12.187 13.282 0 7.968 5 13.437 12.187 13.437 3.125 0 6.25-1.406 8.125-3.906v3.281h7.969V18.906h-7.969zM44.531 37.5c-3.437 0-5.937-2.812-5.937-5.937 0-3.282 2.5-5.938 5.937-5.938a5.935 5.935 0 0 1 5.938 5.938c0 3.125-2.657 5.937-5.938 5.937m37.032-19.219c-2.5 0-5.938.938-7.813 3.438V5h-8.125v39.375h8.125v-2.812C75.625 43.906 79.063 45 81.563 45c6.406 0 12.5-5.156 12.5-13.437 0-8.282-6.094-13.282-12.5-13.282M80 37.5c-3.125 0-5.937-2.656-5.937-5.937s2.812-5.938 5.937-5.938 5.781 2.656 5.781 5.938c0 3.28-2.656 5.937-5.781 5.937M103.438 15c2.812 0 5-2.031 5-4.687s-2.188-4.688-5-4.688c-2.657 0-5 2.031-5 4.688s2.343 4.687 5 4.687m4.062 29.375V18.906h-8.125v25.469zm19.219.625c7.343 0 13.906-5.312 13.906-13.437 0-7.97-6.563-13.282-13.906-13.282s-13.907 5.313-13.907 13.282c0 8.125 6.563 13.437 13.907 13.437m0-7.5c-3.125 0-5.625-2.344-5.625-5.937 0-3.438 2.5-5.938 5.625-5.938s5.625 2.5 5.625 5.938c0 3.593-2.5 5.937-5.625 5.937"/></svg>