<svg xmlns="http://www.w3.org/2000/svg" width="122" height="28" fill="none"><path fill="#5B35D5" d="M4.717.758C2.424.758.46 5.779.46 14.023s1.966 13.265 4.258 13.265c.505 0 .941-.327 1.136-.792l4.584-10.94a.56.56 0 0 1 1.03-.009l3.024 7.327a.902.902 0 0 0 1.273.433c3.757-2.218 7.937-5.79 9.916-7.951.748-.737.748-1.93.001-2.668-2.123-2.2-5.886-5.567-10.012-7.86C10.54 1.978 7.01.758 4.717.758"/><path fill="#322B5F" d="M73.244 7.448c0-.35.285-.636.635-.636h9.047c.351 0 .635.285.635.636v.891a.635.635 0 0 1-.635.636h-3.408a.09.09 0 0 0-.09.09v11.593a.636.636 0 0 1-.636.636h-.891a.636.636 0 0 1-.636-.636V9.066a.09.09 0 0 0-.09-.091h-3.296a.636.636 0 0 1-.635-.636z"/><path fill="#322B5F" fill-rule="evenodd" d="M35.246 7.448c0-.35.285-.636.636-.636h5.383c1.185 0 2.123.404 2.753 1.21.618.79.899 1.654.899 3.024v.174l-.004.22c-.018.783-.092 1.245-.234 1.754-.143.56-.333 1.022-.584 1.361a2.5 2.5 0 0 1-.92.768l-.005.003-.005.002c-.345.16-.667.267-.963.312q-.41.06-.937.06h-3.771a.077.077 0 0 0-.086.076v4.882a.636.636 0 0 1-.635.636h-.891a.63.63 0 0 1-.636-.636zm6.915 1.794-.004-.003c-.194-.137-.337-.202-.436-.225l-.013-.003-.012-.004a1.6 1.6 0 0 0-.476-.059H37.5a.09.09 0 0 0-.092.091v4.453c0 .05.041.091.091.091h3.721c.524 0 .879-.155 1.12-.424.08-.09.18-.301.257-.67q.062-.294.096-.667c.011-.114.02.026.027-.098a11 11 0 0 0 .016-.674c-.012-.565-.08-.882-.188-1.204-.111-.333-.25-.513-.383-.602z" clip-rule="evenodd"/><path fill="#322B5F" d="M59.854 7.454c0-.351.284-.636.635-.636h1.008a.63.63 0 0 1 .532.287l6.369 9.681c.05.076.167.04.167-.05V7.454c0-.351.285-.636.635-.636h.892c.35 0 .635.285.635.636v13.21a.636.636 0 0 1-.635.636h-.972a.63.63 0 0 1-.43-.168l-.012-.01a.6.6 0 0 1-.088-.108L62.2 11.33a.09.09 0 0 0-.091-.04l-.022.007a.1.1 0 0 0-.024.016.1.1 0 0 0-.03.066v9.286a.633.633 0 0 1-.635.636h-.91a.636.636 0 0 1-.636-.636zm34.118 8.354a.09.09 0 0 1 .086.091v4.76a.635.635 0 0 0 .635.636h.892c.35 0 .635-.286.635-.637V7.448a.634.634 0 0 0-.635-.636h-.891a.636.636 0 0 0-.636.636v6.072c0 .05-.04.09-.09.09h-5.67a.09.09 0 0 1-.09-.09V7.448a.634.634 0 0 0-.636-.636h-.891a.633.633 0 0 0-.636.636v13.21c0 .351.284.636.636.636h.89a.636.636 0 0 0 .637-.636V15.9a.09.09 0 0 1 .095-.09zm7.938-8.978a2.383 2.383 0 0 0-2.383 2.383v9.7a2.383 2.383 0 0 0 2.383 2.382h5.989a.65.65 0 0 0 .651-.651v-.86a.65.65 0 0 0-.651-.65h-5.989a.22.22 0 0 1-.205-.136q-.007-.018-.012-.038l-.005-.048V15.99c0-.107.088-.195.196-.195h4.843a.65.65 0 0 0 .572-.34.64.64 0 0 0 .079-.31v-.86a.65.65 0 0 0-.651-.651h-4.843a.196.196 0 0 1-.196-.195V9.213c0-.123.1-.222.222-.222h5.989a.65.65 0 0 0 .651-.65v-.86a.65.65 0 0 0-.651-.65z"/><path fill="#322B5F" fill-rule="evenodd" d="m50.614 7.227-5.129 13.225a.636.636 0 0 0 .593.866h1.056a.64.64 0 0 0 .598-.421l.976-2.633h5.731l.99 2.635c.091.251.33.419.598.419h1c.447 0 .754-.45.592-.866L52.486 7.227c-.156-.4-.505-.5-.934-.5s-.782.1-.938.5m1.024 3.582 2.022 5.382h-4.184l1.993-5.382a.09.09 0 0 1 .086-.057.09.09 0 0 1 .083.057m60.104-3.361c0-.35.285-.636.636-.636h5.383c1.185 0 2.123.404 2.753 1.21.618.79.899 1.524.899 2.894l-.001.212-.002.097-.001.085c-.018.782-.092 1.375-.234 1.884a5 5 0 0 1-.277.822 3 3 0 0 1-.436.702 2.3 2.3 0 0 1-.285.278 2.6 2.6 0 0 1-.506.327l-.005.003-.005.002a5 5 0 0 1-.808.294.094.094 0 0 0-.063.131l2.634 4.608a.65.65 0 0 1-.587.933h-.918a.65.65 0 0 1-.585-.366l-2.905-4.867a.65.65 0 0 0-.54-.361h-1.899a.077.077 0 0 0-.086.076v4.883a.633.633 0 0 1-.635.635h-.891a.636.636 0 0 1-.636-.636zm6.914 1.794-.004-.003a2 2 0 0 0-.232-.145 1 1 0 0 0-.203-.08l-.013-.003-.012-.004-.088-.022-.016-.004-.05-.01a2 2 0 0 0-.199-.02l-.065-.002h-3.779a.09.09 0 0 0-.091.09v4.453c0 .05.041.091.091.091h3.721c.524 0 .879-.155 1.12-.424.08-.09.179-.301.257-.67a6 6 0 0 0 .094-.64q.016-.171.027-.357c.006-.106.01-.086.014-.2l.002-.088.001-.12.001-.164c-.012-.566-.081-.752-.188-1.074-.112-.333-.25-.513-.384-.602z" clip-rule="evenodd"/></svg>