<svg xmlns="http://www.w3.org/2000/svg" width="179" height="29" viewBox="0 0 180 29"><path d="M.063 14.5C.063 6.492 6.52 0 14.488 0c5.856 0 10.895 3.508 13.157 8.55L8.57 27.728a14.4 14.4 0 0 1-2.328-1.329L18.082 14.5h-3.594L4.29 24.754A14.5 14.5 0 0 1 .063 14.5m28.847.004L14.492 29c7.961-.004 14.414-6.492 14.418-14.496m0 0" style="stroke:none;fill-rule:nonzero;fill:#fff;fill-opacity:1"/><path d="M36.555 4.406V24.22h2.758v-6.14h4.113c3.742-.04 6.789-2.884 6.789-6.618 0-4.14-2.965-7.055-6.774-7.055Zm11.023 6.871c0 2.32-1.887 4.36-4.183 4.371h-4.082V6.852h4.062c2.305 0 4.203 1.98 4.203 4.425m0 0" style="stroke:none;fill-rule:evenodd;fill:#fff;fill-opacity:1"/><path d="M160.816 24.219V4.406h2.77V24.22Zm-106.402 0V4.418h-2.77v19.8Zm0 0" style="stroke:none;fill-rule:nonzero;fill:#fff;fill-opacity:1"/><path d="M71.473 24.219V9.387h-2.77v2.09h-.05c-1.145-1.688-2.958-2.493-5.114-2.493-4.34 0-7.723 3.32-7.723 8.059 0 4.285 3.516 7.55 7.829 7.55 2.105 0 3.968-.91 5.007-2.679h.051v2.305Zm-7.856-2.168c-2.765 0-5.031-2.438-5.031-5.223 0-2.918 2.266-5.3 5.031-5.3 3.063 0 5.14 2.41 5.14 5.3 0 2.813-2.26 5.223-5.14 5.223m0 0" style="stroke:none;fill-rule:evenodd;fill:#fff;fill-opacity:1"/><path d="M86.926 24.219v-8.89c0-4.095-2.61-6.345-6.153-6.345-1.703 0-3.222.563-4.312 1.98h-.055V9.388h-2.765V24.22h2.953v-8.114c0-2.78 1.465-4.578 3.886-4.578 2.45 0 3.676 1.473 3.676 4.606v8.086Zm0 0" style="stroke:none;fill-rule:nonzero;fill:#fff;fill-opacity:1"/><path d="M103.332 17.902c.066-.465.066-.863.066-1.289 0-4.254-3.3-7.629-7.644-7.629-3.914 0-7.426 3.266-7.426 7.954 0 3.96 3.356 7.656 7.508 7.656 3.168 0 5.937-1.98 7.082-5.035h-2.77c-.851 1.582-2.476 2.492-4.207 2.492-2.242 0-4.168-1.551-4.828-3.973h12.192q.016-.087.027-.176m-12.215-2.254c.32-2.425 2.52-4.12 4.719-4.12 2.3 0 4.453 1.718 4.77 4.12Zm0 0" style="stroke:none;fill-rule:evenodd;fill:#fff;fill-opacity:1"/><path d="M123.547 9.36h3.082c-.469-2.434-3.23-4.954-6.945-4.954-3.887 0-6.864 2.235-6.864 5.59 0 2.711 1.926 4.371 5.035 5.219l2.29.629c2.07.55 3.675 1.285 3.675 3.015 0 1.899-1.804 3.157-4.293 3.157-1.984 0-3.672-.786-4.164-2.422h-3.078c.508 3 3.16 4.996 7.262 4.996 4.547 0 7.168-2.406 7.168-5.703 0-3.508-3.117-4.918-5.574-5.524l-1.895-.496c-1.512-.39-3.523-1.176-3.516-3.039 0-1.656 1.504-2.976 3.887-2.976 2.04 0 3.535.972 3.93 2.507m18.918 10.235c-1.23 3.176-3.985 5-7.168 5-4.234 0-7.563-3.43-7.563-7.657 0-4.472 3.22-7.953 7.536-7.953 3.25 0 6.23 1.989 7.207 5.04h-3.122c-.832-1.567-2.125-2.497-4.007-2.497-2.903 0-4.844 2.223-4.844 5.25 0 2.942 1.996 5.274 4.793 5.274 1.785 0 3.238-.91 4.047-2.457Zm0 0" style="stroke:none;fill-rule:nonzero;fill:#fff;fill-opacity:1"/><path d="M158.648 9.387v14.832h-2.77v-2.305h-.05c-1.039 1.77-2.902 2.68-5.008 2.68-4.312 0-7.828-3.266-7.828-7.551 0-4.738 3.383-8.059 7.723-8.059 2.156 0 3.969.805 5.113 2.493h.05v-2.09Zm-12.886 7.441c0 2.785 2.261 5.223 5.031 5.223 2.879 0 5.14-2.41 5.14-5.223 0-2.89-2.078-5.3-5.14-5.3-2.77 0-5.031 2.382-5.031 5.3m34.242.992c.05-.43.05-.808.05-1.207v-.195a8 8 0 0 0-.19-1.559 7.6 7.6 0 0 0-1.079-2.527c-1.351-2.027-3.656-3.348-6.37-3.348-3.915 0-7.43 3.266-7.43 7.954 0 .492.054.984.152 1.464.699 3.364 3.722 6.192 7.36 6.192 3.167 0 5.937-1.98 7.081-5.035h-2.77a5 5 0 0 1-.355.562 4.77 4.77 0 0 1-3.851 1.93c-2.243 0-4.172-1.551-4.829-3.973h12.192l.012-.07q.017-.094.027-.188m-12.188-2.422c.434-2.293 2.555-3.87 4.68-3.87 2.3 0 4.45 1.718 4.77 4.12h-9.489q.017-.125.04-.25m0 0" style="stroke:none;fill-rule:evenodd;fill:#fff;fill-opacity:1"/><path d="M108.328 9.39h3.094v2.43h-3.094v8.29c0 1.456.703 1.863 1.484 1.937.06 0 .106.004.149.004.477.027.848-.047 1.078-.121a7.3 7.3 0 0 0 1.309 2.011c-.961.582-2.102.692-2.961.641a5 5 0 0 1-1.2-.21c-1.69-.517-2.226-1.743-2.417-2.243h.011a4.3 4.3 0 0 1-.222-1.43V11.82h-2.176V9.39h2.176V4.407h2.77Zm0 0" style="stroke:none;fill-rule:nonzero;fill:#fff;fill-opacity:1"/></svg>