<svg xmlns="http://www.w3.org/2000/svg" width="110" height="40" fill="none"><path fill="#EA3323" d="M.941.521h108.667v39H.941z"/><path fill="#F7FAFC" fill-rule="evenodd" d="M10.941 10.522h14.187v14.25H15.67v4.75h-4.729V10.52m4.73 4.75h4.728v4.75H15.67zm27.782-4.75H29.266v19h14.187zm-4.73 4.75h-4.728v9.5h4.729zm23.645-4.75H48.181v19h4.73v-4.75h9.457zm-4.729 4.75H52.91v4.75h4.73zm8.867-4.75h14.186v14.25h-9.457v4.75h-4.73zm4.729 4.75h4.729v4.75h-4.73zm18.915-4.75h-4.73v14.25h9.458v4.75h4.73v-19h-4.73v9.5H90.15z" clip-rule="evenodd"/></svg>