<svg xmlns="http://www.w3.org/2000/svg" width="85" height="39" fill="none" viewBox="0.5 0 85 39"><path fill="#000" d="M82.357 21.315c.954 0 1.813.76 1.813 1.805s-.859 1.805-1.813 1.805c-1.05 0-1.91-.76-1.91-1.805s.86-1.805 1.91-1.805m-4.678.665c.382.38.287 1.33-.572 1.995-3.055 2.755-6.205.76-5.06-2.565-1.145 1.045-2.1 2.185-4.2 3.135-2.386 1.14-4.868.475-4.963-2.09-.382.38-.955.855-1.623 1.425-2.482 1.995-4.39 1.805-5.536.855-.86-.855-.955-2.66.859-4.94 1.623-2.09 2.768-3.325 2.005-3.895-.478-.285-2.482.19-4.582 2.565-1.718 1.805-3.341 4.465-4.01 5.985-.477 1.045-1.336 1.235-2.1.95-.954-.38-.668-1.52.096-3.04-.477.38-.955.95-1.718 1.52-2.482 1.995-4.486 1.805-5.536.855-.86-.855-.955-2.66.859-4.94 1.622-2.09 2.672-3.325 1.909-3.895-.668-.475-4.391.95-7.255 6.555-3.054 5.795-4.964 10.925-6.014 13.3-.668 1.71-1.431 2.375-2.577 2.28-1.24-.095-1.718-1.045-.763-3.135 1.431-3.04 3.818-7.41 5.727-11.4-.191.095-.382.285-.477.38-3.819 3.04-6.3.665-5.06-2.47-1.05 1.045-2.004 2.185-4.104 3.135-2.1 1.045-4.2.57-4.868-1.14-.86.76-1.91 1.615-3.532 1.9-4.295.665-5.918-3.61-6.014-6.745h-.763c-.86 1.615-1.91 3.42-3.055 5.32-.954 1.52-2.004 1.995-3.15 1.615-1.05-.285-1.05-1.805.096-3.23 2.386-3.135 3.531-4.845 6.013-8.55.668-1.045 1.432-1.045 2.1-.855.287.19.478.475.478.855.763.285.859.95.859 2.09v.19c3.531-.95 6.872-2.85 7.254-6.365.382-2.85-1.623-5.035-5.059-4.75-4.582.38-7.255 3.135-8.018 5.51-.382 1.425-1.814 1.995-2.482 1.995-1.05 0-1.814-1.14-.955-2.66C3.034 7.54 7.807 2.41 14.966 2.22c5.154-.095 8.018 3.515 7.159 7.695-.955 4.465-5.632 7.22-10.691 8.265.477 2.28 1.718 4.275 4.009 4.18 1.24 0 2.196-.855 2.673-1.52 1.145-4.37 5.536-7.315 8.495-7.315 1.337 0 2.196.57 2.768 1.235.573-.38 1.05-.57 1.623-.475 1.146.095 1.527.95 1.241 1.615-.19.475-1.623 3.135-2.005 4.845s.478 1.615.955 1.33c2.195-.95 3.723-3.8 4.296-5.32 1.145-3.135 1.718-3.61 2.863-3.23.86.285.955 1.52.096 2.945 1.05-1.14 2.004-2.185 4.104-3.23 1.623-.665 3.246-.665 4.2.19 1.432 1.235.668 3.325-1.718 6.08-1.527 1.71-1.718 2.755-1.05 2.945.382.19.954 0 1.432-.285 3.054-1.995 5.345-5.51 6.586-8.075 1.91-4.085 3.532-7.79 5.536-11.875.86-1.805 1.91-2.375 3.055-2.185 1.145.285 1.145 1.425.286 2.85-1.813 3.04-4.581 8.36-6.872 12.92.954-.855 1.909-1.71 3.627-2.565 1.527-.665 3.15-.665 4.105.19 1.431 1.235.763 3.325-1.719 6.08-1.527 1.71-1.718 2.755-.954 2.945.286.19.859 0 1.336-.285 1.527-1.045 2.864-2.66 3.914-4.18 1.813-2.755 4.963-4.465 7.159-4.465 1.432 0 2.29.57 2.864 1.235.477-.38.954-.57 1.527-.475 1.24.095 1.623.95 1.336 1.615-.19.475-1.718 3.135-2.1 4.845s.382 1.71.86 1.33c.572-.38 1.24-.57 1.717-.095m-54.027-.38c1.814-1.045 2.96-2.47 3.723-3.705-.382-.665-.955-1.425-2.196-1.425-1.05 0-2.959 1.235-3.627 3.42-.764 2.185.86 2.565 2.1 1.71m44.96 0c1.717-1.045 2.863-2.47 3.627-3.705-.287-.665-.955-1.425-2.196-1.425-1.145 0-2.864 1.235-3.627 3.42-.764 2.185.954 2.565 2.195 1.71"/></svg>