<svg width="48" height="48" viewBox="0 0 48 48" fill="none" xmlns="http://www.w3.org/2000/svg">
<path d="M23.3447 16.2288H7.95306C6.43742 16.2288 5.23535 15.0216 5.23535 13.5577V4.6711C5.23535 3.18145 6.46355 2 7.95306 2H20.627C22.1426 2 23.3447 3.20713 23.3447 4.6711V16.2288Z" fill="#FD5402"/>
<path d="M39.8527 31.7284H23.3615V16.2061H39.8527C41.4485 16.2061 42.7645 17.5206 42.7645 19.1148V28.8198C42.7645 30.4419 41.4485 31.7284 39.8527 31.7284Z" fill="#FD5402"/>
<path d="M20.627 46H7.95306C6.46355 46 5.23535 44.7951 5.23535 43.3336V34.4375C5.23535 32.9762 6.46355 31.7711 7.95306 31.7711H23.3447V43.3336C23.3447 44.7951 22.1165 46 20.627 46Z" fill="#FD5402"/>
</svg>
