<?xml version="1.0" encoding="iso-8859-1"?>
<svg version="1.1" id="Capa_1" xmlns="http://www.w3.org/2000/svg" xmlns:xlink="http://www.w3.org/1999/xlink" x="0px" y="0px"
	 viewBox="0 0 2133.486 282.443" style="enable-background:new 0 0 2133.486 282.443;" xml:space="preserve">
<g>
	<rect x="1255.203" y="79.034" style="fill:#231F20;" width="5.2" height="120.908"/>
	<polygon style="fill:#231F20;" points="21.016,78.888 21.016,200.087 101.128,200.087 101.128,181.348 43.024,181.348
		43.024,78.888 	"/>
	<rect x="156.927" y="78.889" style="fill:#231F20;" width="22.004" height="121.199"/>
	<path style="fill:#231F20;" d="M297.724,201.804c-13.409,0-24.729-2.518-33.951-7.56c-9.229-5.046-16.246-12.21-21.061-21.492
		c-4.815-9.286-7.22-20.286-7.22-33.008c0-12.831,2.462-23.922,7.392-33.264c4.927-9.338,12.035-16.558,21.317-21.66
		c9.286-5.099,20.398-7.648,33.351-7.648c8.479,0,16.442,1.231,23.894,3.692c7.452,2.465,13.637,5.874,18.568,10.229l-7.392,17.193
		c-5.386-4.24-10.888-7.276-16.505-9.114c-5.614-1.83-11.803-2.749-18.564-2.749c-12.838,0-22.551,3.724-29.136,11.172
		c-6.596,7.455-9.889,18.171-9.889,32.149c0,14.097,3.38,24.816,10.145,32.149c6.761,7.336,16.79,11.004,30.083,11.004
		c3.78,0,7.651-0.316,11.603-0.947c3.955-0.628,7.879-1.574,11.775-2.837V150.92h-27.846v-16.334h46.242v58.28
		c-5.618,2.749-12.263,4.927-19.942,6.533C312.907,201.002,305.288,201.804,297.724,201.804"/>
	<polygon style="fill:#231F20;" points="398.528,200.087 398.528,78.888 420.532,78.888 420.532,129.432 482.939,129.432
		482.939,78.888 504.943,78.888 504.943,200.087 482.939,200.087 482.939,147.825 420.532,147.825 420.532,200.087 	"/>
	<polygon style="fill:#231F20;" points="595.646,200.087 595.646,97.284 554.044,97.284 554.044,78.888 659.256,78.888
		659.256,97.284 617.65,97.284 617.65,200.087 	"/>
	<path style="fill:#231F20;" d="M706.024,200.085V78.89h52.95c12.722,0,22.572,2.781,29.568,8.335
		c6.989,5.561,10.488,13.269,10.488,23.126c0,6.529-1.666,12.147-4.99,16.846c-3.321,4.702-7.907,8.139-13.749,10.313
		c6.876,1.95,12.231,5.362,16.074,10.229c3.836,4.871,5.761,11.035,5.761,18.483c0,10.769-3.643,19.111-10.92,25.013
		c-7.28,5.902-17.393,8.851-30.343,8.851H706.024z M727.169,130.29h28.021c15.012,0,22.519-5.786,22.519-17.361
		s-7.508-17.365-22.519-17.365h-28.021V130.29z M727.169,183.411h30.942c15.127,0,22.691-6.073,22.691-18.22
		c0-12.15-7.564-18.227-22.691-18.227h-30.942V183.411z"/>
	<polygon style="fill:#231F20;" points="1023.47,200.087 1069.711,138.371 1025.188,78.888 1050.804,78.888 1082.262,122.381
		1113.723,78.888 1139.51,78.888 1094.984,138.371 1141.057,200.087 1115.266,200.087 1082.262,154.701 1049.429,200.087 	"/>
	<polygon style="fill:#231F20;" points="920.648,69.083 889.411,87.121 858.178,105.152 920.648,141.225 983.118,105.152
		951.885,87.121 	"/>
	<polygon style="fill:#231F20;" points="858.174,177.292 910.703,207.624 910.703,179.501 882.527,163.23 882.527,130.692
		858.174,116.631 	"/>
	<path style="fill:#231F20;" d="M920.648,141.222v36.079v36.058l31.223-18.031l31.247-18.042v-36.048v-36.086L920.648,141.222z
		 M931.873,164.709v-16.271l16.474-9.513l16.484-9.513c3.885-2.251,7.048-0.428,7.048,4.068c0,4.495-3.163,9.955-7.048,12.206
		l-16.484,9.51L931.873,164.709z M931.873,176.922l16.474-9.513l16.484-9.513c3.885-2.251,7.048-0.428,7.048,4.068
		c0,4.492-3.163,9.962-7.048,12.203l-16.484,9.52l-16.474,9.506V176.922z"/>
	<g>
		<path style="fill:#231F20;" d="M1378.147,200.351V78.625h45.928c13.006,0,22.935,2.995,29.784,8.979
			c6.847,5.986,10.273,14.502,10.273,25.553c0,9.095-2.476,16.463-7.424,22.101c-4.95,5.642-11.974,9.266-21.065,10.878
			c4.948,1.842,9.325,6.332,13.122,13.468l22.101,40.747h-11.568l-21.065-39.021c-2.995-5.409-6.332-9.035-10.015-10.878
			c-3.685-1.841-8.633-2.764-14.848-2.764h-24.69v52.662H1378.147z M1388.681,138.711h34.013c20.488,0,30.734-8.518,30.734-25.555
			c0-16.92-10.246-25.38-30.734-25.38h-34.013V138.711z"/>
		<path style="fill:#231F20;" d="M1515.585,200.351V78.625h74.935v9.152h-64.574v46.272h60.949v9.152h-60.949v47.998h64.574v9.152
			H1515.585z"/>
		<path style="fill:#231F20;" d="M1674.432,200.351l-52.662-121.726h11.396l46.618,108.431l46.62-108.431h11.047l-52.834,121.726
			H1674.432z"/>
		<path style="fill:#231F20;" d="M1777.339,200.351V78.625h74.933v9.152h-64.574v46.272h60.948v9.152h-60.948v47.998h64.574v9.152
			H1777.339z"/>
		<path style="fill:#231F20;" d="M1900.097,200.351V78.625h45.928c13.006,0,22.933,2.995,29.782,8.979
			c6.849,5.986,10.273,14.502,10.273,25.553c0,9.095-2.476,16.463-7.424,22.101c-4.952,5.642-11.972,9.266-21.063,10.878
			c4.948,1.842,9.321,6.332,13.122,13.468l22.098,40.747h-11.568l-21.064-39.021c-2.993-5.409-6.332-9.035-10.013-10.878
			c-3.688-1.841-8.633-2.764-14.852-2.764h-24.69v52.662H1900.097z M1910.627,138.711h34.015c20.488,0,30.734-8.518,30.734-25.555
			c0-16.92-10.246-25.38-30.734-25.38h-34.015V138.711z"/>
		<path style="fill:#231F20;" d="M2037.536,200.351V78.625h74.933v9.152h-64.574v46.272h60.948v9.152h-60.948v47.998h64.574v9.152
			H2037.536z"/>
	</g>
</g>
</svg>
