<svg xmlns="http://www.w3.org/2000/svg" width="225" height="55" fill="none"><path fill="#000" d="M76.07 33.408c0-11.34-14.35-7.353-14.35-13.2 0-2.391 1.771-3.72 4.429-3.72 2.746 0 4.518 1.506 4.518 4.119h5.27c0-5.36-4.074-8.991-9.788-8.991-5.625 0-9.656 3.454-9.656 8.592 0 11.074 14.263 6.334 14.263 13.2 0 2.525-1.684 3.898-4.43 3.898-2.835 0-4.606-1.506-4.606-4.12h-5.271c0 5.36 4.119 8.992 9.877 8.992 5.67 0 9.745-3.543 9.745-8.77m24.905-2.747c0-6.733-4.784-11.516-11.516-11.516S77.943 23.929 77.943 30.66c0 6.777 4.784 11.516 11.517 11.516 4.96 0 9.301-2.48 10.542-6.688h-5.67c-1.107 1.639-2.88 2.17-4.872 2.17-3.278 0-5.581-1.904-6.29-5.049h17.63c.088-.62.177-1.284.177-1.949M89.46 23.663c3.056 0 5.315 1.727 6.068 4.606H83.303c.797-2.879 3.056-4.606 6.157-4.606m24.698-4.518c-6.732 0-11.516 4.74-11.516 11.516 0 6.733 4.784 11.516 11.516 11.516 2.525 0 4.696-.841 6.379-2.303v9.39h5.138V19.589h-5.138v1.86c-1.683-1.506-3.854-2.303-6.379-2.303m0 4.695c3.854 0 6.379 2.702 6.379 6.821 0 4.12-2.525 6.821-6.379 6.821-3.897 0-6.467-2.702-6.467-6.82 0-4.12 2.57-6.822 6.467-6.822m14.319 9.035c0 5.448 3.676 9.301 8.903 9.301 2.17 0 4.031-.797 5.404-2.17v1.728h5.049V19.588h-5.049v13.288c0 2.746-1.86 4.606-4.607 4.606s-4.606-1.86-4.606-4.606V19.588h-5.094zm22.234-15.946h5.138v-4.872h-5.138zm0 24.805h5.138V19.588h-5.138zm7.959 0h5.138V28.446c0-2.747 1.772-4.607 4.607-4.607 2.702 0 4.562 1.86 4.562 4.607v13.287h5.094V28.446c0-5.448-3.676-9.301-8.903-9.301-2.126 0-3.987.753-5.36 2.126v-1.683h-5.138zM38.438 11.602C34.023 7.188 28.28 5 22.5 5c-5.117 0-10.234 1.719-14.375 5.195l1.367 1.367 1.563 1.563 4.726 4.727 1.992 1.992.977.976a7.6 7.6 0 0 1 3.75-.976 7.76 7.76 0 0 1 5.43 2.226 7.73 7.73 0 0 1 2.265 5.43 7.57 7.57 0 0 1-.976 3.75l2.968 2.969a11.8 11.8 0 0 0 2.11-6.758c0-3.008-1.133-6.055-3.438-8.32a11.7 11.7 0 0 0-8.32-3.438c-.898 0-1.836.117-2.734.313l-5.156-5.118a18.6 18.6 0 0 1 7.89-1.757 18.37 18.37 0 0 1 13.008 5.39 18.3 18.3 0 0 1 5.39 13.008c0 4.063-1.328 8.125-4.023 11.445l2.93 2.93c3.476-4.14 5.195-9.258 5.195-14.375-.039-5.781-2.226-11.562-6.601-15.937M30.39 44.14l-5.157-5.157c-.898.196-1.797.313-2.734.313-3.008 0-6.055-1.133-8.32-3.438a11.7 11.7 0 0 1-3.438-8.32c0-2.383.703-4.727 2.11-6.758l2.968 2.969a7.6 7.6 0 0 0-.976 3.75 7.76 7.76 0 0 0 2.226 5.43 7.73 7.73 0 0 0 5.43 2.265c1.29 0 2.617-.312 3.75-.976l.938.937 2.07 2.07 4.726 4.65 1.72 1.718 1.21 1.21C32.774 48.282 27.656 50 22.54 50c-5.742 0-11.523-2.187-15.898-6.601C2.188 39.023 0 33.28 0 27.5c0-5.117 1.719-10.234 5.195-14.375l2.93 2.93c-2.656 3.32-3.984 7.383-3.984 11.445 0 4.688 1.797 9.414 5.39 13.008a18.3 18.3 0 0 0 13.008 5.39c2.656 0 5.352-.586 7.852-1.758"/><path fill="#000" fill-rule="evenodd" d="M22.5 24.805a2.7 2.7 0 0 1 2.695 2.695 2.7 2.7 0 0 1-2.695 2.695 2.7 2.7 0 0 1-2.695-2.695 2.7 2.7 0 0 1 2.695-2.695" clip-rule="evenodd"/></svg>