<svg xmlns="http://www.w3.org/2000/svg" width="173" height="32" fill="none"><path fill="#fff" d="M17.386 0c9.266 0 16.777 7.503 16.777 16.76 0 6.767-4.02 12.595-9.802 15.24-1.225-11.57-3.249-13.84-4.944-15.733a2 2 0 0 0-.24-.212c-.21-.17-.437-.353-.396-.546 1.13-5.31 8.95-4.536 8.95-4.536s.67-.645-2.204-1.092a70 70 0 0 0-1.753-.237c-1.248-.16-2.593-.33-3.404-.539-.849-.217-1.575-.475-2.231-.708-1.916-.681-3.24-1.152-5.291.215-1.398.93-1.777 2.174-2.155 3.415-.26.858-.521 1.715-1.118 2.465-3.227 4.055-4.422 10.14-4.602 13.54A16.7 16.7 0 0 1 .609 16.76C.61 7.503 8.121 0 17.386 0m81.801 23.588v-7.65c0-1.56-.261-3.096-2.188-3.096-2.006 0-2.605 1.822-2.605 3.513v7.233H90.8V4.828h3.594v7.858c.782-1.612 2.214-2.42 4.011-2.42 3.073 0 4.376 1.874 4.376 4.84v8.482zm-16.88-4.345c0 2.732.729 4.631 3.697 4.631A9.8 9.8 0 0 0 89 23.38l-.103-2.393a3.8 3.8 0 0 1-1.434.285c-1.276 0-1.562-.884-1.562-1.977v-6.4h2.918v-2.368H85.9V6.702l-3.594 1.17v2.655h-2.344v2.367h2.344zm-42.574 3.981c1.405.442 2.891.65 4.376.65 2.63 0 5.574-1.118 5.574-4.163 0-2.642-2.324-3.412-4.212-4.038-1.291-.428-2.378-.789-2.378-1.634 0-1.301 1.38-1.56 2.37-1.56a9.8 9.8 0 0 1 3.465.676l.156-2.316c-1.225-.365-2.579-.6-3.856-.6-2.395 0-5.547.964-5.547 3.904 0 2.369 2.054 3.082 3.869 3.712 1.435.498 2.72.944 2.72 2.117 0 1.249-1.537 1.664-2.578 1.664-1.303 0-2.657-.312-3.803-.91z"/><path fill="#fff" fill-rule="evenodd" d="M50.83 17.005c0 4.19 2.527 6.87 6.85 6.87 4.246 0 6.851-2.654 6.851-6.87 0-4.319-2.63-6.738-6.85-6.738-4.011 0-6.85 2.471-6.85 6.738m3.855 0c0-1.977.73-4.293 2.996-4.293 2.344 0 2.996 2.29 2.996 4.293 0 2.186-.73 4.424-2.996 4.424-2.24 0-2.995-2.264-2.995-4.424" clip-rule="evenodd"/><path fill="#fff" d="m75.159 23.588-.079-2.185c-.858 1.638-2.396 2.47-4.218 2.47-3.152 0-4.402-1.925-4.402-4.917v-8.43h3.594v7.624c0 1.562.235 3.122 2.162 3.122 2.031 0 2.605-1.847 2.605-3.565v-7.18h3.594v10.121c0 .962.026 1.976.13 2.94z"/><path fill="#fff" fill-rule="evenodd" d="M114.482 21.48c.652 1.536 2.24 2.394 3.881 2.394 4.012 0 5.496-3.356 5.496-6.868 0-3.487-1.458-6.739-5.417-6.739-1.72 0-3.464.884-4.194 2.471l-.078-2.211h-3.411c.078 1.093.13 2.237.13 3.799v14.883h3.593zm-.103-4.474c0-1.822.572-4.216 2.839-4.216 2.344 0 2.787 2.342 2.787 4.216 0 1.873-.469 4.345-2.814 4.345-2.24 0-2.812-2.55-2.812-4.345m17.583 6.868c-4.325 0-6.851-2.68-6.851-6.869 0-4.267 2.84-6.738 6.851-6.738 4.219 0 6.849 2.42 6.849 6.738 0 4.216-2.604 6.87-6.849 6.87m0-11.162c-2.267 0-2.996 2.316-2.996 4.293 0 2.16.756 4.424 2.996 4.424 2.265 0 2.995-2.238 2.995-4.424 0-2.003-.652-4.293-2.995-4.293" clip-rule="evenodd"/><path fill="#fff" d="M144.388 23.589h-3.595V4.829h3.595z"/><path fill="#fff" fill-rule="evenodd" d="M149.935 17.967c.026 2.265 1.693 3.67 3.907 3.67 1.251 0 2.839-.287 3.934-.885l.155 2.42c-1.458.52-3.255.702-4.817.702-4.377 0-6.747-2.55-6.747-6.868 0-3.878 2.605-6.74 6.381-6.74 4.194 0 5.861 2.94 5.861 6.896v.805zm2.84-5.54c-2.006 0-2.84 2.08-2.84 3.615h5.392c0-1.638-.573-3.616-2.552-3.616" clip-rule="evenodd"/></svg>
