<svg xmlns="http://www.w3.org/2000/svg" width="225" height="55" fill="none"><g clip-path="url(#a)"><path fill="#4568A5" fill-rule="evenodd" d="m37.737 40.397.031-.018a3.17 3.17 0 0 0 1.423-1.875 3.2 3.2 0 0 0-.256-2.344l-3.632-6.92L7.954 43.724l9.783 5.673a4.46 4.46 0 0 0 4.48 0zM4.902 32.933 26.844 8.285l-4.628-2.682a4.46 4.46 0 0 0-4.479 0l-15.52 9A4.51 4.51 0 0 0-.023 18.5v3.375c0 2.087.439 4.151 1.287 6.057a14.8 14.8 0 0 0 3.637 5z" clip-rule="evenodd"/><path fill="#608BD8" fill-rule="evenodd" d="m37.737 14.603-.523-.304-12.52 11.563 10.5 9.14c1.656 1.44 2.269 3.541 1.63 5.93l.914-.53a4.5 4.5 0 0 0 2.24-3.903V18.5a4.51 4.51 0 0 0-2.239-3.897zM19.44 30.797 4.973 19.586c-1.631-1.27-2.367-3.17-2.032-5.402l-.723.419a4.5 4.5 0 0 0-1.64 1.647 4.5 4.5 0 0 0-.6 2.25v18c0 .791.205 1.568.598 2.254a4.5 4.5 0 0 0 1.642 1.65l4.144 2.402z" clip-rule="evenodd"/><path fill="#fff" d="M60.539 37.844c4.306 0 6.681-2.374 6.681-5.521 0-6.957-10.103-4.803-10.103-9 0-1.464 1.132-2.567 3.203-2.567s3.313 1.325 3.423 3.203h3.203c-.166-3.424-2.679-6.102-6.625-6.102s-6.405 2.347-6.405 5.41c0 6.875 10.103 4.859 10.103 9.138 0 1.408-1.131 2.54-3.45 2.54s-3.699-1.38-3.893-3.369h-3.203c.166 3.617 2.788 6.267 7.067 6.267zm14.643 0c.745 0 1.297-.137 1.657-.275v-2.761c-.276.138-.608.193-.967.193-1.242 0-2.07-.718-2.07-2.264v-6.46h3.036v-2.733H73.8v-3.588h-2.623v2.098c0 1.077-.58 1.657-1.684 1.657H68.5v2.567h2.291v6.708c0 3.064 1.85 4.858 4.39 4.858zm16.861-7.619c0-3.975-2.926-7.011-6.653-7.011-3.728 0-6.902 3.23-6.902 7.316 0 4.085 3.064 7.316 6.93 7.316 3.063 0 5.355-2.182 6.128-4.196H88.4c-.497.717-1.435 1.463-3.009 1.463-1.987 0-3.478-1.27-3.865-3.395h10.352c.083-.305.165-.828.165-1.491zm-6.653-4.278c1.877 0 3.368 1.407 3.699 3.478h-7.564c.387-2.126 1.96-3.478 3.865-3.478m12.52 11.567V18.189h-3.036v19.324h3.037m6.822 0V18.189h-3.036v19.324zm8.891-14.3c-3.368 0-5.273 2.236-5.522 4.582h3.037c.165-.911.939-1.85 2.456-1.85 1.518 0 2.595 1.023 2.595 2.707v.47h-2.237c-3.837 0-6.487 1.766-6.487 4.554 0 2.292 1.96 4.169 4.693 4.169 2.236 0 3.534-1.187 4.086-1.905h.137l.553 1.574h2.263v-8.613c0-3.396-2.153-5.687-5.576-5.687zm-.828 12.064c-1.519 0-2.291-.773-2.291-1.85 0-1.27 1.104-2.126 3.478-2.126h2.209v.884c0 1.657-1.325 3.092-3.396 3.092m14.849 2.566c.745 0 1.297-.137 1.657-.275v-2.761c-.276.138-.608.193-.967.193-1.242 0-2.071-.718-2.071-2.264v-6.46h3.037v-2.733h-3.037v-3.588h-2.623v2.098c0 1.077-.58 1.657-1.684 1.657h-.994v2.567h2.291v6.708c0 3.064 1.85 4.858 4.39 4.858zm16.861-7.619c0-3.975-2.926-7.011-6.652-7.011s-6.902 3.23-6.902 7.316c0 4.085 3.064 7.316 6.93 7.316 3.063 0 5.355-2.182 6.128-4.196h-3.146c-.497.717-1.435 1.463-3.009 1.463-1.987 0-3.478-1.27-3.865-3.395h10.352c.083-.305.166-.828.166-1.491zm-6.652-4.278c1.877 0 3.368 1.407 3.699 3.478h-7.564c.387-2.126 1.959-3.478 3.865-3.478"/></g><defs><clipPath id="a"><path fill="#fff" d="M0 0h225v55H0z"/></clipPath></defs></svg>