<svg xmlns="http://www.w3.org/2000/svg" fill-rule="evenodd" stroke-linejoin="round" stroke-miterlimit="2" clip-rule="evenodd" viewBox="0 0 375 331"><path fill="none" d="M0-.001h374.5v331H0z"/><path fill="#d2d3d5" d="m210.929 154.501.564.335c.164.068.386.118.586.189.378.135.741.308 1.114.451 4.222 1.621 9.069 2.2 13.635 2.34.955.029 5.887-.076 6.223.175.542-.191 1.427-.233 2.267-.282-.659-4.144-4.132-6.782-7.007-12.02-.904-1.646-.446-.832-3.119-1.593-3.185-.908-7.38-3.141-8.736-5.707 1.2-.824 5.625-1.782 7.395-2.032 3.354-.473 5.367-.318 8.504.302-.415-.936-1.04-1.759-1.44-2.734-4.064.632-10.06-1.041-13.171-3.701-.628-.538-.886-.763-1.441-1.382l-1.201-1.458c-1.697 2.29-1.169 7.797-1.198 9.858-1.987-6.122-1.917-11.905-.841-18.574.331-2.054.766-2.284-.115-4.186-1.283-2.77-4.197-5.8-6.763-7.513-.474-.317-.517-.206-.652-.73-.691.28-8.085-.525-9.309-.812.329.891.883 1.796 1.298 2.678.445.943.823 1.818 1.251 2.823 5.172 12.129 4.831 21.027 6.082 33.893.364 3.745 1.239 6 3.93 8.163zm-50.601.065c.505.382 1.579.656 2.218.905 4.928 1.915 11.434 2.449 16.768 2.428.827-.003 2.557-.314 3.096.101.546-.193 1.421-.236 2.266-.306-.57-4.162-4.478-7.069-7.069-12.109-.484-.942-.291-.933-1.4-1.12a18.4 18.4 0 0 1-5.28-1.767c-1.978-1.035-4.247-2.775-5.113-4.309 1.17-.793 5.682-1.792 7.387-2.031 3.156-.443 5.523-.386 8.516.317l-1.45-2.742c-3.159.431-7.143-.475-9.667-1.571-1.317-.572-2.635-1.356-3.515-2.13-.6-.528-2.537-2.208-2.54-3.29-.23.302-.018-.135-.265.521-1.557 4.135-.885 6.602-1.024 9.75-1.975-5.918-1.917-12.052-.831-18.56.345-2.068.772-2.281-.131-4.173-1.449-3.038-4.025-5.6-6.764-7.509-.427-.299-.517-.237-.626-.699-.665.197-8.007-.561-9.238-.813.195.902.861 1.904 1.313 2.853 1.174 2.468 2.537 5.962 3.366 8.556 2.847 8.922 2.962 18.61 3.87 27.95.401 4.111 1.569 6.761 5.005 8.962l.869.551c.178.143.142.12.239.235m-54.062-20.457c.261 1.218.97 7.968.808 9.016.505.759.413 7.517 1.143 9.313 1.765 4.343 5.123 5.145 4.794 5.331.029.027.077.022.093.072.017.049.071.055.094.068.293.173.027.042.295.158.192.083.341.109.512.168 3.321 1.145 3.455 1.443 7.735 2.032 1.7.234 3.459.365 5.227.417.928.028 1.822.077 2.756.073.734-.002 2.25-.276 2.726.093.466-.184 1.251-.213 1.998-.27-.548-2.548-1.547-3.923-2.833-5.492a31.6 31.6 0 0 1-3.343-5.059c-.073-.139-.277-.551-.337-.634-.475-.659-.536-.236-2.404-.767-2.689-.764-6.734-2.871-7.666-5.012 1.005-.698 4.97-1.573 6.491-1.784 3.114-.433 4.57-.229 7.479.256-.358-.665-1.071-1.743-1.273-2.364-3.097.238-5.988-.358-8.493-1.401-1.156-.481-2.327-1.201-3.09-1.875-.578-.51-2.18-1.845-2.225-2.889-.025.036-.047.085-.062.116l-.636 1.919c-.856 3.253-.41 4.125-.432 7.017-1.851-4.549-1.566-11.292-.739-16.323.293-1.782.665-2.041-.105-3.685-2.045-4.369-5.904-6.216-6.572-7.195-.764.173-3.222-.209-4.127-.304-.709-.074-1.411-.146-2.079-.213-1.654-.166-1.86.093-1.79-.621a.4.4 0 0 0-.046.13l-.054.25c-.009.343.117.402.375.887 1.252 2.354 2.516 5.414 3.367 7.929 1.109 3.274 2.072 6.901 2.413 10.643"/><path fill="#e28d0b" d="M233.051 157.991c-.336-.251-5.268-.146-6.223-.175-4.566-.14-9.413-.719-13.635-2.34-.373-.143-.736-.316-1.114-.451-.2-.071-.422-.121-.586-.189l-.564-.335c-1.446-.117-6.07-3.219-7.202-3.987-1.737-1.178-5.749-4.574-6.212-4.868.472 5.412 9.31 13.886 11.936 18.591 3.019 5.409-.488 9.626-4.006 12.672a32 32 0 0 1-2.105 1.658c-1.333.984-3.956 2.42-4.508 2.879l39.244-.005c.248-2.396-5.014-14.277-6.251-17.932-.902-2.664-.865-4.41 1.226-5.518m-75.779 16.279c-.134.569-1.484 1.839-1.948 2.225-3.703 3.079-5.304 3.539-7.141 4.95h39.248c.249-2.318-5.021-14.352-6.257-17.946-.658-1.911-1.147-4.516 1.236-5.499-.539-.415-2.269-.104-3.096-.101-5.334.021-11.84-.513-16.768-2.428-.639-.249-1.713-.523-2.218-.905-3.449-.945-9.057-5.351-12.023-7.749-.551-.445-.881-.822-1.439-1.182.657 6.3 11.117 15.242 12.822 20.531.512 1.588.36 3.279-.217 4.758-.479 1.226-1.312 2.785-2.199 3.346m-55.894-23.352c.097.115.713 1.734.892 2.103 1.015 2.094 2.531 4.264 3.932 5.986 1.029 1.265 1.919 2.42 2.945 3.671 2.192 2.671 4.399 5.617 3.281 9.114-1.772 5.543-9.816 9.307-10.055 9.635l34.48.019c.163-1.401-1.276-3.765-1.179-4.832-.325-.368-.687-1.548-.894-2.099l-2.325-5.935c-1.025-2.591-2.937-6.3-.006-7.73-.476-.369-1.992-.095-2.726-.093-.934.004-1.828-.045-2.756-.073a49 49 0 0 1-5.227-.417c-4.28-.589-4.414-.887-7.735-2.032-.171-.059-.32-.085-.512-.168-.268-.116-.002.015-.295-.158-.023-.013-.077-.019-.094-.068-.016-.05-.064-.045-.093-.072-2.191-.178-8.391-5.019-10.532-6.748-.25-.201-.963-1.052-1.276-.927z"/><path fill="#d2d3d5" d="M190.292 130.869c2.791 1.98 4.997-.846 6.899-1.24-3.054-7.224-4.445-26.816-4.393-35.032 3.874.624 4.255 6.924 3.453 10.388.64-.591 1.095-2.013 1.561-2.672 3.433-4.853 9.133-5.714 14.907-5.413 2.647.138 4.703.794 7.053 1.146-2.976-3.455-7.2-7.111-13.075-8.368-6.788-1.453-12.468.048-16.957 3.309-2.788 2.025-2.288 3.846-2.148 8.551.156 5.276 1.404 26.696 2.7 29.331m-50.644.021c1.275.859 1.797.907 3.589.274.789-.279 2.443-1.039 2.956-1.56l.428.387c-.033-.385-.909-3.033-1.115-3.894-.326-1.37-.623-2.689-.903-4.11-1.742-8.851-2.276-18.355-2.457-27.399 1.784.338 2.939 1.971 3.443 3.825.632 2.323.363 4.172.069 6.496.789-.597 1.619-5.604 8.864-7.447 4.868-1.238 10.065-.525 14.605.638-.469-.716-2.078-2.309-2.821-2.998-.862-.8-2.189-1.804-3.296-2.509-3.086-1.966-4.758-2.304-8.424-3.189-5.657-.507-8.613-.26-13.066 2.095-1.394.738-3.799 2.198-4.334 3.507-.89 2.176.497 19.295.717 22.063.219 2.756.9 10.551 1.631 13.455zm-38.582-30.247c-1.331.563-1.93.484-4.184 1.588-4.829 2.366-4.486 3.611-4.417 7.63.091 5.319.569 11.826 1.05 17.081l1.455 10.611c-.031-.693-.059-.266.16-.41 1.466 1.674 5.029-1.235 5.76-1.141-.132-.559-.496-1.398-.465-2.041-.91-1.147-2.334-12.055-2.494-13.507-.552-4.992-.866-10.258-.855-15.33 1.486.27 2.554 1.715 2.987 3.259.579 2.064.336 3.691.138 5.78.176-.195-.03.103.2-.27l.457-.933c3.782-7.138 13.287-6.372 19.92-4.744-.757-1.044-2.54-2.711-3.534-3.51-1.163-.934-2.625-1.915-4.246-2.646-3.784-1.706-7.429-1.959-11.932-1.417"/><path fill="#e28d0b" d="m145.658 104.909.008.55c1.231.252 8.573 1.01 9.238.813-.013-2.313 2.788-5.738 6.853-5.561 4.249.184 5.501 4.418 5.07 7.456l4.804.359c.515-2.045 1.436-3.832.823-6.262-.469-1.86-1.78-3.642-3.327-4.164-4.54-1.163-9.737-1.876-14.605-.638-7.245 1.843-8.075 6.85-8.864 7.447m50.593.076-.027.442c1.224.287 8.618 1.092 9.309.812.07-2.227 2.644-5.253 5.921-5.511 1.814-.142 3.479.452 4.34 1.339.656.677 1.717 2.695 1.587 4.154l.206.792c.029.361-.003.78-.019 1.143l4.705.369c.521-2.093 1.469-3.921.795-6.364-.573-2.071-1.648-3.257-3.296-4.115-2.35-.352-4.406-1.008-7.053-1.146-5.774-.301-11.474.56-14.907 5.413-.466.659-.921 2.081-1.561 2.672m-96.05 9.178.01.107c-.07.714.136.455 1.79.621.668.067 1.37.139 2.079.213.905.095 3.363.477 4.127.304.496-2.772 2.854-5.029 6.091-4.896 1.725.071 2.873.827 3.561 1.982.66 1.112 1.109 2.987.897 4.554l4.215.35c.408-1.962 1.323-3.263.695-5.627-.426-1.601-1.542-3.067-2.888-3.555-6.633-1.628-16.138-2.394-19.92 4.744l-.457.933c-.23.373-.024.075-.2.27m34.246 46.417c1.529-.605.839-2.965.407-4.32-2.202-6.928-3.524-5.143-3.02-14.172-2.909-.485-4.365-.689-7.479-.256-1.521.211-5.486 1.086-6.491 1.784.932 2.141 4.977 4.248 7.666 5.012 1.868.531 1.929.108 2.404.767.06.083.264.495.337.634a31.6 31.6 0 0 0 3.343 5.059c1.286 1.569 2.285 2.944 2.833 5.492m50.229-2.886c2.692-.933-.528-7.808-1.317-9.544-2.02-4.44-1.952-6.16-1.642-11.475-2.993-.703-5.36-.76-8.516-.317-1.705.239-6.217 1.238-7.387 2.031.866 1.534 3.135 3.274 5.113 4.309a18.4 18.4 0 0 0 5.28 1.767c1.109.187.916.178 1.4 1.12 2.591 5.04 6.499 7.947 7.069 12.109m50.642.015c1.728-.732 1.005-3.172.513-4.808-1.081-3.592-3.159-6.82-3.455-9.68-.221-2.149-.125-4.405-.021-6.562-3.137-.62-5.15-.775-8.504-.302-1.77.25-6.195 1.208-7.395 2.032 1.356 2.566 5.551 4.799 8.736 5.707 2.673.761 2.215-.053 3.119 1.593 2.875 5.238 6.348 7.876 7.007 12.02m-20.216-30.325 1.201 1.458c.555.619.813.844 1.441 1.382 3.111 2.66 9.107 4.333 13.171 3.701-.032-2.226-.549-2.956-1.175-4.788.899-1.067 2.747-1.621 2.349-5.742-2.139-.695-7.753-.371-9.986.074-2.543.506-6.561 2.209-7.001 3.915m-50.557-.442c.003 1.082 1.94 2.762 2.54 3.29.88.774 2.198 1.558 3.515 2.13 2.524 1.096 6.508 2.002 9.667 1.571.007-2.324-.638-2.98-1.167-4.796.867-1.032 2.803-1.746 2.342-5.748-2.177-.668-7.594-.387-9.86.057-2.062.404-4.067 1.127-5.667 2.325-.379.284-1.152 1.047-1.37 1.171m-47.792 6.617c.045 1.044 1.647 2.379 2.225 2.889.763.674 1.934 1.394 3.09 1.875 2.505 1.043 5.396 1.639 8.493 1.401.003-1.934-.486-2.67-1.025-4.237.938-1.106 2.417-1.658 2.056-5.048-1.865-.593-6.689-.332-8.657.046-4.447.853-5.336 2.575-6.182 3.074"/><path fill="#d2d3d5" d="m222.273 108.525-4.705-.369c.016-.363.048-.782.019-1.143l-.206-.792c-.23 6.643 5.384 11.698 10.637 13.109-.04-1.622-2.956-6.618-4.022-8.215-.462-.693-1.431-1.906-1.723-2.59m-50.642.001-4.804-.359c.843 3.332 1.869 5.327 3.702 7.173 1.177 1.185 4.49 3.56 6.888 3.97-.466-2.313-2.731-6.146-4.061-8.206-.495-.765-1.381-1.82-1.725-2.578m-48.66 8.872-4.215-.35c.73 2.914 1.653 4.716 3.251 6.316.955.955 4.019 3.217 6.047 3.479-.763-3.681-4.47-8.155-5.083-9.445"/><path fill="#e28d0b" d="M190.292 130.869c.493 3.626 5.383 4.498 5.776 5.036.203.278.87 2.252.991 2.663.828-1.72.012-8.4.132-8.939-1.902.394-4.108 3.22-6.899 1.24m-95.322 6.684c.919 1.893 2.097 2.762 4.045 3.421 1.886.637.863 1.278 1.886 2.764.406-2.679.203-5.082-.011-7.736-.731-.094-4.294 2.815-5.76 1.141-.219.144-.191-.283-.16.41m44.678-6.663c.333 1.857 1.883 3.168 3.285 3.893 2.161 1.119 2.511.009 3.412 3.69.069-.101.198-.013.29-.881l.146-3.28c.012-1.312-.261-3.224-.16-4.321l-.428-.387c-.513.521-2.167 1.281-2.956 1.56-1.792.633-2.314.585-3.589-.274"/><path fill="#d2d3d5" d="m258.207 157.772.495.294c.145.06.34.104.515.167.332.118.652.27.979.396 3.71 1.424 7.968 1.932 11.98 2.056.839.025 5.172-.067 5.467.154.476-.168 1.254-.205 1.992-.248-.579-3.641-3.63-5.959-6.156-10.561-.794-1.447-.392-.731-2.741-1.4-2.798-.797-6.484-2.759-7.675-5.014 1.054-.724 4.942-1.566 6.497-1.785 2.947-.416 4.716-.28 7.472.265-.365-.822-.914-1.546-1.266-2.402-3.57.555-8.838-.915-11.571-3.252-.553-.472-.779-.671-1.267-1.214l-1.055-1.281c-1.49 2.012-1.026 6.85-1.052 8.662-1.746-5.38-1.685-10.46-.74-16.32.292-1.805.674-2.006-.1-3.678-1.128-2.434-3.688-5.095-5.943-6.601-.416-.278-.454-.181-.572-.641-.607.246-7.104-.461-8.179-.714.289.783.775 1.578 1.141 2.353.39.829.722 1.598 1.099 2.48 4.543 10.657 4.244 18.475 5.343 29.779.32 3.291 1.089 5.272 3.453 7.172z"/><path fill="#e28d0b" d="M277.643 160.839c-.295-.221-4.628-.129-5.467-.154-4.012-.124-8.27-.632-11.98-2.056-.327-.126-.647-.278-.979-.396-.175-.063-.37-.107-.515-.167l-.495-.294c-1.271-.103-5.333-2.828-6.328-3.503-1.526-1.035-5.051-4.019-5.458-4.277.415 4.755 8.18 12.2 10.487 16.334 2.653 4.753-.429 8.458-3.52 11.133-.642.556-1.158.948-1.849 1.457-1.171.865-3.476 2.126-3.96 2.53l34.48-.004c.217-2.106-4.406-12.544-5.493-15.756-.792-2.34-.76-3.874 1.077-4.847"/><path fill="#d2d3d5" d="M240.075 137.009c2.452 1.739 4.39-.743 6.061-1.09-2.683-6.346-3.905-23.56-3.859-30.778 3.403.548 3.739 6.083 3.034 9.126.562-.519.962-1.769 1.371-2.347 3.017-4.265 8.024-5.021 13.098-4.756 2.325.121 4.132.698 6.196 1.007-2.614-3.036-6.326-6.248-11.488-7.353-5.963-1.277-10.954.043-14.898 2.908-2.449 1.779-2.01 3.379-1.887 7.512.137 4.636 1.233 23.456 2.372 25.771"/><path fill="#e28d0b" d="m245.311 114.267-.024.388c1.075.253 7.572.96 8.179.714.061-1.957 2.323-4.615 5.202-4.841 1.594-.125 3.057.396 3.813 1.175.577.596 1.509 2.368 1.395 3.651l.18.695c.026.317-.003.685-.016 1.004l4.134.325c.457-1.84 1.29-3.446.698-5.592-.503-1.82-1.447-2.862-2.896-3.615-2.064-.309-3.871-.886-6.196-1.007-5.074-.265-10.081.491-13.098 4.756-.409.578-.809 1.828-1.371 2.347m34.324 46.324c1.518-.644.883-2.787.45-4.224-.949-3.156-2.775-5.993-3.034-8.505-.195-1.889-.11-3.871-.019-5.766-2.756-.545-4.525-.681-7.472-.265-1.555.219-5.443 1.061-6.497 1.785 1.191 2.255 4.877 4.217 7.675 5.014 2.349.669 1.947-.047 2.741 1.4 2.526 4.602 5.577 6.92 6.156 10.561m-17.762-26.644 1.055 1.281c.488.543.714.742 1.267 1.214 2.733 2.337 8.001 3.807 11.571 3.252-.028-1.956-.482-2.597-1.032-4.207.79-.937 2.413-1.424 2.064-5.045-1.879-.611-6.812-.325-8.773.065-2.235.444-5.765 1.941-6.152 3.44"/><path fill="#d2d3d5" d="m268.174 117.378-4.134-.325c.013-.319.042-.687.016-1.004l-.18-.695c-.202 5.836 4.73 10.277 9.345 11.517-.035-1.426-2.597-5.814-3.533-7.218-.406-.609-1.258-1.674-1.514-2.275"/><path fill="#e28d0b" d="M240.075 137.009c.433 3.186 4.73 3.952 5.075 4.425.178.244.764 1.978.871 2.339.727-1.511.011-7.38.115-7.854-1.671.347-3.609 2.829-6.061 1.09M72.848 218.845q-2.552 0-5.007-.877a13.3 13.3 0 0 1-4.466-2.695l2.903-3.476q1.531 1.244 3.142 1.977t3.524.734q1.532 0 2.376-.558.845-.559.845-1.547v-.064q0-.479-.175-.845-.175-.367-.67-.686-.501-.32-1.377-.638c-.584-.213-1.35-.436-2.286-.67a28 28 0 0 1-3.072-.925c-.914-.34-1.696-.76-2.334-1.26a5.1 5.1 0 0 1-1.488-1.866q-.526-1.116-.526-2.774v-.064q.001-1.532.569-2.759a6.3 6.3 0 0 1 1.599-2.121c.686-.595 1.51-1.053 2.462-1.372q1.428-.477 3.152-.478 2.456 0 4.513.734a13 13 0 0 1 3.78 2.105l-2.552 3.699q-1.499-1.02-2.934-1.61a7.5 7.5 0 0 0-2.871-.59q-1.435 0-2.153.558-.717.559-.717 1.387v.064q0 .542.207.941t.749.718q.55.318 1.489.606.948.287 2.382.669 1.7.447 3.024 1.005c.883.372 1.632.819 2.238 1.34a5.1 5.1 0 0 1 1.377 1.834q.463 1.052.463 2.519v.064c0 1.106-.203 2.089-.601 2.951a6.1 6.1 0 0 1-1.68 2.168c-.718.585-1.579 1.032-2.573 1.34q-1.492.462-3.312.462m19.88-18.116h-6.794V196.2h18.5v4.529H97.64v17.797h-4.912zm28.619 13.651q1.467 0 2.711-.542a6.2 6.2 0 0 0 2.121-1.499 7.1 7.1 0 0 0 1.372-2.217q.494-1.26.494-2.695v-.064a7.5 7.5 0 0 0-.494-2.711 6.8 6.8 0 0 0-1.404-2.233 6.7 6.7 0 0 0-2.153-1.514 6.5 6.5 0 0 0-2.711-.559q-1.498 0-2.727.542a6.25 6.25 0 0 0-2.105 1.5 7 7 0 0 0-1.371 2.216 7.3 7.3 0 0 0-.495 2.696v.063q0 1.436.495 2.711a6.73 6.73 0 0 0 3.54 3.748q1.228.558 2.727.558m-.064 4.529q-2.583 0-4.752-.909t-3.748-2.456a11 11 0 0 1-2.456-3.636q-.877-2.089-.877-4.481v-.064q0-2.391.893-4.481a11.6 11.6 0 0 1 2.472-3.668q1.579-1.58 3.764-2.488 2.185-.909 4.768-.909c2.583 0 3.307.303 4.753.909q2.168.91 3.747 2.456a11 11 0 0 1 2.456 3.636q.877 2.09.877 4.482v.063q0 2.392-.893 4.482a11.6 11.6 0 0 1-2.472 3.667q-1.579 1.58-3.763 2.488-2.185.909-4.769.909m18.509-22.709h4.529l10.461 13.747V196.2h4.848v22.326h-4.178l-10.812-14.193v14.193h-4.848zm27.439 0h16.809v4.369h-11.961v4.53h10.525v4.369h-10.525v4.689h12.12v4.369h-16.968zm43.928 22.709q-2.615 0-4.768-.861-2.153-.86-3.7-2.392a10.8 10.8 0 0 1-2.408-3.636q-.861-2.104-.861-4.593v-.064q0-2.391.877-4.481a11.5 11.5 0 0 1 2.44-3.668 11.4 11.4 0 0 1 3.7-2.488q2.137-.909 4.688-.909 1.5 0 2.728.207 1.228.208 2.28.591a10.6 10.6 0 0 1 1.978.957q.925.573 1.786 1.307l-3.094 3.732q-.637-.543-1.276-.957a8.4 8.4 0 0 0-1.323-.702 8 8 0 0 0-1.484-.446 9 9 0 0 0-1.754-.16q-1.34 0-2.504.559a6.8 6.8 0 0 0-2.041 1.504 6.8 6.8 0 0 0-1.371 2.206 7.3 7.3 0 0 0-.495 2.7v.064c0 1.021.165 1.967.495 2.828a6.7 6.7 0 0 0 1.403 2.254 6.4 6.4 0 0 0 2.137 1.489q1.228.526 2.727.526 2.743-.001 4.625-1.35v-3.211H211v-4.242h9.696v9.696q-1.722 1.467-4.099 2.504-2.375 1.036-5.438 1.036m16.723-22.709h4.911v22.326h-4.911zm10.821 22.486h5.423l5.836-15.724 5.837 15.724h5.295l-9.027-22.486h-4.337zM266.78 196.2h4.529l10.462 13.747V196.2h4.848v22.326h-4.178l-10.813-14.193v14.193h-4.848zm32.638 4.529h-6.794V196.2h18.5v4.529h-6.794v17.797h-4.912zM131.884 251.45a11.4 11.4 0 0 1-3.856-.676 10.2 10.2 0 0 1-3.439-2.075l2.235-2.678a11.2 11.2 0 0 0 2.42 1.523q1.24.565 2.714.565 1.179 0 1.83-.43.651-.429.651-1.191v-.049a1.5 1.5 0 0 0-.136-.651q-.134-.282-.515-.528-.386-.245-1.061-.491a18 18 0 0 0-1.76-.516 22 22 0 0 1-2.366-.712c-.704-.262-1.306-.586-1.797-.971a3.95 3.95 0 0 1-1.147-1.436q-.405-.86-.405-2.137v-.05q.002-1.179.438-2.124a4.85 4.85 0 0 1 1.233-1.633 5.5 5.5 0 0 1 1.895-1.057q1.1-.368 2.427-.368 1.892 0 3.476.565t2.911 1.621l-1.965 2.849a12.5 12.5 0 0 0-2.26-1.24 5.8 5.8 0 0 0-2.211-.455q-1.104 0-1.658.43-.552.43-.552 1.069v.049q0 .418.16.724.159.307.577.553.422.245 1.146.467a59 59 0 0 0 1.834.515q1.31.345 2.329.774 1.022.43 1.724 1.032c.466.401.823.872 1.06 1.412q.356.81.356 1.94v.05q0 1.276-.462 2.272a4.7 4.7 0 0 1-1.294 1.67c-.553.45-1.216.794-1.981 1.032q-1.15.356-2.551.356m19.259-13.952h-5.231v-3.488h14.246v3.488h-5.232v13.706h-3.783zm24.762 13.976q-3.464 0-5.453-1.916t-1.99-5.723v-9.825h3.783v9.727q0 2.112.982 3.181t2.727 1.068q1.743 0 2.726-1.031t.983-3.095v-9.85h3.782v9.703q0 1.964-.528 3.414-.527 1.449-1.511 2.419t-2.382 1.449q-1.4.479-3.119.479m23.778-3.684q1.155 0 2.112-.369a4.5 4.5 0 0 0 1.634-1.056q.675-.687 1.056-1.621c.381-.934.381-1.318.381-2.088v-.049q0-1.13-.381-2.087a4.9 4.9 0 0 0-1.056-1.646 4.7 4.7 0 0 0-1.634-1.069q-.957-.38-2.112-.38h-2.923v10.365zm-6.705-13.78h6.705q2.014 0 3.697.651 1.681.651 2.898 1.806a8 8 0 0 1 1.879 2.714q.663 1.56.663 3.377v.049a8.6 8.6 0 0 1-.663 3.39 8 8 0 0 1-1.879 2.726q-1.216 1.155-2.898 1.818t-3.697.663h-6.705zm25.056 0h3.782v17.194h-3.782zm22.157 14.001a5.2 5.2 0 0 0 2.088-.418 4.8 4.8 0 0 0 1.633-1.154 5.4 5.4 0 0 0 1.057-1.707 5.7 5.7 0 0 0 .38-2.076v-.049q0-1.106-.38-2.087a5.2 5.2 0 0 0-1.081-1.72 5.2 5.2 0 0 0-1.658-1.167 5.05 5.05 0 0 0-2.088-.429q-1.154 0-2.1.417a4.8 4.8 0 0 0-1.621 1.154 5.4 5.4 0 0 0-1.056 1.708 5.6 5.6 0 0 0-.381 2.075v.049q0 1.105.381 2.088a5.18 5.18 0 0 0 2.726 2.886q.946.43 2.1.43m-.049 3.488q-1.989 0-3.66-.7a9.1 9.1 0 0 1-2.886-1.891 8.5 8.5 0 0 1-1.891-2.801 8.8 8.8 0 0 1-.676-3.451v-.049q0-1.842.688-3.451a8.9 8.9 0 0 1 1.904-2.824 8.8 8.8 0 0 1 2.898-1.916q1.683-.7 3.672-.7t3.66.7a9.1 9.1 0 0 1 2.886 1.891 8.4 8.4 0 0 1 1.891 2.8 8.8 8.8 0 0 1 .676 3.451v.049a8.7 8.7 0 0 1-.688 3.451 8.9 8.9 0 0 1-1.904 2.825 8.9 8.9 0 0 1-2.898 1.916q-1.683.7-3.672.7"/></svg>