<svg width="48" height="48" viewBox="0 0 48 48" fill="none" xmlns="http://www.w3.org/2000/svg">
<path d="M27.2948 43.3431C26.2725 44.6305 24.1998 43.9251 24.1751 42.2814L23.8149 18.2389H39.981C42.9092 18.2389 44.5422 21.6209 42.7215 23.9141L27.2948 43.3431Z" fill="url(#paint0_linear_4437_8882)"/>
<path d="M27.2948 43.3431C26.2725 44.6305 24.1998 43.9251 24.1751 42.2814L23.8149 18.2389H39.981C42.9092 18.2389 44.5422 21.6209 42.7215 23.9141L27.2948 43.3431Z" fill="url(#paint1_linear_4437_8882)" fill-opacity="0.2"/>
<path d="M20.7053 4.65696C21.7275 3.36946 23.8003 4.07492 23.825 5.71873L23.9828 29.7611H8.01901C5.09081 29.7611 3.45769 26.3791 5.27854 24.0859L20.7053 4.65696Z" fill="#3ECF8E"/>
<defs>
<linearGradient id="paint0_linear_4437_8882" x1="23.8149" y1="23.5697" x2="38.1828" y2="29.5956" gradientUnits="userSpaceOnUse">
<stop stop-color="#249361"/>
<stop offset="1" stop-color="#3ECF8E"/>
</linearGradient>
<linearGradient id="paint1_linear_4437_8882" x1="17.445" y1="14.8481" x2="23.9975" y2="27.1829" gradientUnits="userSpaceOnUse">
<stop/>
<stop offset="1" stop-opacity="0"/>
</linearGradient>
</defs>
</svg>
