<svg fill="none" height="332" viewBox="0 0 1003 332" width="1003" xmlns="http://www.w3.org/2000/svg"><path d="m997.658 207.294c0 3.342-1.232 6.269-3.605 8.642l-.002.003c-2.45 2.442-5.451 3.721-8.883 3.721-3.395 0-6.35-1.255-8.717-3.681l-.45-.45c-2.18-2.283-3.324-5.065-3.324-8.235v-136.477c0-3.4161 1.251-6.4067 3.668-8.8236 2.416-2.4168 5.407-3.6677 8.823-3.6677 3.416.0001 6.406 1.2511 8.822 3.6677 2.417 2.4169 3.668 5.4076 3.668 8.8236z" fill="#0d1c2e"/><g fill="#f7a600"><path d="m1002.75 251.039c0 5.457-2.49 10.368-6.348 13.583l-.009.007-.01.008c-3.043 2.492-6.94 4.02-11.215 4.02-4.277 0-8.179-1.526-11.224-4.061-3.904-3.223-6.359-8.106-6.359-13.557 0-5.303 2.37-10.093 6.097-13.308 3.086-2.662 7.074-4.28 11.486-4.28 4.008 0 7.684 1.342 10.635 3.563l.58.457.011.008.011.009c3.845 3.215 6.345 8.082 6.345 13.551z"/><path d="m208.432 81.9513c0 4.6084-2.111 8.7788-5.422 11.5154-2.543 2.0595-5.849 3.3567-9.399 3.3567-3.744 0-7.1-1.3427-9.695-3.6014l-.091.0968c-5.234-4.7962-12.187-7.6751-19.816-7.7206h-.427c-7.772.0455-14.826 3.0666-20.055 7.914l-.097-.0455c-2.588 2.0595-5.854 3.3567-9.45 3.3567-3.692 0-7.049-1.3427-9.689-3.6014l-.051.0968c-5.177-4.745-12.084-7.6239-19.663-7.7206h-.58c-7.7718.0455-14.7755 3.0211-20.0496 7.914l-.0455-.0455c-2.5944 2.0595-5.9056 3.3567-9.5013 3.3567-3.6924 0-7.0492-1.3427-9.6891-3.6014l-.0512.0968c-5.2285-4.7962-12.181-7.6751-19.8105-7.7206v-.0512c-.1423.0512-.2845.0512-.4324.0512-7.7718.0455-14.8209 3.0666-20.0495 7.914l-.0967-.0455c-2.5432 2.0595-5.8544 3.3567-9.4046 3.3567-3.738 0-7.09474-1.3427-9.68911-3.6014-3.16331-2.6854-5.17736793-6.759-5.17736793-11.2707 0-4.5572 2.10508793-8.682 5.37080793-11.3675 2.54317-2.1619 5.85437-3.4534 9.49567-3.4534 5.7121 0 9.6947 3.1178 9.6947 3.1178 5.2286 4.7449 12.1811 7.675 19.7594 7.7717.1934 0 .3868 0 .5803.0455v-.0455c7.5783-.0967 20.0495-7.4361 20.0495-7.4361 2.5432-2.1619 5.8544-3.4534 9.4501-3.4534s6.9069 1.2915 9.5013 3.4022c0 0 12.42 7.3906 20.0491 7.4873.433-.0512.814-.0512 1.201-.0512 7.339-.1934 13.672-3.5502 19.088-7.675 2.02-1.5362 4.893-3.1633 9.74-3.1633 4.751 0 9.74 3.1178 9.74 3.1178 5.229 4.7449 12.136 7.675 19.76 7.7717h.58c.125-.0057.267-.0227.381 0 7.488-.1934 13.706-3.8119 19.384-7.7262 2.117-1.4565 6.139-3.1633 9.786-3.1633 3.55 0 6.856 1.2915 9.399 3.4022 3.311 2.6854 5.422 6.816 5.422 11.4187z"/><path d="m173.248 103.918c3.255 2.719 5.36 6.827 5.36 11.441 0 4.608-2.105 8.756-5.36 11.47-2.571 2.111-5.865 3.396-9.472 3.396-3.608 0-6.902-1.285-9.473-3.43-3.289-2.714-5.36-6.828-5.36-11.436 0-4.472 1.997-8.511 5.143-11.225 2.612-2.253 5.974-3.613 9.69-3.613 3.607 0 6.901 1.286 9.472 3.397z"/><path d="m173.271 305.353c-2.588-2.111-5.9-3.357-9.495-3.357-3.699.006-7.653 1.974-9.741 3.499-5.695 4.165-12.175 7.618-19.788 7.721-.159.011-.284-.012-.455.011-7.771-.102-14.252-3.766-20.055-7.971-2.031-1.473-5.945-3.254-9.495-3.254-3.744 0-7.1009 1.342-9.6896 3.544-3.169 2.737-5.183 6.771-5.183 11.277 0 4.551 2.1108 8.682 5.3253 11.418 2.5887 2.157 5.9003 3.408 9.5473 3.408 3.55 0 7.595-1.633 9.689-3.072 5.843-4.022 12.186-7.726 19.765-7.772.221 0 .574-.011.574 0 7.578.046 13.951 3.715 19.765 7.727 2.105 1.45 6.139 3.117 9.741 3.117 3.595 0 6.907-1.251 9.495-3.362 3.215-2.731 5.325-6.856 5.325-11.464 0-4.603-2.11-8.728-5.325-11.464"/><path d="m113.646 171.079c-2.543-2.11-5.854-3.408-9.404-3.408-3.738 0-7.6868 1.969-9.7862 3.505-5.7008 4.165-12.181 7.675-19.8105 7.721 0 .017-.2674.005-.4324 0-7.7206-.046-14.2236-3.687-20.0495-7.914-2.0482-1.485-5.9512-3.312-9.5469-3.312-3.6469 0-7.0548 1.394-9.6435 3.602-3.1633 2.685-5.1831 6.764-5.1831 11.225 0 4.603 2.0653 8.728 5.3765 11.419 2.5887 2.156 5.8487 3.453 9.4501 3.453 3.5957 0 7.6352-1.667 9.7346-3.118 5.8203-4.011 12.1412-7.68 19.765-7.771.2276 0 .5747-.017.5804 0 7.6238.091 13.9732 3.726 19.7593 7.72 2.1165 1.462 6.1392 3.169 9.7862 3.169 3.55 0 6.861-1.297 9.404-3.408 3.311-2.736 5.422-6.81 5.422-11.464 0-4.608-2.111-8.682-5.422-11.419z"/><path d="m83.8848 3.39658c3.2543 2.71385 5.3594 6.82732 5.3594 11.44142 0 4.6084-2.1051 8.7219-5.3594 11.4357-2.5773 2.1108-5.8601 3.3966-9.4729 3.3966-3.6811 0-7.0776-1.3598-9.6493-3.6128-3.186-2.6797-5.183-6.7192-5.183-11.2195 0-4.58 2.0709-8.68774 5.3594-11.40728 2.5716-2.14491 5.8658-3.43072 9.4729-3.43072 3.6128 0 6.8956 1.28581 9.4729 3.39658z"/><path d="m83.8848 137.697c3.2543 2.714 5.3594 6.827 5.3594 11.441 0 4.609-2.1051 8.722-5.3594 11.436-2.5773 2.111-5.8601 3.397-9.4729 3.397-3.6811 0-7.0776-1.36-9.6493-3.613-3.186-2.68-5.183-6.719-5.183-11.22 0-4.58 2.0709-8.687 5.3594-11.407 2.5716-2.145 5.8658-3.431 9.4729-3.431 3.6128 0 6.8956 1.286 9.4729 3.397z"/><path d="m83.8848 204.831c3.2543 2.714 5.3594 6.827 5.3594 11.442 0 4.608-2.1051 8.721-5.3594 11.435-2.5773 2.111-5.8601 3.397-9.4729 3.397-3.6811 0-7.0776-1.36-9.6493-3.613-3.186-2.68-5.183-6.719-5.183-11.219 0-4.58 2.0709-8.688 5.3594-11.408 2.5716-2.145 5.8658-3.43 9.4729-3.43 3.6128 0 6.8956 1.285 9.4729 3.396z"/><path d="m203.015 271.965c-2.543-2.111-5.854-3.357-9.404-3.357-3.647 0-7.67 1.662-9.786 3.118-5.815 4.011-12.136 7.675-19.759 7.721-.222-.012-.581.011-.581 0-7.623-.046-13.916-3.744-19.765-7.772-2.099-1.445-6.139-3.067-9.734-3.067-3.602 0-7.635 1.667-9.741 3.118-5.814 4.011-12.135 7.675-19.713 7.721-.012.051-.364-.006-.575 0-7.6295-.046-13.9675-3.744-19.8162-7.772-2.0994-1.445-6.1389-3.067-9.7346-3.067-3.6014 0-6.9069 1.298-9.4501 3.403-3.3113 2.691-5.3765 6.816-5.3765 11.418 0 4.461 2.0197 8.489 5.1318 11.226 2.6399 2.253 6.0024 3.601 9.6948 3.601 3.5957 0 7.4987-1.832 9.5468-3.311 5.8203-4.228 12.2778-7.869 20.05-7.914.17-.006.273-.029.432-.034v.034c7.629.045 14.093 3.521 19.81 7.72 2.089 1.531 6.048 3.505 9.741 3.505 3.595 0 7.504-1.832 9.547-3.311 5.769-4.188 12.277-7.869 20.049-7.914.006-.023.267-.017.432 0 7.63.045 14.093 3.521 19.811 7.72 2.094 1.536 6.048 3.505 9.786 3.505 3.55 0 6.861-1.252 9.404-3.363 3.312-2.73 5.422-6.855 5.422-11.464 0-4.602-2.11-8.727-5.422-11.464z"/><path d="m119.063 48.2282c0 4.6084-2.111 8.7332-5.422 11.4186-2.544 2.1108-5.849 3.4023-9.399 3.4023-3.647 0-6.9586-1.2915-9.5472-3.4023 0 0-12.3802-7.3905-20.004-7.4361h-.5803c-7.6239.0456-20.0495 7.4361-20.0495 7.4361-2.5432 2.1108-5.8488 3.4023-9.4502 3.4023-3.5957 0-6.8614-1.2915-9.4501-3.4023-3.3112-2.7366-5.3708-6.8614-5.3708-11.4186 0-4.5118 2.0141-8.5399 5.1774-11.2253 2.5944-2.253 5.9966-3.5957 9.6435-3.5957 3.6014 0 6.7648 1.246 9.4502 3.3568l.0967-.0967c12.6475 12.5281 35.0695 4.9896 40.2981.2389l.091.0512c2.5944-2.2075 5.9512-3.5502 9.6952-3.5502 3.55 0 6.855 1.246 9.399 3.3568 3.311 2.7309 5.422 6.8614 5.422 11.4642z"/><path d="m119.063 115.342c0 4.603-2.111 8.779-5.422 11.464-2.544 2.111-5.849 3.408-9.399 3.408-3.647 0-7.6754-1.678-9.7862-3.118-5.8089-4.028-12.1412-7.726-19.765-7.771v-.052c-.1935.052-.3869.052-.5803.052-7.6239.045-15.6858 4.415-20.0495 7.481-2.6854 1.917-5.8488 3.408-9.4502 3.408-3.5957 0-6.8614-1.297-9.4501-3.408-3.3112-2.731-5.3708-6.861-5.3708-11.464 0-4.461 2.0141-8.489 5.1774-11.225 2.5944-2.253 5.9511-3.596 9.6435-3.596 3.6014 0 6.7648 1.485 9.4502 3.402 4.3637 3.169 12.3801 7.772 20.1462 7.869h.4836c7.6238-.097 14.0528-3.55 19.765-7.721 2.1108-1.536 6.0422-3.55 9.7862-3.55 3.55 0 6.855 1.292 9.399 3.402 3.311 2.691 5.422 6.816 5.422 11.419z"/><path d="m114.699 239.201c-2.686-2.685-6.378-4.364-10.457-4.364-3.744 0-7.6925 1.963-9.7862 3.499-5.7179 4.205-12.1867 7.675-19.8105 7.727-.0057.017-.0057.028-.0057.045-.148-.011-.2674-.045-.4267-.045-7.2483 0-13.5977-2.976-18.997-7.004-2.2871-1.707-6.4802-4.222-10.6051-4.222-4.0736 0-7.7717 1.679-10.4571 4.364-2.7309 2.64-4.3638 6.378-4.3638 10.457 0 4.558 2.0653 8.682 5.3253 11.419 2.5887 2.111 5.8999 3.402 9.4956 3.402 3.6014 0 7.6011-1.621 9.6948-3.066 5.8373-4.034 12.181-7.727 19.8105-7.772.2219.006.3755-.023.5747-.034v.034c7.6295.045 13.9504 3.715 19.765 7.72 2.1108 1.463 6.1392 3.118 9.7862 3.118 3.55 0 6.861-1.246 9.399-3.357 3.311-2.73 5.422-6.855 5.422-11.464 0-4.079-1.679-7.817-4.364-10.457z"/></g><path d="m273.561 216.857v-65.648h-6.966c-3.419 0-6.423-1.239-8.852-3.668l-.002-.003c-2.423-2.43-3.665-5.427-3.665-8.905 0-3.364 1.242-6.419 3.665-8.849l.005-.005c2.425-2.418 5.426-3.666 8.849-3.666h6.966v-46.1037c0-3.3615 1.241-6.4245 3.668-8.8518l.028-.0282.03-.0269c2.491-2.3514 5.4-3.618 8.852-3.618 3.427.0001 6.432 1.2467 8.854 3.6758 2.432 2.4273 3.671 5.4894 3.671 8.8491v46.1037h16.956c3.379 0 6.381 1.253 8.796 3.668 2.431 2.431 3.673 5.488 3.673 8.852 0 3.477-1.243 6.474-3.672 8.904l.001.001c-2.418 2.427-5.422 3.671-8.798 3.671h-16.956v65.648c0 9.347 2.334 15.854 6.521 20.043 4.188 4.188 10.692 6.524 20.039 6.524 3.273 0 6.06 1.095 8.391 3.227l.461.441.003.002c2.459 2.466 3.721 5.399 3.721 8.906 0 3.385-1.257 6.401-3.752 8.823l-.001-.001c-2.417 2.403-5.345 3.64-8.823 3.64-16.71 0-29.76-4.178-38.614-13.017s-13.049-21.876-13.049-38.588z" fill="#0d1c2e"/><path d="m469.152 256v-58.738c0-12.466-4.292-23.083-12.919-31.989-8.635-8.904-20.853-14.064-33.258-14.059-12.256.005-22.774 4.151-31.589 12.447l-.847.816c-8.694 8.555-13.657 20.588-13.652 32.806.006 12.659 4.354 23.332 13.051 32.271l.816.817c8.526 8.317 20.306 13.058 32.259 13.053 5.713 0 11.028-.904 15.944-2.686l.383-.133c8.04-2.635 16.333 3.334 16.333 11.861 0 5.47-3.55 10.153-8.572 11.949-7.558 2.701-15.588 4.046-24.108 4.052-18.976 0-35.402-6.534-49.026-19.552l-1.309-1.28c-13.921-13.921-21.447-33.253-20.831-52.906.574-18.519 7.537-34.473 20.789-47.743 12.936-12.942 30.263-20.459 48.586-20.85 19.596-.419 36.539 6.019 50.555 19.29 14.775 13.991 22.383 33.899 22.383 54.077v56.497c0 3.379-1.254 6.381-3.673 8.8-2.415 2.415-5.36 3.667-8.852 3.667-3.375 0-6.374-1.253-8.793-3.664l-.005-.007c-2.412-2.419-3.665-5.417-3.665-8.796z" fill="#0d1c2e"/><path d="m863.212 243.426c5.777.016 11.116-.891 16.06-2.685 8.169-2.975 16.779 3.019 16.779 11.729 0 5.473-3.548 10.163-8.575 11.964h-.003c-7.543 2.697-15.59 4.036-24.104 4.036-19.647 0-36.454-6.97-50.328-20.838-13.879-13.868-21.404-33.106-20.842-52.694.533-18.605 7.495-34.63 20.795-47.948l.002-.002c12.928-12.929 30.23-20.451 48.532-20.854 19.593-.425 36.543 5.993 50.56 19.247 14.771 13.963 22.373 33.839 22.373 53.989v56.632c0 3.379-1.252 6.38-3.667 8.795-2.413 2.412-5.348 3.673-8.796 3.673-3.427 0-6.432-1.246-8.854-3.676-2.419-2.414-3.671-5.416-3.671-8.792v-58.737c0-12.21-4.112-22.641-12.392-31.436l-.814-.846c-8.595-8.735-20.66-13.771-32.919-13.766-12.791.006-23.594 4.485-32.615 13.447-8.596 8.536-13.526 20.469-13.526 32.594 0 12.86 4.481 23.665 13.5 32.695 8.532 8.542 20.417 13.435 32.505 13.473z" fill="#0d1c2e"/><path d="m579.387 243.426c12.489 0 23.076-4.262 31.959-12.785 8.998-8.633 14.208-20.915 14.203-33.392 0-12.411-4.256-22.981-12.811-31.858-8.451-8.774-20.357-13.985-32.526-14.168h-.003c-5.87-.092-11.33.764-16.358 2.53-8.179 2.875-17.146-2.65-17.146-11.697 0-4.934 2.852-9.83 7.778-11.65 7.453-2.749 15.44-4.183 23.926-4.284 19.127-.231 37.769 7.335 51.295 20.867 13.868 13.874 20.832 30.686 20.832 50.277-.001 19.083-6.535 35.403-19.552 49.018l-1.28 1.308c-13.443 13.455-31.96 21.027-50.977 20.873-18.589-.148-34.711-6.609-48.141-19.342-14.791-14.026-22.404-33.968-22.404-54.19v-115.1486c0-3.406 1.236-6.4707 3.673-8.9081 2.433-2.4332 5.499-3.6677 8.908-3.6678 3.154 0 6.037 1.0915 8.387 3.2246l.462.4405.007.0053c2.429 2.4366 3.664 5.5001 3.664 8.9055v112.9986l.015 1.595c.002.527.002 1.048.002 1.562v.035l-.001.033c-.28 11.115 3.34 22.196 10.442 30.617l.894 1.036c9.315 10.53 20.917 15.765 34.752 15.765z" fill="#0d1c2e"/><path d="m787.326 138.913c0 2.094-.488 3.941-1.359 5.67l-72.752 174.638-.002-.001c-.657 1.709-1.663 3.206-2.996 4.475l-.001-.001c-2.435 2.407-5.405 3.735-8.859 3.735-3.427 0-6.43-1.247-8.851-3.668-2.432-2.432-3.674-5.494-3.674-8.852 0-2.046.486-3.953 1.377-5.702l22.095-53.1-46.41-111.491c-.891-1.747-1.373-3.605-1.373-5.703 0-3.167 1.095-5.998 3.227-8.335l.441-.46c2.424-2.482 5.432-3.724 8.852-3.724 3.215 0 6.021 1.095 8.38 3.13l.466.42.085.08.078.086c1.237 1.375 2.204 2.869 2.848 4.489l37.051 88.811 36.995-88.809c.668-1.679 1.728-3.19 3.021-4.549l.025-.026.025-.025c2.376-2.369 5.376-3.607 8.793-3.607 3.435 0 6.445 1.252 8.877 3.749 2.405 2.417 3.641 5.404 3.641 8.77z" fill="#0d1c2e"/></svg>
