<svg xmlns="http://www.w3.org/2000/svg" width="225" height="55" fill="none"><g clip-path="url(#a)"><path fill="#FA6327" fill-rule="evenodd" d="M18.634 11.373a1.886 1.886 0 0 0-1.886 1.886v1.812c.724.052 1.368.074 1.886.074a1.886 1.886 0 0 0 0-3.772m-1.886 9.746c.705.042 1.342.06 1.886.06a7.92 7.92 0 1 0-7.92-7.92v.805c-1.787-.509-3.19-1.165-4.005-1.906a3.017 3.017 0 1 0-4.06 4.465c2.185 1.986 5.347 3.057 8.065 3.663v15.602c0 6.873 5.572 12.446 12.445 12.446h.378a3.017 3.017 0 1 0 0-6.035h-.378a6.41 6.41 0 0 1-6.411-6.411z" clip-rule="evenodd"/><path fill="#121212" fill-rule="evenodd" d="M18.634 11.373a1.886 1.886 0 0 0-1.886 1.886v1.812c.724.052 1.368.074 1.886.074a1.886 1.886 0 0 0 0-3.772m-1.886 9.746c.705.042 1.342.06 1.886.06a7.92 7.92 0 1 0-7.92-7.92v.805c-1.787-.509-3.19-1.165-4.005-1.906a3.017 3.017 0 1 0-4.06 4.465c2.185 1.986 5.347 3.057 8.065 3.663v11.453a3.017 3.017 0 0 0 6.034 0z" clip-rule="evenodd"/><path fill="#53C4AF" fill-rule="evenodd" d="M28.063 28.722a7.543 7.543 0 0 1 7.543-7.543h6.034a3.017 3.017 0 1 1 0 6.034h-6.035c-.833 0-1.508.676-1.508 1.509v16.596a3.017 3.017 0 1 1-6.035 0z" clip-rule="evenodd"/><path fill="#3D66F8" fill-rule="evenodd" d="M28.063 28.722a7.543 7.543 0 0 1 7.543-7.543h3.017a3.017 3.017 0 0 1 0 6.034h-3.017a1.51 1.51 0 0 0-1.51 1.509v16.596a3.017 3.017 0 1 1-6.033 0zM85.15 9.647a1.32 1.32 0 0 1 .288 1.562l-2.784 5.568a.566.566 0 0 0 .506.819h.72a1.32 1.32 0 0 1 0 2.64h-.72c-2.383 0-3.933-2.508-2.867-4.64l.725-1.45-2.861 1.748a1.32 1.32 0 0 1-1.377-2.253l6.789-4.148a1.32 1.32 0 0 1 1.581.154" clip-rule="evenodd"/><path fill="#FA6327" fill-rule="evenodd" d="M82.371 24.196a3.017 3.017 0 0 1 3.017 3.017v18.103a3.017 3.017 0 1 1-6.034 0V27.213a3.017 3.017 0 0 1 3.017-3.017" clip-rule="evenodd"/><path fill="#000" fill-rule="evenodd" d="M82.371 24.196a3.017 3.017 0 0 1 3.017 3.017V42.3a3.017 3.017 0 0 1-6.034 0V27.213a3.017 3.017 0 0 1 3.017-3.017" clip-rule="evenodd"/><path fill="#fff" d="M23.593 46.935a1.564 1.564 0 1 0 .002-3.129 1.564 1.564 0 0 0-.002 3.129M83.88 18.162a.754.754 0 1 1 0 1.508.754.754 0 0 1 0-1.508"/><path fill="#FFBB3A" fill-rule="evenodd" d="M87.651 29.476a8.297 8.297 0 0 1 8.298-8.297h6.034a3.017 3.017 0 0 1 0 6.034h-6.034a2.263 2.263 0 0 0 0 4.526h.754a8.297 8.297 0 0 1 0 16.595h-6.035a3.017 3.017 0 0 1 0-6.035h6.035a2.263 2.263 0 0 0 0-4.526h-.754a8.297 8.297 0 0 1-8.298-8.297" clip-rule="evenodd"/><path fill="#000" fill-rule="evenodd" d="M93.309 34.756a3.017 3.017 0 0 1 3.017-3.017h.377a8.297 8.297 0 0 1 0 16.595h-6.035a3.017 3.017 0 0 1 0-6.035h6.035a2.263 2.263 0 0 0 0-4.526h-.377a3.017 3.017 0 0 1-3.017-3.017" clip-rule="evenodd"/><path fill="#fff" d="M102.039 25.815a1.564 1.564 0 1 0 .002-3.128 1.564 1.564 0 0 0-.002 3.128"/><path fill="#FA6327" fill-rule="evenodd" d="M75.552 21.29a3.017 3.017 0 0 1 2.095 3.717l-5.23 18.741c-1.686 6.041-10.203 6.175-12.077.19l-5.174-16.524a.4.4 0 0 0-.053-.117.1.1 0 0 0-.027-.026.3.3 0 0 0-.174-.042c-.09 0-.15.028-.173.044a.1.1 0 0 0-.026.027.4.4 0 0 0-.052.117l-4.318 14.456a9.05 9.05 0 0 1-8.673 6.46h-3.047a3.017 3.017 0 1 1 0-6.034h3.047c1.334 0 2.51-.876 2.891-2.154L48.88 25.69c1.778-5.953 10.189-6.009 12.046-.08L66.1 42.134a.4.4 0 0 0 .054.118.1.1 0 0 0 .026.026.3.3 0 0 0 .176.041.3.3 0 0 0 .174-.047.1.1 0 0 0 .025-.026.4.4 0 0 0 .05-.12l5.23-18.74a3.017 3.017 0 0 1 3.718-2.096" clip-rule="evenodd"/><path fill="#3D66F8" fill-rule="evenodd" d="M54.713 27.3a.4.4 0 0 0-.052.117l-4.318 14.456a9.05 9.05 0 0 1-8.673 6.46h-3.047a3.017 3.017 0 0 1 0-6.034h3.047c1.334 0 2.51-.876 2.891-2.154L48.88 25.69c1.778-5.953 10.189-6.009 12.046-.08L66.1 42.134a.4.4 0 0 0 .054.118.1.1 0 0 0 .026.026.3.3 0 0 0 .176.041.3.3 0 0 0 .174-.047.1.1 0 0 0 .025-.026.4.4 0 0 0 .05-.12l1.442-5.164a3.017 3.017 0 1 1 5.812 1.622l-1.441 5.164c-1.686 6.041-10.203 6.175-12.077.19l-5.174-16.524a.4.4 0 0 0-.053-.117.1.1 0 0 0-.027-.026.3.3 0 0 0-.174-.042c-.09 0-.15.028-.173.044a.1.1 0 0 0-.026.027" clip-rule="evenodd"/><path fill="#fff" d="M74.829 25.705a1.509 1.509 0 1 0 0-3.018 1.509 1.509 0 0 0 0 3.018"/></g><defs><clipPath id="a"><path fill="#fff" d="M0 5h105v45H0z"/></clipPath></defs></svg>