<svg xmlns="http://www.w3.org/2000/svg" width="105" height="45" fill="none"><mask id="a" width="105" height="45" x="0" y="0" maskUnits="userSpaceOnUse" style="mask-type:alpha"><path fill="#fff" d="M.044 44.639V.759h104.758v43.88z"/></mask><g fill-rule="evenodd" clip-rule="evenodd" mask="url(#a)"><path fill="#DC0000" d="M104.802 37.987c0 3.683-3.013 6.696-6.695 6.696H6.696C3.014 44.683 0 41.67 0 37.987V7.455C0 3.772 3.014.759 6.696.759h91.411c3.682 0 6.695 3.013 6.695 6.696z"/><path fill="#fff" d="M94.045 29.396c-.13.157-.321.346-.424.46a9.3 9.3 0 0 1-2.692 2.029q-.39.196-.795.355a10.4 10.4 0 0 0 2.914-2.418c-.397-.11-.826-.38-1.261-.73-.71-.575-1.21-1.19-1.121-1.773q.177-.184.34-.382c2.063-2.547 1.789-6.234-.542-8.457.578.079 1.184-.42 1.753-1.124.547-.675.907-1.345.761-1.883 3.962 3.592 4.475 9.717 1.067 13.923m-7.898-11.954a5.56 5.56 0 0 1 4.315 9.054 5.54 5.54 0 0 1-4.32 2.06c-1.27 0-2.512-.44-3.498-1.24a5.5 5.5 0 0 1-2.03-3.738 5.5 5.5 0 0 1 1.21-4.076 5.54 5.54 0 0 1 4.323-2.06m-7.905-.84q.207-.254.427-.492c.525-.092 1.163.254 1.802.775.508.408.903.838 1.06 1.263a6.1 6.1 0 0 1 2.959-1.271 6.94 6.94 0 0 0-3.178 2.148l-.075.097a6.2 6.2 0 0 0-1.317 4.53 6.2 6.2 0 0 0 1.956 3.915c-.612-.168-1.264.348-1.873 1.1-.51.63-.855 1.258-.778 1.776-3.885-3.602-4.366-9.667-.983-13.841m-.59-.48c-3.795 4.681-3.072 11.573 1.61 15.365a10.96 10.96 0 0 0 6.875 2.437c3.316 0 6.414-1.475 8.498-4.048 3.794-4.68 3.072-11.574-1.61-15.366a10.96 10.96 0 0 0-6.876-2.436 10.89 10.89 0 0 0-8.498 4.048m-23.587 7.893h-.088c-1.734 0-2.543-.831-2.543-2.623 0-1.764.83-2.622 2.543-2.622h.105c1.677.02 2.497.88 2.497 2.622 0 1.771-.797 2.602-2.514 2.623m.023-7.462c-3.584 0-6.834 1.172-6.834 5.202 0 1.909 1.1 3.21 2.632 3.929l.095.044-.41.291c-1.11.75-2.305 1.815-2.305 3.308 0 1.134.823 1.831 1.75 2.168 1.234.488 2.78.433 3.888.462.57.026 2.505-.193 3.404.137.303.134.57.436.57.794 0 .691-1.08 2.577-1.08 2.577h4.076l.193-.425.638-1.42c.208-.505.285-.853.285-1.34v-.038c-.137-3.505-4.258-3.479-5.043-3.531l-2.708-.074s-1.465.073-1.465-.872c0-.617.618-1.13 1.29-1.552 0 0 .932.08 1.682.08 3.428 0 5.983-1.455 5.983-4.538 0-1.214-.647-2.333-.888-2.76l1.934.097v-2.33h-4.722s-1.259-.21-2.965-.21m-15.097 8.66c-.097-.304-2.608-7.732-2.849-8.45h-4.87c.563 1.234 5.536 12.145 5.572 12.235l-2.755 5.592 4.5.002 8.145-17.83H41.84zm-17.55-7.853v11.394h4.267v-8.754s1.294-.29 2.572-.29c.728 0 1.502.09 1.502.09v-3.167s-1.044-.047-1.46-.047c-4.187 0-6.882.774-6.882.774M6.527 15.807h4.832v12.948h4.398V15.807h4.877v-3.004H6.528zm61.779 20.855h1.112V8.142h-1.112z"/></g></svg>
