<svg xmlns="http://www.w3.org/2000/svg" width="55" height="61" fill="none" viewBox="0.5 0 55 61"><g clip-path="url(#a)"><g clip-path="url(#b)"><path fill="#FFCE00" d="M29.697 30.895c-.125.114-.445.392-.678.608-.096.089-.12.219-.1.347.044.274.118.867.24.88.065.007.123-.112.174-.188.135-.197.2-.307.336-.512.029-.044.047-.07.064-.102a.3.3 0 0 0 .008-.134 23 23 0 0 1-.014-.885c0-.015-.018-.025-.03-.014m1.39-1.696a.1.1 0 0 0-.017.06q.01.403.03.798c.002.054.074.07.099.023.311-.586 1.13-2.008 1.242-2.315.138-.38.138-.65.054-.798-.074-.13-.56-.803-.833-1.294-.024-.043-.09-.031-.098.017q-.045.248-.08.494l-.102.813c-.014.14-.013.105-.024.244a.5.5 0 0 0 .068.303c.09.15.106.097.16.272a.4.4 0 0 1 .008.203c-.13.518-.394.998-.507 1.18"/><path fill="#FFCE00" d="M29.8 16.414c-.182.356-.484.763-.751 1.122-.224.3-.386.745-.66 1.019-.228.229-.694.518-.87.603-.898.436-1.544.745-2.526 1.058-.483.154-1.004.638-1.429.905-.343.216-1.086.68-1.232 1.378-.064.306-.158.547-.284.986a53 53 0 0 0-.436 1.691c-.052.257-.18.38-.362.577-.157.17-1.03.828-.932 1.38.01.054.084.07.125.004.033-.054.032-.215.087-.26.04-.034.11-.037.117.13.005.12.03.277-.164.517-.135.168-.13.406-.035.352.92-.524 1.358-2.446 1.41-2.61.127-.395.453-1.93.625-2.315.094-.212.299-.625.513-.714.17-.07.31.03.22.24 0 0-.13.35-.182.541-.063.232-.132.441-.187.672a2.4 2.4 0 0 0-.06.53l-.003.49c-.002.13.018.26.02.39.013.906-.167 1.545-.406 2.404-.094.336-.26.63-.36 1.019-.323 1.26-.506 2.343-.777 3.615a172 172 0 0 1-.324 1.471.173.173 0 0 0 .138.21l.424.075c.091.013.194.016.278.016a.17.17 0 0 0 .168-.181c-.01-.102-.045-.45-.05-.562q-.004-.054-.004-.11c.016-1.46.309-2.573.732-3.915.12-.38.521-.579.656-.943.081-.22.181-.414.247-.601.313-.887.754-1.687.84-1.838.131-.233.572-.364.451-.06-.06.15-.38 1.024-.531 1.475-.08.235-.057.435-.038.683.045.581.702 3.806.946 5.026.05.248.044.615.1.886.018.093.103.16.198.156.2-.007.385-.03.647-.081a.185.185 0 0 0 .132-.264c-.778-1.56-1.045-4.836-1.075-5.742-.01-.29.107-.399.208-.534.259-.346.762-1.053 1.05-1.606.111-.21.268-.457.534-.432.456.043.5.038 1.027.006.31-.019.637-.173.948-.198.397-.033.56.12.631.563.234 1.478.061 2.977.376 4.461.265 1.247-.297 2.667.663 3.84.06.075.154.111.249.105a9 9 0 0 0 .464-.044h.004a.18.18 0 0 0 .138-.271c-.252-.431-.566-.842-.6-1.274-.228-3.034-.293-6.065.71-9.009.241-.707.216-1.748.06-2.397-.146-.6.159-1.363.182-1.596.035-.342.129-.651.157-.93.04-.415.983-6.728 1.049-7.116.093-.553.227-.572.45-.862.221-.29 1.835-1.597 2.035-1.936.28-.474-.439-.317-.547-.285-.44.13-.838.3-1.754.335-.586.023-.901.763-1.71.531-.085-.024-.871-.094-.53.492.024.043.068.07.115.083.6.154.757.418.682.821-.077.404-.874 3.658-1.987 5.828m4.544 38.671a18.5 18.5 0 0 1-6.458 1.17c-5.627 0-10.764-2.568-14.639-6.78a2.16 2.16 0 0 1-1.116 1.302c4.174 4.467 9.701 7.19 15.755 7.19 3.457 0 6.742-.888 9.702-2.482-1.34-.004-2.402-.155-3.244-.4"/><path fill="#FFCE00" d="M6.552 35.602a31 31 0 0 1-.492-5.537c0-14.444 9.791-26.196 21.826-26.196S49.71 15.62 49.71 30.065c0 3.362-.53 6.577-1.497 9.533a9.7 9.7 0 0 1 1.733.19 32.4 32.4 0 0 0 1.475-9.723c0-15.388-10.558-27.907-23.536-27.907S4.348 14.678 4.348 30.065c0 1.895.16 3.747.466 5.537z"/><path fill="#000A56" d="M37.552 42.703c-.691 0-1.013 1.1-1.013 2.732s.322 2.732 1.013 2.732 1.013-1.1 1.013-2.732-.322-2.732-1.013-2.732"/><path fill="#000A56" d="M53.836 46.97v-2.529c0-1.254-.373-3.094-2.32-4.11a34.7 34.7 0 0 0 1.588-10.44c0-16.483-11.29-29.844-25.218-29.844S2.666 13.408 2.666 29.89c0 2.02.171 3.992.494 5.899-.505.179-1.002.499-1.331 1.011-.43.672-.714 2.204-.714 2.656 0 1.275 1.088 2.651 2.845 2.651.326 0 .61-.053.86-.135q.156.416.321.825v4.022c-.565.468-.852 1.093-.852 1.865 0 .402.135 2.406 2.792 2.406h3.057c4.557 5.342 10.826 8.643 17.748 8.643 6.87 0 13.096-3.253 17.644-8.525q.348.042.724.043c.77 0 1.468-.125 2.073-.364q.576.268 1.367.268h2.395c1.236 0 2.567-.738 2.567-2.358 0-.953-.487-1.525-.82-1.827M27.886 2.157c12.978 0 23.536 12.52 23.536 27.907 0 3.418-.522 6.694-1.475 9.724a9.7 9.7 0 0 0-1.733-.19 30.7 30.7 0 0 0 1.497-9.534c0-14.444-9.79-26.195-21.824-26.195S6.06 15.619 6.06 30.064c0 1.9.17 3.752.492 5.537H4.815a33 33 0 0 1-.466-5.537c0-15.387 10.558-27.907 23.537-27.907m13.637 41.08c.514.602.74 1.471.74 2.288 0 1.366-.676 2.572-1.769 3.193v.036c.98.177 1.96.727 1.96 1.969 0 1.597-1.478 3-4.805 3-3.81 0-4.71-1.227-4.71-2.202 0-.94.951-1.204 2.27-1.204.77 0 1.202.096 1.202.424 0 .213-.032.276-.032.436 0 .337.417.74 1.221.74 1.093 0 1.64-.769 1.64-1.372 0-.567-.435-.869-.852-1.082-.418.053-.836.124-1.254.124-2.234 0-4.291-1.295-4.291-4.01 0-3.14 2.41-4.222 4.902-4.222 1.254 0 2.272.164 3.542.164.34 0 1.176-.196 1.38-.196 1.027 0-.148 1.913-1.144 1.913m-22.016 3.932c-.747 1.665-1.065 2.32-2.554 2.32-1.414 0-1.735-.016-3.279-5.209-.627-2.105-.997-1.543-.997-2.121 0-.482.482-.643 1.126-.643h2.273c.74 0 1.128.16 1.128.627 0 .66-.384.418-.384.868 0 .69.66 3.295 1.19 4.26.337-.788.563-1.598.745-2.578.46-2.468-.473-1.875-.473-2.566 0-.418.145-.611.9-.611h1.78c.835 0 1.191.193 1.191.627 0 .563-.383.482-.383.788 0 1.06.997 3.745 1.19 4.34.466-.997 1.093-2.894 1.093-3.954 0-.676-.607-.579-.607-1.206 0-.466.257-.595.804-.595h1.215c.643 0 .903.225.903.627 0 .594-.27.337-.591 1.334-.338 1.03-1.055 3.25-1.311 3.91-.499 1.253-.718 2.102-2.386 2.102-1.866 0-1.849-.81-2.54-2.395.012.025-.021.05-.032.075M31.104 9.766a.2.2 0 0 1-.116-.082c-.34-.586.445-.517.531-.493.808.232 1.124-.508 1.71-.53.916-.035 1.315-.205 1.754-.336.108-.031.826-.188.547.285-.2.34-1.814 1.646-2.036 1.936s-.356.31-.45.862c-.065.388-1.008 6.701-1.049 7.116-.027.279-.12.588-.156.93-.024.233-.329.995-.183 1.596.157.649.182 1.69-.059 2.397-1.004 2.944-.939 5.975-.71 9.009.034.432.348.843.6 1.274a.18.18 0 0 1-.138.27l-.004.002c-.166.017-.334.034-.465.043a.3.3 0 0 1-.249-.104c-.96-1.174-.398-2.594-.662-3.84-.315-1.485-.142-2.984-.376-4.462-.072-.444-.234-.596-.631-.563-.312.026-.638.18-.948.198-.527.033-.571.037-1.028-.006-.266-.025-.422.223-.532.432-.29.553-.792 1.26-1.051 1.607-.101.135-.218.242-.209.533.03.906.298 4.183 1.075 5.743a.185.185 0 0 1-.132.263c-.261.05-.446.074-.646.082a.196.196 0 0 1-.199-.156c-.055-.272-.05-.638-.099-.887-.244-1.22-.901-4.445-.946-5.026-.019-.247-.042-.448.037-.683.152-.45.472-1.324.532-1.474.121-.304-.32-.173-.452.06-.085.15-.526.95-.84 1.837-.065.188-.165.381-.246.602-.135.363-.536.562-.656.942-.424 1.342-.716 2.456-.733 3.915q.001.056.005.11c.005.113.04.46.05.562a.167.167 0 0 1-.168.182c-.085 0-.187-.004-.278-.017l-.424-.075a.173.173 0 0 1-.139-.21c.077-.34.243-1.086.325-1.47.27-1.273.453-2.355.777-3.616.1-.39.266-.683.36-1.019.24-.859.419-1.498.406-2.404-.002-.13-.021-.26-.02-.39l.003-.49q0-.269.06-.53c.055-.23.124-.44.186-.672.052-.19.183-.541.183-.541.09-.21-.05-.31-.22-.24-.215.088-.42.502-.514.714-.17.385-.497 1.92-.624 2.316-.052.163-.49 2.085-1.41 2.61-.095.053-.1-.185.035-.353.193-.24.168-.398.163-.518-.006-.166-.076-.163-.116-.13-.055.046-.054.207-.087.261-.041.067-.115.05-.125-.005-.098-.551.775-1.21.931-1.379.183-.197.31-.32.363-.577a52 52 0 0 1 .436-1.69c.127-.44.22-.681.284-.987.146-.697.89-1.162 1.232-1.378.425-.268.945-.75 1.428-.904.983-.314 1.628-.623 2.527-1.06.176-.084.641-.373.87-.602.274-.274.436-.718.66-1.019.266-.358.568-.766.751-1.122 1.113-2.17 1.91-5.424 1.985-5.827.077-.404-.08-.668-.68-.822m-3.756 32.795c0-.425.244-.73.881-.795.8-.082 2.269-.474 2.596-.474.49 0 .816.327.816 1.502v4.702c0 .865.62.604.62 1.257 0 .278-.294.637-.849.637h-3.134c-.555 0-.849-.36-.849-.637 0-.653.62-.392.62-1.257v-3.658c0-.914-.7-.526-.7-1.277m2.393-10.765a.3.3 0 0 1-.008.134c-.017.032-.036.058-.064.102-.135.205-.2.315-.336.512-.051.075-.109.195-.174.188-.122-.013-.196-.606-.24-.88-.02-.129.004-.259.1-.347.233-.216.553-.495.678-.608.012-.01.03-.002.03.015-.003.335.011.839.015.884m-.155 5.356c1.14 0 2.065.725 2.065 1.62s-.925 1.62-2.065 1.62-2.065-.725-2.065-1.62.925-1.62 2.065-1.62m2-9.335c-.054-.175-.07-.123-.16-.273a.5.5 0 0 1-.068-.302c.01-.14.01-.105.024-.245l.102-.812q.036-.248.08-.494a.053.053 0 0 1 .098-.017c.274.49.759 1.163.833 1.293.085.149.085.419-.053.798-.112.308-.932 1.73-1.243 2.315-.025.048-.097.031-.1-.023a37 37 0 0 1-.028-.797q-.002-.033.016-.06c.113-.182.377-.662.506-1.181a.36.36 0 0 0-.007-.202M7.081 49.327c-.82 0-1.028-.24-1.028-.642 0-.836.851-.45.851-1.318v-7.405c0-.546-.144-.691-.578-.691-1.495 0-1.417 1.074-2.366 1.074-.482 0-1.082-.343-1.082-.889 0-.29.274-1.462.435-1.702.144-.225.561-.389.899-.389h9.244c.338 0 .755.163.9.389.16.24.434 1.413.434 1.702 0 .546-.6.889-1.082.889-.949 0-.87-1.074-2.366-1.074-.434 0-.578.145-.578.691v7.405c0 .869.852.483.852 1.318 0 .402-.21.643-1.03.643zm5.05 1.45a2.16 2.16 0 0 0 1.116-1.302c3.875 4.212 9.011 6.78 14.64 6.78 2.246 0 4.415-.41 6.457-1.17.842.245 1.906.395 3.244.4-2.96 1.593-6.245 2.482-9.702 2.482-6.053 0-11.58-2.723-15.755-7.19m39.957-1.384h-2.395c-.723 0-.916-.178-1.044-.901-.514.788-1.527.997-2.395.997-2.041 0-2.974-1.318-2.974-2.54 0-1.672 1.415-2.765 5.176-2.765-.032-1.253-.25-1.543-.91-1.543-.916 0-1.301.957-2.257.957-1.075 0-1.35-.153-1.35-.7 0-.932 1.206-1.543 3.938-1.543 2.218 0 4.196.547 4.196 3.086v2.83c0 .996.82.804.82 1.528 0 .433-.29.594-.805.594"/><path fill="#000A56" d="M47.523 47.88c.772 0 1.013-1.125 1.013-2.507-.997 0-1.72.563-1.72 1.591 0 .563.29.916.707.916"/><path fill="#fff" d="M27.428 48.752c0 .277.295.636.85.636h3.134c.554 0 .849-.359.849-.636 0-.653-.62-.392-.62-1.257v-4.702c0-1.175-.327-1.502-.817-1.502-.327 0-1.796.392-2.596.473-.636.066-.88.371-.88.795 0 .752.701.364.701 1.278v3.657c0 .866-.62.605-.62 1.258m2.155-8.361c1.14 0 2.065-.725 2.065-1.62 0-.894-.924-1.619-2.065-1.619-1.14 0-2.064.725-2.064 1.62 0 .894.924 1.62 2.064 1.62m-7.504 9.097c1.668 0 1.888-.849 2.386-2.103.257-.66.974-2.88 1.311-3.909.322-.997.591-.74.591-1.334 0-.402-.26-.627-.903-.627H24.25c-.547 0-.803.128-.803.595 0 .627.606.53.606 1.205 0 1.061-.627 2.958-1.093 3.954-.192-.595-1.19-3.28-1.19-4.34 0-.305.384-.225.384-.788 0-.434-.356-.626-1.192-.626h-1.78c-.755 0-.9.192-.9.61 0 .692.934.099.474 2.567-.183.98-.409 1.79-.746 2.577-.53-.964-1.19-3.569-1.19-4.26 0-.45.384-.209.384-.867 0-.467-.388-.627-1.128-.627h-2.273c-.643 0-1.125.16-1.125.642 0 .579.37.016.997 2.122 1.543 5.192 1.864 5.208 3.279 5.208 1.488 0 1.807-.655 2.554-2.32.01-.025.045-.049.034-.075.69 1.585.673 2.396 2.538 2.396m20.587-8.165c-.204 0-1.04.197-1.38.197-1.27 0-2.289-.164-3.543-.164-2.491 0-4.902 1.081-4.902 4.222 0 2.714 2.057 4.01 4.291 4.01.418 0 .836-.071 1.254-.125.418.213.852.515.852 1.083 0 .603-.546 1.372-1.64 1.372-.803 0-1.221-.404-1.221-.74 0-.16.032-.224.032-.436 0-.328-.43-.425-1.203-.425-1.318 0-2.269.264-2.269 1.204 0 .976.9 2.202 4.71 2.202 3.327 0 4.806-1.403 4.806-3 0-1.241-.98-1.791-1.96-1.969v-.036c1.092-.62 1.767-1.827 1.767-3.193 0-.815-.225-1.685-.739-2.288.996 0 2.171-1.914 1.145-1.914m-5.115 6.845c-.691 0-1.013-1.1-1.013-2.732s.322-2.732 1.013-2.732 1.012 1.1 1.012 2.732-.321 2.732-1.012 2.732m14.521-.899v-2.829c0-2.539-1.977-3.086-4.195-3.086-2.733 0-3.938.611-3.938 1.544 0 .546.275.7 1.35.7.956 0 1.34-.957 2.257-.957.659 0 .878.289.91 1.543-3.761 0-5.176 1.093-5.176 2.764 0 1.222.932 2.54 2.974 2.54.868 0 1.88-.21 2.395-.997.128.724.32.902 1.044.902h2.395c.515 0 .804-.161.804-.595 0-.723-.82-.532-.82-1.528m-3.536-1.896c0 1.382-.24 2.507-1.013 2.507-.417 0-.707-.353-.707-.916 0-1.029.723-1.591 1.72-1.591"/><path fill="#fff" d="M11.613 48.685c0-.836-.852-.45-.852-1.318v-7.405c0-.546.145-.691.579-.691 1.494 0 1.417 1.074 2.365 1.074.482 0 1.082-.343 1.082-.889 0-.289-.273-1.461-.434-1.702-.145-.225-.562-.389-.9-.389H4.21c-.337 0-.754.163-.899.389-.16.24-.434 1.413-.434 1.702 0 .546.6.889 1.082.889.948 0 .87-1.074 2.365-1.074.435 0 .579.145.579.691v7.405c0 .869-.852.483-.852 1.318 0 .402.21.643 1.029.643h3.504c.82 0 1.029-.241 1.029-.643"/></g></g><defs><clipPath id="a"><path fill="#fff" d="M.732.021h54v60h-54z"/></clipPath><clipPath id="b"><path fill="#fff" d="M1 0h53.77v59.781H1z"/></clipPath></defs></svg>