<svg xmlns="http://www.w3.org/2000/svg" width="92" height="22" fill="none"><g clip-path="url(#a)"><path fill="#000" d="M45.7 6.133c-3.536 0-6.087 2.362-6.087 5.906s2.868 5.906 6.408 5.906c2.137 0 4.021-.866 5.187-2.326l-2.45-1.45c-.648.725-1.631 1.148-2.737 1.148-1.534 0-2.838-.82-3.322-2.133h8.977c.07-.367.112-.748.112-1.148 0-3.54-2.547-5.903-6.087-5.903m-3.027 4.757c.4-1.309 1.496-2.132 3.028-2.132 1.535 0 2.63.823 3.028 2.133zm-.724-8.367-8.878 15.75-8.88-15.75h3.328l5.55 9.844 5.548-9.844zM11.942.883l11.838 21H.104zm52.726 11.156c0 1.969 1.256 3.281 3.204 3.281 1.32 0 2.31-.613 2.819-1.614l2.46 1.453c-1.018 1.74-2.928 2.786-5.28 2.786-3.54 0-6.087-2.362-6.087-5.906s2.55-5.906 6.088-5.906c2.351 0 4.258 1.046 5.28 2.785l-2.461 1.454c-.51-1-1.5-1.614-2.82-1.614-1.944 0-3.203 1.312-3.203 3.28m26.425-9.516v15.094H88.21V2.523zM80.2 6.133c-3.537 0-6.087 2.362-6.087 5.906s2.87 5.906 6.408 5.906c2.136 0 4.02-.866 5.186-2.326l-2.45-1.45c-.648.725-1.631 1.148-2.736 1.148-1.535 0-2.84-.82-3.323-2.133h8.977c.07-.367.112-.748.112-1.148 0-3.54-2.547-5.903-6.087-5.903m-3.028 4.757c.401-1.309 1.493-2.132 3.028-2.132s2.63.823 3.028 2.133zM60.823 6.46v3.18c-.32-.095-.66-.16-1.025-.16-1.861 0-3.204 1.312-3.204 3.28v4.857h-2.883V6.461h2.883V9.48c0-1.667 1.893-3.02 4.23-3.02"/></g><defs><clipPath id="a"><path fill="#fff" d="M.104.883h91v21h-91z"/></clipPath></defs></svg>