<svg xmlns="http://www.w3.org/2000/svg" width="122" height="28" fill="none"><g clip-path="url(#a)"><path fill="#fff" d="M60.977 6.937c-4.728 0-8.137 3.082-8.137 7.705 0 4.622 3.831 7.704 8.564 7.704 2.856 0 5.374-1.129 6.933-3.036l-3.275-1.893c-.865.945-2.178 1.499-3.655 1.499-2.05 0-3.793-1.072-4.44-2.784h11.998c.093-.48.15-.975.15-1.499-.005-4.614-3.408-7.696-8.138-7.696m-4.048 6.209c.534-1.707 2-2.784 4.047-2.784 2.05 0 3.517 1.074 4.048 2.784zm-.969-10.92-11.866 20.55-11.869-20.55h4.448l7.416 12.845 7.415-12.845zM15.855.087l15.82 27.399H.034zm70.47 14.555c0 2.57 1.678 4.28 4.281 4.28 1.765 0 3.09-.8 3.769-2.108l3.288 1.896c-1.362 2.269-3.913 3.636-7.056 3.636-4.733 0-8.137-3.082-8.137-7.704 0-4.623 3.41-7.705 8.136-7.705 3.144 0 5.693 1.364 7.057 3.636l-3.288 1.896c-.68-1.307-2.004-2.107-3.769-2.107-2.597 0-4.28 1.712-4.28 4.28m35.317-12.415v19.694h-3.853V2.227zm-14.56 4.71c-4.727 0-8.136 3.082-8.136 7.705 0 4.622 3.836 7.704 8.564 7.704 2.855 0 5.374-1.129 6.933-3.036l-3.275-1.893c-.866.945-2.178 1.499-3.655 1.499-2.05 0-3.793-1.072-4.44-2.784h11.998a8 8 0 0 0 .151-1.499c-.003-4.614-3.407-7.696-8.14-7.696m-4.045 6.209c.535-1.707 1.995-2.784 4.048-2.784s3.516 1.074 4.048 2.784zM81.185 7.364v4.149a5 5 0 0 0-1.37-.211c-2.489 0-4.281 1.712-4.281 4.28v6.334H71.68V7.364h3.853v3.94c0-2.175 2.53-3.94 5.65-3.94"/></g><defs><clipPath id="a"><path fill="#fff" d="M.034.087h121.622v27.398H.034z"/></clipPath></defs></svg>