<svg width="60" height="48" viewBox="0 0 60 48" fill="none" xmlns="http://www.w3.org/2000/svg">
<path d="M44.0442 47.7588L47.596 37.1863L44.0474 47.7588H44.0442ZM0 0.259584C2.97902 0.159528 5.92818 0.881052 8.52479 2.34523C11.1214 3.8094 13.2654 5.9598 14.7223 8.56116L31.6795 37.1831L28.129 47.7588L0 0.259584ZM15.9163 0.259584C18.8932 0.162456 21.8393 0.885361 24.4333 2.34936C27.0272 3.81335 29.1694 5.96217 30.6256 8.56116L47.596 37.1634L44.0442 47.7325L15.9163 0.259584ZM43.1818 18.9354C43.1262 18.3218 43.199 17.7035 43.3957 17.1197C43.5923 16.5359 43.9084 15.9995 44.3237 15.5447C44.7391 15.0899 45.2446 14.7266 45.8081 14.478C46.3716 14.2295 46.9806 14.1012 47.5964 14.1012C48.2123 14.1012 48.8213 14.2295 49.3848 14.478C49.9483 14.7266 50.4538 15.0899 50.8692 15.5447C51.2845 15.9995 51.6006 16.5359 51.7972 17.1197C51.9938 17.7035 52.0667 18.3218 52.0111 18.9354C52.0667 19.549 51.9938 20.1673 51.7972 20.7511C51.6006 21.3349 51.2845 21.8713 50.8692 22.3261C50.4538 22.7809 49.9483 23.1442 49.3848 23.3927C48.8213 23.6413 48.2123 23.7696 47.5964 23.7696C46.9806 23.7696 46.3716 23.6413 45.8081 23.3927C45.2446 23.1442 44.7391 22.7809 44.3237 22.3261C43.9084 21.8713 43.5923 21.3349 43.3957 20.7511C43.199 20.1673 43.1262 19.549 43.1818 18.9354ZM45.6006 9.39108C42.5761 9.33672 39.6239 8.4576 37.0621 6.8484C34.5004 5.23925 32.4262 2.96111 31.0633 0.259584H60L56.9353 9.39108H45.6006Z" fill="#18181B"/>
</svg>
