<svg width="598" height="235" viewBox="0 0 598 235" fill="none" xmlns="http://www.w3.org/2000/svg">
<g filter="url(#filter0_dddddd_8003_7439)">
<path d="M57.9316 0.5H591.932C594.969 0.5 597.432 2.96243 597.432 6V229C597.432 232.038 594.969 234.5 591.932 234.5H57.9316C54.8941 234.5 52.4316 232.038 52.4316 229V6C52.4316 2.96243 54.8941 0.5 57.9316 0.5Z" fill="#0A101D" stroke="#1F2937"/>
<path d="M252.647 191.141H197.021C193.476 191.141 190.603 193.95 190.603 197.416V209.963C190.603 213.429 193.476 216.238 197.021 216.238H252.647C256.192 216.238 259.066 213.429 259.066 209.963V197.416C259.066 193.95 256.192 191.141 252.647 191.141Z" fill="#111827"/>
<path d="M175.627 191.141H87.9077C84.363 191.141 81.4893 193.95 81.4893 197.416V209.963C81.4893 213.429 84.363 216.238 87.9077 216.238H175.627C179.171 216.238 182.045 213.429 182.045 209.963V197.416C182.045 193.95 179.171 191.141 175.627 191.141Z" fill="#111827"/>
<path d="M434.503 191.141H274.042C270.497 191.141 267.624 193.95 267.624 197.416V209.963C267.624 213.429 270.497 216.238 274.042 216.238H434.503C438.048 216.238 440.922 213.429 440.922 209.963V197.416C440.922 193.95 438.048 191.141 434.503 191.141Z" fill="#111827"/>
<path d="M569.291 191.141H455.899C452.353 191.141 449.479 193.95 449.479 197.416V209.963C449.479 213.429 452.353 216.238 455.899 216.238H569.291C572.835 216.238 575.709 213.429 575.709 209.963V197.416C575.709 193.95 572.835 191.141 569.291 191.141Z" fill="#111827"/>
<path d="M252.647 157.679H197.021C193.476 157.679 190.603 160.488 190.603 163.953V176.501C190.603 179.966 193.476 182.775 197.021 182.775H252.647C256.192 182.775 259.066 179.966 259.066 176.501V163.953C259.066 160.488 256.192 157.679 252.647 157.679Z" fill="#111827"/>
<path d="M175.627 157.679H87.9077C84.363 157.679 81.4893 160.488 81.4893 163.953V176.501C81.4893 179.966 84.363 182.775 87.9077 182.775H175.627C179.171 182.775 182.045 179.966 182.045 176.501V163.953C182.045 160.488 179.171 157.679 175.627 157.679Z" fill="#111827"/>
<path d="M434.503 157.679H274.042C270.497 157.679 267.624 160.488 267.624 163.953V176.501C267.624 179.966 270.497 182.775 274.042 182.775H434.503C438.048 182.775 440.922 179.966 440.922 176.501V163.953C440.922 160.488 438.048 157.679 434.503 157.679Z" fill="#111827"/>
<path d="M569.291 157.679H455.899C452.353 157.679 449.479 160.488 449.479 163.953V176.501C449.479 179.966 452.353 182.775 455.899 182.775H569.291C572.835 182.775 575.709 179.966 575.709 176.501V163.953C575.709 160.488 572.835 157.679 569.291 157.679Z" fill="#111827"/>
<path d="M252.647 124.217H197.021C193.476 124.217 190.603 127.026 190.603 130.491V143.039C190.603 146.505 193.476 149.314 197.021 149.314H252.647C256.192 149.314 259.066 146.505 259.066 143.039V130.491C259.066 127.026 256.192 124.217 252.647 124.217Z" fill="#111827"/>
<path d="M175.627 124.217H87.9077C84.363 124.217 81.4893 127.026 81.4893 130.491V143.039C81.4893 146.505 84.363 149.314 87.9077 149.314H175.627C179.171 149.314 182.045 146.505 182.045 143.039V130.491C182.045 127.026 179.171 124.217 175.627 124.217Z" fill="#111827"/>
<path d="M434.503 124.217H274.042C270.497 124.217 267.624 127.026 267.624 130.491V143.039C267.624 146.505 270.497 149.314 274.042 149.314H434.503C438.048 149.314 440.922 146.505 440.922 143.039V130.491C440.922 127.026 438.048 124.217 434.503 124.217Z" fill="#111827"/>
<path d="M569.291 124.217H455.899C452.353 124.217 449.479 127.026 449.479 130.491V143.039C449.479 146.505 452.353 149.314 455.899 149.314H569.291C572.835 149.314 575.709 146.505 575.709 143.039V130.491C575.709 127.026 572.835 124.217 569.291 124.217Z" fill="#111827"/>
<path d="M252.647 90.7549H197.021C193.476 90.7549 190.603 93.5639 190.603 97.0292V109.578C190.603 113.042 193.476 115.852 197.021 115.852H252.647C256.192 115.852 259.066 113.042 259.066 109.578V97.0292C259.066 93.5639 256.192 90.7549 252.647 90.7549Z" fill="#111827"/>
<path d="M175.627 90.7549H87.9077C84.363 90.7549 81.4893 93.5639 81.4893 97.0292V109.578C81.4893 113.042 84.363 115.852 87.9077 115.852H175.627C179.171 115.852 182.045 113.042 182.045 109.578V97.0292C182.045 93.5639 179.171 90.7549 175.627 90.7549Z" fill="#111827"/>
<path d="M434.503 90.7549H274.042C270.497 90.7549 267.624 93.5639 267.624 97.0292V109.578C267.624 113.042 270.497 115.852 274.042 115.852H434.503C438.048 115.852 440.922 113.042 440.922 109.578V97.0292C440.922 93.5639 438.048 90.7549 434.503 90.7549Z" fill="#111827"/>
<path d="M569.291 90.7549H455.899C452.353 90.7549 449.479 93.5639 449.479 97.0292V109.578C449.479 113.042 452.353 115.852 455.899 115.852H569.291C572.835 115.852 575.709 113.042 575.709 109.578V97.0292C575.709 93.5639 572.835 90.7549 569.291 90.7549Z" fill="#111827"/>
<g filter="url(#filter1_dd_8003_7439)">
<rect x="26.1445" y="82.4977" width="343.946" height="103.783" rx="7.7466" fill="#030712"/>
<rect x="42.6377" y="99.9275" width="174.113" height="30.5882" rx="7.7466" fill="#111827"/>
<path d="M59.9875 116.226C59.9875 117.035 59.8339 117.715 59.5266 118.267C59.2238 118.813 58.8104 119.222 58.2862 119.493C57.7665 119.765 57.179 119.9 56.5238 119.9C55.8731 119.9 55.2857 119.765 54.7615 119.493C54.2418 119.222 53.8283 118.811 53.521 118.26C53.2138 117.708 53.0601 117.031 53.0601 116.226C53.0601 115.422 53.2138 114.742 53.521 114.186C53.8283 113.626 54.2418 113.208 54.7615 112.932C55.2857 112.656 55.8731 112.519 56.5238 112.519C57.1745 112.519 57.762 112.656 58.2862 112.932C58.8104 113.208 59.2238 113.623 59.5266 114.179C59.8339 114.735 59.9875 115.417 59.9875 116.226ZM58.4556 116.226C58.4556 115.657 58.3743 115.187 58.2116 114.816C58.0489 114.441 57.823 114.166 57.5338 113.989C57.2491 113.809 56.9124 113.718 56.5238 113.718C56.1352 113.718 55.7963 113.809 55.5071 113.989C55.2224 114.166 54.9987 114.441 54.836 114.816C54.6733 115.187 54.592 115.657 54.592 116.226C54.592 116.791 54.6733 117.259 54.836 117.629C54.9987 117.995 55.2224 118.264 55.5071 118.436C55.7963 118.608 56.1352 118.694 56.5238 118.694C56.917 118.694 57.2559 118.608 57.5406 118.436C57.8252 118.264 58.0489 117.995 58.2116 117.629C58.3743 117.259 58.4556 116.791 58.4556 116.226ZM64.8762 113.969H64.9576V119.731H63.4528V113.596L63.7578 113.901H61.6837V112.681H64.7474L64.8762 113.969ZM68.2857 114.003C67.6937 114.003 67.2034 114.026 66.8148 114.071C66.4307 114.111 66.067 114.195 65.7235 114.322C65.3846 114.448 65.0299 114.64 64.6593 114.898V113.705H65.0457C65.4117 113.298 65.7868 113 66.1709 112.81C66.555 112.616 67.0317 112.519 67.6011 112.519C67.8496 112.519 68.0778 112.541 68.2857 112.586V114.003ZM61.6837 118.517H67.3096V119.737H61.6837V118.517ZM74.8622 109.367H76.367V119.737H75.0723L74.93 118.463H74.8622V109.367ZM69.8734 116.226C69.8734 115.476 69.9796 114.823 70.192 114.267C70.4044 113.712 70.7162 113.282 71.1274 112.979C71.5431 112.677 72.047 112.525 72.6389 112.525C73.127 112.525 73.5472 112.623 73.8997 112.817C74.2567 113.007 74.5482 113.264 74.7741 113.59H75.1062V114.647C74.817 114.34 74.5188 114.118 74.2115 113.983C73.9042 113.847 73.5856 113.779 73.2558 113.779C72.8536 113.779 72.5147 113.87 72.239 114.05C71.9679 114.227 71.7623 114.498 71.6222 114.864C71.4821 115.225 71.4121 115.68 71.4121 116.226C71.4121 116.769 71.4799 117.218 71.6154 117.575C71.7555 117.932 71.9611 118.199 72.2322 118.375C72.5034 118.551 72.84 118.639 73.2422 118.639C73.5766 118.639 73.8974 118.574 74.2047 118.443C74.512 118.307 74.8125 118.086 75.1062 117.779V118.836H74.7809C74.5188 119.161 74.207 119.421 73.8455 119.615C73.484 119.81 73.0637 119.907 72.5847 119.907C71.9973 119.907 71.5002 119.756 71.0935 119.453C70.6913 119.145 70.3863 118.718 70.1784 118.172C69.9751 117.62 69.8734 116.972 69.8734 116.226ZM78.2801 116.199C78.2801 115.408 78.4292 114.737 78.7274 114.186C79.0257 113.635 79.4459 113.219 79.9882 112.939C80.5304 112.659 81.1653 112.519 81.8929 112.519C82.5662 112.519 83.1401 112.636 83.6146 112.871C84.089 113.106 84.4505 113.461 84.6991 113.935C84.9476 114.405 85.0719 114.988 85.0719 115.684V116.328H79.4459V115.379H83.9264L83.601 115.657V115.386C83.601 114.83 83.4428 114.414 83.1265 114.139C82.8102 113.858 82.3832 113.718 81.8454 113.718C81.2037 113.718 80.7044 113.926 80.3474 114.342C79.9904 114.753 79.8119 115.372 79.8119 116.199C79.8119 117.017 79.9859 117.638 80.3339 118.063C80.6863 118.483 81.1879 118.694 81.8386 118.694C82.2544 118.694 82.6091 118.608 82.9028 118.436C83.2011 118.26 83.4293 117.993 83.5874 117.636L85.0448 117.86C84.8821 118.316 84.6449 118.696 84.3331 118.999C84.0213 119.301 83.653 119.527 83.2282 119.676C82.8079 119.826 82.3425 119.9 81.8319 119.9C81.1224 119.9 80.5011 119.76 79.9678 119.48C79.4346 119.195 79.0189 118.777 78.7206 118.226C78.4269 117.67 78.2801 116.994 78.2801 116.199ZM90.0962 113.969H90.1775V119.731H88.6727V113.596L88.9778 113.901H86.9036V112.681H89.9674L90.0962 113.969ZM93.5056 114.003C92.9137 114.003 92.4234 114.026 92.0348 114.071C91.6507 114.111 91.2869 114.195 90.9435 114.322C90.6045 114.448 90.2498 114.64 89.8793 114.898V113.705H90.2656C90.6317 113.298 91.0067 113 91.3908 112.81C91.7749 112.616 92.2517 112.519 92.821 112.519C93.0696 112.519 93.2978 112.541 93.5056 112.586V114.003ZM86.9036 118.517H92.5296V119.737H86.9036V118.517ZM94.9646 121.296H102.15V122.178H94.9646V121.296ZM109.933 112.681V113.901H103.425V112.681H105.791H105.988H109.933ZM108.306 119.893C107.578 119.898 107.004 119.814 106.584 119.643C106.168 119.466 105.861 119.161 105.662 118.727C105.463 118.289 105.364 117.67 105.364 116.87V110.566H106.869V116.83C106.869 117.3 106.921 117.661 107.025 117.914C107.129 118.163 107.294 118.337 107.52 118.436C107.745 118.535 108.062 118.585 108.468 118.585C108.956 118.585 109.499 118.511 110.095 118.361V119.656C109.838 119.733 109.555 119.792 109.248 119.832C108.941 119.873 108.627 119.893 108.306 119.893ZM118.834 116.226C118.834 117.035 118.68 117.715 118.373 118.267C118.07 118.813 117.657 119.222 117.133 119.493C116.613 119.765 116.026 119.9 115.37 119.9C114.72 119.9 114.132 119.765 113.608 119.493C113.088 119.222 112.675 118.811 112.368 118.26C112.06 117.708 111.907 117.031 111.907 116.226C111.907 115.422 112.06 114.742 112.368 114.186C112.675 113.626 113.088 113.208 113.608 112.932C114.132 112.656 114.72 112.519 115.37 112.519C116.021 112.519 116.608 112.656 117.133 112.932C117.657 113.208 118.07 113.623 118.373 114.179C118.68 114.735 118.834 115.417 118.834 116.226ZM117.302 116.226C117.302 115.657 117.221 115.187 117.058 114.816C116.895 114.441 116.669 114.166 116.38 113.989C116.096 113.809 115.759 113.718 115.37 113.718C114.982 113.718 114.643 113.809 114.354 113.989C114.069 114.166 113.845 114.441 113.683 114.816C113.52 115.187 113.439 115.657 113.439 116.226C113.439 116.791 113.52 117.259 113.683 117.629C113.845 117.995 114.069 118.264 114.354 118.436C114.643 118.608 114.982 118.694 115.37 118.694C115.763 118.694 116.102 118.608 116.387 118.436C116.672 118.264 116.895 117.995 117.058 117.629C117.221 117.259 117.302 116.791 117.302 116.226ZM126.746 112.681V113.901H120.239V112.681H122.604H122.801H126.746ZM125.119 119.893C124.392 119.898 123.818 119.814 123.397 119.643C122.982 119.466 122.674 119.161 122.476 118.727C122.277 118.289 122.177 117.67 122.177 116.87V110.566H123.682V116.83C123.682 117.3 123.734 117.661 123.838 117.914C123.942 118.163 124.107 118.337 124.333 118.436C124.559 118.535 124.875 118.585 125.282 118.585C125.77 118.585 126.312 118.511 126.909 118.361V119.656C126.651 119.733 126.369 119.792 126.061 119.832C125.754 119.873 125.44 119.893 125.119 119.893ZM131.987 112.519C132.593 112.519 133.101 112.591 133.512 112.735C133.928 112.88 134.246 113.117 134.468 113.447C134.689 113.773 134.8 114.204 134.8 114.742V118.117C134.8 118.285 134.823 118.409 134.868 118.49C134.913 118.572 134.99 118.626 135.098 118.653C135.211 118.675 135.372 118.673 135.58 118.646V119.737C135.241 119.832 134.922 119.88 134.624 119.88C134.298 119.88 134.043 119.826 133.858 119.717C133.677 119.604 133.551 119.457 133.478 119.277C133.41 119.096 133.377 118.879 133.377 118.626L133.295 118.504V114.823C133.295 114.498 133.237 114.243 133.119 114.057C133.002 113.872 132.839 113.745 132.631 113.678C132.428 113.605 132.175 113.569 131.872 113.569C131.574 113.569 131.321 113.603 131.113 113.671C130.905 113.739 130.74 113.854 130.618 114.017C130.496 114.175 130.435 114.387 130.435 114.654L130.428 114.938H129.059V114.579C129.059 113.942 129.294 113.44 129.764 113.074C130.238 112.704 130.979 112.519 131.987 112.519ZM133.905 116.708C133.702 116.671 133.503 116.644 133.309 116.626C133.119 116.604 132.925 116.592 132.726 116.592C132.224 116.592 131.8 116.635 131.452 116.721C131.108 116.807 130.844 116.94 130.659 117.121C130.478 117.297 130.387 117.525 130.387 117.806C130.387 118.013 130.437 118.192 130.537 118.341C130.636 118.486 130.778 118.596 130.964 118.673C131.149 118.75 131.37 118.788 131.628 118.788C131.967 118.788 132.283 118.725 132.577 118.599C132.875 118.468 133.18 118.28 133.492 118.036L133.505 118.87H133.241C132.988 119.1 132.762 119.283 132.563 119.419C132.364 119.554 132.123 119.667 131.838 119.758C131.558 119.853 131.248 119.9 130.909 119.9C130.489 119.9 130.121 119.826 129.804 119.676C129.488 119.523 129.244 119.304 129.072 119.019C128.905 118.734 128.822 118.395 128.822 118.002C128.822 117.365 129.039 116.884 129.472 116.558C129.906 116.229 130.457 116.014 131.126 115.914C131.8 115.811 132.584 115.768 133.478 115.786L133.905 116.708ZM137.425 118.517H143.756V119.737H137.425V118.517ZM139.838 119.737L139.845 110.153L140.15 110.573H137.432V109.367L141.16 109.204L141.349 109.387L141.343 119.737H139.838ZM145.404 121.296H152.589V122.178H145.404V121.296ZM157.444 112.519C158.077 112.519 158.615 112.598 159.057 112.756C159.5 112.909 159.837 113.144 160.067 113.461C160.298 113.773 160.415 114.161 160.42 114.627L159.057 114.728C159.017 114.353 158.856 114.073 158.576 113.888C158.296 113.703 157.885 113.61 157.343 113.61C156.841 113.61 156.452 113.684 156.177 113.834C155.901 113.983 155.763 114.202 155.763 114.491C155.763 114.658 155.815 114.798 155.919 114.911C156.028 115.024 156.19 115.124 156.407 115.21C156.624 115.295 156.943 115.388 157.363 115.487C157.521 115.524 157.677 115.56 157.831 115.596C158.486 115.736 158.999 115.883 159.369 116.036C159.74 116.19 160.027 116.396 160.23 116.653C160.433 116.911 160.535 117.248 160.535 117.663C160.535 118.12 160.413 118.515 160.169 118.849C159.925 119.184 159.564 119.441 159.085 119.622C158.606 119.803 158.02 119.893 157.329 119.893C156.66 119.893 156.1 119.823 155.648 119.683C155.196 119.539 154.835 119.306 154.563 118.985C154.292 118.664 154.107 118.237 154.008 117.704L155.39 117.534C155.481 117.882 155.619 118.147 155.804 118.328C155.994 118.508 156.213 118.628 156.461 118.687C156.71 118.746 157.024 118.775 157.404 118.775C157.774 118.775 158.081 118.734 158.325 118.653C158.569 118.567 158.746 118.454 158.854 118.314C158.967 118.169 159.024 118.009 159.024 117.833C159.024 117.643 158.954 117.487 158.813 117.365C158.673 117.243 158.461 117.139 158.176 117.053C157.896 116.963 157.456 116.852 156.855 116.721C156.29 116.604 155.824 116.459 155.458 116.287C155.092 116.116 154.812 115.894 154.618 115.623C154.423 115.352 154.326 115.015 154.326 114.613C154.326 113.953 154.586 113.44 155.106 113.074C155.625 112.704 156.405 112.519 157.444 112.519ZM165.058 119.737V113.468L165.363 113.888H162.645V112.681L166.38 112.519L166.563 112.702V119.737H165.058ZM162.645 118.517H168.976V119.737H162.645V118.517ZM165.539 111.115C165.331 111.115 165.148 111.077 164.99 111C164.832 110.919 164.708 110.804 164.617 110.655C164.527 110.505 164.482 110.331 164.482 110.133C164.482 109.834 164.579 109.599 164.773 109.428C164.967 109.251 165.223 109.163 165.539 109.163C165.855 109.163 166.111 109.251 166.305 109.428C166.499 109.599 166.596 109.834 166.596 110.133C166.596 110.435 166.499 110.675 166.305 110.851C166.111 111.027 165.855 111.115 165.539 111.115ZM177.077 112.681V113.576L172.915 118.836L172.651 118.517H177.321V119.737H171.119V118.836L175.281 113.576L175.627 113.901H171.119V112.681H177.077ZM179.16 116.199C179.16 115.408 179.309 114.737 179.607 114.186C179.905 113.635 180.326 113.219 180.868 112.939C181.41 112.659 182.045 112.519 182.773 112.519C183.446 112.519 184.02 112.636 184.494 112.871C184.969 113.106 185.33 113.461 185.579 113.935C185.827 114.405 185.952 114.988 185.952 115.684V116.328H180.326V115.379H184.806L184.481 115.657V115.386C184.481 114.83 184.323 114.414 184.006 114.139C183.69 113.858 183.263 113.718 182.725 113.718C182.083 113.718 181.584 113.926 181.227 114.342C180.87 114.753 180.692 115.372 180.692 116.199C180.692 117.017 180.866 117.638 181.214 118.063C181.566 118.483 182.068 118.694 182.718 118.694C183.134 118.694 183.489 118.608 183.783 118.436C184.081 118.26 184.309 117.993 184.467 117.636L185.925 117.86C185.762 118.316 185.525 118.696 185.213 118.999C184.901 119.301 184.533 119.527 184.108 119.676C183.688 119.826 183.222 119.9 182.712 119.9C182.002 119.9 181.381 119.76 180.848 119.48C180.314 119.195 179.899 118.777 179.6 118.226C179.307 117.67 179.16 116.994 179.16 116.199Z" fill="#9CA3AF"/>
<path d="M201.449 117.646C201.185 117.91 200.788 117.91 200.549 117.646L196.313 113.409C196.048 113.171 196.048 112.774 196.313 112.536C196.551 112.271 196.948 112.271 197.187 112.536L200.973 116.322L204.786 112.509C205.024 112.271 205.421 112.271 205.659 112.509C205.924 112.774 205.924 113.171 205.659 113.409L201.449 117.646Z" fill="#9CA3AF"/>
<rect x="226.434" y="99.9275" width="65.1131" height="30.5882" rx="7.7466" fill="#111827"/>
<path d="M236.856 115.853C236.856 115.189 236.967 114.606 237.188 114.105C237.41 113.603 237.728 113.214 238.144 112.939C238.56 112.663 239.048 112.525 239.608 112.525C239.938 112.525 240.238 112.573 240.51 112.668C240.781 112.758 241.018 112.882 241.221 113.04C241.429 113.199 241.608 113.382 241.757 113.59H242.089V114.647C241.8 114.34 241.501 114.118 241.194 113.983C240.887 113.847 240.568 113.779 240.238 113.779C239.854 113.779 239.522 113.861 239.242 114.023C238.966 114.186 238.756 114.423 238.612 114.735C238.467 115.042 238.395 115.415 238.395 115.853C238.395 116.283 238.465 116.651 238.605 116.958C238.745 117.261 238.953 117.494 239.228 117.656C239.504 117.815 239.836 117.894 240.225 117.894C240.559 117.894 240.88 117.828 241.187 117.697C241.495 117.562 241.795 117.34 242.089 117.033V118.09H241.763C241.501 118.416 241.187 118.675 240.821 118.87C240.455 119.064 240.033 119.161 239.554 119.161C238.998 119.161 238.517 119.023 238.11 118.748C237.703 118.472 237.392 118.086 237.175 117.589C236.962 117.092 236.856 116.513 236.856 115.853ZM243.35 119.331C243.35 120.072 243.23 120.673 242.99 121.134C242.751 121.599 242.394 121.938 241.919 122.15C241.445 122.367 240.848 122.476 240.13 122.476C239.488 122.476 238.953 122.397 238.523 122.239C238.099 122.08 237.769 121.861 237.534 121.581C237.303 121.301 237.143 120.971 237.053 120.591L238.422 120.293C238.553 120.673 238.756 120.953 239.032 121.134C239.312 121.315 239.678 121.405 240.13 121.405C240.672 121.405 241.092 121.258 241.391 120.964C241.693 120.675 241.845 120.185 241.845 119.493V113.915H241.926L242.055 112.681H243.35V119.331ZM251.695 112.681V113.901H245.188V112.681H247.554H247.75H251.695ZM250.068 119.893C249.341 119.898 248.767 119.814 248.347 119.643C247.931 119.466 247.624 119.161 247.425 118.727C247.226 118.289 247.127 117.67 247.127 116.87V110.566H248.631V116.83C248.631 117.3 248.683 117.661 248.787 117.914C248.891 118.163 249.056 118.337 249.282 118.436C249.508 118.535 249.824 118.585 250.231 118.585C250.719 118.585 251.261 118.511 251.858 118.361V119.656C251.6 119.733 251.318 119.792 251.011 119.832C250.703 119.873 250.389 119.893 250.068 119.893ZM253.669 116.199C253.669 115.408 253.818 114.737 254.117 114.186C254.415 113.635 254.835 113.219 255.377 112.939C255.92 112.659 256.555 112.519 257.282 112.519C257.955 112.519 258.529 112.636 259.004 112.871C259.478 113.106 259.84 113.461 260.088 113.935C260.337 114.405 260.461 114.988 260.461 115.684V116.328H254.835V115.379H259.316L258.99 115.657V115.386C258.99 114.83 258.832 114.414 258.516 114.139C258.199 113.858 257.772 113.718 257.235 113.718C256.593 113.718 256.094 113.926 255.737 114.342C255.38 114.753 255.201 115.372 255.201 116.199C255.201 117.017 255.375 117.638 255.723 118.063C256.076 118.483 256.577 118.694 257.228 118.694C257.644 118.694 257.998 118.608 258.292 118.436C258.59 118.26 258.819 117.993 258.977 117.636L260.434 117.86C260.271 118.316 260.034 118.696 259.722 118.999C259.411 119.301 259.042 119.527 258.617 119.676C258.197 119.826 257.732 119.9 257.221 119.9C256.512 119.9 255.89 119.76 255.357 119.48C254.824 119.195 254.408 118.777 254.11 118.226C253.816 117.67 253.669 116.994 253.669 116.199Z" fill="#9CA3AF"/>
<path d="M276.245 117.646C275.981 117.91 275.583 117.91 275.345 117.646L271.109 113.409C270.844 113.171 270.844 112.774 271.109 112.536C271.347 112.271 271.744 112.271 271.982 112.536L275.769 116.322L279.582 112.509C279.82 112.271 280.217 112.271 280.455 112.509C280.72 112.774 280.72 113.171 280.455 113.409L276.245 117.646Z" fill="#9CA3AF"/>
<rect x="301.23" y="99.9275" width="53.3665" height="30.5882" rx="7.7466" fill="#111827"/>
<path d="M312.236 111.407C312.48 111.407 312.742 111.341 313.022 111.21C313.307 111.075 313.562 110.887 313.788 110.648C314.014 110.408 314.161 110.139 314.229 109.841H315.632C315.618 110.356 315.442 110.899 315.103 111.468C314.769 112.033 314.342 112.503 313.822 112.878C313.302 113.253 312.774 113.44 312.236 113.44V111.407ZM314.229 119.737V109.841H316.235V119.737H314.229ZM312.026 118.084H318.411V119.737H312.026V118.084ZM327.17 114.789C327.17 115.928 327.03 116.879 326.75 117.643C326.47 118.402 326.058 118.969 325.516 119.344C324.974 119.719 324.312 119.907 323.53 119.907C322.748 119.907 322.086 119.719 321.544 119.344C321.002 118.969 320.588 118.402 320.304 117.643C320.023 116.879 319.883 115.928 319.883 114.789C319.883 113.601 320.023 112.629 320.304 111.875C320.584 111.115 320.993 110.557 321.53 110.2C322.068 109.843 322.735 109.665 323.53 109.665C324.321 109.665 324.985 109.843 325.523 110.2C326.061 110.557 326.47 111.115 326.75 111.875C327.03 112.629 327.17 113.601 327.17 114.789ZM325.109 114.789C325.109 113.926 325.057 113.251 324.953 112.763C324.85 112.275 324.685 111.927 324.459 111.719C324.233 111.506 323.923 111.4 323.53 111.4C323.137 111.4 322.825 111.506 322.595 111.719C322.369 111.927 322.204 112.275 322.1 112.763C321.996 113.251 321.944 113.926 321.944 114.789C321.944 115.648 321.996 116.321 322.1 116.809C322.204 117.297 322.369 117.647 322.595 117.86C322.825 118.068 323.137 118.172 323.53 118.172C323.923 118.172 324.233 118.068 324.459 117.86C324.685 117.647 324.85 117.297 324.953 116.809C325.057 116.321 325.109 115.648 325.109 114.789ZM323.523 115.887C323.781 115.887 323.977 115.797 324.113 115.616C324.249 115.431 324.316 115.171 324.316 114.837C324.316 114.611 324.285 114.421 324.221 114.267C324.163 114.109 324.075 113.989 323.957 113.908C323.84 113.827 323.695 113.786 323.523 113.786C323.266 113.786 323.069 113.876 322.934 114.057C322.802 114.238 322.737 114.498 322.737 114.837C322.737 115.058 322.766 115.248 322.825 115.406C322.888 115.56 322.976 115.68 323.089 115.765C323.207 115.847 323.352 115.887 323.523 115.887ZM335.577 114.789C335.577 115.928 335.437 116.879 335.156 117.643C334.876 118.402 334.465 118.969 333.923 119.344C333.38 119.719 332.718 119.907 331.937 119.907C331.155 119.907 330.493 119.719 329.951 119.344C329.408 118.969 328.995 118.402 328.71 117.643C328.43 116.879 328.29 115.928 328.29 114.789C328.29 113.601 328.43 112.629 328.71 111.875C328.99 111.115 329.399 110.557 329.937 110.2C330.475 109.843 331.141 109.665 331.937 109.665C332.727 109.665 333.392 109.843 333.929 110.2C334.467 110.557 334.876 111.115 335.156 111.875C335.437 112.629 335.577 113.601 335.577 114.789ZM333.516 114.789C333.516 113.926 333.464 113.251 333.36 112.763C333.256 112.275 333.091 111.927 332.865 111.719C332.639 111.506 332.33 111.4 331.937 111.4C331.544 111.4 331.232 111.506 331.001 111.719C330.775 111.927 330.61 112.275 330.506 112.763C330.403 113.251 330.351 113.926 330.351 114.789C330.351 115.648 330.403 116.321 330.506 116.809C330.61 117.297 330.775 117.647 331.001 117.86C331.232 118.068 331.544 118.172 331.937 118.172C332.33 118.172 332.639 118.068 332.865 117.86C333.091 117.647 333.256 117.297 333.36 116.809C333.464 116.321 333.516 115.648 333.516 114.789ZM331.93 115.887C332.187 115.887 332.384 115.797 332.52 115.616C332.655 115.431 332.723 115.171 332.723 114.837C332.723 114.611 332.691 114.421 332.628 114.267C332.569 114.109 332.481 113.989 332.364 113.908C332.246 113.827 332.102 113.786 331.93 113.786C331.672 113.786 331.476 113.876 331.34 114.057C331.209 114.238 331.144 114.498 331.144 114.837C331.144 115.058 331.173 115.248 331.232 115.406C331.295 115.56 331.383 115.68 331.496 115.765C331.614 115.847 331.758 115.887 331.93 115.887ZM343.983 114.789C343.983 115.928 343.843 116.879 343.563 117.643C343.283 118.402 342.872 118.969 342.329 119.344C341.787 119.719 341.125 119.907 340.343 119.907C339.562 119.907 338.9 119.719 338.357 119.344C337.815 118.969 337.402 118.402 337.117 117.643C336.837 116.879 336.697 115.928 336.697 114.789C336.697 113.601 336.837 112.629 337.117 111.875C337.397 111.115 337.806 110.557 338.344 110.2C338.881 109.843 339.548 109.665 340.343 109.665C341.134 109.665 341.798 109.843 342.336 110.2C342.874 110.557 343.283 111.115 343.563 111.875C343.843 112.629 343.983 113.601 343.983 114.789ZM341.923 114.789C341.923 113.926 341.871 113.251 341.767 112.763C341.663 112.275 341.498 111.927 341.272 111.719C341.046 111.506 340.736 111.4 340.343 111.4C339.95 111.4 339.638 111.506 339.408 111.719C339.182 111.927 339.017 112.275 338.913 112.763C338.809 113.251 338.757 113.926 338.757 114.789C338.757 115.648 338.809 116.321 338.913 116.809C339.017 117.297 339.182 117.647 339.408 117.86C339.638 118.068 339.95 118.172 340.343 118.172C340.736 118.172 341.046 118.068 341.272 117.86C341.498 117.647 341.663 117.297 341.767 116.809C341.871 116.321 341.923 115.648 341.923 114.789ZM340.337 115.887C340.594 115.887 340.791 115.797 340.926 115.616C341.062 115.431 341.13 115.171 341.13 114.837C341.13 114.611 341.098 114.421 341.035 114.267C340.976 114.109 340.888 113.989 340.77 113.908C340.653 113.827 340.508 113.786 340.337 113.786C340.079 113.786 339.882 113.876 339.747 114.057C339.616 114.238 339.55 114.498 339.55 114.837C339.55 115.058 339.58 115.248 339.638 115.406C339.702 115.56 339.79 115.68 339.903 115.765C340.02 115.847 340.165 115.887 340.337 115.887Z" fill="#4B5563"/>
<rect x="41.6377" y="138.262" width="124.113" height="30.5882" rx="7.7466" fill="#111827"/>
<path d="M58.8994 155.89C58.7729 156.418 58.5492 156.859 58.2283 157.211C57.912 157.559 57.5279 157.817 57.076 157.984C56.6242 158.151 56.1271 158.235 55.5848 158.235C54.8754 158.235 54.2563 158.095 53.7276 157.815C53.1989 157.53 52.7877 157.112 52.4939 156.561C52.2047 156.005 52.0601 155.329 52.0601 154.534C52.0601 153.721 52.2115 153.041 52.5143 152.494C52.8215 151.942 53.2441 151.531 53.7818 151.26C54.3241 150.989 54.9499 150.853 55.6594 150.853C56.2559 150.853 56.7868 150.948 57.2523 151.138C57.7222 151.323 58.0996 151.606 58.3842 151.985C58.6735 152.365 58.8452 152.833 58.8994 153.388L57.4285 153.517C57.3517 153.029 57.1551 152.663 56.8388 152.419C56.527 152.175 56.1203 152.053 55.6187 152.053C54.9544 152.053 54.4506 152.266 54.1072 152.69C53.7682 153.111 53.5988 153.725 53.5988 154.534C53.5988 155.09 53.6779 155.553 53.836 155.924C53.9942 156.294 54.2224 156.572 54.5206 156.757C54.8234 156.938 55.1826 157.028 55.5984 157.028C56.0774 157.028 56.4705 156.915 56.7778 156.689C57.0896 156.459 57.3133 156.122 57.4488 155.68L58.8994 155.89ZM63.8762 152.304H63.9576V158.065H62.4528V151.931L62.7578 152.236H60.6837V151.016H63.7474L63.8762 152.304ZM67.2857 152.338C66.6937 152.338 66.2034 152.36 65.8148 152.406C65.4307 152.446 65.067 152.53 64.7235 152.656C64.3846 152.783 64.0299 152.975 63.6593 153.233V152.04H64.0457C64.4117 151.633 64.7868 151.335 65.1709 151.145C65.555 150.951 66.0317 150.853 66.6011 150.853C66.8496 150.853 67.0778 150.876 67.2857 150.921V152.338ZM60.6837 156.852H66.3096V158.072H60.6837V156.852ZM68.8734 154.534C68.8734 153.743 69.0225 153.072 69.3208 152.521C69.619 151.97 70.0393 151.554 70.5815 151.274C71.1238 150.993 71.7587 150.853 72.4862 150.853C73.1595 150.853 73.7334 150.971 74.2079 151.206C74.6824 151.441 75.0439 151.796 75.2924 152.27C75.541 152.74 75.6652 153.323 75.6652 154.019V154.663H70.0393V153.714H74.5197L74.1944 153.992V153.721C74.1944 153.165 74.0362 152.749 73.7199 152.473C73.4036 152.193 72.9765 152.053 72.4388 152.053C71.7971 152.053 71.2978 152.261 70.9408 152.677C70.5838 153.088 70.4053 153.707 70.4053 154.534C70.4053 155.352 70.5793 155.973 70.9272 156.398C71.2797 156.818 71.7813 157.028 72.432 157.028C72.8477 157.028 73.2025 156.943 73.4962 156.771C73.7944 156.595 74.0226 156.328 74.1808 155.971L75.6381 156.195C75.4754 156.651 75.2382 157.031 74.9264 157.333C74.6146 157.636 74.2463 157.862 73.8215 158.011C73.4013 158.16 72.9359 158.235 72.4252 158.235C71.7158 158.235 71.0944 158.095 70.5612 157.815C70.028 157.53 69.6122 157.112 69.314 156.561C69.0203 156.005 68.8734 155.329 68.8734 154.534ZM80.5472 150.853C81.1527 150.853 81.6611 150.926 82.0723 151.07C82.488 151.215 82.8066 151.452 83.028 151.782C83.2495 152.107 83.3602 152.539 83.3602 153.077V156.452C83.3602 156.619 83.3828 156.744 83.4279 156.825C83.4731 156.906 83.55 156.961 83.6584 156.988C83.7714 157.01 83.9318 157.008 84.1397 156.981V158.072C83.8008 158.167 83.4822 158.215 83.1839 158.215C82.8586 158.215 82.6033 158.16 82.418 158.052C82.2372 157.939 82.1107 157.792 82.0384 157.611C81.9706 157.431 81.9367 157.214 81.9367 156.961L81.8554 156.839V153.158C81.8554 152.833 81.7966 152.577 81.6792 152.392C81.5617 152.207 81.399 152.08 81.1911 152.012C80.9878 151.94 80.7347 151.904 80.432 151.904C80.1337 151.904 79.8807 151.938 79.6728 152.006C79.4649 152.073 79.3 152.189 79.178 152.351C79.056 152.51 78.995 152.722 78.995 152.989L78.9882 153.273H77.619V152.914C77.619 152.277 77.8539 151.775 78.3239 151.409C78.7984 151.039 79.5395 150.853 80.5472 150.853ZM82.4654 155.042C82.2621 155.006 82.0633 154.979 81.8689 154.961C81.6792 154.938 81.4848 154.927 81.286 154.927C80.7844 154.927 80.3596 154.97 80.0117 155.056C79.6683 155.142 79.4039 155.275 79.2186 155.456C79.0379 155.632 78.9475 155.86 78.9475 156.14C78.9475 156.348 78.9972 156.527 79.0966 156.676C79.196 156.821 79.3384 156.931 79.5237 157.008C79.7089 157.085 79.9304 157.123 80.1879 157.123C80.5268 157.123 80.8432 157.06 81.1369 156.934C81.4351 156.802 81.7402 156.615 82.052 156.371L82.0655 157.205H81.8012C81.5481 157.435 81.3222 157.618 81.1233 157.754C80.9245 157.889 80.6827 158.002 80.3981 158.093C80.1179 158.187 79.8084 158.235 79.4694 158.235C79.0492 158.235 78.6809 158.16 78.3646 158.011C78.0483 157.858 77.8042 157.638 77.6325 157.354C77.4653 157.069 77.3817 156.73 77.3817 156.337C77.3817 155.7 77.5986 155.219 78.0324 154.893C78.4663 154.563 79.0176 154.349 79.6863 154.249C80.3596 154.145 81.1437 154.102 82.0384 154.121L82.4654 155.042ZM92.1193 151.016V152.236H85.6121V151.016H87.9778H88.1743H92.1193ZM90.4925 158.228C89.765 158.233 89.1911 158.149 88.7708 157.977C88.3551 157.801 88.0478 157.496 87.849 157.062C87.6501 156.624 87.5507 156.005 87.5507 155.205V148.901H89.0555V155.164C89.0555 155.634 89.1075 155.996 89.2114 156.249C89.3153 156.497 89.4803 156.671 89.7062 156.771C89.9322 156.87 90.2485 156.92 90.6552 156.92C91.1432 156.92 91.6855 156.845 92.282 156.696V157.991C92.0244 158.068 91.742 158.126 91.4347 158.167C91.1274 158.208 90.8133 158.228 90.4925 158.228ZM94.0933 154.534C94.0933 153.743 94.2425 153.072 94.5407 152.521C94.839 151.97 95.2592 151.554 95.8015 151.274C96.3437 150.993 96.9786 150.853 97.7062 150.853C98.3795 150.853 98.9534 150.971 99.4278 151.206C99.9023 151.441 100.264 151.796 100.512 152.27C100.761 152.74 100.885 153.323 100.885 154.019V154.663H95.2592V153.714H99.7396L99.4143 153.992V153.721C99.4143 153.165 99.2561 152.749 98.9398 152.473C98.6235 152.193 98.1965 152.053 97.6587 152.053C97.017 152.053 96.5177 152.261 96.1607 152.677C95.8037 153.088 95.6252 153.707 95.6252 154.534C95.6252 155.352 95.7992 155.973 96.1472 156.398C96.4996 156.818 97.0012 157.028 97.6519 157.028C98.0677 157.028 98.4224 156.943 98.7161 156.771C99.0144 156.595 99.2426 156.328 99.4007 155.971L100.858 156.195C100.695 156.651 100.458 157.031 100.146 157.333C99.8345 157.636 99.4663 157.862 99.0415 158.011C98.6212 158.16 98.1558 158.235 97.6452 158.235C96.9357 158.235 96.3144 158.095 95.7811 157.815C95.2479 157.53 94.8322 157.112 94.5339 156.561C94.2402 156.005 94.0933 155.329 94.0933 154.534ZM107.489 147.702H108.994V158.072H107.699L107.557 156.798H107.489V147.702ZM102.5 154.561C102.5 153.811 102.606 153.158 102.819 152.602C103.031 152.046 103.343 151.617 103.754 151.314C104.17 151.012 104.674 150.86 105.266 150.86C105.754 150.86 106.174 150.957 106.526 151.152C106.883 151.341 107.175 151.599 107.401 151.924H107.733V152.982C107.444 152.675 107.145 152.453 106.838 152.318C106.531 152.182 106.212 152.114 105.882 152.114C105.48 152.114 105.141 152.205 104.866 152.385C104.594 152.562 104.389 152.833 104.249 153.199C104.109 153.56 104.039 154.014 104.039 154.561C104.039 155.103 104.106 155.553 104.242 155.91C104.382 156.267 104.588 156.534 104.859 156.71C105.13 156.886 105.467 156.974 105.869 156.974C106.203 156.974 106.524 156.909 106.831 156.778C107.139 156.642 107.439 156.421 107.733 156.113V157.171H107.407C107.145 157.496 106.834 157.756 106.472 157.95C106.111 158.145 105.69 158.242 105.211 158.242C104.624 158.242 104.127 158.09 103.72 157.788C103.318 157.48 103.013 157.053 102.805 156.506C102.602 155.955 102.5 155.307 102.5 154.561ZM110.778 159.631H117.963V160.512H110.778V159.631ZM122.58 150.853C123.186 150.853 123.694 150.926 124.106 151.07C124.521 151.215 124.84 151.452 125.061 151.782C125.283 152.107 125.393 152.539 125.393 153.077V156.452C125.393 156.619 125.416 156.744 125.461 156.825C125.506 156.906 125.583 156.961 125.692 156.988C125.805 157.01 125.965 157.008 126.173 156.981V158.072C125.834 158.167 125.515 158.215 125.217 158.215C124.892 158.215 124.636 158.16 124.451 158.052C124.27 157.939 124.144 157.792 124.072 157.611C124.004 157.431 123.97 157.214 123.97 156.961L123.889 156.839V153.158C123.889 152.833 123.83 152.577 123.712 152.392C123.595 152.207 123.432 152.08 123.224 152.012C123.021 151.94 122.768 151.904 122.465 151.904C122.167 151.904 121.914 151.938 121.706 152.006C121.498 152.073 121.333 152.189 121.211 152.351C121.089 152.51 121.028 152.722 121.028 152.989L121.021 153.273H119.652V152.914C119.652 152.277 119.887 151.775 120.357 151.409C120.832 151.039 121.573 150.853 122.58 150.853ZM124.499 155.042C124.295 155.006 124.096 154.979 123.902 154.961C123.712 154.938 123.518 154.927 123.319 154.927C122.818 154.927 122.393 154.97 122.045 155.056C121.701 155.142 121.437 155.275 121.252 155.456C121.071 155.632 120.981 155.86 120.981 156.14C120.981 156.348 121.03 156.527 121.13 156.676C121.229 156.821 121.372 156.931 121.557 157.008C121.742 157.085 121.964 157.123 122.221 157.123C122.56 157.123 122.876 157.06 123.17 156.934C123.468 156.802 123.773 156.615 124.085 156.371L124.099 157.205H123.834C123.581 157.435 123.355 157.618 123.157 157.754C122.958 157.889 122.716 158.002 122.431 158.093C122.151 158.187 121.842 158.235 121.503 158.235C121.082 158.235 120.714 158.16 120.398 158.011C120.081 157.858 119.837 157.638 119.666 157.354C119.499 157.069 119.415 156.73 119.415 156.337C119.415 155.7 119.632 155.219 120.066 154.893C120.499 154.563 121.051 154.349 121.72 154.249C122.393 154.145 123.177 154.102 124.072 154.121L124.499 155.042ZM134.153 151.016V152.236H127.645V151.016H130.011H130.208H134.153ZM132.526 158.228C131.798 158.233 131.224 158.149 130.804 157.977C130.388 157.801 130.081 157.496 129.882 157.062C129.683 156.624 129.584 156.005 129.584 155.205V148.901H131.089V155.164C131.089 155.634 131.141 155.996 131.245 156.249C131.349 156.497 131.513 156.671 131.739 156.771C131.965 156.87 132.282 156.92 132.688 156.92C133.176 156.92 133.719 156.845 134.315 156.696V157.991C134.058 158.068 133.775 158.126 133.468 158.167C133.161 158.208 132.847 158.228 132.526 158.228Z" fill="#9CA3AF"/>
<path d="M150.449 155.981C150.185 156.245 149.788 156.245 149.549 155.981L145.313 151.744C145.048 151.506 145.048 151.109 145.313 150.87C145.551 150.606 145.948 150.606 146.187 150.87L149.973 154.657L153.786 150.844C154.024 150.606 154.421 150.606 154.659 150.844C154.924 151.109 154.924 151.506 154.659 151.744L150.449 155.981Z" fill="#9CA3AF"/>
<rect x="175.434" y="138.262" width="65.1131" height="30.5882" rx="7.7466" fill="#111827"/>
<path d="M186.154 156.852H192.485V158.072H186.154V156.852ZM188.567 158.072L188.574 148.488L188.879 148.908H186.161V147.702L189.889 147.539L190.079 147.722L190.072 158.072H188.567ZM200.695 151.016V152.236H194.188V151.016H196.554H196.75H200.695ZM199.068 158.228C198.341 158.233 197.767 158.149 197.347 157.977C196.931 157.801 196.624 157.496 196.425 157.062C196.226 156.624 196.127 156.005 196.127 155.205V148.901H197.631V155.164C197.631 155.634 197.683 155.996 197.787 156.249C197.891 156.497 198.056 156.671 198.282 156.771C198.508 156.87 198.824 156.92 199.231 156.92C199.719 156.92 200.261 156.845 200.858 156.696V157.991C200.6 158.068 200.318 158.126 200.011 158.167C199.703 158.208 199.389 158.228 199.068 158.228ZM202.669 154.534C202.669 153.743 202.818 153.072 203.117 152.521C203.415 151.97 203.835 151.554 204.377 151.274C204.92 150.993 205.555 150.853 206.282 150.853C206.955 150.853 207.529 150.971 208.004 151.206C208.478 151.441 208.84 151.796 209.088 152.27C209.337 152.74 209.461 153.323 209.461 154.019V154.663H203.835V153.714H208.316L207.99 153.992V153.721C207.99 153.165 207.832 152.749 207.516 152.473C207.199 152.193 206.772 152.053 206.235 152.053C205.593 152.053 205.094 152.261 204.737 152.677C204.38 153.088 204.201 153.707 204.201 154.534C204.201 155.352 204.375 155.973 204.723 156.398C205.076 156.818 205.577 157.028 206.228 157.028C206.644 157.028 206.998 156.943 207.292 156.771C207.59 156.595 207.819 156.328 207.977 155.971L209.434 156.195C209.271 156.651 209.034 157.031 208.722 157.333C208.411 157.636 208.042 157.862 207.617 158.011C207.197 158.16 206.732 158.235 206.221 158.235C205.512 158.235 204.89 158.095 204.357 157.815C203.824 157.53 203.408 157.112 203.11 156.561C202.816 156.005 202.669 155.329 202.669 154.534Z" fill="#9CA3AF"/>
<path d="M225.245 155.981C224.981 156.245 224.583 156.245 224.345 155.981L220.109 151.744C219.844 151.506 219.844 151.109 220.109 150.87C220.347 150.606 220.744 150.606 220.982 150.87L224.769 154.657L228.582 150.844C228.82 150.606 229.217 150.606 229.455 150.844C229.72 151.109 229.72 151.506 229.455 151.744L225.245 155.981Z" fill="#9CA3AF"/>
<rect x="250.23" y="138.262" width="104.366" height="30.5882" rx="7.7466" fill="#111827"/>
<path d="M263.927 148.02C264.591 148.02 265.167 148.117 265.655 148.312C266.143 148.506 266.521 148.811 266.787 149.227C267.058 149.638 267.194 150.158 267.194 150.786C267.194 151.396 267.079 151.922 266.848 152.365C266.622 152.803 266.34 153.167 266.001 153.456C265.667 153.741 265.237 154.046 264.713 154.371C264.596 154.444 264.476 154.516 264.354 154.588C264.227 154.67 264.11 154.744 264.001 154.812C263.599 155.06 263.303 155.266 263.113 155.429C262.928 155.587 262.79 155.768 262.7 155.971C262.614 156.174 262.573 156.434 262.578 156.751L262.28 156.418H267.404V158.072H260.714V156.418C260.714 155.908 260.834 155.454 261.073 155.056C261.317 154.658 261.622 154.315 261.988 154.026C262.354 153.732 262.863 153.386 263.513 152.989C263.92 152.74 264.232 152.53 264.449 152.358C264.67 152.186 264.853 151.976 264.998 151.728C265.147 151.479 265.221 151.179 265.221 150.826C265.221 150.402 265.118 150.09 264.91 149.891C264.706 149.692 264.385 149.593 263.947 149.593C263.653 149.593 263.407 149.642 263.208 149.742C263.014 149.837 262.858 149.999 262.741 150.23C262.623 150.46 262.542 150.77 262.497 151.158L260.68 150.975C260.657 150.338 260.77 149.801 261.019 149.362C261.267 148.919 261.638 148.585 262.131 148.359C262.628 148.133 263.226 148.02 263.927 148.02ZM276.17 153.124C276.17 154.263 276.03 155.214 275.75 155.978C275.47 156.737 275.058 157.304 274.516 157.679C273.974 158.054 273.312 158.242 272.53 158.242C271.748 158.242 271.086 158.054 270.544 157.679C270.002 157.304 269.588 156.737 269.304 155.978C269.023 155.214 268.883 154.263 268.883 153.124C268.883 151.936 269.023 150.964 269.304 150.209C269.584 149.45 269.993 148.892 270.53 148.535C271.068 148.178 271.735 148 272.53 148C273.321 148 273.985 148.178 274.523 148.535C275.061 148.892 275.47 149.45 275.75 150.209C276.03 150.964 276.17 151.936 276.17 153.124ZM274.109 153.124C274.109 152.261 274.057 151.585 273.953 151.097C273.85 150.609 273.685 150.261 273.459 150.054C273.233 149.841 272.923 149.735 272.53 149.735C272.137 149.735 271.825 149.841 271.595 150.054C271.369 150.261 271.204 150.609 271.1 151.097C270.996 151.585 270.944 152.261 270.944 153.124C270.944 153.983 270.996 154.656 271.1 155.144C271.204 155.632 271.369 155.982 271.595 156.195C271.825 156.403 272.137 156.506 272.53 156.506C272.923 156.506 273.233 156.403 273.459 156.195C273.685 155.982 273.85 155.632 273.953 155.144C274.057 154.656 274.109 153.983 274.109 153.124ZM272.523 154.222C272.781 154.222 272.977 154.132 273.113 153.951C273.249 153.766 273.316 153.506 273.316 153.172C273.316 152.946 273.285 152.756 273.221 152.602C273.163 152.444 273.075 152.324 272.957 152.243C272.84 152.162 272.695 152.121 272.523 152.121C272.266 152.121 272.069 152.211 271.934 152.392C271.802 152.573 271.737 152.833 271.737 153.172C271.737 153.393 271.766 153.583 271.825 153.741C271.888 153.895 271.976 154.014 272.089 154.1C272.207 154.182 272.352 154.222 272.523 154.222ZM280.74 148.02C281.404 148.02 281.981 148.117 282.469 148.312C282.957 148.506 283.334 148.811 283.601 149.227C283.872 149.638 284.007 150.158 284.007 150.786C284.007 151.396 283.892 151.922 283.662 152.365C283.436 152.803 283.153 153.167 282.814 153.456C282.48 153.741 282.051 154.046 281.526 154.371C281.409 154.444 281.289 154.516 281.167 154.588C281.041 154.67 280.923 154.744 280.815 154.812C280.412 155.06 280.116 155.266 279.927 155.429C279.741 155.587 279.604 155.768 279.513 155.971C279.427 156.174 279.387 156.434 279.391 156.751L279.093 156.418H284.217V158.072H277.527V156.418C277.527 155.908 277.647 155.454 277.886 155.056C278.13 154.658 278.435 154.315 278.802 154.026C279.168 153.732 279.676 153.386 280.327 152.989C280.733 152.74 281.045 152.53 281.262 152.358C281.483 152.186 281.666 151.976 281.811 151.728C281.96 151.479 282.035 151.179 282.035 150.826C282.035 150.402 281.931 150.09 281.723 149.891C281.52 149.692 281.199 149.593 280.76 149.593C280.467 149.593 280.22 149.642 280.022 149.742C279.827 149.837 279.671 149.999 279.554 150.23C279.436 150.46 279.355 150.77 279.31 151.158L277.493 150.975C277.471 150.338 277.584 149.801 277.832 149.362C278.081 148.919 278.451 148.585 278.944 148.359C279.441 148.133 280.04 148.02 280.74 148.02ZM292.983 153.124C292.983 154.263 292.843 155.214 292.563 155.978C292.283 156.737 291.872 157.304 291.329 157.679C290.787 158.054 290.125 158.242 289.343 158.242C288.562 158.242 287.9 158.054 287.357 157.679C286.815 157.304 286.402 156.737 286.117 155.978C285.837 155.214 285.697 154.263 285.697 153.124C285.697 151.936 285.837 150.964 286.117 150.209C286.397 149.45 286.806 148.892 287.344 148.535C287.881 148.178 288.548 148 289.343 148C290.134 148 290.798 148.178 291.336 148.535C291.874 148.892 292.283 149.45 292.563 150.209C292.843 150.964 292.983 151.936 292.983 153.124ZM290.923 153.124C290.923 152.261 290.871 151.585 290.767 151.097C290.663 150.609 290.498 150.261 290.272 150.054C290.046 149.841 289.736 149.735 289.343 149.735C288.95 149.735 288.638 149.841 288.408 150.054C288.182 150.261 288.017 150.609 287.913 151.097C287.809 151.585 287.757 152.261 287.757 153.124C287.757 153.983 287.809 154.656 287.913 155.144C288.017 155.632 288.182 155.982 288.408 156.195C288.638 156.403 288.95 156.506 289.343 156.506C289.736 156.506 290.046 156.403 290.272 156.195C290.498 155.982 290.663 155.632 290.767 155.144C290.871 154.656 290.923 153.983 290.923 153.124ZM289.337 154.222C289.594 154.222 289.791 154.132 289.926 153.951C290.062 153.766 290.13 153.506 290.13 153.172C290.13 152.946 290.098 152.756 290.035 152.602C289.976 152.444 289.888 152.324 289.77 152.243C289.653 152.162 289.508 152.121 289.337 152.121C289.079 152.121 288.882 152.211 288.747 152.392C288.616 152.573 288.55 152.833 288.55 153.172C288.55 153.393 288.58 153.583 288.638 153.741C288.702 153.895 288.79 154.014 288.903 154.1C289.02 154.182 289.165 154.222 289.337 154.222ZM295.574 152.717H299.912V154.371H295.574V152.717ZM303.269 149.742C303.513 149.742 303.775 149.676 304.055 149.545C304.34 149.41 304.595 149.222 304.821 148.983C305.047 148.743 305.194 148.474 305.262 148.176H306.665C306.651 148.691 306.475 149.233 306.136 149.803C305.802 150.368 305.375 150.838 304.855 151.213C304.335 151.588 303.807 151.775 303.269 151.775V149.742ZM305.262 158.072V148.176H307.268V158.072H305.262ZM303.059 156.418H309.444V158.072H303.059V156.418ZM314.367 148.02C315.031 148.02 315.607 148.117 316.095 148.312C316.583 148.506 316.96 148.811 317.227 149.227C317.498 149.638 317.634 150.158 317.634 150.786C317.634 151.396 317.519 151.922 317.288 152.365C317.062 152.803 316.78 153.167 316.441 153.456C316.106 153.741 315.677 154.046 315.153 154.371C315.035 154.444 314.916 154.516 314.794 154.588C314.667 154.67 314.55 154.744 314.441 154.812C314.039 155.06 313.743 155.266 313.553 155.429C313.368 155.587 313.23 155.768 313.14 155.971C313.054 156.174 313.013 156.434 313.018 156.751L312.72 156.418H317.844V158.072H311.154V156.418C311.154 155.908 311.274 155.454 311.513 155.056C311.757 154.658 312.062 154.315 312.428 154.026C312.794 153.732 313.302 153.386 313.953 152.989C314.36 152.74 314.672 152.53 314.889 152.358C315.11 152.186 315.293 151.976 315.438 151.728C315.587 151.479 315.661 151.179 315.661 150.826C315.661 150.402 315.557 150.09 315.35 149.891C315.146 149.692 314.825 149.593 314.387 149.593C314.093 149.593 313.847 149.642 313.648 149.742C313.454 149.837 313.298 149.999 313.18 150.23C313.063 150.46 312.982 150.77 312.936 151.158L311.12 150.975C311.097 150.338 311.21 149.801 311.459 149.362C311.707 148.919 312.078 148.585 312.57 148.359C313.067 148.133 313.666 148.02 314.367 148.02ZM320.794 152.717H325.132V154.371H320.794V152.717ZM335.016 153.124C335.016 154.263 334.876 155.214 334.596 155.978C334.316 156.737 333.905 157.304 333.363 157.679C332.82 158.054 332.158 158.242 331.377 158.242C330.595 158.242 329.933 158.054 329.39 157.679C328.848 157.304 328.435 156.737 328.15 155.978C327.87 155.214 327.73 154.263 327.73 153.124C327.73 151.936 327.87 150.964 328.15 150.209C328.43 149.45 328.839 148.892 329.377 148.535C329.915 148.178 330.581 148 331.377 148C332.167 148 332.832 148.178 333.369 148.535C333.907 148.892 334.316 149.45 334.596 150.209C334.876 150.964 335.016 151.936 335.016 153.124ZM332.956 153.124C332.956 152.261 332.904 151.585 332.8 151.097C332.696 150.609 332.531 150.261 332.305 150.054C332.079 149.841 331.77 149.735 331.377 149.735C330.983 149.735 330.672 149.841 330.441 150.054C330.215 150.261 330.05 150.609 329.946 151.097C329.842 151.585 329.79 152.261 329.79 153.124C329.79 153.983 329.842 154.656 329.946 155.144C330.05 155.632 330.215 155.982 330.441 156.195C330.672 156.403 330.983 156.506 331.377 156.506C331.77 156.506 332.079 156.403 332.305 156.195C332.531 155.982 332.696 155.632 332.8 155.144C332.904 154.656 332.956 153.983 332.956 153.124ZM331.37 154.222C331.627 154.222 331.824 154.132 331.959 153.951C332.095 153.766 332.163 153.506 332.163 153.172C332.163 152.946 332.131 152.756 332.068 152.602C332.009 152.444 331.921 152.324 331.804 152.243C331.686 152.162 331.541 152.121 331.37 152.121C331.112 152.121 330.916 152.211 330.78 152.392C330.649 152.573 330.583 152.833 330.583 153.172C330.583 153.393 330.613 153.583 330.672 153.741C330.735 153.895 330.823 154.014 330.936 154.1C331.053 154.182 331.198 154.222 331.37 154.222ZM336.896 149.742C337.14 149.742 337.402 149.676 337.682 149.545C337.967 149.41 338.222 149.222 338.448 148.983C338.674 148.743 338.821 148.474 338.888 148.176H340.292C340.278 148.691 340.102 149.233 339.763 149.803C339.428 150.368 339.001 150.838 338.482 151.213C337.962 151.588 337.433 151.775 336.896 151.775V149.742ZM338.888 158.072V148.176H340.895V158.072H338.888ZM336.686 156.418H343.071V158.072H336.686V156.418Z" fill="#4B5563"/>
</g>
<rect x="85.3623" y="40.176" width="33.3665" height="29" rx="7.7466" fill="#1F2937"/>
<path d="M105.266 52.3604L104.816 51.9103C103.148 50.2687 100.474 50.2687 98.8057 51.9103C97.1641 53.5784 97.1641 56.2526 98.8057 57.9207C100.474 59.5623 103.148 59.5623 104.816 57.9207C105.134 57.5765 105.663 57.5765 106.008 57.9207C106.325 58.2384 106.325 58.768 106.008 59.1122C103.678 61.4158 99.9443 61.4158 97.6142 59.1122C95.3107 56.7822 95.3107 53.0488 97.6142 50.7188C99.9443 48.4152 103.678 48.4152 106.008 50.7188L106.484 51.1954V49.8186C106.484 49.3684 106.855 48.9713 107.332 48.9713C107.782 48.9713 108.179 49.3684 108.179 49.8186V53.2077C108.179 53.6843 107.782 54.055 107.332 54.055H103.942C103.466 54.055 103.095 53.6843 103.095 53.2077C103.095 52.7576 103.466 52.3604 103.942 52.3604H105.266Z" fill="#9CA3AF"/>
<rect x="126.476" y="40.176" width="97.7963" height="28.5882" rx="7.7466" fill="#6366F1"/>
<path d="M141.906 57.986V49.226H143.478V57.986H141.906ZM146.724 54.506H142.842V53.252H146.724V54.506ZM142.722 50.528V49.226H147.474V50.528H142.722ZM151.399 57.986V52.508L151.669 52.892H149.311V51.656L152.743 51.512L152.923 51.686V57.986H151.399ZM149.311 56.744H155.005V57.986H149.311V56.744ZM151.903 50.438C151.699 50.438 151.519 50.4 151.363 50.324C151.207 50.244 151.085 50.132 150.997 49.988C150.913 49.84 150.871 49.67 150.871 49.478C150.871 49.186 150.965 48.956 151.153 48.788C151.345 48.616 151.595 48.53 151.903 48.53C152.215 48.53 152.465 48.616 152.653 48.788C152.845 48.956 152.941 49.186 152.941 49.478C152.941 49.77 152.845 50.004 152.653 50.18C152.465 50.352 152.215 50.438 151.903 50.438ZM156.753 56.744H162.453V57.986H156.753V56.744ZM158.841 57.986V49.652L159.111 50.042H156.759V48.806L160.191 48.656L160.371 48.836L160.365 57.986H158.841ZM169.672 51.656V52.898H163.912V51.656H165.982H166.156H169.672ZM168.226 58.148C167.558 58.148 167.034 58.072 166.654 57.92C166.274 57.764 165.996 57.49 165.82 57.098C165.644 56.706 165.556 56.142 165.556 55.406V49.85H167.08V55.394C167.08 55.782 167.122 56.078 167.206 56.282C167.294 56.486 167.432 56.628 167.62 56.708C167.808 56.788 168.072 56.828 168.412 56.828C168.82 56.828 169.288 56.764 169.816 56.636V57.938C169.584 58.006 169.334 58.058 169.066 58.094C168.798 58.13 168.518 58.148 168.226 58.148ZM171.36 54.812C171.36 54.096 171.494 53.492 171.762 53C172.034 52.504 172.414 52.132 172.902 51.884C173.39 51.636 173.96 51.512 174.612 51.512C175.22 51.512 175.738 51.62 176.166 51.836C176.594 52.048 176.918 52.368 177.138 52.796C177.362 53.224 177.474 53.758 177.474 54.398V54.998H172.554V54.068H176.256L175.986 54.308V54.068C175.986 53.62 175.858 53.282 175.602 53.054C175.35 52.822 175.004 52.706 174.564 52.706C174.044 52.706 173.638 52.878 173.346 53.222C173.054 53.566 172.908 54.096 172.908 54.812C172.908 55.504 173.048 56.03 173.328 56.39C173.612 56.75 174.02 56.93 174.552 56.93C174.888 56.93 175.176 56.86 175.416 56.72C175.66 56.576 175.846 56.36 175.974 56.072L177.456 56.288C177.308 56.712 177.088 57.062 176.796 57.338C176.508 57.61 176.172 57.81 175.788 57.938C175.408 58.066 174.996 58.13 174.552 58.13C173.916 58.13 173.358 58.004 172.878 57.752C172.398 57.5 172.024 57.126 171.756 56.63C171.492 56.134 171.36 55.528 171.36 54.812ZM181.963 52.82H182.053V57.98H180.523V52.628L180.793 52.898H179.029V51.656H181.855L181.963 52.82ZM184.945 53.03C184.437 53.03 184.013 53.046 183.673 53.078C183.333 53.11 183.011 53.176 182.707 53.276C182.407 53.372 182.099 53.516 181.783 53.708V52.592H182.137C182.445 52.22 182.763 51.948 183.091 51.776C183.423 51.604 183.835 51.518 184.327 51.518C184.555 51.518 184.761 51.538 184.945 51.578V53.03ZM179.029 56.744H184.039V57.986H179.029V56.744ZM189.41 51.512C189.986 51.512 190.474 51.584 190.874 51.728C191.274 51.868 191.576 52.08 191.78 52.364C191.984 52.648 192.08 52.996 192.068 53.408L190.688 53.516C190.66 53.208 190.534 52.98 190.31 52.832C190.086 52.68 189.752 52.604 189.308 52.604C188.904 52.604 188.592 52.664 188.372 52.784C188.152 52.9 188.042 53.072 188.042 53.3C188.042 53.44 188.088 53.558 188.18 53.654C188.276 53.746 188.416 53.826 188.6 53.894C188.784 53.962 189.062 54.042 189.434 54.134C189.566 54.166 189.698 54.198 189.83 54.23C190.394 54.358 190.836 54.49 191.156 54.626C191.476 54.758 191.73 54.942 191.918 55.178C192.106 55.41 192.2 55.718 192.2 56.102C192.2 56.518 192.088 56.878 191.864 57.182C191.64 57.486 191.306 57.72 190.862 57.884C190.422 58.048 189.886 58.13 189.254 58.13C188.658 58.13 188.16 58.064 187.76 57.932C187.364 57.8 187.048 57.592 186.812 57.308C186.576 57.02 186.416 56.642 186.332 56.174L187.73 56.012C187.798 56.284 187.904 56.494 188.048 56.642C188.192 56.79 188.364 56.892 188.564 56.948C188.768 57 189.024 57.026 189.332 57.026C189.64 57.026 189.892 56.994 190.088 56.93C190.288 56.862 190.434 56.772 190.526 56.66C190.618 56.544 190.664 56.418 190.664 56.282C190.664 56.122 190.602 55.992 190.478 55.892C190.354 55.792 190.174 55.706 189.938 55.634C189.706 55.562 189.328 55.466 188.804 55.346C188.32 55.242 187.916 55.112 187.592 54.956C187.272 54.8 187.024 54.598 186.848 54.35C186.672 54.098 186.584 53.788 186.584 53.42C186.584 52.816 186.82 52.348 187.292 52.016C187.768 51.68 188.474 51.512 189.41 51.512Z" fill="#F9FAFB"/>
<path d="M205.263 49.082C205.835 49.082 206.331 49.168 206.751 49.34C207.171 49.512 207.495 49.776 207.723 50.132C207.955 50.488 208.071 50.938 208.071 51.482C208.071 52.022 207.971 52.484 207.771 52.868C207.575 53.248 207.329 53.56 207.033 53.804C206.737 54.044 206.367 54.296 205.923 54.56C205.819 54.62 205.717 54.68 205.617 54.74C205.469 54.828 205.345 54.902 205.245 54.962C204.853 55.206 204.555 55.424 204.351 55.616C204.147 55.808 204.001 56.02 203.913 56.252C203.825 56.484 203.785 56.768 203.793 57.104L203.535 56.84H208.335V57.986H202.503V56.84C202.503 56.384 202.599 55.974 202.791 55.61C202.987 55.242 203.255 54.912 203.595 54.62C203.935 54.324 204.399 54.004 204.987 53.66C205.391 53.424 205.705 53.222 205.929 53.054C206.153 52.886 206.339 52.676 206.487 52.424C206.635 52.172 206.709 51.866 206.709 51.506C206.709 51.058 206.591 50.728 206.355 50.516C206.119 50.3 205.767 50.192 205.299 50.192C204.991 50.192 204.731 50.24 204.519 50.336C204.311 50.432 204.143 50.588 204.015 50.804C203.891 51.02 203.809 51.306 203.769 51.662L202.491 51.542C202.495 50.986 202.613 50.526 202.845 50.162C203.077 49.794 203.399 49.522 203.811 49.346C204.223 49.17 204.707 49.082 205.263 49.082Z" fill="#F9FAFB"/>
<rect x="232.019" y="40.176" width="89.7963" height="28.5882" rx="7.7466" fill="#1F2937"/>
<path d="M247.395 57.986V49.226H249.165V57.986H247.395ZM252.285 54.632H248.433V53.222H252.285V54.632ZM248.283 50.69V49.226H253.029V50.69H248.283ZM256.84 57.986V52.574L257.11 52.976H254.806V51.578L258.364 51.422L258.568 51.614V57.986H256.84ZM254.806 56.582H260.596V57.986H254.806V56.582ZM257.434 50.516C257.21 50.516 257.012 50.474 256.84 50.39C256.668 50.302 256.534 50.178 256.438 50.018C256.342 49.858 256.294 49.674 256.294 49.466C256.294 49.15 256.398 48.898 256.606 48.71C256.814 48.522 257.09 48.428 257.434 48.428C257.774 48.428 258.048 48.522 258.256 48.71C258.464 48.898 258.568 49.15 258.568 49.466C258.568 49.786 258.464 50.042 258.256 50.234C258.048 50.422 257.774 50.516 257.434 50.516ZM261.954 54.764C261.954 54.032 262.092 53.418 262.368 52.922C262.648 52.422 263.036 52.05 263.532 51.806C264.032 51.558 264.612 51.434 265.272 51.434C265.888 51.434 266.414 51.542 266.85 51.758C267.286 51.974 267.616 52.304 267.84 52.748C268.068 53.188 268.182 53.738 268.182 54.398V55.022H263.322V54.014H266.754L266.502 54.236V54.002C266.502 53.594 266.388 53.286 266.16 53.078C265.932 52.866 265.618 52.76 265.218 52.76C264.742 52.76 264.368 52.92 264.096 53.24C263.828 53.56 263.694 54.068 263.694 54.764C263.694 55.428 263.822 55.934 264.078 56.282C264.334 56.626 264.708 56.798 265.2 56.798C265.5 56.798 265.76 56.734 265.98 56.606C266.2 56.478 266.372 56.282 266.496 56.018L268.17 56.252C268.018 56.696 267.79 57.058 267.486 57.338C267.182 57.618 266.834 57.82 266.442 57.944C266.054 58.068 265.638 58.13 265.194 58.13C264.55 58.13 263.984 58.004 263.496 57.752C263.012 57.496 262.634 57.116 262.362 56.612C262.09 56.108 261.954 55.492 261.954 54.764ZM269.689 56.582H275.485V57.986H269.689V56.582ZM271.723 57.986L271.729 49.808L271.999 50.204H269.695V48.806L273.253 48.65L273.451 48.842V57.986H271.723ZM281.175 48.806H282.897V57.986H281.391L281.253 56.834H281.175V48.806ZM276.837 54.806C276.837 54.146 276.923 53.564 277.095 53.06C277.271 52.556 277.539 52.16 277.899 51.872C278.263 51.584 278.717 51.44 279.261 51.44C279.693 51.44 280.063 51.526 280.371 51.698C280.679 51.87 280.917 52.092 281.085 52.364H281.433V53.324C281.217 53.168 280.987 53.052 280.743 52.976C280.503 52.9 280.265 52.862 280.029 52.862C279.701 52.862 279.431 52.932 279.219 53.072C279.007 53.208 278.847 53.42 278.739 53.708C278.631 53.992 278.577 54.358 278.577 54.806C278.577 55.254 278.629 55.618 278.733 55.898C278.841 56.174 279.001 56.38 279.213 56.516C279.425 56.648 279.695 56.714 280.023 56.714C280.267 56.714 280.509 56.676 280.749 56.6C280.993 56.524 281.221 56.408 281.433 56.252V57.218H281.091C280.883 57.49 280.623 57.712 280.311 57.884C280.003 58.056 279.637 58.142 279.213 58.142C278.677 58.142 278.233 58 277.881 57.716C277.529 57.432 277.267 57.042 277.095 56.546C276.923 56.046 276.837 55.466 276.837 54.806ZM287.518 51.434C288.11 51.434 288.61 51.508 289.018 51.656C289.426 51.8 289.73 52.016 289.93 52.304C290.134 52.588 290.226 52.938 290.206 53.354L288.652 53.474C288.624 53.194 288.512 52.986 288.316 52.85C288.12 52.71 287.818 52.64 287.41 52.64C287.042 52.64 286.758 52.694 286.558 52.802C286.362 52.906 286.264 53.058 286.264 53.258C286.264 53.39 286.31 53.5 286.402 53.588C286.498 53.672 286.634 53.746 286.81 53.81C286.99 53.87 287.264 53.948 287.632 54.044C287.764 54.072 287.892 54.102 288.016 54.134C288.56 54.27 288.988 54.404 289.3 54.536C289.616 54.664 289.872 54.85 290.068 55.094C290.264 55.334 290.362 55.654 290.362 56.054C290.362 56.486 290.244 56.858 290.008 57.17C289.776 57.478 289.432 57.716 288.976 57.884C288.52 58.048 287.964 58.13 287.308 58.13C286.712 58.13 286.214 58.064 285.814 57.932C285.418 57.796 285.104 57.584 284.872 57.296C284.644 57.008 284.488 56.628 284.404 56.156L285.976 55.988C286.036 56.228 286.126 56.416 286.246 56.552C286.366 56.684 286.518 56.778 286.702 56.834C286.886 56.89 287.12 56.918 287.404 56.918C287.688 56.918 287.92 56.888 288.1 56.828C288.284 56.768 288.416 56.69 288.496 56.594C288.58 56.494 288.622 56.382 288.622 56.258C288.622 56.11 288.56 55.99 288.436 55.898C288.316 55.802 288.146 55.722 287.926 55.658C287.706 55.59 287.342 55.496 286.834 55.376C286.366 55.268 285.972 55.134 285.652 54.974C285.332 54.814 285.082 54.606 284.902 54.35C284.722 54.09 284.632 53.77 284.632 53.39C284.632 52.766 284.874 52.284 285.358 51.944C285.846 51.604 286.566 51.434 287.518 51.434Z" fill="#9CA3AF"/>
<path d="M303.784 57.986V50.372L304.156 50.432L300.982 54.896L300.67 54.614H304.222L304.486 54.554H306.094V55.694H299.86V54.554L303.694 49.226H305.116V57.986H303.784Z" fill="#9CA3AF"/>
<rect x="329.562" y="40.176" width="149.796" height="28.5882" rx="7.7466" fill="#1F2937"/>
<path d="M349.306 51.818C349.27 51.486 349.196 51.224 349.084 51.032C348.972 50.836 348.82 50.696 348.628 50.612C348.436 50.524 348.194 50.48 347.902 50.48C347.478 50.48 347.162 50.562 346.954 50.726C346.746 50.886 346.642 51.114 346.642 51.41C346.642 51.654 346.708 51.854 346.84 52.01C346.976 52.162 347.154 52.29 347.374 52.394C347.594 52.494 347.908 52.61 348.316 52.742C348.936 52.954 349.436 53.164 349.816 53.372C350.196 53.58 350.496 53.848 350.716 54.176C350.936 54.504 351.046 54.918 351.046 55.418C351.046 55.99 350.906 56.48 350.626 56.888C350.346 57.296 349.956 57.606 349.456 57.818C348.96 58.03 348.39 58.136 347.746 58.136C347.122 58.136 346.584 58.044 346.132 57.86C345.684 57.676 345.324 57.388 345.052 56.996C344.784 56.604 344.622 56.102 344.566 55.49L346.258 55.238C346.338 55.734 346.504 56.1 346.756 56.336C347.008 56.572 347.378 56.69 347.866 56.69C348.334 56.69 348.674 56.596 348.886 56.408C349.098 56.22 349.204 55.972 349.204 55.664C349.204 55.444 349.144 55.262 349.024 55.118C348.908 54.974 348.73 54.844 348.49 54.728C348.25 54.612 347.882 54.464 347.386 54.284C346.882 54.104 346.448 53.902 346.084 53.678C345.724 53.45 345.436 53.164 345.22 52.82C345.004 52.472 344.896 52.056 344.896 51.572C344.896 51.04 345.018 50.59 345.262 50.222C345.506 49.85 345.86 49.568 346.324 49.376C346.788 49.184 347.35 49.088 348.01 49.088C348.946 49.088 349.67 49.302 350.182 49.73C350.694 50.154 350.954 50.794 350.962 51.65L349.306 51.818ZM352.379 57.986V48.806H354.101V57.986H352.379ZM356.393 57.986V53.72C356.393 53.492 356.359 53.31 356.291 53.174C356.227 53.038 356.133 52.942 356.009 52.886C355.889 52.83 355.743 52.802 355.571 52.802C355.255 52.802 354.955 52.884 354.671 53.048C354.387 53.212 354.113 53.44 353.849 53.732V52.538H354.293C354.521 52.286 354.737 52.082 354.941 51.926C355.145 51.77 355.369 51.65 355.613 51.566C355.857 51.478 356.133 51.434 356.441 51.434C356.813 51.434 357.123 51.498 357.371 51.626C357.619 51.754 357.805 51.954 357.929 52.226C358.053 52.494 358.115 52.844 358.115 53.276V57.986H356.393ZM365.881 54.812C365.881 55.56 365.739 56.184 365.455 56.684C365.175 57.18 364.795 57.546 364.315 57.782C363.835 58.014 363.293 58.13 362.689 58.13C362.085 58.13 361.543 58.014 361.063 57.782C360.587 57.546 360.207 57.18 359.923 56.684C359.639 56.184 359.497 55.56 359.497 54.812C359.497 54.06 359.639 53.432 359.923 52.928C360.207 52.42 360.589 52.044 361.069 51.8C361.549 51.556 362.089 51.434 362.689 51.434C363.289 51.434 363.829 51.556 364.309 51.8C364.793 52.044 365.175 52.42 365.455 52.928C365.739 53.432 365.881 54.06 365.881 54.812ZM364.141 54.806C364.141 54.314 364.079 53.918 363.955 53.618C363.831 53.314 363.661 53.096 363.445 52.964C363.233 52.828 362.981 52.76 362.689 52.76C362.397 52.76 362.143 52.828 361.927 52.964C361.711 53.096 361.541 53.314 361.417 53.618C361.297 53.918 361.237 54.314 361.237 54.806C361.237 55.294 361.297 55.686 361.417 55.982C361.541 56.278 361.709 56.488 361.921 56.612C362.137 56.736 362.393 56.798 362.689 56.798C362.985 56.798 363.239 56.736 363.451 56.612C363.663 56.488 363.831 56.278 363.955 55.982C364.079 55.686 364.141 55.294 364.141 54.806ZM368.294 51.578L369.062 55.418H369.146L370.172 52.298H371.216L372.086 55.418H372.194L372.98 51.578H374.564L373.1 57.986H371.708L370.628 54.422H370.556L369.404 57.986H368.108L366.656 51.578H368.294ZM377.218 57.986V52.574L377.488 52.976H375.682V51.578L378.742 51.422L378.94 51.614V57.986H377.218ZM375.682 56.582H380.464V57.986H375.682V56.582ZM377.824 50.576C377.6 50.576 377.402 50.534 377.23 50.45C377.058 50.362 376.924 50.238 376.828 50.078C376.732 49.918 376.684 49.734 376.684 49.526C376.684 49.21 376.788 48.958 376.996 48.77C377.204 48.582 377.48 48.488 377.824 48.488C378.164 48.488 378.438 48.582 378.646 48.77C378.854 48.958 378.958 49.21 378.958 49.526C378.958 49.846 378.854 50.102 378.646 50.294C378.438 50.482 378.164 50.576 377.824 50.576ZM383.867 57.986H382.145V51.578H383.651L383.765 52.736H383.867V57.986ZM386.159 57.986V53.72C386.159 53.492 386.125 53.31 386.057 53.174C385.993 53.038 385.899 52.942 385.775 52.886C385.655 52.83 385.509 52.802 385.337 52.802C385.017 52.802 384.715 52.884 384.431 53.048C384.151 53.212 383.877 53.44 383.609 53.732V52.538H383.957C384.293 52.17 384.635 51.894 384.983 51.71C385.335 51.526 385.741 51.434 386.201 51.434C386.573 51.434 386.883 51.498 387.131 51.626C387.379 51.754 387.565 51.954 387.689 52.226C387.817 52.494 387.881 52.844 387.881 53.276V57.986H386.159ZM389.262 54.416C389.262 53.832 389.356 53.316 389.544 52.868C389.732 52.42 390.006 52.07 390.366 51.818C390.726 51.566 391.158 51.44 391.662 51.44C391.954 51.44 392.22 51.482 392.46 51.566C392.7 51.646 392.908 51.756 393.084 51.896C393.26 52.032 393.402 52.188 393.51 52.364H393.858V53.324C393.642 53.168 393.412 53.052 393.168 52.976C392.928 52.9 392.69 52.862 392.454 52.862C392.146 52.862 391.884 52.922 391.668 53.042C391.452 53.162 391.286 53.338 391.17 53.57C391.058 53.802 391.002 54.084 391.002 54.416C391.002 54.744 391.058 55.022 391.17 55.25C391.282 55.474 391.446 55.644 391.662 55.76C391.878 55.876 392.14 55.934 392.448 55.934C392.692 55.934 392.934 55.896 393.174 55.82C393.418 55.744 393.646 55.628 393.858 55.472V56.438H393.516C393.308 56.71 393.044 56.932 392.724 57.104C392.408 57.276 392.038 57.362 391.614 57.362C391.122 57.362 390.698 57.238 390.342 56.99C389.99 56.742 389.722 56.398 389.538 55.958C389.354 55.514 389.262 55 389.262 54.416ZM395.322 57.614C395.322 58.25 395.212 58.766 394.992 59.162C394.776 59.562 394.448 59.856 394.008 60.044C393.572 60.236 393.016 60.332 392.34 60.332C391.724 60.332 391.216 60.258 390.816 60.11C390.42 59.966 390.118 59.766 389.91 59.51C389.706 59.258 389.56 58.956 389.472 58.604L391.044 58.286C391.164 58.578 391.322 58.796 391.518 58.94C391.718 59.084 391.992 59.156 392.34 59.156C392.74 59.156 393.05 59.05 393.27 58.838C393.49 58.63 393.6 58.286 393.6 57.806V52.682H393.702L393.816 51.578H395.322V57.614Z" fill="#9CA3AF"/>
<path d="M411.103 49.226V50.528H407.083L407.449 50.084L407.071 53.084L406.927 53.018C407.179 52.814 407.465 52.654 407.785 52.538C408.109 52.422 408.477 52.364 408.889 52.364C409.445 52.364 409.921 52.474 410.317 52.694C410.713 52.91 411.015 53.228 411.223 53.648C411.431 54.068 411.535 54.576 411.535 55.172C411.535 55.828 411.409 56.376 411.157 56.816C410.905 57.252 410.543 57.578 410.071 57.794C409.603 58.01 409.039 58.118 408.379 58.118C407.771 58.118 407.247 58.024 406.807 57.836C406.367 57.644 406.027 57.356 405.787 56.972C405.547 56.584 405.423 56.104 405.415 55.532L406.903 55.388C406.927 55.704 407.005 55.972 407.137 56.192C407.269 56.408 407.445 56.572 407.665 56.684C407.885 56.792 408.147 56.846 408.451 56.846C408.771 56.846 409.045 56.786 409.273 56.666C409.501 56.546 409.675 56.36 409.795 56.108C409.919 55.856 409.981 55.534 409.981 55.142C409.981 54.766 409.921 54.448 409.801 54.188C409.681 53.928 409.509 53.732 409.285 53.6C409.065 53.468 408.803 53.402 408.499 53.402C408.171 53.402 407.879 53.47 407.623 53.606C407.367 53.738 407.147 53.91 406.963 54.122L405.613 53.918L406.165 49.226H411.103ZM426.562 54.848C426.562 55.58 426.424 56.192 426.148 56.684C425.872 57.176 425.498 57.54 425.026 57.776C424.558 58.012 424.028 58.13 423.436 58.13C422.844 58.13 422.312 58.012 421.84 57.776C421.372 57.54 421 57.176 420.724 56.684C420.448 56.188 420.31 55.576 420.31 54.848C420.31 54.112 420.448 53.496 420.724 53C421 52.5 421.374 52.128 421.846 51.884C422.318 51.636 422.848 51.512 423.436 51.512C424.024 51.512 424.554 51.636 425.026 51.884C425.498 52.128 425.872 52.5 426.148 53C426.424 53.496 426.562 54.112 426.562 54.848ZM425.014 54.842C425.014 54.346 424.948 53.94 424.816 53.624C424.684 53.308 424.5 53.078 424.264 52.934C424.032 52.786 423.756 52.712 423.436 52.712C423.116 52.712 422.838 52.786 422.602 52.934C422.37 53.078 422.188 53.308 422.056 53.624C421.924 53.94 421.858 54.346 421.858 54.842C421.858 55.338 421.924 55.742 422.056 56.054C422.188 56.362 422.37 56.586 422.602 56.726C422.838 56.862 423.116 56.93 423.436 56.93C423.756 56.93 424.032 56.862 424.264 56.726C424.5 56.586 424.684 56.362 424.816 56.054C424.948 55.742 425.014 55.338 425.014 54.842ZM433.949 49.784C433.697 49.728 433.461 49.686 433.241 49.658C433.025 49.626 432.805 49.61 432.581 49.61C432.221 49.61 431.939 49.654 431.735 49.742C431.531 49.83 431.381 49.982 431.285 50.198C431.189 50.414 431.141 50.722 431.141 51.122V57.986H429.611V51.434C429.611 50.682 429.717 50.076 429.929 49.616C430.141 49.156 430.459 48.822 430.883 48.614C431.311 48.402 431.853 48.296 432.509 48.296C432.773 48.296 433.023 48.312 433.259 48.344C433.499 48.372 433.729 48.418 433.949 48.482V49.784ZM428.111 56.744H433.127V57.986H428.111V56.744ZM433.751 52.898H427.745V51.656H433.751V52.898ZM445.664 49.088C446.276 49.088 446.796 49.178 447.224 49.358C447.656 49.534 447.984 49.796 448.208 50.144C448.432 50.488 448.544 50.906 448.544 51.398C448.544 51.91 448.424 52.33 448.184 52.658C447.944 52.982 447.642 53.22 447.278 53.372C446.914 53.524 446.534 53.614 446.138 53.642V53.378C446.606 53.402 447.03 53.478 447.41 53.606C447.794 53.734 448.112 53.96 448.364 54.284C448.616 54.604 448.742 55.044 448.742 55.604C448.742 56.148 448.616 56.61 448.364 56.99C448.116 57.366 447.762 57.65 447.302 57.842C446.846 58.034 446.306 58.13 445.682 58.13C445.038 58.13 444.49 58.038 444.038 57.854C443.586 57.67 443.238 57.386 442.994 57.002C442.754 56.614 442.63 56.124 442.622 55.532L444.068 55.388C444.116 55.716 444.202 55.988 444.326 56.204C444.45 56.416 444.622 56.576 444.842 56.684C445.062 56.792 445.336 56.846 445.664 56.846C446.18 56.846 446.556 56.728 446.792 56.492C447.028 56.252 447.146 55.942 447.146 55.562C447.146 55.222 447.058 54.95 446.882 54.746C446.706 54.538 446.46 54.388 446.144 54.296C445.832 54.204 445.454 54.158 445.01 54.158H444.86V53H445.016C445.436 53 445.796 52.942 446.096 52.826C446.4 52.71 446.63 52.544 446.786 52.328C446.946 52.108 447.026 51.848 447.026 51.548C447.026 51.292 446.974 51.074 446.87 50.894C446.766 50.714 446.614 50.576 446.414 50.48C446.214 50.384 445.974 50.336 445.694 50.336C445.414 50.336 445.172 50.386 444.968 50.486C444.768 50.582 444.604 50.734 444.476 50.942C444.352 51.146 444.27 51.41 444.23 51.734L442.832 51.59C442.832 51.018 442.946 50.546 443.174 50.174C443.402 49.802 443.726 49.528 444.146 49.352C444.566 49.176 445.072 49.088 445.664 49.088ZM453.345 49.088C453.889 49.088 454.361 49.176 454.761 49.352C455.161 49.524 455.477 49.786 455.709 50.138C455.945 50.49 456.079 50.934 456.111 51.47L454.665 51.614C454.617 51.326 454.541 51.09 454.437 50.906C454.337 50.722 454.197 50.582 454.017 50.486C453.837 50.386 453.613 50.336 453.345 50.336C452.997 50.336 452.703 50.43 452.463 50.618C452.223 50.806 452.035 51.138 451.899 51.614C451.763 52.086 451.695 52.74 451.695 53.576C451.695 54.4 451.753 55.05 451.869 55.526C451.985 56.002 452.155 56.342 452.379 56.546C452.607 56.746 452.899 56.846 453.255 56.846C453.555 56.846 453.815 56.784 454.035 56.66C454.259 56.532 454.431 56.346 454.551 56.102C454.671 55.854 454.731 55.56 454.731 55.22C454.731 54.744 454.615 54.376 454.383 54.116C454.155 53.852 453.823 53.72 453.387 53.72C453.067 53.72 452.761 53.788 452.469 53.924C452.177 54.06 451.915 54.232 451.683 54.44C451.455 54.644 451.253 54.864 451.077 55.1L450.945 54.278C451.221 53.858 451.587 53.482 452.043 53.15C452.503 52.814 453.103 52.646 453.843 52.646C454.347 52.646 454.781 52.738 455.145 52.922C455.509 53.102 455.789 53.384 455.985 53.768C456.185 54.148 456.285 54.632 456.285 55.22C456.285 55.86 456.165 56.396 455.925 56.828C455.689 57.256 455.347 57.578 454.899 57.794C454.451 58.01 453.907 58.118 453.267 58.118C452.591 58.118 452.019 57.978 451.551 57.698C451.087 57.418 450.723 56.944 450.459 56.276C450.199 55.604 450.069 54.702 450.069 53.57C450.069 52.47 450.205 51.59 450.477 50.93C450.753 50.266 451.131 49.794 451.611 49.514C452.095 49.23 452.673 49.088 453.345 49.088ZM460.457 49.088C461.037 49.088 461.539 49.174 461.963 49.346C462.391 49.518 462.721 49.784 462.953 50.144C463.189 50.504 463.307 50.96 463.307 51.512C463.307 52.052 463.207 52.514 463.007 52.898C462.807 53.282 462.557 53.6 462.257 53.852C461.961 54.1 461.587 54.362 461.135 54.638C461.031 54.698 460.927 54.76 460.823 54.824C460.691 54.9 460.577 54.97 460.481 55.034C460.105 55.266 459.825 55.466 459.641 55.634C459.457 55.798 459.323 55.984 459.239 56.192C459.155 56.396 459.117 56.652 459.125 56.96L458.861 56.684H463.529V57.986H457.655V56.684C457.655 56.228 457.757 55.822 457.961 55.466C458.165 55.106 458.433 54.788 458.765 54.512C459.097 54.236 459.553 53.922 460.133 53.57C460.517 53.346 460.813 53.154 461.021 52.994C461.229 52.834 461.403 52.636 461.543 52.4C461.683 52.164 461.753 51.878 461.753 51.542C461.753 51.13 461.647 50.826 461.435 50.63C461.227 50.434 460.909 50.336 460.481 50.336C460.197 50.336 459.959 50.382 459.767 50.474C459.579 50.566 459.427 50.718 459.311 50.93C459.195 51.138 459.117 51.416 459.077 51.764L457.637 51.62C457.625 51.064 457.731 50.596 457.955 50.216C458.183 49.836 458.509 49.554 458.933 49.37C459.361 49.182 459.869 49.088 460.457 49.088Z" fill="#9CA3AF"/>
<rect x="487.104" y="40.176" width="104.05" height="28.5882" rx="7.7466" fill="#030712"/>
<path d="M507.185 57.986L505.337 51.428H505.253L503.435 57.986H501.845L504.497 49.226H506.177L508.853 57.986H507.185ZM503.315 54.734H507.485V55.88H503.315V54.734ZM514.038 48.806H515.568V57.986H514.236L514.104 56.846H514.038V48.806ZM509.664 54.842C509.664 54.178 509.754 53.598 509.934 53.102C510.114 52.606 510.386 52.22 510.75 51.944C511.114 51.664 511.562 51.524 512.094 51.524C512.526 51.524 512.898 51.61 513.21 51.782C513.522 51.95 513.77 52.174 513.954 52.454H514.272V53.402C514.036 53.19 513.79 53.036 513.534 52.94C513.278 52.84 513.018 52.79 512.754 52.79C512.414 52.79 512.13 52.864 511.902 53.012C511.674 53.16 511.502 53.386 511.386 53.69C511.27 53.994 511.212 54.378 511.212 54.842C511.212 55.306 511.268 55.688 511.38 55.988C511.496 56.284 511.666 56.504 511.89 56.648C512.118 56.792 512.404 56.864 512.748 56.864C513.016 56.864 513.278 56.816 513.534 56.72C513.79 56.62 514.036 56.464 514.272 56.252V57.2H513.96C513.74 57.484 513.472 57.712 513.156 57.884C512.84 58.052 512.47 58.136 512.046 58.136C511.522 58.136 511.082 57.998 510.726 57.722C510.37 57.446 510.104 57.062 509.928 56.57C509.752 56.078 509.664 55.502 509.664 54.842ZM521.48 48.806H523.01V57.986H521.678L521.546 56.846H521.48V48.806ZM517.106 54.842C517.106 54.178 517.196 53.598 517.376 53.102C517.556 52.606 517.828 52.22 518.192 51.944C518.556 51.664 519.004 51.524 519.536 51.524C519.968 51.524 520.34 51.61 520.652 51.782C520.964 51.95 521.212 52.174 521.396 52.454H521.714V53.402C521.478 53.19 521.232 53.036 520.976 52.94C520.72 52.84 520.46 52.79 520.196 52.79C519.856 52.79 519.572 52.864 519.344 53.012C519.116 53.16 518.944 53.386 518.828 53.69C518.712 53.994 518.654 54.378 518.654 54.842C518.654 55.306 518.71 55.688 518.822 55.988C518.938 56.284 519.108 56.504 519.332 56.648C519.56 56.792 519.846 56.864 520.19 56.864C520.458 56.864 520.72 56.816 520.976 56.72C521.232 56.62 521.478 56.464 521.714 56.252V57.2H521.402C521.182 57.484 520.914 57.712 520.598 57.884C520.282 58.052 519.912 58.136 519.488 58.136C518.964 58.136 518.524 57.998 518.168 57.722C517.812 57.446 517.546 57.062 517.37 56.57C517.194 56.078 517.106 55.502 517.106 54.842ZM535.151 52.82H535.241V57.98H533.711V52.628L533.981 52.898H532.217V51.656H535.043L535.151 52.82ZM538.133 53.03C537.625 53.03 537.201 53.046 536.861 53.078C536.521 53.11 536.199 53.176 535.895 53.276C535.595 53.372 535.287 53.516 534.971 53.708V52.592H535.325C535.633 52.22 535.951 51.948 536.279 51.776C536.611 51.604 537.023 51.518 537.515 51.518C537.743 51.518 537.949 51.538 538.133 51.578V53.03ZM532.217 56.744H537.227V57.986H532.217V56.744ZM539.43 54.812C539.43 54.096 539.564 53.492 539.832 53C540.104 52.504 540.484 52.132 540.972 51.884C541.46 51.636 542.03 51.512 542.682 51.512C543.29 51.512 543.808 51.62 544.236 51.836C544.664 52.048 544.988 52.368 545.208 52.796C545.432 53.224 545.544 53.758 545.544 54.398V54.998H540.624V54.068H544.326L544.056 54.308V54.068C544.056 53.62 543.928 53.282 543.672 53.054C543.42 52.822 543.074 52.706 542.634 52.706C542.114 52.706 541.708 52.878 541.416 53.222C541.124 53.566 540.978 54.096 540.978 54.812C540.978 55.504 541.118 56.03 541.398 56.39C541.682 56.75 542.09 56.93 542.622 56.93C542.958 56.93 543.246 56.86 543.486 56.72C543.73 56.576 543.916 56.36 544.044 56.072L545.526 56.288C545.378 56.712 545.158 57.062 544.866 57.338C544.578 57.61 544.242 57.81 543.858 57.938C543.478 58.066 543.066 58.13 542.622 58.13C541.986 58.13 541.428 58.004 540.948 57.752C540.468 57.5 540.094 57.126 539.826 56.63C539.562 56.134 539.43 55.528 539.43 54.812ZM553.033 56.006C552.917 56.494 552.711 56.898 552.415 57.218C552.123 57.534 551.773 57.766 551.365 57.914C550.957 58.058 550.511 58.13 550.027 58.13C549.387 58.13 548.829 58.004 548.353 57.752C547.881 57.5 547.515 57.128 547.255 56.636C546.999 56.14 546.871 55.536 546.871 54.824C546.871 54.084 547.009 53.468 547.285 52.976C547.561 52.48 547.941 52.112 548.425 51.872C548.913 51.632 549.473 51.512 550.105 51.512C550.645 51.512 551.127 51.598 551.551 51.77C551.975 51.942 552.315 52.2 552.571 52.544C552.831 52.888 552.983 53.314 553.027 53.822L551.545 53.948C551.477 53.544 551.315 53.238 551.059 53.03C550.807 52.818 550.473 52.712 550.057 52.712C549.521 52.712 549.113 52.892 548.833 53.252C548.557 53.608 548.419 54.132 548.419 54.824C548.419 55.292 548.483 55.684 548.611 56C548.739 56.312 548.925 56.546 549.169 56.702C549.413 56.854 549.707 56.93 550.051 56.93C550.443 56.93 550.763 56.834 551.011 56.642C551.263 56.45 551.447 56.172 551.563 55.808L553.033 56.006ZM560.565 54.848C560.565 55.58 560.427 56.192 560.151 56.684C559.875 57.176 559.501 57.54 559.029 57.776C558.561 58.012 558.031 58.13 557.439 58.13C556.847 58.13 556.315 58.012 555.843 57.776C555.375 57.54 555.003 57.176 554.727 56.684C554.451 56.188 554.313 55.576 554.313 54.848C554.313 54.112 554.451 53.496 554.727 53C555.003 52.5 555.377 52.128 555.849 51.884C556.321 51.636 556.851 51.512 557.439 51.512C558.027 51.512 558.557 51.636 559.029 51.884C559.501 52.128 559.875 52.5 560.151 53C560.427 53.496 560.565 54.112 560.565 54.848ZM559.017 54.842C559.017 54.346 558.951 53.94 558.819 53.624C558.687 53.308 558.503 53.078 558.267 52.934C558.035 52.786 557.759 52.712 557.439 52.712C557.119 52.712 556.841 52.786 556.605 52.934C556.373 53.078 556.191 53.308 556.059 53.624C555.927 53.94 555.861 54.346 555.861 54.842C555.861 55.338 555.927 55.742 556.059 56.054C556.191 56.362 556.373 56.586 556.605 56.726C556.841 56.862 557.119 56.93 557.439 56.93C557.759 56.93 558.035 56.862 558.267 56.726C558.503 56.586 558.687 56.362 558.819 56.054C558.951 55.742 559.017 55.338 559.017 54.842ZM564.916 52.82H565.006V57.98H563.476V52.628L563.746 52.898H561.982V51.656H564.808L564.916 52.82ZM567.898 53.03C567.39 53.03 566.966 53.046 566.626 53.078C566.286 53.11 565.964 53.176 565.66 53.276C565.36 53.372 565.052 53.516 564.736 53.708V52.592H565.09C565.398 52.22 565.716 51.948 566.044 51.776C566.376 51.604 566.788 51.518 567.28 51.518C567.508 51.518 567.714 51.538 567.898 51.578V53.03ZM561.982 56.744H566.992V57.986H561.982V56.744ZM573.57 48.806H575.1V57.986H573.768L573.636 56.846H573.57V48.806ZM569.196 54.842C569.196 54.178 569.286 53.598 569.466 53.102C569.646 52.606 569.918 52.22 570.282 51.944C570.646 51.664 571.094 51.524 571.626 51.524C572.058 51.524 572.43 51.61 572.742 51.782C573.054 51.95 573.302 52.174 573.486 52.454H573.804V53.402C573.568 53.19 573.322 53.036 573.066 52.94C572.81 52.84 572.55 52.79 572.286 52.79C571.946 52.79 571.662 52.864 571.434 53.012C571.206 53.16 571.034 53.386 570.918 53.69C570.802 53.994 570.744 54.378 570.744 54.842C570.744 55.306 570.8 55.688 570.912 55.988C571.028 56.284 571.198 56.504 571.422 56.648C571.65 56.792 571.936 56.864 572.28 56.864C572.548 56.864 572.81 56.816 573.066 56.72C573.322 56.62 573.568 56.464 573.804 56.252V57.2H573.492C573.272 57.484 573.004 57.712 572.688 57.884C572.372 58.052 572.002 58.136 571.578 58.136C571.054 58.136 570.614 57.998 570.258 57.722C569.902 57.446 569.636 57.062 569.46 56.57C569.284 56.078 569.196 55.502 569.196 54.842Z" fill="#9CA3AF"/>
</g>
<defs>
<filter id="filter0_dddddd_8003_7439" x="-0.000228882" y="-17.4298" width="624.62" height="287.29" filterUnits="userSpaceOnUse" color-interpolation-filters="sRGB">
<feFlood flood-opacity="0" result="BackgroundImageFix"/>
<feColorMatrix in="SourceAlpha" type="matrix" values="0 0 0 0 0 0 0 0 0 0 0 0 0 0 0 0 0 0 127 0" result="hardAlpha"/>
<feOffset dy="0.241164"/>
<feGaussianBlur stdDeviation="0.361747"/>
<feColorMatrix type="matrix" values="0 0 0 0 0 0 0 0 0 0.0745098 0 0 0 0 0.207843 0 0 0 0.0168687 0"/>
<feBlend mode="normal" in2="BackgroundImageFix" result="effect1_dropShadow_8003_7439"/>
<feColorMatrix in="SourceAlpha" type="matrix" values="0 0 0 0 0 0 0 0 0 0 0 0 0 0 0 0 0 0 127 0" result="hardAlpha"/>
<feOffset dy="0.579551"/>
<feGaussianBlur stdDeviation="0.869327"/>
<feColorMatrix type="matrix" values="0 0 0 0 0 0 0 0 0 0.0745098 0 0 0 0 0.207843 0 0 0 0.0242336 0"/>
<feBlend mode="normal" in2="effect1_dropShadow_8003_7439" result="effect2_dropShadow_8003_7439"/>
<feColorMatrix in="SourceAlpha" type="matrix" values="0 0 0 0 0 0 0 0 0 0 0 0 0 0 0 0 0 0 127 0" result="hardAlpha"/>
<feOffset dy="1.09124"/>
<feGaussianBlur stdDeviation="1.63687"/>
<feColorMatrix type="matrix" values="0 0 0 0 0 0 0 0 0 0.0745098 0 0 0 0 0.207843 0 0 0 0.03 0"/>
<feBlend mode="normal" in2="effect2_dropShadow_8003_7439" result="effect3_dropShadow_8003_7439"/>
<feColorMatrix in="SourceAlpha" type="matrix" values="0 0 0 0 0 0 0 0 0 0 0 0 0 0 0 0 0 0 127 0" result="hardAlpha"/>
<feOffset dy="1.94659"/>
<feGaussianBlur stdDeviation="2.91989"/>
<feColorMatrix type="matrix" values="0 0 0 0 0 0 0 0 0 0.0745098 0 0 0 0 0.207843 0 0 0 0.0357664 0"/>
<feBlend mode="normal" in2="effect3_dropShadow_8003_7439" result="effect4_dropShadow_8003_7439"/>
<feColorMatrix in="SourceAlpha" type="matrix" values="0 0 0 0 0 0 0 0 0 0 0 0 0 0 0 0 0 0 127 0" result="hardAlpha"/>
<feOffset dy="3.64088"/>
<feGaussianBlur stdDeviation="5.46133"/>
<feColorMatrix type="matrix" values="0 0 0 0 0 0 0 0 0 0.0745098 0 0 0 0 0.207843 0 0 0 0.0431313 0"/>
<feBlend mode="normal" in2="effect4_dropShadow_8003_7439" result="effect5_dropShadow_8003_7439"/>
<feColorMatrix in="SourceAlpha" type="matrix" values="0 0 0 0 0 0 0 0 0 0 0 0 0 0 0 0 0 0 127 0" result="hardAlpha"/>
<feOffset dy="8.71492"/>
<feGaussianBlur stdDeviation="13.0724"/>
<feColorMatrix type="matrix" values="0 0 0 0 0 0 0 0 0 0.0745098 0 0 0 0 0.207843 0 0 0 0.06 0"/>
<feBlend mode="normal" in2="effect5_dropShadow_8003_7439" result="effect6_dropShadow_8003_7439"/>
<feBlend mode="normal" in="SourceGraphic" in2="effect6_dropShadow_8003_7439" result="shape"/>
</filter>
<filter id="filter1_dd_8003_7439" x="2.14453" y="63.4977" width="391.945" height="151.783" filterUnits="userSpaceOnUse" color-interpolation-filters="sRGB">
<feFlood flood-opacity="0" result="BackgroundImageFix"/>
<feColorMatrix in="SourceAlpha" type="matrix" values="0 0 0 0 0 0 0 0 0 0 0 0 0 0 0 0 0 0 127 0" result="hardAlpha"/>
<feOffset dy="8"/>
<feGaussianBlur stdDeviation="6"/>
<feColorMatrix type="matrix" values="0 0 0 0 0.0901961 0 0 0 0 0.168627 0 0 0 0 0.301961 0 0 0 0.08 0"/>
<feBlend mode="normal" in2="BackgroundImageFix" result="effect1_dropShadow_8003_7439"/>
<feColorMatrix in="SourceAlpha" type="matrix" values="0 0 0 0 0 0 0 0 0 0 0 0 0 0 0 0 0 0 127 0" result="hardAlpha"/>
<feOffset dy="5"/>
<feGaussianBlur stdDeviation="12"/>
<feColorMatrix type="matrix" values="0 0 0 0 0.0901961 0 0 0 0 0.168627 0 0 0 0 0.301961 0 0 0 0.04 0"/>
<feBlend mode="normal" in2="effect1_dropShadow_8003_7439" result="effect2_dropShadow_8003_7439"/>
<feBlend mode="normal" in="SourceGraphic" in2="effect2_dropShadow_8003_7439" result="shape"/>
</filter>
</defs>
</svg>
