<svg width="522" height="295" viewBox="0 0 522 295" fill="none" xmlns="http://www.w3.org/2000/svg">
<path d="M6 0.5H485.131C488.168 0.5 490.631 2.96243 490.631 6V238.401C490.631 241.439 488.168 243.901 485.131 243.901H6C2.96243 243.901 0.5 241.439 0.5 238.401V6C0.5 2.96243 2.96243 0.5 6 0.5Z" fill="#0A101D"/>
<path d="M6 0.5H485.131C488.168 0.5 490.631 2.96243 490.631 6V238.401C490.631 241.439 488.168 243.901 485.131 243.901H6C2.96243 243.901 0.5 241.439 0.5 238.401V6C0.5 2.96243 2.96243 0.5 6 0.5Z" stroke="#1F2937"/>
<rect x="20" y="20" width="437.665" height="23.6576" rx="3.78521" fill="#111827"/>
<path d="M27.5703 32.0704C27.5703 30.8062 28.2357 29.6529 29.3446 29.0097C30.4314 28.3665 31.7843 28.3665 32.8933 29.0097C33.98 29.6529 34.6676 30.8062 34.6676 32.0704C34.6676 33.3568 33.98 34.5101 32.8933 35.1533C31.7843 35.7964 30.4314 35.7964 29.3446 35.1533C28.2357 34.5101 27.5703 33.3568 27.5703 32.0704Z" fill="#4B5563"/>
<path d="M40.3018 32.0704C40.3018 30.8062 40.9671 29.6529 42.0761 29.0097C43.1628 28.3665 44.5158 28.3665 45.6247 29.0097C46.7115 29.6529 47.399 30.8062 47.399 32.0704C47.399 33.3568 46.7115 34.5101 45.6247 35.1533C44.5158 35.7964 43.1628 35.7964 42.0761 35.1533C40.9671 34.5101 40.3018 33.3568 40.3018 32.0704Z" fill="#4B5563"/>
<path d="M53.0332 32.0704C53.0332 30.8062 53.6986 29.6529 54.8075 29.0097C55.8943 28.3665 57.2472 28.3665 58.3562 29.0097C59.4429 29.6529 60.1305 30.8062 60.1305 32.0704C60.1305 33.3568 59.4429 34.5101 58.3562 35.1533C57.2472 35.7964 55.8943 35.7964 54.8075 35.1533C53.6986 34.5101 53.0332 33.3568 53.0332 32.0704Z" fill="#4B5563"/>
<rect x="327.075" y="28.6744" width="123.019" height="6.30868" rx="3.15434" fill="#1F2937"/>
<rect x="11.4824" y="52.9629" width="95.4189" height="23.6576" rx="3.78521" fill="#1F2937"/>
<path d="M20.1173 65.2107H24.1983V62.9041H20.1173V65.2107ZM20.1173 66.2753V68.5819C20.1173 68.7815 20.2726 68.9368 20.4722 68.9368H24.1983V66.2753H20.1173ZM25.2628 68.9368H28.9889C29.1663 68.9368 29.3438 68.7815 29.3438 68.5819V66.2753H25.2628V68.9368ZM29.3438 65.2107V62.9041H25.2628V65.2107H29.3438ZM20.4722 60.0652H28.9889C29.7652 60.0652 30.4084 60.7084 30.4084 61.4846V68.5819C30.4084 69.3803 29.7652 70.0014 28.9889 70.0014H20.4722C19.6737 70.0014 19.0527 69.3803 19.0527 68.5819V61.4846C19.0527 60.7084 19.6737 60.0652 20.4722 60.0652Z" fill="#F9FAFB"/>
<rect x="19.8418" y="82.2982" width="87.0598" height="23.6576" rx="3.78521" fill="#111827"/>
<path d="M34.5316 88.6908C34.953 88.6908 35.2635 89.1122 35.1526 89.5114L33.9549 93.6589H35.8623C36.2837 93.6589 36.6164 94.0137 36.6164 94.4351C36.6164 94.6791 36.5277 94.8787 36.3502 95.034L30.6059 99.9133C30.495 100.002 30.3619 100.046 30.2067 100.046C29.7853 100.046 29.4748 99.6472 29.5856 99.248L30.7833 95.0783H28.8537C28.4545 95.0783 28.1218 94.7456 28.1218 94.3464C28.1218 94.1246 28.2106 93.925 28.3658 93.7698L34.1323 88.846C34.2432 88.7573 34.3763 88.6908 34.5316 88.6908ZM33.7331 90.576L29.7187 94.0137H31.493C31.6483 94.0137 31.8035 94.1024 31.9144 94.2355C32.0032 94.3686 32.0475 94.546 32.0032 94.7013L31.0051 98.1834L35.0639 94.7235H33.2674C33.0899 94.7235 32.9347 94.6569 32.8238 94.5238C32.7351 94.3908 32.6907 94.2133 32.7351 94.0581L33.7331 90.576Z" fill="#4B5563"/>
<rect x="19.8418" y="111.634" width="87.0598" height="23.6576" rx="3.78521" fill="#111827"/>
<path d="M29.6078 119.579C29.8518 119.756 29.874 120.089 29.6965 120.333C28.9203 121.242 28.4767 122.418 28.4767 123.704C28.4767 125.013 28.9203 126.188 29.6965 127.097C29.874 127.319 29.8518 127.674 29.6078 127.852C29.386 128.051 29.0534 128.007 28.8759 127.785C27.9444 126.676 27.4121 125.257 27.4121 123.704C27.4121 122.174 27.9444 120.754 28.8759 119.645C29.0534 119.423 29.386 119.379 29.6078 119.579ZM37.9693 119.579C38.1911 119.379 38.5238 119.423 38.7234 119.645C39.6327 120.754 40.1872 122.174 40.1872 123.704C40.1872 125.257 39.6327 126.676 38.7234 127.785C38.5238 128.007 38.1911 128.029 37.9693 127.852C37.7475 127.674 37.7032 127.319 37.9028 127.097C38.6568 126.188 39.1226 125.013 39.1226 123.704C39.1226 122.418 38.6568 121.242 37.9028 120.333C37.7032 120.089 37.7475 119.756 37.9693 119.579ZM32.9125 123.704C32.9125 123.394 33.0677 123.105 33.3561 122.95C33.6222 122.795 33.9549 122.795 34.2432 122.95C34.5094 123.105 34.6868 123.394 34.6868 123.704C34.6868 124.037 34.5094 124.325 34.2432 124.48C33.9549 124.636 33.6222 124.636 33.3561 124.48C33.0677 124.325 32.9125 124.037 32.9125 123.704ZM31.5374 121.974C31.1825 122.462 30.9607 123.061 30.9607 123.704C30.9607 124.369 31.1825 124.968 31.5374 125.456C31.737 125.678 31.6927 126.011 31.4487 126.21C31.2269 126.388 30.8942 126.343 30.7168 126.099C30.1845 125.456 29.8962 124.613 29.8962 123.704C29.8962 122.817 30.1845 121.974 30.7168 121.309C30.8942 121.087 31.2269 121.043 31.4487 121.22C31.6927 121.397 31.737 121.73 31.5374 121.974ZM36.8825 121.309C37.3926 121.974 37.7032 122.817 37.7032 123.704C37.7032 124.613 37.3926 125.456 36.8825 126.099C36.6829 126.343 36.3502 126.388 36.1284 126.21C35.8845 126.033 35.8623 125.678 36.0397 125.456C36.4168 124.968 36.6386 124.369 36.6386 123.704C36.6386 123.061 36.4168 122.462 36.0397 121.974C35.8623 121.73 35.8845 121.397 36.1284 121.22C36.3502 121.043 36.6829 121.087 36.8825 121.309Z" fill="#4B5563"/>
<rect x="19.8418" y="140.969" width="87.0598" height="23.6576" rx="3.78521" fill="#111827"/>
<path d="M36.2837 149.269H36.2615C36.1506 149.158 35.9067 149.025 35.5296 148.892C34.7755 148.626 33.6444 148.426 32.3802 148.426C31.0938 148.426 29.9627 148.626 29.2086 148.892C28.8316 149.025 28.5876 149.158 28.4767 149.269V151.243C28.765 151.398 29.1642 151.553 29.6744 151.686C30.4284 151.864 31.36 151.975 32.3802 151.975C33.3783 151.975 34.3098 151.864 35.0639 151.686C35.574 151.553 35.9732 151.398 36.2837 151.243V149.269ZM36.2837 152.418C35.9732 152.529 35.6627 152.64 35.3078 152.729C34.465 152.928 33.4448 153.039 32.3802 153.039C31.2934 153.039 30.2732 152.928 29.4304 152.729C29.0755 152.64 28.765 152.529 28.4767 152.418V154.082C28.765 154.237 29.1642 154.392 29.6744 154.525C30.4284 154.703 31.36 154.814 32.3802 154.814C33.3783 154.814 34.3098 154.703 35.0639 154.525C35.574 154.392 35.9732 154.237 36.2837 154.082V152.418ZM28.4767 156.81V156.832C28.6098 156.921 28.8316 157.076 29.2086 157.209C29.9627 157.475 31.0938 157.653 32.3802 157.653C33.6444 157.653 34.7755 157.475 35.5296 157.209C35.9067 157.076 36.1506 156.921 36.2615 156.832L36.2837 156.81V155.257C35.9732 155.368 35.6627 155.479 35.3078 155.568C34.465 155.767 33.4448 155.878 32.3802 155.878C31.2934 155.878 30.2732 155.767 29.4304 155.568C29.0755 155.479 28.765 155.368 28.4767 155.257V156.81ZM36.3281 156.765L36.3059 156.788C36.3281 156.765 36.3281 156.765 36.3281 156.765ZM28.4323 156.765C28.4102 156.765 28.4323 156.765 28.4323 156.765V156.788C28.4323 156.788 28.4323 156.788 28.4323 156.765ZM28.4323 149.335C28.4102 149.313 28.4323 149.313 28.4323 149.313C28.4323 149.335 28.4323 149.335 28.4323 149.335C28.4323 149.335 28.4323 149.335 28.4102 149.335C28.4102 149.335 28.4102 149.335 28.4323 149.335ZM36.3281 149.313V149.335C36.3281 149.335 36.3281 149.335 36.3059 149.335C36.3059 149.313 36.3059 149.313 36.3281 149.313ZM37.3483 156.943C37.3483 157.941 35.1082 158.717 32.3802 158.717C29.63 158.717 27.4121 157.941 27.4121 156.943V149.136C27.4121 148.16 29.63 147.362 32.3802 147.362C35.1082 147.362 37.3483 148.16 37.3483 149.136V156.943Z" fill="#4B5563"/>
<rect x="19.8418" y="170.304" width="87.0598" height="23.6576" rx="3.78521" fill="#111827"/>
<path d="M32.0253 180.6C32.0253 180.844 32.0475 181.066 32.0919 181.288C32.1362 181.465 32.0919 181.643 31.9588 181.776L28.4767 185.258V186.988H29.8962V186.101C29.8962 185.813 30.1179 185.569 30.4284 185.569H31.3156V184.681C31.3156 184.393 31.5374 184.149 31.8479 184.149H33.0456L33.6888 183.506C33.8218 183.373 33.9993 183.329 34.1767 183.373C34.3985 183.417 34.6203 183.439 34.8642 183.439C36.4168 183.439 37.7032 182.175 37.7032 180.6C37.7032 179.048 36.4168 177.762 34.8642 177.762C33.2895 177.762 32.0253 179.048 32.0253 180.6ZM34.8642 176.697C37.0156 176.697 38.7677 178.449 38.7677 180.6C38.7677 182.774 37.0156 184.504 34.8642 184.504C34.6425 184.504 34.4428 184.504 34.2432 184.46L33.6444 185.058C33.5335 185.169 33.4004 185.214 33.2674 185.214H32.3802V186.101C32.3802 186.411 32.1362 186.633 31.8479 186.633H30.9607V187.52C30.9607 187.831 30.7168 188.053 30.4284 188.053H27.9444C27.6339 188.053 27.4121 187.831 27.4121 187.52V185.036C27.4121 184.903 27.4565 184.77 27.5674 184.659L31.0051 181.222C30.9607 181.022 30.9607 180.822 30.9607 180.6C30.9607 178.449 32.6907 176.697 34.8642 176.697ZM35.574 180.6C35.1747 180.6 34.8642 180.29 34.8642 179.891C34.8642 179.514 35.1747 179.181 35.574 179.181C35.951 179.181 36.2837 179.514 36.2837 179.891C36.2837 180.29 35.951 180.6 35.574 180.6Z" fill="#4B5563"/>
<rect x="19.8418" y="199.64" width="87.0598" height="24.6039" rx="3.78521" fill="#111827"/>
<path d="M33.0899 206.505C33.467 206.505 33.8218 206.55 34.1767 206.616C34.3541 206.661 34.6646 206.749 34.8421 207.06C34.8864 207.149 34.9086 207.237 34.9308 207.326L35.1526 208.191C35.1747 208.302 35.3965 208.435 35.5296 208.391L36.3724 208.147C36.4611 208.125 36.5498 208.102 36.6386 208.102C36.9934 208.102 37.2374 208.324 37.3483 208.457C37.8362 209.012 38.2133 209.655 38.4572 210.365C38.5238 210.542 38.5903 210.853 38.3907 211.141C38.3463 211.23 38.2798 211.296 38.2133 211.363L37.5923 211.984C37.4814 212.072 37.4814 212.316 37.5923 212.405L38.2133 213.026C38.2798 213.093 38.3463 213.159 38.3907 213.248C38.5681 213.536 38.5016 213.847 38.4572 214.024C38.2133 214.734 37.8362 215.377 37.3483 215.932C37.2374 216.065 36.9934 216.286 36.6386 216.286C36.5498 216.286 36.4611 216.264 36.3724 216.242L35.5296 215.976C35.3965 215.954 35.1747 216.065 35.1526 216.198L34.9308 217.063C34.9086 217.151 34.8864 217.24 34.8421 217.329C34.6646 217.639 34.3541 217.728 34.1767 217.772C33.8218 217.839 33.467 217.861 33.0899 217.861C32.7129 217.861 32.3358 217.839 31.981 217.772C31.8035 217.728 31.493 217.639 31.3156 217.329C31.2712 217.24 31.2491 217.151 31.2269 217.063L31.0051 216.198C30.9829 216.065 30.7611 215.954 30.6502 215.976L29.8074 216.242C29.7187 216.264 29.6078 216.264 29.5191 216.286C29.1642 216.286 28.9203 216.065 28.8094 215.932C28.3214 215.377 27.9444 214.734 27.7004 214.024C27.6561 213.847 27.5895 213.536 27.767 213.226C27.8113 213.159 27.8779 213.07 27.9444 213.004L28.5876 212.405C28.6763 212.316 28.6763 212.072 28.5876 211.984L27.9444 211.363C27.8779 211.296 27.8113 211.23 27.767 211.141C27.5895 210.853 27.6561 210.542 27.7004 210.365C27.9444 209.655 28.3214 209.012 28.8094 208.457C28.9203 208.324 29.1642 208.102 29.5191 208.102C29.6078 208.102 29.7187 208.125 29.8074 208.147L30.6502 208.391C30.7611 208.435 30.9829 208.302 31.0051 208.191L31.2269 207.326C31.2491 207.237 31.2712 207.149 31.3156 207.06C31.493 206.749 31.8035 206.661 31.981 206.616C32.3358 206.55 32.7129 206.505 33.0899 206.505ZM32.2471 207.659L32.0475 208.435C31.8701 209.145 31.0495 209.633 30.3397 209.433L29.5635 209.189C29.2086 209.633 28.9203 210.121 28.7207 210.653L29.3195 211.207C29.8518 211.718 29.8518 212.671 29.3195 213.181L28.7207 213.736C28.9203 214.268 29.2086 214.756 29.5635 215.2L30.3397 214.956C31.0495 214.756 31.8701 215.244 32.0475 215.954L32.2471 216.73C32.7794 216.841 33.3783 216.841 33.9327 216.73L34.1102 215.954C34.2876 215.244 35.1082 214.756 35.8179 214.956L36.5942 215.2C36.9491 214.756 37.2374 214.268 37.437 213.736L36.8603 213.181C36.3281 212.671 36.3281 211.718 36.8603 211.207L37.437 210.653C37.2374 210.121 36.9491 209.633 36.5942 209.189L35.8179 209.433C35.1304 209.633 34.2876 209.145 34.1102 208.435L33.9327 207.659C33.3783 207.548 32.7794 207.548 32.2471 207.659ZM32.0253 212.183C32.0253 212.583 32.2249 212.915 32.5576 213.115C32.8681 213.314 33.2895 213.314 33.6222 213.115C33.9327 212.915 34.1545 212.583 34.1545 212.183C34.1545 211.806 33.9327 211.474 33.6222 211.274C33.2895 211.074 32.8681 211.074 32.5576 211.274C32.2249 211.474 32.0253 211.806 32.0253 212.183ZM33.0899 214.312C32.3137 214.312 31.6261 213.913 31.2269 213.248C30.8498 212.605 30.8498 211.784 31.2269 211.119C31.6261 210.476 32.3137 210.054 33.0899 210.054C33.844 210.054 34.5316 210.476 34.9308 211.119C35.3078 211.784 35.3078 212.605 34.9308 213.248C34.5316 213.913 33.844 214.312 33.0899 214.312Z" fill="#4B5563"/>
<rect x="114.63" y="53.1206" width="343" height="171" rx="3.15434" fill="#111827"/>
<rect x="128.458" y="65.0632" width="16.2125" height="16.2125" rx="2.80708" fill="#1F2937"/>
<path d="M133.611 71.8931C133.512 72.0905 133.282 72.1728 133.084 72.0905C132.887 72.0083 132.788 71.778 132.87 71.5806C133.43 70.2648 134.745 69.3273 136.275 69.3273C137.13 69.3273 137.953 69.6727 138.561 70.2813L139.433 71.153V70.2484C139.433 70.0346 139.598 69.8536 139.828 69.8536C140.042 69.8536 140.223 70.0346 140.223 70.2484V72.0905C140.223 72.3208 140.042 72.4853 139.828 72.4853H137.986C137.755 72.4853 137.591 72.3208 137.591 72.0905C137.591 71.8767 137.755 71.6958 137.986 71.6958H138.874L138.002 70.8405C137.542 70.38 136.917 70.1168 136.275 70.1168C135.074 70.1168 134.038 70.8569 133.611 71.8931ZM139.663 74.4754C139.088 75.7748 137.788 76.6959 136.275 76.6959C135.403 76.6959 134.581 76.3669 133.972 75.7419L133.117 74.8866V75.7748C133.117 76.0051 132.936 76.1696 132.722 76.1696C132.492 76.1696 132.328 76.0051 132.328 75.7748V73.9327C132.328 73.7188 132.492 73.5379 132.722 73.5379H134.565C134.778 73.5379 134.959 73.7188 134.959 73.9327C134.959 74.1629 134.778 74.3274 134.565 74.3274H133.66L134.532 75.1991C134.992 75.6597 135.617 75.9064 136.275 75.9064C137.459 75.9064 138.496 75.1991 138.923 74.1629C139.022 73.9491 139.252 73.8669 139.449 73.9491C139.647 74.0314 139.746 74.2616 139.663 74.4754Z" fill="#9CA3AF"/>
<path d="M150.566 67.8703C150.566 66.32 151.823 65.0632 153.373 65.0632H190.41V81.2758H153.373C151.823 81.2758 150.566 80.019 150.566 78.4687V67.8703Z" fill="#1F2937"/>
<path d="M155.517 75.6696V70.5596H156.434V75.6696H155.517ZM158.327 73.6396H156.063V72.9081H158.327V73.6396ZM155.993 71.3191V70.5596H158.765V71.3191H155.993ZM161.055 75.6696V72.4741L161.212 72.6981H159.837V71.9771L161.839 71.8931L161.944 71.9946V75.6696H161.055ZM159.837 74.9451H163.158V75.6696H159.837V74.9451ZM161.349 71.2666C161.23 71.2666 161.125 71.2444 161.034 71.2001C160.943 71.1534 160.871 71.0881 160.82 71.0041C160.771 70.9177 160.747 70.8186 160.747 70.7066C160.747 70.5362 160.801 70.4021 160.911 70.3041C161.023 70.2037 161.169 70.1536 161.349 70.1536C161.531 70.1536 161.676 70.2037 161.786 70.3041C161.898 70.4021 161.954 70.5362 161.954 70.7066C161.954 70.8769 161.898 71.0134 161.786 71.1161C161.676 71.2164 161.531 71.2666 161.349 71.2666ZM164.177 74.9451H167.502V75.6696H164.177V74.9451ZM165.395 75.6696V70.8081L165.553 71.0356H164.181V70.3146L166.183 70.2271L166.288 70.3321L166.284 75.6696H165.395ZM171.714 71.9771V72.7016H168.354V71.9771H169.561H169.663H171.714ZM170.87 75.7641C170.481 75.7641 170.175 75.7197 169.953 75.6311C169.732 75.5401 169.569 75.3802 169.467 75.1516C169.364 74.9229 169.313 74.5939 169.313 74.1646V70.9236H170.202V74.1576C170.202 74.3839 170.226 74.5566 170.275 74.6756C170.327 74.7946 170.407 74.8774 170.517 74.9241C170.626 74.9707 170.78 74.9941 170.979 74.9941C171.217 74.9941 171.49 74.9567 171.798 74.8821V75.6416C171.662 75.6812 171.517 75.7116 171.36 75.7326C171.204 75.7536 171.041 75.7641 170.87 75.7641ZM172.698 73.8181C172.698 73.4004 172.776 73.0481 172.933 72.7611C173.091 72.4717 173.313 72.2547 173.598 72.1101C173.882 71.9654 174.215 71.8931 174.595 71.8931C174.95 71.8931 175.252 71.9561 175.502 72.0821C175.751 72.2057 175.94 72.3924 176.069 72.6421C176.199 72.8917 176.265 73.2032 176.265 73.5766V73.9266H173.395V73.3841H175.554L175.397 73.5241V73.3841C175.397 73.1227 175.322 72.9256 175.173 72.7926C175.026 72.6572 174.824 72.5896 174.567 72.5896C174.264 72.5896 174.027 72.6899 173.857 72.8906C173.686 73.0912 173.601 73.4004 173.601 73.8181C173.601 74.2217 173.683 74.5286 173.846 74.7386C174.012 74.9486 174.25 75.0536 174.56 75.0536C174.756 75.0536 174.924 75.0127 175.064 74.9311C175.206 74.8471 175.315 74.7211 175.39 74.5531L176.254 74.6791C176.168 74.9264 176.039 75.1306 175.869 75.2916C175.701 75.4502 175.505 75.5669 175.281 75.6416C175.059 75.7162 174.819 75.7536 174.56 75.7536C174.189 75.7536 173.864 75.6801 173.584 75.5331C173.304 75.3861 173.085 75.1679 172.929 74.8786C172.775 74.5892 172.698 74.2357 172.698 73.8181ZM178.883 72.6561H178.936V75.6661H178.043V72.5441L178.201 72.7016H177.172V71.9771H178.82L178.883 72.6561ZM180.623 72.7786C180.327 72.7786 180.079 72.7879 179.881 72.8066C179.683 72.8252 179.495 72.8637 179.317 72.9221C179.142 72.9781 178.963 73.0621 178.778 73.1741V72.5231H178.985C179.165 72.3061 179.35 72.1474 179.541 72.0471C179.735 71.9467 179.975 71.8966 180.262 71.8966C180.395 71.8966 180.516 71.9082 180.623 71.9316V72.7786ZM177.172 74.9451H180.094V75.6696H177.172V74.9451ZM183.228 71.8931C183.564 71.8931 183.848 71.9351 184.082 72.0191C184.315 72.1007 184.491 72.2244 184.61 72.3901C184.729 72.5557 184.785 72.7587 184.778 72.9991L183.973 73.0621C183.957 72.8824 183.883 72.7494 183.753 72.6631C183.622 72.5744 183.427 72.5301 183.168 72.5301C182.933 72.5301 182.751 72.5651 182.622 72.6351C182.494 72.7027 182.43 72.8031 182.43 72.9361C182.43 73.0177 182.457 73.0866 182.51 73.1426C182.566 73.1962 182.648 73.2429 182.755 73.2826C182.863 73.3222 183.025 73.3689 183.242 73.4226C183.319 73.4412 183.396 73.4599 183.473 73.4786C183.802 73.5532 184.06 73.6302 184.246 73.7096C184.433 73.7866 184.581 73.8939 184.691 74.0316C184.8 74.1669 184.855 74.3466 184.855 74.5706C184.855 74.8132 184.79 75.0232 184.659 75.2006C184.529 75.3779 184.334 75.5144 184.075 75.6101C183.818 75.7057 183.505 75.7536 183.137 75.7536C182.789 75.7536 182.499 75.7151 182.265 75.6381C182.034 75.5611 181.85 75.4397 181.712 75.2741C181.575 75.1061 181.481 74.8856 181.432 74.6126L182.248 74.5181C182.287 74.6767 182.349 74.7992 182.433 74.8856C182.517 74.9719 182.618 75.0314 182.734 75.0641C182.853 75.0944 183.003 75.1096 183.182 75.1096C183.362 75.1096 183.509 75.0909 183.623 75.0536C183.74 75.0139 183.825 74.9614 183.879 74.8961C183.932 74.8284 183.959 74.7549 183.959 74.6756C183.959 74.5822 183.923 74.5064 183.851 74.4481C183.778 74.3897 183.673 74.3396 183.536 74.2976C183.4 74.2556 183.18 74.1996 182.874 74.1296C182.592 74.0689 182.356 73.9931 182.167 73.9021C181.981 73.8111 181.836 73.6932 181.733 73.5486C181.631 73.4016 181.579 73.2207 181.579 73.0061C181.579 72.6537 181.717 72.3807 181.992 72.1871C182.27 71.9911 182.682 71.8931 183.228 71.8931Z" fill="#9CA3AF"/>
<path d="M190.409 65.0632H214.445C215.996 65.0632 217.252 66.32 217.252 67.8703V78.4687C217.252 80.019 215.996 81.2758 214.445 81.2758H190.409V65.0632Z" fill="#121521"/>
<path d="M196.154 75.6696H195.493V72.0751H196.053L196.123 72.6806H196.154V75.6696ZM197.848 75.6696V73.2721C197.848 73.0877 197.819 72.9407 197.761 72.8311C197.702 72.7214 197.623 72.6444 197.523 72.6001C197.425 72.5557 197.31 72.5336 197.18 72.5336C196.949 72.5336 196.739 72.5931 196.55 72.7121C196.361 72.8287 196.189 72.9921 196.035 73.2021V72.5896H196.2C196.37 72.4076 196.554 72.2629 196.753 72.1556C196.951 72.0459 197.189 71.9911 197.467 71.9911C197.684 71.9911 197.869 72.0307 198.023 72.1101C198.179 72.1871 198.3 72.3072 198.384 72.4706C198.468 72.6339 198.51 72.8427 198.51 73.0971V75.6696H197.848ZM203.095 73.8776C203.095 74.2836 203.018 74.6277 202.864 74.9101C202.71 75.1901 202.5 75.4012 202.234 75.5436C201.968 75.6836 201.671 75.7536 201.342 75.7536C201.013 75.7536 200.715 75.6836 200.449 75.5436C200.186 75.4012 199.976 75.1901 199.819 74.9101C199.665 74.6277 199.588 74.2836 199.588 73.8776C199.588 73.4739 199.665 73.1297 199.819 72.8451C199.976 72.5604 200.186 72.3469 200.449 72.2046C200.715 72.0622 201.013 71.9911 201.342 71.9911C201.671 71.9911 201.968 72.0622 202.234 72.2046C202.5 72.3469 202.71 72.5604 202.864 72.8451C203.018 73.1274 203.095 73.4716 203.095 73.8776ZM202.413 73.8776C202.413 73.5789 202.367 73.3292 202.276 73.1286C202.188 72.9279 202.063 72.7786 201.902 72.6806C201.743 72.5826 201.557 72.5336 201.342 72.5336C201.127 72.5336 200.939 72.5826 200.778 72.6806C200.617 72.7786 200.491 72.9279 200.4 73.1286C200.312 73.3292 200.267 73.5789 200.267 73.8776C200.267 74.1739 200.312 74.4224 200.4 74.6231C200.491 74.8214 200.616 74.9696 200.775 75.0676C200.936 75.1632 201.125 75.2111 201.342 75.2111C201.559 75.2111 201.747 75.1632 201.905 75.0676C202.064 74.9696 202.188 74.8214 202.276 74.6231C202.367 74.4224 202.413 74.1739 202.413 73.8776ZM204.836 75.6696H204.174V72.0751H204.734L204.804 72.6806H204.836V75.6696ZM206.53 75.6696V73.2721C206.53 73.0877 206.501 72.9407 206.442 72.8311C206.384 72.7214 206.305 72.6444 206.204 72.6001C206.106 72.5557 205.992 72.5336 205.861 72.5336C205.63 72.5336 205.42 72.5931 205.231 72.7121C205.042 72.8287 204.871 72.9921 204.717 73.2021V72.5896H204.881C205.052 72.4076 205.236 72.2629 205.434 72.1556C205.633 72.0459 205.871 71.9911 206.148 71.9911C206.365 71.9911 206.551 72.0307 206.705 72.1101C206.861 72.1871 206.981 72.3072 207.065 72.4706C207.149 72.6339 207.191 72.8427 207.191 73.0971V75.6696H206.53ZM208.27 73.8671C208.27 73.4681 208.345 73.1286 208.494 72.8486C208.646 72.5662 208.859 72.3527 209.135 72.2081C209.41 72.0634 209.732 71.9911 210.101 71.9911C210.441 71.9911 210.732 72.0506 210.972 72.1696C211.212 72.2862 211.396 72.4636 211.522 72.7016C211.65 72.9396 211.714 73.2324 211.714 73.5801V73.8951H208.778V73.4541H211.242L211.067 73.6046V73.4611C211.067 73.1507 210.977 72.9186 210.797 72.7646C210.617 72.6106 210.378 72.5336 210.08 72.5336C209.72 72.5336 209.441 72.6479 209.243 72.8766C209.047 73.1029 208.949 73.4331 208.949 73.8671C208.949 74.3081 209.047 74.6429 209.243 74.8716C209.439 75.0979 209.718 75.2111 210.08 75.2111C210.313 75.2111 210.512 75.1621 210.678 75.0641C210.844 74.9661 210.97 74.8167 211.056 74.6161L211.7 74.7246C211.618 74.9462 211.501 75.1341 211.347 75.2881C211.195 75.4421 211.012 75.5587 210.797 75.6381C210.582 75.7151 210.342 75.7536 210.076 75.7536C209.714 75.7536 209.398 75.6812 209.128 75.5366C208.857 75.3919 208.646 75.1784 208.494 74.8961C208.345 74.6137 208.27 74.2707 208.27 73.8671Z" fill="#9CA3AF"/>
<path d="M223.148 67.8703C223.148 66.32 224.405 65.0632 225.956 65.0632H258.992V81.2758H225.956C224.405 81.2758 223.148 80.019 223.148 78.4687V67.8703Z" fill="#1F2937"/>
<path d="M228.099 75.6696V70.5596H229.016V75.6696H228.099ZM230.909 73.6396H228.645V72.9081H230.909V73.6396ZM228.575 71.3191V70.5596H231.347V71.3191H228.575ZM233.637 75.6696V72.4741L233.794 72.6981H232.419V71.9771L234.421 71.8931L234.526 71.9946V75.6696H233.637ZM232.419 74.9451H235.74V75.6696H232.419V74.9451ZM233.931 71.2666C233.812 71.2666 233.707 71.2444 233.616 71.2001C233.525 71.1534 233.453 71.0881 233.402 71.0041C233.353 70.9177 233.329 70.8186 233.329 70.7066C233.329 70.5362 233.383 70.4021 233.493 70.3041C233.605 70.2037 233.751 70.1536 233.931 70.1536C234.113 70.1536 234.258 70.2037 234.368 70.3041C234.48 70.4021 234.536 70.5362 234.536 70.7066C234.536 70.8769 234.48 71.0134 234.368 71.1161C234.258 71.2164 234.113 71.2666 233.931 71.2666ZM236.598 73.8181C236.598 73.4004 236.677 73.0481 236.833 72.7611C236.992 72.4717 237.213 72.2547 237.498 72.1101C237.783 71.9654 238.115 71.8931 238.495 71.8931C238.85 71.8931 239.152 71.9561 239.402 72.0821C239.652 72.2057 239.841 72.3924 239.969 72.6421C240.1 72.8917 240.165 73.2032 240.165 73.5766V73.9266H237.295V73.3841H239.454L239.297 73.5241V73.3841C239.297 73.1227 239.222 72.9256 239.073 72.7926C238.926 72.6572 238.724 72.5896 238.467 72.5896C238.164 72.5896 237.927 72.6899 237.757 72.8906C237.587 73.0912 237.501 73.4004 237.501 73.8181C237.501 74.2217 237.583 74.5286 237.746 74.7386C237.912 74.9486 238.15 75.0536 238.46 75.0536C238.656 75.0536 238.824 75.0127 238.964 74.9311C239.107 74.8471 239.215 74.7211 239.29 74.5531L240.154 74.6791C240.068 74.9264 239.94 75.1306 239.769 75.2916C239.601 75.4502 239.405 75.5669 239.181 75.6416C238.96 75.7162 238.719 75.7536 238.46 75.7536C238.089 75.7536 237.764 75.6801 237.484 75.5331C237.204 75.3861 236.986 75.1679 236.829 74.8786C236.675 74.5892 236.598 74.2357 236.598 73.8181ZM241.1 74.9451H244.425V75.6696H241.1V74.9451ZM242.318 75.6696V70.8081L242.476 71.0356H241.104V70.3146L243.106 70.2271L243.211 70.3321L243.207 75.6696H242.318ZM247.832 70.3146H248.724V75.6696H247.947L247.87 75.0046H247.832V70.3146ZM245.28 73.8356C245.28 73.4482 245.333 73.1099 245.438 72.8206C245.543 72.5312 245.701 72.3061 245.914 72.1451C246.126 71.9817 246.387 71.9001 246.698 71.9001C246.95 71.9001 247.167 71.9502 247.349 72.0506C247.531 72.1486 247.675 72.2792 247.783 72.4426H247.968V72.9956C247.83 72.8719 247.687 72.7821 247.538 72.7261C247.388 72.6677 247.237 72.6386 247.083 72.6386C246.884 72.6386 246.719 72.6817 246.586 72.7681C246.453 72.8544 246.352 72.9862 246.285 73.1636C246.217 73.3409 246.183 73.5649 246.183 73.8356C246.183 74.1062 246.216 74.3291 246.281 74.5041C246.349 74.6767 246.448 74.8051 246.579 74.8891C246.712 74.9731 246.878 75.0151 247.079 75.0151C247.235 75.0151 247.388 74.9871 247.538 74.9311C247.687 74.8727 247.83 74.7817 247.968 74.6581V75.2111H247.786C247.658 75.3767 247.501 75.5097 247.317 75.6101C247.133 75.7081 246.917 75.7571 246.67 75.7571C246.364 75.7571 246.107 75.6766 245.9 75.5156C245.692 75.3546 245.537 75.1306 245.434 74.8436C245.331 74.5566 245.28 74.2206 245.28 73.8356ZM251.469 71.8931C251.805 71.8931 252.09 71.9351 252.323 72.0191C252.556 72.1007 252.732 72.2244 252.851 72.3901C252.97 72.5557 253.026 72.7587 253.019 72.9991L252.214 73.0621C252.198 72.8824 252.125 72.7494 251.994 72.6631C251.863 72.5744 251.668 72.5301 251.409 72.5301C251.174 72.5301 250.992 72.5651 250.863 72.6351C250.735 72.7027 250.671 72.8031 250.671 72.9361C250.671 73.0177 250.698 73.0866 250.751 73.1426C250.807 73.1962 250.889 73.2429 250.996 73.2826C251.104 73.3222 251.266 73.3689 251.483 73.4226C251.56 73.4412 251.637 73.4599 251.714 73.4786C252.043 73.5532 252.301 73.6302 252.487 73.7096C252.674 73.7866 252.822 73.8939 252.932 74.0316C253.042 74.1669 253.096 74.3466 253.096 74.5706C253.096 74.8132 253.031 75.0232 252.9 75.2006C252.77 75.3779 252.575 75.5144 252.316 75.6101C252.059 75.7057 251.747 75.7536 251.378 75.7536C251.03 75.7536 250.74 75.7151 250.506 75.6381C250.275 75.5611 250.091 75.4397 249.953 75.2741C249.816 75.1061 249.722 74.8856 249.673 74.6126L250.489 74.5181C250.529 74.6767 250.59 74.7992 250.674 74.8856C250.758 74.9719 250.859 75.0314 250.975 75.0641C251.094 75.0944 251.244 75.1096 251.423 75.1096C251.603 75.1096 251.75 75.0909 251.864 75.0536C251.981 75.0139 252.066 74.9614 252.12 74.8961C252.174 74.8284 252.2 74.7549 252.2 74.6756C252.2 74.5822 252.164 74.5064 252.092 74.4481C252.02 74.3897 251.915 74.3396 251.777 74.2976C251.642 74.2556 251.421 74.1996 251.115 74.1296C250.833 74.0689 250.597 73.9931 250.408 73.9021C250.222 73.8111 250.077 73.6932 249.974 73.5486C249.872 73.4016 249.82 73.2207 249.82 73.0061C249.82 72.6537 249.958 72.3807 250.233 72.1871C250.511 71.9911 250.923 71.8931 251.469 71.8931Z" fill="#9CA3AF"/>
<path d="M258.991 65.0632H279.027C280.578 65.0632 281.834 66.32 281.834 67.8703V78.4687C281.834 80.019 280.578 81.2758 279.027 81.2758H258.991V65.0632Z" fill="#121521"/>
<path d="M265.499 71.9911C265.802 71.9911 266.057 72.0284 266.262 72.1031C266.467 72.1754 266.624 72.2956 266.731 72.4636C266.838 72.6292 266.892 72.8509 266.892 73.1286V74.9101C266.892 74.9987 266.905 75.0652 266.931 75.1096C266.956 75.1539 266.999 75.1819 267.06 75.1936C267.121 75.2052 267.207 75.2029 267.319 75.1866V75.6696C267.16 75.7162 267.011 75.7396 266.871 75.7396C266.717 75.7396 266.596 75.7127 266.507 75.6591C266.418 75.6031 266.355 75.5307 266.318 75.4421C266.283 75.3511 266.266 75.2449 266.266 75.1236L266.231 75.0641V73.1671C266.231 72.9804 266.198 72.8357 266.133 72.7331C266.067 72.6304 265.977 72.5604 265.863 72.5231C265.749 72.4834 265.604 72.4636 265.429 72.4636C265.263 72.4659 265.122 72.4857 265.006 72.5231C264.889 72.5581 264.796 72.6211 264.726 72.7121C264.658 72.8007 264.623 72.9221 264.621 73.0761V73.2301H264.001V73.0411C264.001 72.7167 264.122 72.4612 264.365 72.2746C264.608 72.0856 264.986 71.9911 265.499 71.9911ZM266.49 74.0736C266.387 74.0596 266.285 74.0491 266.185 74.0421C266.087 74.0327 265.991 74.0281 265.898 74.0281C265.613 74.0281 265.373 74.0514 265.177 74.0981C264.981 74.1424 264.831 74.2147 264.726 74.3151C264.623 74.4131 264.572 74.5426 264.572 74.7036C264.572 74.8226 264.598 74.9229 264.652 75.0046C264.708 75.0862 264.787 75.1481 264.89 75.1901C264.995 75.2321 265.12 75.2531 265.265 75.2531C265.458 75.2531 265.636 75.2169 265.797 75.1446C265.96 75.0722 266.134 74.9661 266.318 74.8261L266.336 75.2216H266.206C266.059 75.3452 265.935 75.4409 265.835 75.5086C265.737 75.5739 265.613 75.6311 265.464 75.6801C265.315 75.7291 265.149 75.7536 264.967 75.7536C264.745 75.7536 264.553 75.7151 264.39 75.6381C264.226 75.5611 264.1 75.4502 264.012 75.3056C263.923 75.1609 263.879 74.9871 263.879 74.7841C263.879 74.4621 263.988 74.2182 264.208 74.0526C264.427 73.8869 264.709 73.7784 265.055 73.7271C265.4 73.6757 265.819 73.6524 266.311 73.6571L266.49 74.0736ZM268.317 75.1341H271.53V75.6696H268.317V75.1341ZM269.591 75.6696L269.595 70.6331L269.752 70.8396H268.317V70.3146L270.169 70.2376L270.256 70.3181V75.6696H269.591ZM272.658 75.1341H275.871V75.6696H272.658V75.1341ZM273.932 75.6696L273.936 70.6331L274.093 70.8396H272.658V70.3146L274.51 70.2376L274.597 70.3181V75.6696H273.932Z" fill="#9CA3AF"/>
<path d="M287.73 67.8703C287.73 66.32 288.987 65.0632 290.538 65.0632H340.574V81.2758H290.538C288.987 81.2758 287.73 80.019 287.73 78.4687V67.8703Z" fill="#1F2937"/>
<path d="M292.73 75.6696V70.5596H293.643V75.6696H292.73ZM294.102 73.1671C294.501 73.1671 294.786 73.0772 294.956 72.8976C295.126 72.7156 295.211 72.4554 295.211 72.1171C295.211 71.9047 295.174 71.7356 295.099 71.6096C295.027 71.4812 294.915 71.3891 294.763 71.3331C294.614 71.2747 294.422 71.2456 294.186 71.2456H293.269V70.5596H294.438C294.979 70.5596 295.4 70.6751 295.701 70.9061C296.005 71.1371 296.156 71.5057 296.156 72.0121C296.156 72.3784 296.081 72.7016 295.929 72.9816C295.777 73.2592 295.54 73.4774 295.218 73.6361C294.896 73.7947 294.49 73.8741 294 73.8741H293.3V73.1671H294.102ZM298.544 71.8931C298.866 71.8931 299.138 71.9316 299.36 72.0086C299.581 72.0856 299.752 72.2104 299.871 72.3831C299.992 72.5534 300.053 72.7774 300.053 73.0551V74.7596C300.053 74.8412 300.063 74.9031 300.084 74.9451C300.107 74.9847 300.146 75.0116 300.2 75.0256C300.253 75.0372 300.331 75.0372 300.434 75.0256V75.6696C300.243 75.7209 300.063 75.7466 299.895 75.7466C299.713 75.7466 299.572 75.7174 299.472 75.6591C299.371 75.6007 299.302 75.5226 299.265 75.4246C299.228 75.3266 299.209 75.2076 299.209 75.0676L299.16 75.0011V73.0971C299.16 72.9501 299.132 72.8322 299.076 72.7436C299.022 72.6549 298.947 72.5931 298.849 72.5581C298.751 72.5231 298.632 72.5056 298.492 72.5056C298.352 72.5056 298.231 72.5231 298.131 72.5581C298.033 72.5907 297.956 72.6456 297.9 72.7226C297.844 72.7972 297.816 72.8941 297.816 73.0131L297.813 73.1566H297.015V72.9746C297.015 72.6386 297.137 72.3749 297.382 72.1836C297.629 71.9899 298.017 71.8931 298.544 71.8931ZM299.535 74.1366C299.427 74.1156 299.323 74.0992 299.223 74.0876C299.123 74.0736 299.018 74.0666 298.908 74.0666C298.672 74.0666 298.474 74.0876 298.313 74.1296C298.154 74.1716 298.032 74.2357 297.946 74.3221C297.862 74.4061 297.82 74.5134 297.82 74.6441C297.82 74.7397 297.843 74.8226 297.89 74.8926C297.936 74.9626 298.003 75.0162 298.089 75.0536C298.178 75.0909 298.283 75.1096 298.404 75.1096C298.563 75.1096 298.713 75.0792 298.856 75.0186C298.998 74.9579 299.139 74.8704 299.279 74.7561L299.272 75.2251H299.129C299.017 75.3394 298.907 75.4327 298.8 75.5051C298.695 75.5774 298.57 75.6369 298.425 75.6836C298.283 75.7302 298.129 75.7536 297.963 75.7536C297.748 75.7536 297.559 75.7139 297.396 75.6346C297.235 75.5552 297.11 75.4409 297.022 75.2916C296.935 75.1422 296.892 74.9661 296.892 74.7631C296.892 74.4294 297.006 74.1762 297.235 74.0036C297.466 73.8286 297.754 73.7154 298.1 73.6641C298.447 73.6104 298.838 73.5894 299.272 73.6011L299.535 74.1366ZM301.18 73.6256C301.18 73.2826 301.235 72.9816 301.345 72.7226C301.457 72.4612 301.619 72.2594 301.831 72.1171C302.044 71.9724 302.297 71.9001 302.591 71.9001C302.759 71.9001 302.913 71.9246 303.053 71.9736C303.195 72.0202 303.318 72.0844 303.42 72.1661C303.525 72.2454 303.613 72.3376 303.683 72.4426H303.868V72.9956C303.731 72.8719 303.587 72.7821 303.438 72.7261C303.289 72.6677 303.137 72.6386 302.983 72.6386C302.794 72.6386 302.632 72.6771 302.496 72.7541C302.361 72.8311 302.258 72.9431 302.188 73.0901C302.118 73.2371 302.083 73.4156 302.083 73.6256C302.083 73.8332 302.117 74.0094 302.185 74.1541C302.255 74.2987 302.356 74.4084 302.489 74.4831C302.625 74.5577 302.788 74.5951 302.979 74.5951C303.136 74.5951 303.289 74.5671 303.438 74.5111C303.587 74.4527 303.731 74.3617 303.868 74.2381V74.7911H303.686C303.558 74.9544 303.399 75.0862 303.21 75.1866C303.024 75.2869 302.808 75.3371 302.563 75.3371C302.274 75.3371 302.025 75.2659 301.817 75.1236C301.61 74.9812 301.451 74.7817 301.341 74.5251C301.234 74.2661 301.18 73.9662 301.18 73.6256ZM304.624 75.4561C304.624 75.8317 304.561 76.1374 304.435 76.3731C304.309 76.6111 304.122 76.7849 303.872 76.8946C303.622 77.0042 303.305 77.0591 302.92 77.0591C302.575 77.0591 302.289 77.0171 302.062 76.9331C301.836 76.8514 301.662 76.7371 301.541 76.5901C301.422 76.4454 301.339 76.2727 301.292 76.0721L302.101 75.9006C302.171 76.0849 302.27 76.2214 302.398 76.3101C302.529 76.3987 302.703 76.4431 302.92 76.4431C303.177 76.4431 303.376 76.3742 303.518 76.2366C303.661 76.1012 303.732 75.8737 303.732 75.5541V72.6211H303.784L303.847 71.9771H304.624V75.4561ZM306.9 75.6696V72.4741L307.058 72.6981H305.682V71.9771L307.684 71.8931L307.789 71.9946V75.6696H306.9ZM305.682 74.9451H309.004V75.6696H305.682V74.9451ZM307.194 71.2666C307.075 71.2666 306.97 71.2444 306.879 71.2001C306.788 71.1534 306.717 71.0881 306.666 71.0041C306.617 70.9177 306.592 70.8186 306.592 70.7066C306.592 70.5362 306.647 70.4021 306.757 70.3041C306.869 70.2037 307.015 70.1536 307.194 70.1536C307.376 70.1536 307.522 70.2037 307.632 70.3041C307.744 70.4021 307.8 70.5362 307.8 70.7066C307.8 70.8769 307.744 71.0134 307.632 71.1161C307.522 71.2164 307.376 71.2666 307.194 71.2666ZM310.958 75.6696H310.065V71.9771H310.842L310.905 72.6316H310.958V75.6696ZM312.414 75.6696V73.2126C312.414 73.0609 312.39 72.9407 312.344 72.8521C312.299 72.7634 312.237 72.7016 312.158 72.6666C312.079 72.6292 311.983 72.6106 311.871 72.6106C311.67 72.6106 311.484 72.6619 311.311 72.7646C311.138 72.8649 310.974 73.0072 310.818 73.1916V72.5231H311.01C311.197 72.3201 311.39 72.1649 311.591 72.0576C311.794 71.9502 312.031 71.8966 312.302 71.8966C312.521 71.8966 312.704 71.9339 312.851 72.0086C313 72.0832 313.114 72.2011 313.191 72.3621C313.268 72.5207 313.306 72.7261 313.306 72.9781V75.6696H312.414ZM315.907 71.8931C316.229 71.8931 316.501 71.9316 316.723 72.0086C316.945 72.0856 317.115 72.2104 317.234 72.3831C317.355 72.5534 317.416 72.7774 317.416 73.0551V74.7596C317.416 74.8412 317.426 74.9031 317.447 74.9451C317.471 74.9847 317.509 75.0116 317.563 75.0256C317.617 75.0372 317.695 75.0372 317.797 75.0256V75.6696C317.606 75.7209 317.426 75.7466 317.258 75.7466C317.076 75.7466 316.935 75.7174 316.835 75.6591C316.735 75.6007 316.666 75.5226 316.628 75.4246C316.591 75.3266 316.572 75.2076 316.572 75.0676L316.523 75.0011V73.0971C316.523 72.9501 316.495 72.8322 316.439 72.7436C316.386 72.6549 316.31 72.5931 316.212 72.5581C316.114 72.5231 315.995 72.5056 315.855 72.5056C315.715 72.5056 315.595 72.5231 315.494 72.5581C315.396 72.5907 315.319 72.6456 315.263 72.7226C315.207 72.7972 315.179 72.8941 315.179 73.0131L315.176 73.1566H314.378V72.9746C314.378 72.6386 314.5 72.3749 314.745 72.1836C314.993 71.9899 315.38 71.8931 315.907 71.8931ZM316.898 74.1366C316.791 74.1156 316.687 74.0992 316.586 74.0876C316.486 74.0736 316.381 74.0666 316.271 74.0666C316.036 74.0666 315.837 74.0876 315.676 74.1296C315.518 74.1716 315.395 74.2357 315.309 74.3221C315.225 74.4061 315.183 74.5134 315.183 74.6441C315.183 74.7397 315.206 74.8226 315.253 74.8926C315.3 74.9626 315.366 75.0162 315.452 75.0536C315.541 75.0909 315.646 75.1096 315.767 75.1096C315.926 75.1096 316.077 75.0792 316.219 75.0186C316.361 74.9579 316.502 74.8704 316.642 74.7561L316.635 75.2251H316.492C316.38 75.3394 316.27 75.4327 316.163 75.5051C316.058 75.5774 315.933 75.6369 315.788 75.6836C315.646 75.7302 315.492 75.7536 315.326 75.7536C315.112 75.7536 314.923 75.7139 314.759 75.6346C314.598 75.5552 314.474 75.4409 314.385 75.2916C314.299 75.1422 314.255 74.9661 314.255 74.7631C314.255 74.4294 314.37 74.1762 314.598 74.0036C314.829 73.8286 315.118 73.7154 315.463 73.6641C315.811 73.6104 316.201 73.5894 316.635 73.6011L316.898 74.1366ZM321.9 71.9771V72.7016H318.54V71.9771H319.748H319.849H321.9ZM321.057 75.7641C320.667 75.7641 320.361 75.7197 320.14 75.6311C319.918 75.5401 319.756 75.3802 319.653 75.1516C319.551 74.9229 319.499 74.5939 319.499 74.1646V70.9236H320.388V74.1576C320.388 74.3839 320.413 74.5566 320.462 74.6756C320.513 74.7946 320.594 74.8774 320.703 74.9241C320.813 74.9707 320.967 74.9941 321.165 74.9941C321.403 74.9941 321.676 74.9567 321.984 74.8821V75.6416C321.849 75.6812 321.703 75.7116 321.547 75.7326C321.39 75.7536 321.227 75.7641 321.057 75.7641ZM324.264 75.6696V72.4741L324.421 72.6981H323.046V71.9771L325.048 71.8931L325.153 71.9946V75.6696H324.264ZM323.046 74.9451H326.367V75.6696H323.046V74.9451ZM324.558 71.2666C324.439 71.2666 324.334 71.2444 324.243 71.2001C324.152 71.1534 324.08 71.0881 324.029 71.0041C323.98 70.9177 323.956 70.8186 323.956 70.7066C323.956 70.5362 324.01 70.4021 324.12 70.3041C324.232 70.2037 324.378 70.1536 324.558 70.1536C324.74 70.1536 324.885 70.2037 324.995 70.3041C325.107 70.4021 325.163 70.5362 325.163 70.7066C325.163 70.8769 325.107 71.0134 324.995 71.1161C324.885 71.2164 324.74 71.2666 324.558 71.2666ZM330.872 73.8391C330.872 74.2661 330.792 74.6231 330.631 74.9101C330.47 75.1971 330.252 75.4094 329.976 75.5471C329.703 75.6847 329.394 75.7536 329.049 75.7536C328.704 75.7536 328.393 75.6847 328.118 75.5471C327.845 75.4094 327.628 75.1971 327.467 74.9101C327.306 74.6207 327.225 74.2637 327.225 73.8391C327.225 73.4097 327.306 73.0504 327.467 72.7611C327.628 72.4694 327.846 72.2524 328.121 72.1101C328.397 71.9654 328.706 71.8931 329.049 71.8931C329.392 71.8931 329.701 71.9654 329.976 72.1101C330.252 72.2524 330.47 72.4694 330.631 72.7611C330.792 73.0504 330.872 73.4097 330.872 73.8391ZM329.969 73.8356C329.969 73.5462 329.931 73.3094 329.854 73.1251C329.777 72.9407 329.67 72.8066 329.532 72.7226C329.397 72.6362 329.236 72.5931 329.049 72.5931C328.862 72.5931 328.7 72.6362 328.562 72.7226C328.427 72.8066 328.321 72.9407 328.244 73.1251C328.167 73.3094 328.128 73.5462 328.128 73.8356C328.128 74.1249 328.167 74.3606 328.244 74.5426C328.321 74.7222 328.427 74.8529 328.562 74.9346C328.7 75.0139 328.862 75.0536 329.049 75.0536C329.236 75.0536 329.397 75.0139 329.532 74.9346C329.67 74.8529 329.777 74.7222 329.854 74.5426C329.931 74.3606 329.969 74.1249 329.969 73.8356ZM332.662 75.6696H331.769V71.9771H332.546L332.609 72.6316H332.662V75.6696ZM334.118 75.6696V73.2126C334.118 73.0609 334.094 72.9407 334.048 72.8521C334.003 72.7634 333.942 72.7016 333.862 72.6666C333.783 72.6292 333.687 72.6106 333.575 72.6106C333.375 72.6106 333.188 72.6619 333.015 72.7646C332.843 72.8649 332.678 73.0072 332.522 73.1916V72.5231H332.714C332.901 72.3201 333.095 72.1649 333.295 72.0576C333.498 71.9502 333.735 71.8966 334.006 71.8966C334.225 71.8966 334.408 71.9339 334.555 72.0086C334.705 72.0832 334.818 72.2011 334.895 72.3621C334.972 72.5207 335.01 72.7261 335.01 72.9781V75.6696H334.118Z" fill="#9CA3AF"/>
<path d="M340.573 65.0632H386.609C388.16 65.0632 389.416 66.32 389.416 67.8703V78.4687C389.416 80.019 388.16 81.2758 386.609 81.2758H340.573V65.0632Z" fill="#121521"/>
<path d="M348.919 70.7381C348.774 70.7031 348.639 70.6774 348.513 70.6611C348.387 70.6447 348.255 70.6366 348.117 70.6366C347.898 70.6366 347.719 70.6646 347.582 70.7206C347.444 70.7742 347.338 70.8757 347.263 71.0251C347.191 71.1744 347.155 71.3891 347.155 71.6691V75.6696H346.493V71.7286C346.493 71.3226 346.556 70.9959 346.682 70.7486C346.808 70.5012 346.989 70.3227 347.225 70.2131C347.46 70.1034 347.752 70.0486 348.1 70.0486C348.242 70.0486 348.381 70.0579 348.516 70.0766C348.654 70.0952 348.788 70.1232 348.919 70.1606V70.7381ZM345.541 75.1341H348.429V75.6696H345.541V75.1341ZM348.789 72.6106H345.338V72.0751H348.789V72.6106ZM351.173 75.6696V72.3901L351.331 72.6001H349.899V72.0751L351.751 71.9946L351.838 72.0786V75.6696H351.173ZM349.899 75.1341H353.112V75.6696H349.899V75.1341ZM351.376 71.1686C351.281 71.1686 351.196 71.1511 351.121 71.1161C351.049 71.0787 350.991 71.0262 350.949 70.9586C350.907 70.8886 350.886 70.8081 350.886 70.7171C350.886 70.5794 350.931 70.4709 351.019 70.3916C351.11 70.3099 351.229 70.2691 351.376 70.2691C351.521 70.2691 351.638 70.3099 351.726 70.3916C351.817 70.4709 351.863 70.5794 351.863 70.7171C351.863 70.8571 351.817 70.9679 351.726 71.0496C351.638 71.1289 351.521 71.1686 351.376 71.1686ZM355.766 72.7261H355.798V75.6661H355.136V72.4531L355.294 72.6106H354.181V72.0751H355.696L355.766 72.7261ZM357.548 72.6421C357.233 72.6421 356.975 72.6549 356.774 72.6806C356.576 72.7039 356.388 72.7529 356.211 72.8276C356.036 72.8999 355.848 73.0131 355.647 73.1671V72.5861H355.843C356.042 72.3831 356.242 72.2337 356.445 72.1381C356.648 72.0401 356.9 71.9911 357.201 71.9911C357.327 71.9911 357.443 72.0016 357.548 72.0226V72.6421ZM354.181 75.1341H357.072V75.6696H354.181V75.1341ZM360.202 71.9911C360.521 71.9911 360.792 72.0307 361.014 72.1101C361.238 72.1871 361.409 72.3049 361.528 72.4636C361.649 72.6222 361.715 72.8217 361.724 73.0621L361.122 73.1041C361.099 72.8987 361.007 72.7447 360.846 72.6421C360.687 72.5371 360.457 72.4846 360.156 72.4846C359.874 72.4846 359.654 72.5266 359.498 72.6106C359.344 72.6946 359.267 72.8194 359.267 72.9851C359.267 73.0761 359.294 73.1531 359.348 73.2161C359.404 73.2791 359.49 73.3351 359.607 73.3841C359.723 73.4307 359.89 73.4797 360.107 73.5311C360.193 73.5474 360.277 73.5649 360.359 73.5836C360.707 73.6559 360.979 73.7317 361.175 73.8111C361.371 73.8904 361.518 73.9954 361.616 74.1261C361.716 74.2544 361.766 74.4212 361.766 74.6266C361.766 74.8552 361.705 75.0536 361.584 75.2216C361.465 75.3896 361.287 75.5202 361.049 75.6136C360.813 75.7046 360.521 75.7501 360.174 75.7501C359.833 75.7501 359.545 75.7151 359.309 75.6451C359.076 75.5727 358.888 75.4549 358.746 75.2916C358.603 75.1259 358.505 74.9042 358.452 74.6266L359.061 74.5496C359.114 74.7479 359.196 74.8972 359.306 74.9976C359.415 75.0979 359.539 75.1632 359.677 75.1936C359.817 75.2239 359.993 75.2391 360.205 75.2391C360.41 75.2391 360.581 75.2146 360.716 75.1656C360.851 75.1166 360.949 75.0524 361.01 74.9731C361.073 74.8914 361.105 74.8004 361.105 74.7001C361.105 74.5951 361.068 74.5099 360.996 74.4446C360.924 74.3769 360.809 74.3186 360.653 74.2696C360.499 74.2206 360.265 74.1634 359.95 74.0981C359.646 74.0351 359.399 73.9604 359.208 73.8741C359.019 73.7877 358.875 73.6781 358.777 73.5451C358.681 73.4121 358.634 73.2452 358.634 73.0446C358.634 72.7132 358.763 72.4554 359.022 72.2711C359.283 72.0844 359.677 71.9911 360.202 71.9911ZM366.061 72.0751V72.6106H362.701V72.0751H363.933H364.035H366.061ZM365.225 75.7396C364.863 75.7419 364.576 75.6987 364.364 75.6101C364.154 75.5214 363.998 75.3662 363.895 75.1446C363.795 74.9229 363.744 74.6126 363.744 74.2136V70.9481H364.409V74.1821C364.409 74.4411 364.437 74.6406 364.493 74.7806C364.549 74.9206 364.639 75.0186 364.763 75.0746C364.887 75.1282 365.059 75.1551 365.281 75.1551C365.547 75.1551 365.835 75.1154 366.145 75.0361V75.6136C366.012 75.6532 365.865 75.6836 365.704 75.7046C365.546 75.7279 365.386 75.7396 365.225 75.7396ZM371.758 71.5431C371.884 71.5431 372.029 71.4976 372.195 71.4066C372.363 71.3156 372.515 71.1942 372.65 71.0426C372.785 70.8909 372.874 70.7299 372.916 70.5596H373.427C373.399 70.8349 373.296 71.1009 373.119 71.3576C372.944 71.6119 372.732 71.8184 372.482 71.9771C372.235 72.1334 371.993 72.2116 371.758 72.2116V71.5431ZM372.916 75.6696V70.5596H373.595V75.6696H372.916ZM371.632 75.0956H374.915V75.6696H371.632V75.0956ZM379.381 73.1111C379.381 73.6967 379.308 74.1867 379.161 74.5811C379.016 74.9754 378.807 75.2694 378.534 75.4631C378.261 75.6567 377.934 75.7536 377.551 75.7536C377.168 75.7536 376.84 75.6567 376.567 75.4631C376.294 75.2694 376.084 74.9754 375.937 74.5811C375.793 74.1867 375.72 73.6967 375.72 73.1111C375.72 72.5161 375.793 72.0226 375.937 71.6306C376.084 71.2386 376.293 70.9481 376.564 70.7591C376.837 70.5677 377.166 70.4721 377.551 70.4721C377.936 70.4721 378.264 70.5677 378.534 70.7591C378.807 70.9481 379.016 71.2386 379.161 71.6306C379.308 72.0226 379.381 72.5161 379.381 73.1111ZM378.664 73.1111C378.664 72.6164 378.622 72.2197 378.538 71.9211C378.454 71.6224 378.33 71.4077 378.167 71.2771C378.004 71.1441 377.798 71.0776 377.551 71.0776C377.306 71.0776 377.102 71.1441 376.938 71.2771C376.775 71.4077 376.65 71.6224 376.564 71.9211C376.48 72.2197 376.438 72.6164 376.438 73.1111C376.438 73.6057 376.48 74.0024 376.564 74.3011C376.65 74.5997 376.775 74.8156 376.938 74.9486C377.102 75.0816 377.306 75.1481 377.551 75.1481C377.798 75.1481 378.004 75.0816 378.167 74.9486C378.33 74.8156 378.454 74.5997 378.538 74.3011C378.622 74.0024 378.664 73.6057 378.664 73.1111ZM377.551 73.6641C377.677 73.6641 377.774 73.6174 377.841 73.5241C377.909 73.4284 377.943 73.2942 377.943 73.1216C377.943 73.0072 377.928 72.9092 377.897 72.8276C377.867 72.7459 377.823 72.6841 377.764 72.6421C377.706 72.6001 377.635 72.5791 377.551 72.5791C377.427 72.5791 377.332 72.6269 377.264 72.7226C377.196 72.8159 377.162 72.9489 377.162 73.1216C377.162 73.2359 377.178 73.3339 377.208 73.4156C377.238 73.4949 377.281 73.5567 377.337 73.6011C377.396 73.6431 377.467 73.6641 377.551 73.6641ZM383.722 73.1111C383.722 73.6967 383.649 74.1867 383.502 74.5811C383.357 74.9754 383.148 75.2694 382.875 75.4631C382.602 75.6567 382.274 75.7536 381.892 75.7536C381.509 75.7536 381.181 75.6567 380.908 75.4631C380.635 75.2694 380.425 74.9754 380.278 74.5811C380.134 74.1867 380.061 73.6967 380.061 73.1111C380.061 72.5161 380.134 72.0226 380.278 71.6306C380.425 71.2386 380.634 70.9481 380.905 70.7591C381.178 70.5677 381.507 70.4721 381.892 70.4721C382.277 70.4721 382.605 70.5677 382.875 70.7591C383.148 70.9481 383.357 71.2386 383.502 71.6306C383.649 72.0226 383.722 72.5161 383.722 73.1111ZM383.005 73.1111C383.005 72.6164 382.963 72.2197 382.879 71.9211C382.795 71.6224 382.671 71.4077 382.508 71.2771C382.344 71.1441 382.139 71.0776 381.892 71.0776C381.647 71.0776 381.443 71.1441 381.279 71.2771C381.116 71.4077 380.991 71.6224 380.905 71.9211C380.821 72.2197 380.779 72.6164 380.779 73.1111C380.779 73.6057 380.821 74.0024 380.905 74.3011C380.991 74.5997 381.116 74.8156 381.279 74.9486C381.443 75.0816 381.647 75.1481 381.892 75.1481C382.139 75.1481 382.344 75.0816 382.508 74.9486C382.671 74.8156 382.795 74.5997 382.879 74.3011C382.963 74.0024 383.005 73.6057 383.005 73.1111ZM381.892 73.6641C382.018 73.6641 382.115 73.6174 382.182 73.5241C382.25 73.4284 382.284 73.2942 382.284 73.1216C382.284 73.0072 382.269 72.9092 382.238 72.8276C382.208 72.7459 382.164 72.6841 382.105 72.6421C382.047 72.6001 381.976 72.5791 381.892 72.5791C381.768 72.5791 381.672 72.6269 381.605 72.7226C381.537 72.8159 381.503 72.9489 381.503 73.1216C381.503 73.2359 381.518 73.3339 381.549 73.4156C381.579 73.4949 381.622 73.5567 381.678 73.6011C381.737 73.6431 381.808 73.6641 381.892 73.6641Z" fill="#9CA3AF"/>
<path d="M395.312 67.8703C395.312 66.32 396.569 65.0632 398.12 65.0632H435.156V81.2758H398.12C396.569 81.2758 395.312 80.019 395.312 78.4687V67.8703Z" fill="#1F2937"/>
<path d="M402.863 72.0191C402.842 71.8207 402.796 71.6632 402.723 71.5466C402.653 71.4276 402.557 71.3412 402.433 71.2876C402.312 71.2339 402.159 71.2071 401.974 71.2071C401.697 71.2071 401.49 71.2584 401.355 71.3611C401.22 71.4637 401.152 71.6131 401.152 71.8091C401.152 71.9561 401.189 72.0762 401.264 72.1696C401.341 72.2629 401.448 72.3434 401.586 72.4111C401.724 72.4787 401.922 72.5592 402.181 72.6526C402.547 72.7856 402.84 72.9127 403.059 73.0341C403.279 73.1554 403.451 73.3106 403.577 73.4996C403.706 73.6862 403.77 73.9219 403.77 74.2066C403.77 74.5239 403.692 74.7992 403.535 75.0326C403.381 75.2659 403.162 75.4456 402.877 75.5716C402.593 75.6952 402.26 75.7571 401.88 75.7571C401.507 75.7571 401.188 75.7011 400.924 75.5891C400.663 75.4771 400.457 75.3079 400.305 75.0816C400.156 74.8529 400.067 74.5671 400.039 74.2241L400.924 74.0981C400.969 74.4084 401.07 74.6371 401.229 74.7841C401.39 74.9287 401.626 75.0011 401.936 75.0011C402.235 75.0011 402.455 74.9404 402.597 74.8191C402.742 74.6977 402.814 74.5321 402.814 74.3221C402.814 74.1821 402.777 74.0666 402.702 73.9756C402.628 73.8846 402.519 73.8052 402.377 73.7376C402.235 73.6676 402.006 73.5719 401.691 73.4506C401.39 73.3386 401.136 73.2172 400.928 73.0866C400.72 72.9559 400.555 72.7926 400.431 72.5966C400.307 72.4006 400.245 72.1637 400.245 71.8861C400.245 71.5851 400.314 71.3296 400.452 71.1196C400.592 70.9072 400.795 70.7474 401.061 70.6401C401.329 70.5327 401.652 70.4791 402.03 70.4791C402.558 70.4791 402.97 70.5981 403.266 70.8361C403.562 71.0741 403.716 71.4404 403.728 71.9351L402.863 72.0191ZM408.069 73.8391C408.069 74.2661 407.988 74.6231 407.827 74.9101C407.666 75.1971 407.448 75.4094 407.173 75.5471C406.9 75.6847 406.591 75.7536 406.245 75.7536C405.9 75.7536 405.59 75.6847 405.314 75.5471C405.041 75.4094 404.824 75.1971 404.663 74.9101C404.502 74.6207 404.422 74.2637 404.422 73.8391C404.422 73.4097 404.502 73.0504 404.663 72.7611C404.824 72.4694 405.042 72.2524 405.318 72.1101C405.593 71.9654 405.902 71.8931 406.245 71.8931C406.588 71.8931 406.897 71.9654 407.173 72.1101C407.448 72.2524 407.666 72.4694 407.827 72.7611C407.988 73.0504 408.069 73.4097 408.069 73.8391ZM407.166 73.8356C407.166 73.5462 407.127 73.3094 407.05 73.1251C406.973 72.9407 406.866 72.8066 406.728 72.7226C406.593 72.6362 406.432 72.5931 406.245 72.5931C406.059 72.5931 405.896 72.6362 405.759 72.7226C405.623 72.8066 405.517 72.9407 405.44 73.1251C405.363 73.3094 405.325 73.5462 405.325 73.8356C405.325 74.1249 405.363 74.3606 405.44 74.5426C405.517 74.7222 405.623 74.8529 405.759 74.9346C405.896 75.0139 406.059 75.0536 406.245 75.0536C406.432 75.0536 406.593 75.0139 406.728 74.9346C406.866 74.8529 406.973 74.7222 407.05 74.5426C407.127 74.3606 407.166 74.1249 407.166 73.8356ZM410.607 72.6561H410.66V75.6661H409.767V72.5441L409.925 72.7016H408.896V71.9771H410.544L410.607 72.6561ZM412.347 72.7786C412.05 72.7786 411.803 72.7879 411.605 72.8066C411.406 72.8252 411.218 72.8637 411.041 72.9221C410.866 72.9781 410.686 73.0621 410.502 73.1741V72.5231H410.709C410.888 72.3061 411.074 72.1474 411.265 72.0471C411.459 71.9467 411.699 71.8966 411.986 71.8966C412.119 71.8966 412.239 71.9082 412.347 71.9316V72.7786ZM408.896 74.9451H411.818V75.6696H408.896V74.9451ZM416.46 71.9771V72.7016H413.1V71.9771H414.307H414.409H416.46ZM415.616 75.7641C415.227 75.7641 414.921 75.7197 414.699 75.6311C414.478 75.5401 414.316 75.3802 414.213 75.1516C414.11 74.9229 414.059 74.5939 414.059 74.1646V70.9236H414.948V74.1576C414.948 74.3839 414.972 74.5566 415.021 74.6756C415.073 74.7946 415.153 74.8774 415.263 74.9241C415.373 74.9707 415.527 74.9941 415.725 74.9941C415.963 74.9941 416.236 74.9567 416.544 74.8821V75.6416C416.409 75.6812 416.263 75.7116 416.106 75.7326C415.95 75.7536 415.787 75.7641 415.616 75.7641ZM422.842 75.0046L422.765 75.6696H421.988V70.3146H422.88V75.0046H422.842ZM425.432 73.8146C425.432 74.2019 425.379 74.5414 425.274 74.8331C425.169 75.1224 425.011 75.3487 424.798 75.5121C424.586 75.6731 424.325 75.7536 424.014 75.7536C423.762 75.7536 423.545 75.7046 423.363 75.6066C423.181 75.5062 423.037 75.3744 422.929 75.2111H422.744V74.6581C422.882 74.7817 423.025 74.8727 423.174 74.9311C423.324 74.9871 423.475 75.0151 423.629 75.0151C423.828 75.0151 423.993 74.9719 424.126 74.8856C424.259 74.7992 424.36 74.6674 424.427 74.4901C424.495 74.3127 424.529 74.0876 424.529 73.8146C424.529 73.5462 424.495 73.3257 424.427 73.1531C424.362 72.9781 424.263 72.8486 424.13 72.7646C423.999 72.6782 423.834 72.6351 423.633 72.6351C423.477 72.6351 423.324 72.6642 423.174 72.7226C423.025 72.7786 422.882 72.8696 422.744 72.9956V72.4391H422.926C423.054 72.2757 423.211 72.1439 423.395 72.0436C423.579 71.9432 423.795 71.8931 424.042 71.8931C424.348 71.8931 424.605 71.9736 424.812 72.1346C425.02 72.2956 425.175 72.5207 425.278 72.8101C425.381 73.0971 425.432 73.4319 425.432 73.8146ZM426.035 71.9771H426.99L428.026 74.5006H428.075L428.989 71.9771H429.885L428.52 75.4911C428.384 75.8434 428.239 76.1316 428.082 76.3556C427.928 76.5819 427.737 76.7557 427.508 76.8771C427.282 76.9984 427.005 77.0591 426.679 77.0591C426.613 77.0591 426.548 77.0567 426.483 77.0521C426.42 77.0474 426.358 77.0404 426.297 77.0311C426.272 77.0287 426.247 77.0252 426.224 77.0206V76.2226C426.245 76.2296 426.269 76.2354 426.297 76.2401C426.363 76.2541 426.428 76.2646 426.493 76.2716C426.559 76.2786 426.627 76.2821 426.7 76.2821C426.875 76.2821 427.018 76.2587 427.13 76.2121C427.242 76.1677 427.33 76.1059 427.393 76.0266C427.458 75.9496 427.511 75.8551 427.55 75.7431L427.739 75.1481L427.935 75.5331L427.778 76.0511L426.035 71.9771Z" fill="#9CA3AF"/>
<path d="M435.155 65.0632H450.191C451.742 65.0632 452.998 66.32 452.998 67.8703V78.4687C452.998 80.019 451.742 81.2758 450.191 81.2758H435.155V65.0632Z" fill="#121521"/>
<path d="M441.415 75.6696V72.3901L441.572 72.6001H440.141V72.0751L441.992 71.9946L442.08 72.0786V75.6696H441.415ZM440.141 75.1341H443.354V75.6696H440.141V75.1341ZM441.618 71.1686C441.522 71.1686 441.437 71.1511 441.362 71.1161C441.29 71.0787 441.233 71.0262 441.191 70.9586C441.149 70.8886 441.128 70.8081 441.128 70.7171C441.128 70.5794 441.172 70.4709 441.261 70.3916C441.352 70.3099 441.471 70.2691 441.618 70.2691C441.762 70.2691 441.879 70.3099 441.968 70.3916C442.059 70.4709 442.104 70.5794 442.104 70.7171C442.104 70.8571 442.059 70.9679 441.968 71.0496C441.879 71.1289 441.762 71.1686 441.618 71.1686ZM446.935 70.3146H447.596V75.6696H447.036L446.963 75.0221H446.935V70.3146ZM444.334 73.8811C444.334 73.4914 444.39 73.1554 444.502 72.8731C444.617 72.5884 444.781 72.3702 444.996 72.2186C445.213 72.0669 445.472 71.9911 445.773 71.9911C446.023 71.9911 446.24 72.0412 446.424 72.1416C446.608 72.2419 446.763 72.3784 446.889 72.5511H447.047V73.0866C446.888 72.8952 446.724 72.7587 446.553 72.6771C446.385 72.5931 446.209 72.5511 446.025 72.5511C445.808 72.5511 445.625 72.6001 445.475 72.6981C445.326 72.7961 445.212 72.9442 445.132 73.1426C445.055 73.3386 445.017 73.5847 445.017 73.8811C445.017 74.1704 445.054 74.4119 445.129 74.6056C445.206 74.7992 445.318 74.9462 445.465 75.0466C445.614 75.1446 445.797 75.1936 446.014 75.1936C446.201 75.1936 446.378 75.1527 446.546 75.0711C446.714 74.9894 446.881 74.8529 447.047 74.6616V75.1971H446.893C446.751 75.3697 446.585 75.5062 446.396 75.6066C446.209 75.7069 445.992 75.7571 445.745 75.7571C445.444 75.7571 445.188 75.6812 444.978 75.5296C444.768 75.3756 444.609 75.1586 444.499 74.8786C444.389 74.5962 444.334 74.2637 444.334 73.8811Z" fill="#9CA3AF"/>
<path d="M142.129 91.9916H129.872C129.091 91.9916 128.458 93.7504 128.458 95.9202V103.777C128.458 105.947 129.091 107.706 129.872 107.706H142.129C142.91 107.706 143.543 105.947 143.543 103.777V95.9202C143.543 93.7504 142.91 91.9916 142.129 91.9916Z" fill="#121521"/>
<rect x="149.2" y="91.9612" width="63.205" height="15.7747" rx="2.51423" fill="#121521"/>
<path d="M157.094 101.849L156.089 98.4075H156.05L155.054 101.849H154.364L155.717 97.4685H156.452L157.814 101.849H157.094ZM155.075 100.214H157.136V100.724H155.075V100.214ZM160.484 97.2585H161.15V101.849H160.577L160.514 101.285H160.484V97.2585ZM158.276 100.295C158.276 99.9625 158.323 99.6735 158.417 99.4275C158.511 99.1815 158.649 98.9915 158.831 98.8575C159.015 98.7235 159.238 98.6565 159.5 98.6565C159.716 98.6565 159.902 98.6995 160.058 98.7855C160.216 98.8695 160.345 98.9835 160.445 99.1275H160.592V99.5955C160.464 99.4595 160.332 99.3615 160.196 99.3015C160.06 99.2415 159.919 99.2115 159.773 99.2115C159.595 99.2115 159.445 99.2515 159.323 99.3315C159.203 99.4095 159.112 99.5295 159.05 99.6915C158.988 99.8515 158.957 100.053 158.957 100.295C158.957 100.535 158.987 100.734 159.047 100.892C159.109 101.05 159.2 101.168 159.32 101.246C159.44 101.324 159.589 101.363 159.767 101.363C159.915 101.363 160.057 101.334 160.193 101.276C160.329 101.216 160.462 101.118 160.592 100.982V101.45H160.448C160.332 101.594 160.194 101.709 160.034 101.795C159.874 101.881 159.688 101.924 159.476 101.924C159.216 101.924 158.996 101.857 158.816 101.723C158.638 101.587 158.503 101.398 158.411 101.156C158.321 100.912 158.276 100.625 158.276 100.295ZM163.506 99.2955H163.542V101.846H162.876V99.1305L163.011 99.2655H162.093V98.7255H163.449L163.506 99.2955ZM165.015 99.3105C164.753 99.3105 164.536 99.3205 164.364 99.3405C164.194 99.3585 164.033 99.3955 163.881 99.4515C163.731 99.5075 163.574 99.5925 163.41 99.7065V99.1785H163.581C163.743 98.9985 163.909 98.8665 164.079 98.7825C164.249 98.6965 164.46 98.6535 164.712 98.6535C164.822 98.6535 164.923 98.6635 165.015 98.6835V99.3105ZM162.093 101.309H164.583V101.849H162.093V101.309ZM165.718 100.283C165.718 99.9325 165.784 99.6355 165.916 99.3915C166.048 99.1475 166.234 98.9635 166.474 98.8395C166.714 98.7155 166.995 98.6535 167.317 98.6535C167.615 98.6535 167.869 98.7055 168.079 98.8095C168.289 98.9135 168.449 99.0705 168.559 99.2805C168.669 99.4885 168.724 99.7465 168.724 100.055V100.34H166.234V99.9195H168.217L168.073 100.043V99.9225C168.073 99.6765 168.003 99.4925 167.863 99.3705C167.723 99.2465 167.534 99.1845 167.296 99.1845C167.012 99.1845 166.791 99.2765 166.633 99.4605C166.475 99.6425 166.396 99.9165 166.396 100.283C166.396 100.645 166.473 100.92 166.627 101.108C166.783 101.294 167.005 101.387 167.293 101.387C167.477 101.387 167.634 101.349 167.764 101.273C167.896 101.195 167.997 101.077 168.067 100.919L168.712 101.018C168.64 101.22 168.535 101.388 168.397 101.522C168.259 101.656 168.096 101.756 167.908 101.822C167.722 101.888 167.516 101.921 167.29 101.921C166.976 101.921 166.701 101.859 166.465 101.735C166.229 101.609 166.045 101.424 165.913 101.18C165.783 100.934 165.718 100.635 165.718 100.283ZM170.989 98.6535C171.269 98.6535 171.507 98.6885 171.703 98.7585C171.899 98.8265 172.048 98.9305 172.15 99.0705C172.252 99.2085 172.304 99.3805 172.306 99.5865L171.703 99.6315C171.685 99.4655 171.614 99.3415 171.49 99.2595C171.366 99.1775 171.184 99.1365 170.944 99.1365C170.722 99.1365 170.55 99.1695 170.428 99.2355C170.306 99.3015 170.245 99.3985 170.245 99.5265C170.245 99.6005 170.268 99.6625 170.314 99.7125C170.362 99.7625 170.434 99.8065 170.53 99.8445C170.626 99.8825 170.767 99.9235 170.953 99.9675C171.023 99.9835 171.092 99.9995 171.16 100.016C171.45 100.078 171.677 100.143 171.841 100.211C172.005 100.279 172.132 100.37 172.222 100.484C172.312 100.598 172.357 100.747 172.357 100.931C172.357 101.133 172.303 101.308 172.195 101.456C172.087 101.604 171.927 101.718 171.715 101.798C171.503 101.878 171.244 101.918 170.938 101.918C170.642 101.918 170.394 101.887 170.194 101.825C169.994 101.761 169.834 101.658 169.714 101.516C169.594 101.374 169.512 101.185 169.468 100.949L170.08 100.874C170.12 101.028 170.181 101.145 170.263 101.225C170.347 101.305 170.444 101.358 170.554 101.384C170.664 101.41 170.803 101.423 170.971 101.423C171.135 101.423 171.271 101.405 171.379 101.369C171.487 101.331 171.565 101.281 171.613 101.219C171.663 101.155 171.688 101.084 171.688 101.006C171.688 100.922 171.657 100.853 171.595 100.799C171.533 100.745 171.439 100.699 171.313 100.661C171.189 100.621 170.994 100.572 170.728 100.514C170.478 100.462 170.272 100.398 170.11 100.322C169.948 100.246 169.824 100.148 169.738 100.028C169.652 99.9075 169.609 99.7585 169.609 99.5805C169.609 99.2885 169.724 99.0615 169.954 98.8995C170.184 98.7355 170.529 98.6535 170.989 98.6535ZM174.71 98.6535C174.99 98.6535 175.228 98.6885 175.424 98.7585C175.62 98.8265 175.769 98.9305 175.871 99.0705C175.973 99.2085 176.025 99.3805 176.027 99.5865L175.424 99.6315C175.406 99.4655 175.335 99.3415 175.211 99.2595C175.087 99.1775 174.905 99.1365 174.665 99.1365C174.443 99.1365 174.271 99.1695 174.149 99.2355C174.027 99.3015 173.966 99.3985 173.966 99.5265C173.966 99.6005 173.989 99.6625 174.035 99.7125C174.083 99.7625 174.155 99.8065 174.251 99.8445C174.347 99.8825 174.488 99.9235 174.674 99.9675C174.744 99.9835 174.813 99.9995 174.881 100.016C175.171 100.078 175.398 100.143 175.562 100.211C175.726 100.279 175.853 100.37 175.943 100.484C176.033 100.598 176.078 100.747 176.078 100.931C176.078 101.133 176.024 101.308 175.916 101.456C175.808 101.604 175.648 101.718 175.436 101.798C175.224 101.878 174.965 101.918 174.659 101.918C174.363 101.918 174.115 101.887 173.915 101.825C173.715 101.761 173.555 101.658 173.435 101.516C173.315 101.374 173.233 101.185 173.189 100.949L173.801 100.874C173.841 101.028 173.902 101.145 173.984 101.225C174.068 101.305 174.165 101.358 174.275 101.384C174.385 101.41 174.524 101.423 174.692 101.423C174.856 101.423 174.992 101.405 175.1 101.369C175.208 101.331 175.286 101.281 175.334 101.219C175.384 101.155 175.409 101.084 175.409 101.006C175.409 100.922 175.378 100.853 175.316 100.799C175.254 100.745 175.16 100.699 175.034 100.661C174.91 100.621 174.715 100.572 174.449 100.514C174.199 100.462 173.993 100.398 173.831 100.322C173.669 100.246 173.545 100.148 173.459 100.028C173.373 99.9075 173.33 99.7585 173.33 99.5805C173.33 99.2885 173.445 99.0615 173.675 98.8995C173.905 98.7355 174.25 98.6535 174.71 98.6535Z" fill="#4B5563"/>
<path d="M204.896 102.458C204.756 102.634 204.486 102.634 204.346 102.458C203.748 101.696 202.377 99.8798 202.377 98.8485C202.377 97.6063 203.385 96.5985 204.627 96.5985C205.869 96.5985 206.877 97.6063 206.877 98.8485C206.877 99.8798 205.506 101.696 204.896 102.458ZM204.627 98.0985C204.357 98.0985 204.111 98.2509 203.971 98.4735C203.842 98.7079 203.842 99.0009 203.971 99.2235C204.111 99.4579 204.357 99.5985 204.627 99.5985C204.885 99.5985 205.131 99.4579 205.271 99.2235C205.4 99.0009 205.4 98.7079 205.271 98.4735C205.131 98.2509 204.885 98.0985 204.627 98.0985Z" fill="#4B5563"/>
<rect x="218.062" y="91.9916" width="79.8268" height="15.7139" rx="2.51423" fill="#121521"/>
<path d="M224.249 101.285L224.183 101.849H223.61V97.2585H224.276V101.285H224.249ZM226.484 100.28C226.484 100.614 226.437 100.904 226.343 101.15C226.251 101.394 226.113 101.584 225.929 101.72C225.745 101.854 225.522 101.921 225.26 101.921C225.046 101.921 224.86 101.878 224.702 101.792C224.546 101.706 224.418 101.591 224.318 101.447H224.171V100.982C224.297 101.116 224.428 101.213 224.564 101.273C224.702 101.333 224.843 101.363 224.987 101.363C225.165 101.363 225.314 101.324 225.434 101.246C225.556 101.166 225.648 101.046 225.71 100.886C225.774 100.726 225.806 100.524 225.806 100.28C225.806 100.04 225.775 99.8415 225.713 99.6855C225.653 99.5275 225.563 99.4095 225.443 99.3315C225.323 99.2515 225.173 99.2115 224.993 99.2115C224.847 99.2115 224.706 99.2415 224.57 99.3015C224.434 99.3615 224.301 99.4585 224.171 99.5925V99.1275H224.315C224.431 98.9815 224.568 98.8665 224.726 98.7825C224.886 98.6965 225.072 98.6535 225.284 98.6535C225.544 98.6535 225.763 98.7205 225.941 98.8545C226.121 98.9885 226.256 99.1775 226.346 99.4215C226.438 99.6655 226.484 99.9515 226.484 100.28ZM228.339 101.849V99.0735L228.474 99.2595H227.271V98.7255L228.924 98.6535L229.005 98.7345V101.849H228.339ZM227.271 101.309H230.073V101.849H227.271V101.309ZM228.552 98.0325C228.46 98.0325 228.379 98.0155 228.309 97.9815C228.239 97.9455 228.184 97.8945 228.144 97.8285C228.104 97.7625 228.084 97.6855 228.084 97.5975C228.084 97.4655 228.127 97.3615 228.213 97.2855C228.299 97.2075 228.412 97.1685 228.552 97.1685C228.692 97.1685 228.805 97.2075 228.891 97.2855C228.977 97.3615 229.02 97.4655 229.02 97.5975C229.02 97.7315 228.977 97.8375 228.891 97.9155C228.805 97.9935 228.692 98.0325 228.552 98.0325ZM232.368 99.2955H232.404V101.846H231.738V99.1305L231.873 99.2655H230.955V98.7255H232.311L232.368 99.2955ZM233.877 99.3105C233.615 99.3105 233.398 99.3205 233.226 99.3405C233.056 99.3585 232.895 99.3955 232.743 99.4515C232.593 99.5075 232.436 99.5925 232.272 99.7065V99.1785H232.443C232.605 98.9985 232.771 98.8665 232.941 98.7825C233.111 98.6965 233.322 98.6535 233.574 98.6535C233.684 98.6535 233.785 98.6635 233.877 98.6835V99.3105ZM230.955 101.309H233.445V101.849H230.955V101.309ZM237.427 98.7255V99.2655H234.547V98.7255H235.594H235.681H237.427ZM236.707 101.918C236.385 101.92 236.131 101.883 235.945 101.807C235.761 101.729 235.625 101.594 235.537 101.402C235.449 101.208 235.405 100.934 235.405 100.58V97.7895H236.071V100.562C236.071 100.77 236.094 100.93 236.14 101.042C236.186 101.152 236.259 101.229 236.359 101.273C236.459 101.317 236.599 101.339 236.779 101.339C236.995 101.339 237.235 101.306 237.499 101.24V101.813C237.385 101.847 237.26 101.873 237.124 101.891C236.988 101.909 236.849 101.918 236.707 101.918ZM238.493 101.849V97.2585H239.159V101.849H238.493ZM240.509 101.849V99.7665C240.509 99.6225 240.487 99.5085 240.443 99.4245C240.399 99.3385 240.338 99.2785 240.26 99.2445C240.184 99.2105 240.094 99.1935 239.99 99.1935C239.806 99.1935 239.637 99.2405 239.483 99.3345C239.329 99.4285 239.187 99.5595 239.057 99.7275V99.1785H239.24C239.34 99.0705 239.44 98.9795 239.54 98.9055C239.64 98.8295 239.753 98.7685 239.879 98.7225C240.007 98.6765 240.151 98.6535 240.311 98.6535C240.495 98.6535 240.651 98.6865 240.779 98.7525C240.907 98.8185 241.005 98.9205 241.073 99.0585C241.141 99.1965 241.175 99.3745 241.175 99.5925V101.849H240.509ZM241.964 102.539H245.144V102.929H241.964V102.539ZM247.95 97.2585H248.616V101.849H248.043L247.98 101.285H247.95V97.2585ZM245.742 100.295C245.742 99.9625 245.789 99.6735 245.883 99.4275C245.977 99.1815 246.115 98.9915 246.297 98.8575C246.481 98.7235 246.704 98.6565 246.966 98.6565C247.182 98.6565 247.368 98.6995 247.524 98.7855C247.682 98.8695 247.811 98.9835 247.911 99.1275H248.058V99.5955C247.93 99.4595 247.798 99.3615 247.662 99.3015C247.526 99.2415 247.385 99.2115 247.239 99.2115C247.061 99.2115 246.911 99.2515 246.789 99.3315C246.669 99.4095 246.578 99.5295 246.516 99.6915C246.454 99.8515 246.423 100.053 246.423 100.295C246.423 100.535 246.453 100.734 246.513 100.892C246.575 101.05 246.666 101.168 246.786 101.246C246.906 101.324 247.055 101.363 247.233 101.363C247.381 101.363 247.523 101.334 247.659 101.276C247.795 101.216 247.928 101.118 248.058 100.982V101.45H247.914C247.798 101.594 247.66 101.709 247.5 101.795C247.34 101.881 247.154 101.924 246.942 101.924C246.682 101.924 246.462 101.857 246.282 101.723C246.104 101.587 245.969 101.398 245.877 101.156C245.787 100.912 245.742 100.625 245.742 100.295ZM250.909 98.6535C251.177 98.6535 251.402 98.6855 251.584 98.7495C251.768 98.8135 251.909 98.9185 252.007 99.0645C252.105 99.2085 252.154 99.3995 252.154 99.6375V101.132C252.154 101.206 252.164 101.261 252.184 101.297C252.204 101.333 252.238 101.357 252.286 101.369C252.336 101.379 252.407 101.378 252.499 101.366V101.849C252.349 101.891 252.208 101.912 252.076 101.912C251.932 101.912 251.819 101.888 251.737 101.84C251.657 101.79 251.601 101.725 251.569 101.645C251.539 101.565 251.524 101.469 251.524 101.357L251.488 101.303V99.6735C251.488 99.5295 251.462 99.4165 251.41 99.3345C251.358 99.2525 251.286 99.1965 251.194 99.1665C251.104 99.1345 250.992 99.1185 250.858 99.1185C250.726 99.1185 250.614 99.1335 250.522 99.1635C250.43 99.1935 250.357 99.2445 250.303 99.3165C250.249 99.3865 250.222 99.4805 250.222 99.5985L250.219 99.7245H249.613V99.5655C249.613 99.2835 249.717 99.0615 249.925 98.8995C250.135 98.7355 250.463 98.6535 250.909 98.6535ZM251.758 100.508C251.668 100.492 251.58 100.48 251.494 100.472C251.41 100.462 251.324 100.457 251.236 100.457C251.014 100.457 250.826 100.476 250.672 100.514C250.52 100.552 250.403 100.611 250.321 100.691C250.241 100.769 250.201 100.87 250.201 100.994C250.201 101.086 250.223 101.165 250.267 101.231C250.311 101.295 250.374 101.344 250.456 101.378C250.538 101.412 250.636 101.429 250.75 101.429C250.9 101.429 251.04 101.401 251.17 101.345C251.302 101.287 251.437 101.204 251.575 101.096L251.581 101.465H251.464C251.352 101.567 251.252 101.648 251.164 101.708C251.076 101.768 250.969 101.818 250.843 101.858C250.719 101.9 250.582 101.921 250.432 101.921C250.246 101.921 250.083 101.888 249.943 101.822C249.803 101.754 249.695 101.657 249.619 101.531C249.545 101.405 249.508 101.255 249.508 101.081C249.508 100.799 249.604 100.586 249.796 100.442C249.988 100.296 250.232 100.201 250.528 100.157C250.826 100.111 251.173 100.092 251.569 100.1L251.758 100.508ZM256.03 98.7255V99.2655H253.15V98.7255H254.197H254.284H256.03ZM255.31 101.918C254.988 101.92 254.734 101.883 254.548 101.807C254.364 101.729 254.228 101.594 254.14 101.402C254.052 101.208 254.008 100.934 254.008 100.58V97.7895H254.674V100.562C254.674 100.77 254.697 100.93 254.743 101.042C254.789 101.152 254.862 101.229 254.962 101.273C255.062 101.317 255.202 101.339 255.382 101.339C255.598 101.339 255.838 101.306 256.102 101.24V101.813C255.988 101.847 255.863 101.873 255.727 101.891C255.591 101.909 255.452 101.918 255.31 101.918ZM256.904 100.283C256.904 99.9325 256.97 99.6355 257.102 99.3915C257.234 99.1475 257.42 98.9635 257.66 98.8395C257.9 98.7155 258.181 98.6535 258.503 98.6535C258.801 98.6535 259.055 98.7055 259.265 98.8095C259.475 98.9135 259.635 99.0705 259.745 99.2805C259.855 99.4885 259.91 99.7465 259.91 100.055V100.34H257.42V99.9195H259.403L259.259 100.043V99.9225C259.259 99.6765 259.189 99.4925 259.049 99.3705C258.909 99.2465 258.72 99.1845 258.482 99.1845C258.198 99.1845 257.977 99.2765 257.819 99.4605C257.661 99.6425 257.582 99.9165 257.582 100.283C257.582 100.645 257.659 100.92 257.813 101.108C257.969 101.294 258.191 101.387 258.479 101.387C258.663 101.387 258.82 101.349 258.95 101.273C259.082 101.195 259.183 101.077 259.253 100.919L259.898 101.018C259.826 101.22 259.721 101.388 259.583 101.522C259.445 101.656 259.282 101.756 259.094 101.822C258.908 101.888 258.702 101.921 258.476 101.921C258.162 101.921 257.887 101.859 257.651 101.735C257.415 101.609 257.231 101.424 257.099 101.18C256.969 100.934 256.904 100.635 256.904 100.283Z" fill="#4B5563"/>
<path d="M287.986 96.9735C287.986 96.7743 288.15 96.5985 288.361 96.5985C288.561 96.5985 288.736 96.7743 288.736 96.9735V97.3485H290.236V96.9735C290.236 96.7743 290.4 96.5985 290.611 96.5985C290.811 96.5985 290.986 96.7743 290.986 96.9735V97.3485H291.549C291.854 97.3485 292.111 97.6063 292.111 97.911V98.4735H286.861V97.911C286.861 97.6063 287.107 97.3485 287.424 97.3485H287.986V96.9735ZM292.111 98.8485V102.036C292.111 102.352 291.854 102.599 291.549 102.599H287.424C287.107 102.599 286.861 102.352 286.861 102.036V98.8485H292.111Z" fill="#4B5563"/>
<rect x="303.546" y="91.9612" width="79.3427" height="15.7747" rx="2.51423" fill="#121521"/>
<path d="M311.928 100.883C311.872 101.117 311.773 101.312 311.631 101.468C311.491 101.622 311.321 101.736 311.121 101.81C310.921 101.884 310.701 101.921 310.461 101.921C310.147 101.921 309.873 101.859 309.639 101.735C309.405 101.609 309.223 101.424 309.093 101.18C308.965 100.934 308.901 100.635 308.901 100.283C308.901 99.9225 308.968 99.6215 309.102 99.3795C309.238 99.1355 309.425 98.9535 309.663 98.8335C309.903 98.7135 310.18 98.6535 310.494 98.6535C310.758 98.6535 310.993 98.6955 311.199 98.7795C311.407 98.8615 311.574 98.9865 311.7 99.1545C311.828 99.3225 311.904 99.5295 311.928 99.7755L311.277 99.8325C311.243 99.6165 311.156 99.4545 311.016 99.3465C310.878 99.2385 310.698 99.1845 310.476 99.1845C310.182 99.1845 309.959 99.2785 309.807 99.4665C309.657 99.6525 309.582 99.9245 309.582 100.283C309.582 100.529 309.617 100.734 309.687 100.898C309.757 101.062 309.858 101.185 309.99 101.267C310.124 101.347 310.283 101.387 310.467 101.387C310.679 101.387 310.853 101.337 310.989 101.237C311.127 101.135 311.226 100.986 311.286 100.79L311.928 100.883ZM313.822 101.849V99.0735L313.957 99.2595H312.754V98.7255L314.407 98.6535L314.488 98.7345V101.849H313.822ZM312.754 101.309H315.556V101.849H312.754V101.309ZM314.035 98.0325C313.943 98.0325 313.862 98.0155 313.792 97.9815C313.722 97.9455 313.667 97.8945 313.627 97.8285C313.587 97.7625 313.567 97.6855 313.567 97.5975C313.567 97.4655 313.61 97.3615 313.696 97.2855C313.782 97.2075 313.895 97.1685 314.035 97.1685C314.175 97.1685 314.288 97.2075 314.374 97.2855C314.46 97.3615 314.503 97.4655 314.503 97.5975C314.503 97.7315 314.46 97.8375 314.374 97.9155C314.288 97.9935 314.175 98.0325 314.035 98.0325ZM319.19 98.7255V99.2655H316.31V98.7255H317.357H317.444H319.19ZM318.47 101.918C318.148 101.92 317.894 101.883 317.708 101.807C317.524 101.729 317.388 101.594 317.3 101.402C317.212 101.208 317.168 100.934 317.168 100.58V97.7895H317.834V100.562C317.834 100.77 317.857 100.93 317.903 101.042C317.949 101.152 318.022 101.229 318.122 101.273C318.222 101.317 318.362 101.339 318.542 101.339C318.758 101.339 318.998 101.306 319.262 101.24V101.813C319.148 101.847 319.023 101.873 318.887 101.891C318.751 101.909 318.612 101.918 318.47 101.918ZM319.982 98.7255H320.696L321.662 101.012H321.704L322.55 98.7255H323.219L322.04 101.747C321.93 102.031 321.809 102.268 321.677 102.458C321.545 102.648 321.382 102.796 321.188 102.902C320.996 103.008 320.763 103.061 320.489 103.061C320.433 103.061 320.378 103.058 320.324 103.052C320.272 103.048 320.222 103.042 320.174 103.034C320.15 103.03 320.13 103.026 320.114 103.022V102.428C320.13 102.432 320.149 102.436 320.171 102.44C320.225 102.452 320.279 102.461 320.333 102.467C320.387 102.473 320.444 102.476 320.504 102.476C320.66 102.476 320.79 102.453 320.894 102.407C321 102.363 321.084 102.304 321.146 102.23C321.208 102.156 321.257 102.07 321.293 101.972L321.449 101.513L321.581 101.732L321.476 102.176L319.982 98.7255Z" fill="#4B5563"/>
<path d="M375.485 97.161V98.8485H376.798C377.103 98.8485 377.36 99.1063 377.36 99.411V102.036C377.36 102.352 377.103 102.599 376.798 102.599H374.923H373.798H373.423H370.423C370.106 102.599 369.86 102.352 369.86 102.036V99.411V98.286C369.86 97.9813 370.106 97.7235 370.423 97.7235H370.61V96.8798C370.61 96.7274 370.728 96.5985 370.892 96.5985C371.044 96.5985 371.173 96.7274 371.173 96.8798V97.7235H371.923V96.8798C371.923 96.7274 372.04 96.5985 372.204 96.5985C372.356 96.5985 372.485 96.7274 372.485 96.8798V97.7235H373.235V97.161C373.235 96.8563 373.481 96.5985 373.798 96.5985H374.923C375.228 96.5985 375.485 96.8563 375.485 97.161ZM376.61 100.911C376.61 100.817 376.517 100.724 376.423 100.724H376.048C375.942 100.724 375.86 100.817 375.86 100.911V101.286C375.86 101.391 375.942 101.474 376.048 101.474H376.423C376.517 101.474 376.61 101.391 376.61 101.286V100.911ZM372.673 101.474C372.767 101.474 372.86 101.391 372.86 101.286V100.911C372.86 100.817 372.767 100.724 372.673 100.724H372.298C372.192 100.724 372.11 100.817 372.11 100.911V101.286C372.11 101.391 372.192 101.474 372.298 101.474H372.673ZM371.36 101.286V100.911C371.36 100.817 371.267 100.724 371.173 100.724H370.798C370.692 100.724 370.61 100.817 370.61 100.911V101.286C370.61 101.391 370.692 101.474 370.798 101.474H371.173C371.267 101.474 371.36 101.391 371.36 101.286ZM376.423 99.5985H376.048C375.942 99.5985 375.86 99.6923 375.86 99.786V100.161C375.86 100.266 375.942 100.349 376.048 100.349H376.423C376.517 100.349 376.61 100.266 376.61 100.161V99.786C376.61 99.6923 376.517 99.5985 376.423 99.5985ZM372.86 98.661C372.86 98.5673 372.767 98.4735 372.673 98.4735H372.298C372.192 98.4735 372.11 98.5673 372.11 98.661V99.036C372.11 99.1415 372.192 99.2235 372.298 99.2235H372.673C372.767 99.2235 372.86 99.1415 372.86 99.036V98.661ZM371.173 98.4735H370.798C370.692 98.4735 370.61 98.5673 370.61 98.661V99.036C370.61 99.1415 370.692 99.2235 370.798 99.2235H371.173C371.267 99.2235 371.36 99.1415 371.36 99.036V98.661C371.36 98.5673 371.267 98.4735 371.173 98.4735ZM372.86 100.161V99.786C372.86 99.6923 372.767 99.5985 372.673 99.5985H372.298C372.192 99.5985 372.11 99.6923 372.11 99.786V100.161C372.11 100.266 372.192 100.349 372.298 100.349H372.673C372.767 100.349 372.86 100.266 372.86 100.161ZM371.173 100.349C371.267 100.349 371.36 100.266 371.36 100.161V99.786C371.36 99.6923 371.267 99.5985 371.173 99.5985H370.798C370.692 99.5985 370.61 99.6923 370.61 99.786V100.161C370.61 100.266 370.692 100.349 370.798 100.349H371.173ZM374.735 99.786C374.735 99.6923 374.642 99.5985 374.548 99.5985H374.173C374.067 99.5985 373.985 99.6923 373.985 99.786V100.161C373.985 100.266 374.067 100.349 374.173 100.349H374.548C374.642 100.349 374.735 100.266 374.735 100.161V99.786ZM374.548 97.3485H374.173C374.067 97.3485 373.985 97.4423 373.985 97.536V97.911C373.985 98.0165 374.067 98.0985 374.173 98.0985H374.548C374.642 98.0985 374.735 98.0165 374.735 97.911V97.536C374.735 97.4423 374.642 97.3485 374.548 97.3485ZM374.735 98.661C374.735 98.5673 374.642 98.4735 374.548 98.4735H374.173C374.067 98.4735 373.985 98.5673 373.985 98.661V99.036C373.985 99.1415 374.067 99.2235 374.173 99.2235H374.548C374.642 99.2235 374.735 99.1415 374.735 99.036V98.661Z" fill="#4B5563"/>
<rect x="388.546" y="91.9916" width="60.3416" height="15.7139" rx="2.51423" fill="#121521"/>
<path d="M395.101 101.849V99.0735L395.236 99.2595H394.033V98.7255L395.686 98.6535L395.767 98.7345V101.849H395.101ZM394.033 101.309H396.835V101.849H394.033V101.309ZM395.314 98.0325C395.222 98.0325 395.141 98.0155 395.071 97.9815C395.001 97.9455 394.946 97.8945 394.906 97.8285C394.866 97.7625 394.846 97.6855 394.846 97.5975C394.846 97.4655 394.889 97.3615 394.975 97.2855C395.061 97.2075 395.174 97.1685 395.314 97.1685C395.454 97.1685 395.567 97.2075 395.653 97.2855C395.739 97.3615 395.782 97.4655 395.782 97.5975C395.782 97.7315 395.739 97.8375 395.653 97.9155C395.567 97.9935 395.454 98.0325 395.314 98.0325ZM399.83 97.2585H400.496V101.849H399.923L399.86 101.285H399.83V97.2585ZM397.622 100.295C397.622 99.9625 397.669 99.6735 397.763 99.4275C397.857 99.1815 397.995 98.9915 398.177 98.8575C398.361 98.7235 398.584 98.6565 398.846 98.6565C399.062 98.6565 399.248 98.6995 399.404 98.7855C399.562 98.8695 399.691 98.9835 399.791 99.1275H399.938V99.5955C399.81 99.4595 399.678 99.3615 399.542 99.3015C399.406 99.2415 399.265 99.2115 399.119 99.2115C398.941 99.2115 398.791 99.2515 398.669 99.3315C398.549 99.4095 398.458 99.5295 398.396 99.6915C398.334 99.8515 398.303 100.053 398.303 100.295C398.303 100.535 398.333 100.734 398.393 100.892C398.455 101.05 398.546 101.168 398.666 101.246C398.786 101.324 398.935 101.363 399.113 101.363C399.261 101.363 399.403 101.334 399.539 101.276C399.675 101.216 399.808 101.118 399.938 100.982V101.45H399.794C399.678 101.594 399.54 101.709 399.38 101.795C399.22 101.881 399.034 101.924 398.822 101.924C398.562 101.924 398.342 101.857 398.162 101.723C397.984 101.587 397.849 101.398 397.757 101.156C397.667 100.912 397.622 100.625 397.622 100.295Z" fill="#4B5563"/>
<path d="M440.426 102.449L440.777 97.4685H441.584L441.233 102.449H440.426ZM441.854 102.449L442.205 97.4685H443.012L442.661 102.449H441.854ZM440.117 98.6025H443.456V99.4155H440.117V98.6025ZM439.985 100.502H443.324V101.315H439.985V100.502Z" fill="#4B5563"/>
<path d="M142.129 113.079H129.872C129.091 113.079 128.458 114.837 128.458 117.007V124.864C128.458 127.034 129.091 128.793 129.872 128.793H142.129C142.91 128.793 143.543 127.034 143.543 124.864V117.007C143.543 114.837 142.91 113.079 142.129 113.079Z" fill="#818CF8"/>
<rect x="149.2" y="113.048" width="63.205" height="15.7747" rx="2.51423" fill="#121521"/>
<rect x="218.062" y="112.764" width="79.8268" height="16.3425" rx="2.51423" fill="#121521"/>
<rect x="303.546" y="113.048" width="79.3427" height="15.7747" rx="2.51423" fill="#121521"/>
<rect x="388.546" y="113.079" width="60.3416" height="15.7139" rx="2.51423" fill="#121521"/>
<path d="M142.129 134.45H129.872C129.091 134.45 128.458 136.208 128.458 138.378V146.235C128.458 148.405 129.091 150.164 129.872 150.164H142.129C142.91 150.164 143.543 148.405 143.543 146.235V138.378C143.543 136.208 142.91 134.45 142.129 134.45Z" fill="#121521"/>
<rect x="149.2" y="134.419" width="63.205" height="15.7747" rx="2.51423" fill="#121521"/>
<rect x="218.062" y="134.135" width="79.8268" height="16.3425" rx="2.51423" fill="#121521"/>
<rect x="303.546" y="134.419" width="79.3427" height="15.7747" rx="2.51423" fill="#121521"/>
<rect x="388.546" y="134.45" width="60.3416" height="15.7139" rx="2.51423" fill="#121521"/>
<path d="M142.129 155.821H129.872C129.091 155.821 128.458 157.579 128.458 159.749V167.606C128.458 169.776 129.091 171.535 129.872 171.535H142.129C142.91 171.535 143.543 169.776 143.543 167.606V159.749C143.543 157.579 142.91 155.821 142.129 155.821Z" fill="#121521"/>
<rect x="149.2" y="155.79" width="63.205" height="15.7747" rx="2.51423" fill="#121521"/>
<rect x="218.062" y="155.506" width="79.8268" height="16.3425" rx="2.51423" fill="#121521"/>
<rect x="303.546" y="155.79" width="79.3427" height="15.7747" rx="2.51423" fill="#121521"/>
<rect x="388.546" y="155.821" width="60.3416" height="15.7139" rx="2.51423" fill="#121521"/>
<path d="M142.129 177.192H129.872C129.091 177.192 128.458 178.95 128.458 181.12V188.977C128.458 191.147 129.091 192.905 129.872 192.905H142.129C142.91 192.905 143.543 191.147 143.543 188.977V181.12C143.543 178.95 142.91 177.192 142.129 177.192Z" fill="#121521"/>
<rect x="149.2" y="177.161" width="63.205" height="15.7747" rx="2.51423" fill="#121521"/>
<rect x="218.062" y="176.877" width="79.8268" height="16.3425" rx="2.51423" fill="#121521"/>
<rect x="303.546" y="177.161" width="79.3427" height="15.7747" rx="2.51423" fill="#121521"/>
<rect x="388.546" y="177.192" width="60.3416" height="15.7139" rx="2.51423" fill="#121521"/>
<path d="M85.5607 97.1393C84.9749 96.5535 84.0251 96.5535 83.4393 97.1393L73.8934 106.685C73.3076 107.271 73.3076 108.221 73.8934 108.807C74.4792 109.392 75.4289 109.392 76.0147 108.807L84.5 100.321L92.9853 108.807C93.5711 109.392 94.5208 109.392 95.1066 108.807C95.6924 108.221 95.6924 107.271 95.1066 106.685L85.5607 97.1393ZM342.5 271.2V269.7C271.512 269.7 207.312 250.403 160.902 219.284C114.482 188.157 86 145.319 86 98.2H84.5H83C83 146.626 112.273 190.288 159.231 221.775C206.199 253.269 270.999 272.7 342.5 272.7V271.2Z" fill="url(#paint0_linear_8002_8248)"/>
<path d="M184.561 127.139C183.975 126.554 183.025 126.554 182.439 127.139L172.893 136.685C172.308 137.271 172.308 138.221 172.893 138.807C173.479 139.392 174.429 139.392 175.015 138.807L183.5 130.321L191.985 138.807C192.571 139.392 193.521 139.392 194.107 138.807C194.692 138.221 194.692 137.271 194.107 136.685L184.561 127.139ZM342.5 271.2V269.7C255.362 269.7 185 206.203 185 128.2H183.5H182C182 208.151 254.012 272.7 342.5 272.7V271.2Z" fill="url(#paint1_linear_8002_8248)"/>
<path d="M418.439 101.139C419.025 100.554 419.975 100.554 420.561 101.139L430.107 110.685C430.692 111.271 430.692 112.221 430.107 112.807C429.521 113.392 428.571 113.392 427.985 112.807L419.5 104.321L411.015 112.807C410.429 113.392 409.479 113.392 408.893 112.807C408.308 112.221 408.308 111.271 408.893 110.685L418.439 101.139ZM342.5 271.2V269.7C362.815 269.7 381.695 251.56 395.582 221.079C409.409 190.733 418 148.704 418 102.2H419.5H421C421 149.032 412.354 191.503 398.312 222.323C384.331 253.008 364.711 272.7 342.5 272.7V271.2Z" fill="url(#paint2_linear_8002_8248)"/>
<path d="M284.561 168.139C283.975 167.554 283.025 167.554 282.439 168.139L272.893 177.685C272.308 178.271 272.308 179.221 272.893 179.807C273.479 180.392 274.429 180.392 275.015 179.807L283.5 171.321L291.985 179.807C292.571 180.392 293.521 180.392 294.107 179.807C294.692 179.221 294.692 178.271 294.107 177.685L284.561 168.139ZM342.5 271.2V269.7C326.969 269.7 312.624 258.805 302.079 240.574C291.556 222.382 285 197.151 285 169.2H283.5H282C282 197.582 288.651 223.351 299.482 242.076C310.291 260.762 325.446 272.7 342.5 272.7V271.2Z" fill="url(#paint3_linear_8002_8248)"/>
<rect x="342.992" y="282.217" width="8.89525" height="6.05893" rx="3.02946" fill="url(#paint4_linear_8002_8248)"/>
<rect x="344.21" y="283.435" width="6.45919" height="3.62286" rx="1.81143" stroke="url(#paint5_radial_8002_8248)" stroke-opacity="0.46" stroke-width="2.43607"/>
<rect x="353.834" y="282.217" width="8.89525" height="6.05893" rx="3.02946" fill="url(#paint6_linear_8002_8248)"/>
<rect x="355.052" y="283.435" width="6.45919" height="3.62286" rx="1.81143" stroke="url(#paint7_radial_8002_8248)" stroke-opacity="0.46" stroke-width="2.43607"/>
<path d="M293.153 286.464H414.254C416.151 286.464 417.689 288.002 417.689 289.9C417.689 291.797 416.151 293.336 414.254 293.336H293.153C291.256 293.336 289.718 291.797 289.718 289.9C289.718 288.003 291.256 286.464 293.153 286.464Z" fill="url(#paint8_linear_8002_8248)" stroke="#1F2937" stroke-width="2.43607"/>
<path d="M346.18 152.418H505.82C509.941 152.418 513.282 155.759 513.282 159.88V285.52C513.282 289.641 509.941 292.982 505.82 292.982H346.18C342.059 292.982 338.718 289.641 338.718 285.52V159.88C338.718 155.759 342.059 152.418 346.18 152.418Z" fill="url(#paint9_linear_8002_8248)" stroke="#1F2937" stroke-width="2.43607"/>
<rect x="342.873" y="152.626" width="170.272" height="140.709" rx="7.46171" fill="url(#paint10_linear_8002_8248)" stroke="#1F2937" stroke-width="2.43607"/>
<ellipse cx="33.1206" cy="37.0635" rx="33.1206" ry="37.0635" transform="matrix(-1 0 0 1 466.26 189.26)" fill="#030712"/>
<path fill-rule="evenodd" clip-rule="evenodd" d="M419.118 230.073C418.764 230.651 418.77 231.38 419.132 231.952L425.698 242.308C426.124 242.981 426.945 243.287 427.707 243.058L446.653 237.375C447.687 237.064 448.208 235.911 447.756 234.931L435.576 208.511C434.982 207.222 433.192 207.117 432.45 208.326L419.118 230.073ZM435.253 214.551C434.994 213.952 434.117 214.044 433.989 214.684L429.3 238.031C429.201 238.523 429.662 238.944 430.143 238.8L443.233 234.893C443.615 234.779 443.812 234.357 443.654 233.99L435.253 214.551Z" fill="#F9FAFB"/>
<defs>
<linearGradient id="paint0_linear_8002_8248" x1="213.5" y1="98.2" x2="213.5" y2="299.7" gradientUnits="userSpaceOnUse">
<stop stop-color="#818CF8"/>
<stop offset="1" stop-color="#111827"/>
</linearGradient>
<linearGradient id="paint1_linear_8002_8248" x1="263" y1="128.2" x2="263" y2="294.758" gradientUnits="userSpaceOnUse">
<stop stop-color="#818CF8"/>
<stop offset="1" stop-color="#111827"/>
</linearGradient>
<linearGradient id="paint2_linear_8002_8248" x1="381" y1="102.2" x2="381" y2="299.041" gradientUnits="userSpaceOnUse">
<stop stop-color="#818CF8"/>
<stop offset="1" stop-color="#111827"/>
</linearGradient>
<linearGradient id="paint3_linear_8002_8248" x1="313" y1="169.2" x2="313" y2="288.003" gradientUnits="userSpaceOnUse">
<stop stop-color="#818CF8"/>
<stop offset="1" stop-color="#111827"/>
</linearGradient>
<linearGradient id="paint4_linear_8002_8248" x1="350.445" y1="282.921" x2="344.127" y2="286.631" gradientUnits="userSpaceOnUse">
<stop stop-color="#B9CAD2"/>
<stop offset="1" stop-color="#DBE6EB"/>
</linearGradient>
<radialGradient id="paint5_radial_8002_8248" cx="0" cy="0" r="1" gradientTransform="matrix(3.18789 -4.07647 5.98476 15.9101 344.278 287.81)" gradientUnits="userSpaceOnUse">
<stop stop-color="white"/>
<stop offset="1" stop-color="white" stop-opacity="0"/>
</radialGradient>
<linearGradient id="paint6_linear_8002_8248" x1="361.287" y1="282.921" x2="354.969" y2="286.631" gradientUnits="userSpaceOnUse">
<stop stop-color="#B9CAD2"/>
<stop offset="1" stop-color="#DBE6EB"/>
</linearGradient>
<radialGradient id="paint7_radial_8002_8248" cx="0" cy="0" r="1" gradientTransform="matrix(3.18789 -4.07647 5.98476 15.9101 355.119 287.81)" gradientUnits="userSpaceOnUse">
<stop stop-color="white"/>
<stop offset="1" stop-color="white" stop-opacity="0"/>
</radialGradient>
<linearGradient id="paint8_linear_8002_8248" x1="338.595" y1="303.374" x2="289.032" y2="268.708" gradientUnits="userSpaceOnUse">
<stop stop-color="#161D2B"/>
<stop offset="1" stop-color="#4A5568"/>
</linearGradient>
<linearGradient id="paint9_linear_8002_8248" x1="356" y1="298.7" x2="523.302" y2="-207.506" gradientUnits="userSpaceOnUse">
<stop stop-color="#161D2B"/>
<stop offset="1" stop-color="#4A5568"/>
</linearGradient>
<linearGradient id="paint10_linear_8002_8248" x1="408" y1="430.2" x2="482.282" y2="181.749" gradientUnits="userSpaceOnUse">
<stop stop-color="#161D2B"/>
<stop offset="1" stop-color="#4A5568"/>
</linearGradient>
</defs>
</svg>
