<svg width="561" height="215" viewBox="0 0 561 215" fill="none" xmlns="http://www.w3.org/2000/svg">
<path d="M5.5 35.5H539.5C542.538 35.5 545 37.9624 545 41V208.608C545 211.646 542.538 214.108 539.5 214.108H5.5C2.46245 214.108 2.474e-05 211.646 0 208.608V41C0 37.9624 2.46243 35.5 5.5 35.5Z" fill="#0A101D"/>
<path d="M5.5 35.5H539.5C542.538 35.5 545 37.9624 545 41V208.608C545 211.646 542.538 214.108 539.5 214.108H5.5C2.46245 214.108 2.474e-05 211.646 0 208.608V41C0 37.9624 2.46243 35.5 5.5 35.5Z" stroke="#1F2937"/>
<rect x="19.5" y="55" width="33.3665" height="30.5882" rx="7.7466" fill="#030712"/>
<path d="M39.404 67.1845L38.9538 66.7344C37.2857 65.0928 34.6115 65.0928 32.9434 66.7344C31.3018 68.4025 31.3018 71.0767 32.9434 72.7448C34.6115 74.3864 37.2857 74.3864 38.9538 72.7448C39.2716 72.4006 39.8011 72.4006 40.1453 72.7448C40.4631 73.0625 40.4631 73.5921 40.1453 73.9363C37.8153 76.2399 34.082 76.2399 31.7519 73.9363C29.4484 71.6063 29.4484 67.8729 31.7519 65.5429C34.082 63.2393 37.8153 63.2393 40.1453 65.5429L40.6219 66.0195V64.6427C40.6219 64.1925 40.9926 63.7954 41.4692 63.7954C41.9193 63.7954 42.3165 64.1925 42.3165 64.6427V68.0318C42.3165 68.5084 41.9193 68.8791 41.4692 68.8791H38.0801C37.6035 68.8791 37.2328 68.5084 37.2328 68.0318C37.2328 67.5817 37.6035 67.1845 38.0801 67.1845H39.404Z" fill="#4B5563"/>
<rect x="60.6133" y="55" width="97.7963" height="30.5882" rx="7.7466" fill="#030712"/>
<path d="M76.0437 73.8101V65.0501H77.6157V73.8101H76.0437ZM80.8617 70.3301H76.9797V69.0761H80.8617V70.3301ZM76.8597 66.3521V65.0501H81.6117V66.3521H76.8597ZM85.5371 73.8101V68.3321L85.8071 68.7161H83.4491V67.4801L86.8811 67.3361L87.0611 67.5101V73.8101H85.5371ZM83.4491 72.5681H89.1431V73.8101H83.4491V72.5681ZM86.0411 66.2621C85.8371 66.2621 85.6571 66.2241 85.5011 66.1481C85.3451 66.0681 85.2231 65.9561 85.1351 65.8121C85.0511 65.6641 85.0091 65.4941 85.0091 65.3021C85.0091 65.0101 85.1031 64.7801 85.2911 64.6121C85.4831 64.4401 85.7331 64.3541 86.0411 64.3541C86.3531 64.3541 86.6031 64.4401 86.7911 64.6121C86.9831 64.7801 87.0791 65.0101 87.0791 65.3021C87.0791 65.5941 86.9831 65.8281 86.7911 66.0041C86.6031 66.1761 86.3531 66.2621 86.0411 66.2621ZM90.8905 72.5681H96.5905V73.8101H90.8905V72.5681ZM92.9785 73.8101V65.4761L93.2485 65.8661H90.8965V64.6301L94.3285 64.4801L94.5085 64.6601L94.5025 73.8101H92.9785ZM103.81 67.4801V68.7221H98.0499V67.4801H100.12H100.294H103.81ZM102.364 73.9721C101.696 73.9721 101.172 73.8961 100.792 73.7441C100.412 73.5881 100.134 73.3141 99.9579 72.9221C99.7819 72.5301 99.6939 71.9661 99.6939 71.2301V65.6741H101.218V71.2181C101.218 71.6061 101.26 71.9021 101.344 72.1061C101.432 72.3101 101.57 72.4521 101.758 72.5321C101.946 72.6121 102.21 72.6521 102.55 72.6521C102.958 72.6521 103.426 72.5881 103.954 72.4601V73.7621C103.722 73.8301 103.472 73.8821 103.204 73.9181C102.936 73.9541 102.656 73.9721 102.364 73.9721ZM105.497 70.6361C105.497 69.9201 105.631 69.3161 105.899 68.8241C106.171 68.3281 106.551 67.9561 107.039 67.7081C107.527 67.4601 108.097 67.3361 108.749 67.3361C109.357 67.3361 109.875 67.4441 110.303 67.6601C110.731 67.8721 111.055 68.1921 111.275 68.6201C111.499 69.0481 111.611 69.5821 111.611 70.2221V70.8221H106.691V69.8921H110.393L110.123 70.1321V69.8921C110.123 69.4441 109.995 69.1061 109.739 68.8781C109.487 68.6461 109.141 68.5301 108.701 68.5301C108.181 68.5301 107.775 68.7021 107.483 69.0461C107.191 69.3901 107.045 69.9201 107.045 70.6361C107.045 71.3281 107.185 71.8541 107.465 72.2141C107.749 72.5741 108.157 72.7541 108.689 72.7541C109.025 72.7541 109.313 72.6841 109.553 72.5441C109.797 72.4001 109.983 72.1841 110.111 71.8961L111.593 72.1121C111.445 72.5361 111.225 72.8861 110.933 73.1621C110.645 73.4341 110.309 73.6341 109.925 73.7621C109.545 73.8901 109.133 73.9541 108.689 73.9541C108.053 73.9541 107.495 73.8281 107.015 73.5761C106.535 73.3241 106.161 72.9501 105.893 72.4541C105.629 71.9581 105.497 71.3521 105.497 70.6361ZM116.101 68.6441H116.191V73.8041H114.661V68.4521L114.931 68.7221H113.167V67.4801H115.993L116.101 68.6441ZM119.083 68.8541C118.575 68.8541 118.151 68.8701 117.811 68.9021C117.471 68.9341 117.149 69.0001 116.845 69.1001C116.545 69.1961 116.237 69.3401 115.921 69.5321V68.4161H116.275C116.583 68.0441 116.901 67.7721 117.229 67.6001C117.561 67.4281 117.973 67.3421 118.465 67.3421C118.693 67.3421 118.899 67.3621 119.083 67.4021V68.8541ZM113.167 72.5681H118.177V73.8101H113.167V72.5681ZM123.548 67.3361C124.124 67.3361 124.612 67.4081 125.012 67.5521C125.412 67.6921 125.714 67.9041 125.918 68.1881C126.122 68.4721 126.218 68.8201 126.206 69.2321L124.826 69.3401C124.798 69.0321 124.672 68.8041 124.448 68.6561C124.224 68.5041 123.89 68.4281 123.446 68.4281C123.042 68.4281 122.73 68.4881 122.51 68.6081C122.29 68.7241 122.18 68.8961 122.18 69.1241C122.18 69.2641 122.226 69.3821 122.318 69.4781C122.414 69.5701 122.554 69.6501 122.738 69.7181C122.922 69.7861 123.2 69.8661 123.572 69.9581C123.704 69.9901 123.836 70.0221 123.968 70.0541C124.532 70.1821 124.974 70.3141 125.294 70.4501C125.614 70.5821 125.868 70.7661 126.056 71.0021C126.244 71.2341 126.338 71.5421 126.338 71.9261C126.338 72.3421 126.226 72.7021 126.002 73.0061C125.778 73.3101 125.444 73.5441 125 73.7081C124.56 73.8721 124.024 73.9541 123.392 73.9541C122.796 73.9541 122.298 73.8881 121.898 73.7561C121.502 73.6241 121.186 73.4161 120.95 73.1321C120.714 72.8441 120.554 72.4661 120.47 71.9981L121.868 71.8361C121.936 72.1081 122.042 72.3181 122.186 72.4661C122.33 72.6141 122.502 72.7161 122.702 72.7721C122.906 72.8241 123.162 72.8501 123.47 72.8501C123.778 72.8501 124.03 72.8181 124.226 72.7541C124.426 72.6861 124.572 72.5961 124.664 72.4841C124.756 72.3681 124.802 72.2421 124.802 72.1061C124.802 71.9461 124.74 71.8161 124.616 71.7161C124.492 71.6161 124.312 71.5301 124.076 71.4581C123.844 71.3861 123.466 71.2901 122.942 71.1701C122.458 71.0661 122.054 70.9361 121.73 70.7801C121.41 70.6241 121.162 70.4221 120.986 70.1741C120.81 69.9221 120.722 69.6121 120.722 69.2441C120.722 68.6401 120.958 68.1721 121.43 67.8401C121.906 67.5041 122.612 67.3361 123.548 67.3361Z" fill="#4B5563"/>
<path d="M139.491 64.9121C140.091 64.9121 140.601 65.0001 141.021 65.1761C141.445 65.3481 141.765 65.6041 141.981 65.9441C142.201 66.2841 142.311 66.6981 142.311 67.1861C142.311 67.6821 142.195 68.0921 141.963 68.4161C141.735 68.7361 141.441 68.9761 141.081 69.1361C140.725 69.2921 140.339 69.3901 139.923 69.4301V69.2081C140.403 69.2401 140.833 69.3241 141.213 69.4601C141.597 69.5921 141.913 69.8201 142.161 70.1441C142.413 70.4641 142.539 70.9021 142.539 71.4581C142.539 71.9741 142.421 72.4201 142.185 72.7961C141.949 73.1681 141.607 73.4541 141.159 73.6541C140.711 73.8541 140.171 73.9541 139.539 73.9541C138.899 73.9541 138.357 73.8581 137.913 73.6661C137.473 73.4741 137.137 73.1861 136.905 72.8021C136.673 72.4181 136.551 71.9401 136.539 71.3681L137.823 71.2481C137.871 71.6001 137.963 71.8921 138.099 72.1241C138.235 72.3561 138.421 72.5301 138.657 72.6461C138.893 72.7621 139.181 72.8201 139.521 72.8201C140.069 72.8201 140.475 72.6941 140.739 72.4421C141.007 72.1901 141.141 71.8541 141.141 71.4341C141.141 71.0661 141.043 70.7681 140.847 70.5401C140.651 70.3121 140.385 70.1481 140.049 70.0481C139.713 69.9441 139.319 69.8921 138.867 69.8921H138.717V68.8541H138.867C139.303 68.8541 139.679 68.7921 139.995 68.6681C140.315 68.5441 140.559 68.3661 140.727 68.1341C140.895 67.9021 140.979 67.6261 140.979 67.3061C140.979 67.0381 140.921 66.8081 140.805 66.6161C140.693 66.4201 140.527 66.2721 140.307 66.1721C140.091 66.0681 139.831 66.0161 139.527 66.0161C139.231 66.0161 138.975 66.0681 138.759 66.1721C138.543 66.2721 138.369 66.4301 138.237 66.6461C138.105 66.8581 138.019 67.1321 137.979 67.4681L136.731 67.3481C136.743 66.7841 136.865 66.3221 137.097 65.9621C137.333 65.5981 137.655 65.3321 138.063 65.1641C138.471 64.9961 138.947 64.9121 139.491 64.9121Z" fill="#1F2937"/>
<rect x="166.156" y="55" width="89.7963" height="30.5882" rx="7.7466" fill="#030712"/>
<path d="M181.533 73.8101V65.0501H183.303V73.8101H181.533ZM186.423 70.4561H182.571V69.0461H186.423V70.4561ZM182.421 66.5141V65.0501H187.167V66.5141H182.421ZM190.978 73.8101V68.3981L191.248 68.8001H188.944V67.4021L192.502 67.2461L192.706 67.4381V73.8101H190.978ZM188.944 72.4061H194.734V73.8101H188.944V72.4061ZM191.572 66.3401C191.348 66.3401 191.15 66.2981 190.978 66.2141C190.806 66.1261 190.672 66.0021 190.576 65.8421C190.48 65.6821 190.432 65.4981 190.432 65.2901C190.432 64.9741 190.536 64.7221 190.744 64.5341C190.952 64.3461 191.228 64.2521 191.572 64.2521C191.912 64.2521 192.186 64.3461 192.394 64.5341C192.602 64.7221 192.706 64.9741 192.706 65.2901C192.706 65.6101 192.602 65.8661 192.394 66.0581C192.186 66.2461 191.912 66.3401 191.572 66.3401ZM196.091 70.5881C196.091 69.8561 196.229 69.2421 196.505 68.7461C196.785 68.2461 197.173 67.8741 197.669 67.6301C198.169 67.3821 198.749 67.2581 199.409 67.2581C200.025 67.2581 200.551 67.3661 200.987 67.5821C201.423 67.7981 201.753 68.1281 201.977 68.5721C202.205 69.0121 202.319 69.5621 202.319 70.2221V70.8461H197.459V69.8381H200.891L200.639 70.0601V69.8261C200.639 69.4181 200.525 69.1101 200.297 68.9021C200.069 68.6901 199.755 68.5841 199.355 68.5841C198.879 68.5841 198.505 68.7441 198.233 69.0641C197.965 69.3841 197.831 69.8921 197.831 70.5881C197.831 71.2521 197.959 71.7581 198.215 72.1061C198.471 72.4501 198.845 72.6221 199.337 72.6221C199.637 72.6221 199.897 72.5581 200.117 72.4301C200.337 72.3021 200.509 72.1061 200.633 71.8421L202.307 72.0761C202.155 72.5201 201.927 72.8821 201.623 73.1621C201.319 73.4421 200.971 73.6441 200.579 73.7681C200.191 73.8921 199.775 73.9541 199.331 73.9541C198.687 73.9541 198.121 73.8281 197.633 73.5761C197.149 73.3201 196.771 72.9401 196.499 72.4361C196.227 71.9321 196.091 71.3161 196.091 70.5881ZM203.827 72.4061H209.623V73.8101H203.827V72.4061ZM205.861 73.8101L205.867 65.6321L206.137 66.0281H203.833V64.6301L207.391 64.4741L207.589 64.6661V73.8101H205.861ZM215.312 64.6301H217.034V73.8101H215.528L215.39 72.6581H215.312V64.6301ZM210.974 70.6301C210.974 69.9701 211.06 69.3881 211.232 68.8841C211.408 68.3801 211.676 67.9841 212.036 67.6961C212.4 67.4081 212.854 67.2641 213.398 67.2641C213.83 67.2641 214.2 67.3501 214.508 67.5221C214.816 67.6941 215.054 67.9161 215.222 68.1881H215.57V69.1481C215.354 68.9921 215.124 68.8761 214.88 68.8001C214.64 68.7241 214.402 68.6861 214.166 68.6861C213.838 68.6861 213.568 68.7561 213.356 68.8961C213.144 69.0321 212.984 69.2441 212.876 69.5321C212.768 69.8161 212.714 70.1821 212.714 70.6301C212.714 71.0781 212.766 71.4421 212.87 71.7221C212.978 71.9981 213.138 72.2041 213.35 72.3401C213.562 72.4721 213.832 72.5381 214.16 72.5381C214.404 72.5381 214.646 72.5001 214.886 72.4241C215.13 72.3481 215.358 72.2321 215.57 72.0761V73.0421H215.228C215.02 73.3141 214.76 73.5361 214.448 73.7081C214.14 73.8801 213.774 73.9661 213.35 73.9661C212.814 73.9661 212.37 73.8241 212.018 73.5401C211.666 73.2561 211.404 72.8661 211.232 72.3701C211.06 71.8701 210.974 71.2901 210.974 70.6301ZM221.656 67.2581C222.248 67.2581 222.748 67.3321 223.156 67.4801C223.564 67.6241 223.868 67.8401 224.068 68.1281C224.272 68.4121 224.364 68.7621 224.344 69.1781L222.79 69.2981C222.762 69.0181 222.65 68.8101 222.454 68.6741C222.258 68.5341 221.956 68.4641 221.548 68.4641C221.18 68.4641 220.896 68.5181 220.696 68.6261C220.5 68.7301 220.402 68.8821 220.402 69.0821C220.402 69.2141 220.448 69.3241 220.54 69.4121C220.636 69.4961 220.772 69.5701 220.948 69.6341C221.128 69.6941 221.402 69.7721 221.77 69.8681C221.902 69.8961 222.03 69.9261 222.154 69.9581C222.698 70.0941 223.126 70.2281 223.438 70.3601C223.754 70.4881 224.01 70.6741 224.206 70.9181C224.402 71.1581 224.5 71.4781 224.5 71.8781C224.5 72.3101 224.382 72.6821 224.146 72.9941C223.914 73.3021 223.57 73.5401 223.114 73.7081C222.658 73.8721 222.102 73.9541 221.446 73.9541C220.85 73.9541 220.352 73.8881 219.952 73.7561C219.556 73.6201 219.242 73.4081 219.01 73.1201C218.782 72.8321 218.626 72.4521 218.542 71.9801L220.114 71.8121C220.174 72.0521 220.264 72.2401 220.384 72.3761C220.504 72.5081 220.656 72.6021 220.84 72.6581C221.024 72.7141 221.258 72.7421 221.542 72.7421C221.826 72.7421 222.058 72.7121 222.238 72.6521C222.422 72.5921 222.554 72.5141 222.634 72.4181C222.718 72.3181 222.76 72.2061 222.76 72.0821C222.76 71.9341 222.698 71.8141 222.574 71.7221C222.454 71.6261 222.284 71.5461 222.064 71.4821C221.844 71.4141 221.48 71.3201 220.972 71.2001C220.504 71.0921 220.11 70.9581 219.79 70.7981C219.47 70.6381 219.22 70.4301 219.04 70.1741C218.86 69.9141 218.77 69.5941 218.77 69.2141C218.77 68.5901 219.012 68.1081 219.496 67.7681C219.984 67.4281 220.704 67.2581 221.656 67.2581Z" fill="#4B5563"/>
<path d="M237.034 64.9121C237.634 64.9121 238.144 65.0001 238.564 65.1761C238.988 65.3481 239.308 65.6041 239.524 65.9441C239.744 66.2841 239.854 66.6981 239.854 67.1861C239.854 67.6821 239.738 68.0921 239.506 68.4161C239.278 68.7361 238.984 68.9761 238.624 69.1361C238.268 69.2921 237.882 69.3901 237.466 69.4301V69.2081C237.946 69.2401 238.376 69.3241 238.756 69.4601C239.14 69.5921 239.456 69.8201 239.704 70.1441C239.956 70.4641 240.082 70.9021 240.082 71.4581C240.082 71.9741 239.964 72.4201 239.728 72.7961C239.492 73.1681 239.15 73.4541 238.702 73.6541C238.254 73.8541 237.714 73.9541 237.082 73.9541C236.442 73.9541 235.9 73.8581 235.456 73.6661C235.016 73.4741 234.68 73.1861 234.448 72.8021C234.216 72.4181 234.094 71.9401 234.082 71.3681L235.366 71.2481C235.414 71.6001 235.506 71.8921 235.642 72.1241C235.778 72.3561 235.964 72.5301 236.2 72.6461C236.436 72.7621 236.724 72.8201 237.064 72.8201C237.612 72.8201 238.018 72.6941 238.282 72.4421C238.55 72.1901 238.684 71.8541 238.684 71.4341C238.684 71.0661 238.586 70.7681 238.39 70.5401C238.194 70.3121 237.928 70.1481 237.592 70.0481C237.256 69.9441 236.862 69.8921 236.41 69.8921H236.26V68.8541H236.41C236.846 68.8541 237.222 68.7921 237.538 68.6681C237.858 68.5441 238.102 68.3661 238.27 68.1341C238.438 67.9021 238.522 67.6261 238.522 67.3061C238.522 67.0381 238.464 66.8081 238.348 66.6161C238.236 66.4201 238.07 66.2721 237.85 66.1721C237.634 66.0681 237.374 66.0161 237.07 66.0161C236.774 66.0161 236.518 66.0681 236.302 66.1721C236.086 66.2721 235.912 66.4301 235.78 66.6461C235.648 66.8581 235.562 67.1321 235.522 67.4681L234.274 67.3481C234.286 66.7841 234.408 66.3221 234.64 65.9621C234.876 65.5981 235.198 65.3321 235.606 65.1641C236.014 64.9961 236.49 64.9121 237.034 64.9121Z" fill="#1F2937"/>
<rect x="263.699" y="55" width="134.796" height="30.5882" rx="7.7466" fill="#030712"/>
<path d="M283.444 67.6421C283.408 67.3101 283.334 67.0481 283.222 66.8561C283.11 66.6601 282.958 66.5201 282.766 66.4361C282.574 66.3481 282.332 66.3041 282.04 66.3041C281.616 66.3041 281.3 66.3861 281.092 66.5501C280.884 66.7101 280.78 66.9381 280.78 67.2341C280.78 67.4781 280.846 67.6781 280.978 67.8341C281.114 67.9861 281.292 68.1141 281.512 68.2181C281.732 68.3181 282.046 68.4341 282.454 68.5661C283.074 68.7781 283.574 68.9881 283.954 69.1961C284.334 69.4041 284.634 69.6721 284.854 70.0001C285.074 70.3281 285.184 70.7421 285.184 71.2421C285.184 71.8141 285.044 72.3041 284.764 72.7121C284.484 73.1201 284.094 73.4301 283.594 73.6421C283.098 73.8541 282.528 73.9601 281.884 73.9601C281.26 73.9601 280.722 73.8681 280.27 73.6841C279.822 73.5001 279.462 73.2121 279.19 72.8201C278.922 72.4281 278.76 71.9261 278.704 71.3141L280.396 71.0621C280.476 71.5581 280.642 71.9241 280.894 72.1601C281.146 72.3961 281.516 72.5141 282.004 72.5141C282.472 72.5141 282.812 72.4201 283.024 72.2321C283.236 72.0441 283.342 71.7961 283.342 71.4881C283.342 71.2681 283.282 71.0861 283.162 70.9421C283.046 70.7981 282.868 70.6681 282.628 70.5521C282.388 70.4361 282.02 70.2881 281.524 70.1081C281.02 69.9281 280.586 69.7261 280.222 69.5021C279.862 69.2741 279.574 68.9881 279.358 68.6441C279.142 68.2961 279.034 67.8801 279.034 67.3961C279.034 66.8641 279.156 66.4141 279.4 66.0461C279.644 65.6741 279.998 65.3921 280.462 65.2001C280.926 65.0081 281.488 64.9121 282.148 64.9121C283.084 64.9121 283.808 65.1261 284.32 65.5541C284.832 65.9781 285.092 66.6181 285.1 67.4741L283.444 67.6421ZM286.517 73.8101V64.6301H288.239V73.8101H286.517ZM290.531 73.8101V69.5441C290.531 69.3161 290.497 69.1341 290.429 68.9981C290.365 68.8621 290.271 68.7661 290.147 68.7101C290.027 68.6541 289.881 68.6261 289.709 68.6261C289.393 68.6261 289.093 68.7081 288.809 68.8721C288.525 69.0361 288.251 69.2641 287.987 69.5561V68.3621H288.431C288.659 68.1101 288.875 67.9061 289.079 67.7501C289.283 67.5941 289.507 67.4741 289.751 67.3901C289.995 67.3021 290.271 67.2581 290.579 67.2581C290.951 67.2581 291.261 67.3221 291.509 67.4501C291.757 67.5781 291.943 67.7781 292.067 68.0501C292.191 68.3181 292.253 68.6681 292.253 69.1001V73.8101H290.531ZM300.018 70.6361C300.018 71.3841 299.876 72.0081 299.592 72.5081C299.312 73.0041 298.932 73.3701 298.452 73.6061C297.972 73.8381 297.43 73.9541 296.826 73.9541C296.222 73.9541 295.68 73.8381 295.2 73.6061C294.724 73.3701 294.344 73.0041 294.06 72.5081C293.776 72.0081 293.634 71.3841 293.634 70.6361C293.634 69.8841 293.776 69.2561 294.06 68.7521C294.344 68.2441 294.726 67.8681 295.206 67.6241C295.686 67.3801 296.226 67.2581 296.826 67.2581C297.426 67.2581 297.966 67.3801 298.446 67.6241C298.93 67.8681 299.312 68.2441 299.592 68.7521C299.876 69.2561 300.018 69.8841 300.018 70.6361ZM298.278 70.6301C298.278 70.1381 298.216 69.7421 298.092 69.4421C297.968 69.1381 297.798 68.9201 297.582 68.7881C297.37 68.6521 297.118 68.5841 296.826 68.5841C296.534 68.5841 296.28 68.6521 296.064 68.7881C295.848 68.9201 295.678 69.1381 295.554 69.4421C295.434 69.7421 295.374 70.1381 295.374 70.6301C295.374 71.1181 295.434 71.5101 295.554 71.8061C295.678 72.1021 295.846 72.3121 296.058 72.4361C296.274 72.5601 296.53 72.6221 296.826 72.6221C297.122 72.6221 297.376 72.5601 297.588 72.4361C297.8 72.3121 297.968 72.1021 298.092 71.8061C298.216 71.5101 298.278 71.1181 298.278 70.6301ZM302.432 67.4021L303.2 71.2421H303.284L304.31 68.1221H305.354L306.224 71.2421H306.332L307.118 67.4021H308.702L307.238 73.8101H305.846L304.766 70.2461H304.694L303.542 73.8101H302.246L300.794 67.4021H302.432ZM311.355 73.8101V68.3981L311.625 68.8001H309.819V67.4021L312.879 67.2461L313.077 67.4381V73.8101H311.355ZM309.819 72.4061H314.601V73.8101H309.819V72.4061ZM311.961 66.4001C311.737 66.4001 311.539 66.3581 311.367 66.2741C311.195 66.1861 311.061 66.0621 310.965 65.9021C310.869 65.7421 310.821 65.5581 310.821 65.3501C310.821 65.0341 310.925 64.7821 311.133 64.5941C311.341 64.4061 311.617 64.3121 311.961 64.3121C312.301 64.3121 312.575 64.4061 312.783 64.5941C312.991 64.7821 313.095 65.0341 313.095 65.3501C313.095 65.6701 312.991 65.9261 312.783 66.1181C312.575 66.3061 312.301 66.4001 311.961 66.4001ZM318.005 73.8101H316.283V67.4021H317.789L317.903 68.5601H318.005V73.8101ZM320.297 73.8101V69.5441C320.297 69.3161 320.263 69.1341 320.195 68.9981C320.131 68.8621 320.037 68.7661 319.913 68.7101C319.793 68.6541 319.647 68.6261 319.475 68.6261C319.155 68.6261 318.853 68.7081 318.569 68.8721C318.289 69.0361 318.015 69.2641 317.747 69.5561V68.3621H318.095C318.431 67.9941 318.773 67.7181 319.121 67.5341C319.473 67.3501 319.879 67.2581 320.339 67.2581C320.711 67.2581 321.021 67.3221 321.269 67.4501C321.517 67.5781 321.703 67.7781 321.827 68.0501C321.955 68.3181 322.019 68.6681 322.019 69.1001V73.8101H320.297ZM323.4 70.2401C323.4 69.6561 323.494 69.1401 323.682 68.6921C323.87 68.2441 324.144 67.8941 324.504 67.6421C324.864 67.3901 325.296 67.2641 325.8 67.2641C326.092 67.2641 326.358 67.3061 326.598 67.3901C326.838 67.4701 327.046 67.5801 327.222 67.7201C327.398 67.8561 327.54 68.0121 327.648 68.1881H327.996V69.1481C327.78 68.9921 327.55 68.8761 327.306 68.8001C327.066 68.7241 326.828 68.6861 326.592 68.6861C326.284 68.6861 326.022 68.7461 325.806 68.8661C325.59 68.9861 325.424 69.1621 325.308 69.3941C325.196 69.6261 325.14 69.9081 325.14 70.2401C325.14 70.5681 325.196 70.8461 325.308 71.0741C325.42 71.2981 325.584 71.4681 325.8 71.5841C326.016 71.7001 326.278 71.7581 326.586 71.7581C326.83 71.7581 327.072 71.7201 327.312 71.6441C327.556 71.5681 327.784 71.4521 327.996 71.2961V72.2621H327.654C327.446 72.5341 327.182 72.7561 326.862 72.9281C326.546 73.1001 326.176 73.1861 325.752 73.1861C325.26 73.1861 324.836 73.0621 324.48 72.8141C324.128 72.5661 323.86 72.2221 323.676 71.7821C323.492 71.3381 323.4 70.8241 323.4 70.2401ZM329.46 73.4381C329.46 74.0741 329.35 74.5901 329.13 74.9861C328.914 75.3861 328.586 75.6801 328.146 75.8681C327.71 76.0601 327.154 76.1561 326.478 76.1561C325.862 76.1561 325.354 76.0821 324.954 75.9341C324.558 75.7901 324.256 75.5901 324.048 75.3341C323.844 75.0821 323.698 74.7801 323.61 74.4281L325.182 74.1101C325.302 74.4021 325.46 74.6201 325.656 74.7641C325.856 74.9081 326.13 74.9801 326.478 74.9801C326.878 74.9801 327.188 74.8741 327.408 74.6621C327.628 74.4541 327.738 74.1101 327.738 73.6301V68.5061H327.84L327.954 67.4021H329.46V73.4381Z" fill="#4B5563"/>
<path d="M342.595 64.9121C343.207 64.9121 343.727 65.0021 344.155 65.1821C344.587 65.3581 344.915 65.6201 345.139 65.9681C345.363 66.3121 345.475 66.7301 345.475 67.2221C345.475 67.7341 345.355 68.1541 345.115 68.4821C344.875 68.8061 344.573 69.0441 344.209 69.1961C343.845 69.3481 343.465 69.4381 343.069 69.4661V69.2021C343.537 69.2261 343.961 69.3021 344.341 69.4301C344.725 69.5581 345.043 69.7841 345.295 70.1081C345.547 70.4281 345.673 70.8681 345.673 71.4281C345.673 71.9721 345.547 72.4341 345.295 72.8141C345.047 73.1901 344.693 73.4741 344.233 73.6661C343.777 73.8581 343.237 73.9541 342.613 73.9541C341.969 73.9541 341.421 73.8621 340.969 73.6781C340.517 73.4941 340.169 73.2101 339.925 72.8261C339.685 72.4381 339.561 71.9481 339.553 71.3561L340.999 71.2121C341.047 71.5401 341.133 71.8121 341.257 72.0281C341.381 72.2401 341.553 72.4001 341.773 72.5081C341.993 72.6161 342.267 72.6701 342.595 72.6701C343.111 72.6701 343.487 72.5521 343.723 72.3161C343.959 72.0761 344.077 71.7661 344.077 71.3861C344.077 71.0461 343.989 70.7741 343.813 70.5701C343.637 70.3621 343.391 70.2121 343.075 70.1201C342.763 70.0281 342.385 69.9821 341.941 69.9821H341.791V68.8241H341.947C342.367 68.8241 342.727 68.7661 343.027 68.6501C343.331 68.5341 343.561 68.3681 343.717 68.1521C343.877 67.9321 343.957 67.6721 343.957 67.3721C343.957 67.1161 343.905 66.8981 343.801 66.7181C343.697 66.5381 343.545 66.4001 343.345 66.3041C343.145 66.2081 342.905 66.1601 342.625 66.1601C342.345 66.1601 342.103 66.2101 341.899 66.3101C341.699 66.4061 341.535 66.5581 341.407 66.7661C341.283 66.9701 341.201 67.2341 341.161 67.5581L339.763 67.4141C339.763 66.8421 339.877 66.3701 340.105 65.9981C340.333 65.6261 340.657 65.3521 341.077 65.1761C341.497 65.0001 342.003 64.9121 342.595 64.9121ZM360.7 70.6721C360.7 71.4041 360.562 72.0161 360.286 72.5081C360.01 73.0001 359.636 73.3641 359.164 73.6001C358.696 73.8361 358.166 73.9541 357.574 73.9541C356.982 73.9541 356.45 73.8361 355.978 73.6001C355.51 73.3641 355.138 73.0001 354.862 72.5081C354.586 72.0121 354.448 71.4001 354.448 70.6721C354.448 69.9361 354.586 69.3201 354.862 68.8241C355.138 68.3241 355.512 67.9521 355.984 67.7081C356.456 67.4601 356.986 67.3361 357.574 67.3361C358.162 67.3361 358.692 67.4601 359.164 67.7081C359.636 67.9521 360.01 68.3241 360.286 68.8241C360.562 69.3201 360.7 69.9361 360.7 70.6721ZM359.152 70.6661C359.152 70.1701 359.086 69.7641 358.954 69.4481C358.822 69.1321 358.638 68.9021 358.402 68.7581C358.17 68.6101 357.894 68.5361 357.574 68.5361C357.254 68.5361 356.976 68.6101 356.74 68.7581C356.508 68.9021 356.326 69.1321 356.194 69.4481C356.062 69.7641 355.996 70.1701 355.996 70.6661C355.996 71.1621 356.062 71.5661 356.194 71.8781C356.326 72.1861 356.508 72.4101 356.74 72.5501C356.976 72.6861 357.254 72.7541 357.574 72.7541C357.894 72.7541 358.17 72.6861 358.402 72.5501C358.638 72.4101 358.822 72.1861 358.954 71.8781C359.086 71.5661 359.152 71.1621 359.152 70.6661ZM368.087 65.6081C367.835 65.5521 367.599 65.5101 367.379 65.4821C367.163 65.4501 366.943 65.4341 366.719 65.4341C366.359 65.4341 366.077 65.4781 365.873 65.5661C365.669 65.6541 365.519 65.8061 365.423 66.0221C365.327 66.2381 365.279 66.5461 365.279 66.9461V73.8101H363.749V67.2581C363.749 66.5061 363.855 65.9001 364.067 65.4401C364.279 64.9801 364.597 64.6461 365.021 64.4381C365.449 64.2261 365.991 64.1201 366.647 64.1201C366.911 64.1201 367.161 64.1361 367.397 64.1681C367.637 64.1961 367.867 64.2421 368.087 64.3061V65.6081ZM362.249 72.5681H367.265V73.8101H362.249V72.5681ZM367.889 68.7221H361.883V67.4801H367.889V68.7221ZM379.802 64.9121C380.414 64.9121 380.934 65.0021 381.362 65.1821C381.794 65.3581 382.122 65.6201 382.346 65.9681C382.57 66.3121 382.682 66.7301 382.682 67.2221C382.682 67.7341 382.562 68.1541 382.322 68.4821C382.082 68.8061 381.78 69.0441 381.416 69.1961C381.052 69.3481 380.672 69.4381 380.276 69.4661V69.2021C380.744 69.2261 381.168 69.3021 381.548 69.4301C381.932 69.5581 382.25 69.7841 382.502 70.1081C382.754 70.4281 382.88 70.8681 382.88 71.4281C382.88 71.9721 382.754 72.4341 382.502 72.8141C382.254 73.1901 381.9 73.4741 381.44 73.6661C380.984 73.8581 380.444 73.9541 379.82 73.9541C379.176 73.9541 378.628 73.8621 378.176 73.6781C377.724 73.4941 377.376 73.2101 377.132 72.8261C376.892 72.4381 376.768 71.9481 376.76 71.3561L378.206 71.2121C378.254 71.5401 378.34 71.8121 378.464 72.0281C378.588 72.2401 378.76 72.4001 378.98 72.5081C379.2 72.6161 379.474 72.6701 379.802 72.6701C380.318 72.6701 380.694 72.5521 380.93 72.3161C381.166 72.0761 381.284 71.7661 381.284 71.3861C381.284 71.0461 381.196 70.7741 381.02 70.5701C380.844 70.3621 380.598 70.2121 380.282 70.1201C379.97 70.0281 379.592 69.9821 379.148 69.9821H378.998V68.8241H379.154C379.574 68.8241 379.934 68.7661 380.234 68.6501C380.538 68.5341 380.768 68.3681 380.924 68.1521C381.084 67.9321 381.164 67.6721 381.164 67.3721C381.164 67.1161 381.112 66.8981 381.008 66.7181C380.904 66.5381 380.752 66.4001 380.552 66.3041C380.352 66.2081 380.112 66.1601 379.832 66.1601C379.552 66.1601 379.31 66.2101 379.106 66.3101C378.906 66.4061 378.742 66.5581 378.614 66.7661C378.49 66.9701 378.408 67.2341 378.368 67.5581L376.97 67.4141C376.97 66.8421 377.084 66.3701 377.312 65.9981C377.54 65.6261 377.864 65.3521 378.284 65.1761C378.704 65.0001 379.21 64.9121 379.802 64.9121Z" fill="#1F2937"/>
<rect x="406.242" y="55" width="104.05" height="30.5882" rx="7.7466" fill="#030712"/>
<path d="M426.323 73.8101L424.475 67.2521H424.391L422.573 73.8101H420.983L423.635 65.0501H425.315L427.991 73.8101H426.323ZM422.453 70.5581H426.623V71.7041H422.453V70.5581ZM433.176 64.6301H434.706V73.8101H433.374L433.242 72.6701H433.176V64.6301ZM428.802 70.6661C428.802 70.0021 428.892 69.4221 429.072 68.9261C429.252 68.4301 429.524 68.0441 429.888 67.7681C430.252 67.4881 430.7 67.3481 431.232 67.3481C431.664 67.3481 432.036 67.4341 432.348 67.6061C432.66 67.7741 432.908 67.9981 433.092 68.2781H433.41V69.2261C433.174 69.0141 432.928 68.8601 432.672 68.7641C432.416 68.6641 432.156 68.6141 431.892 68.6141C431.552 68.6141 431.268 68.6881 431.04 68.8361C430.812 68.9841 430.64 69.2101 430.524 69.5141C430.408 69.8181 430.35 70.2021 430.35 70.6661C430.35 71.1301 430.406 71.5121 430.518 71.8121C430.634 72.1081 430.804 72.3281 431.028 72.4721C431.256 72.6161 431.542 72.6881 431.886 72.6881C432.154 72.6881 432.416 72.6401 432.672 72.5441C432.928 72.4441 433.174 72.2881 433.41 72.0761V73.0241H433.098C432.878 73.3081 432.61 73.5361 432.294 73.7081C431.978 73.8761 431.608 73.9601 431.184 73.9601C430.66 73.9601 430.22 73.8221 429.864 73.5461C429.508 73.2701 429.242 72.8861 429.066 72.3941C428.89 71.9021 428.802 71.3261 428.802 70.6661ZM440.617 64.6301H442.147V73.8101H440.815L440.683 72.6701H440.617V64.6301ZM436.243 70.6661C436.243 70.0021 436.333 69.4221 436.513 68.9261C436.693 68.4301 436.965 68.0441 437.329 67.7681C437.693 67.4881 438.141 67.3481 438.673 67.3481C439.105 67.3481 439.477 67.4341 439.789 67.6061C440.101 67.7741 440.349 67.9981 440.533 68.2781H440.851V69.2261C440.615 69.0141 440.369 68.8601 440.113 68.7641C439.857 68.6641 439.597 68.6141 439.333 68.6141C438.993 68.6141 438.709 68.6881 438.481 68.8361C438.253 68.9841 438.081 69.2101 437.965 69.5141C437.849 69.8181 437.791 70.2021 437.791 70.6661C437.791 71.1301 437.847 71.5121 437.959 71.8121C438.075 72.1081 438.245 72.3281 438.469 72.4721C438.697 72.6161 438.983 72.6881 439.327 72.6881C439.595 72.6881 439.857 72.6401 440.113 72.5441C440.369 72.4441 440.615 72.2881 440.851 72.0761V73.0241H440.539C440.319 73.3081 440.051 73.5361 439.735 73.7081C439.419 73.8761 439.049 73.9601 438.625 73.9601C438.101 73.9601 437.661 73.8221 437.305 73.5461C436.949 73.2701 436.683 72.8861 436.507 72.3941C436.331 71.9021 436.243 71.3261 436.243 70.6661ZM454.288 68.6441H454.378V73.8041H452.848V68.4521L453.118 68.7221H451.354V67.4801H454.18L454.288 68.6441ZM457.27 68.8541C456.762 68.8541 456.338 68.8701 455.998 68.9021C455.658 68.9341 455.336 69.0001 455.032 69.1001C454.732 69.1961 454.424 69.3401 454.108 69.5321V68.4161H454.462C454.77 68.0441 455.088 67.7721 455.416 67.6001C455.748 67.4281 456.16 67.3421 456.652 67.3421C456.88 67.3421 457.086 67.3621 457.27 67.4021V68.8541ZM451.354 72.5681H456.364V73.8101H451.354V72.5681ZM458.568 70.6361C458.568 69.9201 458.702 69.3161 458.97 68.8241C459.242 68.3281 459.622 67.9561 460.11 67.7081C460.598 67.4601 461.168 67.3361 461.82 67.3361C462.428 67.3361 462.946 67.4441 463.374 67.6601C463.802 67.8721 464.126 68.1921 464.346 68.6201C464.57 69.0481 464.682 69.5821 464.682 70.2221V70.8221H459.762V69.8921H463.464L463.194 70.1321V69.8921C463.194 69.4441 463.066 69.1061 462.81 68.8781C462.558 68.6461 462.212 68.5301 461.772 68.5301C461.252 68.5301 460.846 68.7021 460.554 69.0461C460.262 69.3901 460.116 69.9201 460.116 70.6361C460.116 71.3281 460.256 71.8541 460.536 72.2141C460.82 72.5741 461.228 72.7541 461.76 72.7541C462.096 72.7541 462.384 72.6841 462.624 72.5441C462.868 72.4001 463.054 72.1841 463.182 71.8961L464.664 72.1121C464.516 72.5361 464.296 72.8861 464.004 73.1621C463.716 73.4341 463.38 73.6341 462.996 73.7621C462.616 73.8901 462.204 73.9541 461.76 73.9541C461.124 73.9541 460.566 73.8281 460.086 73.5761C459.606 73.3241 459.232 72.9501 458.964 72.4541C458.7 71.9581 458.568 71.3521 458.568 70.6361ZM472.171 71.8301C472.055 72.3181 471.849 72.7221 471.553 73.0421C471.261 73.3581 470.911 73.5901 470.503 73.7381C470.095 73.8821 469.649 73.9541 469.165 73.9541C468.525 73.9541 467.967 73.8281 467.491 73.5761C467.019 73.3241 466.653 72.9521 466.393 72.4601C466.137 71.9641 466.009 71.3601 466.009 70.6481C466.009 69.9081 466.147 69.2921 466.423 68.8001C466.699 68.3041 467.079 67.9361 467.563 67.6961C468.051 67.4561 468.611 67.3361 469.243 67.3361C469.783 67.3361 470.265 67.4221 470.689 67.5941C471.113 67.7661 471.453 68.0241 471.709 68.3681C471.969 68.7121 472.121 69.1381 472.165 69.6461L470.683 69.7721C470.615 69.3681 470.453 69.0621 470.197 68.8541C469.945 68.6421 469.611 68.5361 469.195 68.5361C468.659 68.5361 468.251 68.7161 467.971 69.0761C467.695 69.4321 467.557 69.9561 467.557 70.6481C467.557 71.1161 467.621 71.5081 467.749 71.8241C467.877 72.1361 468.063 72.3701 468.307 72.5261C468.551 72.6781 468.845 72.7541 469.189 72.7541C469.581 72.7541 469.901 72.6581 470.149 72.4661C470.401 72.2741 470.585 71.9961 470.701 71.6321L472.171 71.8301ZM479.702 70.6721C479.702 71.4041 479.564 72.0161 479.288 72.5081C479.012 73.0001 478.638 73.3641 478.166 73.6001C477.698 73.8361 477.168 73.9541 476.576 73.9541C475.984 73.9541 475.452 73.8361 474.98 73.6001C474.512 73.3641 474.14 73.0001 473.864 72.5081C473.588 72.0121 473.45 71.4001 473.45 70.6721C473.45 69.9361 473.588 69.3201 473.864 68.8241C474.14 68.3241 474.514 67.9521 474.986 67.7081C475.458 67.4601 475.988 67.3361 476.576 67.3361C477.164 67.3361 477.694 67.4601 478.166 67.7081C478.638 67.9521 479.012 68.3241 479.288 68.8241C479.564 69.3201 479.702 69.9361 479.702 70.6721ZM478.154 70.6661C478.154 70.1701 478.088 69.7641 477.956 69.4481C477.824 69.1321 477.64 68.9021 477.404 68.7581C477.172 68.6101 476.896 68.5361 476.576 68.5361C476.256 68.5361 475.978 68.6101 475.742 68.7581C475.51 68.9021 475.328 69.1321 475.196 69.4481C475.064 69.7641 474.998 70.1701 474.998 70.6661C474.998 71.1621 475.064 71.5661 475.196 71.8781C475.328 72.1861 475.51 72.4101 475.742 72.5501C475.978 72.6861 476.256 72.7541 476.576 72.7541C476.896 72.7541 477.172 72.6861 477.404 72.5501C477.64 72.4101 477.824 72.1861 477.956 71.8781C478.088 71.5661 478.154 71.1621 478.154 70.6661ZM484.054 68.6441H484.144V73.8041H482.614V68.4521L482.884 68.7221H481.12V67.4801H483.946L484.054 68.6441ZM487.036 68.8541C486.528 68.8541 486.104 68.8701 485.764 68.9021C485.424 68.9341 485.102 69.0001 484.798 69.1001C484.498 69.1961 484.19 69.3401 483.874 69.5321V68.4161H484.228C484.536 68.0441 484.854 67.7721 485.182 67.6001C485.514 67.4281 485.926 67.3421 486.418 67.3421C486.646 67.3421 486.852 67.3621 487.036 67.4021V68.8541ZM481.12 72.5681H486.13V73.8101H481.12V72.5681ZM492.707 64.6301H494.237V73.8101H492.905L492.773 72.6701H492.707V64.6301ZM488.333 70.6661C488.333 70.0021 488.423 69.4221 488.603 68.9261C488.783 68.4301 489.055 68.0441 489.419 67.7681C489.783 67.4881 490.231 67.3481 490.763 67.3481C491.195 67.3481 491.567 67.4341 491.879 67.6061C492.191 67.7741 492.439 67.9981 492.623 68.2781H492.941V69.2261C492.705 69.0141 492.459 68.8601 492.203 68.7641C491.947 68.6641 491.687 68.6141 491.423 68.6141C491.083 68.6141 490.799 68.6881 490.571 68.8361C490.343 68.9841 490.171 69.2101 490.055 69.5141C489.939 69.8181 489.881 70.2021 489.881 70.6661C489.881 71.1301 489.937 71.5121 490.049 71.8121C490.165 72.1081 490.335 72.3281 490.559 72.4721C490.787 72.6161 491.073 72.6881 491.417 72.6881C491.685 72.6881 491.947 72.6401 492.203 72.5441C492.459 72.4441 492.705 72.2881 492.941 72.0761V73.0241H492.629C492.409 73.3081 492.141 73.5361 491.825 73.7081C491.509 73.8761 491.139 73.9601 490.715 73.9601C490.191 73.9601 489.751 73.8221 489.395 73.5461C489.039 73.2701 488.773 72.8861 488.597 72.3941C488.421 71.9021 488.333 71.3261 488.333 70.6661Z" fill="#4B5563"/>
<path d="M41.2498 169.56H21.7499C20.5071 169.56 19.5 172.359 19.5 175.81V188.311C19.5 191.762 20.5071 194.56 21.7499 194.56H41.2498C42.4925 194.56 43.5 191.762 43.5 188.311V175.81C43.5 172.359 42.4925 169.56 41.2498 169.56Z" fill="#111827"/>
<path d="M74.2498 169.56H54.7499C53.5071 169.56 52.5 172.359 52.5 175.81V188.311C52.5 191.762 53.5071 194.56 54.7499 194.56H74.2498C75.4925 194.56 76.5 191.762 76.5 188.311V175.81C76.5 172.359 75.4925 169.56 74.2498 169.56Z" fill="#111827"/>
<path d="M179.638 169.512H91.9184C88.3737 169.512 85.5 172.321 85.5 175.786V188.335C85.5 191.799 88.3737 194.608 91.9184 194.608H179.638C183.182 194.608 186.056 191.799 186.056 188.335V175.786C186.056 172.321 183.182 169.512 179.638 169.512Z" fill="#111827"/>
<path d="M361.935 169.512H201.474C197.929 169.512 195.056 172.321 195.056 175.786V188.335C195.056 191.799 197.929 194.608 201.474 194.608H361.935C365.48 194.608 368.354 191.799 368.354 188.335V175.786C368.354 172.321 365.48 169.512 361.935 169.512Z" fill="#111827"/>
<path d="M497.165 169.512H383.773C380.228 169.512 377.354 172.321 377.354 175.786V188.335C377.354 191.799 380.228 194.608 383.773 194.608H497.165C500.709 194.608 503.583 191.799 503.583 188.335V175.786C503.583 172.321 500.709 169.512 497.165 169.512Z" fill="#111827"/>
<path d="M41.2498 136.099H21.7499C20.5071 136.099 19.5 138.897 19.5 142.348V154.848C19.5 158.301 20.5071 161.099 21.7499 161.099H41.2498C42.4925 161.099 43.5 158.301 43.5 154.848V142.348C43.5 138.897 42.4925 136.099 41.2498 136.099Z" fill="#111827"/>
<path d="M74.2498 136.099H54.7499C53.5071 136.099 52.5 138.897 52.5 142.348V154.848C52.5 158.301 53.5071 161.099 54.7499 161.099H74.2498C75.4925 161.099 76.5 158.301 76.5 154.848V142.348C76.5 138.897 75.4925 136.099 74.2498 136.099Z" fill="#111827"/>
<path d="M179.638 136.05H91.9184C88.3737 136.05 85.5 138.859 85.5 142.324V154.873C85.5 158.338 88.3737 161.147 91.9184 161.147H179.638C183.182 161.147 186.056 158.338 186.056 154.873V142.324C186.056 138.859 183.182 136.05 179.638 136.05Z" fill="#111827"/>
<path d="M361.935 136.05H201.474C197.929 136.05 195.056 138.859 195.056 142.324V154.873C195.056 158.338 197.929 161.147 201.474 161.147H361.935C365.48 161.147 368.354 158.338 368.354 154.873V142.324C368.354 138.859 365.48 136.05 361.935 136.05Z" fill="#111827"/>
<path d="M497.165 136.05H383.773C380.228 136.05 377.354 138.859 377.354 142.324V154.873C377.354 158.338 380.228 161.147 383.773 161.147H497.165C500.709 161.147 503.583 158.338 503.583 154.873V142.324C503.583 138.859 500.709 136.05 497.165 136.05Z" fill="#111827"/>
<path d="M41.2498 102.636H21.7499C20.5071 102.636 19.5 105.435 19.5 108.887V121.387C19.5 124.838 20.5071 127.636 21.7499 127.636H41.2498C42.4925 127.636 43.5 124.838 43.5 121.387V108.887C43.5 105.435 42.4925 102.636 41.2498 102.636Z" fill="#111827"/>
<path d="M74.2498 102.636H54.7499C53.5071 102.636 52.5 105.435 52.5 108.887V121.387C52.5 124.838 53.5071 127.636 54.7499 127.636H74.2498C75.4925 127.636 76.5 124.838 76.5 121.387V108.887C76.5 105.435 75.4925 102.636 74.2498 102.636Z" fill="#111827"/>
<path d="M179.638 102.588H91.9184C88.3737 102.588 85.5 105.397 85.5 108.862V121.411C85.5 124.876 88.3737 127.685 91.9184 127.685H179.638C183.182 127.685 186.056 124.876 186.056 121.411V108.862C186.056 105.397 183.182 102.588 179.638 102.588Z" fill="#111827"/>
<path d="M96.1807 120.412V111.652H97.5427V120.412H96.1807ZM99.6127 111.652V112.792H94.1047V111.652H99.6127ZM94.1047 119.266H99.6127V120.412H94.1047V119.266ZM101.546 120.412V111.652H102.914V120.412H101.546ZM106.04 115.936C106.04 115.18 105.954 114.57 105.782 114.106C105.614 113.638 105.354 113.296 105.002 113.08C104.654 112.86 104.2 112.75 103.64 112.75H102.236V111.652H103.7C104.528 111.652 105.214 111.798 105.758 112.09C106.306 112.382 106.726 112.844 107.018 113.476C107.31 114.108 107.456 114.928 107.456 115.936C107.456 116.944 107.308 117.78 107.012 118.444C106.72 119.104 106.296 119.598 105.74 119.926C105.188 120.25 104.508 120.412 103.7 120.412H102.236V119.308H103.64C104.188 119.308 104.638 119.184 104.99 118.936C105.346 118.688 105.61 118.316 105.782 117.82C105.954 117.32 106.04 116.692 106.04 115.936Z" fill="#4B5563"/>
<path d="M165.389 110.496C165.754 110.56 166.012 110.904 165.947 111.291L165.732 112.537H167.773L168.031 111.054C168.096 110.689 168.439 110.431 168.826 110.496C169.191 110.56 169.449 110.904 169.385 111.291L169.17 112.537H170.438C170.803 112.537 171.125 112.859 171.125 113.224C171.125 113.611 170.803 113.912 170.438 113.912H168.955L168.482 116.662H169.75C170.115 116.662 170.438 116.984 170.438 117.349C170.438 117.736 170.115 118.037 169.75 118.037H168.268L168.01 119.541C167.945 119.906 167.602 120.164 167.215 120.099C166.85 120.035 166.592 119.691 166.656 119.304L166.871 118.058H164.83L164.572 119.541C164.508 119.906 164.164 120.164 163.777 120.099C163.412 120.035 163.154 119.691 163.219 119.304L163.434 118.037H162.188C161.801 118.037 161.5 117.736 161.5 117.349C161.5 116.984 161.801 116.662 162.188 116.662H163.648L164.121 113.912H162.875C162.488 113.912 162.188 113.611 162.188 113.224C162.188 112.859 162.488 112.537 162.875 112.537H164.336L164.594 111.054C164.658 110.689 165.002 110.431 165.389 110.496ZM165.518 113.912L165.045 116.662H167.086L167.559 113.912H165.518Z" fill="#4B5563"/>
<path d="M361.935 102.588H201.474C197.929 102.588 195.056 105.397 195.056 108.862V121.411C195.056 124.876 197.929 127.685 201.474 127.685H361.935C365.48 127.685 368.354 124.876 368.354 121.411V108.862C368.354 105.397 365.48 102.588 361.935 102.588Z" fill="#111827"/>
<path d="M204.105 120.412V111.652H205.473V120.412H204.105ZM209.025 120.412H204.843V119.266H209.025V120.412ZM208.281 116.53H204.933V115.444H208.281V116.53ZM204.843 112.792V111.652H209.025V112.792H204.843ZM212.08 111.652L213.934 115.894H214.006L215.89 111.652H217.228V120.412H216.082V113.722H215.986L214.15 118.024H213.7L211.87 113.722H211.798V120.412H210.67V111.652H212.08ZM223.751 120.412L221.741 113.53H221.663L219.671 120.412H218.291L220.997 111.652H222.467L225.191 120.412H223.751ZM219.713 117.142H223.835V118.162H219.713V117.142ZM228.505 120.412V111.652H229.867V120.412H228.505ZM231.937 111.652V112.792H226.429V111.652H231.937ZM226.429 119.266H231.937V120.412H226.429V119.266ZM234.08 120.412V111.652H235.448V120.412H234.08ZM239.582 120.412H234.782V119.266H239.582V120.412Z" fill="#4B5563"/>
<path d="M347.531 111.162H356.469C357.027 111.162 357.5 111.634 357.5 112.193C357.5 112.537 357.328 112.837 357.07 113.031L352.408 116.533C352.15 116.726 351.828 116.726 351.57 116.533L346.908 113.031C346.65 112.837 346.5 112.537 346.5 112.193C346.5 111.634 346.951 111.162 347.531 111.162ZM346.5 113.568L351.162 117.091C351.656 117.457 352.322 117.457 352.816 117.091L357.5 113.568V118.037C357.5 118.81 356.877 119.412 356.125 119.412H347.875C347.102 119.412 346.5 118.81 346.5 118.037V113.568Z" fill="#4B5563"/>
<path d="M497.165 102.588H383.773C380.228 102.588 377.354 105.397 377.354 108.862V121.411C377.354 124.876 380.228 127.685 383.773 127.685H497.165C500.709 127.685 503.583 124.876 503.583 121.411V108.862C503.583 105.397 500.709 102.588 497.165 102.588Z" fill="#111827"/>
<path d="M387.323 113.866H387.251V120.412H386.105V111.652H387.545L390.395 118.138H390.467V111.652H391.613V120.412H390.179L387.323 113.866ZM398.31 120.412L396.3 113.53H396.222L394.23 120.412H392.85L395.556 111.652H397.026L399.75 120.412H398.31ZM394.272 117.142H398.394V118.162H394.272V117.142ZM402.217 111.652L404.077 115.894H404.149L406.033 111.652H407.365V120.412H406.219V113.722H406.129L404.287 118.024H403.837L402.013 113.722H401.941V120.412H400.813V111.652H402.217ZM409.023 120.412V111.652H410.385V120.412H409.023ZM413.937 120.412H409.755V119.266H413.937V120.412ZM413.193 116.53H409.845V115.444H413.193V116.53ZM409.755 112.792V111.652H413.937V112.792H409.755Z" fill="#4B5563"/>
<path d="M487.312 115.287C486.324 115.287 485.422 114.771 484.928 113.912C484.434 113.074 484.434 112.021 484.928 111.162C485.422 110.324 486.324 109.787 487.312 109.787C488.279 109.787 489.182 110.324 489.676 111.162C490.17 112.021 490.17 113.074 489.676 113.912C489.182 114.771 488.279 115.287 487.312 115.287ZM486.324 116.318H488.279C490.406 116.318 492.125 118.037 492.125 120.164C492.125 120.507 491.824 120.787 491.48 120.787H483.123C482.779 120.787 482.5 120.507 482.5 120.164C482.5 118.037 484.197 116.318 486.324 116.318Z" fill="#4B5563"/>
<rect x="81.5" y="-2" width="479.235" height="46.5882" rx="8" fill="#030712"/>
<rect x="93.5" y="6" width="77.7963" height="30.5882" rx="7.7466" fill="#1F2937"/>
<path d="M111.744 23.6161C112.072 23.6161 112.332 23.5601 112.524 23.4481C112.716 23.3321 112.852 23.1641 112.932 22.9441C113.016 22.7241 113.058 22.4301 113.058 22.0621V16.0501H114.63V22.2241C114.63 23.1121 114.386 23.7881 113.898 24.2521C113.414 24.7161 112.696 24.9481 111.744 24.9481C110.792 24.9481 110.072 24.7161 109.584 24.2521C109.1 23.7881 108.858 23.1121 108.858 22.2241V16.0501H110.43V22.0621C110.43 22.4301 110.47 22.7241 110.55 22.9441C110.634 23.1641 110.772 23.3321 110.964 23.4481C111.156 23.5601 111.416 23.6161 111.744 23.6161ZM119.228 18.3361C119.804 18.3361 120.292 18.4081 120.692 18.5521C121.092 18.6921 121.394 18.9041 121.598 19.1881C121.802 19.4721 121.898 19.8201 121.886 20.2321L120.506 20.3401C120.478 20.0321 120.352 19.8041 120.128 19.6561C119.904 19.5041 119.57 19.4281 119.126 19.4281C118.722 19.4281 118.41 19.4881 118.19 19.6081C117.97 19.7241 117.86 19.8961 117.86 20.1241C117.86 20.2641 117.906 20.3821 117.998 20.4781C118.094 20.5701 118.234 20.6501 118.418 20.7181C118.602 20.7861 118.88 20.8661 119.252 20.9581C119.384 20.9901 119.516 21.0221 119.648 21.0541C120.212 21.1821 120.654 21.3141 120.974 21.4501C121.294 21.5821 121.548 21.7661 121.736 22.0021C121.924 22.2341 122.018 22.5421 122.018 22.9261C122.018 23.3421 121.906 23.7021 121.682 24.0061C121.458 24.3101 121.124 24.5441 120.68 24.7081C120.24 24.8721 119.704 24.9541 119.072 24.9541C118.476 24.9541 117.978 24.8881 117.578 24.7561C117.182 24.6241 116.866 24.4161 116.63 24.1321C116.394 23.8441 116.234 23.4661 116.15 22.9981L117.548 22.8361C117.616 23.1081 117.722 23.3181 117.866 23.4661C118.01 23.6141 118.182 23.7161 118.382 23.7721C118.586 23.8241 118.842 23.8501 119.15 23.8501C119.458 23.8501 119.71 23.8181 119.906 23.7541C120.106 23.6861 120.252 23.5961 120.344 23.4841C120.436 23.3681 120.482 23.2421 120.482 23.1061C120.482 22.9461 120.42 22.8161 120.296 22.7161C120.172 22.6161 119.992 22.5301 119.756 22.4581C119.524 22.3861 119.146 22.2901 118.622 22.1701C118.138 22.0661 117.734 21.9361 117.41 21.7801C117.09 21.6241 116.842 21.4221 116.666 21.1741C116.49 20.9221 116.402 20.6121 116.402 20.2441C116.402 19.6401 116.638 19.1721 117.11 18.8401C117.586 18.5041 118.292 18.3361 119.228 18.3361ZM123.501 21.6361C123.501 20.9201 123.635 20.3161 123.903 19.8241C124.175 19.3281 124.555 18.9561 125.043 18.7081C125.531 18.4601 126.101 18.3361 126.753 18.3361C127.361 18.3361 127.879 18.4441 128.307 18.6601C128.735 18.8721 129.059 19.1921 129.279 19.6201C129.503 20.0481 129.615 20.5821 129.615 21.2221V21.8221H124.695V20.8921H128.397L128.127 21.1321V20.8921C128.127 20.4441 127.999 20.1061 127.743 19.8781C127.491 19.6461 127.145 19.5301 126.705 19.5301C126.185 19.5301 125.779 19.7021 125.487 20.0461C125.195 20.3901 125.049 20.9201 125.049 21.6361C125.049 22.3281 125.189 22.8541 125.469 23.2141C125.753 23.5741 126.161 23.7541 126.693 23.7541C127.029 23.7541 127.317 23.6841 127.557 23.5441C127.801 23.4001 127.987 23.1841 128.115 22.8961L129.597 23.1121C129.449 23.5361 129.229 23.8861 128.937 24.1621C128.649 24.4341 128.313 24.6341 127.929 24.7621C127.549 24.8901 127.137 24.9541 126.693 24.9541C126.057 24.9541 125.499 24.8281 125.019 24.5761C124.539 24.3241 124.165 23.9501 123.897 23.4541C123.633 22.9581 123.501 22.3521 123.501 21.6361ZM134.105 19.6441H134.195V24.8041H132.665V19.4521L132.935 19.7221H131.171V18.4801H133.997L134.105 19.6441ZM137.087 19.8541C136.579 19.8541 136.155 19.8701 135.815 19.9021C135.475 19.9341 135.153 20.0001 134.849 20.1001C134.549 20.1961 134.241 20.3401 133.925 20.5321V19.4161H134.279C134.587 19.0441 134.905 18.7721 135.233 18.6001C135.565 18.4281 135.977 18.3421 136.469 18.3421C136.697 18.3421 136.903 18.3621 137.087 18.4021V19.8541ZM131.171 23.5681H136.181V24.8101H131.171V23.5681Z" fill="#9CA3AF"/>
<path d="M154.906 17.5755L151.729 20.7528L154.88 23.9037C155.145 24.142 155.145 24.5391 154.88 24.7774C154.641 25.0422 154.244 25.0422 154.006 24.7774L150.829 21.6266L147.678 24.7774C147.44 25.0422 147.042 25.0422 146.804 24.7774C146.539 24.5391 146.539 24.142 146.804 23.8772L149.955 20.7264L146.804 17.5755C146.539 17.3372 146.539 16.9401 146.804 16.6753C147.042 16.437 147.44 16.437 147.704 16.6753L150.855 19.8526L154.006 16.7018C154.244 16.437 154.641 16.437 154.906 16.7018C155.145 16.9401 155.145 17.3372 154.906 17.5755Z" fill="#9CA3AF"/>
<rect x="179.296" y="6" width="70.7963" height="30.5882" rx="7.7466" fill="#1F2937"/>
<path d="M196.76 24.8101V16.0501H198.326V24.8101H196.76ZM194.51 16.0501H200.57V17.3521H194.51V16.0501ZM204.778 18.3361C205.33 18.3361 205.796 18.4021 206.176 18.5341C206.556 18.6661 206.848 18.8801 207.052 19.1761C207.26 19.4681 207.364 19.8521 207.364 20.3281V23.2501C207.364 23.3901 207.382 23.4961 207.418 23.5681C207.458 23.6361 207.524 23.6821 207.616 23.7061C207.708 23.7261 207.842 23.7261 208.018 23.7061V24.8101C207.69 24.8981 207.382 24.9421 207.094 24.9421C206.782 24.9421 206.54 24.8921 206.368 24.7921C206.196 24.6921 206.078 24.5581 206.014 24.3901C205.95 24.2221 205.918 24.0181 205.918 23.7781L205.834 23.6641V20.4001C205.834 20.1481 205.786 19.9461 205.69 19.7941C205.598 19.6421 205.468 19.5361 205.3 19.4761C205.132 19.4161 204.928 19.3861 204.688 19.3861C204.448 19.3861 204.242 19.4161 204.07 19.4761C203.902 19.5321 203.77 19.6261 203.674 19.7581C203.578 19.8861 203.53 20.0521 203.53 20.2561L203.524 20.5021H202.156V20.1901C202.156 19.6141 202.366 19.1621 202.786 18.8341C203.21 18.5021 203.874 18.3361 204.778 18.3361ZM206.476 22.1821C206.292 22.1461 206.114 22.1181 205.942 22.0981C205.77 22.0741 205.59 22.0621 205.402 22.0621C204.998 22.0621 204.658 22.0981 204.382 22.1701C204.11 22.2421 203.9 22.3521 203.752 22.5001C203.608 22.6441 203.536 22.8281 203.536 23.0521C203.536 23.2161 203.576 23.3581 203.656 23.4781C203.736 23.5981 203.85 23.6901 203.998 23.7541C204.15 23.8181 204.33 23.8501 204.538 23.8501C204.81 23.8501 205.068 23.7981 205.312 23.6941C205.556 23.5901 205.798 23.4401 206.038 23.2441L206.026 24.0481H205.78C205.588 24.2441 205.4 24.4041 205.216 24.5281C205.036 24.6521 204.822 24.7541 204.574 24.8341C204.33 24.9141 204.066 24.9541 203.782 24.9541C203.414 24.9541 203.09 24.8861 202.81 24.7501C202.534 24.6141 202.32 24.4181 202.168 24.1621C202.02 23.9061 201.946 23.6041 201.946 23.2561C201.946 22.6841 202.142 22.2501 202.534 21.9541C202.93 21.6541 203.424 21.4601 204.016 21.3721C204.612 21.2801 205.282 21.2441 206.026 21.2641L206.476 22.1821ZM209.297 21.3061C209.297 20.7181 209.391 20.2021 209.579 19.7581C209.771 19.3101 210.049 18.9641 210.413 18.7201C210.777 18.4721 211.211 18.3481 211.715 18.3481C212.003 18.3481 212.267 18.3901 212.507 18.4741C212.751 18.5541 212.961 18.6641 213.137 18.8041C213.317 18.9401 213.467 19.0981 213.587 19.2781H213.905V20.2261C213.669 20.0141 213.423 19.8601 213.167 19.7641C212.911 19.6641 212.651 19.6141 212.387 19.6141C212.063 19.6141 211.785 19.6801 211.553 19.8121C211.321 19.9441 211.145 20.1361 211.025 20.3881C210.905 20.6401 210.845 20.9461 210.845 21.3061C210.845 21.6621 210.903 21.9641 211.019 22.2121C211.139 22.4601 211.313 22.6481 211.541 22.7761C211.773 22.9041 212.053 22.9681 212.381 22.9681C212.649 22.9681 212.911 22.9201 213.167 22.8241C213.423 22.7241 213.669 22.5681 213.905 22.3561V23.3041H213.593C213.373 23.5841 213.101 23.8101 212.777 23.9821C212.457 24.1541 212.087 24.2401 211.667 24.2401C211.171 24.2401 210.745 24.1181 210.389 23.8741C210.033 23.6301 209.761 23.2881 209.573 22.8481C209.389 22.4041 209.297 21.8901 209.297 21.3061ZM215.201 24.4441C215.201 25.0881 215.093 25.6121 214.877 26.0161C214.661 26.4241 214.339 26.7221 213.911 26.9101C213.483 27.0981 212.939 27.1921 212.279 27.1921C211.687 27.1921 211.197 27.1201 210.809 26.9761C210.421 26.8361 210.123 26.6401 209.915 26.3881C209.711 26.1401 209.569 25.8441 209.489 25.5001L210.875 25.2061C210.995 25.5221 211.165 25.7561 211.385 25.9081C211.609 26.0601 211.907 26.1361 212.279 26.1361C212.719 26.1361 213.061 26.0181 213.305 25.7821C213.549 25.5501 213.671 25.1601 213.671 24.6121V19.5841H213.761L213.869 18.4801H215.201V24.4441Z" fill="#9CA3AF"/>
<path d="M233.702 17.5755L230.525 20.7528L233.676 23.9037C233.94 24.142 233.94 24.5391 233.676 24.7774C233.437 25.0422 233.04 25.0422 232.802 24.7774L229.625 21.6266L226.474 24.7774C226.235 25.0422 225.838 25.0422 225.6 24.7774C225.335 24.5391 225.335 24.142 225.6 23.8772L228.751 20.7264L225.6 17.5755C225.335 17.3372 225.335 16.9401 225.6 16.6753C225.838 16.437 226.235 16.437 226.5 16.6753L229.651 19.8526L232.802 16.7018C233.04 16.437 233.437 16.437 233.702 16.7018C233.94 16.9401 233.94 17.3372 233.702 17.5755Z" fill="#9CA3AF"/>
<rect x="258.093" y="6" width="77.7963" height="30.5882" rx="7.7466" fill="#1F2937"/>
<path d="M273.607 24.8101V16.0501H275.173V24.8101H273.607ZM275.959 20.5201C276.643 20.5201 277.131 20.3661 277.423 20.0581C277.715 19.7461 277.861 19.3001 277.861 18.7201C277.861 18.3561 277.797 18.0661 277.669 17.8501C277.545 17.6301 277.353 17.4721 277.093 17.3761C276.837 17.2761 276.507 17.2261 276.103 17.2261H274.531V16.0501H276.535C277.463 16.0501 278.185 16.2481 278.701 16.6441C279.221 17.0401 279.481 17.6721 279.481 18.5401C279.481 19.1681 279.351 19.7221 279.091 20.2021C278.831 20.6781 278.425 21.0521 277.873 21.3241C277.321 21.5961 276.625 21.7321 275.785 21.7321H274.585V20.5201H275.959ZM286.905 21.6721C286.905 22.4041 286.767 23.0161 286.491 23.5081C286.215 24.0001 285.841 24.3641 285.369 24.6001C284.901 24.8361 284.371 24.9541 283.779 24.9541C283.187 24.9541 282.655 24.8361 282.183 24.6001C281.715 24.3641 281.343 24.0001 281.067 23.5081C280.791 23.0121 280.653 22.4001 280.653 21.6721C280.653 20.9361 280.791 20.3201 281.067 19.8241C281.343 19.3241 281.717 18.9521 282.189 18.7081C282.661 18.4601 283.191 18.3361 283.779 18.3361C284.367 18.3361 284.897 18.4601 285.369 18.7081C285.841 18.9521 286.215 19.3241 286.491 19.8241C286.767 20.3201 286.905 20.9361 286.905 21.6721ZM285.357 21.6661C285.357 21.1701 285.291 20.7641 285.159 20.4481C285.027 20.1321 284.843 19.9021 284.607 19.7581C284.375 19.6101 284.099 19.5361 283.779 19.5361C283.459 19.5361 283.181 19.6101 282.945 19.7581C282.713 19.9021 282.531 20.1321 282.399 20.4481C282.267 20.7641 282.201 21.1701 282.201 21.6661C282.201 22.1621 282.267 22.5661 282.399 22.8781C282.531 23.1861 282.713 23.4101 282.945 23.5501C283.181 23.6861 283.459 23.7541 283.779 23.7541C284.099 23.7541 284.375 23.6861 284.607 23.5501C284.843 23.4101 285.027 23.1861 285.159 22.8781C285.291 22.5661 285.357 22.1621 285.357 21.6661ZM291.262 18.3361C291.838 18.3361 292.326 18.4081 292.726 18.5521C293.126 18.6921 293.428 18.9041 293.632 19.1881C293.836 19.4721 293.932 19.8201 293.92 20.2321L292.54 20.3401C292.512 20.0321 292.386 19.8041 292.162 19.6561C291.938 19.5041 291.604 19.4281 291.16 19.4281C290.756 19.4281 290.444 19.4881 290.224 19.6081C290.004 19.7241 289.894 19.8961 289.894 20.1241C289.894 20.2641 289.94 20.3821 290.032 20.4781C290.128 20.5701 290.268 20.6501 290.452 20.7181C290.636 20.7861 290.914 20.8661 291.286 20.9581C291.418 20.9901 291.55 21.0221 291.682 21.0541C292.246 21.1821 292.688 21.3141 293.008 21.4501C293.328 21.5821 293.582 21.7661 293.77 22.0021C293.958 22.2341 294.052 22.5421 294.052 22.9261C294.052 23.3421 293.94 23.7021 293.716 24.0061C293.492 24.3101 293.158 24.5441 292.714 24.7081C292.274 24.8721 291.738 24.9541 291.106 24.9541C290.51 24.9541 290.012 24.8881 289.612 24.7561C289.216 24.6241 288.9 24.4161 288.664 24.1321C288.428 23.8441 288.268 23.4661 288.184 22.9981L289.582 22.8361C289.65 23.1081 289.756 23.3181 289.9 23.4661C290.044 23.6141 290.216 23.7161 290.416 23.7721C290.62 23.8241 290.876 23.8501 291.184 23.8501C291.492 23.8501 291.744 23.8181 291.94 23.7541C292.14 23.6861 292.286 23.5961 292.378 23.4841C292.47 23.3681 292.516 23.2421 292.516 23.1061C292.516 22.9461 292.454 22.8161 292.33 22.7161C292.206 22.6161 292.026 22.5301 291.79 22.4581C291.558 22.3861 291.18 22.2901 290.656 22.1701C290.172 22.0661 289.768 21.9361 289.444 21.7801C289.124 21.6241 288.876 21.4221 288.7 21.1741C288.524 20.9221 288.436 20.6121 288.436 20.2441C288.436 19.6401 288.672 19.1721 289.144 18.8401C289.62 18.5041 290.326 18.3361 291.262 18.3361ZM301.289 18.4801V19.7221H295.529V18.4801H297.599H297.773H301.289ZM299.843 24.9721C299.175 24.9721 298.651 24.8961 298.271 24.7441C297.891 24.5881 297.613 24.3141 297.437 23.9221C297.261 23.5301 297.173 22.9661 297.173 22.2301V16.6741H298.697V22.2181C298.697 22.6061 298.739 22.9021 298.823 23.1061C298.911 23.3101 299.049 23.4521 299.237 23.5321C299.425 23.6121 299.689 23.6521 300.029 23.6521C300.437 23.6521 300.905 23.5881 301.433 23.4601V24.7621C301.201 24.8301 300.951 24.8821 300.683 24.9181C300.415 24.9541 300.135 24.9721 299.843 24.9721Z" fill="#9CA3AF"/>
<path d="M319.499 17.5755L316.322 20.7528L319.473 23.9037C319.737 24.142 319.737 24.5391 319.473 24.7774C319.234 25.0422 318.837 25.0422 318.599 24.7774L315.421 21.6266L312.271 24.7774C312.032 25.0422 311.635 25.0422 311.397 24.7774C311.132 24.5391 311.132 24.142 311.397 23.8772L314.548 20.7264L311.397 17.5755C311.132 17.3372 311.132 16.9401 311.397 16.6753C311.635 16.437 312.032 16.437 312.297 16.6753L315.448 19.8526L318.599 16.7018C318.837 16.437 319.234 16.437 319.499 16.7018C319.737 16.9401 319.737 17.3372 319.499 17.5755Z" fill="#9CA3AF"/>
<rect x="343.889" y="6" width="100.796" height="30.5882" rx="7.7466" fill="#1F2937"/>
<path d="M360.561 20.4301C360.561 21.1981 360.627 21.8161 360.759 22.2841C360.891 22.7481 361.083 23.0841 361.335 23.2921C361.587 23.4961 361.897 23.5981 362.265 23.5981C362.565 23.5981 362.821 23.5341 363.033 23.4061C363.245 23.2741 363.411 23.0801 363.531 22.8241C363.651 22.5641 363.727 22.2441 363.759 21.8641L365.217 21.9661C365.197 22.6181 365.063 23.1661 364.815 23.6101C364.567 24.0541 364.223 24.3881 363.783 24.6121C363.347 24.8361 362.829 24.9481 362.229 24.9481C361.545 24.9481 360.959 24.7901 360.471 24.4741C359.983 24.1541 359.605 23.6581 359.337 22.9861C359.073 22.3141 358.941 21.4621 358.941 20.4301C358.941 19.3981 359.071 18.5461 359.331 17.8741C359.595 17.2021 359.971 16.7061 360.459 16.3861C360.947 16.0661 361.537 15.9061 362.229 15.9061C362.821 15.9061 363.337 16.0181 363.777 16.2421C364.217 16.4661 364.561 16.7981 364.809 17.2381C365.061 17.6781 365.197 18.2161 365.217 18.8521L363.759 18.9541C363.727 18.5901 363.651 18.2821 363.531 18.0301C363.411 17.7741 363.245 17.5821 363.033 17.4541C362.821 17.3221 362.565 17.2561 362.265 17.2561C361.897 17.2561 361.587 17.3601 361.335 17.5681C361.083 17.7761 360.891 18.1141 360.759 18.5821C360.627 19.0461 360.561 19.6621 360.561 20.4301ZM372.7 21.6721C372.7 22.4041 372.562 23.0161 372.286 23.5081C372.01 24.0001 371.636 24.3641 371.164 24.6001C370.696 24.8361 370.166 24.9541 369.574 24.9541C368.982 24.9541 368.45 24.8361 367.978 24.6001C367.51 24.3641 367.138 24.0001 366.862 23.5081C366.586 23.0121 366.448 22.4001 366.448 21.6721C366.448 20.9361 366.586 20.3201 366.862 19.8241C367.138 19.3241 367.512 18.9521 367.984 18.7081C368.456 18.4601 368.986 18.3361 369.574 18.3361C370.162 18.3361 370.692 18.4601 371.164 18.7081C371.636 18.9521 372.01 19.3241 372.286 19.8241C372.562 20.3201 372.7 20.9361 372.7 21.6721ZM371.152 21.6661C371.152 21.1701 371.086 20.7641 370.954 20.4481C370.822 20.1321 370.638 19.9021 370.402 19.7581C370.17 19.6101 369.894 19.5361 369.574 19.5361C369.254 19.5361 368.976 19.6101 368.74 19.7581C368.508 19.9021 368.326 20.1321 368.194 20.4481C368.062 20.7641 367.996 21.1701 367.996 21.6661C367.996 22.1621 368.062 22.5661 368.194 22.8781C368.326 23.1861 368.508 23.4101 368.74 23.5501C368.976 23.6861 369.254 23.7541 369.574 23.7541C369.894 23.7541 370.17 23.6861 370.402 23.5501C370.638 23.4101 370.822 23.1861 370.954 22.8781C371.086 22.5661 371.152 22.1621 371.152 21.6661ZM375.348 24.8101H374.022V18.4801H375.15L375.264 19.6021H375.348V24.8101ZM376.356 24.8101V20.1421C376.356 19.9581 376.318 19.8281 376.242 19.7521C376.17 19.6761 376.072 19.6381 375.948 19.6381C375.784 19.6381 375.634 19.6881 375.498 19.7881C375.366 19.8881 375.216 20.0301 375.048 20.2141L374.97 19.3381H375.36C375.44 19.1581 375.54 18.9941 375.66 18.8461C375.784 18.6981 375.934 18.5801 376.11 18.4921C376.29 18.4001 376.49 18.3541 376.71 18.3541C377.03 18.3541 377.272 18.4561 377.436 18.6601C377.6 18.8641 377.682 19.1801 377.682 19.6081V24.8101H376.356ZM378.69 24.8101V20.1421C378.69 19.9581 378.652 19.8281 378.576 19.7521C378.504 19.6761 378.404 19.6381 378.276 19.6381C378.112 19.6381 377.962 19.6881 377.826 19.7881C377.694 19.8841 377.548 20.0261 377.388 20.2141L377.322 19.3381H377.742C377.818 19.1581 377.914 18.9941 378.03 18.8461C378.15 18.6981 378.294 18.5801 378.462 18.4921C378.634 18.4001 378.828 18.3541 379.044 18.3541C379.364 18.3541 379.604 18.4561 379.764 18.6601C379.928 18.8641 380.01 19.1801 380.01 19.6081V24.8101H378.69ZM382.789 24.8101H381.463V18.4801H382.591L382.705 19.6021H382.789V24.8101ZM383.797 24.8101V20.1421C383.797 19.9581 383.759 19.8281 383.683 19.7521C383.611 19.6761 383.513 19.6381 383.389 19.6381C383.225 19.6381 383.075 19.6881 382.939 19.7881C382.807 19.8881 382.657 20.0301 382.489 20.2141L382.411 19.3381H382.801C382.881 19.1581 382.981 18.9941 383.101 18.8461C383.225 18.6981 383.375 18.5801 383.551 18.4921C383.731 18.4001 383.931 18.3541 384.151 18.3541C384.471 18.3541 384.713 18.4561 384.877 18.6601C385.041 18.8641 385.123 19.1801 385.123 19.6081V24.8101H383.797ZM386.131 24.8101V20.1421C386.131 19.9581 386.093 19.8281 386.017 19.7521C385.945 19.6761 385.845 19.6381 385.717 19.6381C385.553 19.6381 385.403 19.6881 385.267 19.7881C385.135 19.8841 384.989 20.0261 384.829 20.2141L384.763 19.3381H385.183C385.259 19.1581 385.355 18.9941 385.471 18.8461C385.591 18.6981 385.735 18.5801 385.903 18.4921C386.075 18.4001 386.269 18.3541 386.485 18.3541C386.805 18.3541 387.045 18.4561 387.205 18.6601C387.369 18.8641 387.451 19.1801 387.451 19.6081V24.8101H386.131ZM388.773 21.6361C388.773 20.9201 388.907 20.3161 389.175 19.8241C389.447 19.3281 389.827 18.9561 390.315 18.7081C390.803 18.4601 391.373 18.3361 392.025 18.3361C392.633 18.3361 393.151 18.4441 393.579 18.6601C394.007 18.8721 394.331 19.1921 394.551 19.6201C394.775 20.0481 394.887 20.5821 394.887 21.2221V21.8221H389.967V20.8921H393.669L393.399 21.1321V20.8921C393.399 20.4441 393.271 20.1061 393.015 19.8781C392.763 19.6461 392.417 19.5301 391.977 19.5301C391.457 19.5301 391.051 19.7021 390.759 20.0461C390.467 20.3901 390.321 20.9201 390.321 21.6361C390.321 22.3281 390.461 22.8541 390.741 23.2141C391.025 23.5741 391.433 23.7541 391.965 23.7541C392.301 23.7541 392.589 23.6841 392.829 23.5441C393.073 23.4001 393.259 23.1841 393.387 22.8961L394.869 23.1121C394.721 23.5361 394.501 23.8861 394.209 24.1621C393.921 24.4341 393.585 24.6341 393.201 24.7621C392.821 24.8901 392.409 24.9541 391.965 24.9541C391.329 24.9541 390.771 24.8281 390.291 24.5761C389.811 24.3241 389.437 23.9501 389.169 23.4541C388.905 22.9581 388.773 22.3521 388.773 21.6361ZM398.092 24.8101H396.562V18.4801H397.894L398.002 19.6021H398.092V24.8101ZM400.588 24.8101V20.5981C400.588 20.3381 400.548 20.1321 400.468 19.9801C400.392 19.8281 400.286 19.7221 400.15 19.6621C400.014 19.5981 399.85 19.5661 399.658 19.5661C399.314 19.5661 398.994 19.6541 398.698 19.8301C398.402 20.0021 398.12 20.2461 397.852 20.5621V19.4161H398.182C398.502 19.0681 398.834 18.8021 399.178 18.6181C399.526 18.4341 399.932 18.3421 400.396 18.3421C400.772 18.3421 401.086 18.4061 401.338 18.5341C401.594 18.6621 401.788 18.8641 401.92 19.1401C402.052 19.4121 402.118 19.7641 402.118 20.1961V24.8101H400.588ZM409.41 18.4801V19.7221H403.65V18.4801H405.72H405.894H409.41ZM407.964 24.9721C407.296 24.9721 406.772 24.8961 406.392 24.7441C406.012 24.5881 405.734 24.3141 405.558 23.9221C405.382 23.5301 405.294 22.9661 405.294 22.2301V16.6741H406.818V22.2181C406.818 22.6061 406.86 22.9021 406.944 23.1061C407.032 23.3101 407.17 23.4521 407.358 23.5321C407.546 23.6121 407.81 23.6521 408.15 23.6521C408.558 23.6521 409.026 23.5881 409.554 23.4601V24.7621C409.322 24.8301 409.072 24.8821 408.804 24.9181C408.536 24.9541 408.256 24.9721 407.964 24.9721Z" fill="#9CA3AF"/>
<path d="M428.295 17.5755L425.118 20.7528L428.268 23.9037C428.533 24.142 428.533 24.5391 428.268 24.7774C428.03 25.0422 427.633 25.0422 427.395 24.7774L424.217 21.6266L421.067 24.7774C420.828 25.0422 420.431 25.0422 420.193 24.7774C419.928 24.5391 419.928 24.142 420.193 23.8772L423.344 20.7264L420.193 17.5755C419.928 17.3372 419.928 16.9401 420.193 16.6753C420.431 16.437 420.828 16.437 421.093 16.6753L424.244 19.8526L427.395 16.7018C427.633 16.437 428.03 16.437 428.295 16.7018C428.533 16.9401 428.533 17.3372 428.295 17.5755Z" fill="#9CA3AF"/>
<rect x="452.686" y="6" width="96.0497" height="30.5882" rx="7.7466" fill="#6366F1"/>
<path d="M469.358 20.4301C469.358 21.1981 469.424 21.8161 469.556 22.2841C469.688 22.7481 469.88 23.0841 470.132 23.2921C470.384 23.4961 470.694 23.5981 471.062 23.5981C471.362 23.5981 471.618 23.5341 471.83 23.4061C472.042 23.2741 472.208 23.0801 472.328 22.8241C472.448 22.5641 472.524 22.2441 472.556 21.8641L474.014 21.9661C473.994 22.6181 473.86 23.1661 473.612 23.6101C473.364 24.0541 473.02 24.3881 472.58 24.6121C472.144 24.8361 471.626 24.9481 471.026 24.9481C470.342 24.9481 469.756 24.7901 469.268 24.4741C468.78 24.1541 468.402 23.6581 468.134 22.9861C467.87 22.3141 467.738 21.4621 467.738 20.4301C467.738 19.3981 467.868 18.5461 468.128 17.8741C468.392 17.2021 468.768 16.7061 469.256 16.3861C469.744 16.0661 470.334 15.9061 471.026 15.9061C471.618 15.9061 472.134 16.0181 472.574 16.2421C473.014 16.4661 473.358 16.7981 473.606 17.2381C473.858 17.6781 473.994 18.2161 474.014 18.8521L472.556 18.9541C472.524 18.5901 472.448 18.2821 472.328 18.0301C472.208 17.7741 472.042 17.5821 471.83 17.4541C471.618 17.3221 471.362 17.2561 471.062 17.2561C470.694 17.2561 470.384 17.3601 470.132 17.5681C469.88 17.7761 469.688 18.1141 469.556 18.5821C469.424 19.0461 469.358 19.6621 469.358 20.4301ZM475.521 23.5681H481.221V24.8101H475.521V23.5681ZM477.609 24.8101V16.4761L477.879 16.8661H475.527V15.6301L478.959 15.4801L479.139 15.6601L479.133 24.8101H477.609ZM488.939 21.6721C488.939 22.4041 488.801 23.0161 488.525 23.5081C488.249 24.0001 487.875 24.3641 487.403 24.6001C486.935 24.8361 486.405 24.9541 485.813 24.9541C485.221 24.9541 484.689 24.8361 484.217 24.6001C483.749 24.3641 483.377 24.0001 483.101 23.5081C482.825 23.0121 482.687 22.4001 482.687 21.6721C482.687 20.9361 482.825 20.3201 483.101 19.8241C483.377 19.3241 483.751 18.9521 484.223 18.7081C484.695 18.4601 485.225 18.3361 485.813 18.3361C486.401 18.3361 486.931 18.4601 487.403 18.7081C487.875 18.9521 488.249 19.3241 488.525 19.8241C488.801 20.3201 488.939 20.9361 488.939 21.6721ZM487.391 21.6661C487.391 21.1701 487.325 20.7641 487.193 20.4481C487.061 20.1321 486.877 19.9021 486.641 19.7581C486.409 19.6101 486.133 19.5361 485.813 19.5361C485.493 19.5361 485.215 19.6101 484.979 19.7581C484.747 19.9021 484.565 20.1321 484.433 20.4481C484.301 20.7641 484.235 21.1701 484.235 21.6661C484.235 22.1621 484.301 22.5661 484.433 22.8781C484.565 23.1861 484.747 23.4101 484.979 23.5501C485.215 23.6861 485.493 23.7541 485.813 23.7541C486.133 23.7541 486.409 23.6861 486.641 23.5501C486.877 23.4101 487.061 23.1861 487.193 22.8781C487.325 22.5661 487.391 22.1621 487.391 21.6661ZM493.296 18.3361C493.872 18.3361 494.36 18.4081 494.76 18.5521C495.16 18.6921 495.462 18.9041 495.666 19.1881C495.87 19.4721 495.966 19.8201 495.954 20.2321L494.574 20.3401C494.546 20.0321 494.42 19.8041 494.196 19.6561C493.972 19.5041 493.638 19.4281 493.194 19.4281C492.79 19.4281 492.478 19.4881 492.258 19.6081C492.038 19.7241 491.928 19.8961 491.928 20.1241C491.928 20.2641 491.974 20.3821 492.066 20.4781C492.162 20.5701 492.302 20.6501 492.486 20.7181C492.67 20.7861 492.948 20.8661 493.32 20.9581C493.452 20.9901 493.584 21.0221 493.716 21.0541C494.28 21.1821 494.722 21.3141 495.042 21.4501C495.362 21.5821 495.616 21.7661 495.804 22.0021C495.992 22.2341 496.086 22.5421 496.086 22.9261C496.086 23.3421 495.974 23.7021 495.75 24.0061C495.526 24.3101 495.192 24.5441 494.748 24.7081C494.308 24.8721 493.772 24.9541 493.14 24.9541C492.544 24.9541 492.046 24.8881 491.646 24.7561C491.25 24.6241 490.934 24.4161 490.698 24.1321C490.462 23.8441 490.302 23.4661 490.218 22.9981L491.616 22.8361C491.684 23.1081 491.79 23.3181 491.934 23.4661C492.078 23.6141 492.25 23.7161 492.45 23.7721C492.654 23.8241 492.91 23.8501 493.218 23.8501C493.526 23.8501 493.778 23.8181 493.974 23.7541C494.174 23.6861 494.32 23.5961 494.412 23.4841C494.504 23.3681 494.55 23.2421 494.55 23.1061C494.55 22.9461 494.488 22.8161 494.364 22.7161C494.24 22.6161 494.06 22.5301 493.824 22.4581C493.592 22.3861 493.214 22.2901 492.69 22.1701C492.206 22.0661 491.802 21.9361 491.478 21.7801C491.158 21.6241 490.91 21.4221 490.734 21.1741C490.558 20.9221 490.47 20.6121 490.47 20.2441C490.47 19.6401 490.706 19.1721 491.178 18.8401C491.654 18.5041 492.36 18.3361 493.296 18.3361ZM497.57 21.6361C497.57 20.9201 497.704 20.3161 497.972 19.8241C498.244 19.3281 498.624 18.9561 499.112 18.7081C499.6 18.4601 500.17 18.3361 500.822 18.3361C501.43 18.3361 501.948 18.4441 502.376 18.6601C502.804 18.8721 503.128 19.1921 503.348 19.6201C503.572 20.0481 503.684 20.5821 503.684 21.2221V21.8221H498.764V20.8921H502.466L502.196 21.1321V20.8921C502.196 20.4441 502.068 20.1061 501.812 19.8781C501.56 19.6461 501.214 19.5301 500.774 19.5301C500.254 19.5301 499.848 19.7021 499.556 20.0461C499.264 20.3901 499.118 20.9201 499.118 21.6361C499.118 22.3281 499.258 22.8541 499.538 23.2141C499.822 23.5741 500.23 23.7541 500.762 23.7541C501.098 23.7541 501.386 23.6841 501.626 23.5441C501.87 23.4001 502.056 23.1841 502.184 22.8961L503.666 23.1121C503.518 23.5361 503.298 23.8861 503.006 24.1621C502.718 24.4341 502.382 24.6341 501.998 24.7621C501.618 24.8901 501.206 24.9541 500.762 24.9541C500.126 24.9541 499.568 24.8281 499.088 24.5761C498.608 24.3241 498.234 23.9501 497.966 23.4541C497.702 22.9581 497.57 22.3521 497.57 21.6361ZM515.374 18.3361C515.926 18.3361 516.392 18.4021 516.772 18.5341C517.152 18.6661 517.444 18.8801 517.648 19.1761C517.856 19.4681 517.96 19.8521 517.96 20.3281V23.2501C517.96 23.3901 517.978 23.4961 518.014 23.5681C518.054 23.6361 518.12 23.6821 518.212 23.7061C518.304 23.7261 518.438 23.7261 518.614 23.7061V24.8101C518.286 24.8981 517.978 24.9421 517.69 24.9421C517.378 24.9421 517.136 24.8921 516.964 24.7921C516.792 24.6921 516.674 24.5581 516.61 24.3901C516.546 24.2221 516.514 24.0181 516.514 23.7781L516.43 23.6641V20.4001C516.43 20.1481 516.382 19.9461 516.286 19.7941C516.194 19.6421 516.064 19.5361 515.896 19.4761C515.728 19.4161 515.524 19.3861 515.284 19.3861C515.044 19.3861 514.838 19.4161 514.666 19.4761C514.498 19.5321 514.366 19.6261 514.27 19.7581C514.174 19.8861 514.126 20.0521 514.126 20.2561L514.12 20.5021H512.752V20.1901C512.752 19.6141 512.962 19.1621 513.382 18.8341C513.806 18.5021 514.47 18.3361 515.374 18.3361ZM517.072 22.1821C516.888 22.1461 516.71 22.1181 516.538 22.0981C516.366 22.0741 516.186 22.0621 515.998 22.0621C515.594 22.0621 515.254 22.0981 514.978 22.1701C514.706 22.2421 514.496 22.3521 514.348 22.5001C514.204 22.6441 514.132 22.8281 514.132 23.0521C514.132 23.2161 514.172 23.3581 514.252 23.4781C514.332 23.5981 514.446 23.6901 514.594 23.7541C514.746 23.8181 514.926 23.8501 515.134 23.8501C515.406 23.8501 515.664 23.7981 515.908 23.6941C516.152 23.5901 516.394 23.4401 516.634 23.2441L516.622 24.0481H516.376C516.184 24.2441 515.996 24.4041 515.812 24.5281C515.632 24.6521 515.418 24.7541 515.17 24.8341C514.926 24.9141 514.662 24.9541 514.378 24.9541C514.01 24.9541 513.686 24.8861 513.406 24.7501C513.13 24.6141 512.916 24.4181 512.764 24.1621C512.616 23.9061 512.542 23.6041 512.542 23.2561C512.542 22.6841 512.738 22.2501 513.13 21.9541C513.526 21.6541 514.02 21.4601 514.612 21.3721C515.208 21.2801 515.878 21.2441 516.622 21.2641L517.072 22.1821ZM520.17 23.5681H525.87V24.8101H520.17V23.5681ZM522.258 24.8101V16.4761L522.528 16.8661H520.176V15.6301L523.608 15.4801L523.788 15.6601L523.782 24.8101H522.258ZM527.611 23.5681H533.311V24.8101H527.611V23.5681ZM529.699 24.8101V16.4761L529.969 16.8661H527.617V15.6301L531.049 15.4801L531.229 15.6601L531.223 24.8101H529.699Z" fill="#F9FAFB"/>
</svg>
